<svg width="1096" height="656" xmlns="http://www.w3.org/2000/svg"><g stroke-width="2" fill="none" fill-rule="evenodd"><g opacity=".0564" stroke="#FFF"><path opacity=".3" d="m3.2538 391.107 6.988-93.911 92.6552 64.396z"/><path d="m501.84 243.419 6.988-93.911 92.656 64.396z"/><path opacity=".5" d="m673.175 560.033 6.988-93.911 92.656 64.395z"/><path d="m88.921 549.414 6.988-93.911 92.656 64.396zM587.508 401.726l6.988-93.911 92.655 64.395z"/><path opacity=".3" d="m3.254 391.107 92.656 64.396 6.987-93.911z"/><path opacity=".4" d="m501.84 243.419 92.655 64.396 6.988-93.911z"/><path opacity=".5" d="m673.175 560.033 92.656 64.395 6.988-93.911z"/><path d="m88.921 549.414 92.656 64.396 6.988-93.912zM587.508 401.726l92.655 64.396 6.988-93.912z"/><path opacity=".3" d="m102.971 361.57 6.988-93.911 92.656 64.395z"/><path d="m601.557 213.882 6.988-93.911 92.656 64.395z"/><path opacity=".5" d="m772.893 530.495 6.987-93.911 92.656 64.396z"/><path d="m188.639 519.877 6.988-93.912 92.655 64.396zM687.225 372.188l6.988-93.911 92.655 64.396z"/><path opacity=".3" d="m102.971 361.57 92.656 64.395 6.988-93.911z"/><path opacity=".4" d="m601.557 213.882 92.656 64.395 6.988-93.911z"/><path opacity=".5" d="m772.893 530.495 92.655 64.396 6.988-93.911z"/><path d="m188.639 519.877 92.655 64.395 6.988-93.911z"/><path opacity=".6" d="m687.225 372.189 92.655 64.395 6.988-93.911z"/><path opacity=".3" d="m202.688 332.032 6.988-93.911 92.656 64.396z"/><path opacity=".6" d="m374.023 648.646 6.988-93.911 92.656 64.395z"/><path opacity=".3" d="m701.274 184.344 6.988-93.911 92.656 64.396z"/><path d="m872.61 500.958 6.988-93.912 92.652 64.396z"/><path opacity=".3" d="m288.356 490.339 6.988-93.911 92.655 64.395z"/><path d="m786.942 342.651 6.988-93.911 92.656 64.395z"/><path opacity=".3" d="m202.689 332.032 92.655 64.396 6.988-93.912zM701.274 184.344l92.656 64.396 6.988-93.912z"/><path d="m872.61 500.958 92.66 64.395 6.98-93.911zM288.356 490.339l92.656 64.396 6.987-93.912z"/><path opacity=".6" d="m786.942 342.651 92.656 64.396 6.988-93.912z"/><path opacity=".3" d="m302.406 302.495 6.988-93.912 92.655 64.396z"/><path opacity=".5" d="m473.741 619.108 6.988-93.911 92.655 64.396z"/><path opacity=".3" d="m800.992 154.807 6.988-93.912 92.655 64.396z"/><path opacity=".6" d="m972.33 471.42 6.99-93.911 92.65 64.395zM388.073 460.802l6.988-93.912 92.656 64.396z"/><path d="m886.66 313.114 6.988-93.912 92.652 64.396z"/><path opacity=".3" d="m302.405 302.495 92.656 64.395 6.988-93.911zM800.992 154.807l92.655 64.395 6.988-93.911z"/><path opacity=".6" d="m388.073 460.801 92.656 64.396 6.988-93.911z"/><path d="m886.659 313.113 92.651 64.396 6.99-93.911zM402.123 272.957l6.988-93.911 92.655 64.395z"/><path opacity=".5" d="m573.458 589.571 6.988-93.911 92.655 64.395zM666.458 653.571l6.988-93.911 92.655 64.395z"/><path d="m900.709 125.269 6.988-93.9112 92.653 64.3952z"/><path opacity=".6" d="m487.79 431.264 6.988-93.911 92.656 64.395z"/><path d="m986.38 283.576 6.98-93.911 92.66 64.395zM402.123 272.957l92.655 64.395 6.988-93.911zM900.709 125.269l92.651 64.395 6.99-93.911z"/><path opacity=".5" d="m487.791 431.264 92.655 64.395 6.988-93.911z"/><path d="m986.38 283.576 92.65 64.395 6.99-93.911z"/><path opacity=".3" d="m109.922 267.669-6.988 93.912-92.6555-64.396z"/><path opacity=".4" d="m608.508 119.981-6.988 93.912-92.655-64.396z"/><path opacity=".5" d="m779.843 436.595-6.988 93.911-92.655-64.395z"/><path d="m195.59 425.976-6.988 93.912-92.656-64.396zM694.176 278.288l-6.988 93.912-92.656-64.396z"/><path opacity=".3" d="m195.59 425.976-92.656-64.395-6.988 93.911z"/><path opacity=".5" d="m865.511 594.902-92.655-64.396-6.988 93.912z"/><path d="m281.257 584.283-92.655-64.395-6.988 93.911z"/><path opacity=".6" d="M779.844 436.595 687.188 372.2l-6.988 93.911z"/><path opacity=".3" d="m209.639 238.132-6.988 93.911-92.655-64.395z"/><path d="m380.975 554.746-6.988 93.911-92.656-64.396zM708.226 90.444l-6.988 93.911-92.656-64.395z"/><path opacity=".5" d="m879.561 407.058-6.988 93.911-92.655-64.396z"/><path opacity=".3" d="m295.307 396.439-6.988 93.911-92.655-64.396z"/><path d="m793.893 248.751-6.988 93.911-92.655-64.396z"/><path opacity=".3" d="m295.307 396.439-92.655-64.396-6.988 93.911z"/><path d="m965.23 565.365-92.657-64.396-6.988 93.911zM380.975 554.745l-92.656-64.395-6.988 93.911z"/><path opacity=".3" d="m309.357 208.594-6.988 93.912-92.656-64.396z"/><path opacity=".6" d="m480.692 525.208-6.988 93.911-92.656-64.395z"/><path opacity=".3" d="m807.943 60.906-6.988 93.912-92.656-64.396z"/><path opacity=".6" d="m979.28 377.52-6.99 93.911-92.656-64.395z"/><path opacity=".3" d="m395.024 366.901-6.988 93.911-92.655-64.395z"/><path d="m893.61 219.213-6.988 93.911-92.655-64.395zM1064.95 535.827l-92.66-64.396-6.99 93.912z"/><path opacity=".6" d="m480.692 525.208-92.656-64.396-6.988 93.912zM979.28 377.52l-92.657-64.396-6.988 93.912z"/><path opacity=".4" d="m409.074 179.057-6.988 93.911-92.656-64.396z"/><path opacity=".5" d="m580.409 495.67-6.988 93.912-92.655-64.396zM673.409 559.67l-6.988 93.912-92.655-64.396z"/><path opacity=".3" d="m907.66 31.3686-6.988 93.9114-92.655-64.396z"/><path opacity=".6" d="m1079 347.982-6.99 93.912-92.66-64.396zM1072 441.982l-6.99 93.912-92.66-64.396zM494.741 337.364l-6.988 93.911-92.655-64.396z"/><path d="m993.33 189.676-6.99 93.911-92.656-64.396z"/><path opacity=".5" d="m580.409 495.67-92.655-64.395-6.988 93.911z"/><path d="m1079 347.982-92.66-64.395-6.99 93.911z"/><path opacity=".4" d="m508.791 149.519-6.988 93.911-92.655-64.395z"/><path opacity=".5" d="m680.127 466.133-6.988 93.911-92.656-64.395z"/><path d="m1007.38 1.831-6.99 93.911-92.656-64.3952z"/><path opacity=".6" d="m594.459 307.826-6.988 93.911-92.656-64.395z"/><path d="m1093.04 160.138-6.98 93.911-92.66-64.395z"/><path d="m1093.04 160.138-92.65-64.396-6.99 93.912z"/><path opacity=".5" d="m680.126 466.133-92.655-64.396-6.988 93.911z"/><path d="m965.23 565.365-92.657-64.396-6.988 93.911z"/></g><path stroke="#080D19" opacity=".254" d="m879.561 407.057-92.656-64.395-6.987 93.911z"/></g></svg>