<svg width="100" height="30" viewBox="0 0 100 30" fill="none" xmlns="http://www.w3.org/2000/svg">
<path d="M3.08487 6H0V23H3.08487V6Z" fill="#292524"/>
<path d="M61.6716 19.8263C61.1107 19.8263 60.5683 19.5884 60.2177 19.1371C60.096 18.9823 59.9963 18.8123 59.9594 18.6462C59.8783 18.2836 59.8413 17.8361 59.9391 17.332C60.0812 16.5881 60.393 15.9215 60.393 14.4884C60.393 13.0553 60.0701 12.3793 59.9151 11.6316C59.8008 11.0784 59.8543 10.5931 59.9631 10.2098C59.9926 10.0965 60.0572 9.98132 60.1384 9.86992C60.4853 9.38843 61.0535 9.12975 61.6366 9.12975H69.4631V6.00293H57.1587L57.1587 23H69.7306V19.8263H61.6753H61.6716Z" fill="#292524"/>
<path d="M66.0055 12.9269H63.0387C62.2011 12.9269 61.5203 13.6255 61.5203 14.4865C61.5203 15.3475 62.1992 16.0461 63.0387 16.0461H66.0055C66.8431 16.0461 67.524 15.3475 67.524 14.4865C67.524 13.6255 66.845 12.9269 66.0055 12.9269Z" fill="#292524"/>
<path d="M46.4797 13.5178V16.1801H51.2343C51.2011 16.8448 51.0701 17.4358 50.8377 17.9475C49.3266 21.3537 44.0535 20.7344 42.6771 17.4868C42.2768 16.6333 42.0757 15.6477 42.0757 14.5336C42.0757 13.4857 42.2768 12.5378 42.6771 11.6901C43.0775 10.8423 43.6605 10.1757 44.4207 9.69047C45.1808 9.2071 46.0738 8.96352 47.0923 8.96352C48.1107 8.96352 48.9668 9.15423 49.6974 9.53375C50.4281 9.91327 51.12 10.4401 51.7842 11.1179L53.834 8.69729C52.9853 7.80796 51.9668 7.10367 50.7712 6.58064C49.5757 6.05573 48.2989 5.79138 46.9318 5.79138C45.2823 5.79138 43.8118 6.15391 42.5166 6.88086C41.2214 7.60781 40.2141 8.64064 39.5019 9.97936C38.7879 11.3181 38.4318 12.8362 38.4318 14.5318C38.4318 16.2273 38.762 17.7662 39.4207 19.0974C41.3524 23.1513 46.679 24.4239 50.1273 21.822C50.4668 21.5388 50.8377 21.3689 51.1569 21.5029C51.3819 21.5992 51.5111 21.8447 51.5203 22.0939C51.5369 22.5357 51.5535 22.6469 51.5646 23H54.1181V13.514H46.4797V13.5178Z" fill="#292524"/>
<path d="M32.9077 6L32.9944 11.9261C32.9944 13.0873 33.0719 14.258 33.6845 15.1983C35 17.2224 33.3321 18.563 32.1642 17.2243L23.843 6L20.0756 5.99999V10.5402L20.083 17.7643C20.083 18.2421 19.6992 18.8954 18.8782 18.8425C17.7177 18.7707 17.9594 16.3426 16.0553 14.1674L10.0147 6.01611L6.37451 6.00001V23H9.54794V17.8134C9.54794 16.4917 9.57193 14.7527 8.92802 13.8256C7.85791 12.283 8.64942 11.135 9.59407 11.2558C10.0018 11.3068 10.2195 11.6089 10.2195 11.6089L15.5867 18.8689L18.6513 23H23.2288V17.1903C23.2288 16.0291 23.2048 14.9359 22.7232 13.9219C22.6974 13.8709 22.6789 13.8181 22.6568 13.7633C22.5701 13.5556 22.5184 13.3517 22.4538 13.1647C22.1919 12.3736 22.417 11.8128 22.8284 11.573C23.2158 11.3483 23.7435 11.3521 24.1402 11.8109C24.4096 12.1263 32.2937 23 32.2937 23H36.0848V6H32.9077Z" fill="#292524"/>
<path d="M76.2878 9.2518C76.8395 8.91193 77.6144 8.72877 78.6162 8.72877C79.5387 8.72877 80.3653 8.90437 81.0756 9.24424C81.7989 9.586 82.441 10.0845 82.9871 10.7284L83.4483 11.2721L85.2288 8.72311L84.9133 8.38701C84.3616 7.78846 83.7768 7.28809 83.1605 6.89346C82.5443 6.49506 81.845 6.18162 81.0941 5.97014C80.3413 5.74923 79.5055 5.6416 78.6181 5.6416C77.4262 5.6416 76.3395 5.82098 75.3875 6.1854C74.4151 6.55548 73.6236 7.11249 73.059 7.85643C72.4834 8.60982 72.1919 9.52369 72.1919 10.5584C72.1919 11.5063 72.4114 12.3427 72.8616 13.0282C73.2989 13.6985 73.9483 14.2706 74.7768 14.72C75.5812 15.1618 76.6199 15.5432 77.869 15.8642L78.2417 15.9548L78.3063 15.7131L78.2528 15.9548C79.2657 16.2324 80.0424 16.4873 80.5646 16.712L80.6587 16.4835L80.5646 16.7158C81.0424 16.9272 81.369 17.1689 81.5609 17.4352C81.655 17.5673 81.7251 17.7335 81.7731 17.9185C81.8137 18.0809 81.8432 18.2641 81.8432 18.4718C81.8432 18.9457 81.7288 19.3233 81.5166 19.6311C81.4059 19.7897 81.2786 19.9389 81.1089 20.0597C80.5738 20.4468 79.786 20.6658 78.7362 20.6658C77.7528 20.6658 76.8155 20.4336 75.9336 19.9842L75.8266 20.2051L75.9336 19.9804C75.0461 19.5197 74.3487 18.9533 73.8579 18.2924L73.4077 17.6806L71.5646 20.3222L71.8469 20.6621C72.631 21.5892 73.6236 22.3369 74.7952 22.892C75.9723 23.4566 77.3026 23.7322 78.7362 23.7322C79.9908 23.7322 81.1181 23.5359 82.0738 23.1375C83.0498 22.7334 83.8376 22.1197 84.3893 21.321C84.9483 20.511 85.2269 19.5329 85.2269 18.4227C85.2269 17.4257 84.9945 16.5515 84.5332 15.8359C84.083 15.1335 83.3985 14.5462 82.5314 14.0855V14.0761C81.6863 13.6305 80.583 13.2321 79.2399 12.8941L78.8358 12.8035C77.9207 12.558 77.2214 12.3295 76.7472 12.1143C76.3137 11.9236 76.0129 11.6932 75.845 11.4572C75.6808 11.2249 75.5922 10.9285 75.5922 10.5263C75.5922 10.2355 75.6531 9.99385 75.7675 9.78993C75.8819 9.586 76.0535 9.40663 76.3026 9.25369H76.2934L76.2878 9.2518Z" fill="#292524"/>
<path d="M96.6752 6.00189C96.3634 6.00189 96.0535 6.02455 95.7453 6.07553C95.166 6.17182 94.8929 6.29267 94.5848 6.43239C94.4298 6.50226 93.9612 6.80625 93.3413 6.80625C92.7214 6.80625 92.3265 6.51736 92.1918 6.45883C91.9059 6.33421 91.642 6.21903 91.1955 6.12084C90.8081 6.03588 90.4132 6 90.0166 6H86.7158V9.06262H90.7896C91.345 9.06262 91.7952 9.529 91.7952 10.1011V23H94.9003V10.0973C94.9003 9.52712 95.3505 9.06262 95.9059 9.06262H100V6.00189H96.6715H96.6752Z" fill="#292524"/>
</svg>
