<svg width="198" height="110" viewBox="0 0 198 110" fill="none" xmlns="http://www.w3.org/2000/svg">
<g clip-path="url(#clip0_10073_19365)">
<rect width="198" height="110" fill="#080808"/>
<g opacity="0.66">
<path d="M14 195.121L14 -63.1208C14 -75.2043 7.94483 -85 0.475417 -85H-1.47542C-8.94484 -85 -15 -75.2043 -15 -63.1208L-15 195.121C-15 207.204 -8.94484 217 -1.47542 217H0.475417C7.94483 217 14 207.204 14 195.121Z" stroke="#4B4B4B" stroke-width="0.5" stroke-miterlimit="10"/>
<path d="M176 -63.1208V195.121C176 207.204 182.055 217 189.525 217H191.475C198.945 217 205 207.204 205 195.121V-63.1208C205 -75.2043 198.945 -85 191.475 -85H189.525C182.055 -85 176 -75.2043 176 -63.1208Z" stroke="#4B4B4B" stroke-width="0.5" stroke-miterlimit="10"/>
<path d="M53 166.043L53 -34.0426C53 -43.4079 48.6134 -51 43.2023 -51H41.7977C36.3866 -51 32 -43.4079 32 -34.0426L32 166.043C32 175.408 36.3866 183 41.7977 183H43.2023C48.6134 183 53 175.408 53 166.043Z" stroke="#4B4B4B" stroke-width="0.5" stroke-miterlimit="10"/>
<path d="M137 -34.0426V166.043C137 175.408 141.387 183 146.798 183H148.202C153.613 183 158 175.408 158 166.043V-34.0426C158 -43.4079 153.613 -51 148.202 -51H146.798C141.387 -51 137 -43.4079 137 -34.0426Z" stroke="#4B4B4B" stroke-width="0.5" stroke-miterlimit="10"/>
<path d="M66 2L52 -43" stroke="#4B4B4B" stroke-width="0.5" stroke-miterlimit="10"/>
<path d="M124 2L138 -43" stroke="#4B4B4B" stroke-width="0.5" stroke-miterlimit="10"/>
<path d="M84 145.523V-13.523C84 -20.9662 80.2431 -27 75.6087 -27H74.3913C69.7569 -27 66 -20.9662 66 -13.523V145.523C66 152.966 69.7569 159 74.3913 159H75.6087C80.2431 159 84 152.966 84 145.523Z" stroke="#4B4B4B" stroke-width="0.5" stroke-miterlimit="10"/>
<path d="M106 -13.523V145.523C106 152.966 109.757 159 114.391 159H115.609C120.243 159 124 152.966 124 145.523V-13.523C124 -20.9662 120.243 -27 115.609 -27H114.391C109.757 -27 106 -20.9662 106 -13.523Z" stroke="#4B4B4B" stroke-width="0.5" stroke-miterlimit="10"/>
<path d="M95 13L83 -21" stroke="#4B4B4B" stroke-width="0.5" stroke-miterlimit="10"/>
<path d="M95 13L107 -21" stroke="#4B4B4B" stroke-width="0.5" stroke-miterlimit="10"/>
<path d="M32 -19V151" stroke="#4B4B4B" stroke-width="0.5" stroke-miterlimit="10"/>
<path d="M158 151V-19" stroke="#4B4B4B" stroke-width="0.5" stroke-miterlimit="10"/>
<path d="M66 2V130" stroke="#4B4B4B" stroke-width="0.5" stroke-miterlimit="10"/>
<path d="M124 130V2" stroke="#4B4B4B" stroke-width="0.5" stroke-miterlimit="10"/>
<path d="M95 13V119" stroke="#4B4B4B" stroke-width="0.5" stroke-miterlimit="10"/>
<path d="M95 119V13" stroke="#4B4B4B" stroke-width="0.5" stroke-miterlimit="10"/>
<path d="M14 195.121L14 -63.1208C14 -75.2043 7.94483 -85 0.475417 -85H-1.47542C-8.94484 -85 -15 -75.2043 -15 -63.1208L-15 195.121C-15 207.204 -8.94484 217 -1.47542 217H0.475417C7.94483 217 14 207.204 14 195.121Z" stroke="#4B4B4B" stroke-width="0.5" stroke-miterlimit="10"/>
<path d="M176 -63.1208V195.121C176 207.204 182.055 217 189.525 217H191.475C198.945 217 205 207.204 205 195.121V-63.1208C205 -75.2043 198.945 -85 191.475 -85H189.525C182.055 -85 176 -75.2043 176 -63.1208Z" stroke="#4B4B4B" stroke-width="0.5" stroke-miterlimit="10"/>
<path d="M53 166.043L53 -34.0426C53 -43.4079 48.6134 -51 43.2023 -51H41.7977C36.3866 -51 32 -43.4079 32 -34.0426L32 166.043C32 175.408 36.3866 183 41.7977 183H43.2023C48.6134 183 53 175.408 53 166.043Z" stroke="#4B4B4B" stroke-width="0.5" stroke-miterlimit="10"/>
<path d="M137 -34.0426V166.043C137 175.408 141.387 183 146.798 183H148.202C153.613 183 158 175.408 158 166.043V-34.0426C158 -43.4079 153.613 -51 148.202 -51H146.798C141.387 -51 137 -43.4079 137 -34.0426Z" stroke="#4B4B4B" stroke-width="0.5" stroke-miterlimit="10"/>
<path d="M66 2L52 -43" stroke="#4B4B4B" stroke-width="0.5" stroke-miterlimit="10"/>
<path d="M124 2L138 -43" stroke="#4B4B4B" stroke-width="0.5" stroke-miterlimit="10"/>
<path d="M84 145.523V-13.523C84 -20.9662 80.2431 -27 75.6087 -27H74.3913C69.7569 -27 66 -20.9662 66 -13.523V145.523C66 152.966 69.7569 159 74.3913 159H75.6087C80.2431 159 84 152.966 84 145.523Z" stroke="#4B4B4B" stroke-width="0.5" stroke-miterlimit="10"/>
<path d="M106 -13.523V145.523C106 152.966 109.757 159 114.391 159H115.609C120.243 159 124 152.966 124 145.523V-13.523C124 -20.9662 120.243 -27 115.609 -27H114.391C109.757 -27 106 -20.9662 106 -13.523Z" stroke="#4B4B4B" stroke-width="0.5" stroke-miterlimit="10"/>
<path d="M95 13L83 -21" stroke="#4B4B4B" stroke-width="0.5" stroke-miterlimit="10"/>
<path d="M95 13L107 -21" stroke="#4B4B4B" stroke-width="0.5" stroke-miterlimit="10"/>
<path d="M32 -19V151" stroke="#4B4B4B" stroke-width="0.5" stroke-miterlimit="10"/>
<path d="M158 151V-19" stroke="#4B4B4B" stroke-width="0.5" stroke-miterlimit="10"/>
<path d="M66 2V130" stroke="#4B4B4B" stroke-width="0.5" stroke-miterlimit="10"/>
<path d="M124 130V2" stroke="#4B4B4B" stroke-width="0.5" stroke-miterlimit="10"/>
<path d="M95 13V119" stroke="#4B4B4B" stroke-width="0.5" stroke-miterlimit="10"/>
<path d="M95 119V13" stroke="#4B4B4B" stroke-width="0.5" stroke-miterlimit="10"/>
</g>
<rect x="26.5" y="14.5" width="141" height="84" rx="5.5" fill="#353535"/>
<rect x="26.5" y="14.5" width="141" height="84" rx="5.5" stroke="#4B4B4B"/>
<path opacity="0.63" d="M36.896 36V34.782H39.948V29.392V28.02C39.374 28.986 38.268 29.798 37.12 29.966V28.51C38.352 28.202 39.528 27.46 40.2 26.2H41.264V34.782H43.77V36H36.896ZM36.882 51.558C40.27 49.5 42.118 47.932 42.118 46.07C42.118 44.782 41.208 44.18 40.172 44.18C38.884 44.18 38.086 45.104 38.086 46.448L36.812 46.238C36.84 44.418 38.016 43.004 40.172 43.004C42.132 43.004 43.448 44.194 43.448 46.014C43.448 46.854 43.196 47.666 42.636 48.436C41.74 49.654 40.172 50.774 38.338 51.782H40.746H43.574V53H36.882V51.558ZM40.27 70.196C38.1 70.196 36.784 69.02 36.644 67.2L37.96 66.906C38.016 68.194 38.856 69.02 40.27 69.02C41.558 69.02 42.384 68.334 42.384 67.312C42.384 66.304 41.586 65.604 40.298 65.604H39.388V64.442H40.298C41.362 64.442 42.216 63.826 42.216 62.804C42.216 61.796 41.348 61.18 40.27 61.18C39.066 61.18 38.31 61.922 38.198 62.972L36.896 62.734C37.022 61.222 38.24 60.004 40.27 60.004C42.216 60.004 43.49 61.124 43.49 62.678C43.49 63.91 42.664 64.638 41.684 64.974C42.762 65.17 43.7 66.136 43.7 67.438C43.7 68.978 42.482 70.196 40.27 70.196ZM41.124 80.518V78.292L37.764 83.276H39.556H41.124V80.518ZM36.42 84.424V83.22L40.466 77.2H42.412V83.276H43.98V84.424H42.412V87H41.124V84.424H36.42Z" fill="#9B9B9B"/>
<path d="M71.312 36.196C69.254 36.196 67.91 35.146 67.49 33.494L68.75 32.934C69.114 34.334 69.912 34.992 71.312 34.992C72.642 34.992 73.44 34.39 73.44 33.396C73.44 32.486 72.88 32.052 71.704 31.786L70.416 31.492C68.638 31.086 67.924 30.162 67.924 28.79C67.924 27.068 69.212 26.004 71.172 26.004C72.964 26.004 74.21 26.914 74.644 28.3L73.384 28.86C73.062 27.782 72.39 27.194 71.172 27.194C69.968 27.194 69.254 27.768 69.254 28.692C69.254 29.504 69.688 29.924 70.794 30.176L72.068 30.47C73.888 30.89 74.784 31.772 74.784 33.312C74.784 35.09 73.412 36.196 71.312 36.196ZM76.5565 36V26.2H82.9825V27.418H77.8725V30.316H81.5685V31.52H77.8725V34.782H82.9825V36H76.5565ZM85.0631 36V26.2H86.3931V34.782H91.4331V36H85.0631ZM93.3456 36V26.2H99.7716V27.418H94.6616V30.316H98.3576V31.52H94.6616V34.782H99.7716V36H93.3456ZM104.932 36.196C102.608 36.196 101.25 34.334 101.25 31.1C101.25 27.852 102.608 26.004 104.932 26.004C106.71 26.004 107.9 27.11 108.376 29.084L107.102 29.392C106.78 27.95 106.052 27.208 104.932 27.208C103.42 27.208 102.622 28.524 102.622 31.1C102.622 33.676 103.42 34.992 104.932 34.992C106.066 34.992 106.808 34.264 107.13 32.738L108.404 33.06C107.942 35.09 106.71 36.196 104.932 36.196ZM112.459 36V27.418H109.477V26.2H116.869V27.418H113.789V36H112.459ZM68.176 70V60.2H74.798V61.418H69.492V64.61H73.566V65.828H69.492V70H68.176ZM76.3745 70V60.2H80.1125C81.9045 60.2 83.1365 61.236 83.1365 62.888C83.1365 64.162 82.3245 65.142 80.9805 65.436C82.1565 65.59 82.6745 66.318 82.8985 67.494L83.3885 70H82.0025L81.5825 67.62C81.3865 66.5 80.9385 65.982 79.6505 65.982H77.6905V70H76.3745ZM77.6905 64.792H79.9445C81.0365 64.792 81.7785 64.134 81.7785 63.07C81.7785 62.034 81.0365 61.404 79.9445 61.404H77.6905V64.792ZM87.9891 70.196C85.7491 70.196 84.4191 68.376 84.4191 65.1C84.4191 61.824 85.7491 60.004 87.9891 60.004C90.2431 60.004 91.5731 61.824 91.5731 65.1C91.5731 68.376 90.2431 70.196 87.9891 70.196ZM87.9891 68.992C89.4311 68.992 90.2151 67.704 90.2151 65.1C90.2151 62.496 89.4311 61.208 87.9891 61.208C86.5611 61.208 85.7771 62.496 85.7771 65.1C85.7771 67.704 86.5611 68.992 87.9891 68.992ZM92.9816 70V60.2H94.9836L95.8516 63.686L96.4116 66.01C96.5936 65.24 96.7616 64.456 96.9576 63.686L97.8256 60.2H99.7856V70H98.5256V65.198V61.558L96.8736 68.04H95.8936L94.2416 61.558V65.198V70H92.9816Z" fill="#52B2FD"/>
<path d="M102.174 53V46.056H103.49V47.764C103.854 46.77 104.75 45.972 106.402 45.972C107.046 45.972 107.578 46.07 107.928 46.182V47.456C107.466 47.316 106.934 47.232 106.402 47.232C104.428 47.232 103.49 48.156 103.49 50.116V53H102.174ZM112.557 53.182C110.807 53.182 110.079 52.062 110.079 50.522V46.056H111.395V50.214C111.395 51.446 111.997 52.048 112.991 52.048C114.447 52.048 114.853 50.788 114.853 49.43V46.056H116.169V53H114.895V51.796C114.615 52.342 113.915 53.182 112.557 53.182ZM118.543 53V46.056H119.817V47.26C120.097 46.714 120.811 45.874 122.183 45.874C123.947 45.874 124.689 46.994 124.689 48.534V53H123.373V48.842C123.373 47.61 122.757 47.008 121.749 47.008C120.265 47.008 119.859 48.268 119.859 49.626V53H118.543ZM125.762 55.086V53.882H134.162V55.086H125.762ZM134.982 53V51.908H137.796V47.148H135.248V46.056H139.098V51.908H141.786V53H134.982ZM137.754 44.768V43.2H139.154V44.768H137.754ZM146.205 53.196C144.525 53.196 143.181 51.894 143.181 49.528C143.181 47.162 144.525 45.86 146.205 45.86C147.381 45.86 148.207 46.532 148.557 47.134V45.972V43.2H149.873V53H148.585V51.922C148.221 52.538 147.409 53.196 146.205 53.196ZM146.569 52.076C147.717 52.076 148.613 51.264 148.613 49.528C148.613 47.792 147.717 46.98 146.569 46.98C145.491 46.98 144.567 47.708 144.567 49.528C144.567 51.362 145.491 52.076 146.569 52.076ZM104.876 87.196C103.322 87.196 101.95 86.496 101.642 85.194L102.874 84.802C103.126 85.628 103.812 86.118 104.89 86.118C105.856 86.118 106.514 85.768 106.514 85.138C106.514 84.62 106.164 84.284 105.198 84.13L104.134 83.962C102.818 83.752 101.936 83.164 101.936 81.946C101.936 80.672 103.182 79.86 104.708 79.86C106.29 79.86 107.298 80.616 107.648 81.61L106.5 82.072C106.29 81.442 105.716 80.91 104.68 80.91C103.798 80.91 103.21 81.288 103.21 81.82C103.21 82.282 103.49 82.576 104.414 82.716L105.478 82.884C106.668 83.066 107.844 83.668 107.844 85.026C107.844 86.37 106.654 87.196 104.876 87.196ZM113.887 87C112.669 87 112.039 86.398 112.039 85.068V81.148H109.589V80.056H112.039V77.886H113.355V80.056H116.239V81.148H113.355V85.082C113.355 85.628 113.579 85.866 114.153 85.866H116.547V87H113.887ZM121.665 87.196C119.649 87.196 118.305 85.838 118.305 83.514C118.305 81.302 119.691 79.86 121.609 79.86C123.765 79.86 125.039 81.568 124.801 83.864H119.635C119.677 85.46 120.587 86.09 121.679 86.09C122.771 86.09 123.359 85.404 123.639 84.76L124.829 85.208C124.339 86.398 123.261 87.196 121.665 87.196ZM123.485 82.814C123.457 81.596 122.659 80.91 121.609 80.91C120.587 80.91 119.789 81.61 119.663 82.814H123.485ZM126.84 89.73V80.056H128.128V81.134C128.492 80.518 129.304 79.86 130.508 79.86C132.188 79.86 133.532 81.162 133.532 83.528C133.532 85.894 132.188 87.196 130.508 87.196C129.332 87.196 128.506 86.524 128.156 85.922V87.084V89.73H126.84ZM130.144 86.076C131.222 86.076 132.146 85.348 132.146 83.528C132.146 81.694 131.222 80.98 130.144 80.98C128.996 80.98 128.1 81.792 128.1 83.528C128.1 85.264 128.996 86.076 130.144 86.076ZM138.454 87.196C136.9 87.196 135.528 86.496 135.22 85.194L136.452 84.802C136.704 85.628 137.39 86.118 138.468 86.118C139.434 86.118 140.092 85.768 140.092 85.138C140.092 84.62 139.742 84.284 138.776 84.13L137.712 83.962C136.396 83.752 135.514 83.164 135.514 81.946C135.514 80.672 136.76 79.86 138.286 79.86C139.868 79.86 140.876 80.616 141.226 81.61L140.078 82.072C139.868 81.442 139.294 80.91 138.258 80.91C137.376 80.91 136.788 81.288 136.788 81.82C136.788 82.282 137.068 82.576 137.992 82.716L139.056 82.884C140.246 83.066 141.422 83.668 141.422 85.026C141.422 86.37 140.232 87.196 138.454 87.196Z" fill="#F6F6F6"/>
</g>
<defs>
<clipPath id="clip0_10073_19365">
<rect width="198" height="110" fill="white"/>
</clipPath>
</defs>
</svg>
