<svg width="128" height="128" viewBox="0 0 128 128" fill="none" xmlns="http://www.w3.org/2000/svg">
<rect width="128" height="128" rx="8" fill="#303030"/>
<path fill-rule="evenodd" clip-rule="evenodd" d="M64 29C44.11 29 28 45.0587 28 64.8853C28 80.7645 38.305 94.1767 52.615 98.9314C54.415 99.2454 55.09 98.1689 55.09 97.2269C55.09 96.3746 55.045 93.5487 55.045 90.5433C46 92.203 43.66 88.3453 42.94 86.3267C42.535 85.295 40.78 82.1102 39.25 81.2579C37.99 80.5851 36.19 78.9254 39.205 78.8805C42.04 78.8357 44.065 81.4822 44.74 82.5588C47.98 87.9864 53.155 86.4613 55.225 85.5193C55.54 83.1868 56.485 81.6168 57.52 80.7197C49.51 79.8225 41.14 76.7274 41.14 63.0013C41.14 59.0988 42.535 55.8691 44.83 53.3571C44.47 52.46 43.21 48.7818 45.19 43.8475C45.19 43.8475 48.205 42.9055 55.09 47.5258C57.97 46.7184 61.03 46.3146 64.09 46.3146C67.15 46.3146 70.21 46.7184 73.09 47.5258C79.975 42.8607 82.99 43.8475 82.99 43.8475C84.97 48.7818 83.71 52.46 83.35 53.3571C85.645 55.8691 87.04 59.0539 87.04 63.0013C87.04 76.7723 78.625 79.8225 70.615 80.7197C71.92 81.8411 73.045 83.9942 73.045 87.3584C73.045 92.1581 73 96.0158 73 97.2269C73 98.1689 73.675 99.2903 75.475 98.9314C82.6217 96.5265 88.8318 91.9481 93.2313 85.8406C97.6308 79.7331 99.9981 72.4042 100 64.8853C100 45.0587 83.89 29 64 29Z" fill="white"/>
</svg>
