<svg width="128" height="128" viewBox="0 0 128 128" fill="none" xmlns="http://www.w3.org/2000/svg">
<rect width="128" height="128" rx="8" fill="#FFE01B"/>
<path fill-rule="evenodd" clip-rule="evenodd" d="M80.142 62.0969C80.6379 62.038 81.1126 62.035 81.5496 62.0969C81.8024 61.5173 81.8454 60.5188 81.6183 59.4312C81.2809 57.8146 80.8235 56.8365 79.8786 56.989C78.9337 57.1414 78.899 58.3127 79.2371 59.9286C79.4273 60.838 79.7654 61.6154 80.142 62.0969Z" fill="black"/>
<path fill-rule="evenodd" clip-rule="evenodd" d="M72.0323 63.3762C72.7078 63.6728 73.1236 63.8698 73.2859 63.6977C73.3908 63.5905 73.3591 63.386 73.1976 63.1226C72.864 62.5784 72.178 62.026 71.4497 61.7158C69.9614 61.075 68.1855 61.2879 66.8157 62.272C66.3636 62.6033 65.9349 63.0622 65.9961 63.3407C66.0157 63.4305 66.0836 63.4984 66.2421 63.5211C66.6149 63.5633 67.9176 62.9052 69.4187 62.8132C70.4776 62.7483 71.3553 63.0796 72.0315 63.3762" fill="black"/>
<path fill-rule="evenodd" clip-rule="evenodd" d="M70.6733 64.152C69.7926 64.2908 69.3073 64.5814 68.9956 64.8508C68.7299 65.0833 68.5654 65.3407 68.5669 65.521C68.5677 65.6071 68.6046 65.6569 68.6341 65.6818C68.6741 65.7173 68.7216 65.7369 68.779 65.7369C68.9775 65.7369 69.4235 65.558 69.4235 65.558C70.6484 65.1195 71.4567 65.1731 72.2575 65.2637C72.6997 65.3135 72.9096 65.3407 73.0062 65.189C73.0348 65.1452 73.0696 65.0508 72.9813 64.9075C72.7752 64.5731 71.8862 64.0078 70.6741 64.152" fill="black"/>
<path fill-rule="evenodd" clip-rule="evenodd" d="M77.4037 66.9996C78.0015 67.2931 78.6596 67.1777 78.8739 66.7422C79.0883 66.3067 78.7773 65.715 78.1796 65.4214C77.5818 65.1279 76.9237 65.2433 76.7094 65.6788C76.495 66.115 76.806 66.706 77.4037 66.9996Z" fill="black"/>
<path fill-rule="evenodd" clip-rule="evenodd" d="M81.2461 63.6417C80.7608 63.6334 80.3578 64.1662 80.3464 64.8326C80.3351 65.4991 80.72 66.0447 81.2053 66.053C81.6906 66.0613 82.0936 65.5285 82.1049 64.8621C82.1162 64.1964 81.7313 63.65 81.2461 63.6417Z" fill="black"/>
<path fill-rule="evenodd" clip-rule="evenodd" d="M48.6325 75.6485C48.5118 75.4968 48.3133 75.5428 48.1208 75.5881C47.9865 75.6198 47.8348 75.6545 47.668 75.6523C47.311 75.6455 47.0084 75.493 46.8386 75.2319C46.6174 74.8922 46.6303 74.3858 46.874 73.8062L46.988 73.5466C47.3774 72.6726 48.0288 71.2107 47.2974 69.8175C46.7465 68.7685 45.8484 68.1156 44.7684 67.9783C43.7314 67.847 42.6642 68.2311 41.9835 68.9821C40.9095 70.167 40.7412 71.7798 40.9488 72.3496C41.025 72.5579 41.1442 72.616 41.2303 72.6281C41.4129 72.6522 41.6831 72.5194 41.8522 72.0643L41.9005 71.9164C41.9759 71.6756 42.1163 71.2273 42.3465 70.8681C42.6242 70.4349 43.0559 70.1368 43.5631 70.0273C44.0793 69.9164 44.6076 70.0153 45.0499 70.3051C45.8024 70.7972 46.0922 71.7194 45.7707 72.5987C45.6046 73.0538 45.3344 73.9239 45.394 74.6387C45.5148 76.0855 46.4046 76.6666 47.2039 76.7285C47.9812 76.7579 48.5246 76.3209 48.662 76.0024C48.7427 75.8138 48.6748 75.699 48.6303 75.65" fill="black"/>
<path fill-rule="evenodd" clip-rule="evenodd" d="M56.0226 49.075C58.5585 46.1452 61.6792 43.598 64.4755 42.1678C64.5721 42.118 64.6747 42.2229 64.6226 42.318C64.4007 42.7203 63.9728 43.5814 63.8377 44.2342C63.8166 44.3361 63.9275 44.4123 64.0136 44.3542C65.7532 43.1686 68.7789 41.8976 71.4332 41.7346C71.5472 41.7278 71.6022 41.8735 71.5117 41.9437C71.1079 42.2531 70.6664 42.6818 70.3441 43.115C70.289 43.1889 70.3411 43.2946 70.4332 43.2954C72.2966 43.3089 74.9238 43.961 76.6362 44.9218C76.7517 44.9867 76.6694 45.2108 76.5396 45.1814C73.9487 44.5874 69.7079 44.1369 65.3019 45.2116C61.369 46.1708 58.3668 47.6523 56.1773 49.2448C56.0664 49.3255 55.9336 49.1791 56.0234 49.0757L56.0226 49.075ZM68.6506 77.4614L68.6513 77.4629L68.6528 77.4659L68.6506 77.4614ZM79.1064 78.6954C79.1819 78.6637 79.2332 78.5784 79.2249 78.4931C79.2143 78.3882 79.1207 78.312 79.0158 78.3225C79.0158 78.3225 73.6053 79.1233 68.4936 77.2523C69.0505 75.4425 70.5305 76.0961 72.7683 76.2765C76.8015 76.5173 80.4166 75.9278 83.0883 75.161C85.403 74.4969 88.4438 73.1867 90.8053 71.3225C91.6015 73.072 91.883 74.998 91.883 74.998C91.883 74.998 92.4996 74.8878 93.0151 75.2048C93.5019 75.5044 93.8589 76.1271 93.6151 77.7376C93.1185 80.7459 91.84 83.1882 89.6906 85.435C88.3819 86.8433 86.794 88.0674 84.9766 88.958C84.0113 89.4652 82.9841 89.9037 81.8981 90.2576C73.7955 92.9044 65.5011 89.995 62.8279 83.7474C62.6143 83.278 62.4339 82.7859 62.2921 82.272C61.1532 78.155 62.12 73.2154 65.1434 70.1059V70.1044C65.3298 69.9067 65.52 69.6735 65.52 69.3799C65.52 69.1346 65.3638 68.8757 65.2287 68.6916C64.1706 67.1572 60.5064 64.5429 61.2422 59.4833C61.7706 55.8486 64.9494 53.2886 67.9132 53.4403L68.6641 53.4833C69.9487 53.5595 71.0687 53.724 72.126 53.7686C73.8958 53.8455 75.4868 53.5882 77.3721 52.0176C78.0075 51.4878 78.5177 51.0282 79.3804 50.8825C79.4709 50.8667 79.6966 50.7859 80.1472 50.8071C80.6075 50.832 81.0453 50.958 81.4385 51.2199C82.9494 52.2252 83.1638 54.6606 83.2423 56.4418C83.2868 57.4584 83.4098 59.9187 83.4521 60.6252C83.5479 62.2403 83.9728 62.4674 84.8317 62.7505C85.3147 62.9097 85.763 63.0282 86.4241 63.2139C88.4241 63.7754 89.6098 64.3452 90.3577 65.0772C90.8038 65.5346 91.0113 66.0206 91.0755 66.484C91.3109 68.2048 89.7396 70.3301 85.5789 72.2614C81.0309 74.3723 75.5132 74.9067 71.7011 74.4818L70.3653 74.3308C67.3162 73.9203 65.5766 77.8606 67.4068 80.561C68.5864 82.3014 71.7992 83.4335 75.0136 83.4342C82.3834 83.435 88.0483 80.2878 90.1555 77.5701L90.3238 77.3301C90.4279 77.1739 90.3419 77.0878 90.2128 77.1761C88.4913 78.3542 80.8445 83.0312 72.6649 81.6237C72.6649 81.6237 71.6709 81.4599 70.7638 81.1074C70.043 80.8267 68.5336 80.1323 68.3502 78.5844C74.9509 80.6259 79.1072 78.6961 79.1072 78.6961L79.1064 78.6954ZM42.8505 63.0086C40.5547 63.4546 38.5313 64.7557 37.2943 66.5535C36.5547 65.9369 35.1773 64.7429 34.9336 64.2772C32.9585 60.5263 37.089 53.2342 39.9751 49.1157C47.1071 38.9384 58.277 31.235 63.4475 32.6327C64.2883 32.8704 67.0724 36.0984 67.0724 36.0984C67.0724 36.0984 61.9034 38.9663 57.1102 42.964C50.6513 47.9369 45.7728 55.1648 42.8498 63.0086H42.8505ZM46.7079 80.2199C46.3607 80.2795 46.006 80.3029 45.6483 80.2939C42.1939 80.201 38.4634 77.0916 38.0928 73.404C37.683 69.3278 39.766 66.1912 43.4536 65.4471C43.8943 65.358 44.4271 65.3067 45.0015 65.3369C47.0679 65.4501 50.1124 67.0365 50.8075 71.5376C51.4234 75.524 50.4453 79.5822 46.7079 80.2191V80.2199ZM93.4973 73.0018C93.4679 72.8969 93.2747 72.1927 93.0098 71.3437C92.7449 70.4939 92.4709 69.8969 92.4709 69.8969C93.5336 68.3067 93.5525 66.884 93.4106 66.0788C93.2596 65.0803 92.8438 64.2297 92.006 63.3497C91.1683 62.4704 89.4543 61.5693 87.046 60.8931L85.7826 60.5421C85.7766 60.4901 85.7162 57.5633 85.6619 56.3067C85.6219 55.398 85.5441 53.9799 85.1041 52.5837C84.5796 50.6931 83.6664 49.0387 82.526 47.9806C85.6732 44.7187 87.6377 41.1248 87.6324 38.0425C87.6234 32.1142 80.3426 30.3203 71.3698 34.0357L69.4687 34.8425C69.4604 34.8342 66.0317 31.4704 65.9804 31.4252C55.7502 22.5021 23.7652 58.0546 33.9909 66.6893L36.2256 68.5829C35.646 70.0848 35.4181 71.8055 35.6045 73.6554C35.843 76.032 37.0687 78.3097 39.0558 80.0697C40.9419 81.7407 43.4219 82.7988 45.8279 82.7965C49.8075 91.9671 58.9004 97.5927 69.5615 97.9097C80.9977 98.2493 90.5977 92.8833 94.6204 83.244C94.8838 82.5678 96 79.5195 96 76.8282C96 74.124 94.4709 73.0033 93.4973 73.0033" fill="black"/>
</svg>
