<svg width="128" height="128" viewBox="0 0 128 128" fill="none" xmlns="http://www.w3.org/2000/svg">
<rect width="128" height="128" rx="8" fill="#4636F5"/>
<path fill-rule="evenodd" clip-rule="evenodd" d="M103.92 66.0323H93.1189C93.3735 68.6046 95.263 69.4309 97.407 69.4309C99.6047 69.4309 101.374 68.9378 102.834 68.1648V72.5897C100.981 73.6504 98.8596 74.1593 96.7236 74.0557C91.3501 74.0557 87.5712 70.7237 87.5712 64.0864C87.5712 58.502 90.7739 54.0638 96.0134 54.0638C101.266 54.0638 104 58.4354 104 64.0598C104 64.5929 103.946 65.7391 103.92 66.0323ZM95.9866 58.542C94.6064 58.542 93.0787 59.5149 93.0787 61.9806H98.7739C98.7739 59.5149 97.34 58.542 95.9866 58.542ZM78.8744 74.0557C76.9447 74.0557 75.7655 73.2561 74.9883 72.6696L74.9615 78.8405L69.4405 80V54.4237H74.4791L74.5863 55.7831C75.7549 54.6806 77.3038 54.0653 78.9146 54.0638C82.8007 54.0638 86.4456 57.5291 86.4456 63.9265C86.4456 70.897 82.8275 74.0557 78.8744 74.0557ZM77.6013 58.9285C76.3283 58.9285 75.5377 59.3817 74.9615 60.0081L74.9883 68.1648C75.5243 68.7512 76.3015 69.2044 77.6013 69.2044C79.6382 69.2044 81.005 67.0052 81.005 64.0464C81.005 61.1809 79.6114 58.9285 77.6013 58.9285ZM61.8425 54.4237H67.3769V73.6692H61.8425V54.4237ZM61.8425 48.1595L67.3769 47V51.4782L61.8425 52.651V48.1729V48.1595ZM56.0536 60.6212V73.6692H50.5327V54.4237H55.4908L55.6516 56.0497C56.9916 53.6906 59.7655 54.1704 60.5025 54.4237V59.475C59.8057 59.2484 57.4338 58.9019 56.0536 60.6212ZM44.5963 66.912C44.5963 70.1506 48.0804 69.151 48.7772 68.8578V73.336C48.0402 73.7359 46.7136 74.0557 44.9045 74.0557C44.1505 74.0776 43.4 73.9467 42.6985 73.671C41.997 73.3952 41.3592 72.9804 40.8239 72.4518C40.2887 71.9232 39.8671 71.2918 39.585 70.5961C39.3028 69.9003 39.1659 69.1547 39.1826 68.4047L39.196 50.8518L44.5829 49.7056V54.4237H48.7906V59.1284H44.5963V66.9253V66.912ZM38.0168 67.8449C38.0168 71.8033 34.9213 74.0557 30.3384 74.0557C28.2818 74.0542 26.2476 73.6323 24.3618 72.8162V67.5784C26.2111 68.5779 28.5159 69.3243 30.3384 69.3243C31.5712 69.3243 32.3886 69.0044 32.3886 67.9915C32.3886 65.3526 24 66.3389 24 60.2613C24 56.3829 27.0553 54.0638 31.531 54.0638C33.3534 54.0638 35.1759 54.3304 37.0117 55.0634V60.2347C35.3152 59.3466 33.4343 58.8629 31.5176 58.8219C30.3652 58.8219 29.5879 59.1551 29.5879 60.0214C29.5879 62.4871 38.0168 61.3142 38.0168 67.8582V67.8449Z" fill="white"/>
</svg>
