<svg width="128" height="128" viewBox="0 0 128 128" fill="none" xmlns="http://www.w3.org/2000/svg">
<rect width="128" height="128" rx="8" fill="#F22F46"/>
<path d="M64.0001 32C81.7067 32 96 46.2933 96 64C96 81.7066 81.7067 96 64.0001 96C46.2933 96 32 81.7066 32 64C32 46.2933 46.2933 32 64.0001 32ZM64.0001 40.5333C50.9867 40.5333 40.5333 50.9867 40.5333 64C40.5333 77.0134 50.9867 87.4666 64.0001 87.4666C77.0134 87.4666 87.4666 77.0134 87.4666 64C87.4666 50.9867 77.0134 40.5333 64.0001 40.5333ZM56.1066 65.28C59.7334 65.28 62.72 68.2666 62.72 71.8934C62.72 75.52 59.7334 78.5066 56.1066 78.5066C52.4799 78.5066 49.4933 75.52 49.4933 71.8934C49.4933 68.2666 52.4799 65.28 56.1066 65.28ZM71.8934 65.28C75.5201 65.28 78.5066 68.2666 78.5066 71.8934C78.5066 75.52 75.5201 78.5066 71.8934 78.5066C68.2666 78.5066 65.28 75.52 65.28 71.8934C65.28 68.2666 68.2666 65.28 71.8934 65.28ZM71.8934 49.4933C75.5201 49.4933 78.5066 52.48 78.5066 56.1066C78.5066 59.7334 75.5201 62.72 71.8934 62.72C68.2666 62.72 65.28 59.7334 65.28 56.1066C65.28 52.48 68.2666 49.4933 71.8934 49.4933ZM56.1066 49.4933C59.7334 49.4933 62.72 52.48 62.72 56.1066C62.72 59.7334 59.7334 62.72 56.1066 62.72C52.4799 62.72 49.4933 59.7334 49.4933 56.1066C49.4933 52.48 52.4799 49.4933 56.1066 49.4933Z" fill="white"/>
</svg>
