<svg width="105" height="33" viewBox="0 0 105 33" fill="none" xmlns="http://www.w3.org/2000/svg">
<path d="M12.7529 8.18729V14.977C12.7535 15.2833 12.8446 15.5825 13.0149 15.837L20.3244 25.2704C20.4892 25.5181 20.7129 25.7208 20.9756 25.8604C21.2382 26 21.5315 26.072 21.8289 26.07H28.1263C28.2896 26.0702 28.4513 26.0382 28.6022 25.9758C28.7531 25.9134 28.8902 25.8219 29.0057 25.7065C29.1212 25.5912 29.2129 25.4541 29.2754 25.3033C29.3379 25.1525 29.3701 24.9908 29.3701 24.8275V18.1648C29.3708 17.7718 29.2543 17.3875 29.0355 17.061L21.7141 7.60484C21.5766 7.39704 21.3897 7.22661 21.1702 7.10883C20.9506 6.99104 20.7053 6.92959 20.4561 6.92999H14.0079C13.8425 6.92844 13.6785 6.95992 13.5254 7.0226C13.3724 7.08528 13.2334 7.17789 13.1166 7.29499C12.9998 7.4121 12.9075 7.55134 12.8453 7.70457C12.783 7.85779 12.7519 8.0219 12.7539 8.18729H12.7529Z" fill="white"/>
<path d="M11.6954 17.067H4.56741C4.44432 17.0668 4.3224 17.091 4.20864 17.138C4.09487 17.185 3.9915 17.254 3.90442 17.341C3.81735 17.428 3.74828 17.5314 3.70117 17.6451C3.65407 17.7588 3.62984 17.8807 3.62988 18.0038V25.1318C3.62967 25.2549 3.65371 25.3768 3.70064 25.4906C3.74756 25.6044 3.81646 25.7078 3.90337 25.7949C3.99029 25.882 4.09353 25.9512 4.20719 25.9984C4.32084 26.0456 4.44269 26.0699 4.56576 26.07H11.6954C11.9438 26.07 12.182 25.9713 12.3576 25.7957C12.5333 25.6201 12.632 25.3819 12.632 25.1335V18.0055C12.6322 17.8823 12.6081 17.7604 12.5611 17.6465C12.5142 17.5327 12.4452 17.4292 12.3583 17.3421C12.2713 17.2549 12.168 17.1857 12.0542 17.1385C11.9405 17.0913 11.8186 17.067 11.6954 17.067Z" fill="white"/>
<path d="M49.864 16.556C49.9 15.956 50.05 15.458 50.314 15.062C50.578 14.666 50.914 14.348 51.322 14.108C51.73 13.868 52.186 13.7 52.69 13.604C53.206 13.496 53.722 13.442 54.238 13.442C54.706 13.442 55.18 13.478 55.66 13.55C56.14 13.61 56.578 13.736 56.974 13.928C57.37 14.12 57.694 14.39 57.946 14.738C58.198 15.074 58.324 15.524 58.324 16.088V20.93C58.324 21.35 58.348 21.752 58.396 22.136C58.444 22.52 58.528 22.808 58.648 23H56.056C56.008 22.856 55.966 22.712 55.93 22.568C55.906 22.412 55.888 22.256 55.876 22.1C55.468 22.52 54.988 22.814 54.436 22.982C53.884 23.15 53.32 23.234 52.744 23.234C52.3 23.234 51.886 23.18 51.502 23.072C51.118 22.964 50.782 22.796 50.494 22.568C50.206 22.34 49.978 22.052 49.81 21.704C49.654 21.356 49.576 20.942 49.576 20.462C49.576 19.934 49.666 19.502 49.846 19.166C50.038 18.818 50.278 18.542 50.566 18.338C50.866 18.134 51.202 17.984 51.574 17.888C51.958 17.78 52.342 17.696 52.726 17.636C53.11 17.576 53.488 17.528 53.86 17.492C54.232 17.456 54.562 17.402 54.85 17.33C55.138 17.258 55.366 17.156 55.534 17.024C55.702 16.88 55.78 16.676 55.768 16.412C55.768 16.136 55.72 15.92 55.624 15.764C55.54 15.596 55.42 15.47 55.264 15.386C55.12 15.29 54.946 15.23 54.742 15.206C54.55 15.17 54.34 15.152 54.112 15.152C53.608 15.152 53.212 15.26 52.924 15.476C52.636 15.692 52.468 16.052 52.42 16.556H49.864ZM55.768 18.446C55.66 18.542 55.522 18.62 55.354 18.68C55.198 18.728 55.024 18.77 54.832 18.806C54.652 18.842 54.46 18.872 54.256 18.896C54.052 18.92 53.848 18.95 53.644 18.986C53.452 19.022 53.26 19.07 53.068 19.13C52.888 19.19 52.726 19.274 52.582 19.382C52.45 19.478 52.342 19.604 52.258 19.76C52.174 19.916 52.132 20.114 52.132 20.354C52.132 20.582 52.174 20.774 52.258 20.93C52.342 21.086 52.456 21.212 52.6 21.308C52.744 21.392 52.912 21.452 53.104 21.488C53.296 21.524 53.494 21.542 53.698 21.542C54.202 21.542 54.592 21.458 54.868 21.29C55.144 21.122 55.348 20.924 55.48 20.696C55.612 20.456 55.69 20.216 55.714 19.976C55.75 19.736 55.768 19.544 55.768 19.4V18.446ZM62.5759 18.356C62.5759 18.728 62.6119 19.094 62.6839 19.454C62.7559 19.802 62.8759 20.12 63.0439 20.408C63.2239 20.684 63.4579 20.906 63.7459 21.074C64.0339 21.242 64.3939 21.326 64.8259 21.326C65.2579 21.326 65.6179 21.242 65.9059 21.074C66.2059 20.906 66.4399 20.684 66.6079 20.408C66.7879 20.12 66.9139 19.802 66.9859 19.454C67.0579 19.094 67.0939 18.728 67.0939 18.356C67.0939 17.984 67.0579 17.618 66.9859 17.258C66.9139 16.898 66.7879 16.58 66.6079 16.304C66.4399 16.028 66.2059 15.806 65.9059 15.638C65.6179 15.458 65.2579 15.368 64.8259 15.368C64.3939 15.368 64.0339 15.458 63.7459 15.638C63.4579 15.806 63.2239 16.028 63.0439 16.304C62.8759 16.58 62.7559 16.898 62.6839 17.258C62.6119 17.618 62.5759 17.984 62.5759 18.356ZM60.0199 18.356C60.0199 17.612 60.1339 16.94 60.3619 16.34C60.5899 15.728 60.9139 15.212 61.3339 14.792C61.7539 14.36 62.2579 14.03 62.8459 13.802C63.4339 13.562 64.0939 13.442 64.8259 13.442C65.5579 13.442 66.2179 13.562 66.8059 13.802C67.4059 14.03 67.9159 14.36 68.3359 14.792C68.7559 15.212 69.0799 15.728 69.3079 16.34C69.5359 16.94 69.6499 17.612 69.6499 18.356C69.6499 19.1 69.5359 19.772 69.3079 20.372C69.0799 20.972 68.7559 21.488 68.3359 21.92C67.9159 22.34 67.4059 22.664 66.8059 22.892C66.2179 23.12 65.5579 23.234 64.8259 23.234C64.0939 23.234 63.4339 23.12 62.8459 22.892C62.2579 22.664 61.7539 22.34 61.3339 21.92C60.9139 21.488 60.5899 20.972 60.3619 20.372C60.1339 19.772 60.0199 19.1 60.0199 18.356ZM71.3838 13.694H73.7958V14.954H73.8318C74.1678 14.474 74.5698 14.102 75.0378 13.838C75.5178 13.574 76.0638 13.442 76.6758 13.442C77.2638 13.442 77.7978 13.556 78.2778 13.784C78.7698 14.012 79.1418 14.414 79.3938 14.99C79.6698 14.582 80.0418 14.222 80.5098 13.91C80.9898 13.598 81.5538 13.442 82.2018 13.442C82.6938 13.442 83.1498 13.502 83.5698 13.622C83.9898 13.742 84.3498 13.934 84.6498 14.198C84.9498 14.462 85.1838 14.81 85.3518 15.242C85.5198 15.662 85.6038 16.172 85.6038 16.772V23H83.0478V17.726C83.0478 17.414 83.0358 17.12 83.0118 16.844C82.9878 16.568 82.9218 16.328 82.8138 16.124C82.7058 15.92 82.5438 15.758 82.3278 15.638C82.1238 15.518 81.8418 15.458 81.4818 15.458C81.1218 15.458 80.8278 15.53 80.5998 15.674C80.3838 15.806 80.2098 15.986 80.0778 16.214C79.9578 16.43 79.8738 16.682 79.8258 16.97C79.7898 17.246 79.7718 17.528 79.7718 17.816V23H77.2158V17.78C77.2158 17.504 77.2098 17.234 77.1978 16.97C77.1858 16.694 77.1318 16.442 77.0358 16.214C76.9518 15.986 76.8018 15.806 76.5858 15.674C76.3818 15.53 76.0758 15.458 75.6678 15.458C75.5478 15.458 75.3858 15.488 75.1818 15.548C74.9898 15.596 74.7978 15.698 74.6058 15.854C74.4258 15.998 74.2698 16.214 74.1378 16.502C74.0058 16.778 73.9398 17.144 73.9398 17.6V23H71.3838V13.694ZM87.6243 13.694H90.0543V14.99H90.1083C90.4323 14.45 90.8523 14.06 91.3683 13.82C91.8843 13.568 92.4123 13.442 92.9523 13.442C93.6363 13.442 94.1943 13.538 94.6263 13.73C95.0703 13.91 95.4183 14.168 95.6703 14.504C95.9223 14.828 96.0963 15.23 96.1923 15.71C96.3003 16.178 96.3543 16.7 96.3543 17.276V23H93.7983V17.744C93.7983 16.976 93.6783 16.406 93.4383 16.034C93.1983 15.65 92.7723 15.458 92.1603 15.458C91.4643 15.458 90.9603 15.668 90.6483 16.088C90.3363 16.496 90.1803 17.174 90.1803 18.122V23H87.6243V13.694ZM100.922 12.254H98.3663V10.148H100.922V12.254ZM98.3663 13.694H100.922V23H98.3663V13.694Z" fill="white"/>
</svg>
