<svg xmlns="http://www.w3.org/2000/svg" viewBox="0 0 99 15" class="h-5">
  <path fill="white"
    d="M6.26 14H1.72V1.02h4.27c.79 0 1.51.07 2.16.22 1.36.29 2.45 1 3.28 2.12a6.53 6.53 0 0 1 1.24 4.01c0 1.97-.59 3.56-1.78 4.79A6.18 6.18 0 0 1 6.26 14zM6.11 3.97H5.03v7.07h1.22c.92 0 1.67-.33 2.25-.99.58-.66.86-1.52.86-2.57 0-1.01-.31-1.84-.94-2.5A3.02 3.02 0 0 0 6.1 3.97zM21.56 14h-7.78V1.02h7.63v2.61h-4.32v2.34h3.74v2.59h-3.74v2.83h4.46zm11.5-.88 1.42-2.48c.43.43.88.65 1.33.65.53 0 .88-.22 1.06-.65.06-.14.1-.34.13-.59.02-.25.04-.59.04-1.03l.01-1.73 3.2-3.14.1 5.32v.23l-.02.74c-.01.24-.04.45-.07.63a3.4 3.4 0 0 1-1.17 2.34c-.68.58-1.56.86-2.63.86-.6 0-1.17-.09-1.71-.27a6.7 6.7 0 0 1-1.69-.88zm8.42-5.6c0-1.94.63-3.56 1.89-4.84A6.45 6.45 0 0 1 48.16.75c1.91 0 3.49.64 4.75 1.93a6.63 6.63 0 0 1 1.89 4.84c0 1.94-.63 3.56-1.89 4.84a6.4 6.4 0 0 1-4.75 1.93 6.47 6.47 0 0 1-6.68-6.77zm6.68-3.56c-.94 0-1.72.34-2.36 1.03a3.56 3.56 0 0 0-.95 2.54c0 1 .32 1.84.95 2.54.64.7 1.42 1.04 2.36 1.04.91 0 1.69-.35 2.32-1.04.64-.7.95-1.54.95-2.54 0-.98-.32-1.82-.95-2.52a3.02 3.02 0 0 0-2.32-1.04zM61.17 14h-5.24V1.02h4.55c.67 0 1.24.03 1.69.09.83.12 1.48.47 1.96 1.04.49.56.74 1.28.74 2.14 0 1.3-.58 2.2-1.75 2.7.84.14 1.49.5 1.96 1.06s.7 1.28.7 2.16a3.58 3.58 0 0 1-1.51 3.03c-.73.5-1.77.76-3.11.76zM60.15 3.63h-.9v2.38h.97c.47 0 .83-.11 1.1-.32.26-.22.4-.51.4-.88s-.14-.66-.41-.86c-.28-.2-.66-.31-1.15-.31zm.3 4.93h-1.21v2.83h1.24c1.3 0 1.94-.47 1.94-1.4 0-.34-.11-.63-.34-.88-.22-.25-.5-.41-.86-.47a3.1 3.1 0 0 0-.77-.07zm5.64 3.78 1.17-2.61c1.07 1.24 2.15 1.85 3.26 1.85.48 0 .88-.13 1.19-.38.32-.26.49-.59.49-.99a.95.95 0 0 0-.43-.79c-.24-.14-.79-.37-1.66-.67-.62-.2-1.09-.38-1.4-.52-.3-.14-.59-.33-.86-.56a3.4 3.4 0 0 1-1.22-2.7c0-1.22.45-2.23 1.35-3.02A5 5 0 0 1 71.4.76c.77 0 1.46.11 2.07.34.61.23 1.21.59 1.8 1.1l-1.31 2.39c-.9-.79-1.73-1.19-2.5-1.19-.4 0-.73.11-.99.32a.98.98 0 0 0-.38.79c0 .31.12.57.36.77.12.11.27.2.45.29l1.13.38a8.3 8.3 0 0 1 2.27 1.08c.8.67 1.21 1.6 1.21 2.77 0 1.32-.45 2.39-1.35 3.22a4.97 4.97 0 0 1-3.51 1.24 6 6 0 0 1-4.54-1.94zM27.03 14h-3.31V1.02h3.31L27 10l8.83-8.98 4.14.01z"></path>
  <path fill="white"
    d="M76.29 12.58a1.78 1.78 0 0 1 3.04-1.28c.35.35.52.77.52 1.28 0 .5-.17.93-.52 1.28s-.77.52-1.26.52-.91-.17-1.26-.52a1.73 1.73 0 0 1-.52-1.28zm10.79-6.43v-1.1h3.22V14h-3.22v-1.13c-.49.94-1.33 1.4-2.52 1.4a3.51 3.51 0 0 1-2.81-1.31 5.28 5.28 0 0 1-1.08-3.44c0-1.34.37-2.46 1.12-3.35a3.53 3.53 0 0 1 2.81-1.35c.92 0 1.65.28 2.18.85.1.12.2.28.31.49zm-1.59 1.32c-.52 0-.94.19-1.26.58-.32.38-.49.88-.49 1.49 0 .64.16 1.15.49 1.53.32.38.75.58 1.28.58s.95-.19 1.28-.58c.32-.38.49-.89.49-1.53a2.2 2.2 0 0 0-.5-1.49 1.64 1.64 0 0 0-1.28-.58zm6.68.19h-1.31V5.05h1.31v-2.2h3.2v2.2h2.07v2.61h-2.07v2.65c0 .36.02.63.05.81.04.18.16.34.36.49.2.14.47.22.79.22.22 0 .47-.04.76-.13l.4 2.09a6.34 6.34 0 0 1-2.34.47 3.37 3.37 0 0 1-2.47-.92c-.29-.29-.49-.6-.59-.94a4.82 4.82 0 0 1-.16-1.42z"></path>
</svg>