<svg width="102" height="25" viewBox="0 0 102 25" fill="none" xmlns="http://www.w3.org/2000/svg">
    <path fill-rule="evenodd" clip-rule="evenodd"
        d="M7.40663 22.8752C5.59275 24.5197 3.77469 25.2335 2.34579 24.6416C-0.307904 23.5424 -0.72647 18.3098 1.17364 12.4237C-0.726439 6.53756 -0.307863 1.30501 2.34582 0.205823C3.77471 -0.386042 5.59276 0.327716 7.40663 1.97218C9.22049 0.327715 11.0385 -0.386043 12.4674 0.205822C15.1211 1.30501 15.5397 6.53756 13.6396 12.4237C15.5397 18.3098 15.1212 23.5424 12.4675 24.6416C11.0386 25.2335 9.2205 24.5197 7.40663 22.8752ZM7.40663 20.1706C8.7308 18.6038 10.0368 16.4702 11.0823 13.9462C11.2944 13.4341 11.4876 12.9258 11.6622 12.4237C11.4876 11.9216 11.2944 11.4133 11.0823 10.9012C10.0368 8.37723 8.73081 6.24362 7.40663 4.67686C6.08244 6.24362 4.77643 8.37723 3.73096 10.9012C3.51885 11.4133 3.32568 11.9216 3.15107 12.4237C3.32569 12.9258 3.51886 13.4341 3.73099 13.9462C4.77645 16.4702 6.08245 18.6038 7.40663 20.1706ZM6.10051 21.5283C5.36948 22.1835 4.7112 22.5956 4.17049 22.8053C3.57916 23.0346 3.24389 22.9841 3.06332 22.9093C2.88276 22.8346 2.60999 22.6332 2.35402 22.0529C2.09276 21.4605 1.90621 20.5863 1.87855 19.4341C1.85026 18.2558 1.99046 16.8818 2.31182 15.3926C3.3945 17.8243 4.71792 19.9273 6.10051 21.5283ZM12.5014 15.3926C12.8228 16.8818 12.963 18.2558 12.9347 19.4341C12.907 20.5863 12.7205 21.4605 12.4592 22.0529C12.2033 22.6332 11.9305 22.8346 11.7499 22.9093C11.5694 22.9841 11.2341 23.0346 10.6428 22.8053C10.1021 22.5956 9.44377 22.1835 8.71275 21.5283C10.0953 19.9273 11.4188 17.8243 12.5014 15.3926ZM12.5014 9.45476C12.8228 7.96563 12.963 6.59163 12.9347 5.41331C12.907 4.26117 12.7205 3.38691 12.4592 2.79457C12.2032 2.21425 11.9305 2.01289 11.7499 1.9381C11.5693 1.8633 11.2341 1.81281 10.6427 2.04216C10.102 2.25187 9.44376 2.66396 8.71275 3.31914C10.0953 4.92014 11.4187 7.02304 12.5014 9.45476ZM6.1005 3.31914C5.36949 2.66396 4.71122 2.25188 4.17052 2.04216C3.57918 1.81281 3.24392 1.86331 3.06335 1.9381C2.88279 2.01289 2.61001 2.21426 2.35405 2.79457C2.09279 3.38691 1.90624 4.26117 1.87858 5.41331C1.85029 6.59163 1.99049 7.96562 2.31183 9.45475C3.39451 7.02303 4.71792 4.92014 6.1005 3.31914Z"
        fill="#fff" />
    <path fill-rule="evenodd" clip-rule="evenodd"
        d="M29.0884 20.8578H23.4379V3.40329H29.2674C30.9776 3.40329 32.4464 3.75272 33.6737 4.45158C34.9009 5.14476 35.8413 6.14192 36.4947 7.44306C37.1538 8.73851 37.4833 10.2925 37.4833 12.105C37.4833 13.9232 37.1509 15.4857 36.4862 16.7925C35.8271 18.0993 34.8725 19.105 33.6225 19.8095C32.3725 20.5084 30.8612 20.8578 29.0884 20.8578ZM26.0714 18.5567H28.9435C30.2731 18.5567 31.3782 18.3067 32.2589 17.8067C33.1396 17.301 33.7987 16.5709 34.2362 15.6164C34.6737 14.6561 34.8924 13.4857 34.8924 12.105C34.8924 10.7357 34.6737 9.57374 34.2362 8.6192C33.8043 7.66465 33.1595 6.94022 32.3015 6.4459C31.4435 5.95158 30.3782 5.70442 29.1055 5.70442H26.0714V18.5567Z"
        fill="#fff" />
    <path fill-rule="evenodd" clip-rule="evenodd"
        d="M46.0678 21.122C44.8406 21.122 43.7695 20.8408 42.8548 20.2783C41.94 19.7158 41.2298 18.9289 40.7241 17.9175C40.2184 16.9061 39.9656 15.7243 39.9656 14.372C39.9656 13.0141 40.2184 11.8266 40.7241 10.8095C41.2298 9.79249 41.94 9.00272 42.8548 8.44022C43.7695 7.87772 44.8406 7.59647 46.0678 7.59647C47.2951 7.59647 48.3661 7.87772 49.2809 8.44022C50.1957 9.00272 50.9059 9.79249 51.4116 10.8095C51.9173 11.8266 52.1701 13.0141 52.1701 14.372C52.1701 15.7243 51.9173 16.9061 51.4116 17.9175C50.9059 18.9289 50.1957 19.7158 49.2809 20.2783C48.3661 20.8408 47.2951 21.122 46.0678 21.122ZM46.0764 18.9828C46.8718 18.9828 47.5309 18.7726 48.0536 18.3521C48.5764 17.9317 48.9627 17.372 49.2127 16.6732C49.4684 15.9743 49.5962 15.2044 49.5962 14.3635C49.5962 13.5283 49.4684 12.7612 49.2127 12.0624C48.9627 11.3578 48.5764 10.7925 48.0536 10.3664C47.5309 9.94022 46.8718 9.72715 46.0764 9.72715C45.2752 9.72715 44.6105 9.94022 44.082 10.3664C43.5593 10.7925 43.1701 11.3578 42.9144 12.0624C42.6644 12.7612 42.5394 13.5283 42.5394 14.3635C42.5394 15.2044 42.6644 15.9743 42.9144 16.6732C43.1701 17.372 43.5593 17.9317 44.082 18.3521C44.6105 18.7726 45.2752 18.9828 46.0764 18.9828Z"
        fill="#fff" />
    <path
        d="M63.3072 7.76692V15.4289C63.3129 16.1732 63.1566 16.7868 62.8384 17.2698C62.5259 17.7527 62.131 18.1135 61.6538 18.3521C61.1822 18.5908 60.7078 18.7101 60.2305 18.7101C59.4407 18.7101 58.7987 18.4459 58.3043 17.9175C57.81 17.3891 57.5629 16.6789 57.5629 15.7868V7.76692H55.0146V16.0936C55.0146 17.1732 55.1964 18.0794 55.56 18.8124C55.9293 19.5453 56.435 20.0993 57.0771 20.4743C57.7248 20.8436 58.4691 21.0283 59.31 21.0283C60.293 21.0283 61.114 20.7982 61.7731 20.3379C62.4379 19.872 62.9208 19.2896 63.222 18.5908H63.3583V20.8578H65.864V7.76692H63.3072Z"
        fill="#fff" />
    <path fill-rule="evenodd" clip-rule="evenodd"
        d="M69.4926 20.8578V3.40329H72.0408V9.88908H72.1943C72.342 9.61635 72.5551 9.30101 72.8335 8.94306C73.1119 8.5851 73.4982 8.2726 73.9926 8.00556C74.4869 7.73283 75.1403 7.59647 75.9528 7.59647C77.0096 7.59647 77.9528 7.86351 78.7823 8.39761C79.6119 8.9317 80.2624 9.70158 80.734 10.7073C81.2113 11.7129 81.4499 12.9232 81.4499 14.3379C81.4499 15.7527 81.2141 16.9658 80.7426 17.9771C80.271 18.9828 79.6232 19.7584 78.7994 20.3039C77.9755 20.8436 77.0352 21.1135 75.9783 21.1135C75.1829 21.1135 74.5323 20.98 74.0266 20.7129C73.5266 20.4459 73.1346 20.1334 72.8505 19.7754C72.5664 19.4175 72.3477 19.0993 72.1943 18.8209H71.9812V20.8578H69.4926ZM71.9897 14.3124C71.9897 15.2328 72.1232 16.0396 72.3903 16.7328C72.6573 17.426 73.0437 17.9686 73.5494 18.3607C74.0551 18.747 74.6744 18.9402 75.4073 18.9402C76.1687 18.9402 76.8051 18.7385 77.3164 18.3351C77.8278 17.926 78.2141 17.372 78.4755 16.6732C78.7426 15.9743 78.8761 15.1874 78.8761 14.3124C78.8761 13.4487 78.7454 12.6732 78.484 11.9857C78.2283 11.2982 77.842 10.7556 77.3249 10.3578C76.8136 9.9601 76.1744 9.76124 75.4073 9.76124C74.6687 9.76124 74.0437 9.95158 73.5323 10.3323C73.0266 10.7129 72.6431 11.2442 72.3818 11.926C72.1204 12.6078 71.9897 13.4033 71.9897 14.3124Z"
        fill="#fff" />
    <path d="M86.8597 20.8578V3.40329H84.3114V20.8578H86.8597Z" fill="#fff" />
    <path fill-rule="evenodd" clip-rule="evenodd"
        d="M95.9301 21.122C94.6403 21.122 93.5295 20.8465 92.5977 20.2953C91.6715 19.7385 90.9556 18.9573 90.4499 17.9516C89.9499 16.9402 89.6999 15.7556 89.6999 14.3976C89.6999 13.0567 89.9499 11.8749 90.4499 10.8522C90.9556 9.82942 91.6602 9.03113 92.5636 8.45726C93.4727 7.8834 94.5352 7.59647 95.7511 7.59647C96.4897 7.59647 97.2056 7.71863 97.8988 7.96295C98.592 8.20726 99.2141 8.59079 99.7653 9.11351C100.316 9.63624 100.751 10.3152 101.069 11.1504C101.387 11.98 101.547 12.9885 101.547 14.176V15.0794H92.2419C92.2616 15.8774 92.4143 16.562 92.6999 17.1334C93.0124 17.747 93.4471 18.2158 94.0039 18.5396C94.5607 18.8578 95.2113 19.0169 95.9556 19.0169C96.4386 19.0169 96.8789 18.9487 97.2766 18.8124C97.6744 18.6703 98.0181 18.4601 98.3079 18.1817C98.5977 17.9033 98.8193 17.5595 98.9727 17.1504L101.385 17.5851C101.191 18.2953 100.845 18.9175 100.345 19.4516C99.8505 19.98 99.2283 20.3919 98.4783 20.6874C97.734 20.9771 96.8846 21.122 95.9301 21.122ZM92.6658 11.5936C92.4167 12.082 92.2768 12.6076 92.2461 13.1703H99.0494C99.0494 12.4999 98.913 11.9061 98.6403 11.3891C98.3676 10.8664 97.984 10.4544 97.4897 10.1533C97.0011 9.85215 96.4272 9.70158 95.7681 9.70158C95.0522 9.70158 94.4272 9.87772 93.8931 10.23C93.3647 10.5766 92.9556 11.0311 92.6658 11.5936Z"
        fill="#fff" />
</svg>