<svg xmlns="http://www.w3.org/2000/svg" viewBox="0 0 987 132" color="#fff" width="240" fill="none">
  <path fill="currentColor"
    d="M179 108V21h58v15h-40v21h36v15h-36v36h-18ZM249 108V43h18v65h-18Zm9-74-7-2c-2-2-3-4-3-7l3-6c2-2 4-3 7-3s5 1 7 3l3 6c0 3-1 5-3 7l-7 2ZM282 108V43h17v11h1c1-4 3-7 6-9s6-3 10-3a27 27 0 0 1 5 1v16l-3-1h-4l-8 1a13 13 0 0 0-6 12v37h-18ZM385 61l-17 1-1-3-4-3-5-1c-3 0-6 0-8 2-2 1-2 2-2 4l1 4 7 3 12 2c6 2 11 4 14 7 3 2 5 6 5 11 0 4-2 8-4 11-3 4-6 6-11 8-4 2-9 3-15 3-8 0-15-2-20-6s-8-8-9-15l18-1c0 3 1 5 4 6 2 2 4 2 7 2l8-1c2-2 3-3 3-5l-2-4-6-3-12-2c-6-1-11-3-14-7-3-3-4-7-4-12 0-4 1-8 3-11s5-5 10-7l14-2c9 0 15 2 20 5 5 4 7 8 8 14ZM433 43v13h-40V43h40Zm-31-16h19v65l2 2 4 1a16 16 0 0 0 4-1l3 13a51 51 0 0 1-10 2c-4 0-8 0-11-2-4-1-6-3-8-6s-3-6-3-10V27ZM478 78h16l8 10 7 9 15 18h-17l-10-12-6-7-13-18Zm47-13c0 9-2 17-5 24-4 7-9 12-15 15-6 4-13 5-21 5a38 38 0 0 1-35-21c-4-6-6-14-6-23 0-10 2-18 6-25 3-6 8-11 14-15 7-3 14-5 21-5 8 0 15 2 21 5 6 4 11 9 15 15 3 7 5 15 5 25Zm-18 0c0-7-1-12-3-16l-8-10c-3-2-7-3-12-3-4 0-8 1-11 3-4 3-6 6-8 10s-3 9-3 16c0 6 1 11 3 15s4 8 8 10c3 2 7 3 11 3 5 0 9-1 12-3s6-6 8-10 3-9 3-15ZM581 80V43h18v65h-18V96c-2 4-4 7-8 10-3 2-7 3-12 3s-9-1-12-3l-8-8-2-14V43h18v38c0 4 1 7 3 9 2 3 5 4 8 4l6-2 5-4 2-8ZM632 109c-4 0-8 0-11-2-4-1-6-3-8-6s-3-7-3-11l2-9c1-3 3-5 6-6l7-4 10-1a235 235 0 0 0 14-3l2-3c0-3-1-5-3-7l-7-2-8 2-4 6-17-2a23 23 0 0 1 15-17l14-2 10 1c4 1 7 2 9 4a19 19 0 0 1 9 17v44h-17v-9h-1a18 18 0 0 1-11 9l-8 1Zm5-12 7-2 5-4 2-6v-7l-3 1a43 43 0 0 1-7 1 1007 1007 0 0 0-9 2l-3 3-2 4c0 3 1 5 3 6l7 2ZM707 109c-5 0-10-1-14-4-4-2-7-6-9-11s-4-11-4-18c0-8 2-14 4-19s6-9 10-11a25 25 0 0 1 22-2l6 4 3 6h1V21h18v87h-18V98h-1c0 2-2 3-3 5l-6 5-9 1Zm6-14c3 0 5-1 7-3 2-1 4-3 5-6l1-10-1-11-5-6c-2-2-4-3-7-3s-6 1-8 3c-2 1-3 4-5 7l-1 10 1 10 5 6c2 2 5 3 8 3ZM759 108V43h18v11l6-9c3-2 6-3 10-3a27 27 0 0 1 6 1v16l-4-1h-4l-7 1a13 13 0 0 0-7 12v37h-18ZM825 109c-4 0-8 0-11-2-3-1-6-3-8-6s-3-7-3-11l2-9c2-3 3-5 6-6l8-4 9-1a235 235 0 0 0 14-3l2-3c0-3-1-5-3-7l-7-2-8 2-4 6-16-2a23 23 0 0 1 14-17l14-2 10 1c4 1 7 2 9 4a19 19 0 0 1 9 17v44h-17v-9h-1a19 19 0 0 1-10 9l-9 1Zm5-12 7-2 5-4 2-6v-7l-3 1a43 43 0 0 1-6 1 1007 1007 0 0 0-9 2l-4 3-1 4c0 3 0 5 2 6l7 2ZM894 70v38h-18V43h17v11h1c1-3 4-6 7-9 4-2 8-3 13-3l12 3c3 2 6 5 7 8 2 4 3 8 3 14v41h-18V70c0-4-1-7-3-10-2-2-5-3-9-3l-6 2-4 4-2 7ZM985 43v13h-39V43h39Zm-30-16h18v61l1 4 2 2 3 1a16 16 0 0 0 5-1l3 13a51 51 0 0 1-10 2c-5 0-8 0-12-2-3-1-6-3-7-6-2-3-3-6-3-10V27ZM57 0h18v132H57V0Z"></path>
  <path fill="currentColor" d="M132 57v18H0V57h132Z"></path>
  <path fill="currentColor" d="m109 10 13 13-47 47-13-13 47-47Z"></path>
</svg>