<svg width="743" height="120" viewBox="0 0 743 120" fill="none" xmlns="http://www.w3.org/2000/svg">
  <path
    d="M106.158 -0.000244141H87.9387V8.50219V10.7433V19.1513V19.5738V28.9811V40.5031V48.1272V51.174V57.957V72.515V77.1086V79.1024C87.9387 81.7531 86.4021 84.1633 83.9993 85.2835L78.1028 88.0307V77.1086H78.0872L78.1028 77.0977V57.957V55.7567V48.1272V45.0859V28.9811H67.7696H58.9574V33.0931V48.1272V54.0217V57.957V64.6925V77.1086V86.0335V96.9666L54.5669 99.012L49.1269 96.506V85.5729V77.1086V64.232V57.957H35.501H29.9753V71.8873V76.7553V77.1086V83.3638V87.6884V108.676L49.1269 117.494L54.5669 120L58.9574 117.954L78.1028 109.018L87.9387 104.435L92.9997 102.074C101.592 98.0664 107.084 89.4444 107.084 79.9638V77.1086V74.5169V63.5846V57.957V48.1272V42.2436V31.5727V28.9811V19.1513V10.6434V-0.000244141H106.158Z"
    fill="#FF4201" />
  <path
    d="M37.3276 48.1275H49.1274V32.6328V28.9814H41.1929H29.9766H20.1461V19.2909L19.8465 19.1516H20.1461H29.9766H43.8966H49.1274H58.958H65.1045H78.1034V13.0852V7.62939e-05H60.5483H58.958H49.1274V0.284035L48.512 7.62939e-05H29.9766H20.1461H2.30702H1V10.4725V19.1516V28.9814V31.4012V42.072V48.1275V57.9574V63.413V74.3461V77.1089V79.7053C1 89.2307 6.54397 97.886 15.1972 101.868L20.1461 104.146V83.1589V77.1089V72.2259V57.9574V50.8849V48.1275H29.9766H37.3276Z"
    fill="#FF4201" />
  <path
    d="M131.085 83.877H141.719V65.5423H164.429V55.6156H141.719V46.0503H167.323V36.1236H131.085V83.877Z"
    fill="#FFFFFF" />
  <path d="M187.138 36.1231H176.504V83.8765H210.812V73.9485H187.138V36.1231Z" fill="#FFFFFF" />
  <path
    d="M239.946 74.5932C231.994 74.5932 225.997 68.3198 225.997 59.8705C225.997 51.5892 231.938 45.3438 239.817 45.3438C247.77 45.3438 253.767 51.6438 253.767 59.9998V60.1278C253.767 68.3758 247.826 74.5932 239.946 74.5932ZM239.946 35.3505C225.943 35.3505 214.975 46.1785 214.975 60.1278C214.975 74.1078 225.655 84.6492 239.817 84.6492C253.819 84.6492 264.787 73.8212 264.787 59.8705C264.787 45.8932 254.109 35.3505 239.946 35.3505Z"
    fill="#FFFFFF" />
  <path
    d="M285.504 46.0503H295.658C299.293 46.0503 303.625 47.1076 303.625 52.2796C303.625 56.0836 300.597 58.4463 295.722 58.4463H285.504V46.0503ZM314.389 51.829V51.6996C314.389 47.4916 312.965 43.805 310.248 41.0143C306.976 37.813 302.153 36.1236 296.302 36.1236H274.869V83.877H285.504V68.181H293.344L304.409 83.877H317.149L304.52 66.169C310.82 63.7103 314.389 58.573 314.389 51.829Z"
    fill="#FFFFFF" />
  <path d="M325.05 83.8772H335.684V36.1239H325.05V83.8772Z" fill="#FFFFFF" />
  <path
    d="M374.775 63.2703H363.406L369.066 50.061L374.775 63.2703ZM364.634 35.801L343.629 83.877H354.715L359.346 73.005H378.835L383.403 83.877H394.75L373.747 35.801H364.634Z"
    fill="#FFFFFF" />
  <path
    d="M433.706 36.1231V64.6418L411.61 36.1231H402.248V83.8765H412.754V54.4565L435.558 83.8765H444.212V36.1231H433.706Z"
    fill="#FFFFFF" />
  <path
    d="M524.811 70.8717L513.746 37.3544H507.056L495.991 70.8717L485.247 37.4837H476.691L492.388 82.8384H499.207L510.272 50.4784L521.338 82.8384H528.222L543.852 37.4837H535.555L524.811 70.8717Z"
    fill="#FFFFFF" />
  <path
    d="M589.468 60.1283C589.468 68.8777 583.228 75.955 574.285 75.955C565.344 75.955 558.976 68.7497 558.976 59.999V59.871C558.976 51.1217 565.216 43.9817 574.157 43.9817C583.1 43.9817 589.468 51.251 589.468 59.999V60.1283ZM574.285 36.7123C560.454 36.7123 550.676 47.3257 550.676 59.999V60.1283C550.676 72.803 560.326 83.2883 574.157 83.2883C587.989 83.2883 597.768 72.6737 597.768 59.999V59.871C597.768 47.1977 588.117 36.7123 574.285 36.7123Z"
    fill="#FFFFFF" />
  <path
    d="M618.482 59.8068V44.6881H629.998C635.85 44.6881 639.325 47.3268 639.325 52.1508V52.2788C639.325 56.8468 635.724 59.8068 630.062 59.8068H618.482ZM647.366 51.8294V51.7001C647.366 47.7775 646.016 44.4321 643.636 41.9868C640.74 39.1561 636.301 37.4841 630.641 37.4841H610.569V82.5161H618.482V66.8201H628.389L639.454 82.5161H648.846L636.688 65.4668C642.928 63.6668 647.366 59.2268 647.366 51.8294Z"
    fill="#FFFFFF" />
  <path
    d="M699.412 37.4839H689.635L668.212 60.1279V37.4839H660.299V82.5159H668.212V69.4572L675.223 62.2505L690.6 82.5159H700.248L680.627 56.8465L699.412 37.4839Z"
    fill="#FFFFFF" />
  <path
    d="M727.013 56.3965C718.328 54.3378 716.269 52.7938 716.269 49.3192V49.1925C716.269 46.2325 718.972 43.8525 723.602 43.8525C727.72 43.8525 731.773 45.4605 735.825 48.4832L740.072 42.5005C735.504 38.8338 730.293 36.8405 723.732 36.8405C714.789 36.8405 708.357 42.1792 708.357 49.8992V50.0285C708.357 58.3258 713.761 61.1565 723.346 63.4738C731.708 65.4045 733.51 67.1418 733.51 70.3578V70.4858C733.51 73.8312 730.422 76.1472 725.533 76.1472C720 76.1472 715.626 74.0245 711.317 70.2938L706.554 75.9552C711.96 80.7792 718.457 83.1592 725.34 83.1592C734.797 83.1592 741.424 78.1418 741.424 69.7138V69.5858C741.424 62.1218 736.534 58.7125 727.013 56.3965Z"
    fill="#FFFFFF" />
</svg>