<svg width="32" height="32" viewBox="0 0 32 32" fill="none" xmlns="http://www.w3.org/2000/svg">
<path d="M30.0425 5.95275e-07H25.184V2.26732V2.86494V5.10707V5.21975V7.72836V10.8009V12.834V13.6465V15.4553V19.3374V20.5623V21.094C25.184 21.8009 24.7742 22.4436 24.1334 22.7423L22.561 23.4749V20.5623H22.5569L22.561 20.5594V15.4553V14.8685V12.834V12.023V7.72836H19.8055H17.4556V8.82488V12.834V14.4059V15.4553V17.2514V20.5623V22.9423V25.8578L16.2848 26.4033L14.8341 25.735V22.8195V20.5623V17.1286V15.4553H11.2006H9.72705V19.17V20.4681V20.5623V22.2304V23.3836V28.9804L14.8341 31.3317L16.2848 32L17.4556 31.4545L22.561 29.0717L25.184 27.8494L26.5335 27.2199C28.8248 26.1511 30.2894 23.8519 30.2894 21.3237V20.5623V19.8712V16.9559V15.4553V12.834V11.265V8.41946V7.72836V5.10707V2.83831V5.95275e-07H30.0425Z" fill="white"/>
<path d="M11.6874 12.834H14.834V8.70203V7.72833H12.7181H9.72709H7.10562V5.14418L7.02574 5.10705H7.10562H9.72709H13.4391H14.834H17.4555H19.0945H22.5609V3.48935V-2.81125e-05H17.8795H17.4555H14.834V0.0756938L14.6699 -2.81125e-05H9.72709H7.10562H2.34854H2V2.79263V5.10705V7.72833V8.3736V11.2192V12.834V15.4552V16.9101V19.8256V20.5623V21.2547C2 23.7948 3.47839 26.1029 5.78592 27.1648L7.10562 27.7722V22.1757V20.5623V19.2602V15.4552V13.5693V12.834H9.72709H11.6874Z" fill="white"/>
</svg>
