<svg xmlns="http://www.w3.org/2000/svg" width="72" height="26" fill="none">
  <g clip-path="url(#a)">
    <path fill="#fff"
      d="M8.583 2.898a1.079 1.079 0 0 1 1.532 0 1.093 1.093 0 0 1 0 1.54l-7.272 7.31-.766-.77a1.093 1.093 0 0 1-.002-1.538l6.508-6.542zm-4.495 10.1 7.28-7.318a2.87 2.87 0 0 0-.008-4.033 2.832 2.832 0 0 0-4.006-.014L.816 8.203a2.868 2.868 0 0 0 .009 4.017l.774.778-.774.778a2.869 2.869 0 0 0-.004 4.021l1.265 1.272a2.834 2.834 0 0 0 4.013-.009 2.868 2.868 0 0 0 .008-4.033l-2.019-2.03zm6.032 10.104a1.079 1.079 0 0 1-1.532 0 1.093 1.093 0 0 1 0-1.54l7.272-7.31.766.77c.423.425.424 1.113.002 1.538l-6.508 6.542zm4.495-10.1-7.28 7.318a2.87 2.87 0 0 0 .008 4.033 2.832 2.832 0 0 0 4.007.014l6.537-6.57a2.869 2.869 0 0 0-.008-4.017l-.774-.778.774-.778a2.869 2.869 0 0 0 .003-4.021L16.617 6.93a2.833 2.833 0 0 0-4.012.009 2.868 2.868 0 0 0-.009 4.033l2.02 2.03zm1.245-1.25L13.85 9.73a1.093 1.093 0 0 1 0-1.54 1.079 1.079 0 0 1 1.531 0l1.25 1.256a1.093 1.093 0 0 1-.005 1.535l-.766.77zM2.843 14.248l2.011 2.02a1.092 1.092 0 0 1 0 1.54 1.08 1.08 0 0 1-1.532 0l-1.25-1.256a1.093 1.093 0 0 1 .005-1.535l.766-.77z" />
    <path fill="#fff"
      d="m15.86 14.253-1.245-1.25-4.019 4.039 1.245 1.25 4.02-4.039zM2.7 17.184l-.628-.63a1.093 1.093 0 0 1 .006-1.535l.765-.77L1.6 12.998l-.774.778a2.869 2.869 0 0 0-.004 4.021l.634.638L2.7 17.184z" />
    <path fill="#fff"
      d="M27.991 2.803h2.532v12.395c0 .493.116.895.34 1.131.22.236.578.325.89.325h.904v2.158H31.36c-.89.038-1.895-.13-2.526-.802-.555-.59-.842-1.587-.842-2.81V2.802z" />
    <path fill="#fff" fill-rule="evenodd"
      d="M68.969 7.37h2.536v15.827h-2.536v-6.472c-.855 1.457-2.288 2.28-4.089 2.28-2.986 0-5.148-2.26-5.148-5.926 0-3.666 2.162-5.926 5.148-5.926 1.801 0 3.235.822 4.089 2.28V7.37zm-6.68 5.708c0-2.38 1.368-3.848 3.34-3.848 1.971 0 3.339 1.467 3.339 3.848 0 2.38-1.366 3.848-3.34 3.848-1.972 0-3.34-1.467-3.34-3.848z"
      clip-rule="evenodd" />
    <path fill="#fff"
      d="M40.153 19.774 45.11 7.37h-2.628l-3.178 8.636-3.623-8.636h-2.666l5.005 11.26-.385.955c-.47 1.008-1.14 1.528-2.27 1.528h-.962v2.082h1.12c2.526 0 3.715-1.13 4.63-3.42zm15.107-7.476c0-1.554-.842-2.949-2.625-2.957V9.34c-1.783-.007-3.187 1.197-3.187 3.422V18.8h-2.536V7.368h2.536v2.215c.772-1.383 1.671-2.43 4.172-2.42 2.501.012 4.182 2.356 4.182 5.069v6.57H55.26v-6.504z" />
  </g>
  <defs>
    <clipPath id="a">
      <path fill="#fff" d="M0 .81h71.505v24.381H0z" />
    </clipPath>
  </defs>
</svg>