<svg xmlns="http://www.w3.org/2000/svg" width="276" height="80" fill="none">
  <rect width="80" height="80" fill="#fff" rx="40" />
  <path fill="#212121" d="M14 36h8v8h-8zm0-8h16v8H14z" />
  <path fill="#212121" d="M14 28h8v24h-8zm27 0h8v8h-8zm0 8h8v8h-8z" />
  <path fill="#212121" d="M41 36h16v8H41zm16-8h8v8h-8zm0 16h8v8h-8z" />
  <path fill="#212121" d="M41 28h8v24h-8zm-11 8h8v16h-8z" />
  <path fill="#212121" d="M30 44h8v8h-8zm-16 0h8v8h-8z" />
  <path fill="#fff"
    d="M95.264 56V22.4h6.144L117.2 46.064V22.4h6.144V56H117.2l-15.792-23.616V56h-6.144zm38.722-27.504c-1.12 0-2.048-.336-2.784-1.008-.704-.672-1.056-1.52-1.056-2.544s.352-1.856 1.056-2.496c.736-.672 1.664-1.008 2.784-1.008 1.12 0 2.032.336 2.736 1.008.736.64 1.104 1.472 1.104 2.496s-.368 1.872-1.104 2.544c-.704.672-1.616 1.008-2.736 1.008zM130.914 56V32.192h6.144V56h-6.144zm14.621 0V37.328h-3.264v-5.136h3.264v-2.784c0-2.88.72-4.928 2.16-6.144 1.472-1.216 3.456-1.824 5.952-1.824h2.64v5.232h-1.68c-1.056 0-1.808.208-2.256.624-.448.416-.672 1.12-.672 2.112v2.784h5.136v5.136h-5.136V56h-6.144zm27.714 0c-2.496 0-4.496-.608-6-1.824-1.504-1.216-2.256-3.376-2.256-6.48V37.328h-4.08v-5.136h4.08l.72-6.384h5.424v6.384h6.432v5.136h-6.432v10.416c0 1.152.24 1.952.72 2.4.512.416 1.376.624 2.592.624h2.976V56h-4.176zm13.531 10.56 5.52-12.144h-1.44l-9.264-22.224h6.672l6.672 16.752 6.96-16.752h6.528l-15.12 34.368h-6.528zM213.548 56V22.4h6.144v13.584L232.124 22.4h7.584l-12.384 13.344L240.044 56h-7.536l-9.6-15.552-3.216 3.504V56h-6.144zm34.831-27.504c-1.12 0-2.048-.336-2.784-1.008-.704-.672-1.056-1.52-1.056-2.544s.352-1.856 1.056-2.496c.736-.672 1.664-1.008 2.784-1.008 1.12 0 2.032.336 2.736 1.008.736.64 1.104 1.472 1.104 2.496s-.368 1.872-1.104 2.544c-.704.672-1.616 1.008-2.736 1.008zM245.307 56V32.192h6.144V56h-6.144zm24.125 0c-2.496 0-4.496-.608-6-1.824-1.504-1.216-2.256-3.376-2.256-6.48V37.328h-4.08v-5.136h4.08l.72-6.384h5.424v6.384h6.432v5.136h-6.432v10.416c0 1.152.24 1.952.72 2.4.512.416 1.376.624 2.592.624h2.976V56h-4.176z" />
</svg>