<svg width="976" height="246" viewBox="0 0 976 246" fill="none" xmlns="http://www.w3.org/2000/svg">
<path d="M938.6 11.9C919.8 11.9 904.6 27.1 904.6 45.9C904.6 64.7 919.8 79.9 938.6 79.9C957.4 79.9 972.6 64.7 972.6 45.9C972.6 27.1 957.3 11.9 938.6 11.9ZM938.6 76.1C921.9 76.1 908.3 62.6 908.3 45.8C908.3 29.1 921.8 15.5 938.6 15.5C955.4 15.5 968.9 29 968.9 45.8C968.8 62.6 955.3 76.1 938.6 76.1Z" fill="white"/>
<path d="M958 64.4H950.6L943.7 54.3C942.9 53.1 942.2 52.2 941.5 51.4C940.8 50.6 940.2 50 939.5 49.5C938.8 49 938.1 48.7 937.3 48.5C936.5 48.3 935.6 48.2 934.5 48.2H929.2V64.4H923V27.4H940.6C942.8 27.4 944.7 27.6 946.5 27.9C948.2 28.2 949.7 28.8 950.9 29.6C952.1 30.4 953.1 31.4 953.7 32.7C954.4 34 954.7 35.6 954.7 37.5C954.7 40.3 953.8 42.6 951.9 44.4C950 46.1 947.2 47.3 943.6 47.7V47.8C946.3 48.9 948.8 51.1 951.1 54.4L958 64.4ZM929.1 43.6H939.4C942.4 43.6 944.6 43.1 946.2 42.2C947.8 41.3 948.5 39.7 948.5 37.5C948.5 35.8 947.8 34.5 946.5 33.6C945.2 32.7 943 32.2 940 32.2H929.1V43.6Z" fill="white"/>
<path d="M888.3 127.7V189.1H860.3V178.8C852.9 187.1 841.2 191.5 830.1 191.5C808.2 191.5 791.3 178.4 791.3 158.7C791.3 138.4 810.2 124.5 834 124.5C842.3 124.5 851.5 126.3 860.2 129.7V127.7C860.2 116.8 853.4 107.2 836.5 107.2C827 107.2 818 110.4 809.9 114.6L800.2 95.3C814.7 88 828.8 84 843.1 84C870 84 888.3 100.9 888.3 127.7ZM860.2 156.7V147.2C853.6 144.8 846.1 143.4 838.1 143.4C827.6 143.4 819.2 149.6 819.2 157.9C819.2 166.2 826.6 171.4 836.5 171.4C847.7 171.4 858.2 166.3 860.2 156.7Z" fill="white"/>
<path d="M683.2 221.5L689.5 201.1C694.6 204 699.9 205.8 703.4 205.8C709.1 205.8 713.6 204 715.8 200.1L719.5 192.3L675.7 85.8H706.5L734.3 159.9L760.6 85.8H791L747.7 196.6C739.7 217.2 726.3 228 709.7 228C701 228 690.4 225.3 683.2 221.5Z" fill="white"/>
<path d="M568 137.2C568 107.7 592.2 83 621.2 83C650 83 674 107.7 674 137.2C674 166.7 649.9 191.6 621.2 191.6C592.2 191.6 568 166.7 568 137.2ZM647.9 137.2C647.9 121.1 635.7 107.7 621.2 107.7C606.5 107.7 594.3 121.2 594.3 137.2C594.3 153.2 606.5 166.9 621.2 166.9C635.7 166.9 647.9 153.2 647.9 137.2Z" fill="white"/>
<path d="M462 137.6C462 108.6 487.6 84.4 517.7 84.4C534.2 84.4 547.8 91.1 557.7 101.7L538.6 118C533.5 112.3 525.4 108.5 517.5 108.5C502.5 108.5 489.9 121.7 489.9 137.3C489.9 153.3 502.5 166.6 517.7 166.6C525.6 166.6 533.9 162.7 539.2 156.8L558.3 173C548.3 184 534.5 190.9 517.5 190.9C487.4 191 462 166.6 462 137.6Z" fill="white"/>
<path d="M302.8 118.4C302.8 79 337.1 46 377.2 46C417.8 46 451.6 79 451.6 118.4C451.6 157.8 417.8 191 377.2 191C337.1 191 302.8 157.8 302.8 118.4ZM420.9 118.4C420.9 94.1 400.9 73.3 377.3 73.3C353.8 73.3 333.9 94.1 333.9 118.4C333.9 142.9 353.9 163.7 377.3 163.7C400.9 163.7 420.9 142.9 420.9 118.4Z" fill="white"/>
<path fill-rule="evenodd" clip-rule="evenodd" d="M225.191 64L123 5L20.809 64V182L123 241L225.191 182V64ZM199.21 79L123 35L46.7898 79V167L123 211L199.21 167V79Z" fill="white"/>
<path d="M212.826 71L123 124V227C123 227 182.884 191.7 212.826 174C212.826 139.7 212.826 71 212.826 71Z" fill="white"/>
</svg>
