<svg width="140" height="27" viewBox="0 0 140 27" fill="none" xmlns="http://www.w3.org/2000/svg">
<path fill-rule="evenodd" clip-rule="evenodd" d="M7.07162 3C6.77886 3 6.51493 3.17635 6.4029 3.44682C6.29086 3.7173 6.35279 4.02862 6.5598 4.23563L8.92533 6.60116L4.01411 11.5124C3.87837 11.6481 3.80211 11.8322 3.80211 12.0242V16.0404L2.16044 14.3987C1.95343 14.1917 1.6421 14.1298 1.37163 14.2418C1.10116 14.3539 0.924805 14.6178 0.924805 14.9105V23.5515C0.924805 23.9513 1.24887 24.2754 1.64862 24.2754H10.2896C10.5824 24.2754 10.8463 24.099 10.9583 23.8285C11.0704 23.5581 11.0084 23.2467 10.8014 23.0397L8.43591 20.6742L13.3471 15.763C13.4829 15.6272 13.5591 15.4431 13.5591 15.2512V11.2388L15.2 12.8848C15.4068 13.0923 15.7183 13.1546 15.9891 13.0427C16.2598 12.9308 16.4364 12.6667 16.4364 12.3738V3.72382C16.4364 3.32406 16.1124 3 15.7126 3H7.07162ZM4.01145 18.297C4.02032 18.306 4.02944 18.3147 4.03879 18.3232C4.32274 18.582 4.76287 18.5743 5.03751 18.3L12.1115 11.2336V14.9514L6.90046 20.1624C6.61779 20.445 6.61779 20.9033 6.90046 21.186L8.54217 22.8277H2.37244V16.658L4.01145 18.297ZM10.4608 6.08934L8.81907 4.44764H14.9888V10.6225L13.3479 8.97645C13.2123 8.8404 13.0281 8.76385 12.836 8.76365C12.6439 8.76345 12.4596 8.83962 12.3237 8.97538L5.24975 16.0417V12.324L10.4608 7.11298C10.7434 6.83031 10.7434 6.37201 10.4608 6.08934Z" fill="#16BDCA"/>
<path d="M33.1378 21V7.90909H38.3026C39.2955 7.90909 40.1413 8.09872 40.8402 8.47798C41.5391 8.85298 42.0717 9.375 42.4382 10.044C42.8089 10.7088 42.9943 11.4759 42.9943 12.3452C42.9943 13.2145 42.8068 13.9815 42.4318 14.6463C42.0568 15.3111 41.5135 15.8288 40.8018 16.1996C40.0945 16.5703 39.2379 16.7557 38.2322 16.7557H34.9403V14.5376H37.7848C38.3175 14.5376 38.7564 14.446 39.1016 14.2628C39.451 14.0753 39.7109 13.8175 39.8814 13.4893C40.0561 13.157 40.1435 12.7756 40.1435 12.3452C40.1435 11.9105 40.0561 11.5312 39.8814 11.2074C39.7109 10.8793 39.451 10.6257 39.1016 10.4467C38.7521 10.2635 38.3089 10.1719 37.772 10.1719H35.9055V21H33.1378ZM44.7409 21V11.1818H47.3809V12.8949H47.4831C47.6621 12.2855 47.9625 11.8253 48.3844 11.5142C48.8063 11.1989 49.2921 11.0412 49.8418 11.0412C49.9782 11.0412 50.1252 11.0497 50.2828 11.0668C50.4405 11.0838 50.579 11.1072 50.6983 11.1371V13.5533C50.5705 13.5149 50.3936 13.4808 50.1678 13.451C49.9419 13.4212 49.7353 13.4062 49.5478 13.4062C49.1472 13.4062 48.7892 13.4936 48.4739 13.6683C48.1628 13.8388 47.9157 14.0774 47.7324 14.3842C47.5534 14.6911 47.464 15.0447 47.464 15.4453V21H44.7409ZM56.0852 21.1918C55.0923 21.1918 54.2337 20.9808 53.5092 20.5589C52.7891 20.1328 52.233 19.5405 51.8409 18.782C51.4489 18.0192 51.2528 17.1349 51.2528 16.1293C51.2528 15.1151 51.4489 14.2287 51.8409 13.4702C52.233 12.7074 52.7891 12.1151 53.5092 11.6932C54.2337 11.267 55.0923 11.054 56.0852 11.054C57.0781 11.054 57.9347 11.267 58.6548 11.6932C59.3793 12.1151 59.9375 12.7074 60.3295 13.4702C60.7216 14.2287 60.9176 15.1151 60.9176 16.1293C60.9176 17.1349 60.7216 18.0192 60.3295 18.782C59.9375 19.5405 59.3793 20.1328 58.6548 20.5589C57.9347 20.9808 57.0781 21.1918 56.0852 21.1918ZM56.098 19.0824C56.5497 19.0824 56.9268 18.9545 57.2294 18.6989C57.532 18.4389 57.7599 18.0852 57.9134 17.6378C58.071 17.1903 58.1499 16.6811 58.1499 16.1101C58.1499 15.5391 58.071 15.0298 57.9134 14.5824C57.7599 14.1349 57.532 13.7812 57.2294 13.5213C56.9268 13.2614 56.5497 13.1314 56.098 13.1314C55.642 13.1314 55.2585 13.2614 54.9474 13.5213C54.6406 13.7812 54.4084 14.1349 54.2507 14.5824C54.0973 15.0298 54.0206 15.5391 54.0206 16.1101C54.0206 16.6811 54.0973 17.1903 54.2507 17.6378C54.4084 18.0852 54.6406 18.4389 54.9474 18.6989C55.2585 18.9545 55.642 19.0824 56.098 19.0824ZM66.3061 21.1598C65.5604 21.1598 64.8849 20.968 64.2798 20.5845C63.679 20.1967 63.2017 19.6278 62.848 18.8778C62.4986 18.1236 62.3239 17.1989 62.3239 16.1037C62.3239 14.9787 62.505 14.0433 62.8672 13.2976C63.2294 12.5476 63.7109 11.9872 64.3118 11.6165C64.9169 11.2415 65.5795 11.054 66.2997 11.054C66.8494 11.054 67.3075 11.1477 67.674 11.3352C68.0447 11.5185 68.343 11.7486 68.5689 12.0256C68.799 12.2983 68.9737 12.5668 69.093 12.831H69.1761V7.90909H71.8928V21H69.2081V19.4276H69.093C68.9652 19.7003 68.7841 19.9709 68.5497 20.2393C68.3196 20.5036 68.0192 20.723 67.6484 20.8977C67.282 21.0724 66.8345 21.1598 66.3061 21.1598ZM67.169 18.9929C67.608 18.9929 67.9787 18.8736 68.2812 18.6349C68.5881 18.392 68.8224 18.0533 68.9844 17.6186C69.1506 17.1839 69.2337 16.6747 69.2337 16.0909C69.2337 15.5071 69.1527 15 68.9908 14.5696C68.8288 14.1392 68.5945 13.8068 68.2876 13.5724C67.9808 13.3381 67.608 13.2209 67.169 13.2209C66.7216 13.2209 66.3445 13.3423 66.0376 13.5852C65.7308 13.8281 65.4986 14.1648 65.3409 14.5952C65.1832 15.0256 65.1044 15.5241 65.1044 16.0909C65.1044 16.6619 65.1832 17.1669 65.3409 17.6058C65.5028 18.0405 65.7351 18.3814 66.0376 18.6286C66.3445 18.8714 66.7216 18.9929 67.169 18.9929ZM80.4277 16.8196V11.1818H83.1507V21H80.5364V19.2166H80.4341C80.2125 19.7919 79.8439 20.2543 79.3283 20.6037C78.8169 20.9531 78.1926 21.1278 77.4554 21.1278C76.7992 21.1278 76.2218 20.9787 75.7232 20.6804C75.2246 20.3821 74.8347 19.9581 74.5534 19.4084C74.2765 18.8587 74.1358 18.2003 74.1316 17.4332V11.1818H76.8546V16.9474C76.8588 17.527 77.0144 17.9851 77.3212 18.3217C77.628 18.6584 78.0392 18.8267 78.5549 18.8267C78.883 18.8267 79.1898 18.7521 79.4753 18.603C79.7608 18.4496 79.9909 18.2237 80.1657 17.9254C80.3446 17.6271 80.432 17.2585 80.4277 16.8196ZM89.7649 21.1918C88.7592 21.1918 87.8942 20.9787 87.1697 20.5526C86.4496 20.1222 85.8956 19.5256 85.5078 18.7628C85.1243 18 84.9325 17.1222 84.9325 16.1293C84.9325 15.1236 85.1264 14.2415 85.5142 13.483C85.9063 12.7202 86.4624 12.1257 87.1825 11.6996C87.9027 11.2692 88.7592 11.054 89.7521 11.054C90.6087 11.054 91.3587 11.2095 92.0021 11.5206C92.6456 11.8317 93.1548 12.2685 93.5298 12.831C93.9048 13.3935 94.1115 14.054 94.1499 14.8125H91.5803C91.5078 14.3224 91.3161 13.9283 91.005 13.63C90.6982 13.3274 90.2955 13.1761 89.7969 13.1761C89.375 13.1761 89.0064 13.2912 88.6911 13.5213C88.38 13.7472 88.1371 14.0774 87.9624 14.5121C87.7876 14.9467 87.7003 15.473 87.7003 16.0909C87.7003 16.7173 87.7855 17.25 87.956 17.6889C88.1307 18.1278 88.3757 18.4624 88.6911 18.6925C89.0064 18.9226 89.375 19.0376 89.7969 19.0376C90.108 19.0376 90.3871 18.9737 90.6342 18.8459C90.8857 18.718 91.0923 18.5327 91.2543 18.2898C91.4205 18.0426 91.5291 17.7464 91.5803 17.4013H94.1499C94.1072 18.1513 93.9027 18.8118 93.5362 19.3828C93.174 19.9496 92.6733 20.3928 92.0341 20.7124C91.3949 21.032 90.6385 21.1918 89.7649 21.1918ZM101.116 11.1818V13.2273H95.2029V11.1818H101.116ZM96.5453 8.82955H99.2683V17.983C99.2683 18.2344 99.3066 18.4304 99.3833 18.571C99.46 18.7074 99.5666 18.8033 99.7029 18.8587C99.8436 18.9141 100.006 18.9418 100.189 18.9418C100.317 18.9418 100.444 18.9311 100.572 18.9098C100.7 18.8842 100.798 18.8651 100.866 18.8523L101.295 20.8786C101.158 20.9212 100.966 20.9702 100.719 21.0256C100.472 21.0852 100.172 21.1214 99.818 21.1342C99.1618 21.1598 98.5865 21.0724 98.0922 20.8722C97.6021 20.6719 97.2207 20.3608 96.948 19.9389C96.6752 19.517 96.541 18.9844 96.5453 18.3409V8.82955ZM105.823 7.90909V21H103.1V7.90909H105.823ZM110.804 21.1854C110.178 21.1854 109.62 21.0767 109.13 20.8594C108.64 20.6378 108.252 20.3118 107.966 19.8814C107.685 19.4467 107.544 18.9055 107.544 18.2578C107.544 17.7124 107.645 17.2543 107.845 16.8835C108.045 16.5128 108.318 16.2145 108.663 15.9886C109.008 15.7628 109.4 15.5923 109.839 15.4773C110.282 15.3622 110.747 15.2812 111.233 15.2344C111.804 15.1747 112.264 15.1193 112.613 15.0682C112.963 15.0128 113.216 14.9318 113.374 14.8253C113.532 14.7187 113.61 14.5611 113.61 14.3523V14.3139C113.61 13.9091 113.483 13.5959 113.227 13.3743C112.975 13.1527 112.618 13.0419 112.153 13.0419C111.663 13.0419 111.273 13.1506 110.983 13.3679C110.694 13.581 110.502 13.8494 110.408 14.1733L107.89 13.9688C108.017 13.3722 108.269 12.8565 108.644 12.4219C109.019 11.983 109.502 11.6463 110.095 11.4119C110.691 11.1733 111.382 11.054 112.166 11.054C112.711 11.054 113.233 11.1179 113.732 11.2457C114.235 11.3736 114.68 11.5717 115.068 11.8402C115.46 12.1087 115.769 12.4538 115.995 12.8757C116.221 13.2933 116.333 13.794 116.333 14.3778V21H113.751V19.6385H113.674C113.517 19.9453 113.306 20.2159 113.042 20.4503C112.777 20.6804 112.46 20.8615 112.089 20.9936C111.718 21.1214 111.29 21.1854 110.804 21.1854ZM111.584 19.3061C111.985 19.3061 112.338 19.2273 112.645 19.0696C112.952 18.9077 113.193 18.6903 113.368 18.4176C113.542 18.1449 113.63 17.8359 113.63 17.4908V16.4489C113.544 16.5043 113.427 16.5554 113.278 16.6023C113.133 16.6449 112.969 16.6854 112.786 16.7237C112.603 16.7578 112.419 16.7898 112.236 16.8196C112.053 16.8452 111.887 16.8686 111.738 16.8899C111.418 16.9368 111.139 17.0114 110.9 17.1136C110.662 17.2159 110.476 17.3544 110.344 17.5291C110.212 17.6996 110.146 17.9126 110.146 18.1683C110.146 18.5391 110.28 18.8224 110.549 19.0185C110.821 19.2102 111.167 19.3061 111.584 19.3061ZM121.169 15.3239V21H118.446V11.1818H121.041V12.9141H121.156C121.374 12.343 121.738 11.8913 122.249 11.5589C122.761 11.2223 123.381 11.054 124.109 11.054C124.791 11.054 125.386 11.2031 125.893 11.5014C126.4 11.7997 126.794 12.2259 127.075 12.7798C127.357 13.3295 127.497 13.9858 127.497 14.7486V21H124.774V15.2344C124.778 14.6335 124.625 14.1648 124.314 13.8281C124.003 13.4872 123.575 13.3168 123.029 13.3168C122.663 13.3168 122.339 13.3956 122.058 13.5533C121.781 13.7109 121.563 13.9411 121.406 14.2436C121.252 14.5419 121.173 14.902 121.169 15.3239ZM134.118 21.1918C133.108 21.1918 132.238 20.9872 131.51 20.5781C130.785 20.1648 130.227 19.581 129.835 18.8267C129.443 18.0682 129.247 17.1712 129.247 16.1357C129.247 15.1257 129.443 14.2393 129.835 13.4766C130.227 12.7138 130.779 12.1193 131.491 11.6932C132.206 11.267 133.046 11.054 134.009 11.054C134.657 11.054 135.26 11.1584 135.818 11.3672C136.381 11.5717 136.871 11.8807 137.288 12.294C137.71 12.7074 138.038 13.2273 138.273 13.8537C138.507 14.4759 138.624 15.2045 138.624 16.0398V16.7876H130.334V15.1001H136.061C136.061 14.7081 135.976 14.3608 135.805 14.0582C135.635 13.7557 135.398 13.5192 135.096 13.3487C134.797 13.174 134.45 13.0866 134.054 13.0866C133.64 13.0866 133.274 13.1825 132.954 13.3743C132.639 13.5618 132.392 13.8153 132.213 14.1349C132.034 14.4503 131.942 14.8018 131.938 15.1896V16.794C131.938 17.2798 132.028 17.6996 132.206 18.0533C132.39 18.407 132.648 18.6797 132.98 18.8714C133.312 19.0632 133.706 19.1591 134.162 19.1591C134.465 19.1591 134.742 19.1165 134.993 19.0312C135.245 18.946 135.46 18.8182 135.639 18.6477C135.818 18.4773 135.954 18.2685 136.048 18.0213L138.567 18.1875C138.439 18.7926 138.177 19.321 137.78 19.7727C137.388 20.2202 136.881 20.5696 136.259 20.821C135.641 21.0682 134.927 21.1918 134.118 21.1918Z" fill="white"/>
</svg>
