<svg width="531" height="198" viewBox="0 0 531 198" fill="none" xmlns="http://www.w3.org/2000/svg">
<path d="M133.98 107.869C133.98 107.388 133.915 106.907 133.882 106.426L133.826 105.709L133.72 104.992C133.647 104.519 133.59 104.038 133.5 103.573C133.131 101.687 132.586 99.8398 131.873 98.0552C131.141 96.2811 130.243 94.5807 129.189 92.9772C127.048 89.7377 124.259 86.9789 120.998 84.8753L120.38 84.4759C120.177 84.3455 119.957 84.2314 119.746 84.1172C119.323 83.8809 118.932 83.6445 118.469 83.4163L117.143 82.805C116.915 82.7072 116.695 82.593 116.468 82.5115L115.784 82.2589C113.971 81.578 112.093 81.0864 110.18 80.7917L108.757 80.6205L108.041 80.539H107.333L105.91 80.4331H104.763H100.305L82.4837 80.3434L64.6539 80.2211L59.3912 80.1722L89.487 33.2478C89.671 32.9565 89.7428 32.6079 89.6889 32.2674C89.635 31.9268 89.4591 31.6176 89.1942 31.3976C88.902 31.1715 88.5346 31.0659 88.1672 31.1022C87.7998 31.1386 87.4601 31.3142 87.2177 31.5932L41.3174 82.7805C40.6965 83.4839 40.2307 84.3106 39.9503 85.2067C39.67 86.1028 39.5815 87.048 39.6906 87.9807C39.8935 89.6415 40.7034 91.168 41.9638 92.2654C43.2241 93.3628 44.8456 93.9533 46.5151 93.9227H46.8567L64.6864 93.7597L82.5162 93.6374L100.338 93.5559H104.795H105.885H106.699H107.105L107.496 93.6048L108.309 93.6863C109.334 93.8562 110.34 94.1293 111.311 94.5014L111.677 94.6318C111.799 94.6726 111.904 94.7378 112.026 94.7867L112.726 95.0964L113.401 95.4714C113.515 95.5284 113.629 95.5855 113.735 95.6507L114.06 95.8626C115.814 96.9877 117.318 98.464 118.477 100.199C119.053 101.087 119.554 102.022 119.973 102.995C120.363 103.98 120.665 104.997 120.876 106.035C120.933 106.296 120.958 106.557 120.998 106.85L121.063 107.241V107.632C121.063 107.893 121.12 108.154 121.128 108.448V109.263C121.114 110.3 120.989 111.333 120.754 112.344L120.681 112.719L120.567 113.093C120.486 113.338 120.421 113.583 120.339 113.827C120.144 114.3 119.998 114.797 119.754 115.253C119.302 116.199 118.757 117.098 118.127 117.935L117.623 118.555C117.541 118.652 117.468 118.766 117.37 118.864L117.094 119.158L116.541 119.745L115.727 120.56L112.555 123.698L106.211 129.974L93.5378 142.379L68.1027 167.394L61.7419 173.654L58.5534 176.776L56.9266 178.341L56.528 178.724L56.3328 178.92L56.284 178.969H56.2433L56.1783 179.026L55.6333 179.515C55.4558 179.673 55.2684 179.82 55.072 179.955L54.7873 180.167L54.6491 180.273L54.5027 180.362L53.9251 180.721C53.832 180.781 53.734 180.832 53.6323 180.876L53.3314 181.014L53.0385 181.169L52.7376 181.283C52.5261 181.349 52.3309 181.446 52.1275 181.512C51.9242 181.577 51.7127 181.618 51.5093 181.683C51.4055 181.713 51.2994 181.735 51.1921 181.748L50.883 181.805C50.7773 181.805 50.6715 181.854 50.5658 181.862H50.2486C50.0354 181.89 49.8209 181.907 49.606 181.911H48.9553L48.2964 181.854C47.406 181.746 46.5319 181.53 45.6935 181.21C43.9744 180.533 42.4488 179.441 41.2524 178.031C40.1111 176.708 39.3567 175.095 39.0724 173.369C38.962 172.525 38.962 171.67 39.0724 170.826C39.0724 170.606 39.1538 170.386 39.1782 170.166L39.2351 169.84L39.3246 169.505C39.3897 169.285 39.4466 169.065 39.5035 168.837C39.5605 168.609 39.6744 168.397 39.7557 168.177L39.8696 167.835L40.0892 167.321L40.5203 166.294L41.3906 164.232C41.96 162.863 42.5619 161.493 43.1476 160.156C45.501 154.685 47.9412 149.251 50.4682 143.855C52.4692 139.584 54.5352 135.329 56.6826 131.123C56.7948 130.9 56.8483 130.652 56.8379 130.402C56.8276 130.152 56.7537 129.909 56.6233 129.696C56.493 129.483 56.3104 129.307 56.093 129.184C55.8756 129.062 55.6306 128.997 55.3811 128.996H42.0495C41.2965 128.995 40.562 129.23 39.9493 129.668C39.3365 130.107 38.8763 130.727 38.6332 131.441C37.8849 133.658 37.123 135.87 36.3475 138.076C34.3574 143.689 32.2833 149.272 30.125 154.826C29.58 156.22 29.0513 157.605 28.4982 158.991L27.6848 161.061L27.2781 162.105L27.0666 162.618L26.8145 163.335L26.3102 164.77C26.1719 165.259 26.0499 165.764 25.9197 166.261C25.8628 166.506 25.7977 166.759 25.7408 167.011L25.6107 167.786C25.5293 168.299 25.4317 168.813 25.3748 169.334C25.1661 171.451 25.2344 173.585 25.5781 175.684C26.307 179.864 28.1667 183.763 30.9547 186.956C32.2928 188.522 33.8296 189.906 35.526 191.073C38.9091 193.471 42.8552 194.948 46.9787 195.36L48.5486 195.466C49.0773 195.466 49.606 195.466 50.1266 195.466C50.6471 195.466 51.184 195.36 51.7371 195.36L52.5505 195.27L53.3639 195.124L54.1773 194.969C54.4384 194.925 54.6965 194.865 54.95 194.789C55.4625 194.651 55.9668 194.496 56.4711 194.341C56.9754 194.186 57.4553 193.974 57.9515 193.779C58.1955 193.681 58.4395 193.591 58.6754 193.477L59.3831 193.135L60.0745 192.776C60.3101 192.663 60.5383 192.535 60.7577 192.393L62.0754 191.578L62.3113 191.285L62.6204 191.056L63.2304 190.592C63.6224 190.298 63.9998 189.985 64.3611 189.654L65.4673 188.635L65.6056 188.513L65.6707 188.448L65.7195 188.399L65.9228 188.204L66.3132 187.804L67.8912 186.223L71.0391 183.068L77.3592 176.768L102.648 151.574L115.313 138.997L121.649 132.721L124.813 129.574L125.626 128.759L126.603 127.724L127.091 127.203C127.245 127.031 127.392 126.836 127.546 126.648L128.441 125.532C130.171 123.193 131.541 120.607 132.508 117.862C132.662 117.397 132.793 116.933 132.931 116.468L133.134 115.767L133.297 115.05C133.394 114.577 133.508 114.104 133.59 113.623L133.793 112.181C133.874 111.7 133.891 111.219 133.931 110.73C133.972 110.241 134.013 109.768 133.996 109.279L133.98 107.869Z" fill="white"/>
<path d="M32.2154 117.845L32.9231 117.919H33.6389L35.0623 117.976H36.2011H40.6585L58.4883 118.057L76.3099 118.18L81.5726 118.228L51.5093 165.202C51.3253 165.493 51.2536 165.842 51.3075 166.182C51.3614 166.523 51.5372 166.832 51.8021 167.052C52.0949 167.28 52.4641 167.388 52.8335 167.351C53.2028 167.315 53.5441 167.138 53.7868 166.856L99.6708 115.669C100.29 114.966 100.754 114.141 101.035 113.246C101.315 112.352 101.404 111.408 101.298 110.477C101.093 108.815 100.282 107.287 99.0202 106.189C97.7587 105.09 96.1361 104.498 94.465 104.527H94.1234L76.2936 104.69L58.472 104.812L40.6423 104.894H36.1848H35.1355H34.3221H33.9236L33.525 104.853L32.7116 104.763C31.7091 104.606 30.7252 104.346 29.7752 103.989L29.4092 103.867L29.0594 103.704L28.3599 103.394L27.6848 103.027L27.3513 102.84L27.0259 102.628C25.2731 101.5 23.7698 100.025 22.6092 98.2915C22.0321 97.4052 21.534 96.4696 21.1206 95.4957C20.7251 94.5123 20.4201 93.4946 20.2096 92.4555C20.1527 92.2028 20.1283 91.9338 20.0876 91.6404L20.0226 91.2491V90.8579C20.0226 90.5889 19.9656 90.3281 19.9575 90.0428V89.2277C19.9649 88.1903 20.0877 87.1569 20.3235 86.1467L20.4049 85.7718L20.5187 85.405C20.5919 85.1605 20.657 84.9078 20.7383 84.6633C20.9336 84.1905 21.08 83.6933 21.324 83.2369C21.7778 82.292 22.3227 81.3939 22.9508 80.5552L23.4551 79.9358C23.5364 79.838 23.6097 79.7239 23.7073 79.6261L23.9838 79.3408L24.5369 78.7458L25.3503 77.9307L28.5226 74.7926L34.859 68.5165L47.4504 56.1027L72.8855 31.0633L79.2463 24.8035L82.4348 21.6817L84.0616 20.1249L84.4602 19.7337L84.6635 19.5381L84.7123 19.4891L84.7774 19.4321C84.9645 19.2691 85.1434 19.1142 85.3224 18.943C85.5046 18.7782 85.6975 18.6257 85.8999 18.4866L86.1846 18.2747L86.3229 18.1687L86.4693 18.0791C86.6645 17.9649 86.8597 17.8508 87.0468 17.7286C87.1373 17.6644 87.2357 17.6124 87.3396 17.5737L87.6406 17.427L87.9334 17.2721L88.2425 17.158C88.4458 17.0928 88.6411 16.995 88.8444 16.9298C89.0478 16.8646 89.2593 16.8238 89.4626 16.7586C89.666 16.6934 89.6741 16.7179 89.7798 16.6934L90.0971 16.6364L90.4062 16.5793H90.7315C90.9444 16.5492 91.1592 16.5356 91.3741 16.5385H92.0167L92.6755 16.5956C95.4283 16.923 97.9516 18.2937 99.7277 20.4265C100.845 21.7319 101.592 23.3139 101.891 25.0073C101.993 25.8546 101.993 26.7111 101.891 27.5585C101.891 27.7704 101.81 27.9905 101.777 28.2106L101.721 28.5366L101.631 28.8708C101.566 29.0908 101.509 29.3109 101.452 29.5391C101.395 29.7674 101.281 29.9793 101.2 30.2075L101.086 30.5417L100.866 31.0552L100.435 32.0903L99.565 34.1444C98.9957 35.5137 98.4019 36.883 97.8081 38.2198C95.4547 43.6537 93.0145 49.0876 90.4875 54.5215C88.4865 58.7925 86.4205 63.0472 84.2731 67.2531C84.1609 67.4763 84.1074 67.7246 84.1177 67.9743C84.1281 68.224 84.202 68.467 84.3324 68.6801C84.4627 68.8932 84.6453 69.0694 84.8627 69.192C85.0801 69.3145 85.3251 69.3794 85.5745 69.3804H98.9143C99.6673 69.3817 100.402 69.1465 101.015 68.7079C101.627 68.2693 102.088 67.6494 102.331 66.9352C103.079 64.7182 103.841 62.5066 104.616 60.3004C106.606 54.6818 108.681 49.0984 110.839 43.5504C111.384 42.1648 111.912 40.771 112.466 39.3935L113.279 37.315L113.686 36.2799L113.897 35.7582L114.149 35.0491L114.654 33.6064C114.792 33.1174 114.914 32.6202 115.044 32.1148C115.109 31.8703 115.174 31.6176 115.223 31.3649L115.361 30.5987C115.435 30.0771 115.532 29.5717 115.589 29.0419C115.806 26.9259 115.737 24.7902 115.386 22.6924C114.654 18.5136 112.794 14.6153 110.009 11.4198C108.669 9.85568 107.133 8.47211 105.438 7.30364C103.751 6.1365 101.929 5.17858 100.012 4.45085C98.0823 3.75801 96.0743 3.3063 94.0339 3.10596L92.4071 3H90.8617C90.3329 3 89.8042 3.08151 89.2837 3.13041L88.4703 3.22007C88.21 3.22007 87.9497 3.30973 87.6569 3.35864L86.8435 3.5135C86.5832 3.57056 86.3229 3.61131 86.0301 3.69282L84.509 4.14112C84.0047 4.30413 83.5248 4.50791 83.0286 4.70353L82.3047 5.00511L81.6051 5.35559L81.0195 5.73053C80.784 5.84082 80.5558 5.96605 80.3362 6.10547L79.0267 6.92055L78.7013 7.13248L78.3922 7.3607L77.7903 7.8253C77.3852 8.12424 76.9969 8.44532 76.6271 8.7871L75.5209 9.80595L75.3826 9.92821L75.3257 9.99342L75.2769 10.0423L75.0735 10.2461L74.6831 10.6373L73.1051 12.2186L69.9572 15.373L63.6371 21.6736L38.3403 46.8678L25.7082 59.4446L19.3393 65.7615L16.1752 68.8995L15.3618 69.7146L14.402 70.6927L13.922 71.2144C13.7594 71.3937 13.613 71.5812 13.4584 71.7686L12.5637 72.8853C10.834 75.2245 9.46313 77.8097 8.49666 80.5552C8.34211 81.0198 8.21197 81.4844 8.07369 81.9572L7.87034 82.6582L7.70766 83.3673C7.61005 83.84 7.49617 84.3209 7.41483 84.7937L7.21148 86.2364C7.13014 86.7173 7.11388 87.2063 7.07321 87.6872C7.03254 88.1681 7 88.6572 7 89.1381V90.5889C7 91.0698 7.06507 91.5507 7.09761 92.0316L7.15455 92.7489L7.26029 93.4662C7.33349 93.9389 7.39043 94.4198 7.48804 94.8926C7.85483 96.7767 8.39955 98.6217 9.11484 100.403C9.84517 102.177 10.744 103.878 11.7991 105.481C13.938 108.735 16.727 111.511 19.99 113.631L20.6082 114.023C20.8116 114.153 21.0312 114.267 21.2427 114.389C21.6656 114.626 22.0561 114.862 22.5197 115.09L23.8537 115.694C24.0733 115.791 24.2929 115.905 24.5207 115.987L25.2039 116.24C27.0165 116.923 28.8945 117.417 30.8083 117.715L32.2154 117.845Z" fill="white"/>
<path d="M188.86 103.88C186.147 103.88 183.14 103.807 179.84 103.66C176.613 103.513 173.423 103.293 170.27 103C167.19 102.78 164.367 102.523 161.8 102.23V92C164.44 92.22 167.19 92.44 170.05 92.66C172.983 92.88 175.77 93.0633 178.41 93.21C181.05 93.2833 183.323 93.32 185.23 93.32C189.117 93.32 192.16 93.1367 194.36 92.77C196.56 92.4033 198.32 91.8167 199.64 91.01C200.52 90.4233 201.143 89.69 201.51 88.81C201.95 87.93 202.207 86.9033 202.28 85.73C202.427 84.4833 202.5 83.1267 202.5 81.66C202.5 79.68 202.427 78.03 202.28 76.71C202.133 75.39 201.803 74.3633 201.29 73.63C200.777 72.8967 199.97 72.3833 198.87 72.09C197.77 71.7233 196.34 71.43 194.58 71.21L176.54 69.12C173.02 68.68 170.123 67.9467 167.85 66.92C165.65 65.82 163.927 64.39 162.68 62.63C161.507 60.87 160.7 58.78 160.26 56.36C159.82 53.94 159.6 51.2633 159.6 48.33C159.6 43.4167 160.26 39.53 161.58 36.67C162.9 33.81 164.77 31.6467 167.19 30.18C169.683 28.64 172.617 27.65 175.99 27.21C179.363 26.6967 183.103 26.44 187.21 26.44C190.07 26.44 193.003 26.55 196.01 26.77C199.017 26.9167 201.84 27.1367 204.48 27.43C207.193 27.65 209.43 27.98 211.19 28.42V38.43C209.357 38.1367 207.193 37.88 204.7 37.66C202.28 37.44 199.75 37.2933 197.11 37.22C194.47 37.0733 192.013 37 189.74 37C185.927 37 182.847 37.1833 180.5 37.55C178.227 37.8433 176.467 38.3567 175.22 39.09C173.753 39.8967 172.873 41.0333 172.58 42.5C172.287 43.8933 172.14 45.6533 172.14 47.78C172.14 50.2733 172.287 52.2167 172.58 53.61C172.947 54.93 173.717 55.8467 174.89 56.36C176.137 56.8733 178.007 57.2767 180.5 57.57L198.54 59.66C200.813 59.88 202.867 60.2467 204.7 60.76C206.533 61.2 208.147 61.97 209.54 63.07C211.007 64.17 212.143 65.7467 212.95 67.8C213.463 68.8267 213.83 70 214.05 71.32C214.343 72.64 214.563 74.1067 214.71 75.72C214.93 77.26 215.04 79.02 215.04 81C215.04 85.18 214.6 88.6633 213.72 91.45C212.913 94.2367 211.74 96.4733 210.2 98.16C208.733 99.7733 206.9 101.02 204.7 101.9C202.5 102.707 200.08 103.22 197.44 103.44C194.8 103.733 191.94 103.88 188.86 103.88ZM239.263 103V27.32H289.643V37.88H251.693V59.55H284.473V70.11H251.693V92.44H289.643V103H239.263ZM341.962 103.88C336.535 103.88 331.988 103.55 328.322 102.89C324.655 102.157 321.648 100.947 319.302 99.26C317.028 97.5733 315.268 95.3 314.022 92.44C312.848 89.5067 312.042 85.8033 311.602 81.33C311.162 76.8567 310.942 71.4667 310.942 65.16C310.942 58.8533 311.162 53.4633 311.602 48.99C312.042 44.5167 312.848 40.85 314.022 37.99C315.268 35.0567 317.028 32.7467 319.302 31.06C321.648 29.3733 324.655 28.2 328.322 27.54C331.988 26.8067 336.535 26.44 341.962 26.44C344.088 26.44 346.252 26.5133 348.452 26.66C350.725 26.8067 352.888 27.0267 354.942 27.32C356.995 27.54 358.755 27.8333 360.222 28.2V38.1C358.388 37.88 356.555 37.6967 354.722 37.55C352.962 37.33 351.238 37.1833 349.552 37.11C347.865 37.0367 346.398 37 345.152 37C341.118 37 337.782 37.1467 335.142 37.44C332.502 37.7333 330.375 38.3933 328.762 39.42C327.222 40.4467 326.048 41.9867 325.242 44.04C324.508 46.02 323.995 48.7333 323.702 52.18C323.482 55.6267 323.372 59.9533 323.372 65.16C323.372 70.2933 323.482 74.62 323.702 78.14C323.995 81.5867 324.508 84.3367 325.242 86.39C326.048 88.37 327.222 89.8733 328.762 90.9C330.375 91.9267 332.502 92.5867 335.142 92.88C337.782 93.1733 341.118 93.32 345.152 93.32C347.572 93.32 350.212 93.21 353.072 92.99C356.005 92.77 358.535 92.5133 360.662 92.22V102.34C359.048 102.633 357.142 102.89 354.942 103.11C352.815 103.33 350.615 103.513 348.342 103.66C346.142 103.807 344.015 103.88 341.962 103.88ZM399.648 103V38.21H376.658V27.32H434.958V38.21H412.078V103H399.648ZM441.729 103L468.789 27.32H485.069L512.129 103H499.259L492.659 84.3H460.759L454.269 103H441.729ZM464.279 73.74H489.029L476.929 39.31H476.379L464.279 73.74Z" fill="white"/>
<path d="M161.162 177V124.024H166.09V172.534H191.808V177H161.162ZM212.375 177.616C209.347 177.616 206.831 177.308 204.829 176.692C202.827 176.076 201.339 174.947 200.363 173.304C199.439 171.661 198.977 169.326 198.977 166.297C198.977 163.371 199.311 161.087 199.978 159.444C200.646 157.75 201.826 156.544 203.52 155.825C205.266 155.106 207.678 154.747 210.758 154.747C211.323 154.747 212.196 154.773 213.376 154.824C214.557 154.824 215.917 154.85 217.457 154.901C218.997 154.952 220.537 155.004 222.077 155.055C223.669 155.055 225.157 155.081 226.543 155.132V152.206C226.543 149.639 226.389 147.637 226.081 146.2C225.773 144.711 225.157 143.608 224.233 142.889C223.361 142.119 222.077 141.657 220.383 141.503C218.689 141.298 216.508 141.195 213.838 141.195C212.658 141.195 211.297 141.246 209.757 141.349C208.217 141.4 206.703 141.503 205.214 141.657C203.777 141.76 202.571 141.888 201.595 142.042V138.115C203.392 137.807 205.497 137.576 207.909 137.422C210.322 137.217 212.863 137.114 215.532 137.114C218.202 137.114 220.46 137.268 222.308 137.576C224.156 137.884 225.671 138.372 226.851 139.039C228.032 139.706 228.93 140.605 229.546 141.734C230.162 142.863 230.599 144.275 230.855 145.969C231.112 147.663 231.24 149.665 231.24 151.975V177H227.082L226.851 171.071H226.466C225.696 173.022 224.516 174.485 222.924 175.46C221.384 176.384 219.665 176.974 217.765 177.231C215.917 177.488 214.121 177.616 212.375 177.616ZM213.684 173.612C215.276 173.612 216.816 173.535 218.304 173.381C219.793 173.227 221.102 172.868 222.231 172.303C223.361 171.687 224.233 170.789 224.849 169.608C225.465 168.325 225.902 166.99 226.158 165.604C226.415 164.218 226.543 162.652 226.543 160.907V158.366H211.99C209.732 158.366 207.986 158.546 206.754 158.905C205.522 159.264 204.675 159.983 204.213 161.061C203.751 162.139 203.52 163.782 203.52 165.989C203.52 168.094 203.777 169.711 204.29 170.84C204.855 171.918 205.856 172.662 207.293 173.073C208.782 173.432 210.912 173.612 213.684 173.612ZM263.68 177.616C261.78 177.616 259.932 177.462 258.136 177.154C256.39 176.846 254.799 176.23 253.362 175.306C251.976 174.382 250.923 172.97 250.205 171.071H249.82L249.589 177H245.431V119.789H250.128V143.043H250.513C251.18 141.554 252.104 140.374 253.285 139.501C254.517 138.628 256.005 138.012 257.751 137.653C259.496 137.294 261.524 137.114 263.834 137.114C266.862 137.114 269.326 137.422 271.226 138.038C273.176 138.654 274.691 139.706 275.769 141.195C276.847 142.684 277.591 144.737 278.002 147.355C278.412 149.973 278.618 153.31 278.618 157.365C278.618 161.42 278.387 164.757 277.925 167.375C277.514 169.993 276.77 172.046 275.692 173.535C274.614 175.024 273.099 176.076 271.149 176.692C269.249 177.308 266.76 177.616 263.68 177.616ZM261.986 173.381C264.604 173.381 266.708 173.201 268.3 172.842C269.891 172.483 271.072 171.764 271.842 170.686C272.663 169.608 273.202 168.017 273.459 165.912C273.767 163.756 273.921 160.907 273.921 157.365C273.921 153.823 273.767 151 273.459 148.895C273.202 146.739 272.663 145.122 271.842 144.044C271.072 142.966 269.891 142.247 268.3 141.888C266.708 141.529 264.604 141.349 261.986 141.349C259.06 141.349 256.75 141.734 255.056 142.504C253.362 143.274 252.155 144.506 251.437 146.2C250.872 147.74 250.513 149.408 250.359 151.205C250.205 152.95 250.128 155.004 250.128 157.365C250.128 159.624 250.179 161.651 250.282 163.448C250.436 165.245 250.821 166.913 251.437 168.453C252.104 170.198 253.31 171.456 255.056 172.226C256.801 172.996 259.111 173.381 261.986 173.381ZM303.625 177.616C302.239 177.616 300.699 177.565 299.005 177.462C297.363 177.411 295.72 177.308 294.077 177.154C292.486 177 291.074 176.846 289.842 176.692V172.688C291.28 172.842 292.589 172.97 293.769 173.073C294.95 173.176 296.079 173.278 297.157 173.381C298.235 173.432 299.313 173.484 300.391 173.535C301.469 173.535 302.65 173.535 303.933 173.535C306.705 173.535 308.733 173.304 310.016 172.842C311.351 172.38 312.224 171.636 312.634 170.609C313.096 169.531 313.327 168.145 313.327 166.451C313.327 164.449 313.148 163.012 312.788 162.139C312.48 161.215 311.941 160.625 311.171 160.368C310.401 160.111 309.298 159.906 307.86 159.752L297.157 158.597C294.847 158.34 293.051 157.853 291.767 157.134C290.535 156.415 289.688 155.363 289.226 153.977C288.816 152.54 288.61 150.692 288.61 148.433C288.61 145.866 288.944 143.839 289.611 142.35C290.279 140.81 291.254 139.681 292.537 138.962C293.872 138.192 295.463 137.704 297.311 137.499C299.211 137.242 301.341 137.114 303.702 137.114C304.986 137.114 306.346 137.165 307.783 137.268C309.221 137.319 310.632 137.422 312.018 137.576C313.404 137.73 314.636 137.91 315.714 138.115V142.119C314.277 141.862 312.891 141.683 311.556 141.58C310.222 141.426 308.861 141.323 307.475 141.272C306.089 141.221 304.626 141.195 303.086 141.195C301.033 141.195 299.262 141.323 297.773 141.58C296.285 141.785 295.13 142.376 294.308 143.351C293.538 144.275 293.153 145.866 293.153 148.125C293.153 149.819 293.282 151.102 293.538 151.975C293.846 152.848 294.385 153.438 295.155 153.746C295.977 154.054 297.106 154.285 298.543 154.439L309.323 155.517C311.531 155.722 313.225 156.133 314.405 156.749C315.637 157.314 316.51 158.34 317.023 159.829C317.588 161.266 317.87 163.448 317.87 166.374C317.87 168.735 317.588 170.66 317.023 172.149C316.459 173.586 315.586 174.716 314.405 175.537C313.225 176.307 311.736 176.846 309.939 177.154C308.143 177.462 306.038 177.616 303.625 177.616Z" fill="white"/>
</svg>
