<svg xmlns="http://www.w3.org/2000/svg" viewBox="0 0 1670 252">
  <g fill="#13bf95">
    <path d="M412 0c55.228 0 100 44.772 100 100s-44.772 100-100 100-100-44.772-100-100a100 100 0 0 1 22.004-62.578C339.799 44.083 341.894 48.028 348 58h3.5c-3.092-7.636-7.639-15.065-13.764-24.96A100 100 0 0 1 412 0zm0 44c-30.928 0-56 25.072-56 56s25.072 56 56 56 56-25.072 56-56-25.072-56-56-56z"/>
    <path d="M256 0c-55.228 0-100 44.772-100 100a99.998 99.998 0 0 0 22 62.541c.042-.052.07-.093.111-.145l.037.047c.96-1.207 1.884-2.443 2.788-3.693 4.197-5.496 7.1-10.104 9.927-17.078.254-.557.512-1.11.756-1.672H195c-.724 2.988-1.74 5.917-2.994 8.885-2.795 5.994-6.27 12.379-9.8 18.11-.058.091-.102.172-.16.265A100 100 0 0 0 256 200a100 100 0 0 0 73.953-32.74c-.057-.093-.101-.174-.158-.266-3.531-5.73-7.006-12.115-9.8-18.11-1.255-2.967-2.271-5.896-2.995-8.884h3.38c.245.562.503 1.115.757 1.672 2.827 6.974 5.73 11.582 9.927 17.078.904 1.25 1.827 2.486 2.788 3.693l.037-.047.111.145A99.998 99.998 0 0 0 356 100C356 44.772 311.228 0 256 0zm0 44c30.928 0 56 25.072 56 56s-25.072 56-56 56-56-25.072-56-56c0-.966.024-1.926.072-2.88C201.572 67.53 226.04 44 256 44z"/>
    <path d="M100 0C44.772 0 0 44.772 0 100s44.772 100 100 100 100-44.772 100-100a100 100 0 0 0-22.004-62.578C172.201 44.083 170.106 48.028 164 58h-3.5c3.092-7.636 7.639-15.065 13.764-24.96A100 100 0 0 0 100 0zm0 44c30.928 0 56 25.072 56 56s-25.072 56-56 56-56-25.072-56-56 25.072-56 56-56z"/>
  </g>
  <g fill="#FFFFFF">
    <path d="M659.551 194.476q-15.417 0-28.482-3.92-13.066-4.183-23.517-12.026-10.45-8.103-18.552-19.867l20.642-23.527q12.804 18.038 24.825 25.096 12.019 6.797 27.96 6.797 9.407 0 16.984-2.876 7.578-2.875 12.02-8.103 4.442-5.228 4.442-11.764 0-4.706-1.568-8.627-1.568-4.182-4.965-7.32-3.397-3.136-8.362-5.75-4.965-2.876-11.497-4.967-6.532-2.091-14.894-3.398-14.11-3.137-24.824-7.842-10.452-4.706-17.769-11.764-7.055-7.058-10.45-16.208-3.398-9.15-3.398-20.39t4.965-20.651q4.965-9.672 13.587-16.73 8.623-7.058 20.381-10.718Q648.838 6 662.165 6q14.894 0 26.653 3.66 12.02 3.66 21.166 10.979 9.145 7.058 15.417 17.514l-21.166 20.65q-5.487-8.365-12.019-13.855-6.271-5.75-14.11-8.626-7.84-2.876-16.462-2.876-9.669 0-16.984 3.137-7.056 2.876-11.236 8.104-4.18 5.228-4.18 12.287 0 5.228 2.09 9.672 2.351 4.182 6.532 7.58 4.443 3.4 11.498 6.013 7.055 2.614 16.462 4.444 14.371 3.137 25.608 8.104 11.497 4.705 19.336 11.24 8.101 6.535 12.02 14.9 4.18 8.366 4.18 18.039 0 17.775-8.361 30.846-8.1 12.81-23.256 19.867-15.155 6.797-35.8 6.797zM815.753 194.476q-21.426 0-37.89-8.888-16.461-9.149-25.869-24.834-9.145-15.946-9.145-36.336 0-16.208 5.226-29.54t14.371-23.004q9.407-9.933 22.21-15.162 13.066-5.49 28.222-5.49 13.587 0 25.085 5.229 11.758 4.967 20.382 14.116 8.623 8.888 13.065 21.175 4.703 12.286 4.442 26.663l-.261 11.503H763.759l-6.01-21.698h92.503l-3.92 4.444v-6.012q-.783-8.365-5.487-14.64-4.703-6.535-12.019-10.195-7.055-3.921-15.678-3.921-13.587 0-22.733 5.228-9.146 4.967-14.11 14.901-4.704 9.934-4.704 24.312 0 13.855 5.748 24.05 6.01 10.195 16.723 15.946 10.713 5.49 24.824 5.49 9.93 0 18.29-3.138 8.362-3.398 18.29-11.764l14.634 20.651q-6.533 6.274-15.678 10.98-9.146 4.705-19.075 7.319-9.93 2.614-19.597 2.614zM899.255 191.866V54.367h29.528v28.494l-4.965 2.614q2.352-6.797 6.794-12.809 4.704-6.012 11.235-10.718 6.533-4.705 14.11-7.32 7.578-2.613 15.418-2.613 11.497 0 20.12 3.92 8.885 3.66 14.634 11.24 6.01 7.581 8.884 19.346l-4.704-.785 1.83-4.444q3.135-6.012 8.1-11.24 5.226-5.49 11.758-9.41 6.533-4.183 13.85-6.274 7.316-2.353 14.11-2.353 15.678 0 25.87 6.274 10.19 6.274 15.416 19.083 5.227 12.809 5.227 31.63v82.867h-29.791v-80.774q0-11.24-2.874-18.3-2.875-7.058-8.624-10.455-5.748-3.66-14.894-3.66-6.794 0-13.065 2.353-6.01 2.353-10.451 6.535-4.442 4.183-7.055 9.934-2.352 5.49-2.352 12.287v82.081h-29.789v-81.297q0-10.195-3.135-17.253-2.875-7.32-8.624-10.98-5.748-3.659-14.11-3.659-6.794 0-12.803 2.353-6.01 2.352-10.451 6.535-4.442 3.92-7.055 9.672-2.352 5.49-2.352 12.025v82.604zM1199.11 251.996q-14.895 0-29.791-4.705-14.894-4.706-24.3-12.025l10.974-22.482q5.226 3.921 12.019 6.797 7.055 3.137 14.633 4.705 7.84 1.83 15.678 1.83 14.11 0 23.517-4.706 9.407-4.444 14.11-13.593 4.965-8.887 4.965-22.22V159.98l3.658 1.568q-1.307 8.365-8.623 15.685-7.056 7.32-17.768 12.025-10.714 4.444-21.95 4.444-19.336 0-34.754-9.15-15.156-9.149-24.04-25.095-8.624-15.946-8.624-36.598t8.623-36.597q8.624-16.208 23.779-25.357 15.155-9.41 34.232-9.41 7.84 0 15.155 2.09 7.317 1.83 13.588 5.229 6.27 3.398 10.974 7.58 4.964 4.183 8.1 8.889 3.136 4.705 3.92 8.887l-6.01 2.092.261-31.893h29.005v128.62q0 16.468-4.964 29.277-4.704 12.809-14.11 21.698-9.146 8.888-22.473 13.332-13.065 4.705-29.79 4.705Zm1.045-84.435q12.28 0 21.688-5.75 9.668-5.752 14.894-15.685 5.226-9.934 5.226-23.266 0-13.071-5.487-23.266-5.226-10.195-14.633-15.946-9.407-5.751-21.689-5.751-12.019 0-21.426 6.012-9.407 5.751-14.633 15.946-5.226 10.195-5.226 23.004 0 13.071 5.226 23.266 5.226 9.934 14.633 15.685 9.407 5.75 21.426 5.75zM1297.81 191.866V54.367h29.267l.523 43.393-3.658-9.934q2.874-10.195 9.93-18.299 7.054-8.365 16.2-13.07 9.146-4.967 18.814-4.967 4.442 0 8.623.784 4.18.784 6.533 1.83l-7.84 32.154q-3.135-1.307-7.055-2.092-3.92-1.045-7.839-1.045-6.794 0-13.065 2.614-6.01 2.614-10.713 7.32-4.443 4.443-7.317 10.717-2.613 6.013-2.613 13.332v74.762zM1454.213 194.476q-21.426 0-37.89-8.888-16.462-9.149-25.868-24.834-9.146-15.946-9.146-36.336 0-16.208 5.226-29.54 5.227-13.332 14.372-23.004 9.407-9.933 22.21-15.162 13.065-5.49 28.22-5.49 13.588 0 25.085 5.229 11.758 4.967 20.382 14.116 8.623 8.888 13.065 21.175 4.704 12.286 4.443 26.663l-.262 11.503h-111.832l-6.01-21.698h92.504l-3.92 4.444v-6.012q-.784-8.365-5.487-14.64-4.704-6.535-12.02-10.195-7.055-3.921-15.678-3.921-13.587 0-22.732 5.228-9.146 4.967-14.11 14.901-4.704 9.934-4.704 24.312 0 13.855 5.749 24.05 6.01 10.195 16.722 15.946 10.713 5.49 24.824 5.49 9.93 0 18.29-3.138 8.362-3.398 18.291-11.764l14.633 20.651q-6.532 6.274-15.678 10.98-9.146 4.705-19.074 7.319-9.93 2.614-19.598 2.614zM1532.814 249.376V54.367h29.267l.26 31.37-4.703-2.353q1.568-8.103 8.885-15.162 7.316-7.32 17.768-11.764 10.713-4.444 22.21-4.444 18.29 0 32.403 9.15 14.371 9.149 22.734 25.095 8.362 15.946 8.362 36.597 0 20.652-8.362 36.858-8.1 15.946-22.472 25.357-14.11 9.15-32.14 9.15-12.02 0-23.257-4.706-10.974-4.705-18.813-12.287-7.84-7.58-9.669-15.946l7.317-3.66v91.754zm68.724-81.82q11.498 0 20.382-5.75 9.145-5.752 14.37-15.685 5.227-10.195 5.227-23.266 0-12.81-5.226-22.743-4.965-9.934-14.11-15.685-8.885-5.751-20.643-5.751t-20.904 5.75q-8.884 5.49-14.11 15.686-5.226 9.933-5.226 22.743 0 13.07 5.226 23.266 5.226 9.933 14.11 15.684 9.146 5.751 20.904 5.751z"/>
  </g>
</svg>