<svg width="182" height="62" viewBox="0 0 182 62" fill="none" xmlns="http://www.w3.org/2000/svg">
  <g clip-path="url(#clip0_1749_676)">
    <g clip-path="url(#clip1_1749_676)">
      <mask id="mask0_1749_676" style="mask-type:luminance" maskUnits="userSpaceOnUse" x="0" y="0"
        width="62" height="62">
        <path d="M61.8644 0H0V61.8644H61.8644V0Z" fill="white" />
      </mask>
      <g mask="url(#mask0_1749_676)">
        <path
          d="M30.9341 61.8682C48.0186 61.8682 61.8682 48.0186 61.8682 30.9341C61.8682 13.8497 48.0186 0 30.9341 0C13.8497 0 0 13.8497 0 30.9341C0 48.0186 13.8497 61.8682 30.9341 61.8682Z"
          fill="#B4BCF6" />
        <path
          d="M8.4248 52.2775C8.4248 52.2775 11.0637 46.8215 11.5984 35.5685C11.8852 29.5584 11.8736 26.9815 11.4086 21.3434C11.1644 18.3364 11.1567 13.76 12.9314 12.9463C17.2443 10.9623 21.2162 20.58 28.8189 19.4369C34.8794 18.5301 33.4069 8.16455 37.4873 7.56005C43.2687 6.70367 55.0526 31.0774 56.7034 48.1584C56.7034 48.1584 49.6005 59.8338 34.9182 61.6085C22.1811 63.1508 13.4429 57.4623 8.4248 52.2775Z"
          fill="white" />
        <path
          d="M20.2706 43.8844C20.8739 43.8848 21.4714 43.7666 22.029 43.5361C22.5866 43.3055 23.0932 42.9672 23.52 42.541C23.9468 42.1143 24.2854 41.6083 24.5164 41.0506C24.7474 40.4934 24.8663 39.8959 24.8663 39.2926C24.8653 38.0744 24.3806 36.9064 23.5189 36.0454C22.6572 35.1844 21.4888 34.7007 20.2706 34.7007C19.0531 34.7017 17.8857 35.1858 17.0248 36.0467C16.1638 36.9076 15.6797 38.0751 15.6787 39.2926C15.6787 40.5105 16.1625 41.6784 17.0236 42.5394C17.8848 43.4008 19.0528 43.8844 20.2706 43.8844Z"
          fill="#EF4357" />
        <path
          d="M44.4268 39.9513C45.6443 39.9501 46.8119 39.4661 47.6725 38.6052C48.5335 37.7443 49.0175 36.5769 49.0187 35.3594C49.0187 34.7564 48.9001 34.1593 48.6692 33.6022C48.4386 33.0451 48.1003 32.5388 47.6737 32.1125C47.2474 31.6861 46.7413 31.3479 46.1841 31.1171C45.6269 30.8863 45.0298 30.7676 44.4268 30.7676C43.8235 30.767 43.2259 30.8854 42.6683 31.1159C42.1107 31.3465 41.6043 31.6846 41.1772 32.1111C40.7506 32.5375 40.4119 33.0439 40.181 33.6013C39.95 34.1587 39.8311 34.7561 39.8311 35.3594C39.8322 36.5776 40.3166 37.7456 41.1784 38.6066C42.0402 39.4677 43.2085 39.9513 44.4268 39.9513Z"
          fill="#EF4357" />
        <path
          d="M8.10234 54.1649C7.93657 54.1645 7.77274 54.1289 7.62184 54.0603C7.48188 53.9968 7.3559 53.9061 7.25116 53.7937C7.14642 53.6813 7.06501 53.5492 7.01169 53.405C6.95837 53.2609 6.93415 53.1074 6.94042 52.954C6.9467 52.8005 6.9834 52.6494 7.04838 52.5103C7.08326 52.4328 9.76084 46.3839 10.284 35.5456C10.5591 29.7331 10.5669 27.1833 10.098 21.4715C9.64463 16.0116 10.3847 12.7954 12.2912 11.9197C14.9495 10.6991 17.3597 12.6676 19.6925 14.5741C22.2655 16.6782 24.9237 18.8366 28.4887 18.3212C30.9183 17.9569 31.8096 15.6823 32.8907 12.2491C33.7355 9.58306 34.6035 6.82406 37.1532 6.43656C38.2731 6.26993 39.5053 6.70389 40.815 7.72689C47.077 12.6249 56.3499 32.5811 57.8456 48.0269C57.8608 48.1792 57.8456 48.3327 57.8011 48.4791C57.7565 48.6252 57.6837 48.7616 57.5864 48.8794C57.4891 48.9976 57.3698 49.0953 57.2346 49.167C57.0997 49.239 56.9517 49.2832 56.7994 49.2979C56.4929 49.327 56.1871 49.2332 55.9492 49.0371C55.7117 48.8407 55.5617 48.5586 55.5323 48.2517C54.1256 33.7243 45.2441 14.1516 39.3851 9.55589C38.6102 8.95527 37.9438 8.66468 37.4904 8.73056C36.3705 8.89718 35.7543 10.8618 35.0956 12.9388C34.1036 16.0853 32.8675 20.0029 28.8258 20.6074C24.2417 21.2933 20.8937 18.5614 18.2083 16.3449C15.9647 14.5081 14.5233 13.4154 13.2484 14.0199C12.7098 14.264 12.0045 16.4534 12.4036 21.2662C12.8841 27.1058 12.8725 29.7137 12.5935 35.6424C12.0549 46.9884 9.26872 53.2039 9.14859 53.4674C9.05947 53.6716 8.91342 53.846 8.72792 53.9696C8.54243 54.0936 8.32527 54.1611 8.10234 54.1649Z"
          fill="#231F20" />
        <path
          d="M14.3803 42.001C14.2665 42.0006 14.1554 41.9669 14.0604 41.9045C13.9654 41.8417 13.8908 41.7526 13.8456 41.6484C13.8142 41.5775 13.7973 41.5011 13.7957 41.4236C13.7942 41.3461 13.8081 41.269 13.8365 41.1969C13.865 41.1248 13.9076 41.059 13.9617 41.0036C14.0158 40.9478 14.0804 40.9036 14.1517 40.8734L18.7203 38.9359L13.9153 37.9632C13.8405 37.948 13.7694 37.9181 13.7061 37.8754C13.6429 37.8326 13.5887 37.7779 13.5465 37.7142C13.5045 37.6505 13.4753 37.5791 13.4608 37.5042C13.4463 37.4293 13.4467 37.3521 13.4619 37.2774C13.4767 37.2023 13.5063 37.1309 13.5489 37.0674C13.5914 37.0038 13.6462 36.9494 13.7101 36.9072C13.7739 36.865 13.8455 36.836 13.9206 36.8217C13.9958 36.8074 14.073 36.8082 14.1478 36.824L20.7663 38.1686C20.8881 38.1935 20.9988 38.2564 21.0824 38.3484C21.1661 38.4403 21.2182 38.5565 21.2313 38.6801C21.2433 38.8029 21.2159 38.9266 21.1532 39.0331C21.0906 39.1397 20.9958 39.2238 20.8826 39.273L14.6012 41.9855C14.5292 42.0045 14.4543 42.0099 14.3803 42.001Z"
          fill="#231F20" />
        <path
          d="M50.3168 36.3515H50.2858L43.462 35.9873C43.3387 35.9797 43.2209 35.9333 43.1256 35.8546C43.0299 35.776 42.9621 35.6691 42.9311 35.5494C42.9005 35.429 42.909 35.3021 42.9559 35.187C43.0024 35.0719 43.0849 34.9748 43.1907 34.91L48.9412 31.3682C49.0063 31.3278 49.0788 31.3007 49.1543 31.2883C49.2299 31.276 49.3074 31.2788 49.3818 31.2964C49.4562 31.314 49.5267 31.3463 49.5887 31.3912C49.6507 31.4361 49.7034 31.4928 49.7433 31.5581C49.8239 31.6892 49.8491 31.8468 49.8135 31.9964C49.7778 32.1461 49.6844 32.2755 49.5535 32.3564L45.384 34.9255L50.3478 35.189C50.5017 35.198 50.6458 35.2673 50.7489 35.382C50.852 35.4966 50.9055 35.6473 50.8981 35.8013C50.8892 35.9496 50.8245 36.0891 50.7164 36.1913C50.6082 36.2935 50.4656 36.3507 50.3168 36.3515Z"
          fill="#231F20" />
        <path
          d="M32.1281 40.3347C31.1776 40.3746 30.2409 40.0979 29.4646 39.5481C28.6883 38.9982 28.1164 38.2065 27.8384 37.2967C27.8063 37.2 27.7935 37.0979 27.8009 36.9963C27.8082 36.8947 27.8355 36.7955 27.8812 36.7045C27.9269 36.6134 27.9901 36.5323 28.0672 36.4657C28.1443 36.399 28.2338 36.3483 28.3306 36.3163C28.4272 36.2841 28.5293 36.2714 28.6309 36.2788C28.7326 36.2861 28.8317 36.3134 28.9228 36.3591C29.0138 36.4048 29.095 36.468 29.1616 36.5451C29.2282 36.6222 29.2789 36.7117 29.3109 36.8084C29.8186 38.3584 31.1554 39.0327 32.9806 38.7033C34.8057 38.3739 35.7822 37.2579 35.7473 35.6266C35.7473 35.421 35.829 35.2239 35.9743 35.0786C36.1196 34.9332 36.3168 34.8516 36.5223 34.8516C36.7278 34.8516 36.925 34.9332 37.0703 35.0786C37.2157 35.2239 37.2973 35.421 37.2973 35.6266C37.3477 38.0213 35.7977 39.7999 33.2557 40.2766C32.8823 40.3293 32.5049 40.3486 32.1281 40.3347Z"
          fill="#231F20" />
        <path
          d="M19.173 33.4297C19.1163 33.4357 19.0592 33.4357 19.0025 33.4297C18.8021 33.3844 18.628 33.2614 18.5183 33.0878C18.4085 32.9141 18.3723 32.704 18.4174 32.5036C18.8049 30.8412 20.9245 28.2682 23.5479 27.8536C26.1712 27.439 28.8489 29.4036 29.2906 30.9071C29.3482 31.1044 29.325 31.3165 29.2261 31.4967C29.1273 31.6769 28.9609 31.8106 28.7636 31.8681C28.5668 31.9258 28.3551 31.9031 28.175 31.8051C27.9949 31.7071 27.861 31.5416 27.8026 31.345C27.5856 30.6048 25.6869 29.082 23.792 29.3842C21.8971 29.6865 20.196 31.6588 19.917 32.8485C19.8743 33.0138 19.7783 33.1603 19.6437 33.2655C19.5092 33.3706 19.3437 33.4283 19.173 33.4297Z"
          fill="#231F20" />
        <path
          d="M34.2821 30.8527C34.21 30.8518 34.1384 30.8414 34.069 30.8216C33.9711 30.7939 33.8795 30.7472 33.7996 30.6841C33.7197 30.621 33.653 30.5428 33.6033 30.4539C33.5537 30.365 33.522 30.2672 33.5101 30.166C33.4983 30.0649 33.5065 29.9625 33.5343 29.8645C33.9218 28.4579 35.3284 25.9585 38.0331 25.5284C40.4937 25.1409 43.3263 26.7878 44.1207 28.4734C44.1633 28.5664 44.1873 28.667 44.1908 28.7694C44.1947 28.8717 44.178 28.9737 44.142 29.0695C44.106 29.1654 44.0513 29.2531 43.9812 29.3277C43.9111 29.4023 43.8266 29.4623 43.7332 29.5042C43.6402 29.5475 43.5391 29.5718 43.4364 29.5758C43.3337 29.5797 43.231 29.5632 43.1349 29.5271C43.0384 29.491 42.9504 29.4362 42.8757 29.3657C42.8005 29.2952 42.7404 29.2106 42.6986 29.1167C42.2181 28.1014 40.0946 26.7529 38.2579 27.0435C36.3204 27.3535 35.2858 29.291 35.0068 30.2714C34.965 30.4336 34.8718 30.5778 34.7412 30.6826C34.6106 30.7874 34.4495 30.847 34.2821 30.8527Z"
          fill="#231F20" />
        <path
          d="M38.471 33.6233C36.846 33.6212 35.2879 32.9762 34.1371 31.829C32.9863 30.6818 32.3363 29.1257 32.3291 27.5008C32.3312 25.8724 32.9789 24.3114 34.1303 23.1601C35.2817 22.0087 36.8427 21.3609 38.471 21.3589C40.0992 21.3609 41.6604 22.0087 42.8117 23.1601C43.9629 24.3114 44.6108 25.8724 44.6128 27.5008C44.6058 29.1257 43.9556 30.6818 42.8047 31.829C41.6538 32.9762 40.0961 33.6212 38.471 33.6233ZM38.471 23.277C37.9175 23.278 37.3696 23.3881 36.8587 23.601C36.3478 23.8139 35.8839 24.1253 35.4934 24.5176C35.1029 24.9098 34.7936 25.3752 34.5832 25.8871C34.3726 26.399 34.2651 26.9473 34.2666 27.5008C34.2687 28.6152 34.7123 29.6834 35.5003 30.4715C36.2883 31.2595 37.3565 31.7031 38.471 31.7051C39.5853 31.7031 40.6537 31.2595 41.4415 30.4715C42.2296 29.6834 42.6733 28.6152 42.6753 27.5008C42.6768 26.9473 42.5691 26.399 42.3587 25.8871C42.1483 25.3752 41.839 24.9098 41.4484 24.5176C41.0578 24.1253 40.594 23.8139 40.0833 23.601C39.5722 23.3881 39.0242 23.278 38.471 23.277Z"
          fill="#B4BCF6" />
        <path
          d="M23.6565 36.2159C22.0282 36.2138 20.4672 35.5661 19.3158 34.4147C18.1644 33.2633 17.5167 31.7023 17.5146 30.074C17.5167 28.4457 18.1644 26.8847 19.3158 25.7333C20.4672 24.5819 22.0282 23.9342 23.6565 23.9321C25.2855 23.9332 26.8475 24.5805 27.9997 25.732C29.152 26.8834 29.8002 28.445 29.8023 30.074C29.8002 31.703 29.152 33.2646 27.9997 34.4161C26.8475 35.5676 25.2855 36.2148 23.6565 36.2159ZM23.6565 25.8696C22.5421 25.8717 21.4739 26.3153 20.6859 27.1034C19.8978 27.8914 19.4542 28.9596 19.4521 30.074C19.4532 31.1888 19.8965 32.2576 20.6847 33.0458C21.473 33.8341 22.5418 34.2773 23.6565 34.2784C24.772 34.2784 25.8418 33.8355 26.6309 33.0472C27.4199 32.2588 27.8638 31.1894 27.8648 30.074C27.8627 28.9589 27.4186 27.8901 26.6297 27.102C25.8409 26.3138 24.7716 25.8707 23.6565 25.8696Z"
          fill="#B4BCF6" />
        <path
          d="M28.2954 28.6826C28.1543 28.6832 28.0147 28.6526 27.8867 28.593C27.7588 28.5334 27.6456 28.4462 27.5553 28.3377C27.473 28.2407 27.4107 28.1284 27.3719 28.0072C27.3332 27.886 27.3189 27.7583 27.3297 27.6315C27.3404 27.5047 27.3762 27.3813 27.4349 27.2684C27.4936 27.1556 27.574 27.0554 27.6716 26.9737C28.7796 26.0395 30.1824 25.5275 31.6318 25.5283C32.264 25.5283 32.8927 25.625 33.4957 25.8151C33.7402 25.8933 33.9436 26.0654 34.0613 26.2936C34.179 26.5217 34.2014 26.7872 34.1234 27.0318C34.0851 27.1533 34.0232 27.2659 33.9412 27.3634C33.8593 27.4609 33.759 27.5412 33.646 27.5999C33.533 27.6586 33.4095 27.6943 33.2827 27.7052C33.1558 27.7161 33.028 27.702 32.9067 27.6634C32.4945 27.5319 32.0644 27.4652 31.6318 27.4658C30.6396 27.4664 29.6793 27.8162 28.9193 28.4539C28.7453 28.6022 28.524 28.6833 28.2954 28.6826Z"
          fill="#B4BCF6" />
        <path
          d="M43.7525 25.8696C43.5289 25.8704 43.3123 25.7935 43.1391 25.6522C42.9659 25.5108 42.8473 25.3138 42.8031 25.0946C42.7566 24.8423 42.8124 24.5819 42.9577 24.3705C43.103 24.1592 43.3262 24.014 43.5781 23.967L45.039 23.7034C45.1638 23.6805 45.2916 23.6823 45.4156 23.7089C45.5396 23.7354 45.6571 23.7861 45.7617 23.8581C45.8659 23.93 45.955 24.0219 46.024 24.1284C46.0926 24.2348 46.1399 24.3537 46.1627 24.4784C46.2092 24.7307 46.1538 24.9911 46.0085 25.2025C45.8632 25.4139 45.64 25.559 45.3877 25.6061L43.9269 25.8696C43.8691 25.8754 43.8106 25.8754 43.7525 25.8696Z"
          fill="#B4BCF6" />
        <path
          d="M16.1548 30.9031C15.9315 30.9032 15.715 30.826 15.542 30.6848C15.369 30.5436 15.2501 30.3469 15.2055 30.1281C15.159 29.8759 15.2146 29.6155 15.3598 29.4041C15.5051 29.1927 15.7283 29.0475 15.9805 29.0005L17.8521 28.6595C17.9767 28.6366 18.1048 28.6384 18.2287 28.6649C18.3527 28.6915 18.4702 28.7422 18.5746 28.8141C18.6789 28.8861 18.7681 28.9779 18.8369 29.0844C18.9058 29.1908 18.953 29.3098 18.9758 29.4345C19.0223 29.6868 18.9668 29.9472 18.8214 30.1585C18.6762 30.3699 18.453 30.5151 18.2008 30.5621L16.3292 30.9031C16.2712 30.9089 16.2128 30.9089 16.1548 30.9031Z"
          fill="#B4BCF6" />
      </g>
    </g>
    <path
      d="M80.6033 38.0199C82.5286 38.0199 84.0435 37.5944 85.1482 36.7434C85.689 36.3316 86.1219 35.797 86.4103 35.1847C86.6987 34.5724 86.8341 33.9003 86.8051 33.2252C86.8273 32.5291 86.6562 31.8403 86.3106 31.2337C85.9158 30.6261 85.3567 30.1405 84.6969 29.8322C83.7243 29.3541 82.698 28.9916 81.6393 28.7524C80.436 28.4521 79.5299 28.1946 78.9211 27.9801C78.4669 27.8433 78.0465 27.6144 77.6865 27.3079C77.4702 27.0757 77.3536 26.7692 77.3616 26.4534C77.3596 26.1717 77.4369 25.895 77.5848 25.6544C77.7328 25.4138 77.9455 25.2187 78.1991 25.0912C78.8604 24.733 79.6143 24.5774 80.365 24.6442C81.1801 24.6476 81.9747 24.8971 82.6429 25.3593C83.0567 25.6468 83.3706 26.0539 83.5418 26.5249C83.585 26.6677 83.6781 26.7907 83.8044 26.8719C83.9306 26.9531 84.0819 26.9873 84.2313 26.9683L86.1987 26.6107C86.2664 26.6009 86.3315 26.5775 86.3897 26.5419C86.448 26.5063 86.4983 26.4592 86.5376 26.4036C86.5768 26.348 86.6041 26.285 86.6178 26.2186C86.6316 26.1521 86.6314 26.0836 86.6174 26.0172C86.3564 24.9014 85.6745 23.9267 84.7114 23.2927C83.4179 22.4425 81.8875 22.016 80.3361 22.0735C78.5432 22.0735 77.0992 22.4895 76.0042 23.3213C75.4827 23.6983 75.0619 24.1956 74.7782 24.77C74.4945 25.3444 74.3565 25.9787 74.3762 26.6179C74.3562 27.2802 74.5224 27.935 74.8563 28.5093C75.2795 29.0871 75.8518 29.5416 76.5132 29.825C77.5179 30.2901 78.5662 30.6566 79.643 30.9191C80.8463 31.2361 81.738 31.5019 82.318 31.7164C82.7548 31.8392 83.1501 32.0764 83.4623 32.4029C83.6632 32.6693 83.764 32.9968 83.7475 33.3289C83.7583 33.6319 83.691 33.9327 83.5521 34.2029C83.4131 34.4731 83.2071 34.7039 82.9533 34.8735C82.3088 35.2812 81.551 35.4776 80.7874 35.4348C79.8843 35.4661 78.9922 35.2309 78.2243 34.7591C77.7042 34.4264 77.3017 33.9415 77.0728 33.3718C77.0259 33.2431 76.9367 33.1336 76.8195 33.061C76.7024 32.9884 76.564 32.9568 76.4266 32.9714L74.4448 33.2753C74.3734 33.2843 74.3049 33.3081 74.2435 33.3453C74.1822 33.3824 74.1295 33.432 74.0889 33.4908C74.0483 33.5496 74.0208 33.6162 74.0081 33.6863C73.9953 33.7564 73.9978 33.8283 74.0152 33.8974C74.3145 35.0745 75.0355 36.1037 76.0439 36.7935C77.228 37.6111 78.7478 38.0199 80.6033 38.0199Z"
      fill="white" />
    <path
      d="M91.3398 37.076C91.3407 37.2186 91.3986 37.355 91.5007 37.4554C91.6028 37.5559 91.7409 37.6123 91.8849 37.6123H93.7981C93.9418 37.6123 94.0795 37.5558 94.181 37.4552C94.2826 37.3546 94.3396 37.2182 94.3396 37.076V29.7321C94.2982 28.7517 94.4783 27.7745 94.8667 26.8718C95.1631 26.2199 95.6579 25.6761 96.2818 25.3165C96.8765 24.997 97.5438 24.8333 98.2203 24.8409C98.915 24.8096 99.6038 24.9798 100.202 25.3308C100.704 25.6489 101.11 26.0947 101.379 26.6215C101.654 27.1683 101.841 27.7548 101.931 28.3591C102.032 28.9571 102.084 29.5621 102.087 30.1683V37.076C102.087 37.1467 102.101 37.2168 102.128 37.2821C102.156 37.3474 102.196 37.4067 102.246 37.4565C102.297 37.5064 102.357 37.5458 102.423 37.5725C102.489 37.5993 102.56 37.6128 102.632 37.6123H104.541C104.613 37.6128 104.684 37.5993 104.75 37.5725C104.816 37.5458 104.876 37.5064 104.927 37.4565C104.977 37.4067 105.017 37.3474 105.045 37.2821C105.072 37.2168 105.086 37.1467 105.086 37.076V29.2101C105.08 28.6657 105.038 28.1223 104.96 27.5833C104.867 26.938 104.706 26.3041 104.48 25.6919C104.241 25.0414 103.891 24.4366 103.444 23.9042C102.976 23.3326 102.38 22.8762 101.704 22.5706C100.865 22.2107 99.9568 22.0386 99.0434 22.0664C98.0298 22.0478 97.0243 22.2491 96.0977 22.6564C95.6906 22.8425 95.3056 23.0727 94.9497 23.3428C94.8654 23.4065 94.7657 23.4471 94.6606 23.4604C94.5554 23.4737 94.4486 23.4593 94.3508 23.4187C94.2531 23.3781 94.1679 23.3127 94.1038 23.2291C94.0397 23.1454 93.999 23.0466 93.9859 22.9424C93.9859 22.8182 93.936 22.699 93.8473 22.6112C93.7587 22.5233 93.6384 22.474 93.513 22.474H91.8849C91.7403 22.474 91.6018 22.5309 91.4995 22.6321C91.3973 22.7334 91.3398 22.8707 91.3398 23.0139V37.076Z"
      fill="white" />
    <path
      d="M114.508 38.0488C116.284 38.0488 117.74 37.5852 118.876 36.658C119.28 36.329 120.017 36.5864 120.017 37.1013C120.017 37.2407 120.073 37.3744 120.172 37.473C120.272 37.5715 120.407 37.6269 120.547 37.6269H122.089C122.16 37.6274 122.231 37.6138 122.297 37.5871C122.363 37.5604 122.423 37.5209 122.474 37.4711C122.525 37.4212 122.565 37.362 122.592 37.2967C122.62 37.2314 122.634 37.1613 122.634 37.0906V28.2879C122.634 27.6551 122.605 27.0616 122.551 26.5002C122.494 25.9545 122.34 25.4231 122.096 24.9306C121.648 23.9527 120.851 23.1733 119.858 22.7425C118.736 22.2483 117.519 22.0042 116.291 22.0274C114.527 22.0274 113.112 22.4111 112.046 23.1786C111.132 23.8258 110.439 24.7321 110.057 25.778C110.033 25.8443 110.025 25.9147 110.031 25.9847C110.036 26.0546 110.057 26.1225 110.091 26.1841C110.125 26.2457 110.172 26.2996 110.228 26.3423C110.284 26.3851 110.349 26.4157 110.418 26.4323L112.154 26.9614C112.298 27 112.451 26.9849 112.584 26.9189C112.717 26.853 112.821 26.7409 112.876 26.6039C113.126 26.0465 113.55 25.5829 114.085 25.281C114.758 24.9051 115.519 24.7115 116.291 24.7196C117.495 24.7196 118.354 24.9723 118.869 25.4777C119.356 25.9683 119.652 26.6146 119.703 27.3011C119.718 27.4338 119.679 27.5671 119.595 27.6717C119.512 27.7763 119.389 27.8436 119.255 27.8589C118.172 28.0055 117.125 28.1628 116.092 28.3237C115.043 28.4734 114.003 28.6883 112.981 28.9672C111.939 29.2551 111.004 29.835 110.288 30.637C109.654 31.4386 109.329 32.4373 109.371 33.4544C109.363 34.249 109.562 35.0322 109.948 35.7284C110.364 36.4288 110.968 37.0017 111.692 37.3838C112.561 37.8317 113.528 38.0601 114.508 38.0488ZM115.031 35.6497C114.089 35.6497 113.389 35.4352 112.937 35.0061C112.725 34.8114 112.556 34.5751 112.441 34.3123C112.326 34.0494 112.268 33.7658 112.269 33.4794C112.254 33.2121 112.3 32.9448 112.403 32.6972C112.506 32.4497 112.664 32.2282 112.865 32.0492C113.312 31.6793 113.827 31.3977 114.381 31.2198C115.125 31.0108 115.881 30.8472 116.645 30.7299C117.367 30.6155 118.169 30.4963 119.049 30.3724C119.127 30.3599 119.207 30.365 119.283 30.3872C119.359 30.4094 119.429 30.4482 119.487 30.5007C119.546 30.5533 119.592 30.6182 119.621 30.6906C119.651 30.7631 119.664 30.8413 119.659 30.9194C119.659 31.0946 119.634 31.277 119.62 31.47C119.589 31.8706 119.508 32.2658 119.378 32.6464C119.251 33.1715 119.004 33.6609 118.656 34.0765C118.268 34.5593 117.774 34.9481 117.211 35.2135C116.527 35.5169 115.781 35.6612 115.031 35.6354V35.6497Z"
      fill="white" />
    <path
      d="M127.713 43.8051C127.713 43.9483 127.771 44.0856 127.873 44.1869C127.975 44.2881 128.114 44.345 128.258 44.345H130.139C130.284 44.345 130.422 44.2881 130.525 44.1869C130.627 44.0856 130.684 43.9483 130.684 43.8051V37.7555C130.694 37.646 130.732 37.5407 130.794 37.4494C130.856 37.3581 130.94 37.2837 131.038 37.233C131.137 37.1824 131.247 37.1573 131.358 37.1599C131.469 37.1624 131.577 37.1927 131.673 37.2478C131.95 37.4033 132.24 37.5349 132.54 37.6411C133.297 37.9128 134.099 38.0461 134.904 38.0344C136.219 38.0703 137.512 37.7004 138.604 36.9761C139.649 36.2562 140.476 35.2671 140.994 34.1158C141.578 32.8345 141.869 31.4416 141.846 30.0362C141.871 28.6307 141.58 27.2372 140.994 25.9567C140.476 24.797 139.637 23.8056 138.576 23.0963C137.477 22.3778 136.181 22.0108 134.865 22.0452C133.991 22.0324 133.124 22.1954 132.316 22.5243C131.885 22.6978 131.476 22.9223 131.099 23.1929C131.033 23.237 130.956 23.2634 130.876 23.2693C130.795 23.2753 130.715 23.2606 130.643 23.2268C130.57 23.193 130.507 23.1412 130.461 23.0763C130.414 23.0115 130.386 22.9359 130.377 22.8568C130.377 22.7534 130.336 22.6543 130.262 22.5812C130.188 22.5081 130.088 22.467 129.984 22.467H128.291C128.219 22.4666 128.148 22.4802 128.082 22.5072C128.015 22.5341 127.955 22.5739 127.904 22.6241C127.854 22.6744 127.814 22.7341 127.786 22.7998C127.759 22.8655 127.745 22.9359 127.746 23.0069L127.713 43.8051ZM134.493 35.385C133.049 35.385 131.992 34.8845 131.323 33.8833C130.654 32.8822 130.328 31.5975 130.345 30.0291C130.345 28.4583 130.671 27.1771 131.323 26.1855C131.975 25.1939 132.999 24.6981 134.395 24.6981C135.259 24.6631 136.111 24.9148 136.814 25.4132C137.459 25.9069 137.947 26.5749 138.218 27.3368C138.538 28.1984 138.696 29.111 138.684 30.0291C138.696 30.9552 138.543 31.8762 138.233 32.7499C137.963 33.5076 137.481 34.1735 136.843 34.6699C136.165 35.1666 135.336 35.4189 134.493 35.385Z"
      fill="white" />
    <path
      d="M146.65 37.076C146.651 37.2185 146.709 37.3549 146.811 37.4554C146.913 37.5559 147.051 37.6123 147.195 37.6123H149.072C149.143 37.6128 149.214 37.5992 149.28 37.5725C149.347 37.5457 149.407 37.5063 149.457 37.4565C149.508 37.4066 149.548 37.3473 149.576 37.282C149.603 37.2167 149.617 37.1467 149.617 37.076V17.5399C149.617 17.3967 149.56 17.2594 149.458 17.1581C149.355 17.0569 149.217 17 149.072 17H147.195C147.051 17.0009 146.913 17.0581 146.811 17.1592C146.709 17.2602 146.651 17.397 146.65 17.5399V37.076Z"
      fill="white" />
    <path
      d="M162.068 38.0489C163.492 38.0661 164.892 37.6817 166.104 36.9406C167.141 36.3033 167.986 35.4003 168.548 34.3269C168.581 34.2604 168.599 34.1874 168.601 34.1133C168.602 34.0391 168.588 33.9654 168.558 33.8974C168.528 33.8293 168.484 33.7686 168.428 33.7193C168.372 33.6699 168.305 33.6333 168.234 33.6119L166.357 33.0255C166.23 32.9887 166.095 32.9955 165.973 33.0449C165.851 33.0942 165.749 33.1832 165.685 33.2972C164.887 34.6273 163.638 35.2959 161.927 35.2959C161.369 35.3248 160.811 35.2373 160.289 35.039C159.767 34.8406 159.294 34.5359 158.898 34.1446C158.226 33.3989 157.801 32.4665 157.682 31.4738C157.671 31.4003 157.677 31.3254 157.699 31.2543C157.72 31.1833 157.757 31.1177 157.807 31.0623C157.857 31.0068 157.918 30.9628 157.987 30.9332C158.056 30.9036 158.13 30.8892 158.205 30.891H168.494C168.632 30.8929 168.766 30.8407 168.866 30.7457C168.966 30.6507 169.024 30.5205 169.028 30.3833C169.094 28.9558 168.866 27.5298 168.356 26.1929C167.879 24.9506 167.022 23.8869 165.905 23.1502C164.719 22.4084 163.336 22.0349 161.934 22.0776C160.558 22.0311 159.195 22.3614 157.996 23.0322C156.865 23.7039 155.951 24.6813 155.361 25.8496C154.712 27.1869 154.392 28.657 154.426 30.1401C154.395 31.5707 154.722 32.9865 155.375 34.2626C155.991 35.4117 156.917 36.3686 158.05 37.0264C159.274 37.7138 160.661 38.0667 162.068 38.0489ZM162.043 24.659C164.17 24.659 165.45 25.7722 165.884 27.9985C165.897 28.073 165.893 28.1495 165.873 28.2225C165.853 28.2956 165.817 28.3632 165.767 28.4207C165.718 28.4782 165.656 28.524 165.586 28.5549C165.516 28.5857 165.44 28.6008 165.364 28.5991H158.299C158.222 28.6009 158.145 28.5852 158.074 28.5532C158.004 28.5213 157.942 28.474 157.892 28.4148C157.843 28.3556 157.808 28.2861 157.789 28.2115C157.771 28.1369 157.77 28.0592 157.787 27.9841C157.961 27.1043 158.398 26.2969 159.043 25.6673C159.772 24.9808 160.765 24.6447 162.032 24.6447L162.043 24.659Z"
      fill="white" />
    <path
      d="M181.896 37.691C182.02 37.6698 182.132 37.6057 182.213 37.5101C182.294 37.4145 182.337 37.2936 182.336 37.169V35.7567C182.336 35.6784 182.319 35.6011 182.286 35.5299C182.253 35.4587 182.206 35.3952 182.146 35.3435C182.087 35.2918 182.017 35.2532 181.942 35.2301C181.866 35.207 181.787 35.2001 181.708 35.2097C181.046 35.2807 180.378 35.2807 179.716 35.2097C179.385 35.1843 179.066 35.0803 178.785 34.9067C178.505 34.733 178.27 34.4947 178.102 34.2121C177.911 33.864 177.81 33.4748 177.806 33.0787C177.806 32.6282 177.806 32.099 177.806 31.4912V25.3451C177.806 25.2019 177.863 25.0646 177.966 24.9633C178.068 24.8621 178.206 24.8052 178.351 24.8052H181.806C181.95 24.8043 182.088 24.7471 182.19 24.646C182.292 24.545 182.35 24.4082 182.351 24.2653V22.9889C182.351 22.8457 182.293 22.7084 182.191 22.6071C182.089 22.5059 181.95 22.449 181.806 22.449H178.351C178.207 22.4481 178.069 22.3909 177.967 22.2898C177.865 22.1888 177.807 22.052 177.806 21.9091V18.7806C177.805 18.6377 177.747 18.501 177.645 18.3999C177.543 18.2989 177.405 18.2417 177.261 18.2407H175.376C175.232 18.2417 175.094 18.2989 174.992 18.3999C174.89 18.501 174.832 18.6377 174.831 18.7806V21.9091C174.831 22.0517 174.774 22.1885 174.673 22.2896C174.572 22.3908 174.434 22.4481 174.29 22.449H172.445C172.374 22.449 172.303 22.463 172.237 22.4902C172.171 22.5173 172.111 22.5572 172.061 22.6074C172.011 22.6575 171.971 22.7171 171.944 22.7826C171.917 22.8481 171.903 22.9182 171.904 22.9889V24.2653C171.904 24.4079 171.961 24.5447 172.062 24.6458C172.164 24.747 172.301 24.8043 172.445 24.8052H174.29C174.361 24.8052 174.432 24.8192 174.498 24.8464C174.564 24.8736 174.624 24.9134 174.674 24.9636C174.724 25.0137 174.764 25.0733 174.791 25.1388C174.818 25.2042 174.832 25.2744 174.831 25.3451V31.6342C174.831 32.4566 174.841 33.1943 174.86 33.8474C174.896 34.5153 175.079 35.1672 175.398 35.7567C175.759 36.441 176.343 36.9841 177.055 37.2977C177.836 37.6375 178.678 37.8187 179.532 37.8304C180.322 37.8591 181.114 37.8124 181.896 37.691Z"
      fill="white" />
  </g>
  <defs>
    <clipPath id="clip0_1749_676">
      <rect width="182" height="62" fill="white" />
    </clipPath>
    <clipPath id="clip1_1749_676">
      <rect width="62" height="62" fill="white" />
    </clipPath>
  </defs>
</svg>