<svg width="1742" height="206" viewBox="0 0 1742 206" fill="none" xmlns="http://www.w3.org/2000/svg">
<mask id="mask0_1798_422" style="mask-type:alpha" maskUnits="userSpaceOnUse" x="0" y="0" width="1742" height="206">
<path d="M611.934 93.668C592.576 88.9626 587.344 86.8714 587.344 79.029C587.344 73.8008 591.53 68.0498 604.609 68.0498C615.596 68.0498 624.49 72.7552 632.338 80.5975L650.126 63.3444C638.616 51.3195 624.49 44 605.656 44C581.589 44 562.232 57.5934 562.232 79.5519C562.232 103.602 577.927 110.921 600.424 115.627C623.444 120.855 627.629 124.515 627.629 132.357C627.629 141.768 620.828 145.427 606.179 145.427C594.669 145.427 583.682 141.245 574.788 131.311L557 146.996C566.417 160.589 584.205 168.954 604.086 168.954C637.57 168.954 651.695 153.27 651.695 130.266C652.742 104.647 631.291 97.8506 611.934 93.668ZM724.417 44.5228C690.934 44.5228 671.576 70.1411 671.576 107.261C671.576 144.382 691.457 170 724.417 170C757.378 170 777.258 144.382 777.258 107.261C777.258 70.1411 757.378 44.5228 724.417 44.5228ZM724.417 145.427C704.536 145.427 696.689 128.697 696.689 106.739C696.689 84.7801 705.06 68.0498 724.417 68.0498C744.298 68.0498 752.146 84.7801 752.146 106.739C752.146 128.697 743.775 145.427 724.417 145.427ZM875.616 114.581C875.616 133.925 866.199 145.95 850.503 145.95C834.808 145.95 825.391 133.402 825.391 114.058V46.0913H800.801V114.581C800.801 150.133 820.682 170 849.98 170C880.848 170 899.159 149.61 899.159 114.581V46.6141H874.57V114.581H875.616ZM1004.84 97.8506C1004.84 104.647 1005.36 119.809 1005.36 124.514C1003.79 121.378 999.609 115.104 996.993 110.921L953.57 46.6141H930.027V168.432H954.093V114.581C954.093 107.784 953.57 92.6224 953.57 87.917C955.139 91.0539 959.325 97.3278 961.94 101.51L1006.41 167.909H1028.38V46.0913H1004.32V97.8506H1004.84ZM1098.49 46.0913H1060.3V167.909H1096.4C1127.79 167.909 1158.66 149.61 1158.66 107.261C1158.66 62.2988 1133.02 46.0913 1098.49 46.0913ZM1096.4 144.382H1084.36V70.1411H1097.44C1123.08 70.1411 1134.07 82.6888 1134.07 107.261C1134.07 129.22 1122.03 144.382 1096.4 144.382ZM1233.99 68.5726C1244.98 68.5726 1251.78 73.278 1256.49 81.6431L1278.99 71.1867C1271.14 55.5021 1257.54 44 1234.52 44C1202.6 44 1180.63 69.6183 1180.63 106.739C1180.63 144.905 1202.08 169.477 1233.99 169.477C1255.97 169.477 1270.62 159.021 1278.99 141.768L1258.58 129.743C1252.3 140.722 1245.5 145.427 1234.52 145.427C1216.21 145.427 1205.74 128.697 1205.74 106.739C1205.74 84.2573 1216.21 68.5726 1233.99 68.5726ZM1324.5 46.0913H1299.91V167.909H1373.16V143.859H1324.5V46.0913ZM1437.51 44.5228C1404.03 44.5228 1384.67 70.1411 1384.67 107.261C1384.67 144.382 1404.55 170 1437.51 170C1470.99 170 1490.35 144.382 1490.35 107.261C1490.35 70.1411 1470.99 44.5228 1437.51 44.5228ZM1437.51 145.427C1417.63 145.427 1409.78 128.697 1409.78 106.739C1409.78 84.7801 1418.15 68.0498 1437.51 68.0498C1457.39 68.0498 1465.24 84.7801 1465.24 106.739C1465.24 128.697 1457.39 145.427 1437.51 145.427ZM1588.71 114.581C1588.71 133.925 1579.29 145.95 1563.6 145.95C1547.9 145.95 1538.48 133.402 1538.48 114.058V46.0913H1513.89V114.581C1513.89 150.133 1533.77 170 1563.07 170C1593.94 170 1612.25 149.61 1612.25 114.581V46.6141H1587.66V114.581H1588.71ZM1681.83 46.0913H1643.64V167.909H1679.74C1711.13 167.909 1742 149.61 1742 107.261C1742 62.2988 1716.36 46.0913 1681.83 46.0913ZM1679.74 144.382H1668.23V70.1411H1681.31C1706.95 70.1411 1717.41 82.6888 1717.41 107.261C1717.41 129.22 1705.38 144.382 1679.74 144.382Z" fill="#F04923"/>
<path d="M204.332 151.399L201.556 50.1578C201.556 47.0114 198.965 44.6053 196.004 44.6053C192.857 44.6053 190.451 47.0114 190.451 50.1578L187.86 151.399L190.451 200.076C190.451 203.222 193.042 205.628 196.004 205.628C199.15 205.628 201.556 203.222 201.556 200.076L204.332 151.399Z" fill="url(#paint0_linear_1798_422)"/>
<path d="M184.344 151.399L181.198 46.271C181.198 43.3096 178.791 41.0886 176.015 41.0886C173.239 41.0886 170.833 43.3096 170.833 46.271L168.057 151.214L170.833 200.261C170.833 203.222 173.239 205.443 176.015 205.443C178.791 205.443 181.198 203.222 181.198 200.261L184.344 151.399Z" fill="url(#paint1_linear_1798_422)"/>
<path d="M141.219 47.0113C141.034 44.6052 139.183 42.5693 136.777 42.5693C134.371 42.5693 132.52 44.4201 132.335 47.0113L129.188 151.214L132.335 201.001C132.335 203.407 134.371 205.258 136.777 205.258C139.183 205.258 141.034 203.407 141.219 200.816L144.921 151.028L141.219 47.0113Z" fill="url(#paint2_linear_1798_422)"/>
<path d="M161.208 43.4947C161.208 40.9036 158.987 38.6826 156.396 38.6826C153.805 38.6826 151.584 40.7185 151.584 43.4947L148.623 151.214L151.584 200.631C151.584 203.222 153.805 205.443 156.396 205.443C158.987 205.443 161.023 203.407 161.208 200.631L164.54 151.214L161.208 43.4947Z" fill="url(#paint3_linear_1798_422)"/>
<path d="M60.3374 204.148C61.8181 204.148 62.9286 203.037 63.1136 201.371L67.9258 151.214L63.1136 99.3901C62.9286 97.9094 61.8181 96.6138 60.3374 96.6138C58.8567 96.6138 57.7462 97.7243 57.5611 99.3901L53.3042 151.214L57.5611 201.371C57.5611 203.037 58.8567 204.148 60.3374 204.148Z" fill="url(#paint4_linear_1798_422)"/>
<path d="M224.507 151.399L221.916 31.0941C221.916 29.0582 220.805 27.2073 219.139 26.0968C218.214 25.5416 217.103 24.9863 215.808 24.9863C214.697 24.9863 213.587 25.3565 212.476 25.9117C210.811 27.0223 209.7 28.8731 209.7 30.909V32.0195L207.479 151.214L209.7 199.52V199.706C209.7 201.001 210.255 202.297 211.181 203.222C212.291 204.518 213.957 205.443 215.808 205.443C217.474 205.443 218.954 204.703 220.065 203.777C221.175 202.667 221.916 201.186 221.916 199.52L222.101 194.708L224.507 151.399Z" fill="url(#paint5_linear_1798_422)"/>
<path d="M82.3627 103.092C82.1776 101.241 80.8821 99.9453 79.2163 99.9453C77.5505 99.9453 76.0699 101.241 76.0699 103.092L72.1831 151.213L76.0699 201.741C76.255 203.592 77.5505 204.888 79.2163 204.888C80.8821 204.888 82.3627 203.592 82.3627 201.741L86.8047 151.213L82.3627 103.092Z" fill="url(#paint6_linear_1798_422)"/>
<path d="M98.2793 69.4064C96.4285 69.4064 94.7627 70.8871 94.7627 72.923L91.061 151.214L94.7627 201.741C94.9478 203.777 96.4285 205.258 98.2793 205.258C100.13 205.258 101.796 203.777 101.796 201.741L106.053 151.214L101.796 72.923C101.796 71.0722 100.13 69.4064 98.2793 69.4064Z" fill="url(#paint7_linear_1798_422)"/>
<path d="M121.23 201.741L125.116 151.399L121.23 55.155C121.045 52.934 119.379 51.2682 117.158 51.2682C114.937 51.2682 113.271 52.934 113.086 55.155L109.569 151.399L113.086 201.741C113.086 203.962 114.937 205.628 117.158 205.628C119.379 205.813 121.045 203.962 121.23 201.741Z" fill="url(#paint8_linear_1798_422)"/>
<path d="M239.128 14.6216C238.203 14.0663 237.092 13.6962 235.797 13.6962C234.316 13.6962 232.835 14.2514 231.725 15.1768C230.244 16.2873 229.319 18.1382 229.319 20.1741V20.9144L226.728 151.584L228.023 175.645L229.319 199.15C229.319 202.667 232.28 205.443 235.797 205.443C239.313 205.443 242.089 202.482 242.275 198.965L245.051 151.399L242.275 20.1741C242.089 17.768 240.979 15.7321 239.128 14.6216Z" fill="url(#paint9_linear_1798_422)"/>
<path d="M5.36743 178.976C6.29285 178.976 7.03319 178.236 7.21827 177.125L11.2901 151.214L7.21827 124.932C7.03319 123.821 6.29285 123.081 5.36743 123.081C4.44201 123.081 3.51659 123.821 3.51659 124.932L0 151.214L3.51659 177.125C3.51659 178.236 4.44201 178.976 5.36743 178.976Z" fill="url(#paint10_linear_1798_422)"/>
<path d="M22.9501 194.708C23.8756 194.708 24.801 193.968 24.9861 192.857L30.3535 151.214L24.9861 108.644C24.801 107.534 24.0606 106.793 22.9501 106.793C22.0247 106.793 21.0993 107.534 20.9142 108.644L16.2871 151.214L20.9142 192.857C21.0993 193.968 21.8396 194.708 22.9501 194.708Z" fill="url(#paint11_linear_1798_422)"/>
<path d="M41.4585 202.297C42.754 202.297 43.6795 201.371 43.8645 199.891L48.8618 151.214L43.8645 100.686C43.6795 99.3901 42.754 98.2796 41.4585 98.2796C40.1629 98.2796 39.2374 99.205 39.0524 100.686L34.6104 151.214L39.0524 199.891C39.2374 201.186 40.1629 202.297 41.4585 202.297Z" fill="url(#paint12_linear_1798_422)"/>
<path d="M415.513 89.2105C407.555 89.2105 399.966 90.8762 392.933 93.6525C388.306 41.2737 344.256 0 290.582 0C277.441 0 264.67 2.59117 253.38 7.03319C248.938 8.69894 247.827 10.5498 247.827 13.8813V198.78C247.827 202.297 250.603 205.073 254.12 205.443H415.698C447.903 205.443 474 179.716 474 147.512C473.815 115.307 447.718 89.2105 415.513 89.2105Z" fill="url(#paint13_linear_1798_422)"/>
</mask>
<g mask="url(#mask0_1798_422)">
<rect x="-83" y="-64" width="2010" height="379" fill="white"/>
</g>
<defs>
<linearGradient id="paint0_linear_1798_422" x1="1006.86" y1="-4415.92" x2="1006.86" y2="16160.5" gradientUnits="userSpaceOnUse">
<stop stop-color="#F6871F"/>
<stop offset="0.2393" stop-color="#F57E20"/>
<stop offset="0.6262" stop-color="#F36621"/>
<stop offset="1" stop-color="#F04923"/>
</linearGradient>
<linearGradient id="paint1_linear_1798_422" x1="985.812" y1="-4067.78" x2="985.812" y2="16508.7" gradientUnits="userSpaceOnUse">
<stop stop-color="#F6871F"/>
<stop offset="0.2393" stop-color="#F57E20"/>
<stop offset="0.6262" stop-color="#F36621"/>
<stop offset="1" stop-color="#F04923"/>
</linearGradient>
<linearGradient id="paint2_linear_1798_422" x1="916.276" y1="-4214.37" x2="916.276" y2="16362.1" gradientUnits="userSpaceOnUse">
<stop stop-color="#F6871F"/>
<stop offset="0.2393" stop-color="#F57E20"/>
<stop offset="0.6262" stop-color="#F36621"/>
<stop offset="1" stop-color="#F04923"/>
</linearGradient>
<linearGradient id="paint3_linear_1798_422" x1="943.465" y1="-3829.58" x2="943.465" y2="16747" gradientUnits="userSpaceOnUse">
<stop stop-color="#F6871F"/>
<stop offset="0.2393" stop-color="#F57E20"/>
<stop offset="0.6262" stop-color="#F36621"/>
<stop offset="1" stop-color="#F04923"/>
</linearGradient>
<linearGradient id="paint4_linear_1798_422" x1="777.445" y1="-9564.78" x2="777.445" y2="11011.7" gradientUnits="userSpaceOnUse">
<stop stop-color="#F6871F"/>
<stop offset="0.2393" stop-color="#F57E20"/>
<stop offset="0.6262" stop-color="#F36621"/>
<stop offset="1" stop-color="#F04923"/>
</linearGradient>
<linearGradient id="paint5_linear_1798_422" x1="1061.44" y1="-2473.65" x2="1061.44" y2="18102.9" gradientUnits="userSpaceOnUse">
<stop stop-color="#F6871F"/>
<stop offset="0.2393" stop-color="#F57E20"/>
<stop offset="0.6262" stop-color="#F36621"/>
<stop offset="1" stop-color="#F04923"/>
</linearGradient>
<linearGradient id="paint6_linear_1798_422" x1="798.286" y1="-9894.58" x2="798.286" y2="10682" gradientUnits="userSpaceOnUse">
<stop stop-color="#F6871F"/>
<stop offset="0.2393" stop-color="#F57E20"/>
<stop offset="0.6262" stop-color="#F36621"/>
<stop offset="1" stop-color="#F04923"/>
</linearGradient>
<linearGradient id="paint7_linear_1798_422" x1="834.599" y1="-6871.25" x2="834.599" y2="13705.2" gradientUnits="userSpaceOnUse">
<stop stop-color="#F6871F"/>
<stop offset="0.2393" stop-color="#F57E20"/>
<stop offset="0.6262" stop-color="#F36621"/>
<stop offset="1" stop-color="#F04923"/>
</linearGradient>
<linearGradient id="paint8_linear_1798_422" x1="893.363" y1="-5075.57" x2="893.363" y2="15500.9" gradientUnits="userSpaceOnUse">
<stop stop-color="#F6871F"/>
<stop offset="0.2393" stop-color="#F57E20"/>
<stop offset="0.6262" stop-color="#F36621"/>
<stop offset="1" stop-color="#F04923"/>
</linearGradient>
<linearGradient id="paint9_linear_1798_422" x1="1143.52" y1="-1355.92" x2="1143.52" y2="19220.6" gradientUnits="userSpaceOnUse">
<stop stop-color="#F6871F"/>
<stop offset="0.2393" stop-color="#F57E20"/>
<stop offset="0.6262" stop-color="#F36621"/>
<stop offset="1" stop-color="#F04923"/>
</linearGradient>
<linearGradient id="paint10_linear_1798_422" x1="568.171" y1="-12185" x2="568.171" y2="8391.52" gradientUnits="userSpaceOnUse">
<stop stop-color="#F6871F"/>
<stop offset="0.2393" stop-color="#F57E20"/>
<stop offset="0.6262" stop-color="#F36621"/>
<stop offset="1" stop-color="#F04923"/>
</linearGradient>
<linearGradient id="paint11_linear_1798_422" x1="707.779" y1="-10572.6" x2="707.779" y2="10003.9" gradientUnits="userSpaceOnUse">
<stop stop-color="#F6871F"/>
<stop offset="0.2393" stop-color="#F57E20"/>
<stop offset="0.6262" stop-color="#F36621"/>
<stop offset="1" stop-color="#F04923"/>
</linearGradient>
<linearGradient id="paint12_linear_1798_422" x1="753.199" y1="-9729.68" x2="753.199" y2="10846.8" gradientUnits="userSpaceOnUse">
<stop stop-color="#F6871F"/>
<stop offset="0.2393" stop-color="#F57E20"/>
<stop offset="0.6262" stop-color="#F36621"/>
<stop offset="1" stop-color="#F04923"/>
</linearGradient>
<linearGradient id="paint13_linear_1798_422" x1="11540.8" y1="-3.15119e-07" x2="11540.8" y2="20547.8" gradientUnits="userSpaceOnUse">
<stop stop-color="#F6871F"/>
<stop offset="0.2402" stop-color="#F57E20"/>
<stop offset="0.6306" stop-color="#F36621"/>
<stop offset="1" stop-color="#F04923"/>
</linearGradient>
</defs>
</svg>
