<svg width="800" height="450" viewBox="0 0 800 450" fill="none" xmlns="http://www.w3.org/2000/svg">
<g clip-path="url(#clip0_1796_384)">
<mask id="mask0_1796_384" style="mask-type:alpha" maskUnits="userSpaceOnUse" x="0" y="0" width="798" height="451">
<path d="M343.657 254.63L338.988 84.358C338.988 79.0661 334.63 75.0195 329.65 75.0195C324.358 75.0195 320.311 79.0661 320.311 84.358L315.953 254.63L320.311 336.498C320.311 341.79 324.669 345.837 329.65 345.837C334.941 345.837 338.988 341.79 338.988 336.498L343.657 254.63Z" fill="url(#paint0_linear_1796_384)"/>
<path d="M310.039 254.63L304.747 77.821C304.747 72.8405 300.7 69.1051 296.031 69.1051C291.362 69.1051 287.315 72.8405 287.315 77.821L282.646 254.319L287.315 336.809C287.315 341.79 291.362 345.525 296.031 345.525C300.7 345.525 304.747 341.79 304.747 336.809L310.039 254.63Z" fill="url(#paint1_linear_1796_384)"/>
<path d="M237.51 79.0661C237.199 75.0195 234.086 71.5953 230.039 71.5953C225.992 71.5953 222.879 74.7082 222.568 79.0661L217.276 254.319L222.568 338.054C222.568 342.101 225.992 345.214 230.039 345.214C234.086 345.214 237.199 342.101 237.51 337.743L243.736 254.008L237.51 79.0661Z" fill="url(#paint2_linear_1796_384)"/>
<path d="M271.128 73.1517C271.128 68.7938 267.393 65.0584 263.035 65.0584C258.677 65.0584 254.941 68.4825 254.941 73.1517L249.961 254.319L254.941 337.432C254.941 341.79 258.677 345.525 263.035 345.525C267.393 345.525 270.817 342.101 271.128 337.432L276.731 254.319L271.128 73.1517Z" fill="url(#paint3_linear_1796_384)"/>
<path d="M101.479 343.346C103.969 343.346 105.837 341.479 106.148 338.677L114.241 254.319L106.148 167.16C105.837 164.669 103.969 162.49 101.479 162.49C98.9884 162.49 97.1207 164.358 96.8094 167.16L89.6499 254.319L96.8094 338.677C96.8094 341.479 98.9884 343.346 101.479 343.346Z" fill="url(#paint4_linear_1796_384)"/>
<path d="M377.587 254.63L373.229 52.2957C373.229 48.8716 371.362 45.7588 368.56 43.8911C367.004 42.9572 365.136 42.0233 362.957 42.0233C361.089 42.0233 359.222 42.6459 357.354 43.5798C354.552 45.4475 352.685 48.5603 352.685 51.9844V53.8521L348.949 254.319L352.685 335.564V335.876C352.685 338.054 353.618 340.233 355.175 341.79C357.043 343.969 359.844 345.525 362.957 345.525C365.759 345.525 368.249 344.28 370.117 342.724C371.984 340.856 373.229 338.366 373.229 335.564L373.541 327.471L377.587 254.63Z" fill="url(#paint5_linear_1796_384)"/>
<path d="M138.522 173.385C138.21 170.272 136.031 168.093 133.23 168.093C130.428 168.093 127.938 170.272 127.938 173.385L121.401 254.319L127.938 339.3C128.249 342.412 130.428 344.591 133.23 344.591C136.031 344.591 138.522 342.412 138.522 339.3L145.992 254.319L138.522 173.385Z" fill="url(#paint6_linear_1796_384)"/>
<path d="M165.292 116.732C162.179 116.732 159.378 119.222 159.378 122.646L153.152 254.319L159.378 339.3C159.689 342.724 162.179 345.214 165.292 345.214C168.405 345.214 171.206 342.724 171.206 339.3L178.366 254.319L171.206 122.646C171.206 119.533 168.405 116.732 165.292 116.732Z" fill="url(#paint7_linear_1796_384)"/>
<path d="M203.891 339.3L210.428 254.63L203.891 92.7626C203.58 89.0272 200.778 86.2257 197.043 86.2257C193.308 86.2257 190.506 89.0272 190.195 92.7626L184.28 254.63L190.195 339.3C190.195 343.035 193.308 345.837 197.043 345.837C200.778 346.148 203.58 343.035 203.891 339.3Z" fill="url(#paint8_linear_1796_384)"/>
<path d="M402.179 24.5914C400.622 23.6576 398.755 23.035 396.576 23.035C394.085 23.035 391.595 23.9689 389.727 25.5253C387.237 27.393 385.681 30.5058 385.681 33.93V35.1751L381.323 254.942L383.502 295.409L385.681 334.942C385.681 340.856 390.661 345.525 396.576 345.525C402.49 345.525 407.159 340.545 407.471 334.63L412.14 254.63L407.471 33.93C407.159 29.8833 405.292 26.4591 402.179 24.5914Z" fill="url(#paint9_linear_1796_384)"/>
<path d="M9.02724 301.012C10.5837 301.012 11.8288 299.767 12.1401 297.899L18.9883 254.319L12.1401 210.117C11.8288 208.249 10.5837 207.004 9.02724 207.004C7.47082 207.004 5.9144 208.249 5.9144 210.117L0 254.319L5.9144 297.899C5.9144 299.767 7.47082 301.012 9.02724 301.012Z" fill="url(#paint10_linear_1796_384)"/>
<path d="M38.5993 327.471C40.1557 327.471 41.7121 326.226 42.0234 324.358L51.0507 254.319L42.0234 182.724C41.7121 180.856 40.467 179.611 38.5993 179.611C37.0429 179.611 35.4865 180.856 35.1752 182.724L27.3931 254.319L35.1752 324.358C35.4865 326.226 36.7316 327.471 38.5993 327.471Z" fill="url(#paint11_linear_1796_384)"/>
<path d="M69.7275 340.233C71.9065 340.233 73.4629 338.677 73.7742 336.187L82.1788 254.319L73.7742 169.339C73.4629 167.16 71.9065 165.292 69.7275 165.292C67.5485 165.292 65.9921 166.848 65.6808 169.339L58.21 254.319L65.6808 336.187C65.9921 338.366 67.5485 340.233 69.7275 340.233Z" fill="url(#paint12_linear_1796_384)"/>
<path d="M698.833 150.039C685.448 150.039 672.685 152.84 660.856 157.51C653.074 69.4164 578.989 0 488.716 0C466.615 0 445.136 4.35798 426.148 11.8288C418.677 14.6303 416.81 17.7432 416.81 23.3463V334.319C416.81 340.233 421.479 344.903 427.393 345.525H699.144C753.308 345.525 797.199 302.257 797.199 248.093C796.887 193.93 752.996 150.039 698.833 150.039Z" fill="url(#paint13_linear_1796_384)"/>
<path d="M78.1321 404.669C66.6146 401.868 63.5017 400.623 63.5017 395.953C63.5017 392.84 65.992 389.416 73.7741 389.416C80.3111 389.416 85.6029 392.218 90.2722 396.887L100.856 386.615C94.0076 379.455 85.6029 375.097 74.3967 375.097C60.0776 375.097 48.5601 383.191 48.5601 396.265C48.5601 410.584 57.8986 414.942 71.2838 417.743C84.9803 420.856 87.4706 423.035 87.4706 427.704C87.4706 433.307 83.4239 435.486 74.708 435.486C67.8597 435.486 61.3227 432.996 56.0309 427.082L45.4473 436.42C51.0504 444.514 61.634 449.494 73.4628 449.494C93.385 449.494 101.79 440.156 101.79 426.459C102.412 411.206 89.6496 407.16 78.1321 404.669ZM145.058 375.409C125.136 375.409 113.618 390.661 113.618 412.763C113.618 434.864 125.447 450.117 145.058 450.117C164.669 450.117 176.498 434.864 176.498 412.763C176.498 390.661 164.669 375.409 145.058 375.409ZM145.058 435.486C133.229 435.486 128.56 425.525 128.56 412.451C128.56 399.377 133.541 389.416 145.058 389.416C156.887 389.416 161.556 399.377 161.556 412.451C161.556 425.525 156.576 435.486 145.058 435.486ZM235.019 417.121C235.019 428.638 229.416 435.798 220.078 435.798C210.739 435.798 205.136 428.327 205.136 416.809V376.342H190.506V417.121C190.506 438.288 202.334 450.117 219.766 450.117C238.132 450.117 249.027 437.977 249.027 417.121V376.654H234.397V417.121H235.019ZM311.906 407.16C311.906 411.206 312.218 420.233 312.218 423.035C311.284 421.167 308.794 417.432 307.237 414.942L281.401 376.654H267.393V449.183H281.712V417.121C281.712 413.074 281.401 404.047 281.401 401.245C282.334 403.113 284.825 406.848 286.381 409.339L312.84 448.872H325.914V376.342H311.595V407.16H311.906ZM367.626 376.342H344.903V448.872H366.381C385.058 448.872 403.424 437.977 403.424 412.763C403.424 385.992 388.171 376.342 367.626 376.342ZM366.381 434.864H359.222V390.661H367.004C382.257 390.661 388.794 398.132 388.794 412.763C388.794 425.837 381.634 434.864 366.381 434.864ZM448.249 389.728C454.786 389.728 458.832 392.529 461.634 397.51L475.019 391.284C470.35 381.946 462.257 375.097 448.56 375.097C429.572 375.097 416.498 390.35 416.498 412.451C416.498 435.175 429.26 449.805 448.249 449.805C461.323 449.805 470.039 443.58 475.019 433.307L462.879 426.148C459.144 432.685 455.097 435.486 448.56 435.486C437.665 435.486 431.439 425.525 431.439 412.451C431.439 399.066 437.665 389.728 448.249 389.728ZM502.101 376.342H487.471V448.872H531.05V434.553H502.101V376.342ZM569.338 375.409C549.416 375.409 537.899 390.661 537.899 412.763C537.899 434.864 549.727 450.117 569.338 450.117C589.26 450.117 600.778 434.864 600.778 412.763C600.778 390.661 589.26 375.409 569.338 375.409ZM569.338 435.486C557.509 435.486 552.84 425.525 552.84 412.451C552.84 399.377 557.821 389.416 569.338 389.416C581.167 389.416 585.836 399.377 585.836 412.451C585.836 425.525 581.167 435.486 569.338 435.486ZM659.299 417.121C659.299 428.638 653.696 435.798 644.358 435.798C635.019 435.798 629.416 428.327 629.416 416.809V376.342H614.786V417.121C614.786 438.288 626.615 450.117 644.046 450.117C662.412 450.117 673.307 437.977 673.307 417.121V376.654H658.677V417.121H659.299ZM714.708 376.342H691.984V448.872H713.463C732.14 448.872 750.506 437.977 750.506 412.763C750.506 385.992 735.253 376.342 714.708 376.342ZM713.463 434.864H706.615V390.661H714.397C729.65 390.661 735.875 398.132 735.875 412.763C735.875 425.837 728.716 434.864 713.463 434.864Z" fill="#F04923"/>
</mask>
<g mask="url(#mask0_1796_384)">
<rect x="-71" y="-35" width="1003" height="553" fill="white"/>
</g>
</g>
<defs>
<linearGradient id="paint0_linear_1796_384" x1="1693.39" y1="-7426.93" x2="1693.39" y2="27179.6" gradientUnits="userSpaceOnUse">
<stop stop-color="#F6871F"/>
<stop offset="0.2393" stop-color="#F57E20"/>
<stop offset="0.6262" stop-color="#F36621"/>
<stop offset="1" stop-color="#F04923"/>
</linearGradient>
<linearGradient id="paint1_linear_1796_384" x1="1657.99" y1="-6841.41" x2="1657.99" y2="27765.1" gradientUnits="userSpaceOnUse">
<stop stop-color="#F6871F"/>
<stop offset="0.2393" stop-color="#F57E20"/>
<stop offset="0.6262" stop-color="#F36621"/>
<stop offset="1" stop-color="#F04923"/>
</linearGradient>
<linearGradient id="paint2_linear_1796_384" x1="1541.04" y1="-7087.95" x2="1541.04" y2="27518.6" gradientUnits="userSpaceOnUse">
<stop stop-color="#F6871F"/>
<stop offset="0.2393" stop-color="#F57E20"/>
<stop offset="0.6262" stop-color="#F36621"/>
<stop offset="1" stop-color="#F04923"/>
</linearGradient>
<linearGradient id="paint3_linear_1796_384" x1="1586.77" y1="-6440.79" x2="1586.77" y2="28166" gradientUnits="userSpaceOnUse">
<stop stop-color="#F6871F"/>
<stop offset="0.2393" stop-color="#F57E20"/>
<stop offset="0.6262" stop-color="#F36621"/>
<stop offset="1" stop-color="#F04923"/>
</linearGradient>
<linearGradient id="paint4_linear_1796_384" x1="1307.55" y1="-16086.6" x2="1307.55" y2="18520.1" gradientUnits="userSpaceOnUse">
<stop stop-color="#F6871F"/>
<stop offset="0.2393" stop-color="#F57E20"/>
<stop offset="0.6262" stop-color="#F36621"/>
<stop offset="1" stop-color="#F04923"/>
</linearGradient>
<linearGradient id="paint5_linear_1796_384" x1="1785.18" y1="-4160.31" x2="1785.18" y2="30446.5" gradientUnits="userSpaceOnUse">
<stop stop-color="#F6871F"/>
<stop offset="0.2393" stop-color="#F57E20"/>
<stop offset="0.6262" stop-color="#F36621"/>
<stop offset="1" stop-color="#F04923"/>
</linearGradient>
<linearGradient id="paint6_linear_1796_384" x1="1342.6" y1="-16641.2" x2="1342.6" y2="17965.5" gradientUnits="userSpaceOnUse">
<stop stop-color="#F6871F"/>
<stop offset="0.2393" stop-color="#F57E20"/>
<stop offset="0.6262" stop-color="#F36621"/>
<stop offset="1" stop-color="#F04923"/>
</linearGradient>
<linearGradient id="paint7_linear_1796_384" x1="1403.67" y1="-11556.4" x2="1403.67" y2="23050.2" gradientUnits="userSpaceOnUse">
<stop stop-color="#F6871F"/>
<stop offset="0.2393" stop-color="#F57E20"/>
<stop offset="0.6262" stop-color="#F36621"/>
<stop offset="1" stop-color="#F04923"/>
</linearGradient>
<linearGradient id="paint8_linear_1796_384" x1="1502.51" y1="-8536.36" x2="1502.51" y2="26070.3" gradientUnits="userSpaceOnUse">
<stop stop-color="#F6871F"/>
<stop offset="0.2393" stop-color="#F57E20"/>
<stop offset="0.6262" stop-color="#F36621"/>
<stop offset="1" stop-color="#F04923"/>
</linearGradient>
<linearGradient id="paint9_linear_1796_384" x1="1923.24" y1="-2280.46" x2="1923.24" y2="32326.2" gradientUnits="userSpaceOnUse">
<stop stop-color="#F6871F"/>
<stop offset="0.2393" stop-color="#F57E20"/>
<stop offset="0.6262" stop-color="#F36621"/>
<stop offset="1" stop-color="#F04923"/>
</linearGradient>
<linearGradient id="paint10_linear_1796_384" x1="955.58" y1="-20493.4" x2="955.58" y2="14113.3" gradientUnits="userSpaceOnUse">
<stop stop-color="#F6871F"/>
<stop offset="0.2393" stop-color="#F57E20"/>
<stop offset="0.6262" stop-color="#F36621"/>
<stop offset="1" stop-color="#F04923"/>
</linearGradient>
<linearGradient id="paint11_linear_1796_384" x1="1190.38" y1="-17781.5" x2="1190.38" y2="16825.2" gradientUnits="userSpaceOnUse">
<stop stop-color="#F6871F"/>
<stop offset="0.2393" stop-color="#F57E20"/>
<stop offset="0.6262" stop-color="#F36621"/>
<stop offset="1" stop-color="#F04923"/>
</linearGradient>
<linearGradient id="paint12_linear_1796_384" x1="1266.77" y1="-16363.9" x2="1266.77" y2="18242.7" gradientUnits="userSpaceOnUse">
<stop stop-color="#F6871F"/>
<stop offset="0.2393" stop-color="#F57E20"/>
<stop offset="0.6262" stop-color="#F36621"/>
<stop offset="1" stop-color="#F04923"/>
</linearGradient>
<linearGradient id="paint13_linear_1796_384" x1="19409.9" y1="-5.29984e-07" x2="19409.9" y2="34558.4" gradientUnits="userSpaceOnUse">
<stop stop-color="#F6871F"/>
<stop offset="0.2402" stop-color="#F57E20"/>
<stop offset="0.6306" stop-color="#F36621"/>
<stop offset="1" stop-color="#F04923"/>
</linearGradient>
<clipPath id="clip0_1796_384">
<rect width="800" height="450" fill="white"/>
</clipPath>
</defs>
</svg>
