<svg width="96" height="96" viewBox="0 0 96 96" fill="none" xmlns="http://www.w3.org/2000/svg">
  <path d="M96 48C96 74.5097 74.5097 96 48 96C21.4903 96 0 74.5097 0 48C0 21.4903 21.4903 0 48 0C74.5097 0 96 21.4903 96 48Z" fill="#f87171" />
  <path d="M60.8007 64.4035C61.6815 64.407 62.5463 64.1681 63.3004 63.7129C64.0546 63.2577 64.6689 62.6038 65.0762 61.8228C65.4834 61.0417 65.668 60.1637 65.6095 59.2848C65.5511 58.4059 65.2519 57.56 64.7448 56.8398C64.2377 56.1196 63.5422 55.5528 62.7344 55.2014C61.9267 54.8501 61.0378 54.7278 60.1652 54.848C59.2926 54.9681 58.4699 55.326 57.7871 55.8826C57.1043 56.4391 56.5879 57.1727 56.2942 58.0032H43.2V59.6033C43.2 61.1856 42.7308 62.7324 41.8517 64.048C40.9726 65.3637 39.7231 66.3891 38.2612 66.9946C36.7994 67.6001 35.1908 67.7586 33.6389 67.4499C32.087 67.1412 30.6614 66.3792 29.5426 65.2604C28.4237 64.1415 27.6618 62.716 27.3531 61.1641C27.0444 59.6122 27.2028 58.0036 27.8083 56.5417C28.4139 55.0798 29.4393 53.8303 30.7549 52.9513C32.0706 52.0722 33.6173 51.603 35.1997 51.603V48.4028C33.0528 48.403 30.9512 49.0201 29.1451 50.1808C27.339 51.3415 25.9046 52.9968 25.0126 54.9496C24.1205 56.9024 23.8086 59.0704 24.1138 61.1955C24.4189 63.3206 25.3285 65.3132 26.734 66.936C28.1395 68.5588 29.9818 69.7435 32.0415 70.349C34.1013 70.9545 36.2916 70.9553 38.3518 70.3513C40.4119 69.7472 42.2551 68.5638 43.6617 66.942C45.0684 65.3201 45.9793 63.3282 46.286 61.2033H56.2942C56.6223 62.1372 57.2318 62.9465 58.0389 63.5196C58.8459 64.0927 59.8108 64.4015 60.8007 64.4035V64.4035Z" fill="white" />
  <path d="M60.8009 48.4031C59.3935 48.4033 57.9986 48.6678 56.6888 49.1829L51.6236 40.3193C52.3779 39.4481 52.7992 38.3379 52.8129 37.1857C52.8265 36.0334 52.4315 34.9136 51.698 34.0248C50.9645 33.1361 49.9399 32.5359 48.806 32.3307C47.672 32.1255 46.5021 32.3287 45.5037 32.9041C44.5053 33.4794 43.7429 34.3899 43.352 35.4739C42.961 36.5579 42.9666 37.7453 43.3678 38.8255C43.769 39.9058 44.5399 40.809 45.5438 41.3749C46.5476 41.9408 47.7194 42.1328 48.8513 41.917L55.4418 53.451L56.8316 52.6548C58.2045 51.8707 59.7788 51.5109 61.356 51.6208C62.9331 51.7307 64.4424 52.3053 65.6932 53.2722C66.9441 54.239 67.8805 55.5548 68.3842 57.0534C68.8879 58.552 68.9364 60.1662 68.5235 61.6923C68.1107 63.2184 67.2549 64.588 66.0644 65.6282C64.8738 66.6684 63.4017 67.3326 61.834 67.5369C60.2663 67.7412 58.6732 67.4765 57.2558 66.7762C55.8384 66.0759 54.6602 64.9714 53.8699 63.6021L51.0997 65.2054C52.0829 66.9081 53.4969 68.3221 55.1997 69.3051C56.9025 70.2881 58.834 70.8057 60.8002 70.8056C62.7664 70.8056 64.6979 70.288 66.4007 69.305C68.1034 68.3219 69.5174 66.9079 70.5005 65.2052C71.4836 63.5024 72.0012 61.5709 72.0013 59.6047C72.0014 57.6386 71.4839 55.707 70.5009 54.0042C69.5179 52.3014 68.104 50.8874 66.4013 49.9042C64.6986 48.921 62.7671 48.4033 60.8009 48.4031V48.4031Z" fill="white" />
  <path d="M36.051 54.8891C34.9257 54.6767 33.7615 54.8695 32.7648 55.4334C31.7681 55.9972 31.0031 56.8956 30.6055 57.9695C30.2078 59.0434 30.203 60.2234 30.5921 61.3004C30.9812 62.3774 31.7389 63.282 32.7311 63.8538C33.7233 64.4255 34.8858 64.6277 36.0128 64.4243C37.1397 64.221 38.1583 63.6253 38.8881 62.7428C39.6179 61.8603 40.0117 60.748 39.9998 59.6029C39.988 58.4578 39.5711 57.3539 38.8232 56.4867C41.184 52.3551 44.5761 46.42 44.6241 46.3356L45.4203 44.9465L44.0319 44.1512C42.6569 43.3656 41.5459 42.1895 40.8398 40.772C40.1337 39.3545 39.8641 37.7593 40.0653 36.1885C40.2665 34.6176 40.9293 33.1419 41.9699 31.9481C43.0105 30.7542 44.3819 29.8961 45.9106 29.4823C47.4392 29.0686 49.0563 29.1178 50.5569 29.6238C52.0576 30.1298 53.3743 31.0698 54.3403 32.3247C55.3063 33.5796 55.8782 35.0929 55.9834 36.6731C56.0887 38.2532 55.7226 39.8291 54.9315 41.201L57.7021 42.8043C58.778 40.9414 59.2948 38.8081 59.1906 36.6594C59.0865 34.5106 58.3658 32.4373 57.1147 30.6873C55.8636 28.9372 54.135 27.5844 52.1356 26.7906C50.1361 25.9967 47.9504 25.7954 45.8396 26.2107C43.7288 26.626 41.7822 27.6403 40.2325 29.1325C38.6828 30.6246 37.5956 32.5314 37.1007 34.625C36.6059 36.7186 36.7243 38.9104 37.442 40.9384C38.1596 42.9665 39.446 44.745 41.1475 46.0614C40.4163 47.2497 39.3841 49.0561 37.8294 51.7781L36.051 54.8891Z" fill="white" />
</svg>