<svg width="120" height="40" viewBox="0 0 120 40" fill="none" xmlns="http://www.w3.org/2000/svg">
   <path d="M38.679 34.5066V11.4611H39.93V15.0865C40.0777 14.9259 40.2142 14.7553 40.3385 14.5759C40.8496 13.5147 41.6527 12.6213 42.6535 12.0003C43.6544 11.3793 44.8115 11.0565 45.9892 11.0697C48.8401 10.9846 51.1549 12.0398 52.5165 14.5759C53.3829 16.1513 53.8597 17.9111 53.907 19.7085C53.9544 21.5058 53.571 23.2883 52.7888 24.9072C51.5208 27.7496 48.3891 29.1623 45.0361 28.6431C43.9926 28.5543 42.9881 28.2055 42.114 27.6288C41.24 27.052 40.5242 26.2656 40.0321 25.3412V34.5066H38.679ZM39.93 19.6139C40.0406 20.7372 40.0832 21.5372 40.2108 22.3201C40.7044 25.4008 42.5256 27.2305 45.385 27.5624C46.7276 27.7831 48.1052 27.5313 49.283 26.8501C50.4609 26.1688 51.366 25.1002 51.8442 23.8264C52.3937 22.5161 52.6581 21.104 52.62 19.6837C52.5818 18.2634 52.242 16.8674 51.6229 15.5886C51.1125 14.4468 50.2444 13.5022 49.1498 12.8973C48.0552 12.2924 46.7935 12.0602 45.5552 12.2356C44.3926 12.3198 43.2851 12.7642 42.3868 13.507C41.4885 14.2497 40.8439 15.254 40.5427 16.38C40.2762 17.4452 40.0716 18.525 39.93 19.6139V19.6139Z" fill="black" />
   <path d="M79.4256 22.7456C79.236 24.3682 78.4636 25.8667 77.2521 26.9624C76.0405 28.0582 74.4721 28.6766 72.8387 28.7027C67.5965 28.9665 65.1371 25.4859 64.7456 21.4691C64.4739 19.2877 64.8281 17.0741 65.7668 15.0865C66.4205 13.7231 67.4912 12.603 68.8238 11.8886C70.1564 11.1741 71.6818 10.9022 73.1791 11.1122C74.6027 11.2329 75.9522 11.7983 77.0366 12.7285C78.121 13.6586 78.8854 14.9063 79.2214 16.2949C79.4877 17.5596 79.6837 18.8381 79.8086 20.1245H66.0306C65.7753 23.7668 67.7326 26.6943 70.507 27.4007C73.9621 28.2517 76.9151 26.7539 77.9874 23.469C78.2257 22.6265 78.6597 22.5073 79.4256 22.7456ZM66.0306 18.9586H78.3448C78.2682 15.078 75.8513 12.2696 72.5749 12.2271C68.8645 12.1675 66.1923 14.8737 66.0306 18.9586Z" fill="black" />
   <path d="M81.9616 22.8307H83.1701C83.2147 23.7199 83.5036 24.5796 84.0051 25.3153C84.5065 26.0509 85.2011 26.6341 86.0125 27.0007C87.0313 27.4592 88.1404 27.682 89.2573 27.6525C90.3741 27.623 91.4699 27.3421 92.4632 26.8305C93.0044 26.5865 93.4578 26.1823 93.7622 25.6725C94.0665 25.1627 94.2072 24.5718 94.1652 23.9796C94.1963 23.4084 94.0403 22.8426 93.7209 22.3681C93.4015 21.8935 92.936 21.5361 92.3951 21.3499C91.0675 20.8564 89.6548 20.584 88.3017 20.15C86.8938 19.7491 85.5172 19.2456 84.1828 18.6437C82.0042 17.5799 81.868 13.4355 84.336 12.1249C85.5997 11.4118 87.0218 11.0265 88.4727 11.0042C89.9235 10.9819 91.3569 11.3233 92.6419 11.9973C93.4203 12.4275 94.0491 13.0848 94.4444 13.8815C94.8397 14.6782 94.9828 15.5765 94.8545 16.4566H93.8163C93.8163 16.4055 93.7227 16.363 93.7227 16.3119C93.595 13.0015 90.8207 11.9803 87.8421 12.2696C86.953 12.3793 86.0894 12.6413 85.2891 13.044C84.8083 13.2639 84.4077 13.6276 84.1424 14.0849C83.8772 14.5422 83.7604 15.0706 83.8083 15.5971C83.8098 16.1238 83.9742 16.6372 84.2789 17.0668C84.5836 17.4965 85.0138 17.8214 85.5104 17.9969C86.8209 18.4735 88.1911 18.7799 89.5357 19.1543C90.6165 19.4522 91.7398 19.6479 92.7865 20.0053C93.5253 20.2475 94.1732 20.7084 94.6443 21.3269C95.1154 21.9454 95.3875 22.6924 95.4247 23.469C95.551 24.3199 95.406 25.1889 95.0104 25.9528C94.6147 26.7166 93.9885 27.3363 93.2206 27.724C90.3782 29.3325 85.6976 28.907 83.6126 26.873C83.0842 26.3416 82.6662 25.7108 82.3829 25.017C82.0995 24.3232 81.9563 23.5801 81.9616 22.8307Z" fill="black" />
   <path d="M110.743 16.4566H109.611C109.611 16.3034 109.552 16.1673 109.535 16.0396C109.516 15.1912 109.207 14.3748 108.658 13.7273C108.11 13.0797 107.356 12.6402 106.522 12.4824C104.949 12.031 103.27 12.1117 101.748 12.7121C101.146 12.8847 100.616 13.2473 100.237 13.7458C99.8583 14.2442 99.6508 14.8519 99.6457 15.4779C99.6246 16.0928 99.8162 16.6961 100.188 17.186C100.56 17.676 101.09 18.0225 101.688 18.1671C103.39 18.6948 105.135 19.0182 106.862 19.4947C107.422 19.6291 107.973 19.7968 108.513 19.9968C109.319 20.2852 110.02 20.8101 110.523 21.5029C111.026 22.1956 111.308 23.024 111.333 23.8799C111.358 24.7357 111.124 25.579 110.662 26.2998C110.2 27.0205 109.531 27.5851 108.743 27.9198C107.542 28.4651 106.241 28.7536 104.922 28.7668C103.603 28.78 102.296 28.5176 101.084 27.9964C100.088 27.5666 99.2468 26.842 98.6747 25.92C98.1026 24.9979 97.8267 23.9228 97.8841 22.8392H98.3607H98.9904C99.1951 23.8266 99.6374 24.7493 100.279 25.5273C100.921 26.3053 101.742 26.9151 102.673 27.304C103.603 27.6929 104.614 27.8492 105.618 27.7593C106.623 27.6693 107.59 27.3359 108.437 26.7879C108.952 26.52 109.38 26.1099 109.67 25.6061C109.96 25.1023 110.099 24.526 110.071 23.9455C110.096 23.374 109.935 22.8097 109.611 22.3382C109.287 21.8667 108.818 21.5138 108.275 21.3329C106.947 20.8393 105.535 20.5755 104.182 20.1415C102.766 19.7468 101.381 19.249 100.037 18.6522C97.9097 17.6055 97.7394 13.4951 100.165 12.1845C101.444 11.4415 102.894 11.0424 104.374 11.026C105.853 11.0096 107.311 11.3764 108.607 12.0909C109.348 12.5332 109.944 13.1813 110.323 13.9564C110.703 14.7315 110.848 15.6002 110.743 16.4566V16.4566Z" fill="black" />
   <path d="M36.611 28.2857C36.1655 28.4544 35.6735 28.4541 35.2282 28.2847C34.7829 28.1154 34.415 27.7888 34.1941 27.3666C32.807 25.2901 31.2752 23.3073 29.8029 21.2819L29.1646 20.4308C27.4115 22.7796 25.6585 25.0348 24.0585 27.3751C23.8501 27.7786 23.5021 28.0925 23.0794 28.2585C22.6567 28.4244 22.1881 28.4311 21.7608 28.2772L28.3392 19.4522L22.2204 11.4782C22.6608 11.3191 23.1426 11.3169 23.5845 11.472C24.0264 11.627 24.4012 11.9298 24.6457 12.3292C26.0669 14.4057 27.6413 16.3885 29.2072 18.4905C30.7816 16.4055 32.3389 14.4142 33.7942 12.3547C34.0038 11.9578 34.3519 11.6518 34.7725 11.4949C35.193 11.338 35.6565 11.3411 36.0749 11.5037L33.7005 14.6524C32.6368 16.0566 31.59 17.4693 30.4837 18.8394C30.3946 18.9193 30.3233 19.017 30.2744 19.1262C30.2256 19.2355 30.2004 19.3538 30.2004 19.4734C30.2004 19.5931 30.2256 19.7114 30.2744 19.8207C30.3233 19.9299 30.3946 20.0276 30.4837 20.1075C32.5176 22.8052 34.5345 25.5114 36.611 28.2857V28.2857Z" fill="black" />
   <path d="M64.5413 11.3931V12.5845C63.6806 12.528 62.8176 12.6527 62.008 12.9504C61.1985 13.2481 60.4603 13.7123 59.8412 14.3129C59.2222 14.9135 58.7359 15.6373 58.4138 16.4375C58.0918 17.2377 57.9411 18.0966 57.9715 18.9586C57.9715 21.7613 57.9715 24.5639 57.9715 27.3666C57.9715 27.6645 57.9715 27.9623 57.9715 28.3198H56.7545V11.4611H57.946V14.9163C59.4182 12.3973 61.6904 11.4611 64.5413 11.3931V11.3931Z" fill="black" />
   <path d="M6 19.3415C6.17871 18.4905 6.28935 17.5629 6.53614 16.6949C8.0084 11.4611 14.0081 9.28255 18.1355 12.5249C20.5524 14.4227 21.1566 17.1119 21.0374 20.1415H7.4212C7.19993 25.554 11.1061 28.8219 16.1016 27.1539C16.9119 26.864 17.6373 26.3769 18.2123 25.7366C18.7873 25.0962 19.1937 24.3227 19.395 23.486C19.6588 22.635 20.0843 22.4903 20.8928 22.7371C20.7596 23.7731 20.3933 24.7655 19.8214 25.6396C19.2495 26.5137 18.4868 27.2467 17.5908 27.7836C16.1104 28.5932 14.4119 28.9139 12.7382 28.6999C11.0645 28.4859 9.50133 27.7482 8.27221 26.5922C7.05624 25.225 6.32101 23.4975 6.17871 21.6733C6.17871 21.384 6.06808 21.0946 6.00851 20.8223C6.00284 20.3174 6 19.8238 6 19.3415ZM7.43822 18.9756H19.7524C19.6758 15.0524 17.1994 12.2696 13.8974 12.2441C10.221 12.193 7.5914 14.9163 7.42971 18.9586L7.43822 18.9756Z" fill="black" />
</svg>