<svg viewBox="0 0 50 50" width="35" height="35" xmlns="http://www.w3.org/2000/svg" fill="#000000">
  <path stroke-width="2"  stroke="#999999" fill="none" id="svg_1" d="m14,8c-5.51562,0 -10,4.48438 -10,10c0,0.99219 0.14844,1.97266 0.44141,2.92578c-2.16797,1.69922 -3.44141,4.29297 -3.44141,7.07422c0,5.26563 4.58594,9.51563 9.92188,8.95313c1.49609,3.04687 4.64843,5.04687 8.07812,5.04687c3.21094,0 6.16016,-1.72266 7.76563,-4.45703c0.8789,0.30469 1.79687,0.45703 2.73437,0.45703c2.99609,0 5.71484,-1.54297 7.25,-4.07812c0.42969,0.05468 0.83984,0.07812 1.25,0.07812c6.06641,0 11,-4.93359 11,-11c0,-6.06641 -4.93359,-11 -11,-11c-1.22266,0 -2.41797,0.19922 -3.5625,0.59375c-1.58594,-2.23437 -4.16797,-3.59375 -6.9375,-3.59375c-2.26562,0 -4.375,0.875 -5.95312,2.44141c-1.89063,-2.17578 -4.625,-3.44141 -7.54688,-3.44141z"/>
</svg>
