<svg width="374" height="374" viewBox="0 0 374 374" fill="none" xmlns="http://www.w3.org/2000/svg">
  <path opacity="0.5" fill-rule="evenodd" clip-rule="evenodd" d="M364.013 0H295.008L277.695 17.3125V374H339.032L374 339.032V9.98707C373.834 9.99565 373.668 10 373.5 10C368.253 10 364 5.74671 364 0.5C364 0.332283 364.004 0.165581 364.013 0ZM262.735 0H8.40291C8.41094 0.154818 8.415 0.310684 8.415 0.4675C8.415 5.21635 4.68835 9.0948 0 9.33791V293.217L262.735 30.4825V0ZM262.735 32.2726L0 295.008V365.597C4.53354 365.832 8.16783 369.466 8.40291 374H262.735V32.2726ZM271.15 374V23.8576L275.825 19.1825V374H271.15ZM271.15 22.0674V0H275.825V17.3924L271.15 22.0674ZM293.217 0H277.695V15.5224L293.217 0ZM340.823 374L374 340.823V365.013C373.834 365.004 373.668 365 373.5 365C368.421 365 364.273 368.986 364.013 374H340.823Z" fill="black" />
</svg>