
<svg width="828px" height="716px" viewBox="0 0 828 716" version="1.1" xmlns="http://www.w3.org/2000/svg" xmlns:xlink="http://www.w3.org/1999/xlink">
    <g id="site" stroke="none" stroke-width="1" fill="none" fill-rule="evenodd" opacity="0.5">
        <g id="Artboard" transform="translate(-2159.000000, -2394.000000)">
            <g id="shape1" transform="translate(2159.000000, 2395.000000)">
                <path d="M826.763721,381.385583 C830.653858,494.927579 786.257567,599.084169 712.111146,673.939678 C536.651344,652.877911 366.633548,654.612438 198.349761,714 C104.293619,644.86757 41.5896888,534.987901 37.2414982,409.085088 C29.6896368,190.699585 200.180993,7.7958163 418.272311,0.241573672 C636.363628,-7.31258279 819.212352,163.229052 826.763721,381.385583 Z" id="Path" stroke="#7CA1E0" stroke-width="0.5" fill-rule="nonzero"></path>
                <g id="Group-2" transform="translate(0.000000, 57.000000)" fill="#92C5E9" fill-rule="nonzero">
                    <path d="M158.999704,641.469285 C156.971153,639.487407 153.588214,639.487407 151.785192,641.469285 C149.980958,643.449978 150.206487,646.532899 152.236251,648.513592 C154.490331,650.495469 157.646529,650.495469 159.450763,648.513592 C161.254997,646.532899 161.029468,643.449978 158.999704,641.469285 Z" id="Path"></path>
                    <path d="M119.036734,577.65411 C120.818845,579.821531 120.595931,582.857553 118.367993,584.375564 C116.36177,586.109268 113.019264,585.67555 111.235955,583.508129 L119.036734,577.65411 Z" id="Path"></path>
                    <path d="M141.670574,559.84589 C143.262137,561.849179 143.034596,564.741622 140.76041,566.522323 C138.712542,568.301827 135.528192,567.856652 133.707865,565.85456 L141.670574,559.84589 Z" id="Path"></path>
                    <path d="M158.999704,641.469285 C156.971153,639.487407 153.588214,639.487407 151.785192,641.469285 C149.980958,643.449978 150.206487,646.532899 152.236251,648.513592 C154.490331,650.495469 157.646529,650.495469 159.450763,648.513592 C161.254997,646.532899 161.029468,643.449978 158.999704,641.469285 Z" id="Path"></path>
                    <path d="M137.754769,620.568587 C135.770505,618.577286 132.685057,618.134511 130.700792,620.127002 C128.717713,621.896915 128.717713,625.216543 130.700792,627.209035 C132.685057,629.201526 135.990978,629.422914 137.754769,627.651811 C139.958322,625.880707 139.737848,622.561079 137.754769,620.568587 Z" id="Path"></path>
                    <path d="M117.877729,597.413735 C116.074708,595.229506 112.917297,594.793834 110.663217,596.540044 C108.633453,598.287427 108.407924,601.344174 110.212158,603.528403 C112.01518,605.711458 115.17259,606.148304 117.426671,604.402095 C119.456434,602.654711 119.681964,599.597965 117.877729,597.413735 Z" id="Path"></path>
                    <path d="M178.35569,601.300205 C176.462902,599.452443 173.151795,599.452443 171.259007,601.300205 C169.130893,603.146726 169.130893,606.380309 171.259007,608.4578 C173.151795,610.536532 176.462902,610.305562 178.35569,608.4578 C180.248478,606.380309 180.248478,603.146726 178.35569,601.300205 Z" id="Path"></path>
                    <path d="M159.422856,580.363925 C157.578705,578.275268 154.579945,578.275268 152.274447,580.131713 C150.198382,581.989407 149.967708,585.006911 151.813099,587.096817 C153.65725,589.185474 156.886684,589.417686 158.961508,587.329029 C161.037573,585.471335 161.268247,582.453831 159.422856,580.363925 Z" id="Path"></path>
                    <path d="M158.044738,621.487989 C155.965942,619.474468 152.733502,619.474468 150.885684,621.264131 C148.80813,623.054998 149.039107,626.411669 151.116661,628.426394 C153.195457,630.439915 156.427897,630.439915 158.275715,628.650252 C160.122291,626.635527 159.891314,623.502714 158.044738,621.487989 Z" id="Path"></path>
                    <path d="M138.078632,599.419654 C136.273398,597.367899 133.112116,597.13979 130.855271,598.735327 C128.823017,600.560199 128.597212,603.752498 130.629465,605.805479 C132.660504,608.085343 135.821787,608.313452 137.852826,606.489806 C139.659273,604.664934 139.885079,601.472635 138.078632,599.419654 Z" id="Path"></path>
                    <path d="M179.378665,621.294201 C177.282554,619.46363 174.019987,619.46363 172.156916,621.523177 C170.292592,623.583955 170.292592,626.788379 172.389956,628.620182 C174.486068,630.450754 177.748635,630.450754 179.611706,628.391207 C181.47603,626.330428 181.242989,623.126004 179.378665,621.294201 Z" id="Path"></path>
                    <path d="M158.203367,600.451381 C156.371843,598.408948 153.16452,598.182011 151.103901,600.224444 C149.04205,602.03994 148.812955,605.215837 150.874806,607.257049 C152.935425,609.299482 156.142748,609.299482 157.974273,607.483986 C160.036124,605.442774 160.036124,602.266877 158.203367,600.451381 Z" id="Path"></path>
                    <path d="M139.383858,579.463178 C137.5294,577.430904 134.51388,576.979018 132.195497,578.786563 C130.107829,580.592894 129.643903,583.530156 131.499607,585.788373 C133.354065,588.047805 136.601548,588.273748 138.687969,586.466203 C140.775636,584.658657 141.007599,581.496667 139.383858,579.463178 Z" id="Path"></path>
                    <path d="M198.555007,600.069336 C196.629645,598.199875 193.257995,598.432457 191.332633,600.537016 C189.405976,602.641574 189.405976,605.680235 191.332633,607.550954 C193.498827,609.420415 196.629645,609.186575 198.555007,607.083274 C200.481664,604.978715 200.481664,601.706215 198.555007,600.069336 Z" id="Path"></path>
                    <path d="M179.618406,581.311521 C177.729998,579.403009 174.662604,579.403009 172.538144,581.311521 C170.414954,583.218751 170.178903,586.558647 172.066042,588.465876 C173.954451,590.374388 177.257896,590.374388 179.146304,588.465876 C181.270764,586.320083 181.506815,583.218751 179.618406,581.311521 Z" id="Path"></path>
                    <path d="M161.917625,561.582013 C160.248457,559.477494 157.149854,559.243658 154.765327,561.114342 C152.620535,562.983768 152.14363,566.023629 153.812798,568.126891 C155.480685,570.231411 158.819023,570.465246 160.963815,568.594562 C163.109889,566.725136 163.586794,563.451439 161.917625,561.582013 Z" id="Path"></path>
                    <path d="M179.775281,641.329773 C177.610103,639.497423 174.796537,639.497423 173.064395,641.558817 C171.333417,643.620211 171.54877,647.054636 173.713948,648.886986 L179.775281,641.329773 Z" id="Path"></path>
                    <path d="M198.876404,620.012321 C196.89722,618.372641 194.039581,618.372641 192.280306,620.480802 C190.521031,622.587703 190.521031,625.867065 192.720124,627.739726 L198.876404,620.012321 Z" id="Path"></path>
                    <path d="M99.0577691,574.231606 C97.2653586,572.04865 94.1298446,571.393762 91.8893314,572.921832 C89.6488182,574.449902 89.2019201,577.504868 90.9931261,579.906121 C92.7855367,582.3062 95.9210506,582.742791 98.1615639,581.214721 C100.176821,579.469529 100.624924,576.41339 99.0577691,574.231606 Z" id="Path"></path>
                    <path d="M71.4004127,501.969178 C72.487772,504.638164 71.8353564,507.793963 69.4431659,509.24918 C67.0521446,510.462949 64.0087076,509.491934 62.9213483,506.580194 L71.4004127,501.969178 Z" id="Path"></path>
                    <path d="M97.2875085,489.726027 C98.3805616,492.070083 97.5061192,494.62609 95.1025776,495.904666 C92.6978608,496.970146 89.8570981,496.330858 88.7640449,493.986802 L97.2875085,489.726027 Z" id="Path"></path>
                    <path d="M99.0577691,574.231606 C97.2653586,572.04865 94.1298446,571.393762 91.8893314,572.921832 C89.6488182,574.449902 89.2019201,577.504868 90.9931261,579.906121 C92.7855367,582.3062 95.9210506,582.742791 98.1615639,581.214721 C100.176821,579.469529 100.624924,576.41339 99.0577691,574.231606 Z" id="Path"></path>
                    <path d="M81.1025702,548.211626 C79.5268069,545.566123 76.5981402,544.603652 74.1212487,546.047359 C71.8684281,547.489773 71.1925819,551.099041 72.7695564,553.744544 C74.3465308,556.39134 77.4992684,557.352518 79.7508778,555.669487 C82.2289805,554.22578 82.6795446,550.858423 81.1025702,548.211626 Z" id="Path"></path>
                    <path d="M66.7655241,521.684086 C65.3817419,519.040371 62.1541568,517.839975 59.8490931,519.280709 C57.3121591,520.722735 56.620268,524.086171 58.0040502,526.729885 C59.3878324,529.612646 62.6154175,530.573997 64.9217211,529.13197 C67.2267848,527.691236 68.1493062,524.326508 66.7655241,521.684086 Z" id="Path"></path>
                    <path d="M126.230928,537.556365 C124.81747,535.212547 121.520668,534.745043 119.164905,536.150074 C116.810408,537.790747 116.103679,540.83645 117.752713,543.180269 C119.400481,545.522827 122.462973,545.99159 124.81747,544.58656 C126.937657,542.945887 127.644386,539.665801 126.230928,537.556365 Z" id="Path"></path>
                    <path d="M110.682519,514.35552 C109.285838,512.004822 106.25698,511.299234 103.695353,512.710411 C101.132474,514.120324 100.433507,517.177875 101.831441,519.528573 C103.229375,521.880536 106.489969,522.821321 108.81986,521.174947 C111.148497,519.76377 111.847464,516.707483 110.682519,514.35552 Z" id="Path"></path>
                    <path d="M101.309844,553.193613 C99.7278855,550.959325 96.5615369,550.289039 94.3010753,551.629612 C92.0393977,553.193613 91.3608945,556.320415 93.1702365,558.554704 C94.7534108,561.011219 97.9185434,561.681506 100.180221,560.117504 C102.440683,558.776931 102.893018,555.650129 101.309844,553.193613 Z" id="Path"></path>
                    <path d="M85.8224837,528.973411 C84.4691655,526.531268 81.3126358,525.866422 78.8315525,526.975294 C76.3516818,528.307372 75.6750227,531.41436 77.2538939,533.856504 C78.8315525,536.297453 81.7637418,537.185505 84.2436125,535.854621 C86.4991428,534.30053 87.1758019,531.193541 85.8224837,528.973411 Z" id="Path"></path>
                    <path d="M121.525455,557.461723 C119.926766,555.200549 116.730617,554.748071 114.446776,556.330528 C112.164163,557.914202 111.707395,561.080333 113.306083,563.342724 C114.903544,565.605114 118.100921,566.056376 120.383534,564.473919 C122.667375,562.664006 123.124143,559.497875 121.525455,557.461723 Z" id="Path"></path>
                    <path d="M106.018077,533.258028 C104.628783,531.023741 101.384191,530.131228 99.0678711,531.694027 C96.7503052,533.034599 95.8232788,536.161399 97.445575,538.619114 C99.0678711,541.075628 102.311217,541.522485 104.628783,540.181913 C106.713346,538.395685 107.408616,535.491113 106.018077,533.258028 Z" id="Path"></path>
                    <path d="M91.5023619,509.070759 C90.1420591,506.598141 87.1920929,505.699008 84.6971877,507.047708 C82.2010624,508.396409 81.2933805,511.317384 82.6549034,513.790001 C84.0164262,516.26141 86.9651724,517.160543 89.4612976,515.811843 C91.9562029,514.464351 92.8638848,511.317384 91.5023619,509.070759 Z" id="Path"></path>
                    <path d="M145.253116,539.570331 C143.589986,537.394429 140.502594,536.910607 138.126694,538.603986 C135.752072,540.296065 135.276892,543.440912 136.938744,545.616813 C138.601874,547.794015 141.689267,548.277837 144.065166,546.584458 C146.203476,545.13299 146.677379,541.747532 145.253116,539.570331 Z" id="Path"></path>
                    <path d="M130.734787,517.574038 C129.320043,515.175416 126.256033,514.695433 123.898126,516.135381 C121.541488,517.574038 120.598325,520.693925 122.013069,523.092548 C123.426545,525.49246 126.727614,525.972443 129.084253,524.532495 C131.442159,523.092548 132.149531,519.973951 130.734787,517.574038 Z" id="Path"></path>
                    <path d="M116.346875,494.414559 C115.169074,492.041192 112.108059,491.328799 109.516898,492.516121 C106.927003,493.93963 105.984762,496.789202 107.398123,499.400033 C108.575923,501.774676 111.636939,502.724533 114.226833,501.299747 C116.582435,499.874961 117.524675,496.789202 116.346875,494.414559 Z" id="Path"></path>
                    <path d="M119.101124,577.399077 C117.508337,575.243055 114.323988,574.81301 112.048579,576.321066 C109.774393,577.830282 109.546852,580.847554 111.138415,583.219178 L119.101124,577.399077 Z" id="Path"></path>
                    <path d="M141.573034,559.436032 C139.965227,557.445183 136.980536,557.002508 134.683669,558.550682 C132.388037,560.100045 131.928664,563.197582 133.535236,565.410959 L141.573034,559.436032 Z" id="Path"></path>
                    <path d="M52.2286442,494.995017 C51.0971093,492.372665 47.9300283,491.280018 45.4406515,492.372665 C42.9518831,493.465311 42.0468985,496.305018 43.1781901,498.92737 C44.5356669,501.548548 47.4774143,502.641194 49.9655744,501.548548 C52.4549512,500.67443 53.5852694,497.616194 52.2286442,494.995017 Z" id="Path"></path>
                    <path d="M40.2686914,420.719178 C40.9780106,423.511545 39.5592451,426.305163 36.721587,427.236369 C33.884056,427.933522 31.046525,426.305163 30.3370787,423.511545 L40.2686914,420.719178 Z" id="Path"></path>
                    <path d="M68.3742591,412.928082 C69.0849619,415.215047 67.4266552,417.711137 64.8220184,418.334041 C61.9792069,418.958064 59.1376692,417.711137 58.4269663,415.215047 L68.3742591,412.928082 Z" id="Path"></path>
                    <path d="M52.2286442,494.995017 C51.0971093,492.372665 47.9300283,491.280018 45.4406515,492.372665 C42.9518831,493.465311 42.0468985,496.305018 43.1781901,498.92737 C44.5356669,501.548548 47.4774143,502.641194 49.9655744,501.548548 C52.4549512,500.67443 53.5852694,497.616194 52.2286442,494.995017 Z" id="Path"></path>
                    <path d="M41.2495448,466.632071 C40.3123177,463.781459 37.2666761,462.35743 34.689711,463.306357 C32.1126199,464.256561 30.7068422,467.582275 31.8782816,470.43161 C32.8153828,473.280945 36.0953627,474.943802 38.6724537,473.756047 C41.0152065,472.569569 42.1866459,469.481406 41.2495448,466.632071 Z" id="Path"></path>
                    <path d="M30.1602432,438.043815 C29.2410354,435.190147 26.4832884,433.526785 23.725665,434.240202 C20.9679181,434.95362 19.5891064,438.043815 20.5083142,441.134011 C21.427522,444.225486 24.1852689,445.888847 26.9428923,444.938903 C29.4707756,443.98768 30.8495873,440.896206 30.1602432,438.043815 Z" id="Path"></path>
                    <path d="M86.1029831,464.923346 C85.1742717,462.354599 82.1572077,461.186415 79.6032513,462.354599 C77.0505431,463.521526 75.6574759,466.325166 76.8183652,468.893914 C77.9792545,471.463918 80.7641406,472.632101 83.318097,471.463918 C85.8708052,470.529371 87.2638724,467.49335 86.1029831,464.923346 Z" id="Path"></path>
                    <path d="M76.1237622,438.546112 C75.2150964,435.953246 72.4854303,434.538264 69.756987,435.481585 C67.0273208,436.423639 65.6637107,439.253603 66.5723765,441.846468 C67.4822652,444.440602 70.4394036,445.855583 72.9403746,444.912262 C75.6688178,443.968941 77.0336509,441.140245 76.1237622,438.546112 Z" id="Path"></path>
                    <path d="M59.1027995,476.160479 C57.9503882,473.743474 54.9553579,472.425107 52.4200531,473.304018 C49.8859873,474.402657 48.733576,477.257937 49.8859873,479.89467 C51.0383986,482.530223 54.0334289,483.628861 56.5674946,482.74995 C59.1027995,481.651311 60.2552108,478.796032 59.1027995,476.160479 Z" id="Path"></path>
                    <path d="M49.1497586,448.562152 C48.221795,445.917711 45.2071604,444.596676 42.6555098,445.476971 C39.8722425,446.358451 38.7126621,449.223262 39.6403763,451.866517 C40.5680905,454.510958 43.583224,455.831993 46.1338768,454.950513 C48.6857768,454.070218 50.0777223,451.205407 49.1497586,448.562152 Z" id="Path"></path>
                    <path d="M78.0633859,482.662672 C76.9186879,480.152472 73.9392693,479.010914 71.419455,480.152472 C68.8984085,481.292803 67.7524783,484.260854 69.1275946,486.771054 C70.2735248,489.282482 73.2517112,490.42404 75.7727577,489.282482 C78.292572,488.140924 79.4385022,485.1741 78.0633859,482.662672 Z" id="Path"></path>
                    <path d="M67.1016297,457.308236 C66.173673,454.838234 63.1578137,453.490302 60.60718,454.388924 C58.055299,455.287545 56.6646112,458.206857 57.5913207,460.902722 C58.5192774,463.597379 61.5351367,464.720656 64.0857704,463.822035 C66.8696405,462.698758 68.0283392,459.779445 67.1016297,457.308236 Z" id="Path"></path>
                    <path d="M58.2459355,429.820371 C57.3050987,427.342685 54.4838529,425.765205 51.8965517,426.441268 C49.0753059,427.117331 47.6640507,430.045725 48.6048875,432.749977 C49.5457243,435.453017 52.3669701,436.805143 54.9542712,436.12908 C57.5403079,435.227663 58.9515631,432.299268 58.2459355,429.820371 Z" id="Path"></path>
                    <path d="M105.170193,471.363611 C104.017785,468.948898 101.022761,467.983012 98.4874621,468.948898 C95.953402,470.156255 94.8009933,473.052613 95.953402,475.708798 C97.1058108,478.122213 100.100834,479.32957 102.636133,478.122213 C105.170193,476.916155 106.322602,473.777027 105.170193,471.363611 Z" id="Path"></path>
                    <path d="M94.1743218,446.973431 C93.2134656,444.603057 90.3321885,443.525087 87.689834,444.387463 C85.048771,445.249839 83.6074867,447.835807 84.5683429,450.207341 C85.5279076,452.577716 88.6506902,453.655685 91.2917533,452.577716 C93.6938937,451.930934 94.894964,449.344965 94.1743218,446.973431 Z" id="Path"></path>
                    <path d="M85.2156046,421.931859 C84.5184938,419.276481 81.7313002,417.827386 78.9428572,418.793449 C76.1556635,419.517997 74.761442,422.41489 75.4585527,425.071566 C76.1556635,427.726943 78.9428572,429.176039 81.7313002,428.209975 C84.5184938,427.243911 85.9127153,424.588534 85.2156046,421.931859 Z" id="Path"></path>
                    <path d="M71.9101124,502.899754 C70.8182312,500.217178 67.9762843,498.99723 65.5727354,500.217178 C63.1680111,501.435815 62.293566,504.851671 63.3866224,507.534247 L71.9101124,502.899754 Z" id="Path"></path>
                    <path d="M97.752809,490.102386 C96.5360988,487.742104 93.3739606,486.88382 90.6971981,487.956675 C88.021744,489.02953 86.8050338,491.817801 88.265086,494.178082 L97.752809,490.102386 Z" id="Path"></path>
                    <path d="M22.3140295,409.477929 C21.6306171,406.631576 18.8965999,404.735282 16.1627052,405.209674 C13.4286881,405.921263 11.8339774,408.766341 12.5173898,411.848615 C13.2009248,414.932164 15.9348194,416.828457 18.6688366,416.118144 C21.4027313,415.406556 22.9975644,412.560203 22.3140295,409.477929 Z" id="Path"></path>
                    <path d="M25.8426966,333.90411 C25.8426966,336.677264 23.9612598,339.220461 21.1392942,339.451661 C18.3172021,339.68286 15.7303371,337.602063 15.7303371,334.597709 L25.8426966,333.90411 Z" id="Path"></path>
                    <path d="M53.9325843,331.678082 C53.9325843,334.571424 52.0519151,336.983622 49.2290142,337.224842 C46.407378,337.466062 43.8202247,335.295083 43.8202247,332.401742 L53.9325843,331.678082 Z" id="Path"></path>
                    <path d="M22.3140295,409.477929 C21.6306171,406.631576 18.8965999,404.735282 16.1627052,405.209674 C13.4286881,405.921263 11.8339774,408.766341 12.5173898,411.848615 C13.2009248,414.932164 15.9348194,416.828457 18.6688366,416.118144 C21.4027313,415.406556 22.9975644,412.560203 22.3140295,409.477929 Z" id="Path"></path>
                    <path d="M16.7829158,379.805704 C16.3191884,376.749673 13.7686254,374.870303 10.986261,375.105382 C8.20377201,375.574277 6.34886244,378.395228 6.81258983,381.449995 C7.27631722,384.506025 10.0588063,386.620475 12.6092446,386.150316 C15.3917336,385.680158 17.2466432,382.86047 16.7829158,379.805704 Z" id="Path"></path>
                    <path d="M12.3418083,349.990719 C12.1085051,346.932683 9.54292185,344.816846 6.74390991,345.052079 C3.94502341,345.287313 1.84579582,348.108851 2.3122769,351.165622 C2.54545473,354.223658 5.1111634,356.574729 7.91017534,356.104262 C10.475884,355.633795 12.5751116,353.047491 12.3418083,349.990719 Z" id="Path"></path>
                    <path d="M61.7269906,385.828738 C61.2666013,383.245597 58.5042653,381.36603 55.7431669,381.835921 C52.9808309,382.305813 51.1405112,385.125164 51.8310952,387.708305 C52.2914845,390.527655 55.0525829,392.171013 57.8149189,391.701122 C60.3458226,391.23123 62.1873799,388.648089 61.7269906,385.828738 Z" id="Path"></path>
                    <path d="M57.2841705,359.350989 C56.8281711,356.764181 54.3214007,354.646666 51.5854049,355.117225 C48.8506348,355.352504 46.7986379,357.940577 47.2546372,360.762665 C47.7106365,363.584752 50.2174069,365.466987 52.9534028,364.996429 C55.6881729,364.52587 57.5121701,361.939062 57.2841705,359.350989 Z" id="Path"></path>
                    <path d="M33.6366466,391.321668 C33.1732788,388.704271 30.3930721,386.959341 27.6127407,387.395573 C24.8325339,387.831806 23.2106843,390.449202 23.6740521,393.283542 C24.3691661,396.119054 26.9177513,397.862813 29.6979581,397.208464 C32.2465433,396.554114 34.1000144,393.937891 33.6366466,391.321668 Z" id="Path"></path>
                    <path d="M28.0188708,362.746911 C27.5551435,360.143363 25.0045805,358.189826 22.2220915,358.406886 C19.4397272,358.623945 17.5848176,361.228661 18.048545,364.049269 C18.5122724,366.869877 21.0628354,368.606354 23.8451997,368.389294 C26.6276887,367.955175 28.4825982,365.568686 28.0188708,362.746911 Z" id="Path"></path>
                    <path d="M50.3993706,402.225909 C49.7000328,399.518273 46.903935,397.93811 44.3398218,398.615323 C41.5430974,399.292535 39.9118105,402.000172 40.6108977,404.709022 C41.3101101,407.416659 44.1067092,408.996821 46.903935,408.319609 C49.4669202,407.416659 51.0987084,404.709022 50.3993706,402.225909 Z" id="Path"></path>
                    <path d="M44.8727635,374.838051 C44.4092758,372.08117 41.8586596,370.244485 39.0762372,370.703965 C36.2936901,371.163445 34.4387419,373.689351 34.902479,376.444997 C35.366216,379.201878 37.9168322,381.039799 40.6992546,380.580318 C43.4818017,380.120838 45.3366252,377.593697 44.8727635,374.838051 Z" id="Path"></path>
                    <path d="M41.5556419,346.249894 C41.3266705,343.527904 38.8072457,341.485495 36.0588495,341.71243 C33.3103301,341.939364 31.2489713,344.43564 31.4780659,347.157631 C31.7070374,349.880842 34.2264622,351.92203 36.9749815,351.695096 C39.7233778,351.468161 41.7847365,348.973105 41.5556419,346.249894 Z" id="Path"></path>
                    <path d="M78.4901391,395.579136 C77.7907267,392.916495 74.9943305,391.223389 72.4298183,391.949564 C69.633422,392.674437 68.0014597,395.337078 68.7008721,397.998417 C69.4002845,400.661057 72.1966808,402.355465 74.761193,401.62929 C77.5575892,400.903115 79.1895516,398.240475 78.4901391,395.579136 Z" id="Path"></path>
                    <path d="M72.9626353,370.347386 C72.4987867,367.698895 69.9488666,365.774014 67.1657753,366.255558 C64.3839308,366.737102 62.5285366,369.384298 62.9923852,372.032789 C63.4562337,374.679985 66.0074008,376.60616 68.7892452,376.124616 C71.5723365,375.643073 73.4264838,372.994582 72.9626353,370.347386 Z" id="Path"></path>
                    <path d="M69.6455334,343.846974 C69.4164416,341.184139 66.8964321,339.247531 64.1485626,339.489607 C61.3994613,339.731683 59.3388671,342.152443 59.5679588,345.056052 C59.7970506,347.960964 62.3158284,349.89627 65.0649297,349.412118 C67.8127992,348.929267 69.8746252,346.508508 69.6455334,343.846974 Z" id="Path"></path>
                    <path d="M40.4494382,420.153013 C39.746126,417.35957 36.932499,415.730061 34.1189981,416.428422 C31.3053711,417.126783 29.6640992,419.920226 30.6020589,422.945205 L40.4494382,420.153013 Z" id="Path"></path>
                    <path d="M67.4157303,412.860646 C66.7049633,410.568303 63.863169,409.108826 61.2570233,409.734316 C58.415229,410.359807 56.7567727,412.860646 57.4675397,415.15411 L67.4157303,412.860646 Z" id="Path"></path>
                    <path d="M10.094985,319.317122 C9.86549746,316.237517 7.57123877,313.869863 4.81800495,313.869863 C2.06489452,313.869863 0,316.474409 0,319.554015 C0.22948756,322.632346 2.52374626,325 5.27698007,325 C8.25957807,325 10.3243492,322.395454 10.094985,319.317122 Z" id="Path"></path>
                    <path d="M28.0898876,244.859883 C27.8563,247.522408 25.2860818,249.520197 22.482276,249.298221 C19.6783445,249.076244 17.5754273,246.412525 18.0427283,243.75 L28.0898876,244.859883 Z" id="Path"></path>
                    <path d="M56.1797753,248.46308 C55.9502887,251.209927 53.4271702,253.041979 50.6733313,252.583966 C47.9207262,252.35496 45.8553471,249.835888 46.0848337,247.089041 L56.1797753,248.46308 Z" id="Path"></path>
                    <path d="M10.094985,319.317122 C9.86549746,316.237517 7.57123877,313.869863 4.81800495,313.869863 C2.06489452,313.869863 0,316.474409 0,319.554015 C0.22948756,322.632346 2.52374626,325 5.27698007,325 C8.25957807,325 10.3243492,322.395454 10.094985,319.317122 Z" id="Path"></path>
                    <path d="M10.0965459,288.396302 C10.3256153,285.322459 8.03430483,282.720439 5.28460902,282.720439 C2.53503644,282.483892 0.243602724,285.085912 0.014533286,288.159754 C-0.214659374,291.234869 2.30584378,293.835616 4.82634692,293.835616 C7.80511217,293.835616 9.86735322,291.471416 10.0965459,288.396302 Z" id="Path"></path>
                    <path d="M12.3398141,258.678159 C12.5741263,255.55574 10.7001323,252.912601 7.88901534,252.672316 C5.07802431,252.43203 2.50121955,254.594599 2.26690732,257.717017 C2.03272105,260.840727 3.90671507,263.482575 6.71783206,263.72286 C9.52882309,264.203431 12.1056278,261.800577 12.3398141,258.678159 Z" id="Path"></path>
                    <path d="M52.8089888,304.401023 C52.8089888,301.542955 50.5102758,299.400685 47.7530562,299.400685 C44.9946006,299.400685 42.6966292,301.542955 42.6966292,304.401023 C42.6966292,307.257811 44.9946006,309.639534 47.7530562,309.401362 C50.7401471,309.401362 52.8089888,307.019639 52.8089888,304.401023 Z" id="Path"></path>
                    <path d="M53.9167601,275.819187 C54.1459232,273.032853 51.8542924,270.712156 49.1055676,270.479961 C46.3556107,270.247767 44.0650888,272.336269 43.8360489,275.122603 C43.6068858,277.907689 45.8985166,280.229634 48.6472414,280.461829 C51.3959663,280.694023 53.687597,278.604273 53.9167601,275.819187 Z" id="Path"></path>
                    <path d="M24.7191011,304.409247 C24.7191011,301.795473 22.4208657,299.400685 19.6628596,299.400685 C16.904977,299.400685 14.6067416,301.577659 14.6067416,304.409247 C14.6067416,307.239664 16.904977,309.417808 19.6628596,309.417808 C22.4208657,309.417808 24.7191011,307.021849 24.7191011,304.409247 Z" id="Path"></path>
                    <path d="M24.703273,274.689485 C24.9324387,272.027068 22.6413976,269.585424 19.8920251,269.36465 C17.1427758,269.142682 14.8516115,271.361165 14.622569,274.024776 C14.3934033,276.909161 16.6845676,279.349612 19.4338169,279.349612 C22.1830662,279.571579 24.703273,277.575064 24.703273,274.689485 Z" id="Path"></path>
                    <path d="M39.3100063,318.651424 C39.0804837,315.927367 36.7858755,313.658541 34.0322222,313.885546 C31.2786923,313.885546 29.2134831,316.154372 29.2134831,319.105433 C29.4430057,321.828269 31.7376139,324.098316 34.4911438,323.871311 C37.2447971,323.644306 39.5394054,321.37426 39.3100063,318.651424 Z" id="Path"></path>
                    <path d="M38.186417,289.053185 C38.4156121,286.330722 36.1242774,284.060986 33.3745525,283.834012 C30.6249509,283.608259 28.3334929,285.876775 28.1044211,288.600458 C27.875226,291.322921 30.3957558,293.81841 32.9162856,293.81841 C35.8950823,294.045384 38.186417,292.003842 38.186417,289.053185 Z" id="Path"></path>
                    <path d="M40.4320676,261.455585 C40.6609945,258.732375 38.6000369,256.237318 35.8521756,256.010384 C33.1041911,255.78345 30.5852566,257.824638 30.3563297,260.547848 C30.1272797,263.269839 31.9593104,265.766116 34.9362218,265.99305 C37.6840832,266.219984 39.9739676,264.177576 40.4320676,261.455585 Z" id="Path"></path>
                    <path d="M67.4157303,317.100887 C67.1858478,314.711666 64.8870225,312.756849 62.129668,312.756849 C59.3723136,312.756849 57.3033708,314.928868 57.3033708,317.316921 C57.5332533,319.923344 59.8308427,321.660959 62.5894331,321.660959 C65.3467875,321.443757 67.4157303,319.48894 67.4157303,317.100887 Z" id="Path"></path>
                    <path d="M67.3998963,290.613218 C67.6290919,288.229267 65.3383687,286.060978 62.5880222,286.060978 C59.8389079,285.844149 57.5469525,287.795609 57.317757,290.39639 C57.0897937,292.99717 59.6097124,294.94863 62.1308634,294.94863 C65.1091732,294.94863 67.1707008,292.998336 67.3998963,290.613218 Z" id="Path"></path>
                    <path d="M69.6455243,263.713938 C69.8746161,261.096266 67.8140218,258.715401 65.0649206,258.239228 C62.317051,258.001141 59.7970415,259.905833 59.5679498,262.761592 C59.338858,265.61863 61.4006839,267.998215 64.1485535,268.236301 C66.8976547,268.236301 69.4164325,266.332889 69.6455243,263.713938 Z" id="Path"></path>
                    <path d="M25.8426966,333.210317 C25.6129349,330.436389 23.3145758,328.123746 20.5566933,328.35501 C17.7986872,328.586275 15.7303371,331.130182 15.7303371,333.90411 L25.8426966,333.210317 Z" id="Path"></path>
                    <path d="M53.9325843,330.952034 C53.7027074,328.049142 51.4039382,326.113014 48.6466512,326.113014 C45.8881282,326.35503 43.8202247,328.77519 43.8202247,331.678082 L53.9325843,330.952034 Z" id="Path"></path>
                    <path d="M15.6593201,229.014433 C16.1230475,225.958222 14.268138,223.138367 11.4857737,222.668181 C8.70328467,222.197994 6.15272171,224.312569 5.68899433,227.368781 C5.22526694,230.423728 7.08017648,233.244847 9.86266548,233.715033 C12.6450298,233.950126 15.1955928,231.834288 15.6593201,229.014433 Z" id="Path"></path>
                    <path d="M48.3146067,160.03784 C47.3787521,162.697305 44.5724461,164.249356 41.765637,163.36247 C38.9587021,162.475584 37.5552975,159.816118 38.4909005,156.934932 L48.3146067,160.03784 Z" id="Path"></path>
                    <path d="M75.2808989,168.035659 C74.5624081,170.637082 71.4502356,172.05604 68.817057,171.110068 C65.9430939,170.164096 64.5061123,167.327451 65.4641,164.726027 L75.2808989,168.035659 Z" id="Path"></path>
                    <path d="M15.6593201,229.014433 C16.1230475,225.958222 14.268138,223.138367 11.4857737,222.668181 C8.70328467,222.197994 6.15272171,224.312569 5.68899433,227.368781 C5.22526694,230.423728 7.08017648,233.244847 9.86266548,233.715033 C12.6450298,233.950126 15.1955928,231.834288 15.6593201,229.014433 Z" id="Path"></path>
                    <path d="M21.2612412,199.340744 C21.7207595,196.257296 20.3420811,193.412312 17.5849715,192.700747 C14.827862,191.989182 12.0706288,193.886689 11.3812896,196.968861 C10.692074,200.052309 12.5301471,202.897293 15.2873802,203.608858 C18.0444898,204.083234 20.571902,202.185728 21.2612412,199.340744 Z" id="Path"></path>
                    <path d="M28.9328508,169.601067 C29.8424556,166.76473 28.4780484,163.691925 25.7491118,162.746056 C23.0202974,161.800186 20.2913607,163.691925 19.3817559,166.528263 C18.4721511,169.601067 19.8365583,172.438676 22.565495,173.384546 C25.2943094,174.329144 28.023246,172.438676 28.9328508,169.601067 Z" id="Path"></path>
                    <path d="M60.5956429,221.876724 C61.0587973,219.292308 59.4377567,216.474208 56.660075,216.004314 C53.8811483,215.534421 51.3350439,217.179049 50.6403122,219.997149 C50.1771577,222.815248 51.7981983,225.399664 54.57588,225.869558 C57.3548067,226.339452 60.1324884,224.459876 60.5956429,221.876724 Z" id="Path"></path>
                    <path d="M67.2541079,195.519571 C67.9535153,192.921024 66.3228181,190.08486 63.5251885,189.377089 C60.7288123,188.668048 57.9311827,190.321207 57.4649111,192.921024 C56.7655037,195.755918 58.3974543,198.355735 61.1950839,199.064776 C63.7583243,199.773817 66.5559539,198.119388 67.2541079,195.519571 Z" id="Path"></path>
                    <path d="M32.439721,216.223977 C33.1251166,213.548304 31.2975588,210.87383 28.5560993,210.427884 C25.8147626,209.981939 23.3018092,211.765721 22.6164136,214.440195 C21.9311409,217.115868 23.7586987,219.790342 26.5000354,220.236288 C29.2414949,220.905206 31.7544483,219.121424 32.439721,216.223977 Z" id="Path"></path>
                    <path d="M39.163454,187.200625 C39.8626207,184.317906 38.2313152,181.435187 35.667871,180.47385 C32.8714548,179.752847 30.0749133,181.435187 29.3758719,184.55824 C28.6767052,187.440959 30.3080106,190.565305 32.8714548,191.286308 C35.4347737,192.007311 38.2313152,190.084637 39.163454,187.200625 Z" id="Path"></path>
                    <path d="M44.8728033,232.870952 C45.3365307,230.113635 43.4816211,227.584962 40.6992568,227.125204 C37.9167678,226.665445 35.3662049,228.50448 34.9024775,231.263032 C34.4387501,234.020348 36.2936596,236.777665 39.0761486,237.007544 C41.8585129,237.467303 44.6410019,235.399625 44.8728033,232.870952 Z" id="Path"></path>
                    <path d="M50.4720574,205.261686 C50.9456066,202.548923 49.5249591,200.063438 46.6849371,199.385248 C43.8437694,198.707057 41.0031109,200.289502 40.529689,203.227114 C40.0562671,205.938661 41.7133073,208.651425 44.5538385,209.103552 C47.1572132,209.781743 49.7617336,207.973234 50.4720574,205.261686 Z" id="Path"></path>
                    <path d="M57.0434563,177.832673 C57.9573202,175.319105 56.3592866,172.3483 53.8461607,171.662446 C51.1057971,170.747975 48.3642052,172.3483 47.4503412,175.090487 C46.5377055,177.832673 48.1357392,180.576088 50.6488651,181.261942 C53.3892287,181.947796 56.3592866,180.34747 57.0434563,177.832673 Z" id="Path"></path>
                    <path d="M72.9687142,237.358116 C73.4331253,234.709615 71.3432755,232.062409 68.7890147,231.580863 C66.0037968,231.099318 63.4507844,233.0255 62.9863734,235.672706 C62.5219623,238.321207 64.6105636,240.968413 67.1648244,241.449959 C69.9500424,241.931504 72.5043032,240.005322 72.9687142,237.358116 Z" id="Path"></path>
                    <path d="M77.4495754,211.013383 C77.9127299,208.350722 76.2916893,205.689362 73.5140076,204.963182 C70.736326,204.237002 67.9573992,205.931422 67.4942448,208.592782 C67.0310903,211.255443 68.6521309,214.158862 71.4298126,214.642982 C74.4403165,215.369163 76.986421,213.674742 77.4495754,211.013383 Z" id="Path"></path>
                    <path d="M85.2156046,185.77233 C85.9127153,183.11695 84.5184938,180.460271 81.7313002,179.495505 C78.9428572,178.52944 76.1556635,179.978537 75.4585527,182.633918 C74.761442,185.289298 76.1556635,188.187493 78.9428572,188.912042 C81.7313002,189.878107 84.5184938,188.429009 85.2156046,185.77233 Z" id="Path"></path>
                    <path d="M28.0183684,244.863014 C28.4853755,242.220621 26.6173472,239.579411 23.8153048,239.359212 C21.0131368,238.918813 18.4445352,240.900608 17.9775281,243.762017 L28.0183684,244.863014 Z" id="Path"></path>
                    <path d="M56.1081999,249.315068 C56.5753299,246.56807 54.7080655,244.277878 51.9052854,243.819839 C49.1037609,243.363032 46.5345458,245.193954 46.0674157,247.942185 L56.1081999,249.315068 Z" id="Path"></path>
                    <path d="M39.0124575,140.979726 C39.9286106,138.129245 38.7834808,135.042502 36.2639983,133.854801 C33.7445158,132.904641 30.7669568,134.329881 29.6217039,137.179085 C28.4765742,140.029566 29.8508037,143.35385 32.3702862,144.30401 C35.1187454,145.49171 38.0963044,143.82893 39.0124575,140.979726 Z" id="Path"></path>
                    <path d="M84.2696629,78.5323297 C82.9552068,81.0684225 80.1072184,81.991089 77.6985599,80.6070892 C75.2887236,79.2243296 74.6326733,75.9949969 75.9459517,73.4589041 L84.2696629,78.5323297 Z" id="Path"></path>
                    <path d="M108.988764,93.1507382 C107.651587,95.5252531 104.755568,96.4737824 102.526939,95.0503501 C100.076646,93.6256412 99.4080571,90.5400485 100.522371,87.9280822 L108.988764,93.1507382 Z" id="Path"></path>
                    <path d="M39.0124575,140.979726 C39.9286106,138.129245 38.7834808,135.042502 36.2639983,133.854801 C33.7445158,132.904641 30.7669568,134.329881 29.6217039,137.179085 C28.4765742,140.029566 29.8508037,143.35385 32.3702862,144.30401 C35.1187454,145.49171 38.0963044,143.82893 39.0124575,140.979726 Z" id="Path"></path>
                    <path d="M51.1968691,112.157101 C52.3444778,109.32326 51.4263908,106.254535 48.9028857,105.073768 C46.3781466,103.893001 43.1660762,105.073768 42.0188377,108.142493 C40.8714758,110.976334 42.0188377,114.281212 44.5428364,115.461979 C47.0667118,116.406592 50.0504944,114.989672 51.1968691,112.157101 Z" id="Path"></path>
                    <path d="M64.4873137,85.1999291 C65.8325285,82.8109144 65.1605243,79.7715179 62.6920854,78.468419 C60.224853,77.16532 57.307607,78.2512358 55.7379888,80.6402505 C54.3915675,83.0280976 55.0647781,86.0686618 57.5320106,87.370593 C60.224853,88.673692 63.1408925,87.5877762 64.4873137,85.1999291 Z" id="Path"></path>
                    <path d="M84.988676,142.781836 C86.1235117,140.212999 84.7617089,137.409262 82.2662906,136.241039 C79.769652,135.074071 76.8202994,136.241039 75.6854637,138.811131 C74.550628,141.379967 75.9124308,144.417349 78.4090694,145.350672 C81.1314548,146.518896 84.0808074,145.351928 84.988676,142.781836 Z" id="Path"></path>
                    <path d="M96.1687433,117.496822 C97.3424375,115.149432 96.1687433,112.096183 93.8226169,110.688254 C91.2404897,109.513927 88.1901468,110.453388 87.0164526,113.035644 C85.8427584,115.619162 86.7817137,118.671148 89.363841,119.845475 C91.9447062,120.784936 94.9950491,119.845475 96.1687433,117.496822 Z" id="Path"></path>
                    <path d="M57.9797423,131.504121 C59.1308971,129.056741 57.9797423,125.941568 55.4444759,125.051176 C52.9104485,123.938187 49.9142245,125.273774 48.7618307,127.943752 C47.610676,130.614926 48.7618307,133.507501 51.2970972,134.397893 C53.8311245,135.288284 56.8273485,133.952697 57.9797423,131.504121 Z" id="Path"></path>
                    <path d="M70.3048662,105.084807 C71.4363957,102.638207 70.5311721,99.5255485 68.0418072,98.4134577 C65.553659,97.3013669 62.6128991,98.1910396 61.2550637,100.860058 C59.8972283,103.305461 61.0287578,106.41812 63.516906,107.530211 C66.0062708,108.642302 68.9470308,107.530211 70.3048662,105.084807 Z" id="Path"></path>
                    <path d="M66.0036753,150.31512 C66.9316523,147.781803 65.5396868,144.786419 62.9889975,143.864762 C60.4370608,142.944344 57.4223829,144.32559 56.494406,146.860146 C55.566429,149.623877 56.7264002,152.388847 59.5090838,153.309265 C62.0610205,154.230921 65.0756984,152.849675 66.0036753,150.31512 Z" id="Path"></path>
                    <path d="M77.0808659,123.834548 C78.2320207,121.356986 77.0808659,118.430168 74.5455995,117.304003 C72.0115721,116.177838 69.0153481,117.304003 67.8629543,119.781566 C66.7117996,122.257917 67.8629543,125.185946 70.3982207,126.3109 C72.9322481,127.662298 75.9284721,126.536133 77.0808659,123.834548 Z" id="Path"></path>
                    <path d="M89.2551371,98.6347208 C90.6167327,96.1633121 89.7090023,93.2411281 87.2139636,91.8936364 C84.7177048,90.5449361 81.7688009,91.4440696 80.4072052,93.9154783 C79.0468296,96.3880955 79.95334,99.3090709 82.4495987,100.657771 C84.7177048,102.006472 87.8947614,101.107338 89.2551371,98.6347208 Z" id="Path"></path>
                    <path d="M92.9697305,160.404977 C93.8988427,157.764207 92.5045492,154.884658 89.9460519,153.924378 C87.3888051,152.964098 84.3651265,154.164448 83.4347639,156.803927 C82.5056517,159.444697 83.8999452,162.324246 86.4584425,163.284526 C89.2482799,164.244806 92.0393679,163.044456 92.9697305,160.404977 Z" id="Path"></path>
                    <path d="M103.049879,136.252162 C103.987545,133.881022 102.816723,130.799813 100.238143,129.614243 C97.6608223,128.428673 94.6134089,129.377129 93.6757432,131.985384 C92.5049214,134.592364 93.9101596,137.437733 96.4887402,138.622028 C99.0660606,139.807599 101.879058,138.859142 103.049879,136.252162 Z" id="Path"></path>
                    <path d="M115.220632,111.28495 C116.404507,109.122867 115.457407,106.313322 113.090929,105.23228 C110.486404,103.936193 107.409601,104.799864 106.225726,106.961947 C104.805075,109.122867 105.988951,111.933575 108.593476,113.014617 C110.723179,114.094496 113.801255,113.445871 115.220632,111.28495 Z" id="Path"></path>
                    <path d="M48.0168916,159.160959 C48.974644,156.510157 47.5380154,153.637167 44.9054838,152.753171 C42.2716648,151.870362 39.1597421,153.195169 38.2022472,156.068158 L48.0168916,159.160959 Z" id="Path"></path>
                    <path d="M75.0988833,168.065068 C75.8083752,165.46365 74.3893913,162.62701 71.787921,161.681039 C69.1877221,160.735069 66.1145286,162.154024 65.1685393,164.754172 L75.0988833,168.065068 Z" id="Path"></path>
                    <path d="M80.0347853,59.5252146 C81.6200528,56.9076983 80.9413487,53.5775933 78.6749401,51.912285 C76.4085315,50.4849326 73.236778,51.1986301 71.650292,54.0535054 C70.0650245,56.6697423 70.7449471,60.0011266 73.0101372,61.6655394 C75.2765457,63.0932756 78.4482993,62.1414515 80.0347853,59.5252146 Z" id="Path"></path>
                    <path d="M135.955056,6.9165376 C134.083094,9.30165671 130.808419,9.54009167 128.702462,7.63209899 C126.597763,5.7241063 126.363768,2.38499085 128.23573,0 L135.955056,6.9165376 Z" id="Path"></path>
                    <path d="M157.303371,26.2372749 C155.630459,28.1623566 152.282065,28.3761907 150.130812,26.6650581 C147.978272,24.9539254 147.739101,21.9593283 149.413299,20.0342466 L157.303371,26.2372749 Z" id="Path"></path>
                    <path d="M80.0347853,59.5252146 C81.6200528,56.9076983 80.9413487,53.5775933 78.6749401,51.912285 C76.4085315,50.4849326 73.236778,51.1986301 71.650292,54.0535054 C70.0650245,56.6697423 70.7449471,60.0011266 73.0101372,61.6655394 C75.2765457,63.0932756 78.4482993,62.1414515 80.0347853,59.5252146 Z" id="Path"></path>
                    <path d="M96.7305647,34.2170063 C98.3160478,31.589893 98.0895502,28.246376 95.8245744,26.5745533 C93.5608162,24.9027306 90.38985,25.3803759 88.579087,28.0074892 C86.9936039,30.6346025 87.4465991,33.9782479 89.711575,35.6499422 C91.7488355,37.5606517 94.918584,36.8441196 96.7305647,34.2170063 Z" id="Path"></path>
                    <path d="M114.51632,9.17874713 C116.306725,6.99509494 116.082925,3.93786443 114.068719,2.19094268 C112.055716,0.444020923 108.698706,0.880751362 106.909504,3.06440356 C105.119098,5.24805575 105.119098,8.30528625 107.357105,10.052208 C109.593908,11.7991298 112.727118,11.3623993 114.51632,9.17874713 Z" id="Path"></path>
                    <path d="M123.834672,70.0918879 C125.457491,67.7966277 124.761997,64.8124191 122.443683,63.2048727 C120.126616,61.5973263 116.880976,62.2862748 115.491235,64.5827696 C113.868415,66.8780298 114.563909,69.8622384 116.880976,71.4697848 C119.19929,73.0773312 122.211852,72.3883828 123.834672,70.0918879 Z" id="Path"></path>
                    <path d="M139.446578,46.9905835 C141.114574,44.8952521 140.637637,41.6359451 138.492705,40.006229 C136.108022,38.3765129 133.009217,38.6093832 131.339939,40.9374596 C129.671943,43.2656612 130.14888,46.2922231 132.293812,47.921814 C134.440026,49.5515301 137.7773,49.3187851 139.446578,46.9905835 Z" id="Path"></path>
                    <path d="M100.177647,53.2816428 C101.775149,51.0820216 101.319597,48.0019367 99.0356967,46.4620126 C96.7517964,44.9219701 93.5555639,45.5820221 91.9568338,48.0019367 C90.3593315,50.4219696 90.8161115,53.2816428 93.0987839,54.8220402 C95.3826842,56.3624376 98.5789166,55.7022673 100.177647,53.2816428 Z" id="Path"></path>
                    <path d="M116.865741,30.2092322 C118.667755,27.9473577 118.216949,24.7809036 115.964128,23.1976158 C113.935499,21.614328 110.781066,22.0666785 108.97784,24.3285531 C107.174614,26.5903059 107.62542,29.75676 109.879453,31.3400478 C111.908082,32.9233356 115.062515,32.470985 116.865741,30.2092322 Z" id="Path"></path>
                    <path d="M103.772808,74.458862 C105.179043,72.1371615 104.475926,68.888029 102.13346,67.4950087 C99.7897348,66.1032366 96.5097791,66.7984986 95.1035438,69.1201991 C93.6973085,71.6728214 94.4004262,74.6910321 96.7441517,76.0840524 C99.0866172,77.4758245 102.13346,76.7793143 103.772808,74.458862 Z" id="Path"></path>
                    <path d="M119.278186,50.2433952 C120.876875,47.9815445 120.420107,45.0412358 118.137494,43.2318525 C115.853653,41.6485813 112.657504,42.1009272 111.058815,44.3627779 C109.460126,46.624507 109.916895,49.7910494 112.200735,51.3741989 C114.711733,52.9577134 117.680726,52.5051243 119.278186,50.2433952 Z" id="Path"></path>
                    <path d="M137.059605,27.1938655 C138.883162,25.1264802 138.428192,21.9103279 136.375311,20.0725972 C134.32243,18.234743 131.130285,18.6941757 129.305502,20.7616845 C127.481944,22.8291933 127.710042,26.0453456 129.989795,27.8830763 C132.042677,29.4911524 135.234821,29.2613743 137.059605,27.1938655 Z" id="Path"></path>
                    <path d="M128.548694,89.018183 C129.96353,86.6183457 129.020729,83.4998475 126.660554,82.0599451 C124.301648,80.6200427 121.233421,81.1000102 119.817316,83.4998475 C118.40248,85.8983945 119.110532,89.018183 121.705456,90.4580854 C124.065631,91.8966975 127.132589,91.41673 128.548694,89.018183 Z" id="Path"></path>
                    <path d="M143.029755,66.9930948 C144.434916,64.8443818 143.966529,61.7388301 141.625853,60.0678942 C139.283918,58.3956741 136.006467,58.6345627 134.601306,61.0234486 C132.961951,63.4110502 133.664532,66.516602 136.006467,68.1875378 C138.347144,69.6208694 141.625853,69.1430922 143.029755,66.9930948 Z" id="Path"></path>
                    <path d="M159.613192,46.2701219 C161.258731,44.1289562 161.023654,41.0361897 158.672884,39.1329882 C156.55719,37.2297867 153.267375,37.4676229 151.621836,39.6087886 C149.977561,41.7499543 150.212638,44.8427207 152.562144,46.7459222 C154.677838,48.4112876 157.732575,48.1733234 159.613192,46.2701219 Z" id="Path"></path>
                    <path d="M83.6040383,79.0239726 C84.9185902,76.4878799 84.2613143,73.2585471 81.8513025,71.8757875 C79.6615606,70.4917877 76.5942728,71.4144542 75.2808989,73.950547 L83.6040383,79.0239726 Z" id="Path"></path>
                    <path d="M108.459794,93.4931507 C109.57324,91.0607395 108.905173,87.8999127 106.679478,86.440466 C104.452586,84.982327 101.336135,85.7107426 100,88.3863949 L108.459794,93.4931507 Z" id="Path"></path>
                </g>
                <path d="M201,711 C263.729734,692.294635 361.165,663.376586 467.928546,657.176424 C565.661471,651.500654 662.318151,667.860444 719,674.348097" id="Path" stroke="#C2CEE0" stroke-width="0.5" stroke-linecap="round"></path>
            </g>
        </g>
    </g>
</svg>