<svg width="1514" height="1479" viewBox="0 0 1514 1479" fill="none" xmlns="http://www.w3.org/2000/svg">
<mask id="mask0_256_60" style="mask-type:alpha" maskUnits="userSpaceOnUse" x="0" y="0" width="1514" height="1479">
<rect width="1514" height="1479" fill="url(#paint0_radial_256_60)"/>
</mask>
<g mask="url(#mask0_256_60)">
<g opacity="0.4">
<rect width="1440" height="1320" transform="translate(37 80)" fill="#F7F8F9"/>
<line x1="1501" y1="752.5" x2="13" y2="752.5" stroke="#D5DAE1"/>
<line x1="1501" y1="776.5" x2="13" y2="776.5" stroke="#D5DAE1"/>
<line x1="1501" y1="800.5" x2="13" y2="800.5" stroke="#D5DAE1"/>
<line x1="1501" y1="824.5" x2="13" y2="824.5" stroke="#D5DAE1"/>
<line x1="1501" y1="848.5" x2="13" y2="848.5" stroke="#D5DAE1"/>
<line x1="1501" y1="872.5" x2="13" y2="872.5" stroke="#D5DAE1"/>
<line x1="1501" y1="896.5" x2="13" y2="896.5" stroke="#D5DAE1"/>
<line x1="1501" y1="920.5" x2="13" y2="920.5" stroke="#D5DAE1"/>
<line x1="1501" y1="944.5" x2="13" y2="944.5" stroke="#D5DAE1"/>
<line x1="1501" y1="968.5" x2="13" y2="968.5" stroke="#D5DAE1"/>
<line x1="1501" y1="992.5" x2="13" y2="992.5" stroke="#D5DAE1"/>
<line x1="1501" y1="1016.5" x2="13" y2="1016.5" stroke="#D5DAE1"/>
<line x1="1501" y1="1040.5" x2="13" y2="1040.5" stroke="#D5DAE1"/>
<line x1="1501" y1="1064.5" x2="13" y2="1064.5" stroke="#D5DAE1"/>
<line x1="1501" y1="1088.5" x2="13" y2="1088.5" stroke="#D5DAE1"/>
<line x1="1501" y1="1112.5" x2="13" y2="1112.5" stroke="#D5DAE1"/>
<line x1="1501" y1="1136.5" x2="13" y2="1136.5" stroke="#D5DAE1"/>
<line x1="1501" y1="1160.5" x2="13" y2="1160.5" stroke="#D5DAE1"/>
<line x1="1501" y1="1184.5" x2="13" y2="1184.5" stroke="#D5DAE1"/>
<line x1="1501" y1="1208.5" x2="13" y2="1208.5" stroke="#D5DAE1"/>
<line x1="1501" y1="1232.5" x2="13" y2="1232.5" stroke="#D5DAE1"/>
<line x1="1501" y1="1256.5" x2="13" y2="1256.5" stroke="#D5DAE1"/>
<line x1="1501" y1="1280.5" x2="13" y2="1280.5" stroke="#D5DAE1"/>
<line x1="1501" y1="1304.5" x2="13" y2="1304.5" stroke="#D5DAE1"/>
<line x1="1501" y1="1328.5" x2="13" y2="1328.5" stroke="#D5DAE1"/>
<line x1="1501" y1="1352.5" x2="13" y2="1352.5" stroke="#D5DAE1"/>
<line x1="1501" y1="1376.5" x2="13" y2="1376.5" stroke="#D5DAE1"/>
<line x1="1501" y1="1400.5" x2="13" y2="1400.5" stroke="#D5DAE1"/>
<line x1="1501" y1="1424.5" x2="13" y2="1424.5" stroke="#D5DAE1"/>
<line x1="61.5" y1="728" x2="61.5" y2="1448" stroke="#D5DAE1"/>
<line x1="61.5" y1="728" x2="61.5" y2="1448" stroke="#D5DAE1"/>
<line x1="85.5" y1="728" x2="85.5" y2="1448" stroke="#D5DAE1"/>
<line x1="109.5" y1="728" x2="109.5" y2="1448" stroke="#D5DAE1"/>
<line x1="133.5" y1="728" x2="133.5" y2="1448" stroke="#D5DAE1"/>
<line x1="157.5" y1="728" x2="157.5" y2="1448" stroke="#D5DAE1"/>
<line x1="181.5" y1="728" x2="181.5" y2="1448" stroke="#D5DAE1"/>
<line x1="205.5" y1="728" x2="205.5" y2="1448" stroke="#D5DAE1"/>
<line x1="229.5" y1="728" x2="229.5" y2="1448" stroke="#D5DAE1"/>
<line x1="253.5" y1="728" x2="253.5" y2="1448" stroke="#D5DAE1"/>
<line x1="277.5" y1="728" x2="277.5" y2="1448" stroke="#D5DAE1"/>
<line x1="301.5" y1="728" x2="301.5" y2="1448" stroke="#D5DAE1"/>
<line x1="325.5" y1="728" x2="325.5" y2="1448" stroke="#D5DAE1"/>
<line x1="349.5" y1="728" x2="349.5" y2="1448" stroke="#D5DAE1"/>
<line x1="373.5" y1="728" x2="373.5" y2="1448" stroke="#D5DAE1"/>
<line x1="397.5" y1="728" x2="397.5" y2="1448" stroke="#D5DAE1"/>
<line x1="421.5" y1="728" x2="421.5" y2="1448" stroke="#D5DAE1"/>
<line x1="445.5" y1="728" x2="445.5" y2="1448" stroke="#D5DAE1"/>
<line x1="469.5" y1="728" x2="469.5" y2="1448" stroke="#D5DAE1"/>
<line x1="493.5" y1="728" x2="493.5" y2="1448" stroke="#D5DAE1"/>
<line x1="517.5" y1="728" x2="517.5" y2="1448" stroke="#D5DAE1"/>
<line x1="541.5" y1="728" x2="541.5" y2="1448" stroke="#D5DAE1"/>
<line x1="565.5" y1="728" x2="565.5" y2="1448" stroke="#D5DAE1"/>
<line x1="589.5" y1="728" x2="589.5" y2="1448" stroke="#D5DAE1"/>
<line x1="613.5" y1="728" x2="613.5" y2="1448" stroke="#D5DAE1"/>
<line x1="637.5" y1="728" x2="637.5" y2="1448" stroke="#D5DAE1"/>
<line x1="661.5" y1="728" x2="661.5" y2="1448" stroke="#D5DAE1"/>
<line x1="685.5" y1="728" x2="685.5" y2="1448" stroke="#D5DAE1"/>
<line x1="709.5" y1="728" x2="709.5" y2="1448" stroke="#D5DAE1"/>
<line x1="733.5" y1="728" x2="733.5" y2="1448" stroke="#D5DAE1"/>
<line x1="757.5" y1="728" x2="757.5" y2="1448" stroke="#D5DAE1"/>
<line x1="781.5" y1="728" x2="781.5" y2="1448" stroke="#D5DAE1"/>
<line x1="805.5" y1="728" x2="805.5" y2="1448" stroke="#D5DAE1"/>
<line x1="829.5" y1="728" x2="829.5" y2="1448" stroke="#D5DAE1"/>
<line x1="853.5" y1="728" x2="853.5" y2="1448" stroke="#D5DAE1"/>
<line x1="877.5" y1="728" x2="877.5" y2="1448" stroke="#D5DAE1"/>
<line x1="901.5" y1="728" x2="901.5" y2="1448" stroke="#D5DAE1"/>
<line x1="925.5" y1="728" x2="925.5" y2="1448" stroke="#D5DAE1"/>
<line x1="949.5" y1="728" x2="949.5" y2="1448" stroke="#D5DAE1"/>
<line x1="973.5" y1="728" x2="973.5" y2="1448" stroke="#D5DAE1"/>
<line x1="997.5" y1="728" x2="997.5" y2="1448" stroke="#D5DAE1"/>
<line x1="1021.5" y1="728" x2="1021.5" y2="1448" stroke="#D5DAE1"/>
<line x1="1045.5" y1="728" x2="1045.5" y2="1448" stroke="#D5DAE1"/>
<line x1="1069.5" y1="728" x2="1069.5" y2="1448" stroke="#D5DAE1"/>
<line x1="1093.5" y1="728" x2="1093.5" y2="1448" stroke="#D5DAE1"/>
<line x1="1117.5" y1="728" x2="1117.5" y2="1448" stroke="#D5DAE1"/>
<line x1="1141.5" y1="728" x2="1141.5" y2="1448" stroke="#D5DAE1"/>
<line x1="1165.5" y1="728" x2="1165.5" y2="1448" stroke="#D5DAE1"/>
<line x1="1189.5" y1="728" x2="1189.5" y2="1448" stroke="#D5DAE1"/>
<line x1="1213.5" y1="728" x2="1213.5" y2="1448" stroke="#D5DAE1"/>
<line x1="1237.5" y1="728" x2="1237.5" y2="1448" stroke="#D5DAE1"/>
<line x1="1261.5" y1="728" x2="1261.5" y2="1448" stroke="#D5DAE1"/>
<line x1="1285.5" y1="728" x2="1285.5" y2="1448" stroke="#D5DAE1"/>
<line x1="1309.5" y1="728" x2="1309.5" y2="1448" stroke="#D5DAE1"/>
<line x1="1333.5" y1="728" x2="1333.5" y2="1448" stroke="#D5DAE1"/>
<line x1="1357.5" y1="728" x2="1357.5" y2="1448" stroke="#D5DAE1"/>
<line x1="1381.5" y1="728" x2="1381.5" y2="1448" stroke="#D5DAE1"/>
<line x1="1405.5" y1="728" x2="1405.5" y2="1448" stroke="#D5DAE1"/>
<line x1="1429.5" y1="728" x2="1429.5" y2="1448" stroke="#D5DAE1"/>
<line x1="1453.5" y1="728" x2="1453.5" y2="1448" stroke="#D5DAE1"/>
<line x1="1477.5" y1="728" x2="1477.5" y2="1448" stroke="#D5DAE1"/>
<line x1="37.5" y1="32" x2="37.5" y2="752" stroke="#D5DAE1"/>
<line x1="1501" y1="56.5" x2="13" y2="56.5" stroke="#D5DAE1"/>
<line x1="1501" y1="80.5" x2="13" y2="80.5" stroke="#D5DAE1"/>
<line x1="1501" y1="104.5" x2="13" y2="104.5" stroke="#D5DAE1"/>
<line x1="1501" y1="128.5" x2="13" y2="128.5" stroke="#D5DAE1"/>
<line x1="1501" y1="152.5" x2="13" y2="152.5" stroke="#D5DAE1"/>
<line x1="1501" y1="176.5" x2="13" y2="176.5" stroke="#D5DAE1"/>
<line x1="1501" y1="200.5" x2="13" y2="200.5" stroke="#D5DAE1"/>
<line x1="1501" y1="224.5" x2="13" y2="224.5" stroke="#D5DAE1"/>
<line x1="1501" y1="248.5" x2="13" y2="248.5" stroke="#D5DAE1"/>
<line x1="1501" y1="272.5" x2="13" y2="272.5" stroke="#D5DAE1"/>
<line x1="1501" y1="296.5" x2="13" y2="296.5" stroke="#D5DAE1"/>
<line x1="1501" y1="320.5" x2="13" y2="320.5" stroke="#D5DAE1"/>
<line x1="1501" y1="344.5" x2="13" y2="344.5" stroke="#D5DAE1"/>
<line x1="1501" y1="368.5" x2="13" y2="368.5" stroke="#D5DAE1"/>
<line x1="1501" y1="392.5" x2="13" y2="392.5" stroke="#D5DAE1"/>
<line x1="1501" y1="416.5" x2="13" y2="416.5" stroke="#D5DAE1"/>
<line x1="1501" y1="440.5" x2="13" y2="440.5" stroke="#D5DAE1"/>
<line x1="1501" y1="464.5" x2="13" y2="464.5" stroke="#D5DAE1"/>
<line x1="1501" y1="488.5" x2="13" y2="488.5" stroke="#D5DAE1"/>
<line x1="1501" y1="512.5" x2="13" y2="512.5" stroke="#D5DAE1"/>
<line x1="1501" y1="536.5" x2="13" y2="536.5" stroke="#D5DAE1"/>
<line x1="1501" y1="560.5" x2="13" y2="560.5" stroke="#D5DAE1"/>
<line x1="1501" y1="584.5" x2="13" y2="584.5" stroke="#D5DAE1"/>
<line x1="1501" y1="608.5" x2="13" y2="608.5" stroke="#D5DAE1"/>
<line x1="1501" y1="632.5" x2="13" y2="632.5" stroke="#D5DAE1"/>
<line x1="1501" y1="656.5" x2="13" y2="656.5" stroke="#D5DAE1"/>
<line x1="1501" y1="680.5" x2="13" y2="680.5" stroke="#D5DAE1"/>
<line x1="1501" y1="704.5" x2="13" y2="704.5" stroke="#D5DAE1"/>
<line x1="1501" y1="728.5" x2="13" y2="728.5" stroke="#D5DAE1"/>
<line x1="61.5" y1="32" x2="61.5" y2="752" stroke="#D5DAE1"/>
<line x1="61.5" y1="32" x2="61.5" y2="752" stroke="#D5DAE1"/>
<line x1="85.5" y1="32" x2="85.5" y2="752" stroke="#D5DAE1"/>
<line x1="109.5" y1="32" x2="109.5" y2="752" stroke="#D5DAE1"/>
<line x1="133.5" y1="32" x2="133.5" y2="752" stroke="#D5DAE1"/>
<line x1="157.5" y1="32" x2="157.5" y2="752" stroke="#D5DAE1"/>
<line x1="181.5" y1="32" x2="181.5" y2="752" stroke="#D5DAE1"/>
<line x1="205.5" y1="32" x2="205.5" y2="752" stroke="#D5DAE1"/>
<line x1="229.5" y1="32" x2="229.5" y2="752" stroke="#D5DAE1"/>
<line x1="253.5" y1="32" x2="253.5" y2="752" stroke="#D5DAE1"/>
<line x1="277.5" y1="32" x2="277.5" y2="752" stroke="#D5DAE1"/>
<line x1="301.5" y1="32" x2="301.5" y2="752" stroke="#D5DAE1"/>
<line x1="325.5" y1="32" x2="325.5" y2="752" stroke="#D5DAE1"/>
<line x1="349.5" y1="32" x2="349.5" y2="752" stroke="#D5DAE1"/>
<line x1="373.5" y1="32" x2="373.5" y2="752" stroke="#D5DAE1"/>
<line x1="397.5" y1="32" x2="397.5" y2="752" stroke="#D5DAE1"/>
<line x1="421.5" y1="32" x2="421.5" y2="752" stroke="#D5DAE1"/>
<line x1="445.5" y1="32" x2="445.5" y2="752" stroke="#D5DAE1"/>
<line x1="469.5" y1="32" x2="469.5" y2="752" stroke="#D5DAE1"/>
<line x1="493.5" y1="32" x2="493.5" y2="752" stroke="#D5DAE1"/>
<line x1="517.5" y1="32" x2="517.5" y2="752" stroke="#D5DAE1"/>
<line x1="541.5" y1="32" x2="541.5" y2="752" stroke="#D5DAE1"/>
<line x1="565.5" y1="32" x2="565.5" y2="752" stroke="#D5DAE1"/>
<line x1="589.5" y1="32" x2="589.5" y2="752" stroke="#D5DAE1"/>
<line x1="613.5" y1="32" x2="613.5" y2="752" stroke="#D5DAE1"/>
<line x1="637.5" y1="32" x2="637.5" y2="752" stroke="#D5DAE1"/>
<line x1="661.5" y1="32" x2="661.5" y2="752" stroke="#D5DAE1"/>
<line x1="685.5" y1="32" x2="685.5" y2="752" stroke="#D5DAE1"/>
<line x1="709.5" y1="32" x2="709.5" y2="752" stroke="#D5DAE1"/>
<line x1="733.5" y1="32" x2="733.5" y2="752" stroke="#D5DAE1"/>
<line x1="757.5" y1="32" x2="757.5" y2="752" stroke="#D5DAE1"/>
<line x1="781.5" y1="32" x2="781.5" y2="752" stroke="#D5DAE1"/>
<line x1="805.5" y1="32" x2="805.5" y2="752" stroke="#D5DAE1"/>
<line x1="829.5" y1="32" x2="829.5" y2="752" stroke="#D5DAE1"/>
<line x1="853.5" y1="32" x2="853.5" y2="752" stroke="#D5DAE1"/>
<line x1="877.5" y1="32" x2="877.5" y2="752" stroke="#D5DAE1"/>
<line x1="901.5" y1="32" x2="901.5" y2="752" stroke="#D5DAE1"/>
<line x1="925.5" y1="32" x2="925.5" y2="752" stroke="#D5DAE1"/>
<line x1="949.5" y1="32" x2="949.5" y2="752" stroke="#D5DAE1"/>
<line x1="973.5" y1="32" x2="973.5" y2="752" stroke="#D5DAE1"/>
<line x1="997.5" y1="32" x2="997.5" y2="752" stroke="#D5DAE1"/>
<line x1="1021.5" y1="32" x2="1021.5" y2="752" stroke="#D5DAE1"/>
<line x1="1045.5" y1="32" x2="1045.5" y2="752" stroke="#D5DAE1"/>
<line x1="1069.5" y1="32" x2="1069.5" y2="752" stroke="#D5DAE1"/>
<line x1="1093.5" y1="32" x2="1093.5" y2="752" stroke="#D5DAE1"/>
<line x1="1117.5" y1="32" x2="1117.5" y2="752" stroke="#D5DAE1"/>
<line x1="1141.5" y1="32" x2="1141.5" y2="752" stroke="#D5DAE1"/>
<line x1="1165.5" y1="32" x2="1165.5" y2="752" stroke="#D5DAE1"/>
<line x1="1189.5" y1="32" x2="1189.5" y2="752" stroke="#D5DAE1"/>
<line x1="1213.5" y1="32" x2="1213.5" y2="752" stroke="#D5DAE1"/>
<line x1="1237.5" y1="32" x2="1237.5" y2="752" stroke="#D5DAE1"/>
<line x1="1261.5" y1="32" x2="1261.5" y2="752" stroke="#D5DAE1"/>
<line x1="1285.5" y1="32" x2="1285.5" y2="752" stroke="#D5DAE1"/>
<line x1="1309.5" y1="32" x2="1309.5" y2="752" stroke="#D5DAE1"/>
<line x1="1333.5" y1="32" x2="1333.5" y2="752" stroke="#D5DAE1"/>
<line x1="1357.5" y1="32" x2="1357.5" y2="752" stroke="#D5DAE1"/>
<line x1="1381.5" y1="32" x2="1381.5" y2="752" stroke="#D5DAE1"/>
<line x1="1405.5" y1="32" x2="1405.5" y2="752" stroke="#D5DAE1"/>
<line x1="1429.5" y1="32" x2="1429.5" y2="752" stroke="#D5DAE1"/>
<line x1="1453.5" y1="32" x2="1453.5" y2="752" stroke="#D5DAE1"/>
<line x1="1477.5" y1="32" x2="1477.5" y2="752" stroke="#D5DAE1"/>
</g>
</g>
<defs>
<radialGradient id="paint0_radial_256_60" cx="0" cy="0" r="1" gradientUnits="userSpaceOnUse" gradientTransform="translate(757 739.5) rotate(90) scale(739.5 757)">
<stop stop-color="#F7F8F9"/>
<stop offset="1" stop-color="#F7F8F9" stop-opacity="0"/>
</radialGradient>
</defs>
</svg>
