<svg width="918" height="977" viewBox="0 0 918 977" fill="none" xmlns="http://www.w3.org/2000/svg">
<g clip-path="url(#clip0_242_155)">
<g opacity="0.3">
<mask id="mask0_242_155" style="mask-type:alpha" maskUnits="userSpaceOnUse" x="0" y="-86" width="1080" height="1623">
<rect y="-86" width="1080" height="1623" fill="url(#paint0_radial_242_155)"/>
</mask>
<g mask="url(#mask0_242_155)">
<path d="M58.2539 355.107L65.2418 261.196L157.897 325.592L58.2539 355.107Z" stroke="white"/>
<path d="M229.589 671.721L236.577 577.81L329.233 642.205L229.589 671.721Z" stroke="white"/>
<path d="M556.84 207.419L563.828 113.508L656.484 177.904L556.84 207.419Z" stroke="white"/>
<path d="M728.175 524.033L735.163 430.122L827.819 494.517L728.175 524.033Z" stroke="white"/>
<path d="M143.921 513.414L150.909 419.503L243.565 483.898L143.921 513.414Z" stroke="white"/>
<path d="M315.257 830.028L322.245 736.117L414.9 800.512L315.257 830.028Z" stroke="white"/>
<path d="M642.508 365.726L649.496 271.815L742.151 336.21L642.508 365.726Z" stroke="white"/>
<path d="M813.843 682.34L820.831 588.429L913.487 652.824L813.843 682.34Z" stroke="white"/>
<path d="M58.254 355.107L150.91 419.503L157.897 325.592L58.254 355.107Z" stroke="white"/>
<path d="M229.589 671.721L322.244 736.117L329.232 642.205L229.589 671.721Z" stroke="white"/>
<path d="M556.84 207.419L649.495 271.815L656.483 177.904L556.84 207.419Z" stroke="white"/>
<path d="M728.175 524.033L820.831 588.429L827.819 494.517L728.175 524.033Z" stroke="white"/>
<path d="M143.921 513.414L236.577 577.81L243.565 483.898L143.921 513.414Z" stroke="white"/>
<path d="M315.257 830.028L407.912 894.423L414.9 800.512L315.257 830.028Z" stroke="white"/>
<path d="M642.508 365.726L735.163 430.122L742.151 336.21L642.508 365.726Z" stroke="white"/>
<path d="M813.843 682.34L906.498 746.736L913.486 652.824L813.843 682.34Z" stroke="white"/>
<path d="M157.971 325.57L164.959 231.659L257.615 296.054L157.971 325.57Z" stroke="white"/>
<path d="M329.306 642.183L336.294 548.272L428.95 612.668L329.306 642.183Z" stroke="white"/>
<path d="M656.557 177.882L663.545 83.9706L756.201 148.366L656.557 177.882Z" stroke="white"/>
<path d="M827.893 494.495L834.88 400.584L927.536 464.98L827.893 494.495Z" stroke="white"/>
<path d="M243.639 483.876L250.627 389.965L343.282 454.361L243.639 483.876Z" stroke="white"/>
<path d="M414.974 800.49L421.962 706.579L514.618 770.975L414.974 800.49Z" stroke="white"/>
<path d="M742.225 336.189L749.213 242.277L841.868 306.673L742.225 336.189Z" stroke="white"/>
<path d="M913.56 652.802L920.548 558.891L1013.2 623.287L913.56 652.802Z" stroke="white"/>
<path d="M157.971 325.57L250.627 389.965L257.615 296.054L157.971 325.57Z" stroke="white"/>
<path d="M329.306 642.183L421.962 706.579L428.95 612.668L329.306 642.183Z" stroke="white"/>
<path d="M656.557 177.882L749.213 242.277L756.201 148.366L656.557 177.882Z" stroke="white"/>
<path d="M827.893 494.495L920.548 558.891L927.536 464.98L827.893 494.495Z" stroke="white"/>
<path d="M243.639 483.877L336.294 548.272L343.282 454.361L243.639 483.877Z" stroke="white"/>
<path d="M414.974 800.49L507.629 864.886L514.617 770.974L414.974 800.49Z" stroke="white"/>
<path d="M742.225 336.189L834.88 400.584L841.868 306.673L742.225 336.189Z" stroke="white"/>
<path d="M913.56 652.802L1006.22 717.198L1013.2 623.287L913.56 652.802Z" stroke="white"/>
<path d="M257.688 296.032L264.676 202.121L357.332 266.517L257.688 296.032Z" stroke="white"/>
<path d="M429.024 612.646L436.012 518.734L528.667 583.13L429.024 612.646Z" stroke="white"/>
<path d="M756.274 148.344L763.262 54.433L855.918 118.829L756.274 148.344Z" stroke="white"/>
<path d="M927.61 464.958L934.598 371.046L1027.25 435.442L927.61 464.958Z" stroke="white"/>
<path d="M343.356 454.339L350.344 360.428L442.999 424.823L343.356 454.339Z" stroke="white"/>
<path d="M514.691 770.953L521.679 677.041L614.335 741.437L514.691 770.953Z" stroke="white"/>
<path d="M841.942 306.651L848.93 212.74L941.586 277.135L841.942 306.651Z" stroke="white"/>
<path d="M257.689 296.032L350.344 360.428L357.332 266.516L257.689 296.032Z" stroke="white"/>
<path d="M429.024 612.646L521.679 677.041L528.667 583.13L429.024 612.646Z" stroke="white"/>
<path d="M756.274 148.344L848.93 212.74L855.918 118.828L756.274 148.344Z" stroke="white"/>
<path d="M343.356 454.339L436.012 518.735L442.999 424.823L343.356 454.339Z" stroke="white"/>
<path d="M514.691 770.953L607.347 835.348L614.334 741.437L514.691 770.953Z" stroke="white"/>
<path d="M841.942 306.651L934.598 371.047L941.586 277.135L841.942 306.651Z" stroke="white"/>
<path d="M357.406 266.495L364.394 172.583L457.049 236.979L357.406 266.495Z" stroke="white"/>
<path d="M528.741 583.108L535.729 489.197L628.384 553.592L528.741 583.108Z" stroke="white"/>
<path d="M855.992 118.807L862.98 24.8954L955.635 89.2909L855.992 118.807Z" stroke="white"/>
<path d="M443.073 424.801L450.061 330.89L542.717 395.286L443.073 424.801Z" stroke="white"/>
<path d="M614.409 741.415L621.397 647.504L714.052 711.899L614.409 741.415Z" stroke="white"/>
<path d="M941.66 277.113L948.648 183.202L1041.3 247.598L941.66 277.113Z" stroke="white"/>
<path d="M357.405 266.495L450.061 330.89L457.049 236.979L357.405 266.495Z" stroke="white"/>
<path d="M528.741 583.108L621.396 647.504L628.384 553.593L528.741 583.108Z" stroke="white"/>
<path d="M855.992 118.807L948.647 183.202L955.635 89.2908L855.992 118.807Z" stroke="white"/>
<path d="M443.073 424.801L535.729 489.197L542.717 395.286L443.073 424.801Z" stroke="white"/>
<path d="M614.408 741.415L707.064 805.811L714.052 711.899L614.408 741.415Z" stroke="white"/>
<path d="M457.123 236.957L464.111 143.046L556.766 207.441L457.123 236.957Z" stroke="white"/>
<path d="M628.458 553.571L635.446 459.659L728.101 524.055L628.458 553.571Z" stroke="white"/>
<path d="M955.709 89.2691L962.697 -4.64222L1055.35 59.7533L955.709 89.2691Z" stroke="white"/>
<path d="M542.79 395.264L549.778 301.352L642.434 365.748L542.79 395.264Z" stroke="white"/>
<path d="M714.125 711.877L721.113 617.966L813.769 682.362L714.125 711.877Z" stroke="white"/>
<path d="M457.123 236.957L549.778 301.352L556.766 207.441L457.123 236.957Z" stroke="white"/>
<path d="M628.458 553.571L721.114 617.966L728.102 524.055L628.458 553.571Z" stroke="white"/>
<path d="M542.791 395.264L635.446 459.659L642.434 365.748L542.791 395.264Z" stroke="white"/>
<path d="M714.126 711.878L806.781 776.273L813.769 682.362L714.126 711.878Z" stroke="white"/>
<path d="M164.922 231.669L157.934 325.581L65.2785 261.185L164.922 231.669Z" stroke="white"/>
<path d="M336.257 548.283L329.269 642.194L236.614 577.799L336.257 548.283Z" stroke="white"/>
<path d="M663.508 83.9814L656.52 177.893L563.865 113.497L663.508 83.9814Z" stroke="white"/>
<path d="M834.843 400.595L827.855 494.506L735.2 430.111L834.843 400.595Z" stroke="white"/>
<path d="M250.59 389.976L243.602 483.888L150.946 419.492L250.59 389.976Z" stroke="white"/>
<path d="M421.925 706.59L414.937 800.501L322.281 736.106L421.925 706.59Z" stroke="white"/>
<path d="M749.176 242.288L742.188 336.2L649.532 271.804L749.176 242.288Z" stroke="white"/>
<path d="M920.511 558.902L913.523 652.813L820.868 588.418L920.511 558.902Z" stroke="white"/>
<path d="M250.59 389.976L157.934 325.581L150.946 419.492L250.59 389.976Z" stroke="white"/>
<path d="M421.925 706.59L329.269 642.194L322.281 736.106L421.925 706.59Z" stroke="white"/>
<path d="M749.176 242.288L656.52 177.893L649.532 271.804L749.176 242.288Z" stroke="white"/>
<path d="M920.511 558.902L827.856 494.506L820.868 588.418L920.511 558.902Z" stroke="white"/>
<path d="M336.257 548.283L243.602 483.888L236.614 577.799L336.257 548.283Z" stroke="white"/>
<path d="M507.593 864.897L414.937 800.501L407.949 894.413L507.593 864.897Z" stroke="white"/>
<path d="M834.844 400.595L742.188 336.2L735.2 430.111L834.844 400.595Z" stroke="white"/>
<path d="M1006.18 717.209L913.523 652.813L906.535 746.725L1006.18 717.209Z" stroke="white"/>
<path d="M264.639 202.132L257.651 296.043L164.996 231.648L264.639 202.132Z" stroke="white"/>
<path d="M435.975 518.746L428.987 612.657L336.331 548.261L435.975 518.746Z" stroke="white"/>
<path d="M763.226 54.4438L756.238 148.355L663.582 83.9596L763.226 54.4438Z" stroke="white"/>
<path d="M934.561 371.058L927.573 464.969L834.918 400.573L934.561 371.058Z" stroke="white"/>
<path d="M350.307 360.439L343.319 454.35L250.664 389.954L350.307 360.439Z" stroke="white"/>
<path d="M521.642 677.052L514.654 770.964L421.999 706.568L521.642 677.052Z" stroke="white"/>
<path d="M848.893 212.751L841.905 306.662L749.25 242.266L848.893 212.751Z" stroke="white"/>
<path d="M350.307 360.439L257.652 296.043L250.664 389.954L350.307 360.439Z" stroke="white"/>
<path d="M521.642 677.052L428.986 612.657L421.999 706.568L521.642 677.052Z" stroke="white"/>
<path d="M848.893 212.751L756.238 148.355L749.25 242.266L848.893 212.751Z" stroke="white"/>
<path d="M1020.23 529.364L927.573 464.969L920.585 558.88L1020.23 529.364Z" stroke="white"/>
<path d="M435.975 518.745L343.319 454.35L336.331 548.261L435.975 518.745Z" stroke="white"/>
<path d="M607.31 835.359L514.654 770.964L507.667 864.875L607.31 835.359Z" stroke="white"/>
<path d="M934.561 371.058L841.905 306.662L834.918 400.573L934.561 371.058Z" stroke="white"/>
<path d="M364.357 172.594L357.369 266.506L264.713 202.11L364.357 172.594Z" stroke="white"/>
<path d="M535.692 489.208L528.704 583.119L436.048 518.724L535.692 489.208Z" stroke="white"/>
<path d="M862.943 24.9062L855.955 118.818L763.299 54.422L862.943 24.9062Z" stroke="white"/>
<path d="M450.024 330.901L443.036 424.812L350.381 360.417L450.024 330.901Z" stroke="white"/>
<path d="M621.359 647.515L614.372 741.426L521.716 677.03L621.359 647.515Z" stroke="white"/>
<path d="M948.61 183.213L941.622 277.124L848.967 212.729L948.61 183.213Z" stroke="white"/>
<path d="M450.024 330.901L357.369 266.505L350.381 360.417L450.024 330.901Z" stroke="white"/>
<path d="M621.359 647.515L528.704 583.119L521.716 677.031L621.359 647.515Z" stroke="white"/>
<path d="M948.61 183.213L855.955 118.817L848.967 212.729L948.61 183.213Z" stroke="white"/>
<path d="M535.692 489.208L443.036 424.812L436.048 518.724L535.692 489.208Z" stroke="white"/>
<path d="M707.027 805.822L614.372 741.426L607.384 835.337L707.027 805.822Z" stroke="white"/>
<path d="M1034.28 341.52L941.623 277.124L934.635 371.036L1034.28 341.52Z" stroke="white"/>
<path d="M464.074 143.057L457.086 236.968L364.43 172.572L464.074 143.057Z" stroke="white"/>
<path d="M635.409 459.67L628.421 553.582L535.766 489.186L635.409 459.67Z" stroke="white"/>
<path d="M962.66 -4.63137L955.672 89.2799L863.017 24.8844L962.66 -4.63137Z" stroke="white"/>
<path d="M549.741 301.364L542.753 395.275L450.098 330.879L549.741 301.364Z" stroke="white"/>
<path d="M721.077 617.977L714.089 711.888L621.433 647.493L721.077 617.977Z" stroke="white"/>
<path d="M549.742 301.363L457.086 236.968L450.098 330.879L549.742 301.363Z" stroke="white"/>
<path d="M721.077 617.977L628.421 553.582L621.433 647.493L721.077 617.977Z" stroke="white"/>
<path d="M1048.33 153.675L955.672 89.2799L948.684 183.191L1048.33 153.675Z" stroke="white"/>
<path d="M635.409 459.67L542.754 395.275L535.766 489.186L635.409 459.67Z" stroke="white"/>
<path d="M806.745 776.284L714.089 711.889L707.101 805.8L806.745 776.284Z" stroke="white"/>
<path d="M563.791 113.519L556.803 207.43L464.148 143.035L563.791 113.519Z" stroke="white"/>
<path d="M735.127 430.133L728.139 524.044L635.483 459.649L735.127 430.133Z" stroke="white"/>
<path d="M649.459 271.826L642.471 365.737L549.815 301.342L649.459 271.826Z" stroke="white"/>
<path d="M820.794 588.439L813.806 682.351L721.151 617.955L820.794 588.439Z" stroke="white"/>
<path d="M649.459 271.826L556.803 207.43L549.815 301.342L649.459 271.826Z" stroke="white"/>
<path d="M820.794 588.44L728.138 524.044L721.15 617.955L820.794 588.44Z" stroke="white"/>
<path d="M735.126 430.133L642.471 365.737L635.483 459.648L735.126 430.133Z" stroke="white"/>
<path d="M906.462 746.746L813.806 682.351L806.818 776.262L906.462 746.746Z" stroke="white"/>
<path d="M401.254 988.107L408.242 894.196L500.897 958.591L401.254 988.107Z" stroke="white"/>
<path d="M899.84 840.419L906.828 746.508L999.484 810.903L899.84 840.419Z" stroke="white"/>
<path d="M401.254 988.107L493.91 1052.5L500.897 958.592L401.254 988.107Z" stroke="white"/>
<path d="M899.84 840.419L992.495 904.815L999.483 810.904L899.84 840.419Z" stroke="white"/>
<path d="M500.971 958.57L507.959 864.658L600.615 929.054L500.971 958.57Z" stroke="white"/>
<path d="M500.971 958.57L593.627 1022.97L600.615 929.054L500.971 958.57Z" stroke="white"/>
<path d="M600.688 929.032L607.676 835.121L700.332 899.516L600.688 929.032Z" stroke="white"/>
<path d="M600.689 929.032L693.344 993.428L700.332 899.516L600.689 929.032Z" stroke="white"/>
<path d="M700.406 899.494L707.394 805.583L800.049 869.979L700.406 899.494Z" stroke="white"/>
<path d="M786.073 1057.8L793.061 963.89L885.717 1028.29L786.073 1057.8Z" stroke="white"/>
<path d="M700.405 899.495L793.061 963.89L800.049 869.979L700.405 899.495Z" stroke="white"/>
<path d="M800.123 869.957L807.111 776.046L899.766 840.441L800.123 869.957Z" stroke="white"/>
<path d="M885.79 1028.26L892.778 934.352L985.434 998.748L885.79 1028.26Z" stroke="white"/>
<path d="M800.123 869.957L892.778 934.352L899.766 840.441L800.123 869.957Z" stroke="white"/>
<path d="M507.922 864.669L500.934 958.581L408.278 894.185L507.922 864.669Z" stroke="white"/>
<path d="M1006.51 716.981L999.52 810.893L906.865 746.497L1006.51 716.981Z" stroke="white"/>
<path d="M593.59 1022.98L500.934 958.581L493.946 1052.49L593.59 1022.98Z" stroke="white"/>
<path d="M607.639 835.132L600.651 929.043L507.996 864.647L607.639 835.132Z" stroke="white"/>
<path d="M693.307 993.439L600.652 929.043L593.664 1022.95L693.307 993.439Z" stroke="white"/>
<path d="M707.357 805.594L700.369 899.505L607.713 835.11L707.357 805.594Z" stroke="white"/>
<path d="M793.024 963.901L786.036 1057.81L693.381 993.417L793.024 963.901Z" stroke="white"/>
<path d="M793.024 963.901L700.369 899.505L693.381 993.417L793.024 963.901Z" stroke="white"/>
<path d="M807.074 776.056L800.086 869.968L707.43 805.572L807.074 776.056Z" stroke="white"/>
<path d="M892.741 934.363L885.753 1028.27L793.098 963.879L892.741 934.363Z" stroke="white"/>
<path d="M892.742 934.363L800.086 869.968L793.098 963.879L892.742 934.363Z" stroke="white"/>
<path d="M906.791 746.519L899.803 840.43L807.148 776.035L906.791 746.519Z" stroke="white"/>
<path d="M992.459 904.826L985.471 998.737L892.815 934.342L992.459 904.826Z" stroke="white"/>
<path d="M992.459 904.826L899.803 840.43L892.815 934.342L992.459 904.826Z" stroke="white"/>
<g opacity="0.2">
<path d="M-9.50532 679.538L-5.95313 631.799L-5.41897 631.896L-3.70111 608.81L19.0767 624.64L19.3729 624.297L66.4728 657.032L66.1766 657.375L88.9544 673.205L64.4588 680.461L64.6967 680.901L14.0446 695.905L13.8067 695.465L-10.689 702.721L-8.97116 679.634L-9.50532 679.538Z" stroke="white" stroke-dasharray="72 72"/>
<path d="M317.746 215.236L321.298 167.498L321.833 167.595L323.55 144.508L346.328 160.339L346.624 159.996L393.724 192.73L393.428 193.073L416.206 208.904L391.71 216.16L391.948 216.599L341.296 231.603L341.058 231.163L316.562 238.419L318.28 215.333L317.746 215.236Z" stroke="white" stroke-dasharray="72 72"/>
<path d="M489.081 531.85L492.633 484.111L493.167 484.208L494.885 461.122L517.663 476.952L517.959 476.609L565.059 509.344L564.763 509.687L587.541 525.517L563.045 532.773L563.283 533.213L512.631 548.217L512.393 547.777L487.897 555.033L489.615 531.946L489.081 531.85Z" stroke="white" stroke-dasharray="72 72"/>
<path d="M-95.1728 521.231L-91.6206 473.492L-91.0865 473.589L-89.3686 450.503L-66.5908 466.333L-66.2946 465.991L-19.1947 498.725L-19.4909 499.068L3.28695 514.898L-21.2087 522.154L-20.9708 522.594L-71.6229 537.598L-71.8608 537.158L-96.3565 544.414L-94.6386 521.328L-95.1728 521.231Z" stroke="white" stroke-dasharray="72 72"/>
<path d="M76.1626 837.844L79.7148 790.106L80.249 790.203L81.9669 767.117L104.745 782.947L105.041 782.604L152.141 815.339L151.845 815.682L174.622 831.512L150.127 838.768L150.365 839.208L99.7126 854.212L99.4746 853.772L74.9789 861.028L76.6968 837.941L76.1626 837.844Z" stroke="white" stroke-dasharray="72 72"/>
<path d="M403.414 373.543L406.966 325.804L407.5 325.901L409.218 302.815L431.996 318.645L432.292 318.303L479.392 351.037L479.096 351.38L501.873 367.21L477.378 374.466L477.616 374.906L426.964 389.91L426.726 389.47L402.23 396.726L403.948 373.64L403.414 373.543Z" stroke="white" stroke-dasharray="72 72"/>
<path d="M574.749 690.156L578.301 642.418L578.835 642.515L580.553 619.429L603.331 635.259L603.627 634.916L650.727 667.651L650.431 667.994L673.208 683.824L648.713 691.08L648.951 691.52L598.299 706.524L598.061 706.084L573.565 713.34L575.283 690.253L574.749 690.156Z" stroke="white" stroke-dasharray="72 72"/>
<path d="M11.7927 718.894L58.8926 751.629L59.1888 751.286L81.9667 767.117L83.6845 744.03L84.2187 744.127L87.7709 696.389L87.2367 696.292L88.9546 673.205L64.4589 680.461L64.2209 680.022L13.5688 695.025L13.8068 695.465L-10.6889 702.721L12.0889 718.552L11.7927 718.894Z" stroke="white" stroke-dasharray="72 72"/>
<path d="M339.044 254.593L386.144 287.327L386.44 286.984L409.218 302.815L410.935 279.728L411.47 279.825L415.022 232.087L414.488 231.99L416.206 208.904L391.71 216.16L391.472 215.72L340.82 230.724L341.058 231.163L316.562 238.419L339.34 254.25L339.044 254.593Z" stroke="white" stroke-dasharray="72 72"/>
<path d="M510.379 571.207L557.479 603.941L557.775 603.598L580.553 619.429L582.271 596.342L582.805 596.439L586.357 548.701L585.823 548.604L587.541 525.517L563.045 532.773L562.807 532.334L512.155 547.337L512.393 547.777L487.898 555.033L510.675 570.864L510.379 571.207Z" stroke="white" stroke-dasharray="72 72"/>
<path d="M-73.8747 560.588L-26.7748 593.322L-26.4786 592.979L-3.70082 608.81L-1.98296 585.723L-1.44879 585.82L2.1034 538.082L1.56924 537.985L3.2871 514.898L-21.2086 522.154L-21.4465 521.715L-72.0986 536.718L-71.8607 537.158L-96.3564 544.414L-73.5785 560.245L-73.8747 560.588Z" stroke="white" stroke-dasharray="72 72"/>
<path d="M97.4602 877.201L144.56 909.936L144.856 909.593L167.634 925.423L169.352 902.337L169.886 902.434L173.438 854.696L172.904 854.599L174.622 831.512L150.126 838.768L149.888 838.328L99.2363 853.332L99.4743 853.772L74.9786 861.028L97.7564 876.858L97.4602 877.201Z" stroke="white" stroke-dasharray="72 72"/>
<path d="M424.712 412.9L471.812 445.634L472.108 445.291L494.886 461.122L496.603 438.035L497.138 438.132L500.69 390.394L500.156 390.297L501.874 367.21L477.378 374.466L477.14 374.027L426.488 389.031L426.726 389.47L402.23 396.726L425.008 412.557L424.712 412.9Z" stroke="white" stroke-dasharray="72 72"/>
<path d="M596.047 729.513L643.147 762.248L643.443 761.905L666.221 777.736L667.938 754.649L668.473 754.746L672.025 707.008L671.491 706.911L673.208 683.824L648.713 691.08L648.475 690.64L597.823 705.644L598.061 706.084L573.565 713.34L596.343 729.171L596.047 729.513Z" stroke="white" stroke-dasharray="72 72"/>
<path d="M-81.123 333.386L-77.5708 285.648L-77.0366 285.745L-75.3188 262.659L-52.541 278.489L-52.2448 278.146L-5.14486 310.881L-5.44106 311.224L17.3368 327.054L-7.15892 334.31L-6.92095 334.75L-57.573 349.754L-57.811 349.314L-82.3067 356.57L-80.5888 333.483L-81.123 333.386Z" stroke="white" stroke-dasharray="72 72"/>
<path d="M90.2124 650L93.7646 602.262L94.2988 602.359L96.0167 579.272L118.794 595.103L119.091 594.76L166.191 627.494L165.894 627.837L188.672 643.668L164.177 650.924L164.414 651.363L113.762 666.367L113.524 665.927L89.0287 673.183L90.7466 650.097L90.2124 650Z" stroke="white" stroke-dasharray="72 72"/>
<path d="M417.463 185.698L421.016 137.96L421.55 138.057L423.268 114.971L446.045 130.801L446.342 130.458L493.442 163.193L493.145 163.536L515.923 179.366L491.428 186.622L491.665 187.062L441.013 202.066L440.775 201.626L416.28 208.882L417.998 185.795L417.463 185.698Z" stroke="white" stroke-dasharray="72 72"/>
<path d="M588.798 502.312L592.351 454.574L592.885 454.671L594.603 431.584L617.38 447.415L617.677 447.072L664.777 479.806L664.48 480.149L687.258 495.98L662.762 503.236L663 503.675L612.348 518.679L612.11 518.239L587.615 525.495L589.333 502.409L588.798 502.312Z" stroke="white" stroke-dasharray="72 72"/>
<path d="M4.54447 491.693L8.09667 443.955L8.63083 444.052L10.3487 420.965L33.1265 436.796L33.4227 436.453L80.5226 469.187L80.2264 469.53L103.004 485.361L78.5085 492.617L78.7465 493.056L28.0944 508.06L27.8565 507.621L3.36077 514.876L5.07863 491.79L4.54447 491.693Z" stroke="white" stroke-dasharray="72 72"/>
<path d="M175.88 808.307L179.432 760.569L179.966 760.665L181.684 737.579L204.462 753.41L204.758 753.067L251.858 785.801L251.562 786.144L274.34 801.975L249.844 809.23L250.082 809.67L199.43 824.674L199.192 824.234L174.696 831.49L176.414 808.404L175.88 808.307Z" stroke="white" stroke-dasharray="72 72"/>
<path d="M503.131 344.005L506.683 296.267L507.217 296.364L508.935 273.277L531.713 289.108L532.009 288.765L579.109 321.499L578.813 321.842L601.591 337.673L577.095 344.929L577.333 345.368L526.681 360.372L526.443 359.933L501.947 367.189L503.665 344.102L503.131 344.005Z" stroke="white" stroke-dasharray="72 72"/>
<path d="M674.466 660.619L678.018 612.881L678.552 612.977L680.27 589.891L703.048 605.722L703.344 605.379L750.444 638.113L750.148 638.456L772.926 654.287L748.43 661.542L748.668 661.982L698.016 676.986L697.778 676.546L673.282 683.802L675 660.716L674.466 660.619Z" stroke="white" stroke-dasharray="72 72"/>
<path d="M-59.8249 372.743L-12.725 405.478L-12.4288 405.135L10.349 420.965L12.0668 397.879L12.601 397.976L16.1532 350.237L15.619 350.14L17.3369 327.054L-7.15877 334.31L-7.39673 333.87L-58.0488 348.874L-57.8109 349.314L-82.3065 356.57L-59.5287 372.4L-59.8249 372.743Z" stroke="white" stroke-dasharray="72 72"/>
<path d="M111.51 689.357L158.61 722.091L158.906 721.748L181.684 737.579L183.402 714.493L183.936 714.589L187.488 666.851L186.954 666.754L188.672 643.668L164.176 650.924L163.938 650.484L113.286 665.488L113.524 665.928L89.0284 673.183L111.806 689.014L111.51 689.357Z" stroke="white" stroke-dasharray="72 72"/>
<path d="M438.761 225.055L485.861 257.79L486.157 257.447L508.935 273.277L510.653 250.191L511.187 250.288L514.739 202.549L514.205 202.453L515.923 179.366L491.427 186.622L491.189 186.182L440.537 201.186L440.775 201.626L416.279 208.882L439.057 224.712L438.761 225.055Z" stroke="white" stroke-dasharray="72 72"/>
<path d="M610.096 541.669L657.196 574.403L657.493 574.06L680.27 589.891L681.988 566.805L682.522 566.901L686.075 519.163L685.54 519.066L687.258 495.98L662.763 503.236L662.525 502.796L611.873 517.8L612.111 518.24L587.615 525.495L610.393 541.326L610.096 541.669Z" stroke="white" stroke-dasharray="72 72"/>
<path d="M25.8425 531.05L72.9424 563.784L73.2386 563.442L96.0165 579.272L97.7343 556.186L98.2685 556.283L101.821 508.544L101.287 508.447L103.004 485.361L78.5087 492.617L78.2707 492.177L27.6186 507.181L27.8566 507.621L3.3609 514.877L26.1387 530.707L25.8425 531.05Z" stroke="white" stroke-dasharray="72 72"/>
<path d="M197.178 847.664L244.278 880.398L244.574 880.055L267.352 895.886L269.07 872.799L269.604 872.896L273.156 825.158L272.622 825.061L274.34 801.974L249.844 809.23L249.606 808.791L198.954 823.795L199.192 824.234L174.696 831.49L197.474 847.321L197.178 847.664Z" stroke="white" stroke-dasharray="72 72"/>
<path d="M524.429 383.362L571.529 416.096L571.825 415.754L594.603 431.584L596.321 408.498L596.855 408.595L600.407 360.856L599.873 360.759L601.591 337.673L577.095 344.929L576.857 344.489L526.205 359.493L526.443 359.933L501.947 367.189L524.725 383.019L524.429 383.362Z" stroke="white" stroke-dasharray="72 72"/>
<path d="M695.764 699.976L742.864 732.71L743.16 732.367L765.938 748.198L767.656 725.111L768.19 725.208L771.742 677.47L771.208 677.373L772.926 654.287L748.43 661.543L748.192 661.103L697.54 676.107L697.778 676.546L673.282 683.802L696.06 699.633L695.764 699.976Z" stroke="white" stroke-dasharray="72 72"/>
<path d="M18.5943 303.849L22.1465 256.111L22.6806 256.207L24.3985 233.121L47.1763 248.952L47.4725 248.609L94.5725 281.343L94.2763 281.686L117.054 297.517L92.5584 304.772L92.7964 305.212L42.1443 320.216L41.9063 319.776L17.4106 327.032L19.1285 303.946L18.5943 303.849Z" stroke="white" stroke-dasharray="72 72"/>
<path d="M189.929 620.462L193.481 572.724L194.016 572.821L195.733 549.734L218.511 565.565L218.807 565.222L265.907 597.957L265.611 598.299L288.389 614.13L263.893 621.386L264.131 621.826L213.479 636.83L213.241 636.39L188.746 643.646L190.463 620.559L189.929 620.462Z" stroke="white" stroke-dasharray="72 72"/>
<path d="M517.18 156.161L520.732 108.423L521.267 108.519L522.984 85.433L545.762 101.264L546.058 100.921L593.158 133.655L592.862 133.998L615.64 149.829L591.144 157.084L591.382 157.524L540.73 172.528L540.492 172.088L515.997 179.344L517.714 156.258L517.18 156.161Z" stroke="white" stroke-dasharray="72 72"/>
<path d="M688.516 472.774L692.068 425.036L692.602 425.133L694.32 402.046L717.098 417.877L717.394 417.534L764.494 450.269L764.198 450.611L786.975 466.442L762.48 473.698L762.718 474.138L712.066 489.142L711.828 488.702L687.332 495.958L689.05 472.871L688.516 472.774Z" stroke="white" stroke-dasharray="72 72"/>
<path d="M104.262 462.155L107.814 414.417L108.348 414.514L110.066 391.428L132.844 407.258L133.14 406.915L180.24 439.65L179.944 439.993L202.722 455.823L178.226 463.079L178.464 463.519L127.812 478.523L127.574 478.083L103.078 485.339L104.796 462.252L104.262 462.155Z" stroke="white" stroke-dasharray="72 72"/>
<path d="M275.597 778.769L279.149 731.031L279.684 731.128L281.401 708.041L304.179 723.872L304.475 723.529L351.575 756.263L351.279 756.606L374.057 772.437L349.561 779.693L349.799 780.133L299.147 795.136L298.909 794.697L274.414 801.953L276.131 778.866L275.597 778.769Z" stroke="white" stroke-dasharray="72 72"/>
<path d="M602.848 314.467L606.4 266.729L606.935 266.826L608.652 243.74L631.43 259.57L631.726 259.227L678.826 291.962L678.53 292.305L701.308 308.135L676.812 315.391L677.05 315.831L626.398 330.835L626.16 330.395L601.664 337.651L603.382 314.564L602.848 314.467Z" stroke="white" stroke-dasharray="72 72"/>
<path d="M774.183 631.081L777.735 583.343L778.27 583.44L779.987 560.353L802.765 576.184L803.061 575.841L850.161 608.575L849.865 608.918L872.643 624.749L848.147 632.005L848.385 632.445L797.733 647.448L797.495 647.009L772.999 654.265L774.717 631.178L774.183 631.081Z" stroke="white" stroke-dasharray="72 72"/>
<path d="M39.8919 343.206L86.9918 375.94L87.288 375.597L110.066 391.428L111.784 368.341L112.318 368.438L115.87 320.7L115.336 320.603L117.054 297.516L92.558 304.772L92.3201 304.333L41.668 319.336L41.9059 319.776L17.4102 327.032L40.1881 342.863L39.8919 343.206Z" stroke="white" stroke-dasharray="72 72"/>
<path d="M211.227 659.819L258.327 692.554L258.623 692.211L281.401 708.041L283.119 684.955L283.653 685.052L287.205 637.314L286.671 637.217L288.389 614.13L263.893 621.386L263.655 620.946L213.003 635.95L213.241 636.39L188.746 643.646L211.524 659.476L211.227 659.819Z" stroke="white" stroke-dasharray="72 72"/>
<path d="M538.478 195.518L585.578 228.252L585.874 227.909L608.652 243.74L610.37 220.653L610.904 220.75L614.456 173.012L613.922 172.915L615.64 149.828L591.144 157.084L590.906 156.645L540.254 171.648L540.492 172.088L515.997 179.344L538.774 195.175L538.478 195.518Z" stroke="white" stroke-dasharray="72 72"/>
<path d="M709.814 512.131L756.914 544.866L757.21 544.523L779.988 560.353L781.706 537.267L782.24 537.364L785.792 489.626L785.258 489.529L786.976 466.442L762.48 473.698L762.242 473.258L711.59 488.262L711.828 488.702L687.332 495.958L710.11 511.788L709.814 512.131Z" stroke="white" stroke-dasharray="72 72"/>
<path d="M125.56 501.512L172.66 534.247L172.956 533.904L195.734 549.735L197.452 526.648L197.986 526.745L201.538 479.007L201.004 478.91L202.722 455.823L178.226 463.079L177.988 462.639L127.336 477.643L127.574 478.083L103.078 485.339L125.856 501.17L125.56 501.512Z" stroke="white" stroke-dasharray="72 72"/>
<path d="M296.895 818.126L343.995 850.86L344.291 850.518L367.069 866.348L368.787 843.262L369.321 843.359L372.873 795.62L372.339 795.523L374.057 772.437L349.561 779.693L349.323 779.253L298.671 794.257L298.909 794.697L274.413 801.953L297.191 817.783L296.895 818.126Z" stroke="white" stroke-dasharray="72 72"/>
<path d="M624.146 353.824L671.246 386.559L671.542 386.216L694.32 402.047L696.038 378.96L696.572 379.057L700.124 331.319L699.59 331.222L701.308 308.135L676.812 315.391L676.574 314.951L625.922 329.955L626.16 330.395L601.664 337.651L624.442 353.482L624.146 353.824Z" stroke="white" stroke-dasharray="72 72"/>
<path d="M795.481 670.438L842.581 703.173L842.877 702.83L865.655 718.66L867.373 695.574L867.907 695.671L871.459 647.932L870.925 647.836L872.643 624.749L848.147 632.005L847.909 631.565L797.257 646.569L797.495 647.009L773 654.265L795.777 670.095L795.481 670.438Z" stroke="white" stroke-dasharray="72 72"/>
<path d="M118.312 274.311L121.864 226.573L122.398 226.67L124.116 203.583L146.894 219.414L147.19 219.071L194.29 251.805L193.994 252.148L216.771 267.979L192.276 275.235L192.514 275.675L141.862 290.678L141.624 290.239L117.128 297.495L118.846 274.408L118.312 274.311Z" stroke="white" stroke-dasharray="72 72"/>
<path d="M289.647 590.925L293.199 543.187L293.733 543.283L295.451 520.197L318.229 536.027L318.525 535.685L365.625 568.419L365.328 568.762L388.106 584.592L363.611 591.848L363.849 592.288L313.196 607.292L312.959 606.852L288.463 614.108L290.181 591.022L289.647 590.925Z" stroke="white" stroke-dasharray="72 72"/>
<path d="M616.898 126.623L620.45 78.885L620.984 78.9819L622.702 55.8954L645.48 71.7259L645.776 71.3831L692.876 104.118L692.579 104.46L715.357 120.291L690.862 127.547L691.1 127.987L640.447 142.99L640.21 142.551L615.714 149.807L617.432 126.72L616.898 126.623Z" stroke="white" stroke-dasharray="72 72"/>
<path d="M788.233 443.237L791.785 395.499L792.319 395.595L794.037 372.509L816.815 388.339L817.111 387.997L864.211 420.731L863.915 421.074L886.693 436.904L862.197 444.16L862.435 444.6L811.783 459.604L811.545 459.164L787.049 466.42L788.767 443.334L788.233 443.237Z" stroke="white" stroke-dasharray="72 72"/>
<path d="M203.979 432.618L207.531 384.88L208.065 384.977L209.783 361.89L232.561 377.721L232.857 377.378L279.957 410.112L279.661 410.455L302.439 426.286L277.943 433.542L278.181 433.981L227.529 448.985L227.291 448.545L202.795 455.801L204.513 432.715L203.979 432.618Z" stroke="white" stroke-dasharray="72 72"/>
<path d="M375.314 749.232L378.867 701.493L379.401 701.59L381.119 678.504L403.897 694.334L404.193 693.991L451.293 726.726L450.996 727.069L473.774 742.899L449.279 750.155L449.517 750.595L398.864 765.599L398.626 765.159L374.131 772.415L375.849 749.329L375.314 749.232Z" stroke="white" stroke-dasharray="72 72"/>
<path d="M702.565 284.93L706.118 237.192L706.652 237.289L708.37 214.202L731.148 230.033L731.444 229.69L778.544 262.424L778.247 262.767L801.025 278.598L776.53 285.854L776.768 286.293L726.115 301.297L725.877 300.857L701.382 308.113L703.1 285.027L702.565 284.93Z" stroke="white" stroke-dasharray="72 72"/>
<path d="M873.9 601.544L877.453 553.805L877.987 553.902L879.705 530.816L902.482 546.646L902.779 546.303L949.879 579.038L949.582 579.381L972.36 595.211L947.865 602.467L948.102 602.907L897.45 617.911L897.212 617.471L872.717 624.727L874.435 601.641L873.9 601.544Z" stroke="white" stroke-dasharray="72 72"/>
<path d="M139.609 313.668L186.709 346.402L187.005 346.059L209.783 361.89L211.501 338.804L212.035 338.9L215.587 291.162L215.053 291.065L216.771 267.979L192.275 275.235L192.037 274.795L141.385 289.799L141.623 290.239L117.128 297.495L139.905 313.325L139.609 313.668Z" stroke="white" stroke-dasharray="72 72"/>
<path d="M310.945 630.282L358.044 663.016L358.341 662.673L381.119 678.504L382.836 655.417L383.371 655.514L386.923 607.776L386.389 607.679L388.106 584.593L363.611 591.848L363.373 591.409L312.721 606.413L312.959 606.852L288.463 614.108L311.241 629.939L310.945 630.282Z" stroke="white" stroke-dasharray="72 72"/>
<path d="M638.196 165.98L685.295 198.714L685.592 198.372L708.369 214.202L710.087 191.116L710.622 191.212L714.174 143.474L713.64 143.377L715.357 120.291L690.862 127.547L690.624 127.107L639.972 142.111L640.21 142.551L615.714 149.807L638.492 165.637L638.196 165.98Z" stroke="white" stroke-dasharray="72 72"/>
<path d="M809.531 482.594L856.631 515.328L856.927 514.985L879.705 530.816L881.423 507.729L881.957 507.826L885.509 460.088L884.975 459.991L886.693 436.905L862.197 444.16L861.959 443.721L811.307 458.725L811.545 459.164L787.049 466.42L809.827 482.251L809.531 482.594Z" stroke="white" stroke-dasharray="72 72"/>
<path d="M225.277 471.975L272.377 504.709L272.673 504.366L295.451 520.197L297.169 497.11L297.703 497.207L301.255 449.469L300.721 449.372L302.439 426.286L277.943 433.542L277.705 433.102L227.053 448.106L227.291 448.545L202.795 455.801L225.573 471.632L225.277 471.975Z" stroke="white" stroke-dasharray="72 72"/>
<path d="M396.612 788.588L443.712 821.323L444.008 820.98L466.786 836.811L468.504 813.724L469.038 813.821L472.59 766.083L472.056 765.986L473.774 742.899L449.278 750.155L449.04 749.716L398.388 764.719L398.626 765.159L374.13 772.415L396.908 788.246L396.612 788.588Z" stroke="white" stroke-dasharray="72 72"/>
<path d="M723.863 324.287L770.963 357.021L771.259 356.678L794.037 372.509L795.755 349.422L796.289 349.519L799.841 301.781L799.307 301.684L801.025 278.598L776.529 285.854L776.291 285.414L725.639 300.418L725.877 300.857L701.381 308.113L724.159 323.944L723.863 324.287Z" stroke="white" stroke-dasharray="72 72"/>
<path d="M895.199 640.901L942.298 673.635L942.595 673.292L965.372 689.123L967.09 666.036L967.624 666.133L971.177 618.395L970.642 618.298L972.36 595.211L947.865 602.467L947.627 602.028L896.975 617.031L897.213 617.471L872.717 624.727L895.495 640.558L895.199 640.901Z" stroke="white" stroke-dasharray="72 72"/>
<path d="M218.029 244.774L221.581 197.035L222.115 197.132L223.833 174.046L246.611 189.876L246.907 189.533L294.007 222.268L293.711 222.611L316.489 238.441L291.993 245.697L292.231 246.137L241.579 261.141L241.341 260.701L216.845 267.957L218.563 244.871L218.029 244.774Z" stroke="white" stroke-dasharray="72 72"/>
<path d="M389.364 561.387L392.916 513.649L393.45 513.746L395.168 490.659L417.946 506.49L418.242 506.147L465.342 538.881L465.046 539.224L487.824 555.055L463.328 562.311L463.566 562.751L412.914 577.754L412.676 577.315L388.18 584.571L389.898 561.484L389.364 561.387Z" stroke="white" stroke-dasharray="72 72"/>
<path d="M716.615 97.0856L720.167 49.3474L720.701 49.4443L722.419 26.3578L745.197 42.1884L745.493 41.8455L792.593 74.5799L792.297 74.9228L815.075 90.7533L790.579 98.0093L790.817 98.449L740.165 113.453L739.927 113.013L715.431 120.269L717.149 97.1825L716.615 97.0856Z" stroke="white" stroke-dasharray="72 72"/>
<path d="M887.95 413.699L891.502 365.961L892.037 366.058L893.754 342.971L916.532 358.802L916.828 358.459L963.928 391.193L963.632 391.536L986.41 407.367L961.914 414.623L962.152 415.063L911.5 430.066L911.262 429.627L886.767 436.883L888.484 413.796L887.95 413.699Z" stroke="white" stroke-dasharray="72 72"/>
<path d="M303.696 403.08L307.249 355.342L307.783 355.439L309.501 332.352L332.278 348.183L332.575 347.84L379.674 380.575L379.378 380.917L402.156 396.748L377.66 404.004L377.898 404.444L327.246 419.447L327.008 419.008L302.513 426.264L304.23 403.177L303.696 403.08Z" stroke="white" stroke-dasharray="72 72"/>
<path d="M475.032 719.694L478.584 671.956L479.118 672.053L480.836 648.966L503.614 664.797L503.91 664.454L551.01 697.188L550.714 697.531L573.492 713.362L548.996 720.618L549.234 721.057L498.582 736.061L498.344 735.622L473.848 742.877L475.566 719.791L475.032 719.694Z" stroke="white" stroke-dasharray="72 72"/>
<path d="M802.283 255.392L805.835 207.654L806.369 207.751L808.087 184.664L830.865 200.495L831.161 200.152L878.261 232.887L877.965 233.229L900.743 249.06L876.247 256.316L876.485 256.756L825.833 271.759L825.595 271.32L801.099 278.576L802.817 255.489L802.283 255.392Z" stroke="white" stroke-dasharray="72 72"/>
<path d="M239.326 284.13L286.426 316.865L286.723 316.522L309.5 332.352L311.218 309.266L311.752 309.363L315.305 261.625L314.77 261.528L316.488 238.441L291.993 245.697L291.755 245.257L241.103 260.261L241.34 260.701L216.845 267.957L239.623 283.787L239.326 284.13Z" stroke="white" stroke-dasharray="72 72"/>
<path d="M410.662 600.744L457.762 633.479L458.058 633.136L480.836 648.966L482.554 625.88L483.088 625.977L486.64 578.238L486.106 578.141L487.824 555.055L463.328 562.311L463.09 561.871L412.438 576.875L412.676 577.315L388.18 584.571L410.958 600.401L410.662 600.744Z" stroke="white" stroke-dasharray="72 72"/>
<path d="M737.913 136.442L785.013 169.177L785.309 168.834L808.087 184.664L809.805 161.578L810.339 161.675L813.891 113.937L813.357 113.84L815.075 90.7532L790.579 98.0091L790.341 97.5694L739.689 112.573L739.927 113.013L715.431 120.269L738.209 136.099L737.913 136.442Z" stroke="white" stroke-dasharray="72 72"/>
<path d="M909.248 453.056L956.348 485.791L956.644 485.448L979.422 501.278L981.14 478.192L981.674 478.289L985.226 430.55L984.692 430.453L986.41 407.367L961.914 414.623L961.677 414.183L911.024 429.187L911.262 429.627L886.767 436.883L909.545 452.713L909.248 453.056Z" stroke="white" stroke-dasharray="72 72"/>
<path d="M324.994 442.437L372.094 475.172L372.39 474.829L395.168 490.659L396.886 467.573L397.42 467.67L400.973 419.931L400.438 419.835L402.156 396.748L377.661 404.004L377.423 403.564L326.77 418.568L327.008 419.008L302.513 426.264L325.291 442.094L324.994 442.437Z" stroke="white" stroke-dasharray="72 72"/>
<path d="M496.329 759.051L543.429 791.785L543.725 791.442L566.503 807.273L568.221 784.186L568.755 784.283L572.307 736.545L571.773 736.448L573.491 713.362L548.996 720.618L548.758 720.178L498.105 735.182L498.343 735.621L473.848 742.877L496.626 758.708L496.329 759.051Z" stroke="white" stroke-dasharray="72 72"/>
<path d="M823.58 294.749L870.68 327.484L870.976 327.141L893.754 342.971L895.472 319.885L896.006 319.982L899.558 272.244L899.024 272.147L900.742 249.06L876.246 256.316L876.009 255.876L825.356 270.88L825.594 271.32L801.099 278.576L823.877 294.406L823.58 294.749Z" stroke="white" stroke-dasharray="72 72"/>
<path d="M94.7958 602.467L91.2437 650.205L90.7095 650.108L88.9916 673.194L66.2138 657.364L65.9176 657.707L18.8177 624.972L19.1139 624.629L-3.66392 608.799L20.8318 601.543L20.5938 601.103L71.2459 586.099L71.4839 586.539L95.9795 579.283L94.2617 602.37L94.7958 602.467Z" stroke="white" stroke-dasharray="72 72"/>
<path d="M422.047 138.165L418.495 185.903L417.96 185.806L416.243 208.893L393.465 193.062L393.169 193.405L346.069 160.671L346.365 160.328L323.587 144.497L348.083 137.241L347.845 136.801L398.497 121.798L398.735 122.237L423.231 114.981L421.513 138.068L422.047 138.165Z" stroke="white" stroke-dasharray="72 72"/>
<path d="M593.382 454.779L589.83 502.517L589.296 502.42L587.578 525.506L564.8 509.676L564.504 510.019L517.404 477.284L517.7 476.941L494.922 461.111L519.418 453.855L519.18 453.415L569.832 438.411L570.07 438.851L594.566 431.595L592.848 454.682L593.382 454.779Z" stroke="white" stroke-dasharray="72 72"/>
<path d="M9.12837 444.16L5.57617 491.898L5.04201 491.801L3.32415 514.888L-19.4537 499.057L-19.7499 499.4L-66.8498 466.665L-66.5536 466.323L-89.3314 450.492L-64.8357 443.236L-65.0737 442.796L-14.4216 427.793L-14.1836 428.232L10.3121 420.976L8.5942 444.063L9.12837 444.16Z" stroke="white" stroke-dasharray="72 72"/>
<path d="M180.463 760.773L176.911 808.511L176.377 808.415L174.659 831.501L151.881 815.671L151.585 816.013L104.485 783.279L104.781 782.936L82.0036 767.106L106.499 759.85L106.261 759.41L156.913 744.406L157.151 744.846L181.647 737.59L179.929 760.676L180.463 760.773Z" stroke="white" stroke-dasharray="72 72"/>
<path d="M507.714 296.472L504.162 344.21L503.628 344.113L501.91 367.2L479.132 351.369L478.836 351.712L431.736 318.977L432.032 318.635L409.255 302.804L433.75 295.548L433.512 295.108L484.164 280.105L484.402 280.544L508.898 273.288L507.18 296.375L507.714 296.472Z" stroke="white" stroke-dasharray="72 72"/>
<path d="M679.05 613.085L675.498 660.823L674.963 660.727L673.246 683.813L650.468 667.983L650.172 668.325L603.072 635.591L603.368 635.248L580.59 619.418L605.086 612.162L604.848 611.722L655.5 596.718L655.738 597.158L680.233 589.902L678.516 612.988L679.05 613.085Z" stroke="white" stroke-dasharray="72 72"/>
<path d="M-12.1697 404.803L-59.2696 372.068L-59.5658 372.411L-82.3436 356.581L-84.0615 379.667L-84.5956 379.57L-88.1478 427.309L-87.6137 427.405L-89.3315 450.492L-64.8358 443.236L-64.5979 443.676L-13.9458 428.672L-14.1838 428.232L10.3119 420.976L-12.4659 405.146L-12.1697 404.803Z" stroke="white" stroke-dasharray="72 72"/>
<path d="M159.166 721.417L112.066 688.682L111.77 689.025L88.9918 673.194L87.274 696.281L86.7398 696.184L83.1876 743.922L83.7218 744.019L82.0039 767.106L106.5 759.85L106.738 760.29L157.39 745.286L157.152 744.846L181.647 737.59L158.87 721.759L159.166 721.417Z" stroke="white" stroke-dasharray="72 72"/>
<path d="M486.417 257.115L439.317 224.38L439.021 224.723L416.243 208.893L414.525 231.979L413.991 231.882L410.439 279.621L410.973 279.717L409.255 302.804L433.751 295.548L433.989 295.988L484.641 280.984L484.403 280.544L508.898 273.288L486.121 257.458L486.417 257.115Z" stroke="white" stroke-dasharray="72 72"/>
<path d="M657.752 573.729L610.652 540.994L610.356 541.337L587.578 525.506L585.86 548.593L585.326 548.496L581.774 596.234L582.308 596.331L580.59 619.418L605.086 612.162L605.324 612.602L655.976 597.598L655.738 597.158L680.233 589.902L657.456 574.071L657.752 573.729Z" stroke="white" stroke-dasharray="72 72"/>
<path d="M73.4978 563.11L26.3979 530.375L26.1017 530.718L3.32388 514.888L1.60601 537.974L1.07185 537.877L-2.48034 585.615L-1.94618 585.712L-3.66404 608.799L20.8316 601.543L21.0696 601.983L71.7217 586.979L71.4837 586.539L95.9794 579.283L73.2016 563.453L73.4978 563.11Z" stroke="white" stroke-dasharray="72 72"/>
<path d="M244.833 879.723L197.733 846.989L197.437 847.332L174.659 831.501L172.941 854.588L172.407 854.491L168.855 902.229L169.389 902.326L167.671 925.413L192.167 918.157L192.405 918.596L243.057 903.593L242.819 903.153L267.315 895.897L244.537 880.066L244.833 879.723Z" stroke="white" stroke-dasharray="72 72"/>
<path d="M572.084 415.422L524.984 382.687L524.688 383.03L501.91 367.2L500.192 390.286L499.658 390.189L496.106 437.927L496.64 438.024L494.922 461.111L519.418 453.855L519.656 454.295L570.308 439.291L570.07 438.851L594.566 431.595L571.788 415.765L572.084 415.422Z" stroke="white" stroke-dasharray="72 72"/>
<path d="M743.42 732.035L696.32 699.301L696.024 699.644L673.246 683.813L671.528 706.9L670.994 706.803L667.442 754.541L667.976 754.638L666.258 777.725L690.754 770.469L690.991 770.908L741.644 755.905L741.406 755.465L765.901 748.209L743.123 732.378L743.42 732.035Z" stroke="white" stroke-dasharray="72 72"/>
<path d="M23.1777 256.315L19.6255 304.053L19.0913 303.957L17.3735 327.043L-5.40434 311.213L-5.70054 311.555L-52.8004 278.821L-52.5042 278.478L-75.282 262.648L-50.7864 255.392L-51.0243 254.952L-0.372227 239.948L-0.134262 240.388L24.3614 233.132L22.6435 256.218L23.1777 256.315Z" stroke="white" stroke-dasharray="72 72"/>
<path d="M194.513 572.929L190.961 620.667L190.427 620.57L188.709 643.657L165.931 627.826L165.635 628.169L118.535 595.435L118.831 595.092L96.0534 579.261L120.549 572.005L120.311 571.566L170.963 556.562L171.201 557.002L195.697 549.746L193.979 572.832L194.513 572.929Z" stroke="white" stroke-dasharray="72 72"/>
<path d="M521.764 108.627L518.212 156.365L517.678 156.269L515.96 179.355L493.182 163.525L492.886 163.867L445.786 131.133L446.082 130.79L423.304 114.96L447.8 107.704L447.562 107.264L498.214 92.26L498.452 92.6998L522.948 85.4438L521.23 108.53L521.764 108.627Z" stroke="white" stroke-dasharray="72 72"/>
<path d="M693.099 425.241L689.547 472.979L689.013 472.882L687.295 495.969L664.517 480.138L664.221 480.481L617.121 447.747L617.417 447.404L594.639 431.573L619.135 424.317L618.897 423.878L669.549 408.874L669.787 409.314L694.283 402.058L692.565 425.144L693.099 425.241Z" stroke="white" stroke-dasharray="72 72"/>
<path d="M108.845 414.622L105.293 462.36L104.759 462.263L103.041 485.35L80.2631 469.519L79.9669 469.862L32.867 437.128L33.1632 436.785L10.3854 420.954L34.8811 413.698L34.6431 413.259L85.2952 398.255L85.5332 398.695L110.029 391.439L108.311 414.525L108.845 414.622Z" stroke="white" stroke-dasharray="72 72"/>
<path d="M280.181 731.236L276.628 778.974L276.094 778.877L274.376 801.964L251.599 786.133L251.302 786.476L204.202 753.741L204.499 753.399L181.721 737.568L206.217 730.312L205.979 729.872L256.631 714.868L256.869 715.308L281.364 708.052L279.646 731.139L280.181 731.236Z" stroke="white" stroke-dasharray="72 72"/>
<path d="M607.432 266.934L603.879 314.672L603.345 314.575L601.627 337.662L578.85 321.831L578.553 322.174L531.453 289.44L531.75 289.097L508.972 273.266L533.467 266.01L533.23 265.571L583.882 250.567L584.12 251.007L608.615 243.751L606.897 266.837L607.432 266.934Z" stroke="white" stroke-dasharray="72 72"/>
<path d="M778.767 583.548L775.215 631.286L774.681 631.189L772.963 654.276L750.185 638.445L749.889 638.788L702.789 606.053L703.085 605.711L680.307 589.88L704.803 582.624L704.565 582.184L755.217 567.18L755.455 567.62L779.951 560.364L778.233 583.451L778.767 583.548Z" stroke="white" stroke-dasharray="72 72"/>
<path d="M87.5476 375.265L40.4477 342.531L40.1515 342.874L17.3737 327.043L15.6558 350.13L15.1217 350.033L11.5695 397.771L12.1036 397.868L10.3858 420.954L34.8814 413.698L35.1194 414.138L85.7715 399.134L85.5335 398.695L110.029 391.439L87.2514 375.608L87.5476 375.265Z" stroke="white" stroke-dasharray="72 72"/>
<path d="M258.883 691.879L211.783 659.145L211.486 659.487L188.709 643.657L186.991 666.743L186.457 666.646L182.904 714.385L183.439 714.482L181.721 737.568L206.216 730.312L206.454 730.752L257.106 715.748L256.868 715.308L281.364 708.052L258.586 692.222L258.883 691.879Z" stroke="white" stroke-dasharray="72 72"/>
<path d="M586.134 227.577L539.034 194.843L538.737 195.186L515.96 179.355L514.242 202.442L513.708 202.345L510.155 250.083L510.69 250.18L508.972 273.266L533.467 266.01L533.705 266.45L584.357 251.446L584.119 251.007L608.615 243.751L585.837 227.92L586.134 227.577Z" stroke="white" stroke-dasharray="72 72"/>
<path d="M757.469 544.191L710.369 511.457L710.073 511.799L687.295 495.969L685.577 519.055L685.043 518.958L681.491 566.697L682.025 566.794L680.307 589.88L704.803 582.624L705.041 583.064L755.693 568.06L755.455 567.62L779.951 560.364L757.173 544.534L757.469 544.191Z" stroke="white" stroke-dasharray="72 72"/>
<path d="M173.215 533.572L126.115 500.838L125.819 501.181L103.041 485.35L101.323 508.436L100.789 508.34L97.2369 556.078L97.7711 556.175L96.0532 579.261L120.549 572.005L120.787 572.445L171.439 557.441L171.201 557.001L195.697 549.745L172.919 533.915L173.215 533.572Z" stroke="white" stroke-dasharray="72 72"/>
<path d="M344.551 850.186L297.451 817.451L297.154 817.794L274.377 801.964L272.659 825.05L272.125 824.953L268.572 872.692L269.107 872.788L267.389 895.875L291.884 888.619L292.122 889.059L342.774 874.055L342.536 873.615L367.032 866.359L344.254 850.529L344.551 850.186Z" stroke="white" stroke-dasharray="72 72"/>
<path d="M671.802 385.884L624.702 353.15L624.405 353.493L601.628 337.662L599.91 360.748L599.376 360.652L595.823 408.39L596.358 408.487L594.64 431.573L619.135 424.317L619.373 424.757L670.025 409.753L669.787 409.313L694.283 402.058L671.505 386.227L671.802 385.884Z" stroke="white" stroke-dasharray="72 72"/>
<path d="M843.136 702.498L796.037 669.763L795.74 670.106L772.963 654.276L771.245 677.362L770.711 677.265L767.158 725.004L767.692 725.101L765.975 748.187L790.47 740.931L790.708 741.371L841.36 726.367L841.122 725.927L865.618 718.671L842.84 702.841L843.136 702.498Z" stroke="white" stroke-dasharray="72 72"/>
<path d="M122.895 226.778L119.343 274.516L118.809 274.419L117.091 297.506L94.3129 281.675L94.0167 282.018L46.9168 249.283L47.213 248.941L24.4352 233.11L48.9309 225.854L48.6929 225.414L99.345 210.41L99.583 210.85L124.079 203.594L122.361 226.681L122.895 226.778Z" stroke="white" stroke-dasharray="72 72"/>
<path d="M294.23 543.391L290.678 591.13L290.144 591.033L288.426 614.119L265.648 598.289L265.352 598.632L218.252 565.897L218.548 565.554L195.771 549.724L220.266 542.468L220.028 542.028L270.68 527.024L270.918 527.464L295.414 520.208L293.696 543.295L294.23 543.391Z" stroke="white" stroke-dasharray="72 72"/>
<path d="M621.481 79.0896L617.929 126.828L617.395 126.731L615.677 149.818L592.899 133.987L592.603 134.33L545.503 101.595L545.799 101.253L523.022 85.422L547.517 78.166L547.279 77.7263L597.931 62.7224L598.169 63.1622L622.665 55.9062L620.947 78.9928L621.481 79.0896Z" stroke="white" stroke-dasharray="72 72"/>
<path d="M792.817 395.703L789.265 443.442L788.73 443.345L787.013 466.431L764.235 450.601L763.939 450.944L716.839 418.209L717.135 417.866L694.357 402.036L718.853 394.78L718.615 394.34L769.267 379.336L769.505 379.776L794.001 372.52L792.283 395.607L792.817 395.703Z" stroke="white" stroke-dasharray="72 72"/>
<path d="M208.563 385.085L205.011 432.823L204.477 432.726L202.759 455.812L179.981 439.982L179.685 440.325L132.585 407.59L132.881 407.247L110.103 391.417L134.599 384.161L134.361 383.721L185.013 368.717L185.251 369.157L209.747 361.901L208.029 384.988L208.563 385.085Z" stroke="white" stroke-dasharray="72 72"/>
<path d="M379.898 701.698L376.346 749.436L375.812 749.339L374.094 772.426L351.316 756.595L351.02 756.938L303.92 724.204L304.216 723.861L281.438 708.03L305.934 700.774L305.696 700.335L356.348 685.331L356.586 685.771L381.082 678.515L379.364 701.601L379.898 701.698Z" stroke="white" stroke-dasharray="72 72"/>
<path d="M707.149 237.397L703.597 285.135L703.063 285.038L701.345 308.124L678.567 292.294L678.271 292.637L631.171 259.902L631.467 259.559L608.689 243.729L633.185 236.473L632.947 236.033L683.599 221.029L683.837 221.469L708.333 214.213L706.615 237.3L707.149 237.397Z" stroke="white" stroke-dasharray="72 72"/>
<path d="M878.484 554.01L874.932 601.748L874.398 601.651L872.68 624.738L849.902 608.907L849.606 609.25L802.506 576.516L802.802 576.173L780.025 560.342L804.52 553.086L804.282 552.647L854.934 537.643L855.172 538.083L879.668 530.827L877.95 553.913L878.484 554.01Z" stroke="white" stroke-dasharray="72 72"/>
<path d="M187.265 345.728L140.165 312.993L139.869 313.336L117.091 297.505L115.373 320.592L114.839 320.495L111.287 368.233L111.821 368.33L110.103 391.417L134.599 384.161L134.837 384.601L185.489 369.597L185.251 369.157L209.747 361.901L186.969 346.07L187.265 345.728Z" stroke="white" stroke-dasharray="72 72"/>
<path d="M358.6 662.341L311.5 629.607L311.204 629.95L288.426 614.119L286.708 637.206L286.174 637.109L282.622 684.847L283.156 684.944L281.438 708.031L305.934 700.775L306.172 701.214L356.824 686.21L356.586 685.771L381.081 678.515L358.304 662.684L358.6 662.341Z" stroke="white" stroke-dasharray="72 72"/>
<path d="M685.851 198.04L638.751 165.305L638.455 165.648L615.677 149.817L613.959 172.904L613.425 172.807L609.873 220.545L610.407 220.642L608.689 243.729L633.185 236.473L633.423 236.913L684.075 221.909L683.837 221.469L708.332 214.213L685.555 198.382L685.851 198.04Z" stroke="white" stroke-dasharray="72 72"/>
<path d="M857.186 514.653L810.086 481.919L809.79 482.262L787.012 466.431L785.294 489.518L784.76 489.421L781.208 537.159L781.742 537.256L780.024 560.343L804.52 553.087L804.758 553.526L855.41 538.522L855.172 538.083L879.668 530.827L856.89 514.996L857.186 514.653Z" stroke="white" stroke-dasharray="72 72"/>
<path d="M272.932 504.034L225.832 471.3L225.536 471.643L202.758 455.812L201.041 478.899L200.506 478.802L196.954 526.54L197.488 526.637L195.771 549.724L220.266 542.468L220.504 542.907L271.156 527.904L270.918 527.464L295.414 520.208L272.636 504.377L272.932 504.034Z" stroke="white" stroke-dasharray="72 72"/>
<path d="M444.268 820.648L397.168 787.914L396.872 788.257L374.094 772.426L372.376 795.513L371.842 795.416L368.29 843.154L368.824 843.251L367.106 866.337L391.602 859.081L391.84 859.521L442.492 844.517L442.254 844.078L466.749 836.822L443.972 820.991L444.268 820.648Z" stroke="white" stroke-dasharray="72 72"/>
<path d="M771.519 356.346L724.419 323.612L724.123 323.955L701.345 308.124L699.627 331.211L699.093 331.114L695.541 378.852L696.075 378.949L694.357 402.036L718.853 394.78L719.091 395.219L769.743 380.216L769.505 379.776L794 372.52L771.223 356.689L771.519 356.346Z" stroke="white" stroke-dasharray="72 72"/>
<path d="M942.854 672.96L895.754 640.226L895.458 640.569L872.68 624.738L870.962 647.825L870.428 647.728L866.876 695.466L867.41 695.563L865.692 718.649L890.188 711.393L890.426 711.833L941.078 696.829L940.84 696.39L965.335 689.134L942.558 673.303L942.854 672.96Z" stroke="white" stroke-dasharray="72 72"/>
<path d="M222.612 197.24L219.06 244.978L218.526 244.881L216.808 267.968L194.03 252.137L193.734 252.48L146.634 219.746L146.93 219.403L124.153 203.572L148.648 196.316L148.41 195.877L199.062 180.873L199.3 181.313L223.796 174.057L222.078 197.143L222.612 197.24Z" stroke="white" stroke-dasharray="72 72"/>
<path d="M393.948 513.854L390.396 561.592L389.861 561.495L388.143 584.582L365.366 568.751L365.069 569.094L317.97 536.36L318.266 536.017L295.488 520.186L319.984 512.93L319.746 512.49L370.398 497.487L370.636 497.926L395.131 490.67L393.414 513.757L393.948 513.854Z" stroke="white" stroke-dasharray="72 72"/>
<path d="M721.199 49.552L717.646 97.2903L717.112 97.1934L715.394 120.28L692.617 104.449L692.32 104.792L645.221 72.0578L645.517 71.7149L622.739 55.8844L647.235 48.6284L646.997 48.1887L697.649 33.1848L697.887 33.6246L722.382 26.3686L720.665 49.4552L721.199 49.552Z" stroke="white" stroke-dasharray="72 72"/>
<path d="M892.534 366.166L888.981 413.904L888.447 413.807L886.729 436.894L863.952 421.063L863.655 421.406L816.555 388.672L816.852 388.329L794.074 372.498L818.57 365.242L818.332 364.802L868.984 349.799L869.222 350.238L893.717 342.982L891.999 366.069L892.534 366.166Z" stroke="white" stroke-dasharray="72 72"/>
<path d="M308.28 355.547L304.728 403.285L304.193 403.188L302.476 426.275L279.698 410.444L279.401 410.787L232.302 378.053L232.598 377.71L209.82 361.879L234.316 354.623L234.078 354.184L284.73 339.18L284.968 339.619L309.463 332.364L307.746 355.45L308.28 355.547Z" stroke="white" stroke-dasharray="72 72"/>
<path d="M479.615 672.16L476.063 719.899L475.529 719.802L473.811 742.888L451.033 727.058L450.737 727.401L403.637 694.666L403.933 694.323L381.155 678.493L405.651 671.237L405.413 670.797L456.065 655.793L456.303 656.233L480.799 648.977L479.081 672.064L479.615 672.16Z" stroke="white" stroke-dasharray="72 72"/>
<path d="M806.866 207.859L803.314 255.597L802.78 255.5L801.062 278.587L778.284 262.756L777.988 263.099L730.888 230.365L731.184 230.022L708.406 214.191L732.902 206.935L732.664 206.496L783.316 191.492L783.554 191.931L808.05 184.676L806.332 207.762L806.866 207.859Z" stroke="white" stroke-dasharray="72 72"/>
<path d="M978.202 524.472L974.649 572.211L974.115 572.114L972.397 595.2L949.62 579.37L949.323 579.713L902.223 546.978L902.52 546.635L879.742 530.805L904.238 523.549L904 523.109L954.652 508.105L954.89 508.545L979.385 501.289L977.667 524.376L978.202 524.472Z" stroke="white" stroke-dasharray="72 72"/>
<path d="M286.982 316.19L239.882 283.456L239.586 283.798L216.808 267.968L215.09 291.054L214.556 290.957L211.004 338.696L211.538 338.793L209.82 361.879L234.316 354.623L234.554 355.063L285.206 340.059L284.968 339.619L309.464 332.363L286.686 316.533L286.982 316.19Z" stroke="white" stroke-dasharray="72 72"/>
<path d="M458.317 632.804L411.217 600.069L410.921 600.412L388.143 584.582L386.425 607.668L385.891 607.571L382.339 655.31L382.873 655.406L381.155 678.493L405.651 671.237L405.889 671.677L456.541 656.673L456.303 656.233L480.799 648.977L458.021 633.147L458.317 632.804Z" stroke="white" stroke-dasharray="72 72"/>
<path d="M785.568 168.502L738.468 135.768L738.172 136.11L715.394 120.28L713.676 143.366L713.142 143.27L709.59 191.008L710.124 191.105L708.406 214.191L732.902 206.935L733.14 207.375L783.792 192.371L783.554 191.931L808.05 184.675L785.272 168.845L785.568 168.502Z" stroke="white" stroke-dasharray="72 72"/>
<path d="M956.904 485.116L909.804 452.381L909.507 452.724L886.73 436.894L885.012 459.98L884.478 459.883L880.925 507.622L881.46 507.718L879.742 530.805L904.237 523.549L904.475 523.989L955.127 508.985L954.889 508.545L979.385 501.289L956.607 485.459L956.904 485.116Z" stroke="white" stroke-dasharray="72 72"/>
<path d="M372.65 474.497L325.55 441.762L325.254 442.105L302.476 426.275L300.758 449.361L300.224 449.264L296.672 497.003L297.206 497.1L295.488 520.186L319.983 512.93L320.221 513.37L370.874 498.366L370.636 497.926L395.131 490.67L372.353 474.84L372.65 474.497Z" stroke="white" stroke-dasharray="72 72"/>
<path d="M543.985 791.111L496.885 758.376L496.589 758.719L473.811 742.889L472.093 765.975L471.559 765.878L468.007 813.616L468.541 813.713L466.823 836.8L491.319 829.544L491.557 829.984L542.209 814.98L541.971 814.54L566.467 807.284L543.689 791.453L543.985 791.111Z" stroke="white" stroke-dasharray="72 72"/>
<path d="M871.236 326.809L824.136 294.074L823.84 294.417L801.062 278.587L799.344 301.673L798.81 301.576L795.258 349.315L795.792 349.412L794.074 372.498L818.57 365.242L818.808 365.682L869.46 350.678L869.222 350.238L893.718 342.982L870.94 327.152L871.236 326.809Z" stroke="white" stroke-dasharray="72 72"/>
<path d="M322.33 167.702L318.777 215.441L318.243 215.344L316.525 238.43L293.748 222.6L293.451 222.943L246.351 190.208L246.648 189.865L223.87 174.035L248.365 166.779L248.128 166.339L298.78 151.335L299.018 151.775L323.513 144.519L321.795 167.606L322.33 167.702Z" stroke="white" stroke-dasharray="72 72"/>
<path d="M493.665 484.316L490.113 532.054L489.579 531.958L487.861 555.044L465.083 539.213L464.787 539.556L417.687 506.822L417.983 506.479L395.205 490.649L419.701 483.393L419.463 482.953L470.115 467.949L470.353 468.389L494.849 461.133L493.131 484.219L493.665 484.316Z" stroke="white" stroke-dasharray="72 72"/>
<path d="M820.916 20.0144L817.364 67.7527L816.83 67.6558L815.112 90.7423L792.334 74.9118L792.038 75.2546L744.938 42.5202L745.234 42.1773L722.456 26.3468L746.952 19.0908L746.714 18.6511L797.366 3.64724L797.604 4.08698L822.1 -3.16897L820.382 19.9176L820.916 20.0144Z" stroke="white" stroke-dasharray="72 72"/>
<path d="M992.251 336.628L988.699 384.366L988.165 384.27L986.447 407.356L963.669 391.526L963.373 391.868L916.273 359.134L916.569 358.791L893.791 342.961L918.287 335.705L918.049 335.265L968.701 320.261L968.939 320.701L993.435 313.445L991.717 336.531L992.251 336.628Z" stroke="white" stroke-dasharray="72 72"/>
<path d="M407.997 326.009L404.445 373.748L403.911 373.651L402.193 396.737L379.415 380.907L379.119 381.249L332.019 348.515L332.315 348.172L309.537 332.342L334.033 325.086L333.795 324.646L384.447 309.642L384.685 310.082L409.181 302.826L407.463 325.912L407.997 326.009Z" stroke="white" stroke-dasharray="72 72"/>
<path d="M579.332 642.623L575.78 690.361L575.246 690.264L573.528 713.351L550.75 697.52L550.454 697.863L503.354 665.129L503.651 664.786L480.873 648.955L505.368 641.699L505.13 641.259L555.783 626.256L556.02 626.695L580.516 619.439L578.798 642.526L579.332 642.623Z" stroke="white" stroke-dasharray="72 72"/>
<path d="M906.583 178.321L903.031 226.06L902.497 225.963L900.779 249.049L878.001 233.219L877.705 233.561L830.605 200.827L830.901 200.484L808.124 184.654L832.619 177.398L832.381 176.958L883.033 161.954L883.271 162.394L907.767 155.138L906.049 178.224L906.583 178.321Z" stroke="white" stroke-dasharray="72 72"/>
<path d="M386.699 286.652L339.6 253.918L339.303 254.261L316.526 238.43L314.808 261.517L314.274 261.42L310.721 309.158L311.255 309.255L309.538 332.342L334.033 325.086L334.271 325.525L384.923 310.522L384.685 310.082L409.181 302.826L386.403 286.995L386.699 286.652Z" stroke="white" stroke-dasharray="72 72"/>
<path d="M558.034 603.266L510.935 570.532L510.638 570.875L487.86 555.044L486.143 578.131L485.608 578.034L482.056 625.772L482.59 625.869L480.873 648.955L505.368 641.699L505.606 642.139L556.258 627.135L556.02 626.696L580.516 619.44L557.738 603.609L558.034 603.266Z" stroke="white" stroke-dasharray="72 72"/>
<path d="M885.285 138.964L838.185 106.23L837.889 106.573L815.111 90.7423L813.394 113.829L812.859 113.732L809.307 161.47L809.841 161.567L808.124 184.654L832.619 177.398L832.857 177.837L883.509 162.834L883.271 162.394L907.767 155.138L884.989 139.307L885.285 138.964Z" stroke="white" stroke-dasharray="72 72"/>
<path d="M472.367 444.959L425.267 412.225L424.971 412.568L402.193 396.737L400.475 419.824L399.941 419.727L396.389 467.465L396.923 467.562L395.205 490.648L419.701 483.392L419.939 483.832L470.591 468.828L470.353 468.389L494.849 461.133L472.071 445.302L472.367 444.959Z" stroke="white" stroke-dasharray="72 72"/>
<path d="M643.702 761.573L596.602 728.839L596.306 729.181L573.528 713.351L571.81 736.437L571.276 736.341L567.724 784.079L568.258 784.176L566.54 807.262L591.036 800.006L591.274 800.446L641.926 785.442L641.688 785.002L666.184 777.746L643.406 761.916L643.702 761.573Z" stroke="white" stroke-dasharray="72 72"/>
<path d="M970.953 297.271L923.853 264.537L923.557 264.88L900.779 249.049L899.061 272.136L898.527 272.039L894.975 319.777L895.509 319.874L893.791 342.96L918.287 335.705L918.525 336.144L969.177 321.14L968.939 320.701L993.434 313.445L970.657 297.614L970.953 297.271Z" stroke="white" stroke-dasharray="72 72"/>
<path d="M162.16 995.924L165.712 948.186L166.246 948.282L167.964 925.196L190.742 941.026L191.038 940.684L238.138 973.418L237.842 973.761L260.619 989.591L236.124 996.847L236.362 997.287L185.71 1012.29L185.472 1011.85L160.976 1019.11L162.694 996.021L162.16 995.924Z" stroke="white" stroke-dasharray="72 72"/>
<path d="M660.746 848.236L664.298 800.498L664.832 800.594L666.55 777.508L689.328 793.338L689.624 792.996L736.724 825.73L736.428 826.073L759.206 841.903L734.71 849.159L734.948 849.599L684.296 864.603L684.058 864.163L659.562 871.419L661.28 848.333L660.746 848.236Z" stroke="white" stroke-dasharray="72 72"/>
<path d="M746.414 1006.54L749.966 958.804L750.5 958.901L752.218 935.815L774.996 951.645L775.292 951.303L822.392 984.037L822.096 984.38L844.873 1000.21L820.378 1007.47L820.616 1007.91L769.964 1022.91L769.726 1022.47L745.23 1029.73L746.948 1006.64L746.414 1006.54Z" stroke="white" stroke-dasharray="72 72"/>
<path d="M682.044 887.593L729.144 920.327L729.44 919.984L752.218 935.815L753.935 912.728L754.47 912.825L758.022 865.087L757.488 864.99L759.206 841.904L734.71 849.16L734.472 848.72L683.82 863.724L684.058 864.163L659.562 871.419L682.34 887.25L682.044 887.593Z" stroke="white" stroke-dasharray="72 72"/>
<path d="M261.877 966.386L265.429 918.648L265.963 918.745L267.681 895.658L290.459 911.489L290.755 911.146L337.855 943.88L337.559 944.223L360.337 960.054L335.841 967.31L336.079 967.75L285.427 982.753L285.189 982.314L260.693 989.57L262.411 966.483L261.877 966.386Z" stroke="white" stroke-dasharray="72 72"/>
<path d="M760.463 818.698L764.016 770.96L764.55 771.057L766.268 747.97L789.045 763.801L789.342 763.458L836.442 796.192L836.145 796.535L858.923 812.366L834.427 819.622L834.665 820.062L784.013 835.065L783.775 834.626L759.28 841.882L760.998 818.795L760.463 818.698Z" stroke="white" stroke-dasharray="72 72"/>
<path d="M846.131 977.005L849.683 929.267L850.217 929.364L851.935 906.277L874.713 922.108L875.009 921.765L922.109 954.499L921.813 954.842L944.591 970.673L920.095 977.929L920.333 978.368L869.681 993.372L869.443 992.933L844.947 1000.19L846.665 977.102L846.131 977.005Z" stroke="white" stroke-dasharray="72 72"/>
<path d="M283.175 1005.74L330.275 1038.48L330.571 1038.13L353.349 1053.97L355.067 1030.88L355.601 1030.98L359.153 983.237L358.619 983.14L360.337 960.054L335.841 967.31L335.603 966.87L284.951 981.874L285.189 982.314L260.693 989.57L283.471 1005.4L283.175 1005.74Z" stroke="white" stroke-dasharray="72 72"/>
<path d="M781.761 858.055L828.861 890.79L829.157 890.447L851.935 906.277L853.653 883.191L854.187 883.288L857.739 835.549L857.205 835.453L858.923 812.366L834.427 819.622L834.189 819.182L783.537 834.186L783.775 834.626L759.279 841.882L782.057 857.712L781.761 858.055Z" stroke="white" stroke-dasharray="72 72"/>
<path d="M867.429 1016.36L914.529 1049.1L914.825 1048.75L937.603 1064.58L939.321 1041.5L939.855 1041.59L943.407 993.856L942.873 993.759L944.591 970.673L920.095 977.929L919.857 977.489L869.205 992.493L869.443 992.933L844.947 1000.19L867.725 1016.02L867.429 1016.36Z" stroke="white" stroke-dasharray="72 72"/>
<path d="M361.594 936.849L365.146 889.11L365.681 889.207L367.399 866.121L390.176 881.951L390.473 881.608L437.572 914.343L437.276 914.686L460.054 930.516L435.558 937.772L435.796 938.212L385.144 953.216L384.906 952.776L360.411 960.032L362.128 936.945L361.594 936.849Z" stroke="white" stroke-dasharray="72 72"/>
<path d="M860.18 789.161L863.732 741.422L864.267 741.519L865.984 718.433L888.762 734.263L889.058 733.92L936.158 766.655L935.862 766.998L958.64 782.828L934.144 790.084L934.382 790.524L883.73 805.528L883.492 805.088L858.997 812.344L860.714 789.257L860.18 789.161Z" stroke="white" stroke-dasharray="72 72"/>
<path d="M945.848 947.467L949.4 899.729L949.935 899.826L951.652 876.74L974.43 892.57L974.726 892.227L1021.83 924.962L1021.53 925.305L1044.31 941.135L1019.81 948.391L1020.05 948.831L969.398 963.835L969.16 963.395L944.664 970.651L946.382 947.564L945.848 947.467Z" stroke="white" stroke-dasharray="72 72"/>
<path d="M382.892 976.206L429.992 1008.94L430.288 1008.6L453.066 1024.43L454.784 1001.34L455.318 1001.44L458.87 953.7L458.336 953.603L460.054 930.516L435.558 937.772L435.32 937.333L384.668 952.336L384.906 952.776L360.41 960.032L383.188 975.863L382.892 976.206Z" stroke="white" stroke-dasharray="72 72"/>
<path d="M881.478 828.518L928.578 861.252L928.874 860.909L951.652 876.74L953.37 853.653L953.904 853.75L957.456 806.012L956.922 805.915L958.64 782.828L934.144 790.084L933.906 789.645L883.254 804.648L883.492 805.088L858.997 812.344L881.774 828.175L881.478 828.518Z" stroke="white" stroke-dasharray="72 72"/>
<path d="M461.312 907.311L464.864 859.573L465.398 859.67L467.116 836.583L489.894 852.414L490.19 852.071L537.29 884.805L536.993 885.148L559.771 900.979L535.276 908.235L535.514 908.674L484.862 923.678L484.624 923.238L460.128 930.494L461.846 907.408L461.312 907.311Z" stroke="white" stroke-dasharray="72 72"/>
<path d="M959.898 759.623L963.45 711.885L963.984 711.982L965.702 688.895L988.48 704.726L988.776 704.383L1035.88 737.117L1035.58 737.46L1058.36 753.291L1033.86 760.547L1034.1 760.986L983.447 775.99L983.209 775.55L958.714 782.806L960.432 759.72L959.898 759.623Z" stroke="white" stroke-dasharray="72 72"/>
<path d="M482.61 946.668L529.71 979.402L530.006 979.059L552.784 994.89L554.501 971.804L555.036 971.9L558.588 924.162L558.054 924.065L559.771 900.979L535.276 908.235L535.038 907.795L484.386 922.799L484.624 923.239L460.128 930.495L482.906 946.325L482.61 946.668Z" stroke="white" stroke-dasharray="72 72"/>
<path d="M561.029 877.773L564.581 830.035L565.115 830.132L566.833 807.046L589.611 822.876L589.907 822.533L637.007 855.268L636.711 855.61L659.489 871.441L634.993 878.697L635.231 879.137L584.579 894.141L584.341 893.701L559.845 900.957L561.563 877.87L561.029 877.773Z" stroke="white" stroke-dasharray="72 72"/>
<path d="M646.696 1036.08L650.249 988.342L650.783 988.439L652.501 965.352L675.278 981.183L675.575 980.84L722.674 1013.57L722.378 1013.92L745.156 1029.75L720.66 1037L720.898 1037.44L670.246 1052.45L670.008 1052.01L645.513 1059.26L647.23 1036.18L646.696 1036.08Z" stroke="white" stroke-dasharray="72 72"/>
<path d="M582.326 917.13L629.426 949.865L629.723 949.522L652.5 965.352L654.218 942.266L654.752 942.363L658.305 894.625L657.77 894.528L659.488 871.441L634.993 878.697L634.755 878.257L584.103 893.261L584.34 893.701L559.845 900.957L582.623 916.787L582.326 917.13Z" stroke="white" stroke-dasharray="72 72"/>
<path d="M266.46 918.853L262.908 966.591L262.374 966.494L260.656 989.581L237.878 973.75L237.582 974.093L190.482 941.358L190.778 941.016L168.001 925.185L192.496 917.929L192.258 917.489L242.91 902.485L243.148 902.925L267.644 895.669L265.926 918.756L266.46 918.853Z" stroke="white" stroke-dasharray="72 72"/>
<path d="M765.047 771.165L761.495 818.903L760.96 818.806L759.243 841.893L736.465 826.062L736.169 826.405L689.069 793.67L689.365 793.328L666.587 777.497L691.083 770.241L690.845 769.801L741.497 754.798L741.735 755.237L766.231 747.981L764.513 771.068L765.047 771.165Z" stroke="white" stroke-dasharray="72 72"/>
<path d="M850.714 929.472L847.162 977.21L846.628 977.113L844.91 1000.2L822.132 984.369L821.836 984.712L774.736 951.977L775.032 951.634L752.255 935.804L776.75 928.548L776.512 928.108L827.164 913.104L827.402 913.544L851.898 906.288L850.18 929.375L850.714 929.472Z" stroke="white" stroke-dasharray="72 72"/>
<path d="M330.83 1037.8L283.73 1005.07L283.434 1005.41L260.656 989.581L258.939 1012.67L258.404 1012.57L254.852 1060.31L255.386 1060.41L253.668 1083.49L278.164 1076.24L278.402 1076.68L329.054 1061.67L328.816 1061.23L353.312 1053.98L330.534 1038.15L330.83 1037.8Z" stroke="white" stroke-dasharray="72 72"/>
<path d="M829.417 890.115L782.317 857.38L782.021 857.723L759.243 841.893L757.525 864.979L756.991 864.882L753.439 912.621L753.973 912.717L752.255 935.804L776.751 928.548L776.989 928.988L827.641 913.984L827.403 913.544L851.898 906.288L829.121 890.458L829.417 890.115Z" stroke="white" stroke-dasharray="72 72"/>
<path d="M366.178 889.315L362.625 937.053L362.091 936.956L360.373 960.043L337.596 944.212L337.299 944.555L290.2 911.821L290.496 911.478L267.718 895.647L292.214 888.391L291.976 887.952L342.628 872.948L342.866 873.388L367.361 866.132L365.644 889.218L366.178 889.315Z" stroke="white" stroke-dasharray="72 72"/>
<path d="M864.764 741.627L861.212 789.365L860.678 789.269L858.96 812.355L836.182 796.525L835.886 796.867L788.786 764.133L789.082 763.79L766.304 747.96L790.8 740.704L790.562 740.264L841.214 725.26L841.452 725.7L865.948 718.444L864.23 741.53L864.764 741.627Z" stroke="white" stroke-dasharray="72 72"/>
<path d="M950.432 899.934L946.879 947.672L946.345 947.575L944.627 970.662L921.85 954.831L921.553 955.174L874.453 922.44L874.75 922.097L851.972 906.266L876.468 899.01L876.23 898.571L926.882 883.567L927.12 884.007L951.615 876.751L949.897 899.837L950.432 899.934Z" stroke="white" stroke-dasharray="72 72"/>
<path d="M430.548 1008.27L383.448 975.531L383.152 975.874L360.374 960.043L358.656 983.13L358.122 983.033L354.569 1030.77L355.104 1030.87L353.386 1053.95L377.881 1046.7L378.119 1047.14L428.772 1032.13L428.534 1031.69L453.029 1024.44L430.251 1008.61L430.548 1008.27Z" stroke="white" stroke-dasharray="72 72"/>
<path d="M929.134 860.577L882.034 827.843L881.737 828.186L858.96 812.355L857.242 835.442L856.708 835.345L853.155 883.083L853.69 883.18L851.972 906.266L876.467 899.01L876.705 899.45L927.357 884.446L927.119 884.007L951.615 876.751L928.837 860.92L929.134 860.577Z" stroke="white" stroke-dasharray="72 72"/>
<path d="M1014.8 1018.88L967.702 986.15L967.405 986.493L944.628 970.662L942.91 993.748L942.376 993.652L938.823 1041.39L939.358 1041.49L937.64 1064.57L962.135 1057.32L962.373 1057.76L1013.03 1042.75L1012.79 1042.31L1037.28 1035.06L1014.51 1019.23L1014.8 1018.88Z" stroke="white" stroke-dasharray="72 72"/>
<path d="M465.895 859.778L462.343 907.516L461.809 907.419L460.091 930.505L437.313 914.675L437.017 915.018L389.917 882.283L390.213 881.94L367.435 866.11L391.931 858.854L391.693 858.414L442.345 843.41L442.583 843.85L467.079 836.594L465.361 859.681L465.895 859.778Z" stroke="white" stroke-dasharray="72 72"/>
<path d="M964.481 712.09L960.929 759.828L960.395 759.731L958.677 782.818L935.899 766.987L935.603 767.33L888.503 734.595L888.799 734.253L866.022 718.422L890.517 711.166L890.279 710.726L940.931 695.722L941.169 696.162L965.665 688.906L963.947 711.993L964.481 712.09Z" stroke="white" stroke-dasharray="72 72"/>
<path d="M530.265 978.728L483.165 945.993L482.869 946.336L460.091 930.505L458.373 953.592L457.839 953.495L454.287 1001.23L454.821 1001.33L453.103 1024.42L477.599 1017.16L477.837 1017.6L528.489 1002.6L528.251 1002.16L552.747 994.901L529.969 979.07L530.265 978.728Z" stroke="white" stroke-dasharray="72 72"/>
<path d="M1028.85 831.04L981.751 798.305L981.455 798.648L958.677 782.817L956.96 805.904L956.425 805.807L952.873 853.545L953.407 853.642L951.689 876.729L976.185 869.473L976.423 869.913L1027.08 854.909L1026.84 854.469L1051.33 847.213L1028.56 831.382L1028.85 831.04Z" stroke="white" stroke-dasharray="72 72"/>
<path d="M565.612 830.24L562.06 877.978L561.526 877.881L559.808 900.968L537.03 885.137L536.734 885.48L489.634 852.746L489.93 852.403L467.153 836.572L491.648 829.316L491.41 828.877L542.062 813.873L542.3 814.312L566.796 807.056L565.078 830.143L565.612 830.24Z" stroke="white" stroke-dasharray="72 72"/>
<path d="M651.28 988.547L647.728 1036.29L647.193 1036.19L645.476 1059.27L622.698 1043.44L622.402 1043.79L575.302 1011.05L575.598 1010.71L552.82 994.879L577.316 987.623L577.078 987.183L627.73 972.18L627.968 972.619L652.463 965.363L650.746 988.45L651.28 988.547Z" stroke="white" stroke-dasharray="72 72"/>
<path d="M629.982 949.19L582.882 916.456L582.586 916.798L559.808 900.968L558.09 924.054L557.556 923.957L554.004 971.696L554.538 971.793L552.82 994.879L577.316 987.623L577.554 988.063L628.206 973.059L627.968 972.619L652.464 965.363L629.686 949.533L629.982 949.19Z" stroke="white" stroke-dasharray="72 72"/>
<path d="M665.33 800.702L661.777 848.441L661.243 848.344L659.525 871.43L636.748 855.6L636.451 855.942L589.351 823.208L589.648 822.865L566.87 807.035L591.365 799.779L591.128 799.339L641.78 784.335L642.018 784.775L666.513 777.519L664.795 800.605L665.33 800.702Z" stroke="white" stroke-dasharray="72 72"/>
<path d="M750.997 959.009L747.445 1006.75L746.911 1006.65L745.193 1029.74L722.415 1013.91L722.119 1014.25L675.019 981.515L675.315 981.172L652.537 965.342L677.033 958.086L676.795 957.646L727.447 942.642L727.685 943.082L752.181 935.826L750.463 958.912L750.997 959.009Z" stroke="white" stroke-dasharray="72 72"/>
<path d="M729.699 919.652L682.6 886.918L682.303 887.261L659.526 871.43L657.808 894.517L657.274 894.42L653.721 942.158L654.255 942.255L652.538 965.342L677.033 958.086L677.271 958.525L727.923 943.522L727.685 943.082L752.181 935.826L729.403 919.995L729.699 919.652Z" stroke="white" stroke-dasharray="72 72"/>
</g>
</g>
</g>
</g>
<defs>
<radialGradient id="paint0_radial_242_155" cx="0" cy="0" r="1" gradientUnits="userSpaceOnUse" gradientTransform="translate(626 329) rotate(90.2477) scale(809.508 538.674)">
<stop stop-color="#C4C4C4"/>
<stop offset="1" stop-color="#C4C4C4" stop-opacity="0"/>
</radialGradient>
<clipPath id="clip0_242_155">
<rect width="918" height="977" fill="white"/>
</clipPath>
</defs>
</svg>
