<svg width="57" height="55" xmlns="http://www.w3.org/2000/svg"><g fill="#bbb" fill-rule="evenodd"><path d="m.993 25.048.014 4 3.7-.016 11.733.016c3.953 0 7.379-1.27 10.595-3.681l.449-.343.473-.377c1.634-1.332 3.077-2.83 5.273-5.37l2.131-2.492c5.657-6.566 8.721-8.737 13.716-8.737v-4c-3.781 0-7.075 1.23-10.182 3.567l-.448.345c-1.989 1.558-3.6 3.26-6.452 6.605l-.585.688c-6.273 7.387-9.485 9.795-14.966 9.795l-16.828-.016 2.016.014-.639.002Z" fill-rule="nonzero"/><path d="m.993 29.048.014-4 3.7.016 11.733-.016c3.953 0 7.379 1.27 10.595 3.68l.449.344.473.377c1.634 1.332 3.077 2.83 5.273 5.37l2.131 2.492c5.657 6.565 8.721 8.737 13.716 8.737v4c-3.781 0-7.075-1.23-10.182-3.568l-.448-.344c-1.989-1.558-3.6-3.26-6.452-6.605l-.585-.689c-6.273-7.386-9.485-9.794-14.966-9.794l-16.828.016 2.016-.014-.639-.002Z" fill-rule="nonzero"/><path d="m57 6-9 6.062c.667-1.976 1-3.981 1-6.017 0-2.035-.333-4.071-1-6.107L57 6ZM57 48.5l-9 6.062c.667-1.976 1-3.981 1-6.017 0-2.035-.333-4.071-1-6.107l9 6.062Z"/></g></svg>
