<svg width="477" height="236" fill="none" xmlns="http://www.w3.org/2000/svg"><path d="M123.39 74.37a2.5 2.5 0 0 0-4.319 2.52l4.319-2.52Zm10.144 22.352 2.16 1.26a2.5 2.5 0 0 0 0-2.52l-2.16 1.26Zm-14.463 19.832a2.5 2.5 0 1 0 4.319 2.52l-4.319-2.52Zm0-39.664 12.304 21.092 4.319-2.52L123.39 74.37l-4.319 2.52Zm12.304 18.572-12.304 21.092 4.319 2.52 12.304-21.092-4.319-2.52ZM6.378 136.414H3.214l.595-3.353H1.57L0 141.919h2.24l.658-3.682h3.164l-.658 3.682h2.24l1.569-8.858h-2.24l-.595 3.353ZM13.342 141.919l1.24-7.023h2.468l.316-1.835h-7.163l-.316 1.835h2.455l-1.24 7.023h2.24ZM20.77 141.919l1.24-7.023h2.467l.317-1.835H17.63l-.317 1.835h2.456l-1.24 7.023h2.24ZM25.78 133.061l-1.57 8.858h2.24l.494-2.796h1.303c2.595 0 4.265-1.279 4.265-3.392 0-1.759-1.19-2.67-3.492-2.67h-3.24Zm1.468 4.303.443-2.494h1.367c.733 0 1.113.342 1.113 1.038 0 .823-.607 1.456-1.721 1.456h-1.202ZM38.21 133.061l-1.037 5.859c-.165.886-.405 1.278-1.329 1.278a4.65 4.65 0 0 1-.924-.101l-.405 1.822a5.98 5.98 0 0 0 1.456.178c2.215 0 3.062-1.038 3.404-3.025l1.063-6.011h-2.227ZM44.22 142.16c2.227 0 4.112-1.164 4.112-3.139 0-1.531-.936-2.164-2.835-2.543-1.43-.291-1.835-.481-1.835-1.025 0-.494.557-.81 1.405-.81 1.126 0 1.709.43 2.265.974l1.646-1.215c-.81-.924-2.063-1.582-3.835-1.582-2.126 0-3.797 1.139-3.797 2.898 0 1.494.937 2.152 2.81 2.569 1.48.342 1.822.545 1.822 1.076 0 .595-.683.975-1.594.975-1.076 0-1.95-.405-2.709-1.152l-1.518 1.303c.911 1.038 2.278 1.671 4.062 1.671ZM53.368 142.16c3.24 0 5.163-2.443 5.163-5.467 0-2.911-2.025-3.873-3.986-3.873-3.253 0-5.151 2.354-5.151 5.455 0 2.784 2.012 3.885 3.974 3.885Zm.177-1.822c-1.24 0-1.835-.772-1.835-2.19 0-1.734.848-3.493 2.67-3.493 1.24 0 1.835.722 1.835 2.19 0 1.645-.848 3.493-2.67 3.493ZM66.187 133.061l-1.012 5.771-1.911-5.771h-2.658l-1.569 8.858h2.012l1-5.656 1.949 5.656h2.645l1.556-8.858h-2.012ZM78.457 141.919l-1.278-8.858h-2.797l-4.391 8.858h2.379l.582-1.29h3.113l.127 1.29h2.265Zm-2.544-3.037h-2.176l1.822-4.163.354 4.163ZM80.85 133.061l-1.57 8.858h2.24l.494-2.796h1.303c2.595 0 4.265-1.279 4.265-3.392 0-1.759-1.19-2.67-3.492-2.67h-3.24Zm1.468 4.303.443-2.494h1.367c.734 0 1.113.342 1.113 1.038 0 .823-.607 1.456-1.721 1.456h-1.202ZM91.633 141.919l.291-1.619h-1.076l.988-5.619h1.075l.279-1.62H88.81l-.291 1.62h1.076l-.987 5.619h-1.076l-.291 1.619h4.391Z" fill="#070707"/><path d="M16.99 79.385c-4.329 0-6.683 2.543-6.683 5.998v6.796c0 2.506-.645 3.19-2.316 3.531v3.873c1.67.341 2.316 1.063 2.316 3.568v6.758c0 3.455 2.354 5.999 6.682 5.999h2.582v-4.86h-.646c-1.822 0-2.202-.949-2.202-2.506v-6.226c0-3.265-2.164-4.48-3.758-4.67 1.594-.19 3.758-1.367 3.758-4.632V86.75c0-1.556.38-2.506 2.202-2.506h.646v-4.86h-2.582ZM33.803 102.05c-2.126 0-3.986 1.785-3.986 3.949 0 2.126 1.86 3.948 3.986 3.948 2.164 0 3.986-1.822 3.986-3.948 0-2.164-1.822-3.949-3.986-3.949ZM45.742 102.05c-2.127 0-3.987 1.785-3.987 3.949 0 2.126 1.86 3.948 3.986 3.948 2.165 0 3.987-1.822 3.987-3.948 0-2.164-1.822-3.949-3.986-3.949ZM57.68 102.05c-2.126 0-3.986 1.785-3.986 3.949 0 2.126 1.86 3.948 3.986 3.948 2.164 0 3.986-1.822 3.986-3.948 0-2.164-1.822-3.949-3.986-3.949ZM71.942 84.244h.645c1.822 0 2.202.95 2.202 2.506v6.264c0 3.266 2.164 4.442 3.759 4.632-1.595.19-3.759 1.405-3.759 4.67v6.226c0 1.557-.38 2.506-2.202 2.506h-.645v4.86h2.581c4.329 0 6.682-2.544 6.682-5.999v-6.758c0-2.505.646-3.227 2.316-3.569V95.71c-1.67-.342-2.316-1.025-2.316-3.53v-6.797c0-3.454-2.353-5.998-6.682-5.998h-2.581v4.86Z" fill="#8A8A9D"/><path fill-rule="evenodd" clip-rule="evenodd" d="M164.539 80.57c-.85.682-1.275 1.636-1.275 2.864 0 1.214.425 2.162 1.275 2.844.851.681 1.852 1.022 3.004 1.022 1.138 0 2.129-.344 2.973-1.033.843-.688 1.265-1.633 1.265-2.833 0-1.228-.422-2.182-1.265-2.864-.844-.682-1.835-1.023-2.973-1.023-1.152 0-2.153.34-3.004 1.023Zm6.78 8.53h-7.593v20.356h7.593V89.101Zm1.717 20.356V88.753h6.69l.341 2.27a7.28 7.28 0 0 1 2.953-2.127 8.909 8.909 0 0 1 3.254-.634h.201c.898.014 1.725.12 2.481.317a6.835 6.835 0 0 1 2.16 1.003 6.536 6.536 0 0 1 1.748 1.8c.482.73.863 1.653 1.145 2.772.281 1.118.421 2.394.421 3.825v11.477h-7.573V98.02c0-1.186-.275-2.056-.824-2.608-.549-.552-1.225-.829-2.028-.829-.978 0-1.805.345-2.481 1.034-.677.688-1.015 1.674-1.015 2.956v10.883h-7.473Zm22.83-20.703v20.703h7.473V98.573c0-1.282.338-2.268 1.014-2.956.677-.69 1.504-1.034 2.481-1.034.804 0 1.48.277 2.029.829.55.552.824 1.422.824 2.608v11.436h7.573V97.979c0-1.431-.14-2.707-.421-3.825-.282-1.118-.663-2.043-1.146-2.772a6.519 6.519 0 0 0-1.747-1.8 6.835 6.835 0 0 0-2.16-1.003 10.42 10.42 0 0 0-2.481-.317h-.201a8.909 8.909 0 0 0-3.254.634 7.28 7.28 0 0 0-2.953 2.128l-.341-2.271h-6.69Zm22.734 9.974c0-2.114.505-3.983 1.516-5.606a9.959 9.959 0 0 1 4.078-3.713c1.708-.852 3.613-1.278 5.715-1.278 1.42 0 2.82.259 4.199.777l1.653-2.133c.222-.29.401-.526.537-.71l3.5.873 1.964 3.116-2.632 3.17c1.299 1.474 1.949 3.199 1.949 5.177v.409c-.027 1.309-.362 2.571-1.005 3.784-.642 1.214-1.546 2.244-2.712 3.09.871.504 1.597 1.07 2.18 1.698.583.627.994 1.244 1.235 1.851.242.607.399 1.108.472 1.504.074.395.111.791.111 1.186 0 1.296-.214 2.469-.643 3.519-.428 1.05-1.008 1.923-1.737 2.619a9.77 9.77 0 0 1-2.592 1.749c-.998.47-2.039.808-3.124 1.012a18.467 18.467 0 0 1-3.435.307c-3.629 0-6.408-.907-8.337-2.721-1.741-1.636-2.611-3.825-2.611-6.567 0-.286.007-.579.02-.879h7.111v.143c0 .671.081 1.242.243 1.714l.039.107c.187.545.472.954.853 1.227.382.273.787.464 1.216.573.428.109.917.164 1.466.164 1.058 0 1.949-.256 2.672-.768.723-.511 1.085-1.244 1.085-2.199 0-.832-.291-1.5-.874-2.005-.56-.485-1.445-.737-2.656-.755l-.147-.002c-3.428 0-6.17-.941-8.226-2.823-2.056-1.882-3.083-4.419-3.083-7.61Zm8.487 2.904c-.743-.743-1.115-1.722-1.115-2.936 0-1.336.368-2.383 1.105-3.14.737-.757 1.681-1.135 2.832-1.135 1.099 0 2.013.416 2.743 1.248.73.832 1.094 1.841 1.094 3.027 0 1.31-.368 2.312-1.104 3.008-.737.695-1.648 1.043-2.733 1.043-1.138 0-2.079-.372-2.822-1.115Zm15.09-2.485c0-1.46.218-2.8.653-4.02.435-1.221 1.018-2.247 1.748-3.08a10.57 10.57 0 0 1 2.551-2.117 11.224 11.224 0 0 1 3.063-1.268 13.628 13.628 0 0 1 3.295-.4c1.808 0 3.452.298 4.932.89 1.479.594 2.708 1.45 3.686 2.568.977 1.119 1.654 2.483 2.029 4.092a9.66 9.66 0 0 1 .242 2.147l-.001.226c0 .968-.114 2.005-.342 3.11h-14.202c.254.845.837 1.496 1.747 1.953.911.457 1.842.686 2.793.686 2.009 0 3.75-.559 5.223-1.678l3.696 4.235a11.874 11.874 0 0 1-4.188 2.567c-1.601.58-3.292.87-5.073.87-1.647 0-3.17-.212-4.57-.634a11.474 11.474 0 0 1-3.747-1.913c-1.098-.852-1.961-1.981-2.591-3.386-.629-1.405-.944-3.021-.944-4.848Zm15.066-2.803h-7.372c.094-.641.405-1.18.934-1.616a3.6 3.6 0 0 1 1.838-.798 7.481 7.481 0 0 1 2.049.02c.683.11 1.269.379 1.758.808.489.43.753.959.793 1.586Zm7.165 10.945 2.471-5.626a13.999 13.999 0 0 0 2.913 1.483c.991.362 1.764.58 2.32.655.556.075 1.209.133 1.959.174 1.379 0 2.069-.335 2.069-1.003 0-.641-.716-1.023-2.149-1.145a15.735 15.735 0 0 1-2.441-.266 10.901 10.901 0 0 1-2.34-.737 7.791 7.791 0 0 1-2.019-1.258c-.57-.498-1.032-1.135-1.387-1.913-.354-.777-.532-1.65-.532-2.618 0-1.2.261-2.25.784-3.151a5.667 5.667 0 0 1 2.129-2.117c.897-.512 1.888-.89 2.973-1.136a15.817 15.817 0 0 1 3.496-.368c1.62 0 3.16.225 4.62.675 1.46.45 2.692 1.064 3.696 1.841l-3.214 4.603c-.517-.334-1.241-.619-2.173-.856l-.177-.044c-.965-.245-1.842-.368-2.632-.368h-.12c-1.206 0-1.809.34-1.809 1.023 0 .245.118.47.352.675.219.19.575.299 1.068.323l.107.004c.938.027 1.808.102 2.612.225.803.123 1.63.341 2.481.655.85.314 1.577.716 2.179 1.207.603.491 1.095 1.142 1.477 1.954.381.811.572 1.742.572 2.792 0 .996-.171 1.893-.511 2.69-.342.798-.808 1.463-1.397 1.995a7.85 7.85 0 0 1-2.109 1.34c-.817.362-1.678.621-2.582.777-.904.157-1.858.236-2.862.236-1.808 0-3.616-.242-5.424-.727-1.808-.484-3.275-1.149-4.4-1.994Zm19.642-18.412v5.912h3.254v7.14c-.013 1.118.1 2.121.342 3.007.267.982.628 1.783 1.084 2.404a5.815 5.815 0 0 0 1.668 1.534 6.783 6.783 0 0 0 2.069.849c.723.164 1.506.246 2.35.246 2.304 0 4.253-.464 5.846-1.391l-1.647-5.708c-.723.477-1.46.716-2.211.716-1.311 0-1.988-.668-2.028-2.005v-6.792h4.62v-5.912h-4.58v-5.974l-7.513.839v5.135h-3.254ZM322.575 74.582a2.26 2.26 0 0 1 3.09.813l12.304 21.092a2.257 2.257 0 0 1 0 2.277l-12.304 21.092a2.26 2.26 0 1 1-3.904-2.277l11.64-19.953-11.64-19.954a2.26 2.26 0 0 1 .814-3.09Z" fill="#070707"/><path d="M380.729 218.995c2.228 0 4.113-1.164 4.113-3.139 0-1.531-.936-2.164-2.835-2.543-1.43-.291-1.835-.481-1.835-1.025 0-.494.557-.81 1.405-.81 1.127 0 1.709.43 2.266.974l1.645-1.215c-.81-.924-2.063-1.582-3.835-1.582-2.126 0-3.796 1.139-3.796 2.898 0 1.494.936 2.152 2.809 2.569 1.481.342 1.822.545 1.822 1.076 0 .595-.683.974-1.594.974-1.076 0-1.949-.404-2.708-1.151l-1.519 1.303c.911 1.038 2.278 1.671 4.062 1.671ZM387.094 209.896l-1.57 8.858h6.227l.329-1.809h-3.999l.329-1.835h3.606l.304-1.747h-3.607l.292-1.658h3.885l.316-1.809h-6.112ZM395.365 218.754l.569-3.227h1.089l1.303 3.227h2.519l-1.646-3.556c1.317-.443 2.19-1.379 2.19-2.759 0-1.632-1.19-2.543-3.48-2.543h-3.215l-1.569 8.858h2.24Zm1.253-7.099h1.329c.734 0 1.101.367 1.101.962 0 .658-.494 1.227-1.557 1.227h-1.253l.38-2.189ZM407.882 209.896l-2.911 7.099-.456-7.099h-2.303l1.101 8.858h2.784l4.177-8.858h-2.392ZM411.106 209.896l-1.569 8.858h6.227l.329-1.809h-3.999l.329-1.835h3.606l.304-1.747h-3.607l.291-1.658h3.885l.317-1.809h-6.113ZM419.378 218.754l.569-3.227h1.089l1.303 3.227h2.518l-1.645-3.556c1.316-.443 2.19-1.379 2.19-2.759 0-1.632-1.19-2.543-3.481-2.543h-3.214l-1.569 8.858h2.24Zm1.253-7.099h1.328c.734 0 1.101.367 1.101.962 0 .658-.493 1.227-1.556 1.227h-1.253l.38-2.189ZM427.234 209.896l-1.569 8.858h5.999l.329-1.898h-3.759l1.24-6.96h-2.24ZM434.279 209.896l-1.569 8.858h6.226l.329-1.809h-3.999l.329-1.835h3.607l.303-1.747h-3.606l.291-1.658h3.885l.316-1.809h-6.112ZM444.005 218.995c2.228 0 4.113-1.164 4.113-3.139 0-1.531-.936-2.164-2.834-2.543-1.43-.291-1.835-.481-1.835-1.025 0-.494.556-.81 1.404-.81 1.127 0 1.709.43 2.266.974l1.645-1.215c-.81-.924-2.063-1.582-3.835-1.582-2.126 0-3.796 1.139-3.796 2.898 0 1.494.936 2.152 2.809 2.569 1.481.342 1.823.545 1.823 1.076 0 .595-.684.974-1.595.974-1.076 0-1.949-.404-2.708-1.151l-1.519 1.303c.911 1.038 2.278 1.671 4.062 1.671ZM452.496 218.995c2.227 0 4.113-1.164 4.113-3.139 0-1.531-.937-2.164-2.835-2.543-1.43-.291-1.835-.481-1.835-1.025 0-.494.557-.81 1.405-.81 1.126 0 1.708.43 2.265.974l1.645-1.215c-.81-.924-2.063-1.582-3.834-1.582-2.126 0-3.797 1.139-3.797 2.898 0 1.494.937 2.152 2.81 2.569 1.48.342 1.822.545 1.822 1.076 0 .595-.684.974-1.595.974-1.075 0-1.949-.404-2.708-1.151l-1.519 1.303c.912 1.038 2.278 1.671 4.063 1.671ZM382.249 226.167l-1.569 8.858h2.24l.595-3.391h3.454l.304-1.747h-3.455l.342-1.911h3.746l.316-1.809h-5.973ZM391.896 235.266c2.658 0 3.746-1.544 4.126-3.695l.962-5.404h-2.228l-.961 5.391c-.216 1.278-.734 1.885-1.81 1.885-.899 0-1.367-.379-1.367-1.278 0-.24.038-.468.076-.696l.949-5.302h-2.24l-.936 5.29a4.241 4.241 0 0 0-.089.848c0 1.784 1.228 2.961 3.518 2.961ZM404.205 226.167l-1.012 5.771-1.911-5.771h-2.658l-1.569 8.858h2.012l1-5.657 1.949 5.657h2.645l1.556-8.858h-2.012ZM410.474 235.253c2.05 0 3.645-.898 4.543-2.746l-2.063-.645c-.531.999-1.151 1.556-2.227 1.556-1.088 0-1.696-.734-1.696-2.012 0-1.81.848-3.632 2.531-3.632.962 0 1.544.443 1.772 1.354l2.113-.557c-.518-1.898-2.012-2.632-3.67-2.632-3.075 0-5.074 2.518-5.074 5.594 0 2.644 1.923 3.72 3.771 3.72ZM419.678 235.025l1.24-7.023h2.468l.316-1.835h-7.162l-.317 1.835h2.455l-1.24 7.023h2.24ZM427.08 235.025l.291-1.619h-1.075l.987-5.619h1.076l.278-1.62h-4.379l-.291 1.62h1.076l-.987 5.619h-1.076l-.291 1.619h4.391ZM432.713 235.266c3.239 0 5.163-2.443 5.163-5.467 0-2.911-2.025-3.873-3.986-3.873-3.253 0-5.151 2.354-5.151 5.455 0 2.784 2.012 3.885 3.974 3.885Zm.177-1.823c-1.24 0-1.835-.771-1.835-2.189 0-1.734.848-3.493 2.67-3.493 1.24 0 1.835.722 1.835 2.19 0 1.645-.848 3.492-2.67 3.492ZM445.532 226.167l-1.012 5.771-1.911-5.771h-2.658l-1.569 8.858h2.012l1-5.657 1.949 5.657h2.645l1.557-8.858h-2.013ZM451.384 235.266c2.227 0 4.112-1.164 4.112-3.139 0-1.531-.936-2.164-2.834-2.543-1.43-.291-1.835-.481-1.835-1.025 0-.494.557-.81 1.404-.81 1.127 0 1.709.43 2.266.974l1.645-1.215c-.81-.924-2.063-1.582-3.835-1.582-2.126 0-3.796 1.139-3.796 2.898 0 1.494.936 2.152 2.809 2.569 1.481.342 1.823.545 1.823 1.076 0 .595-.684.974-1.595.974-1.076 0-1.949-.404-2.708-1.151l-1.519 1.303c.911 1.038 2.278 1.671 4.063 1.671Z" fill="#070707"/><path d="M359.42 3.616A3.616 3.616 0 0 1 363.036 0h110.281a3.616 3.616 0 0 1 3.616 3.616v52.429a3.616 3.616 0 0 1-3.616 3.615H363.036a3.616 3.616 0 0 1-3.616-3.615V3.615Z" fill="#FBFBFF"/><path fill-rule="evenodd" clip-rule="evenodd" d="M473.317 1.808H363.036c-.999 0-1.808.81-1.808 1.808v52.429c0 .998.809 1.807 1.808 1.807h110.281c.998 0 1.808-.809 1.808-1.807V3.615c0-.998-.81-1.807-1.808-1.807ZM363.036 0a3.616 3.616 0 0 0-3.616 3.616v52.429a3.616 3.616 0 0 0 3.616 3.615h110.281a3.616 3.616 0 0 0 3.616-3.615V3.615A3.616 3.616 0 0 0 473.317 0H363.036Z" fill="#070707"/><path fill-rule="evenodd" clip-rule="evenodd" d="M383.826 9.943h-18.079V6.327h18.079v3.616ZM385.635 17.175h-12.656V13.56h12.656v3.615ZM407.329 17.175H389.25V13.56h18.079v3.615ZM399.193 31.638h-18.079v-3.616h18.079v3.616ZM417.272 24.407h-36.158V20.79h36.158v3.616ZM408.233 38.87h-27.119v-3.616h27.119v3.616ZM376.595 46.101h-3.616v-3.616h3.616v3.616ZM369.363 53.333h-3.616v-3.616h3.616v3.616Z" fill="#8A8A9D"/><path d="M462.399 25.31c-.243 0-.485-.063-.698-.185l-2.224-1.31c-.332-.184-.17-.25-.06-.288.442-.154.532-.189 1.005-.456.05-.028.115-.018.166.012l1.708 1.008a.226.226 0 0 0 .206 0l6.661-3.824a.208.208 0 0 0 .102-.179v-7.644a.212.212 0 0 0-.103-.183l-6.658-3.82a.208.208 0 0 0-.206 0l-6.656 3.82a.21.21 0 0 0-.106.181v7.645c0 .073.04.142.103.177l1.824 1.048c.991.493 1.596-.088 1.596-.672v-7.545a.19.19 0 0 1 .194-.19h.843a.19.19 0 0 1 .192.19v7.549c0 1.313-.72 2.068-1.973 2.068-.385 0-.688 0-1.535-.415l-1.747-1.002a1.405 1.405 0 0 1-.699-1.208v-7.645c0-.497.267-.962.699-1.207l6.667-3.826a1.468 1.468 0 0 1 1.401 0l6.659 3.827a1.4 1.4 0 0 1 .698 1.208v7.644a1.4 1.4 0 0 1-.698 1.207l-6.659 3.826a1.409 1.409 0 0 1-.702.186" fill="#070707"/><path d="M464.231 19.928c-2.93 0-3.544-1.33-3.544-2.444 0-.106.086-.19.193-.19h.866c.095 0 .176.068.191.162.13.87.519 1.31 2.291 1.31 1.412 0 2.012-.315 2.012-1.055 0-.426-.171-.742-2.364-.954-1.834-.179-2.967-.578-2.967-2.027 0-1.335 1.14-2.13 3.049-2.13 2.144 0 3.207.735 3.341 2.315a.175.175 0 0 1-.01.079.173.173 0 0 1-.041.068.193.193 0 0 1-.143.062h-.87a.192.192 0 0 1-.188-.15c-.209-.915-.716-1.208-2.092-1.208-1.541 0-1.72.53-1.72.927 0 .482.211.623 2.29.895 2.059.27 3.036.65 3.036 2.08 0 1.441-1.217 2.268-3.339 2.268l.009-.008Z" fill="#070707"/><path d="M359.42 72.316a3.616 3.616 0 0 1 3.616-3.616h110.281a3.616 3.616 0 0 1 3.616 3.616v52.429a3.616 3.616 0 0 1-3.616 3.616H363.036a3.616 3.616 0 0 1-3.616-3.616V72.316Z" fill="#FBFBFF"/><path fill-rule="evenodd" clip-rule="evenodd" d="M473.317 70.508H363.036c-.999 0-1.808.81-1.808 1.808v52.429c0 .998.809 1.808 1.808 1.808h110.281c.998 0 1.808-.81 1.808-1.808V72.316c0-.999-.81-1.808-1.808-1.808ZM363.036 68.7a3.616 3.616 0 0 0-3.616 3.616v52.429a3.616 3.616 0 0 0 3.616 3.616h110.281a3.616 3.616 0 0 0 3.616-3.616V72.316a3.616 3.616 0 0 0-3.616-3.616H363.036Z" fill="#070707"/><path fill-rule="evenodd" clip-rule="evenodd" d="M383.826 78.643h-18.079v-3.616h18.079v3.616ZM385.635 85.876h-12.656V82.26h12.656v3.615ZM407.329 85.876H389.25V82.26h18.079v3.615ZM399.193 100.338h-18.079v-3.615h18.079v3.615ZM417.272 93.107h-36.158v-3.616h36.158v3.616ZM408.233 107.57h-27.119v-3.616h27.119v3.616ZM376.595 114.801h-3.616v-3.615h3.616v3.615ZM369.363 122.033h-3.616v-3.616h3.616v3.616Z" fill="#8A8A9D"/><path fill-rule="evenodd" clip-rule="evenodd" d="M454.634 80.477c-1.336.339-2.248.593-3.563.933-.318.084-.339.106-.615-.212-.318-.36-.551-.594-.996-.806-1.336-.657-2.63-.467-3.838.318-1.442.933-2.184 2.311-2.163 4.029.021 1.696 1.187 3.096 2.863 3.329 1.441.19 2.65-.318 3.604-1.4.191-.233.361-.487.573-.784h-4.093c-.445 0-.551-.276-.403-.636.276-.658.785-1.76 1.082-2.312a.572.572 0 0 1 .53-.339h7.718c-.042.573-.042 1.145-.127 1.718a9.041 9.041 0 0 1-1.739 4.156c-1.526 2.014-3.52 3.265-6.043 3.604-2.078.276-4.007-.127-5.704-1.4-1.569-1.186-2.46-2.756-2.693-4.706-.275-2.312.403-4.39 1.803-6.213 1.505-1.972 3.498-3.223 5.937-3.669 1.993-.36 3.901-.127 5.619 1.04 1.124.742 1.93 1.76 2.46 2.99.127.19.042.296-.212.36Z" fill="#070707"/><path d="M461.652 92.203c-1.93-.043-3.69-.594-5.174-1.866-1.251-1.082-2.036-2.46-2.29-4.093-.382-2.396.275-4.516 1.717-6.404 1.548-2.035 3.414-3.095 5.938-3.54 2.162-.382 4.198-.17 6.043 1.08 1.675 1.146 2.714 2.694 2.99 4.73.36 2.862-.467 5.194-2.439 7.188-1.399 1.42-3.117 2.31-5.089 2.714-.572.106-1.145.127-1.696.19Zm5.046-8.567c-.021-.276-.021-.488-.063-.7-.382-2.099-2.312-3.286-4.326-2.82-1.972.445-3.244 1.696-3.711 3.69-.381 1.654.424 3.329 1.951 4.007 1.166.51 2.333.445 3.456-.127 1.676-.87 2.587-2.226 2.693-4.05Z" fill="#070707"/><path d="M359.42 141.015a3.616 3.616 0 0 1 3.616-3.616h110.281a3.616 3.616 0 0 1 3.616 3.616v52.429a3.616 3.616 0 0 1-3.616 3.616H363.036a3.616 3.616 0 0 1-3.616-3.616v-52.429Z" fill="#FBFBFF"/><path fill-rule="evenodd" clip-rule="evenodd" d="M473.317 139.207H363.036c-.999 0-1.808.81-1.808 1.808v52.429c0 .998.809 1.808 1.808 1.808h110.281c.998 0 1.808-.81 1.808-1.808v-52.429c0-.998-.81-1.808-1.808-1.808Zm-110.281-1.808a3.616 3.616 0 0 0-3.616 3.616v52.429a3.616 3.616 0 0 0 3.616 3.616h110.281a3.616 3.616 0 0 0 3.616-3.616v-52.429a3.616 3.616 0 0 0-3.616-3.616H363.036Z" fill="#070707"/><path fill-rule="evenodd" clip-rule="evenodd" d="M383.826 147.342h-18.079v-3.615h18.079v3.615ZM385.635 154.575h-12.656v-3.616h12.656v3.616ZM407.329 154.575H389.25v-3.616h18.079v3.616ZM399.193 169.038h-18.079v-3.616h18.079v3.616ZM417.272 161.806h-36.158v-3.616h36.158v3.616ZM408.233 176.269h-27.119v-3.616h27.119v3.616ZM376.595 183.501h-3.616v-3.616h3.616v3.616ZM369.363 190.732h-3.616v-3.616h3.616v3.616Z" fill="#8A8A9D"/><path d="M461.361 144.631a12.22 12.22 0 0 0-2.061.176c-1.826.322-2.157.997-2.157 2.242v1.644h4.313v.548H455.524c-1.253 0-2.351.753-2.694 2.186-.396 1.643-.414 2.668 0 4.384.307 1.277 1.039 2.187 2.292 2.187h1.483v-1.971c0-1.424 1.232-2.679 2.695-2.679h4.308c1.199 0 2.156-.988 2.156-2.192v-4.107c0-1.169-.986-2.047-2.156-2.242a13.537 13.537 0 0 0-2.247-.176Zm-2.333 1.322c.446 0 .81.37.81.824 0 .454-.364.82-.81.82a.814.814 0 0 1-.809-.82c0-.454.362-.824.809-.824Z" fill="#070707"/><path d="M466.303 149.24v1.915c0 1.485-1.259 2.735-2.695 2.735H459.3c-1.18 0-2.156 1.01-2.156 2.192v4.107c0 1.169 1.016 1.856 2.156 2.192 1.365.401 2.675.474 4.308 0 1.086-.315 2.157-.948 2.157-2.192v-1.644h-4.308v-.548h6.464c1.254 0 1.721-.874 2.157-2.187.45-1.351.431-2.65 0-4.383-.31-1.248-.902-2.187-2.157-2.187h-1.618Zm-2.423 10.401c.447 0 .809.366.809.819a.817.817 0 0 1-.809.825.819.819 0 0 1-.81-.825c0-.453.364-.819.81-.819Z" fill="#070707"/></svg>
