<svg width="459" height="349" viewBox="0 0 459 349" fill="none" xmlns="http://www.w3.org/2000/svg">
<path d="M229 114L229 291" stroke="url(#paint0_linear_179_6851)" stroke-width="4"/>
<line x1="167" y1="137" x2="167" y2="284" stroke="black" stroke-width="4"/>
<line x1="295" y1="124" x2="295" y2="284" stroke="#4636F5" stroke-width="4"/>
<rect x="27" y="233" width="405" height="102" rx="8" fill="black" fill-opacity="0.13"/>
<g filter="url(#filter0_d_179_6851)">
<rect x="22" y="225" width="415" height="102" rx="8" fill="url(#paint1_linear_179_6851)"/>
<rect x="21" y="224" width="417" height="104" rx="9" stroke="black" stroke-width="2"/>
</g>
<g filter="url(#filter1_d_179_6851)">
<path d="M51.8008 291.176C52.7266 291.176 53.5146 290.994 54.165 290.631C54.8213 290.268 55.3076 289.857 55.624 289.4L54.499 288.311C54.2061 288.686 53.834 288.976 53.3828 289.181C52.9316 289.38 52.4453 289.479 51.9238 289.479C51.543 289.479 51.1914 289.415 50.8691 289.286C50.5527 289.157 50.2773 288.976 50.043 288.741C49.8086 288.519 49.624 288.267 49.4893 287.985C49.3545 287.704 49.2549 287.355 49.1904 286.939V286.896H55.7822V285.99C55.7822 285.311 55.6914 284.684 55.5098 284.109C55.3281 283.535 55.0586 283.04 54.7012 282.624C54.3438 282.214 53.9014 281.895 53.374 281.666C52.8467 281.432 52.2402 281.314 51.5547 281.314C50.9395 281.314 50.3594 281.432 49.8145 281.666C49.2754 281.895 48.8008 282.223 48.3906 282.65C47.9805 283.078 47.6582 283.594 47.4238 284.197C47.1895 284.801 47.0723 285.475 47.0723 286.219V286.579C47.0723 287.229 47.1836 287.836 47.4062 288.398C47.6348 288.955 47.957 289.438 48.373 289.849C48.7891 290.265 49.2871 290.59 49.8672 290.824C50.4531 291.059 51.0977 291.176 51.8008 291.176ZM51.5459 283.02C51.8975 283.02 52.2051 283.081 52.4688 283.204C52.7383 283.321 52.9609 283.479 53.1367 283.679C53.3184 283.884 53.459 284.124 53.5586 284.399C53.6582 284.669 53.708 284.941 53.708 285.217V285.357H49.2344C49.2988 284.994 49.3984 284.669 49.5332 284.382C49.668 284.095 49.835 283.849 50.0342 283.644C50.2334 283.444 50.459 283.292 50.7109 283.187C50.9688 283.075 51.2471 283.02 51.5459 283.02ZM61.2677 284.689L59.0177 281.49H56.7061L60.0372 286.175L56.5919 291H58.921L61.2852 287.678L63.6583 291H65.9786L62.5333 286.175L65.8731 281.49H63.544L61.2677 284.689ZM66.841 294.656H68.9416V290.139C69.0529 290.262 69.173 290.376 69.3019 290.481C69.4308 290.587 69.5656 290.681 69.7062 290.763C69.9464 290.897 70.2072 291 70.4884 291.07C70.7755 291.141 71.089 291.176 71.4289 291.176C72.0265 291.176 72.5568 291.053 73.0197 290.807C73.4826 290.561 73.8722 290.221 74.1886 289.787C74.505 289.359 74.7423 288.85 74.9005 288.258C75.0646 287.666 75.1466 287.027 75.1466 286.342V286.157C75.1466 285.442 75.0646 284.789 74.9005 284.197C74.7365 283.6 74.4992 283.087 74.1886 282.659C73.8722 282.231 73.4796 281.9 73.0109 281.666C72.548 281.432 72.0119 281.314 71.4025 281.314C71.092 281.314 70.799 281.35 70.5236 281.42C70.2482 281.484 69.9963 281.578 69.7677 281.701C69.592 281.795 69.4279 281.906 69.2755 282.035C69.1232 282.164 68.9826 282.308 68.8537 282.466L68.7746 281.49H66.841V294.656ZM73.0461 286.157V286.342C73.0461 286.764 73.005 287.165 72.923 287.546C72.841 287.921 72.7091 288.255 72.5275 288.548C72.3517 288.835 72.1232 289.063 71.842 289.233C71.5666 289.397 71.2326 289.479 70.84 289.479C70.5998 289.479 70.38 289.453 70.1808 289.4C69.9816 289.342 69.8029 289.266 69.6447 289.172C69.4923 289.072 69.3576 288.955 69.2404 288.82C69.1232 288.686 69.0236 288.536 68.9416 288.372V284.145C69.0353 283.969 69.1437 283.811 69.2668 283.67C69.3957 283.529 69.5451 283.412 69.715 283.318C69.8615 283.23 70.0285 283.163 70.216 283.116C70.4035 283.069 70.6056 283.046 70.8224 283.046C71.215 283.046 71.5519 283.128 71.8332 283.292C72.1144 283.456 72.3459 283.679 72.5275 283.96C72.7033 284.241 72.8322 284.572 72.9142 284.953C73.0021 285.328 73.0461 285.729 73.0461 286.157ZM76.1672 286.157V286.342C76.1672 287.039 76.2668 287.681 76.4661 288.267C76.6653 288.853 76.9553 289.362 77.3362 289.796C77.7112 290.229 78.1741 290.569 78.7248 290.815C79.2756 291.062 79.8996 291.185 80.5969 291.185C81.2883 291.185 81.9065 291.062 82.4514 290.815C83.0022 290.569 83.4651 290.229 83.8401 289.796C84.2151 289.362 84.5022 288.853 84.7014 288.267C84.9006 287.681 85.0002 287.039 85.0002 286.342V286.157C85.0002 285.466 84.9006 284.827 84.7014 284.241C84.5022 283.649 84.2151 283.137 83.8401 282.703C83.4592 282.27 82.9934 281.93 82.4426 281.684C81.8977 281.438 81.2766 281.314 80.5793 281.314C79.8821 281.314 79.261 281.438 78.7161 281.684C78.1711 281.93 77.7112 282.27 77.3362 282.703C76.9553 283.137 76.6653 283.649 76.4661 284.241C76.2668 284.827 76.1672 285.466 76.1672 286.157ZM78.2678 286.342V286.157C78.2678 285.741 78.3118 285.343 78.3996 284.962C78.4934 284.581 78.637 284.247 78.8303 283.96C79.0178 283.673 79.2551 283.444 79.5422 283.274C79.8352 283.104 80.1809 283.02 80.5793 283.02C80.9836 283.02 81.3293 283.104 81.6164 283.274C81.9094 283.444 82.1526 283.673 82.3459 283.96C82.5276 284.247 82.6653 284.581 82.759 284.962C82.8528 285.343 82.8996 285.741 82.8996 286.157V286.342C82.8996 286.77 82.8528 287.174 82.759 287.555C82.6711 287.936 82.5334 288.27 82.3459 288.557C82.1584 288.844 81.9182 289.072 81.6252 289.242C81.3323 289.406 80.9895 289.488 80.5969 289.488C80.1926 289.488 79.844 289.406 79.551 289.242C79.258 289.072 79.0178 288.844 78.8303 288.557C78.637 288.27 78.4934 287.936 78.3996 287.555C78.3118 287.174 78.2678 286.77 78.2678 286.342ZM92.8587 281.314C92.2025 281.314 91.6019 281.467 91.057 281.771C90.5179 282.076 90.055 282.495 89.6683 283.028L89.6595 282.809L89.5716 281.49H87.6029V291H89.7034V285.129C89.8148 284.848 89.9525 284.599 90.1165 284.382C90.2806 284.165 90.4798 283.986 90.7142 283.846C90.931 283.699 91.18 283.591 91.4613 283.521C91.7425 283.45 92.0589 283.415 92.4105 283.415C92.721 283.415 93.0316 283.433 93.3421 283.468C93.6585 283.503 93.9779 283.556 94.3001 283.626L94.5989 281.552C94.4173 281.487 94.1654 281.432 93.8431 281.385C93.5267 281.338 93.1986 281.314 92.8587 281.314ZM100.234 279.17H98.1244V281.49H95.8217V283.063H98.1244V287.739C98.1244 288.349 98.2035 288.87 98.3617 289.304C98.5258 289.737 98.7514 290.092 99.0385 290.367C99.3256 290.648 99.6684 290.856 100.067 290.991C100.471 291.12 100.913 291.185 101.394 291.185C101.658 291.185 101.921 291.17 102.185 291.141C102.454 291.117 102.712 291.082 102.958 291.035C103.204 290.988 103.433 290.933 103.644 290.868C103.861 290.798 104.045 290.716 104.198 290.622L103.969 289.172C103.864 289.195 103.732 289.225 103.574 289.26C103.421 289.289 103.257 289.315 103.081 289.339C102.9 289.368 102.712 289.392 102.519 289.409C102.326 289.427 102.138 289.436 101.956 289.436C101.704 289.436 101.473 289.406 101.262 289.348C101.051 289.289 100.87 289.189 100.717 289.049C100.565 288.914 100.445 288.729 100.357 288.495C100.275 288.255 100.234 287.959 100.234 287.607V283.063H103.811V281.49H100.234V279.17ZM115.195 286.175V286.359C115.195 287.045 115.283 287.684 115.459 288.275C115.634 288.861 115.883 289.368 116.206 289.796C116.528 290.229 116.92 290.569 117.383 290.815C117.846 291.056 118.368 291.176 118.948 291.176C119.499 291.176 119.985 291.076 120.407 290.877C120.829 290.672 121.192 290.382 121.497 290.007L121.593 291H123.501V277.5H121.4V282.378C121.095 282.038 120.744 281.777 120.345 281.596C119.953 281.408 119.493 281.314 118.965 281.314C118.379 281.314 117.852 281.435 117.383 281.675C116.92 281.909 116.528 282.24 116.206 282.668C115.878 283.096 115.626 283.608 115.45 284.206C115.28 284.798 115.195 285.454 115.195 286.175ZM117.295 286.359V286.175C117.295 285.747 117.336 285.346 117.419 284.971C117.501 284.59 117.632 284.256 117.814 283.969C117.984 283.682 118.207 283.456 118.482 283.292C118.763 283.128 119.1 283.046 119.493 283.046C119.961 283.046 120.348 283.151 120.653 283.362C120.963 283.567 121.212 283.846 121.4 284.197V288.284C121.212 288.642 120.963 288.926 120.653 289.137C120.342 289.342 119.95 289.444 119.475 289.444C119.088 289.444 118.757 289.365 118.482 289.207C118.207 289.043 117.981 288.817 117.805 288.53C117.629 288.255 117.501 287.93 117.419 287.555C117.336 287.18 117.295 286.781 117.295 286.359ZM129.645 291.176C130.571 291.176 131.359 290.994 132.009 290.631C132.666 290.268 133.152 289.857 133.468 289.4L132.343 288.311C132.05 288.686 131.678 288.976 131.227 289.181C130.776 289.38 130.29 289.479 129.768 289.479C129.387 289.479 129.036 289.415 128.714 289.286C128.397 289.157 128.122 288.976 127.887 288.741C127.653 288.519 127.468 288.267 127.334 287.985C127.199 287.704 127.099 287.355 127.035 286.939V286.896H133.627V285.99C133.627 285.311 133.536 284.684 133.354 284.109C133.173 283.535 132.903 283.04 132.546 282.624C132.188 282.214 131.746 281.895 131.218 281.666C130.691 281.432 130.085 281.314 129.399 281.314C128.784 281.314 128.204 281.432 127.659 281.666C127.12 281.895 126.645 282.223 126.235 282.65C125.825 283.078 125.503 283.594 125.268 284.197C125.034 284.801 124.917 285.475 124.917 286.219V286.579C124.917 287.229 125.028 287.836 125.251 288.398C125.479 288.955 125.801 289.438 126.217 289.849C126.633 290.265 127.131 290.59 127.712 290.824C128.298 291.059 128.942 291.176 129.645 291.176ZM129.39 283.02C129.742 283.02 130.049 283.081 130.313 283.204C130.583 283.321 130.805 283.479 130.981 283.679C131.163 283.884 131.303 284.124 131.403 284.399C131.503 284.669 131.552 284.941 131.552 285.217V285.357H127.079C127.143 284.994 127.243 284.669 127.378 284.382C127.512 284.095 127.679 283.849 127.879 283.644C128.078 283.444 128.303 283.292 128.555 283.187C128.813 283.075 129.091 283.02 129.39 283.02ZM137.328 291H139.437V283.063H142.962V281.49H139.437V280.91C139.437 280.576 139.478 280.283 139.56 280.031C139.648 279.779 139.777 279.568 139.947 279.398C140.129 279.217 140.36 279.079 140.641 278.985C140.928 278.892 141.268 278.845 141.661 278.845C142.036 278.845 142.37 278.868 142.663 278.915C142.962 278.962 143.228 279.018 143.463 279.082L143.63 277.403C143.454 277.368 143.281 277.336 143.111 277.307C142.941 277.271 142.774 277.242 142.61 277.219C142.411 277.189 142.206 277.166 141.995 277.148C141.79 277.125 141.579 277.113 141.362 277.113C140.747 277.113 140.19 277.195 139.692 277.359C139.2 277.523 138.778 277.764 138.426 278.08C138.075 278.402 137.802 278.801 137.609 279.275C137.422 279.744 137.328 280.289 137.328 280.91V281.49H134.779V283.063H137.328V291ZM150.741 291H152.886V290.851C152.768 290.604 152.678 290.312 152.613 289.972C152.554 289.626 152.525 289.239 152.525 288.812V284.584C152.525 284.045 152.426 283.57 152.226 283.16C152.027 282.744 151.752 282.401 151.4 282.132C151.049 281.862 150.63 281.66 150.143 281.525C149.663 281.385 149.144 281.314 148.588 281.314C147.967 281.314 147.413 281.396 146.927 281.561C146.446 281.719 146.042 281.936 145.714 282.211C145.374 282.48 145.116 282.791 144.94 283.143C144.764 283.494 144.674 283.86 144.668 284.241H146.777C146.777 284.06 146.809 283.89 146.874 283.731C146.944 283.567 147.05 283.43 147.19 283.318C147.331 283.195 147.507 283.099 147.718 283.028C147.934 282.958 148.186 282.923 148.473 282.923C148.79 282.923 149.068 282.964 149.308 283.046C149.554 283.122 149.762 283.233 149.932 283.38C150.091 283.526 150.211 283.699 150.293 283.898C150.381 284.098 150.425 284.32 150.425 284.566V285.208H148.895C148.21 285.208 147.595 285.272 147.05 285.401C146.511 285.53 146.056 285.718 145.687 285.964C145.289 286.228 144.984 286.562 144.773 286.966C144.568 287.364 144.466 287.824 144.466 288.346C144.466 288.75 144.545 289.128 144.703 289.479C144.867 289.825 145.096 290.121 145.388 290.367C145.676 290.619 146.021 290.818 146.426 290.965C146.836 291.105 147.287 291.176 147.779 291.176C148.084 291.176 148.368 291.146 148.632 291.088C148.895 291.029 149.141 290.947 149.37 290.842C149.598 290.742 149.804 290.625 149.985 290.49C150.173 290.35 150.34 290.203 150.486 290.051C150.515 290.232 150.548 290.408 150.583 290.578C150.624 290.742 150.677 290.883 150.741 291ZM148.183 289.488C147.914 289.488 147.679 289.456 147.48 289.392C147.281 289.321 147.114 289.228 146.979 289.11C146.845 288.993 146.742 288.853 146.672 288.688C146.601 288.519 146.566 288.337 146.566 288.144C146.566 287.909 146.607 287.698 146.689 287.511C146.777 287.323 146.909 287.162 147.085 287.027C147.284 286.869 147.551 286.749 147.885 286.667C148.219 286.579 148.614 286.535 149.071 286.535H150.425V288.293C150.348 288.445 150.24 288.592 150.099 288.732C149.959 288.873 149.792 288.999 149.598 289.11C149.405 289.222 149.188 289.312 148.948 289.383C148.714 289.453 148.459 289.488 148.183 289.488ZM160.63 291H162.537V281.49H160.428V288.223C160.346 288.398 160.246 288.56 160.129 288.706C160.012 288.847 159.877 288.97 159.724 289.075C159.543 289.192 159.332 289.286 159.092 289.356C158.851 289.421 158.579 289.453 158.274 289.453C157.981 289.453 157.726 289.415 157.51 289.339C157.293 289.263 157.114 289.134 156.974 288.952C156.833 288.776 156.73 288.542 156.666 288.249C156.601 287.95 156.569 287.581 156.569 287.142V281.49H154.469V287.124C154.469 287.839 154.548 288.454 154.706 288.97C154.864 289.479 155.087 289.898 155.374 290.227C155.667 290.555 156.016 290.798 156.42 290.956C156.83 291.108 157.281 291.185 157.773 291.185C158.348 291.185 158.866 291.053 159.329 290.789C159.792 290.52 160.184 290.147 160.507 289.673L160.63 291ZM164.533 277.5V279.249H167.539V289.26H164.533V291H172.54V289.26H169.657V277.5H164.533ZM178.078 279.17H175.969V281.49H173.666V283.063H175.969V287.739C175.969 288.349 176.048 288.87 176.206 289.304C176.37 289.737 176.596 290.092 176.883 290.367C177.17 290.648 177.513 290.856 177.911 290.991C178.315 291.12 178.758 291.185 179.238 291.185C179.502 291.185 179.766 291.17 180.029 291.141C180.299 291.117 180.557 291.082 180.803 291.035C181.049 290.988 181.277 290.933 181.488 290.868C181.705 290.798 181.89 290.716 182.042 290.622L181.814 289.172C181.708 289.195 181.576 289.225 181.418 289.26C181.266 289.289 181.102 289.315 180.926 289.339C180.744 289.368 180.557 289.392 180.363 289.409C180.17 289.427 179.982 289.436 179.801 289.436C179.549 289.436 179.317 289.406 179.106 289.348C178.896 289.289 178.714 289.189 178.562 289.049C178.409 288.914 178.289 288.729 178.201 288.495C178.119 288.255 178.078 287.959 178.078 287.607V283.063H181.655V281.49H178.078V279.17Z" fill="#8C84EA"/>
<path d="M195.034 285.797V285.946C195.034 286.784 195.099 287.569 195.228 288.302C195.357 289.028 195.529 289.702 195.746 290.323C195.963 290.95 196.215 291.519 196.502 292.028C196.795 292.544 197.103 293.001 197.425 293.399C197.747 293.798 198.075 294.135 198.409 294.41C198.743 294.691 199.066 294.908 199.376 295.061L199.798 293.883C199.564 293.701 199.329 293.476 199.095 293.206C198.861 292.937 198.635 292.626 198.418 292.274C198.213 291.929 198.017 291.53 197.829 291.079C197.648 290.628 197.487 290.139 197.346 289.611C197.235 289.172 197.138 288.639 197.056 288.012C196.974 287.379 196.933 286.696 196.933 285.964V285.779C196.933 285.029 196.974 284.332 197.056 283.688C197.144 283.043 197.261 282.454 197.407 281.921C197.566 281.353 197.753 280.828 197.97 280.348C198.193 279.867 198.43 279.448 198.682 279.091C198.863 278.839 199.048 278.613 199.236 278.414C199.423 278.215 199.611 278.045 199.798 277.904L199.376 276.683C199.066 276.835 198.743 277.052 198.409 277.333C198.075 277.608 197.75 277.945 197.434 278.344C197.112 278.742 196.804 279.199 196.511 279.715C196.224 280.23 195.969 280.796 195.746 281.411C195.529 282.038 195.357 282.721 195.228 283.459C195.099 284.191 195.034 284.971 195.034 285.797ZM210.091 294.19L210.337 292.96C210.015 292.96 209.751 292.872 209.546 292.696C209.341 292.526 209.177 292.304 209.054 292.028C208.931 291.753 208.846 291.445 208.799 291.105C208.758 290.766 208.738 290.429 208.738 290.095V288.636C208.732 287.938 208.562 287.326 208.228 286.799C207.9 286.266 207.381 285.861 206.672 285.586C207.375 285.305 207.894 284.897 208.228 284.364C208.568 283.825 208.738 283.207 208.738 282.51V281.051C208.738 280.717 208.746 280.38 208.764 280.04C208.787 279.7 208.852 279.393 208.957 279.117C209.063 278.842 209.224 278.619 209.441 278.449C209.658 278.273 209.956 278.186 210.337 278.186L210.091 276.964C209.511 276.97 209.013 277.087 208.597 277.315C208.187 277.538 207.856 277.828 207.604 278.186C207.311 278.578 207.097 279.032 206.962 279.548C206.827 280.063 206.76 280.564 206.76 281.051V282.51C206.76 283.324 206.57 283.91 206.189 284.268C205.814 284.625 205.237 284.804 204.457 284.804V286.359C205.237 286.359 205.814 286.538 206.189 286.896C206.57 287.253 206.76 287.833 206.76 288.636V290.095C206.76 290.558 206.824 291.029 206.953 291.51C207.082 291.996 207.284 292.436 207.56 292.828C207.829 293.227 208.175 293.549 208.597 293.795C209.019 294.047 209.517 294.179 210.091 294.19ZM226.951 291.176C227.876 291.176 228.664 290.994 229.315 290.631C229.971 290.268 230.457 289.857 230.774 289.4L229.649 288.311C229.356 288.686 228.984 288.976 228.533 289.181C228.081 289.38 227.595 289.479 227.074 289.479C226.693 289.479 226.341 289.415 226.019 289.286C225.703 289.157 225.427 288.976 225.193 288.741C224.958 288.519 224.774 288.267 224.639 287.985C224.504 287.704 224.405 287.355 224.34 286.939V286.896H230.932V285.99C230.932 285.311 230.841 284.684 230.66 284.109C230.478 283.535 230.208 283.04 229.851 282.624C229.494 282.214 229.051 281.895 228.524 281.666C227.997 281.432 227.39 281.314 226.705 281.314C226.089 281.314 225.509 281.432 224.964 281.666C224.425 281.895 223.951 282.223 223.54 282.65C223.13 283.078 222.808 283.594 222.574 284.197C222.339 284.801 222.222 285.475 222.222 286.219V286.579C222.222 287.229 222.333 287.836 222.556 288.398C222.785 288.955 223.107 289.438 223.523 289.849C223.939 290.265 224.437 290.59 225.017 290.824C225.603 291.059 226.247 291.176 226.951 291.176ZM226.696 283.02C227.047 283.02 227.355 283.081 227.619 283.204C227.888 283.321 228.111 283.479 228.287 283.679C228.468 283.884 228.609 284.124 228.708 284.399C228.808 284.669 228.858 284.941 228.858 285.217V285.357H224.384C224.449 284.994 224.548 284.669 224.683 284.382C224.818 284.095 224.985 283.849 225.184 283.644C225.383 283.444 225.609 283.292 225.861 283.187C226.119 283.075 226.397 283.02 226.696 283.02ZM235.354 291H237.209L240.935 281.49H238.755L236.426 288.39L236.286 289.022L236.145 288.39L233.79 281.49H231.61L235.354 291ZM246.412 291.176C247.337 291.176 248.126 290.994 248.776 290.631C249.432 290.268 249.919 289.857 250.235 289.4L249.11 288.311C248.817 288.686 248.445 288.976 247.994 289.181C247.543 289.38 247.056 289.479 246.535 289.479C246.154 289.479 245.802 289.415 245.48 289.286C245.164 289.157 244.888 288.976 244.654 288.741C244.42 288.519 244.235 288.267 244.1 287.985C243.965 287.704 243.866 287.355 243.801 286.939V286.896H250.393V285.99C250.393 285.311 250.302 284.684 250.121 284.109C249.939 283.535 249.67 283.04 249.312 282.624C248.955 282.214 248.512 281.895 247.985 281.666C247.458 281.432 246.851 281.314 246.166 281.314C245.55 281.314 244.97 281.432 244.425 281.666C243.886 281.895 243.412 282.223 243.002 282.65C242.591 283.078 242.269 283.594 242.035 284.197C241.8 284.801 241.683 285.475 241.683 286.219V286.579C241.683 287.229 241.795 287.836 242.017 288.398C242.246 288.955 242.568 289.438 242.984 289.849C243.4 290.265 243.898 290.59 244.478 290.824C245.064 291.059 245.709 291.176 246.412 291.176ZM246.157 283.02C246.508 283.02 246.816 283.081 247.08 283.204C247.349 283.321 247.572 283.479 247.748 283.679C247.929 283.884 248.07 284.124 248.17 284.399C248.269 284.669 248.319 284.941 248.319 285.217V285.357H243.845C243.91 284.994 244.009 284.669 244.144 284.382C244.279 284.095 244.446 283.849 244.645 283.644C244.844 283.444 245.07 283.292 245.322 283.187C245.58 283.075 245.858 283.02 246.157 283.02ZM251.704 291H253.804V284.215C253.898 284.057 254.007 283.91 254.13 283.775C254.253 283.641 254.384 283.526 254.525 283.433C254.707 283.31 254.909 283.216 255.132 283.151C255.354 283.081 255.594 283.046 255.852 283.046C256.163 283.046 256.438 283.081 256.678 283.151C256.919 283.216 257.124 283.327 257.294 283.485C257.464 283.644 257.592 283.854 257.68 284.118C257.768 284.382 257.812 284.71 257.812 285.103V291H259.913V285.067C259.913 284.399 259.834 283.831 259.675 283.362C259.517 282.888 259.295 282.498 259.007 282.193C258.72 281.889 258.375 281.666 257.97 281.525C257.566 281.385 257.121 281.314 256.634 281.314C256.265 281.314 255.914 281.367 255.58 281.473C255.246 281.578 254.938 281.728 254.657 281.921C254.481 282.044 254.314 282.185 254.156 282.343C254.004 282.495 253.863 282.662 253.734 282.844L253.602 281.49H251.704V291ZM265.653 279.17H263.544V281.49H261.241V283.063H263.544V287.739C263.544 288.349 263.623 288.87 263.781 289.304C263.945 289.737 264.171 290.092 264.458 290.367C264.745 290.648 265.088 290.856 265.486 290.991C265.89 291.12 266.333 291.185 266.813 291.185C267.077 291.185 267.341 291.17 267.604 291.141C267.874 291.117 268.132 291.082 268.378 291.035C268.624 290.988 268.852 290.933 269.063 290.868C269.28 290.798 269.465 290.716 269.617 290.622L269.388 289.172C269.283 289.195 269.151 289.225 268.993 289.26C268.841 289.289 268.677 289.315 268.501 289.339C268.319 289.368 268.132 289.392 267.938 289.409C267.745 289.427 267.557 289.436 267.376 289.436C267.124 289.436 266.892 289.406 266.681 289.348C266.47 289.289 266.289 289.189 266.136 289.049C265.984 288.914 265.864 288.729 265.776 288.495C265.694 288.255 265.653 287.959 265.653 287.607V283.063H269.23V281.49H265.653V279.17ZM275.797 290.728V288.952H273.731V290.807C273.731 291.387 273.661 291.908 273.52 292.371C273.386 292.834 273.192 293.273 272.94 293.689L274.118 294.313C274.622 293.862 275.026 293.309 275.331 292.652C275.641 292.002 275.797 291.36 275.797 290.728ZM296.699 291H298.844V290.851C298.727 290.604 298.636 290.312 298.571 289.972C298.513 289.626 298.483 289.239 298.483 288.812V284.584C298.483 284.045 298.384 283.57 298.185 283.16C297.985 282.744 297.71 282.401 297.358 282.132C297.007 281.862 296.588 281.66 296.102 281.525C295.621 281.385 295.103 281.314 294.546 281.314C293.925 281.314 293.371 281.396 292.885 281.561C292.404 281.719 292 281.936 291.672 282.211C291.332 282.48 291.074 282.791 290.898 283.143C290.723 283.494 290.632 283.86 290.626 284.241H292.735C292.735 284.06 292.768 283.89 292.832 283.731C292.902 283.567 293.008 283.43 293.148 283.318C293.289 283.195 293.465 283.099 293.676 283.028C293.893 282.958 294.145 282.923 294.432 282.923C294.748 282.923 295.026 282.964 295.267 283.046C295.513 283.122 295.721 283.233 295.891 283.38C296.049 283.526 296.169 283.699 296.251 283.898C296.339 284.098 296.383 284.32 296.383 284.566V285.208H294.854C294.168 285.208 293.553 285.272 293.008 285.401C292.469 285.53 292.015 285.718 291.646 285.964C291.247 286.228 290.942 286.562 290.731 286.966C290.526 287.364 290.424 287.824 290.424 288.346C290.424 288.75 290.503 289.128 290.661 289.479C290.825 289.825 291.054 290.121 291.347 290.367C291.634 290.619 291.979 290.818 292.384 290.965C292.794 291.105 293.245 291.176 293.737 291.176C294.042 291.176 294.326 291.146 294.59 291.088C294.854 291.029 295.1 290.947 295.328 290.842C295.557 290.742 295.762 290.625 295.943 290.49C296.131 290.35 296.298 290.203 296.444 290.051C296.474 290.232 296.506 290.408 296.541 290.578C296.582 290.742 296.635 290.883 296.699 291ZM294.142 289.488C293.872 289.488 293.638 289.456 293.438 289.392C293.239 289.321 293.072 289.228 292.938 289.11C292.803 288.993 292.7 288.853 292.63 288.688C292.56 288.519 292.524 288.337 292.524 288.144C292.524 287.909 292.565 287.698 292.647 287.511C292.735 287.323 292.867 287.162 293.043 287.027C293.242 286.869 293.509 286.749 293.843 286.667C294.177 286.579 294.572 286.535 295.029 286.535H296.383V288.293C296.307 288.445 296.198 288.592 296.058 288.732C295.917 288.873 295.75 288.999 295.557 289.11C295.363 289.222 295.146 289.312 294.906 289.383C294.672 289.453 294.417 289.488 294.142 289.488ZM304.496 289.488C304.057 289.488 303.691 289.4 303.398 289.225C303.105 289.049 302.873 288.814 302.703 288.521C302.527 288.24 302.401 287.915 302.325 287.546C302.255 287.171 302.22 286.79 302.22 286.403V286.096C302.22 285.715 302.255 285.34 302.325 284.971C302.401 284.602 302.53 284.273 302.712 283.986C302.882 283.699 303.11 283.468 303.398 283.292C303.691 283.11 304.057 283.02 304.496 283.02C304.783 283.02 305.05 283.069 305.296 283.169C305.548 283.269 305.765 283.403 305.946 283.573C306.122 283.743 306.257 283.942 306.351 284.171C306.45 284.399 306.5 284.643 306.5 284.9H308.478C308.483 284.373 308.387 283.89 308.188 283.45C307.994 283.011 307.722 282.633 307.37 282.316C307.019 282 306.597 281.754 306.105 281.578C305.618 281.402 305.088 281.314 304.514 281.314C303.787 281.314 303.149 281.443 302.598 281.701C302.053 281.953 301.596 282.296 301.227 282.729C300.857 283.163 300.579 283.67 300.392 284.25C300.21 284.83 300.119 285.445 300.119 286.096V286.403C300.119 287.06 300.213 287.678 300.4 288.258C300.588 288.832 300.866 289.336 301.235 289.77C301.599 290.203 302.053 290.549 302.598 290.807C303.149 291.059 303.79 291.185 304.523 291.185C305.05 291.185 305.551 291.1 306.025 290.93C306.506 290.754 306.931 290.514 307.3 290.209C307.663 289.916 307.95 289.567 308.161 289.163C308.378 288.753 308.483 288.316 308.478 287.854H306.5C306.5 288.094 306.444 288.313 306.333 288.513C306.228 288.712 306.084 288.885 305.902 289.031C305.715 289.178 305.498 289.292 305.252 289.374C305.012 289.45 304.76 289.488 304.496 289.488ZM314.306 279.17H312.196V281.49H309.894V283.063H312.196V287.739C312.196 288.349 312.276 288.87 312.434 289.304C312.598 289.737 312.823 290.092 313.111 290.367C313.398 290.648 313.74 290.856 314.139 290.991C314.543 291.12 314.986 291.185 315.466 291.185C315.73 291.185 315.993 291.17 316.257 291.141C316.527 291.117 316.784 291.082 317.03 291.035C317.277 290.988 317.505 290.933 317.716 290.868C317.933 290.798 318.117 290.716 318.27 290.622L318.041 289.172C317.936 289.195 317.804 289.225 317.646 289.26C317.493 289.289 317.329 289.315 317.153 289.339C316.972 289.368 316.784 289.392 316.591 289.409C316.398 289.427 316.21 289.436 316.028 289.436C315.777 289.436 315.545 289.406 315.334 289.348C315.123 289.289 314.942 289.189 314.789 289.049C314.637 288.914 314.517 288.729 314.429 288.495C314.347 288.255 314.306 287.959 314.306 287.607V283.063H317.883V281.49H314.306V279.17ZM320.301 281.49V283.239H323.228V289.26H320.301V291H328.141V289.26H325.346V281.49H320.301ZM323.034 279.029C323.034 279.252 323.087 279.448 323.193 279.618C323.304 279.782 323.465 279.896 323.676 279.961C323.881 280.025 324.069 280.04 324.239 280.005C324.408 279.97 324.555 279.896 324.678 279.785C324.924 279.721 325.112 279.595 325.24 279.407C325.369 279.214 325.413 278.988 325.372 278.73C325.343 278.479 325.229 278.273 325.03 278.115C324.836 277.951 324.581 277.869 324.265 277.869C324.077 277.869 323.907 277.898 323.755 277.957C323.609 278.01 323.483 278.086 323.377 278.186C323.266 278.291 323.181 278.417 323.122 278.563C323.064 278.704 323.034 278.859 323.034 279.029ZM329.161 286.157V286.342C329.161 287.039 329.261 287.681 329.46 288.267C329.659 288.853 329.95 289.362 330.33 289.796C330.705 290.229 331.168 290.569 331.719 290.815C332.27 291.062 332.894 291.185 333.591 291.185C334.283 291.185 334.901 291.062 335.446 290.815C335.996 290.569 336.459 290.229 336.834 289.796C337.209 289.362 337.496 288.853 337.696 288.267C337.895 287.681 337.994 287.039 337.994 286.342V286.157C337.994 285.466 337.895 284.827 337.696 284.241C337.496 283.649 337.209 283.137 336.834 282.703C336.453 282.27 335.988 281.93 335.437 281.684C334.892 281.438 334.271 281.314 333.574 281.314C332.876 281.314 332.255 281.438 331.71 281.684C331.165 281.93 330.705 282.27 330.33 282.703C329.95 283.137 329.659 283.649 329.46 284.241C329.261 284.827 329.161 285.466 329.161 286.157ZM331.262 286.342V286.157C331.262 285.741 331.306 285.343 331.394 284.962C331.488 284.581 331.631 284.247 331.825 283.96C332.012 283.673 332.249 283.444 332.536 283.274C332.829 283.104 333.175 283.02 333.574 283.02C333.978 283.02 334.324 283.104 334.611 283.274C334.904 283.444 335.147 283.673 335.34 283.96C335.522 284.247 335.659 284.581 335.753 284.962C335.847 285.343 335.894 285.741 335.894 286.157V286.342C335.894 286.77 335.847 287.174 335.753 287.555C335.665 287.936 335.528 288.27 335.34 288.557C335.153 288.844 334.912 289.072 334.619 289.242C334.326 289.406 333.984 289.488 333.591 289.488C333.187 289.488 332.838 289.406 332.545 289.242C332.252 289.072 332.012 288.844 331.825 288.557C331.631 288.27 331.488 287.936 331.394 287.555C331.306 287.174 331.262 286.77 331.262 286.342ZM339.279 291H341.379V284.215C341.473 284.057 341.581 283.91 341.704 283.775C341.828 283.641 341.959 283.526 342.1 283.433C342.282 283.31 342.484 283.216 342.706 283.151C342.929 283.081 343.169 283.046 343.427 283.046C343.738 283.046 344.013 283.081 344.253 283.151C344.494 283.216 344.699 283.327 344.869 283.485C345.038 283.644 345.167 283.854 345.255 284.118C345.343 284.382 345.387 284.71 345.387 285.103V291H347.488V285.067C347.488 284.399 347.409 283.831 347.25 283.362C347.092 282.888 346.87 282.498 346.582 282.193C346.295 281.889 345.95 281.666 345.545 281.525C345.141 281.385 344.696 281.314 344.209 281.314C343.84 281.314 343.489 281.367 343.155 281.473C342.821 281.578 342.513 281.728 342.232 281.921C342.056 282.044 341.889 282.185 341.731 282.343C341.579 282.495 341.438 282.662 341.309 282.844L341.177 281.49H339.279V291ZM360.26 292.96L360.515 294.19C361.089 294.185 361.587 294.056 362.009 293.804C362.431 293.552 362.777 293.227 363.046 292.828C363.31 292.441 363.509 292.005 363.644 291.519C363.779 291.032 363.846 290.558 363.846 290.095V288.636C363.846 288.308 363.878 288.018 363.943 287.766C364.007 287.508 364.104 287.291 364.233 287.115C364.415 286.852 364.664 286.661 364.98 286.544C365.296 286.421 365.686 286.359 366.149 286.359V284.804C365.692 284.804 365.302 284.745 364.98 284.628C364.658 284.505 364.409 284.317 364.233 284.065C364.098 283.884 363.999 283.664 363.934 283.406C363.876 283.148 363.846 282.85 363.846 282.51V281.051C363.846 280.588 363.785 280.113 363.662 279.627C363.544 279.135 363.348 278.692 363.073 278.3C362.809 277.901 362.466 277.582 362.044 277.342C361.628 277.096 361.119 276.97 360.515 276.964L360.269 278.186C360.65 278.186 360.949 278.273 361.166 278.449C361.382 278.619 361.544 278.842 361.649 279.117C361.749 279.393 361.81 279.7 361.834 280.04C361.863 280.38 361.878 280.717 361.878 281.051V282.51C361.878 282.938 361.936 283.339 362.053 283.714C362.176 284.083 362.364 284.414 362.616 284.707C362.774 284.889 362.956 285.056 363.161 285.208C363.372 285.354 363.606 285.48 363.864 285.586C363.571 285.709 363.31 285.858 363.082 286.034C362.859 286.204 362.669 286.397 362.51 286.614C362.294 286.89 362.132 287.2 362.027 287.546C361.927 287.886 361.878 288.249 361.878 288.636V290.095C361.878 290.429 361.851 290.766 361.798 291.105C361.752 291.445 361.667 291.753 361.544 292.028C361.42 292.304 361.253 292.526 361.043 292.696C360.837 292.872 360.577 292.96 360.26 292.96ZM374.737 285.946V285.797C374.737 284.959 374.67 284.183 374.535 283.468C374.4 282.747 374.224 282.076 374.007 281.455C373.791 280.828 373.536 280.26 373.243 279.75C372.95 279.234 372.636 278.771 372.302 278.361C371.98 277.963 371.646 277.623 371.3 277.342C370.961 277.055 370.632 276.835 370.316 276.683L369.903 277.86C370.085 278.001 370.269 278.177 370.457 278.388C370.65 278.593 370.835 278.827 371.01 279.091C371.262 279.46 371.503 279.896 371.731 280.4C371.965 280.904 372.165 281.473 372.329 282.105C372.452 282.592 372.554 283.143 372.636 283.758C372.718 284.373 372.759 285.047 372.759 285.779V285.964C372.759 286.673 372.721 287.332 372.645 287.941C372.575 288.551 372.475 289.113 372.346 289.629C372.212 290.186 372.045 290.692 371.845 291.149C371.652 291.612 371.444 292.025 371.221 292.389C371.01 292.717 370.794 293.007 370.571 293.259C370.348 293.511 370.126 293.719 369.903 293.883L370.316 295.061C370.632 294.908 370.961 294.691 371.3 294.41C371.64 294.129 371.974 293.783 372.302 293.373C372.63 292.975 372.941 292.518 373.234 292.002C373.527 291.486 373.785 290.915 374.007 290.288C374.23 289.667 374.406 288.993 374.535 288.267C374.67 287.54 374.737 286.767 374.737 285.946ZM380.82 289.734C380.82 290.139 380.952 290.481 381.216 290.763C381.485 291.038 381.86 291.176 382.341 291.176C382.815 291.176 383.187 291.038 383.457 290.763C383.732 290.487 383.87 290.145 383.87 289.734C383.87 289.324 383.735 288.979 383.466 288.697C383.196 288.41 382.821 288.267 382.341 288.267C381.848 288.267 381.47 288.41 381.207 288.697C380.949 288.984 380.82 289.33 380.82 289.734ZM390.551 289.734C390.551 290.139 390.682 290.481 390.946 290.763C391.216 291.038 391.591 291.176 392.071 291.176C392.546 291.176 392.918 291.038 393.187 290.763C393.463 290.487 393.6 290.145 393.6 289.734C393.6 289.324 393.466 288.979 393.196 288.697C392.927 288.41 392.552 288.267 392.071 288.267C391.579 288.267 391.201 288.41 390.937 288.697C390.68 288.984 390.551 289.33 390.551 289.734ZM400.281 289.734C400.281 290.139 400.413 290.481 400.677 290.763C400.946 291.038 401.321 291.176 401.802 291.176C402.276 291.176 402.648 291.038 402.918 290.763C403.193 290.487 403.331 290.145 403.331 289.734C403.331 289.324 403.196 288.979 402.927 288.697C402.657 288.41 402.282 288.267 401.802 288.267C401.309 288.267 400.932 288.41 400.668 288.697C400.41 288.984 400.281 289.33 400.281 289.734Z" fill="white"/>
</g>
<path d="M50.3008 263.756C50.3008 263.604 50.2871 263.465 50.2598 263.34C50.2324 263.215 50.1738 263.1 50.084 262.994C49.998 262.889 49.8711 262.783 49.7031 262.678C49.5391 262.572 49.3242 262.463 49.0586 262.35C48.7422 262.217 48.4355 262.076 48.1387 261.928C47.8418 261.775 47.5742 261.6 47.3359 261.4C47.0977 261.201 46.9082 260.967 46.7676 260.697C46.6309 260.424 46.5625 260.104 46.5625 259.736C46.5625 259.377 46.627 259.051 46.7559 258.758C46.8887 258.465 47.0762 258.215 47.3184 258.008C47.5605 257.797 47.8438 257.635 48.168 257.521C48.4961 257.408 48.8613 257.352 49.2637 257.352C49.8105 257.352 50.2832 257.465 50.6816 257.691C51.084 257.918 51.3945 258.229 51.6133 258.623C51.8359 259.018 51.9473 259.471 51.9473 259.982H50.2363C50.2363 259.74 50.2012 259.527 50.1309 259.344C50.0645 259.156 49.957 259.01 49.8086 258.904C49.6602 258.799 49.4688 258.746 49.2344 258.746C49.0156 258.746 48.834 258.791 48.6895 258.881C48.5488 258.967 48.4434 259.086 48.373 259.238C48.3066 259.387 48.2734 259.555 48.2734 259.742C48.2734 259.883 48.3066 260.01 48.373 260.123C48.4434 260.232 48.5391 260.332 48.6602 260.422C48.7812 260.508 48.9238 260.592 49.0879 260.674C49.2559 260.756 49.4395 260.836 49.6387 260.914C50.0254 261.066 50.3672 261.234 50.6641 261.418C50.9609 261.598 51.209 261.801 51.4082 262.027C51.6074 262.25 51.7578 262.502 51.8594 262.783C51.9609 263.064 52.0117 263.385 52.0117 263.744C52.0117 264.1 51.9492 264.424 51.8242 264.717C51.7031 265.006 51.5254 265.256 51.291 265.467C51.0566 265.674 50.7734 265.834 50.4414 265.947C50.1133 266.061 49.7461 266.117 49.3398 266.117C48.9453 266.117 48.5723 266.062 48.2207 265.953C47.8691 265.84 47.5586 265.67 47.2891 265.443C47.0234 265.213 46.8145 264.922 46.6621 264.57C46.5098 264.215 46.4336 263.795 46.4336 263.311H48.1504C48.1504 263.568 48.1758 263.789 48.2266 263.973C48.2773 264.152 48.3555 264.297 48.4609 264.406C48.5664 264.512 48.6953 264.592 48.8477 264.646C49.0039 264.697 49.1816 264.723 49.3809 264.723C49.6074 264.723 49.7871 264.68 49.9199 264.594C50.0566 264.508 50.1543 264.393 50.2129 264.248C50.2715 264.104 50.3008 263.939 50.3008 263.756ZM59.2645 264.582V266H55.5555V264.582H59.2645ZM56.0887 257.469V266H54.3719V257.469H56.0887ZM58.7664 260.926V262.303H55.5555V260.926H58.7664ZM59.2527 257.469V258.893H55.5555V257.469H59.2527ZM61.4723 257.469H64.2086C64.7789 257.469 65.2652 257.566 65.6676 257.762C66.0699 257.957 66.3785 258.246 66.5934 258.629C66.8082 259.012 66.9156 259.484 66.9156 260.047C66.9156 260.508 66.8531 260.902 66.7281 261.23C66.6031 261.555 66.4254 261.826 66.1949 262.045C65.9645 262.26 65.6891 262.432 65.3687 262.561L64.8473 262.871H62.6266L62.6207 261.447H64.1617C64.3961 261.447 64.5895 261.396 64.7418 261.295C64.898 261.189 65.0133 261.043 65.0875 260.855C65.1656 260.664 65.2047 260.441 65.2047 260.188C65.2047 259.918 65.1695 259.688 65.0992 259.496C65.0328 259.301 64.9254 259.152 64.777 259.051C64.6324 258.945 64.443 258.893 64.2086 258.893H63.1891V266H61.4723V257.469ZM65.3453 266L63.7809 262.197L65.5797 262.191L67.1793 265.918V266H65.3453ZM71.848 264.178L73.4652 257.469H75.3168L72.8441 266H71.5961L71.848 264.178ZM70.4652 257.469L72.0766 264.178L72.3402 266H71.0863L68.6313 257.469H70.4652ZM82.2238 264.582V266H78.5148V264.582H82.2238ZM79.048 257.469V266H77.3312V257.469H79.048ZM81.7258 260.926V262.303H78.5148V260.926H81.7258ZM82.2121 257.469V258.893H78.5148V257.469H82.2121ZM84.4316 257.469H87.168C87.7383 257.469 88.2246 257.566 88.627 257.762C89.0293 257.957 89.3379 258.246 89.5527 258.629C89.7676 259.012 89.875 259.484 89.875 260.047C89.875 260.508 89.8125 260.902 89.6875 261.23C89.5625 261.555 89.3848 261.826 89.1543 262.045C88.9238 262.26 88.6484 262.432 88.3281 262.561L87.8066 262.871H85.5859L85.5801 261.447H87.1211C87.3555 261.447 87.5488 261.396 87.7012 261.295C87.8574 261.189 87.9727 261.043 88.0469 260.855C88.125 260.664 88.1641 260.441 88.1641 260.188C88.1641 259.918 88.1289 259.688 88.0586 259.496C87.9922 259.301 87.8848 259.152 87.7363 259.051C87.5918 258.945 87.4023 258.893 87.168 258.893H86.1484V266H84.4316V257.469ZM88.3047 266L86.7402 262.197L88.5391 262.191L90.1387 265.918V266H88.3047ZM97.0047 264.582V266H93.4598V264.582H97.0047ZM93.9871 257.469V266H92.2703V257.469H93.9871ZM104.105 264.582V266H100.396V264.582H104.105ZM100.929 257.469V266H99.2125V257.469H100.929ZM103.607 260.926V262.303H100.396V260.926H103.607ZM104.093 257.469V258.893H100.396V257.469H104.093ZM109.916 263.756C109.916 263.604 109.903 263.465 109.875 263.34C109.848 263.215 109.789 263.1 109.7 262.994C109.614 262.889 109.487 262.783 109.319 262.678C109.155 262.572 108.94 262.463 108.674 262.35C108.358 262.217 108.051 262.076 107.754 261.928C107.457 261.775 107.19 261.6 106.952 261.4C106.713 261.201 106.524 260.967 106.383 260.697C106.246 260.424 106.178 260.104 106.178 259.736C106.178 259.377 106.243 259.051 106.371 258.758C106.504 258.465 106.692 258.215 106.934 258.008C107.176 257.797 107.459 257.635 107.784 257.521C108.112 257.408 108.477 257.352 108.879 257.352C109.426 257.352 109.899 257.465 110.297 257.691C110.7 257.918 111.01 258.229 111.229 258.623C111.452 259.018 111.563 259.471 111.563 259.982H109.852C109.852 259.74 109.817 259.527 109.746 259.344C109.68 259.156 109.573 259.01 109.424 258.904C109.276 258.799 109.084 258.746 108.85 258.746C108.631 258.746 108.45 258.791 108.305 258.881C108.164 258.967 108.059 259.086 107.989 259.238C107.922 259.387 107.889 259.555 107.889 259.742C107.889 259.883 107.922 260.01 107.989 260.123C108.059 260.232 108.155 260.332 108.276 260.422C108.397 260.508 108.539 260.592 108.704 260.674C108.871 260.756 109.055 260.836 109.254 260.914C109.641 261.066 109.983 261.234 110.28 261.418C110.577 261.598 110.825 261.801 111.024 262.027C111.223 262.25 111.373 262.502 111.475 262.783C111.577 263.064 111.627 263.385 111.627 263.744C111.627 264.1 111.565 264.424 111.44 264.717C111.319 265.006 111.141 265.256 110.907 265.467C110.672 265.674 110.389 265.834 110.057 265.947C109.729 266.061 109.362 266.117 108.955 266.117C108.561 266.117 108.188 266.062 107.836 265.953C107.485 265.84 107.174 265.67 106.905 265.443C106.639 265.213 106.43 264.922 106.278 264.57C106.125 264.215 106.049 263.795 106.049 263.311H107.766C107.766 263.568 107.791 263.789 107.842 263.973C107.893 264.152 107.971 264.297 108.077 264.406C108.182 264.512 108.311 264.592 108.463 264.646C108.62 264.697 108.797 264.723 108.996 264.723C109.223 264.723 109.403 264.68 109.536 264.594C109.672 264.508 109.77 264.393 109.829 264.248C109.887 264.104 109.916 263.939 109.916 263.756ZM117.597 263.756C117.597 263.604 117.583 263.465 117.556 263.34C117.529 263.215 117.47 263.1 117.38 262.994C117.294 262.889 117.167 262.783 116.999 262.678C116.835 262.572 116.62 262.463 116.355 262.35C116.038 262.217 115.732 262.076 115.435 261.928C115.138 261.775 114.87 261.6 114.632 261.4C114.394 261.201 114.204 260.967 114.064 260.697C113.927 260.424 113.859 260.104 113.859 259.736C113.859 259.377 113.923 259.051 114.052 258.758C114.185 258.465 114.372 258.215 114.614 258.008C114.857 257.797 115.14 257.635 115.464 257.521C115.792 257.408 116.157 257.352 116.56 257.352C117.107 257.352 117.579 257.465 117.978 257.691C118.38 257.918 118.691 258.229 118.909 258.623C119.132 259.018 119.243 259.471 119.243 259.982H117.532C117.532 259.74 117.497 259.527 117.427 259.344C117.361 259.156 117.253 259.01 117.105 258.904C116.956 258.799 116.765 258.746 116.53 258.746C116.312 258.746 116.13 258.791 115.986 258.881C115.845 258.967 115.739 259.086 115.669 259.238C115.603 259.387 115.57 259.555 115.57 259.742C115.57 259.883 115.603 260.01 115.669 260.123C115.739 260.232 115.835 260.332 115.956 260.422C116.077 260.508 116.22 260.592 116.384 260.674C116.552 260.756 116.736 260.836 116.935 260.914C117.321 261.066 117.663 261.234 117.96 261.418C118.257 261.598 118.505 261.801 118.704 262.027C118.904 262.25 119.054 262.502 119.155 262.783C119.257 263.064 119.308 263.385 119.308 263.744C119.308 264.1 119.245 264.424 119.12 264.717C118.999 265.006 118.821 265.256 118.587 265.467C118.353 265.674 118.07 265.834 117.738 265.947C117.409 266.061 117.042 266.117 116.636 266.117C116.241 266.117 115.868 266.062 115.517 265.953C115.165 265.84 114.855 265.67 114.585 265.443C114.32 265.213 114.111 264.922 113.958 264.57C113.806 264.215 113.73 263.795 113.73 263.311H115.446C115.446 263.568 115.472 263.789 115.523 263.973C115.573 264.152 115.652 264.297 115.757 264.406C115.863 264.512 115.991 264.592 116.144 264.646C116.3 264.697 116.478 264.723 116.677 264.723C116.904 264.723 117.083 264.68 117.216 264.594C117.353 264.508 117.45 264.393 117.509 264.248C117.568 264.104 117.597 263.939 117.597 263.756ZM127.35 257.469V266H125.634V257.469H127.35ZM130.022 261.096V262.514H126.917V261.096H130.022ZM130.35 257.469V258.893H126.917V257.469H130.35ZM136.384 257.469H138.095V263.328C138.095 263.984 137.974 264.52 137.732 264.934C137.494 265.344 137.164 265.645 136.742 265.836C136.32 266.023 135.838 266.117 135.295 266.117C134.748 266.117 134.261 266.023 133.836 265.836C133.41 265.645 133.078 265.344 132.839 264.934C132.605 264.52 132.488 263.984 132.488 263.328V257.469H134.199V263.328C134.199 263.699 134.24 263.984 134.322 264.184C134.408 264.383 134.531 264.52 134.691 264.594C134.855 264.664 135.056 264.699 135.295 264.699C135.537 264.699 135.736 264.664 135.892 264.594C136.052 264.52 136.173 264.383 136.255 264.184C136.341 263.984 136.384 263.699 136.384 263.328V257.469ZM146.573 257.469V266H144.914L142.237 260.662V266H140.608V257.469H142.243L144.944 262.865V257.469H146.573ZM153.222 263.158H154.927C154.904 263.799 154.775 264.34 154.54 264.781C154.306 265.219 153.972 265.551 153.538 265.777C153.109 266.004 152.589 266.117 151.98 266.117C151.507 266.117 151.087 266.039 150.72 265.883C150.353 265.723 150.04 265.488 149.782 265.18C149.525 264.871 149.329 264.49 149.196 264.037C149.068 263.58 149.003 263.055 149.003 262.461V261.014C149.003 260.42 149.071 259.895 149.208 259.438C149.349 258.98 149.548 258.598 149.806 258.289C150.068 257.977 150.382 257.742 150.749 257.586C151.12 257.426 151.538 257.346 152.003 257.346C152.624 257.346 153.144 257.463 153.562 257.697C153.98 257.932 154.302 258.273 154.529 258.723C154.759 259.168 154.898 259.713 154.945 260.357H153.234C153.222 259.951 153.175 259.633 153.093 259.402C153.015 259.168 152.89 259.004 152.718 258.91C152.546 258.812 152.308 258.764 152.003 258.764C151.777 258.764 151.581 258.805 151.417 258.887C151.253 258.965 151.118 259.092 151.013 259.268C150.907 259.443 150.829 259.674 150.779 259.959C150.732 260.244 150.708 260.592 150.708 261.002V262.461C150.708 262.863 150.73 263.207 150.773 263.492C150.816 263.773 150.884 264.004 150.978 264.184C151.071 264.363 151.198 264.494 151.359 264.576C151.523 264.658 151.73 264.699 151.98 264.699C152.269 264.699 152.501 264.656 152.677 264.57C152.857 264.484 152.989 264.33 153.075 264.107C153.161 263.885 153.21 263.568 153.222 263.158ZM160.422 257.469V266H158.717V257.469H160.422ZM162.543 257.469V258.893H156.637V257.469H162.543ZM166.52 257.469V266H164.815V257.469H166.52ZM175.179 261.072V262.496C175.179 263.098 175.105 263.625 174.957 264.078C174.812 264.527 174.605 264.904 174.336 265.209C174.07 265.51 173.748 265.736 173.369 265.889C172.994 266.041 172.578 266.117 172.121 266.117C171.664 266.117 171.246 266.041 170.867 265.889C170.492 265.736 170.168 265.51 169.894 265.209C169.625 264.904 169.416 264.527 169.267 264.078C169.119 263.625 169.045 263.098 169.045 262.496V261.072C169.045 260.455 169.117 259.916 169.261 259.455C169.406 258.99 169.615 258.604 169.888 258.295C170.162 257.982 170.486 257.748 170.861 257.592C171.236 257.432 171.652 257.352 172.109 257.352C172.566 257.352 172.982 257.432 173.357 257.592C173.732 257.748 174.056 257.982 174.33 258.295C174.603 258.604 174.812 258.99 174.957 259.455C175.105 259.916 175.179 260.455 175.179 261.072ZM173.474 262.496V261.061C173.474 260.654 173.445 260.309 173.386 260.023C173.328 259.734 173.24 259.498 173.123 259.314C173.005 259.131 172.863 258.996 172.695 258.91C172.527 258.824 172.332 258.781 172.109 258.781C171.886 258.781 171.689 258.824 171.517 258.91C171.349 258.996 171.207 259.131 171.089 259.314C170.976 259.498 170.89 259.734 170.832 260.023C170.777 260.309 170.75 260.654 170.75 261.061V262.496C170.75 262.887 170.779 263.221 170.838 263.498C170.896 263.775 170.984 264.002 171.101 264.178C171.218 264.354 171.361 264.484 171.529 264.57C171.701 264.652 171.898 264.693 172.121 264.693C172.339 264.693 172.533 264.652 172.701 264.57C172.873 264.484 173.015 264.354 173.129 264.178C173.242 264.002 173.328 263.775 173.386 263.498C173.445 263.221 173.474 262.887 173.474 262.496ZM183.592 257.469V266H181.934L179.256 260.662V266H177.627V257.469H179.262L181.963 262.865V257.469H183.592Z" fill="white"/>
<circle cx="417" cy="245" r="4" fill="#95DD7B"/>
<g filter="url(#filter2_d_179_6851)">
<rect x="262" y="113" width="62" height="62" rx="31" fill="#4636F5"/>
</g>
<path fill-rule="evenodd" clip-rule="evenodd" d="M311.962 144.651H306.831C306.952 145.82 307.85 146.196 308.868 146.196C309.912 146.196 310.752 145.972 311.446 145.62V147.632C310.566 148.114 309.558 148.345 308.544 148.298C305.991 148.298 304.196 146.784 304.196 143.767C304.196 141.228 305.718 139.211 308.206 139.211C310.702 139.211 312 141.198 312 143.754C312 143.997 311.975 144.518 311.962 144.651ZM308.194 141.246C307.538 141.246 306.812 141.689 306.812 142.809H309.518C309.518 141.689 308.837 141.246 308.194 141.246ZM300.065 148.298C299.149 148.298 298.589 147.935 298.219 147.668L298.207 150.473L295.584 151V139.374H297.978L298.028 139.992C298.584 139.491 299.319 139.212 300.084 139.211C301.93 139.211 303.662 140.786 303.662 143.694C303.662 146.862 301.943 148.298 300.065 148.298ZM299.461 141.422C298.856 141.422 298.48 141.628 298.207 141.913L298.219 145.62C298.474 145.887 298.843 146.093 299.461 146.093C300.428 146.093 301.077 145.093 301.077 143.748C301.077 142.446 300.415 141.422 299.461 141.422ZM291.975 139.374H294.604V148.122H291.975V139.374ZM291.975 136.527L294.604 136V138.036L291.975 138.569V136.533V136.527ZM289.225 142.191V148.122H286.603V139.374H288.958L289.035 140.113C289.671 139.041 290.989 139.259 291.339 139.374V141.67C291.008 141.567 289.881 141.41 289.225 142.191ZM283.783 145.051C283.783 146.523 285.438 146.069 285.769 145.935V147.971C285.419 148.153 284.789 148.298 283.93 148.298C283.572 148.308 283.215 148.249 282.882 148.123C282.549 147.998 282.246 147.809 281.991 147.569C281.737 147.329 281.537 147.042 281.403 146.725C281.269 146.409 281.204 146.07 281.212 145.729L281.218 137.751L283.777 137.23V139.374H285.776V141.513H283.783V145.057V145.051ZM280.658 145.475C280.658 147.274 279.188 148.298 277.011 148.298C276.034 148.297 275.068 148.106 274.172 147.735V145.354C275.05 145.808 276.145 146.147 277.011 146.147C277.596 146.147 277.985 146.002 277.985 145.542C277.985 144.342 274 144.79 274 142.028C274 140.265 275.451 139.211 277.577 139.211C278.443 139.211 279.309 139.332 280.181 139.665V142.016C279.375 141.612 278.481 141.392 277.571 141.374C277.023 141.374 276.654 141.525 276.654 141.919C276.654 143.04 280.658 142.506 280.658 145.481V145.475Z" fill="white"/>
<g filter="url(#filter3_d_179_6851)">
<rect x="124" y="121" width="82" height="82" rx="41" fill="black"/>
</g>
<path d="M164.737 183C164.172 183 163.61 182.852 163.114 182.569L157.948 179.527C157.177 179.098 157.553 178.946 157.808 178.858C158.836 178.5 159.045 178.419 160.143 177.799C160.259 177.733 160.41 177.757 160.528 177.826L164.497 180.168C164.64 180.245 164.843 180.245 164.976 180.168L180.45 171.285C180.594 171.204 180.687 171.038 180.687 170.868V153.109C180.687 152.932 180.594 152.774 180.447 152.685L164.979 143.809C164.836 143.725 164.646 143.725 164.503 143.809L149.038 152.685C148.888 152.77 148.793 152.936 148.793 153.105V170.865C148.793 171.034 148.886 171.196 149.033 171.277L153.27 173.712C155.571 174.856 156.977 173.507 156.977 172.151V154.623C156.977 154.373 157.175 154.18 157.426 154.18H159.386C159.63 154.18 159.832 154.373 159.832 154.623V172.159C159.832 175.21 158.159 176.963 155.25 176.963C154.355 176.963 153.65 176.963 151.682 176L147.623 173.673C147.129 173.387 146.72 172.977 146.435 172.484C146.15 171.991 146 171.433 146 170.865V153.105C146 151.949 146.62 150.871 147.623 150.301L163.113 141.413C164.093 140.862 165.394 140.862 166.366 141.413L181.837 150.304C182.33 150.59 182.74 150.999 183.024 151.491C183.309 151.983 183.459 152.541 183.459 153.109V170.868C183.459 172.02 182.836 173.095 181.837 173.673L166.366 182.56C165.87 182.844 165.308 182.993 164.736 182.992" fill="white"/>
<path d="M168.992 170.495C162.184 170.495 160.757 167.408 160.757 164.818C160.757 164.572 160.958 164.376 161.207 164.376H163.217C163.439 164.376 163.626 164.535 163.661 164.752C163.965 166.775 164.868 167.796 168.985 167.796C172.264 167.796 173.658 167.064 173.658 165.346C173.658 164.357 173.261 163.622 168.167 163.129C163.906 162.714 161.274 161.786 161.274 158.419C161.274 155.318 163.922 153.471 168.358 153.471C173.339 153.471 175.808 155.179 176.12 158.85C176.125 158.912 176.117 158.974 176.096 159.033C176.076 159.091 176.044 159.145 176.001 159.191C175.959 159.236 175.907 159.273 175.85 159.297C175.792 159.322 175.73 159.335 175.668 159.335H173.647C173.436 159.335 173.253 159.189 173.21 158.989C172.724 156.861 171.547 156.18 168.35 156.18C164.771 156.18 164.354 157.411 164.354 158.335C164.354 159.454 164.845 159.782 169.674 160.413C174.457 161.04 176.727 161.925 176.727 165.246C176.727 168.593 173.9 170.513 168.969 170.513L168.992 170.495Z" fill="white"/>
<g filter="url(#filter4_d_179_6851)">
<path d="M277 73C277 99.5097 255.51 121 229 121C202.49 121 181 99.5097 181 73C181 46.4903 202.49 25 229 25C255.51 25 277 46.4903 277 73Z" fill="#F5C036"/>
</g>
<path d="M241.801 89.4035C242.682 89.407 243.546 89.1681 244.3 88.7129C245.055 88.2577 245.669 87.6038 246.076 86.8228C246.483 86.0417 246.668 85.1637 246.61 84.2848C246.551 83.4059 246.252 82.56 245.745 81.8398C245.238 81.1196 244.542 80.5528 243.734 80.2014C242.927 79.8501 242.038 79.7278 241.165 79.848C240.293 79.9681 239.47 80.326 238.787 80.8826C238.104 81.4391 237.588 82.1727 237.294 83.0032H224.2V84.6033C224.2 86.1856 223.731 87.7324 222.852 89.048C221.973 90.3637 220.723 91.3891 219.261 91.9946C217.799 92.6001 216.191 92.7586 214.639 92.4499C213.087 92.1412 211.661 91.3792 210.543 90.2604C209.424 89.1415 208.662 87.716 208.353 86.1641C208.044 84.6122 208.203 83.0036 208.808 81.5417C209.414 80.0798 210.439 78.8303 211.755 77.9513C213.071 77.0722 214.617 76.603 216.2 76.603V73.4028C214.053 73.403 211.951 74.0201 210.145 75.1808C208.339 76.3415 206.905 77.9968 206.013 79.9496C205.121 81.9024 204.809 84.0704 205.114 86.1955C205.419 88.3206 206.328 90.3132 207.734 91.936C209.139 93.5588 210.982 94.7435 213.042 95.349C215.101 95.9545 217.292 95.9553 219.352 95.3513C221.412 94.7472 223.255 93.5638 224.662 91.942C226.068 90.3201 226.979 88.3282 227.286 86.2033H237.294C237.622 87.1372 238.232 87.9465 239.039 88.5196C239.846 89.0927 240.811 89.4015 241.801 89.4035Z" fill="white"/>
<path d="M241.801 73.403C240.393 73.4031 238.998 73.6676 237.689 74.1827L232.623 65.3192C233.378 64.448 233.799 63.3378 233.813 62.1856C233.826 61.0333 233.431 59.9135 232.698 59.0247C231.964 58.136 230.94 57.5358 229.806 57.3306C228.672 57.1254 227.502 57.3285 226.503 57.9039C225.505 58.4793 224.743 59.3898 224.352 60.4738C223.961 61.5577 223.966 62.7452 224.368 63.8254C224.769 64.9057 225.54 65.8088 226.544 66.3748C227.547 66.9407 228.719 67.1327 229.851 66.9168L236.442 78.4509L237.831 77.6547C239.204 76.8706 240.779 76.5108 242.356 76.6207C243.933 76.7305 245.442 77.3052 246.693 78.272C247.944 79.2389 248.88 80.5547 249.384 82.0533C249.888 83.5518 249.936 85.166 249.523 86.6922C249.11 88.2183 248.255 89.5879 247.064 90.6281C245.874 91.6683 244.401 92.3324 242.834 92.5368C241.266 92.7411 239.673 92.4764 238.256 91.7761C236.838 91.0758 235.66 89.9713 234.87 88.602L232.099 90.2053C233.083 91.908 234.497 93.3219 236.199 94.305C237.902 95.288 239.834 95.8055 241.8 95.8055C243.766 95.8055 245.698 95.2879 247.4 94.3048C249.103 93.3218 250.517 91.9078 251.5 90.2051C252.483 88.5023 253.001 86.5708 253.001 84.6046C253.001 82.6384 252.484 80.7069 251.501 79.0041C250.518 77.3013 249.104 75.8872 247.401 74.904C245.698 73.9209 243.767 73.4032 241.801 73.403Z" fill="white"/>
<path d="M217.051 79.8891C215.926 79.6767 214.762 79.8695 213.765 80.4334C212.768 80.9972 212.003 81.8956 211.605 82.9695C211.208 84.0434 211.203 85.2234 211.592 86.3004C211.981 87.3774 212.739 88.282 213.731 88.8537C214.723 89.4255 215.886 89.6277 217.013 89.4243C218.14 89.221 219.158 88.6253 219.888 87.7428C220.618 86.8603 221.012 85.748 221 84.6029C220.988 83.4578 220.571 82.3539 219.823 81.4867C222.184 77.3551 225.576 71.42 225.624 71.3356L226.42 69.9465L225.032 69.1512C223.657 68.3656 222.546 67.1895 221.84 65.772C221.134 64.3545 220.864 62.7593 221.065 61.1885C221.266 59.6176 221.929 58.1419 222.97 56.9481C224.01 55.7542 225.382 54.8961 226.911 54.4823C228.439 54.0686 230.056 54.1178 231.557 54.6238C233.058 55.1298 234.374 56.0698 235.34 57.3247C236.306 58.5796 236.878 60.0929 236.983 61.6731C237.089 63.2532 236.723 64.8291 235.932 66.201L238.702 67.8043C239.778 65.9414 240.295 63.8081 240.191 61.6594C240.086 59.5106 239.366 57.4373 238.115 55.6873C236.864 53.9372 235.135 52.5844 233.136 51.7906C231.136 50.9967 228.95 50.7954 226.84 51.2107C224.729 51.626 222.782 52.6403 221.233 54.1325C219.683 55.6246 218.596 57.5314 218.101 59.625C217.606 61.7186 217.724 63.9104 218.442 65.9384C219.16 67.9665 220.446 69.745 222.147 71.0614C221.416 72.2497 220.384 74.0561 218.829 76.7781L217.051 79.8891Z" fill="white"/>
<defs>
<filter id="filter0_d_179_6851" x="0" y="203" width="459" height="146" filterUnits="userSpaceOnUse" color-interpolation-filters="sRGB">
<feFlood flood-opacity="0" result="BackgroundImageFix"/>
<feColorMatrix in="SourceAlpha" type="matrix" values="0 0 0 0 0 0 0 0 0 0 0 0 0 0 0 0 0 0 127 0" result="hardAlpha"/>
<feOffset/>
<feGaussianBlur stdDeviation="10"/>
<feComposite in2="hardAlpha" operator="out"/>
<feColorMatrix type="matrix" values="0 0 0 0 0 0 0 0 0 0 0 0 0 0 0 0 0 0 0.25 0"/>
<feBlend mode="normal" in2="BackgroundImageFix" result="effect1_dropShadow_179_6851"/>
<feBlend mode="normal" in="SourceGraphic" in2="effect1_dropShadow_179_6851" result="shape"/>
</filter>
<filter id="filter1_d_179_6851" x="47.0723" y="276.683" width="356.259" height="19.3779" filterUnits="userSpaceOnUse" color-interpolation-filters="sRGB">
<feFlood flood-opacity="0" result="BackgroundImageFix"/>
<feColorMatrix in="SourceAlpha" type="matrix" values="0 0 0 0 0 0 0 0 0 0 0 0 0 0 0 0 0 0 127 0" result="hardAlpha"/>
<feOffset dy="1"/>
<feComposite in2="hardAlpha" operator="out"/>
<feColorMatrix type="matrix" values="0 0 0 0 0 0 0 0 0 0 0 0 0 0 0 0 0 0 1 0"/>
<feBlend mode="normal" in2="BackgroundImageFix" result="effect1_dropShadow_179_6851"/>
<feBlend mode="normal" in="SourceGraphic" in2="effect1_dropShadow_179_6851" result="shape"/>
</filter>
<filter id="filter2_d_179_6851" x="246" y="97" width="94" height="94" filterUnits="userSpaceOnUse" color-interpolation-filters="sRGB">
<feFlood flood-opacity="0" result="BackgroundImageFix"/>
<feColorMatrix in="SourceAlpha" type="matrix" values="0 0 0 0 0 0 0 0 0 0 0 0 0 0 0 0 0 0 127 0" result="hardAlpha"/>
<feOffset/>
<feGaussianBlur stdDeviation="8"/>
<feComposite in2="hardAlpha" operator="out"/>
<feColorMatrix type="matrix" values="0 0 0 0 0.27451 0 0 0 0 0.211765 0 0 0 0 0.960784 0 0 0 1 0"/>
<feBlend mode="normal" in2="BackgroundImageFix" result="effect1_dropShadow_179_6851"/>
<feBlend mode="normal" in="SourceGraphic" in2="effect1_dropShadow_179_6851" result="shape"/>
</filter>
<filter id="filter3_d_179_6851" x="108" y="105" width="114" height="114" filterUnits="userSpaceOnUse" color-interpolation-filters="sRGB">
<feFlood flood-opacity="0" result="BackgroundImageFix"/>
<feColorMatrix in="SourceAlpha" type="matrix" values="0 0 0 0 0 0 0 0 0 0 0 0 0 0 0 0 0 0 127 0" result="hardAlpha"/>
<feOffset/>
<feGaussianBlur stdDeviation="8"/>
<feComposite in2="hardAlpha" operator="out"/>
<feColorMatrix type="matrix" values="0 0 0 0 0.00392157 0 0 0 0 0.00392157 0 0 0 0 0.00392157 0 0 0 1 0"/>
<feBlend mode="normal" in2="BackgroundImageFix" result="effect1_dropShadow_179_6851"/>
<feBlend mode="normal" in="SourceGraphic" in2="effect1_dropShadow_179_6851" result="shape"/>
</filter>
<filter id="filter4_d_179_6851" x="156" y="0" width="146" height="146" filterUnits="userSpaceOnUse" color-interpolation-filters="sRGB">
<feFlood flood-opacity="0" result="BackgroundImageFix"/>
<feColorMatrix in="SourceAlpha" type="matrix" values="0 0 0 0 0 0 0 0 0 0 0 0 0 0 0 0 0 0 127 0" result="hardAlpha"/>
<feOffset/>
<feGaussianBlur stdDeviation="12.5"/>
<feComposite in2="hardAlpha" operator="out"/>
<feColorMatrix type="matrix" values="0 0 0 0 0.960784 0 0 0 0 0.752941 0 0 0 0 0.211765 0 0 0 1 0"/>
<feBlend mode="normal" in2="BackgroundImageFix" result="effect1_dropShadow_179_6851"/>
<feBlend mode="normal" in="SourceGraphic" in2="effect1_dropShadow_179_6851" result="shape"/>
</filter>
<linearGradient id="paint0_linear_179_6851" x1="230" y1="291" x2="227.163" y2="119.346" gradientUnits="userSpaceOnUse">
<stop offset="1" stop-color="#F5C036"/>
</linearGradient>
<linearGradient id="paint1_linear_179_6851" x1="180.311" y1="282" x2="199.781" y2="389.316" gradientUnits="userSpaceOnUse">
<stop/>
<stop offset="1" stop-color="#302B2B"/>
</linearGradient>
</defs>
</svg>
