<svg xmlns="http://www.w3.org/2000/svg" width="209" height="343" fill="none">
  <g clip-path="url(#a)">
    <path fill="#fff" d="M103.94 76.606c.309.31.811.31 1.12 0l5.038-5.04a.793.793 0 0 0-1.12-1.121l-4.478 4.48-4.479-4.48a.79.79 0 1 0-1.119 1.12l5.038 5.041Zm-.232-24.324v23.764h1.584V52.282h-1.584ZM103.94 160.574a.79.79 0 0 0 1.12 0l5.038-5.041a.792.792 0 0 0-1.12-1.12l-4.478 4.481-4.479-4.481a.791.791 0 1 0-1.119 1.12l5.038 5.041Zm-.232-24.325v23.765h1.584v-23.765h-1.584Z"/>
    <path fill="#fff" d="M105.06 231.539a.792.792 0 0 0-1.12 0l-5.038 5.041a.793.793 0 0 0 1.119 1.121l4.479-4.482 4.478 4.482a.792.792 0 0 0 1.12-1.121l-5.038-5.041Zm-1.12 29.638a.792.792 0 0 0 1.12 0l5.038-5.042a.792.792 0 0 0-1.12-1.12l-4.478 4.482-4.479-4.482a.791.791 0 1 0-1.119 1.12l5.038 5.042Zm-.232-29.078v28.518h1.584v-28.518h-1.584Z" opacity=".5"/>
    <path fill="#0A0A12" d="M207.417 2.376H1.583a.792.792 0 0 0-.791.793v39.607c0 .438.354.792.791.792h205.834a.791.791 0 0 0 .791-.792V3.169a.791.791 0 0 0-.791-.793Z"/>
    <path fill="#fff" d="m96.303 19.21-.967 4.254h1.94l-.973-4.254Zm-1.253-1.88h2.512l2.804 10.395h-2.052l-.64-2.569h-2.75l-.625 2.57h-2.053L95.05 17.33Zm8.628 9.295v4.066h-2.031V19.927h2.031v1.17c.213-.45.494-.789.842-1.016.348-.228.756-.341 1.225-.341.89 0 1.581.357 2.073 1.072.492.714.738 1.722.738 3.021 0 1.319-.25 2.33-.752 3.036-.496.705-1.206 1.058-2.129 1.058-.417 0-.793-.107-1.127-.32-.329-.218-.62-.546-.87-.982Zm2.839-2.806c0-.752-.125-1.341-.376-1.768-.25-.427-.596-.64-1.036-.64-.441 0-.789.213-1.044.64-.255.427-.383 1.016-.383 1.768s.128 1.342.383 1.769c.255.427.603.64 1.044.64.44 0 .786-.213 1.036-.64.251-.427.376-1.017.376-1.769Zm5.748 2.806v4.066h-2.032V19.927h2.032v1.17c.213-.45.494-.789.841-1.016.349-.228.756-.341 1.225-.341.891 0 1.582.357 2.073 1.072.492.714.738 1.722.738 3.021 0 1.319-.251 2.33-.751 3.036-.496.705-1.207 1.058-2.13 1.058-.417 0-.793-.107-1.127-.32-.329-.218-.619-.546-.869-.982Zm2.839-2.806c0-.752-.126-1.341-.376-1.768-.251-.427-.597-.64-1.037-.64-.441 0-.789.213-1.044.64-.255.427-.382 1.016-.382 1.768s.127 1.342.382 1.769c.255.427.603.64 1.044.64.44 0 .786-.213 1.037-.64.25-.427.376-1.017.376-1.769Z"/>
    <path stroke="#fff" stroke-width="2" d="M207.417 2.376H1.583a.792.792 0 0 0-.791.793v39.607c0 .438.354.792.791.792h205.834a.791.791 0 0 0 .791-.792V3.169a.791.791 0 0 0-.791-.793Z"/>
    <path fill="#0A0A12" d="M207.417 86.344H1.583a.792.792 0 0 0-.791.792v39.608c0 .437.354.792.791.792h205.834a.792.792 0 0 0 .791-.792V87.136a.792.792 0 0 0-.791-.792Z"/>
    <path stroke="#fff" stroke-width="2" d="M207.417 86.344H1.583a.792.792 0 0 0-.791.792v39.608c0 .437.354.792.791.792h205.834a.792.792 0 0 0 .791-.792V87.136a.792.792 0 0 0-.791-.792Z"/>
    <path fill="#0A0A12" d="M207.417 170.312H1.583a.791.791 0 0 0-.791.792v39.607c0 .438.354.792.791.792h205.834a.791.791 0 0 0 .791-.792v-39.607a.791.791 0 0 0-.791-.792Z"/>
    <path fill="#fff" d="M39.386 186.993v3.049h.842c.673 0 1.144-.113 1.413-.341.273-.228.41-.622.41-1.184 0-.562-.137-.956-.41-1.184-.27-.227-.74-.34-1.413-.34h-.842Zm-2.052-1.727h2.818c1.433 0 2.463.255 3.089.766.63.51.946 1.339.946 2.485 0 1.147-.315 1.976-.946 2.486-.626.511-1.656.766-3.09.766h-.765v3.892h-2.052v-10.395Zm12.33 6.732c-.761 0-1.293.098-1.594.293-.302.195-.453.529-.453 1.003 0 .352.105.633.314.842.208.209.491.313.849.313.538 0 .955-.202 1.252-.606.297-.408.445-.976.445-1.705v-.14h-.814Zm2.838-.786v4.449h-2.025v-.871a2.455 2.455 0 0 1-.946.794c-.385.186-.81.279-1.273.279-.886 0-1.578-.235-2.074-.704-.491-.469-.737-1.123-.737-1.963 0-.91.294-1.58.883-2.012.59-.436 1.501-.655 2.735-.655h1.412v-.341c0-.329-.12-.578-.361-.745-.237-.171-.587-.258-1.051-.258-.487 0-.96.063-1.42.188-.454.121-.93.316-1.426.586v-1.742c.45-.185.907-.322 1.37-.41a7.908 7.908 0 0 1 1.476-.132c1.266 0 2.154.257 2.665.773.515.515.772 1.436.772 2.764Zm5.824 5.291c-.274.733-.603 1.267-.988 1.601-.38.339-.844.509-1.392.509h-1.683v-1.553h.828c.417 0 .723-.072.918-.216.195-.139.392-.467.591-.981l.153-.418-2.964-7.582h2.143l1.782 5.061 1.704-5.061h2.143l-3.235 8.64Zm8.44-7.86c.153-.33.348-.574.584-.731.237-.158.527-.237.87-.237.673 0 1.137.232 1.392.696.26.464.39 1.43.39 2.896v4.394h-1.67v-5.006c0-.581-.044-.968-.133-1.163-.088-.195-.248-.292-.48-.292-.232 0-.394.1-.487.299-.093.2-.139.585-.139 1.156v5.006h-1.649v-5.006c0-.571-.046-.956-.14-1.156-.092-.199-.254-.299-.486-.299-.232 0-.392.097-.48.292-.088.195-.132.582-.132 1.163v5.006h-1.67v-7.798h1.482v.808c.115-.307.301-.549.556-.724.255-.182.54-.272.856-.272.316 0 .603.095.863.285.26.186.417.414.473.683Zm11.453 6.635a7.702 7.702 0 0 1-3.006.585c-1.303 0-2.3-.349-2.992-1.045-.686-.701-1.03-1.708-1.03-3.022 0-1.271.332-2.276.995-3.015.664-.737 1.568-1.106 2.714-1.106 1.155 0 2.05.344 2.686 1.03.64.682.96 1.646.96 2.889v.829h-5.281c.004.613.185 1.07.543 1.372.357.301.89.452 1.6.452.468 0 .93-.067 1.385-.202a6.38 6.38 0 0 0 1.426-.641v1.874Zm-1.726-4.387c-.009-.538-.148-.944-.417-1.218-.265-.278-.657-.418-1.176-.418-.469 0-.842.144-1.12.432-.279.283-.443.687-.494 1.211l3.207-.007Zm10.096-.292v5.062h-2.025v-4.749c0-.566-.08-.97-.243-1.211-.157-.246-.418-.369-.78-.369-.366 0-.656.165-.869.494-.209.33-.313.787-.313 1.372v4.463h-2.025v-7.798h2.025v1.17c.144-.432.39-.766.738-1.003.347-.237.768-.355 1.26-.355.736 0 1.293.245 1.669.738.376.487.563 1.216.563 2.186Zm5.936-4.95v2.214h2.664v1.566h-2.664v3.69c0 .348.083.599.25.752.171.149.455.223.85.223h1.564v1.567h-1.711c-1.169 0-1.96-.186-2.373-.557-.412-.377-.619-1.071-.619-2.082v-3.593h-1.99v-1.566h1.99v-2.214h2.038Zm12.371 2.214h1.698l.925 5.973.842-3.934h1.649l.828 3.934.939-5.973h1.698l-1.412 7.798h-1.935l-.946-4.052-.939 4.052h-1.935l-1.412-7.798Zm12.872 1.469c-.487 0-.87.216-1.148.647-.278.427-.418 1.024-.418 1.79s.14 1.365.418 1.795c.278.428.661.641 1.148.641.492 0 .877-.213 1.155-.641.278-.43.418-1.029.418-1.795s-.14-1.363-.418-1.79c-.278-.431-.663-.647-1.155-.647Zm-3.604 2.437c0-1.258.325-2.254.974-2.988.654-.737 1.531-1.106 2.63-1.106 1.104 0 1.981.369 2.63 1.106.654.734.981 1.73.981 2.988s-.327 2.256-.981 2.993c-.649.734-1.526 1.101-2.63 1.101-1.099 0-1.976-.367-2.63-1.101-.649-.737-.974-1.735-.974-2.993Zm15.913-1.755a2.187 2.187 0 0 0-.787-.459 2.978 2.978 0 0 0-.981-.153c-.431 0-.809.076-1.133.229a1.676 1.676 0 0 0-.745.655c-.111.176-.19.39-.237.64-.041.251-.062.631-.062 1.142v3.593h-2.039v-7.798h2.039v1.212a2.2 2.2 0 0 1 .918-1.031c.413-.246.895-.369 1.447-.369.279 0 .55.035.815.104.269.065.524.163.765.293v1.942Zm1.788-5.187h2.039v5.689l2.449-2.653h2.47l-2.95 2.91 3.117 4.888h-2.254l-2.136-3.648-.696.667v2.981h-2.039v-10.834Zm12.518 2.354v.682h2.393v1.566h-2.393v6.232h-2.039v-6.232h-1.893v-1.566h1.893v-.543c0-.938.195-1.587.584-1.949.39-.363 1.113-.544 2.171-.544h1.677v1.567h-1.593c-.306 0-.515.055-.626.167-.107.111-.165.318-.174.62Zm6.137 5.229v-6.016h-2.067v-1.567h4.105v7.583c0 .612.095 1.046.285 1.301.191.255.513.383.968.383h1.628v1.567h-2.199c-.969 0-1.665-.251-2.087-.752-.423-.502-.633-1.335-.633-2.499Zm10.179-3.078c-.487 0-.869.216-1.148.647-.278.427-.417 1.024-.417 1.79s.139 1.365.417 1.795c.279.428.661.641 1.148.641.492 0 .877-.213 1.155-.641.279-.43.418-1.029.418-1.795s-.139-1.363-.418-1.79c-.278-.431-.663-.647-1.155-.647Zm-3.604 2.437c0-1.258.325-2.254.974-2.988.654-.737 1.531-1.106 2.63-1.106 1.104 0 1.981.369 2.631 1.106.654.734.98 1.73.98 2.988s-.326 2.256-.98 2.993c-.65.734-1.527 1.101-2.631 1.101-1.099 0-1.976-.367-2.63-1.101-.649-.737-.974-1.735-.974-2.993Zm7.904-3.906h1.698l.925 5.973.842-3.934h1.649l.828 3.934.939-5.973h1.699l-1.413 7.798h-1.935l-.946-4.052-.939 4.052h-1.934l-1.413-7.798Z"/>
    <path stroke="#fff" stroke-width="2" d="M207.417 170.312H1.583a.791.791 0 0 0-.791.792v39.607c0 .438.354.792.791.792h205.834a.791.791 0 0 0 .791-.792v-39.607a.791.791 0 0 0-.791-.792Z"/>
    <path fill="#fff" d="M98.92 334.457v6.691h.556c.808 0 1.382-.253 1.726-.759.343-.51.514-1.376.514-2.597 0-1.212-.171-2.07-.514-2.576-.344-.506-.918-.759-1.726-.759h-.556Zm-2.053-1.852h2.199c1.697 0 2.92.407 3.667 1.219.746.808 1.12 2.13 1.12 3.968 0 1.843-.374 3.173-1.12 3.99-.747.812-1.97 1.218-3.667 1.218h-2.2v-10.395Zm10.486 5.675v3.077h1.363c.654 0 1.111-.112 1.372-.334.264-.223.396-.611.396-1.163 0-.562-.137-.966-.411-1.211-.274-.247-.726-.369-1.357-.369h-1.363Zm0-4.052v2.416h1.363c.52 0 .889-.094 1.107-.279.223-.185.334-.492.334-.919 0-.427-.114-.736-.341-.926-.222-.195-.589-.292-1.1-.292h-1.363Zm-1.983-1.637h3.346c1.155 0 2.023.221 2.603.662.585.436.877 1.09.877 1.963 0 .669-.172 1.191-.516 1.566-.342.377-.846.595-1.509.656.793.078 1.389.345 1.788.8.404.454.606 1.09.606 1.907 0 1.003-.302 1.729-.905 2.179-.603.451-1.584.676-2.944.676h-3.346v-10.409Z"/>
    <path fill="#fff" fill-rule="evenodd" d="M65.659 96.434c-.495.39-.742.936-.742 1.637 0 .694.247 1.236.742 1.626.495.389 1.077.584 1.748.584.662 0 1.239-.196 1.73-.59.49-.394.736-.934.736-1.62 0-.701-.245-1.247-.736-1.636-.491-.39-1.068-.585-1.73-.585-.67 0-1.253.195-1.748.585Zm3.945 4.876h-4.418v11.634h4.418V101.31Zm1 11.634v-11.833h3.892l.2 1.298a4.238 4.238 0 0 1 1.718-1.216 5.256 5.256 0 0 1 1.894-.362h.116a6.182 6.182 0 0 1 1.444.181c.44.113.86.304 1.257.573.398.269.737.612 1.017 1.029.28.417.502.945.666 1.584.164.639.246 1.368.246 2.187v6.559h-4.407v-6.536c0-.678-.16-1.175-.48-1.491a1.618 1.618 0 0 0-1.18-.474c-.57 0-1.05.197-1.444.591-.394.394-.59.957-.59 1.69v6.22h-4.35Zm13.285-11.833v11.833h4.35v-6.22c0-.733.196-1.296.59-1.69a1.964 1.964 0 0 1 1.443-.591c.468 0 .861.159 1.181.474.32.316.48.813.48 1.491v6.536h4.406v-6.559c0-.819-.081-1.548-.245-2.187-.164-.639-.385-1.167-.666-1.584-.28-.417-.62-.76-1.017-1.029a4.023 4.023 0 0 0-1.257-.573 6.184 6.184 0 0 0-1.444-.181h-.117c-.631 0-1.262.12-1.893.362a4.233 4.233 0 0 0-1.719 1.216l-.199-1.298H83.89Zm13.23 5.701c0-1.208.294-2.276.882-3.204a5.763 5.763 0 0 1 2.374-2.122c.993-.487 2.102-.731 3.325-.731a7 7 0 0 1 2.443.444l.962-1.219c.13-.165.234-.3.313-.405l2.037.499 1.143 1.78-1.532 1.812a4.288 4.288 0 0 1 1.135 2.959v.233a4.72 4.72 0 0 1-.585 2.164 5.173 5.173 0 0 1-1.578 1.765c.507.288.929.612 1.268.97.339.359.579.711.719 1.058.14.347.232.634.275.86.042.226.064.452.064.678 0 .741-.124 1.411-.374 2.011a4.222 4.222 0 0 1-1.012 1.496 5.65 5.65 0 0 1-1.508 1 7.592 7.592 0 0 1-1.817.579 10.96 10.96 0 0 1-1.999.175c-2.112 0-3.73-.518-4.852-1.555-1.013-.935-1.52-2.186-1.52-3.753 0-.164.004-.331.012-.503h4.138v.083c0 .383.048.709.142.979l.022.061c.109.312.275.545.497.701.222.156.458.265.707.328.25.062.534.093.854.093.616 0 1.134-.146 1.555-.438.421-.292.631-.711.631-1.257 0-.475-.17-.857-.509-1.146-.326-.278-.841-.421-1.545-.432l-.086-.001c-1.995 0-3.591-.538-4.787-1.613-1.196-1.075-1.794-2.526-1.794-4.349Zm4.939 1.659c-.433-.424-.649-.984-.649-1.678 0-.763.215-1.361.643-1.794.429-.432.979-.649 1.648-.649.639 0 1.171.238 1.596.713.425.476.638 1.052.638 1.73 0 .749-.215 1.322-.644 1.719-.428.398-.958.597-1.59.597-.662 0-1.209-.212-1.642-.638Zm8.782-1.42c0-.834.126-1.6.38-2.297.253-.698.592-1.284 1.016-1.761.425-.475.92-.878 1.485-1.209a6.551 6.551 0 0 1 1.783-.725 8.064 8.064 0 0 1 1.917-.228c1.052 0 2.009.169 2.87.508.862.34 1.577.828 2.145 1.468.569.639.963 1.418 1.181 2.338.092.39.139.799.141 1.227l-.001.129c0 .554-.066 1.146-.198 1.778h-8.265c.148.483.486.855 1.017 1.116a3.635 3.635 0 0 0 1.624.392c1.17 0 2.183-.32 3.04-.959l2.151 2.42a6.939 6.939 0 0 1-2.437 1.468 8.754 8.754 0 0 1-2.952.496c-.959 0-1.846-.12-2.66-.362a6.7 6.7 0 0 1-2.18-1.093c-.64-.487-1.141-1.132-1.508-1.935-.367-.803-.549-1.726-.549-2.771Zm8.767-1.602h-4.291c.055-.367.236-.674.544-.924a2.123 2.123 0 0 1 1.07-.456 4.394 4.394 0 0 1 1.192.012c.398.063.739.216 1.024.462.284.245.438.547.461.906Zm4.17 6.255 1.438-3.215a8.238 8.238 0 0 0 1.695.848c.577.206 1.026.331 1.35.374.323.043.703.076 1.139.099.803 0 1.205-.191 1.205-.573 0-.366-.417-.584-1.251-.655a9.284 9.284 0 0 1-1.42-.151 6.513 6.513 0 0 1-1.362-.422 4.568 4.568 0 0 1-1.175-.718c-.332-.285-.6-.65-.807-1.094a3.514 3.514 0 0 1-.309-1.496c0-.686.152-1.286.456-1.801a3.265 3.265 0 0 1 1.239-1.21 6.353 6.353 0 0 1 1.73-.649 9.38 9.38 0 0 1 2.034-.21c.943 0 1.839.128 2.689.386.849.257 1.566.607 2.151 1.052l-1.871 2.63c-.3-.191-.722-.354-1.264-.489l-.103-.025a6.386 6.386 0 0 0-1.532-.21h-.07c-.701 0-1.052.194-1.052.584 0 .14.068.269.204.386.128.109.334.171.622.185l.062.002c.546.016 1.052.059 1.52.129.467.07.949.195 1.443.374.495.179.918.409 1.269.69.351.28.637.653.859 1.116.222.464.334.996.334 1.596 0 .569-.1 1.081-.298 1.538-.199.456-.47.835-.813 1.14a4.597 4.597 0 0 1-1.228.766 6.48 6.48 0 0 1-1.502.444 9.867 9.867 0 0 1-1.665.135 12.4 12.4 0 0 1-3.157-.415c-1.052-.278-1.905-.658-2.56-1.141Zm11.43-10.522v3.378h1.894v4.081a6.132 6.132 0 0 0 .199 1.719c.155.56.365 1.019.63 1.373.266.355.589.647.971.877.382.231.783.392 1.204.486.421.093.877.14 1.368.14 1.34 0 2.475-.265 3.402-.795l-.959-3.262c-.421.273-.849.409-1.286.409-.763 0-1.157-.382-1.181-1.146v-3.882h2.689v-3.378h-2.665v-3.414l-4.372.479v2.935h-1.894Z" clip-rule="evenodd"/>
    <path fill="#000" fill-rule="evenodd" d="M125.875 277.184H82.333v36.574c0 3.462 9.747 6.27 21.771 6.27 12.024 0 21.771-2.808 21.771-6.27v-36.574Z" clip-rule="evenodd"/>
    <mask id="b" width="44" height="44" x="82" y="277" maskUnits="userSpaceOnUse" style="mask-type:luminance">
      <path fill="#fff" fill-rule="evenodd" d="M125.875 277.184H82.333v36.574c0 3.462 9.747 6.27 21.771 6.27 12.024 0 21.771-2.808 21.771-6.27v-36.574Z" clip-rule="evenodd"/>
    </mask>
    <g mask="url(#b)">
      <path fill="#fff" d="M82.333 277.184V275.6H80.75v1.584h1.583Zm43.542 0h1.583V275.6h-1.583v1.584Zm-43.542 1.585h43.542V275.6H82.333v3.169Zm1.584 34.989v-36.574H80.75v36.574h3.167Zm20.187 4.685c-5.906 0-11.195-.691-14.956-1.774-1.891-.545-3.307-1.164-4.213-1.781-.96-.652-1.018-1.063-1.018-1.13H80.75c0 1.664 1.16 2.903 2.403 3.75 1.297.883 3.07 1.616 5.119 2.206 4.119 1.186 9.716 1.898 15.832 1.898v-3.169Zm20.188-4.685c0 .067-.059.478-1.018 1.13-.907.617-2.322 1.236-4.214 1.781-3.761 1.083-9.049 1.774-14.956 1.774v3.169c6.117 0 11.714-.712 15.833-1.898 2.048-.59 3.821-1.323 5.118-2.206 1.244-.847 2.403-2.086 2.403-3.75h-3.166Zm0-36.574v36.574h3.166v-36.574h-3.166Z"/>
    </g>
    <path fill="#000" stroke="#fff" stroke-width="2" d="M125.083 277.184c0 .467-.334 1.084-1.365 1.786-1.003.684-2.508 1.331-4.438 1.887-3.851 1.108-9.216 1.805-15.176 1.805-5.96 0-11.325-.697-15.175-1.805-1.93-.556-3.435-1.203-4.44-1.887-1.03-.702-1.364-1.319-1.364-1.786 0-.466.334-1.083 1.365-1.785 1.004-.684 2.509-1.331 4.439-1.887 3.85-1.109 9.215-1.805 15.175-1.805 5.96 0 11.325.696 15.176 1.805 1.93.556 3.435 1.203 4.438 1.887 1.031.702 1.365 1.319 1.365 1.785Z"/>
    <mask id="c" width="44" height="8" x="82" y="289" maskUnits="userSpaceOnUse" style="mask-type:alpha">
      <path fill="#080D19" d="M125.875 289.926H82.333v6.337h43.542v-6.337Z"/>
    </mask>
    <g mask="url(#c)">
      <path fill="#000" stroke="#fff" stroke-width="2" d="M125.083 289.859c0 .466-.334 1.083-1.365 1.785-1.003.684-2.508 1.331-4.438 1.887-3.851 1.108-9.216 1.805-15.176 1.805-5.96 0-11.325-.697-15.175-1.805-1.93-.556-3.435-1.203-4.44-1.887-1.03-.702-1.364-1.319-1.364-1.785 0-.467.334-1.084 1.365-1.786 1.004-.683 2.509-1.331 4.439-1.887 3.85-1.109 9.215-1.805 15.175-1.805 5.96 0 11.325.696 15.176 1.805 1.93.556 3.435 1.204 4.438 1.887 1.031.702 1.365 1.319 1.365 1.786Z"/>
    </g>
    <mask id="d" width="44" height="7" x="82" y="302" maskUnits="userSpaceOnUse" style="mask-type:alpha">
      <path fill="#D9D9D9" d="M125.875 302.6H82.333v6.338h43.542V302.6Z"/>
    </mask>
    <g mask="url(#d)">
      <path fill="#000" stroke="#fff" stroke-width="2" d="M125.083 302.533c0 .467-.334 1.084-1.365 1.786-1.003.683-2.508 1.33-4.438 1.887-3.851 1.108-9.216 1.805-15.176 1.805-5.96 0-11.325-.697-15.175-1.805-1.93-.557-3.435-1.204-4.44-1.887-1.03-.702-1.364-1.319-1.364-1.786 0-.466.334-1.084 1.365-1.785 1.004-.684 2.509-1.331 4.439-1.887 3.85-1.109 9.215-1.806 15.175-1.806 5.96 0 11.325.697 15.176 1.806 1.93.556 3.435 1.203 4.438 1.887 1.031.701 1.365 1.319 1.365 1.785Z"/>
    </g>
  </g>
  <defs>
    <clipPath id="a">
      <path fill="#fff" d="M0 0h209v343H0z"/>
    </clipPath>
  </defs>
</svg>
