<svg width="33" height="32" viewBox="0 0 33 32" fill="none" xmlns="http://www.w3.org/2000/svg">
<path d="M16.1773 0.000261741C14.8722 0.00632591 13.6259 0.117631 12.5293 0.31168C9.2987 0.882413 8.71216 2.07701 8.71216 4.28004V7.18958H16.3464V8.15942H8.71216H5.84711C3.6284 8.15942 1.68563 9.493 1.07796 12.0299C0.377014 14.9378 0.345923 16.7524 1.07796 19.7887C1.62062 22.0488 2.91658 23.6592 5.13529 23.6592H7.76011V20.1713C7.76011 17.6515 9.94029 15.4288 12.5293 15.4288H20.1546C22.2772 15.4288 23.9717 13.6811 23.9717 11.5494V4.28004C23.9717 2.21113 22.2263 0.656973 20.1546 0.31168C18.8431 0.093374 17.4824 -0.00580243 16.1773 0.000261741ZM12.0488 2.34035C12.8373 2.34035 13.4813 2.99483 13.4813 3.79957C13.4813 4.60145 12.8373 5.24989 12.0488 5.24989C11.2574 5.24989 10.6163 4.60145 10.6163 3.79957C10.6163 2.99483 11.2574 2.34035 12.0488 2.34035Z" fill="#ACB2C2"/>
<path d="M24.9235 8.15942V11.5494C24.9235 14.1777 22.6952 16.3898 20.1543 16.3898H12.529C10.4403 16.3898 8.71191 18.1774 8.71191 20.2691V27.5385C8.71191 29.6075 10.511 30.8244 12.529 31.4179C14.9456 32.1285 17.2629 32.2569 20.1543 31.4179C22.0763 30.8615 23.9714 29.7416 23.9714 27.5385V24.629H16.3461V23.6592H23.9714H27.7885C30.0072 23.6592 30.834 22.1116 31.6056 19.7887C32.4027 17.3973 32.3687 15.0976 31.6056 12.0299C31.0573 9.82117 30.0101 8.15942 27.7885 8.15942H24.9235ZM20.6348 26.5687C21.4262 26.5687 22.0673 27.2171 22.0673 28.019C22.0673 28.8238 21.4262 29.4782 20.6348 29.4782C19.8462 29.4782 19.2023 28.8238 19.2023 28.019C19.2023 27.2171 19.8462 26.5687 20.6348 26.5687Z" fill="#ACB2C2"/>
</svg>
