<svg width="29" height="32" viewBox="0 0 29 32" fill="none" xmlns="http://www.w3.org/2000/svg">
<path d="M14.2759 32C13.845 32 13.4171 31.8876 13.0393 31.6713L9.1034 29.3537C8.51553 29.0267 8.80239 28.911 8.99628 28.8444C9.7801 28.5715 9.93917 28.5098 10.7758 28.0373C10.8638 27.9874 10.9789 28.005 11.0689 28.0578L14.0926 29.8424C14.2018 29.9011 14.3567 29.9011 14.458 29.8424L26.2478 23.0739C26.357 23.0123 26.4278 22.8861 26.4278 22.7569V9.2259C26.4278 9.09089 26.357 8.97054 26.2454 8.90303L14.4603 2.14046C14.3511 2.07588 14.2065 2.07588 14.0973 2.14046L2.31458 8.90303C2.20038 8.96761 2.12778 9.09382 2.12778 9.22296V22.754C2.12778 22.8831 2.1986 23.0064 2.31075 23.0681L5.5393 24.9231C7.29228 25.7948 8.36355 24.7675 8.36355 23.7343V10.3794C8.36355 10.1886 8.51406 10.0419 8.70588 10.0419H10.1992C10.3851 10.0419 10.5385 10.1886 10.5385 10.3794V23.7402C10.5385 26.0648 9.26365 27.4003 7.04734 27.4003C6.36562 27.4003 5.82851 27.4003 4.32933 26.6665L1.23653 24.8937C0.860507 24.6755 0.5485 24.3632 0.331558 23.9878C0.114616 23.6123 0.000302741 23.187 0 22.754V9.22296C0 8.34242 0.472184 7.52058 1.23653 7.08618L13.0382 0.314795C13.7848 -0.104932 14.7764 -0.104932 15.5171 0.314795L27.304 7.08912C27.68 7.30665 27.992 7.61844 28.209 7.99338C28.426 8.36832 28.5403 8.7933 28.5405 9.2259V22.7569C28.5405 23.6345 28.0654 24.4534 27.304 24.8937L15.5171 31.6651C15.1393 31.8815 14.7107 31.9949 14.2747 31.9938" fill="#ACB2C2"/>
<path d="M17.5174 22.4727C12.3307 22.4727 11.2432 20.1203 11.2432 18.1472C11.2432 17.9596 11.3963 17.81 11.5865 17.81H13.1176C13.2867 17.81 13.4291 17.9317 13.4558 18.0968C13.6873 19.6383 14.3757 20.4158 17.5121 20.4158C20.0105 20.4158 21.0728 19.8582 21.0728 18.5491C21.0728 17.7957 20.7701 17.2357 16.8889 16.8604C13.6428 16.5438 11.6369 15.8373 11.6369 13.272C11.6369 10.909 13.6546 9.50177 17.0343 9.50177C20.8295 9.50177 22.7107 10.8035 22.9481 13.6003C22.952 13.6474 22.946 13.6947 22.9305 13.7393C22.915 13.7839 22.8903 13.8249 22.858 13.8596C22.8256 13.8943 22.7863 13.9221 22.7426 13.941C22.6989 13.96 22.6516 13.9697 22.6039 13.9697H21.0639C20.9036 13.9697 20.7642 13.8583 20.7315 13.7059C20.3606 12.0846 19.4645 11.5657 17.0284 11.5657C14.3015 11.5657 13.984 12.5039 13.984 13.2075C13.984 14.0606 14.3579 14.3098 18.0373 14.7906C21.6811 15.2685 23.411 15.9428 23.411 18.4729C23.411 21.0235 21.2567 22.4865 17.5002 22.4865L17.5174 22.4727Z" fill="#ACB2C2"/>
</svg>
