<svg width="64" height="32" viewBox="0 0 64 32" fill="none" xmlns="http://www.w3.org/2000/svg">
<path fill-rule="evenodd" clip-rule="evenodd" d="M31.3606 8.93861C28.7334 9.60585 26.9402 10.1063 24.3546 10.7735C23.7291 10.9403 23.6874 10.982 23.1453 10.3565C22.5197 9.64755 22.061 9.18883 21.1853 8.7718C18.558 7.47903 16.0142 7.85435 13.6371 9.39734C10.8014 11.2322 9.34179 13.9429 9.3835 17.3208C9.4252 20.657 11.7188 23.4093 15.0133 23.868C17.8491 24.2434 20.2261 23.2425 22.1027 21.1157C22.478 20.657 22.8116 20.1565 23.2287 19.5727C21.7274 19.5727 19.8508 19.5727 15.1801 19.5727C14.3044 19.5727 14.0959 19.0306 14.3878 18.3216C14.9299 17.0289 15.9308 14.8603 16.5146 13.7761C16.6397 13.5259 16.9316 13.1088 17.5572 13.1088H32.7368C32.6534 14.2348 32.6534 15.3608 32.4866 16.4867C32.0279 19.4893 30.9019 22.2417 29.067 24.6604C26.0644 28.6221 22.1444 31.0825 17.1818 31.7498C13.095 32.2919 9.30009 31.4996 5.9639 28.9974C2.87793 26.6621 1.12644 23.5761 0.66771 19.7395C0.12558 15.194 1.46005 11.1071 4.21241 7.52073C7.17327 3.64242 11.0933 1.18198 15.8891 0.306231C19.8091 -0.402708 23.5623 0.0560175 26.9402 2.34965C29.1504 3.80923 30.7351 5.81094 31.7776 8.22967C32.0279 8.60499 31.861 8.81351 31.3606 8.93861Z" fill="#ACB2C2"/>
<path d="M45.1641 32C41.3692 31.9166 37.9079 30.8323 34.9888 28.3302C32.5283 26.2034 30.9854 23.4927 30.4849 20.2816C29.7343 15.5693 31.0271 11.399 33.8628 7.68753C36.9071 3.6841 40.5769 1.59899 45.5395 0.723237C49.7931 -0.0274051 53.7965 0.389618 57.4246 2.85006C60.7191 5.10198 62.7625 8.14625 63.3046 12.1497C64.0136 17.7795 62.3872 22.3667 58.5089 26.2868C55.7565 29.0808 52.3786 30.8323 48.5003 31.6247C47.3744 31.8332 46.2484 31.8749 45.1641 32ZM55.0893 15.1522C55.0476 14.6101 55.0476 14.1931 54.9642 13.7761C54.2135 9.64754 50.4186 7.3122 46.4569 8.22966C42.5786 9.1054 40.0765 11.5658 39.159 15.4859C38.4084 18.7386 39.9931 22.0331 42.9956 23.3676C45.2892 24.3685 47.5829 24.2433 49.7931 23.1174C53.0876 21.4076 54.8808 18.7386 55.0893 15.1522Z" fill="#ACB2C2"/>
</svg>
