<svg width="32" height="32" viewBox="0 0 32 32" fill="none" xmlns="http://www.w3.org/2000/svg">
<path d="M22.5781 24.2624L29.2437 30.3452L16.1269 29.2859C18.6965 27.6903 20.8181 25.7823 22.4053 24.2657C22.4309 24.2722 22.4597 24.2722 22.4885 24.2722C22.5173 24.2755 22.5461 24.2689 22.5781 24.2624ZM29.9573 27.8976L31.1861 11.363C30.5781 12.9586 29.6181 14.8173 28.3733 16.8011L29.9573 27.8976ZM23.0229 23.8873L29.6757 29.957L27.8997 17.538C26.4341 19.7751 24.6773 22.0648 23.0229 23.8873ZM15.2533 29.8057C13.8197 30.6216 12.3445 31.2729 10.8533 31.7467L26.1813 30.6874L15.2565 29.8057H15.2533ZM2.45332 21.8411L6.46932 31.4868L9.77492 20.2323L2.45332 21.8411ZM10.7477 19.6599L21.9285 23.3511L19.0741 11.7282L10.7477 19.6599ZM19.7013 10.5767L30.1237 9.85956L21.9765 3.01676L19.7013 10.5767ZM25.6277 0.0328981L18.7893 0L21.8293 2.18772L25.6277 0.0328981ZM0.453318 17.7518L0.229318 24.6078L1.87092 21.5318L0.453318 17.7518ZM4.19092 20.5054C5.49012 20.5909 6.80532 20.2948 8.13012 19.6994C9.02292 19.2651 9.94772 18.7157 10.8789 18.0676C12.2101 17.1004 13.5541 15.8898 14.9077 14.5114C19.7717 9.55361 21.7717 4.00699 19.6437 1.79953C19.1349 1.27316 18.4085 1.00339 17.4837 1.0001C14.6805 0.986943 10.4949 3.15493 6.92372 6.79346C3.51572 10.2708 1.30132 14.3962 1.29172 17.3077C1.28852 18.344 1.56692 19.1566 2.12052 19.7323C2.61012 20.2422 3.30772 20.4495 4.19092 20.5054ZM14.3445 29.6412C14.4981 29.559 14.6485 29.4767 14.7989 29.3945L10.2965 20.4692L6.91092 32C6.93972 31.9967 7.16692 31.9671 7.16692 31.9671C7.46132 31.9276 7.75572 31.8849 8.04372 31.8322C9.90292 31.5065 11.7461 30.9078 13.5157 30.0557C13.7941 29.9241 14.0725 29.786 14.3445 29.6412ZM23.5317 22.2786L23.6373 22.1536C23.7109 22.0648 23.7877 21.9727 23.8613 21.8805C23.8613 21.8805 24.0917 21.5976 24.1813 21.4858C24.3317 21.2982 24.4821 21.1074 24.6325 20.9133C24.7701 20.7357 24.9077 20.558 25.0485 20.3738C25.1925 20.183 25.3365 19.9922 25.4805 19.7981C25.8069 19.3573 26.1333 18.8967 26.4853 18.3868C26.8565 17.8472 27.2149 17.3044 27.5541 16.7715L26.9461 16.3898C25.3269 15.3733 22.0757 13.3237 19.9381 11.9716L22.7061 23.2392C22.9653 22.9497 23.2373 22.6339 23.5317 22.2786ZM31.3493 4.13858L22.7445 2.89503L30.9493 9.79377C31.2373 8.81669 31.4261 7.86923 31.5061 6.9744C31.5189 6.84939 31.5253 6.72438 31.5317 6.59607C31.5381 6.47764 31.5413 6.3625 31.5445 6.24406C31.5669 5.48083 31.4997 4.77352 31.3493 4.13858ZM28.0405 16.2385C28.0629 16.2089 28.0853 16.1793 28.1109 16.1398C28.2741 15.903 28.5077 15.5115 28.7669 15.041C29.4869 13.735 30.3765 11.8696 30.7477 10.4978L20.0469 11.2314C22.2805 12.6427 25.5413 14.6956 27.1637 15.7154L28.0277 16.2582C28.0309 16.2517 28.0373 16.2451 28.0405 16.2385ZM15.2117 29.2596L15.2437 29.2398C17.5797 27.9108 19.6661 26.2724 22.0021 23.9334L10.6261 20.16L15.2117 29.2596ZM0.190918 25.8415C0.242118 27.3647 0.555718 28.6214 1.12532 29.5886L1.65652 23.0813L0.190918 25.8415ZM2.26452 22.6536L1.65012 30.161C2.52372 31.3355 3.69172 31.8618 5.42612 31.8618C5.60212 31.8618 5.78132 31.8552 5.97652 31.8487L5.66932 31.0657C5.00692 29.3682 3.11572 24.5354 2.26452 22.6536ZM31.2213 3.67472C31.0965 3.27665 30.9333 2.91148 30.7413 2.5825C29.9669 1.25671 28.6293 0.407937 26.7605 0.0592166L22.5909 2.42788L31.2213 3.67472Z" fill="#ACB2C2"/>
</svg>
