<svg width="79" height="16" xmlns="http://www.w3.org/2000/svg"><g fill="#000" fill-rule="evenodd"><path fill-rule="nonzero" d="M52.4135 0h13.673v2.5479h-5.4239v13.404h-2.7122V2.5479h-5.5369zM29.625 0v2.5479H18.6651v4.0987h8.8139v2.5479h-8.8139v4.2096H29.625v2.5478H15.9531V2.5479h-.0012V0zM37.0681 0h-3.645l13.0558 15.9519h3.6557l-6.5287-7.9705L50.1242.0122l-3.6453.0055-4.698 5.7357zM41.0192 11.3582l-1.8748-2.2428-5.7213 6.8365h3.7544z"/><path d="M15.9519 15.9519 3.3548 0H0v15.9453h2.6838V3.4083l9.8966 12.5436z"/><path d="M66.8472 15.952c-.2102 0-.389-.0743-.5388-.2227-.1497-.1484-.2237-.328-.2218-.5409-.002-.207.0721-.3847.2218-.533.1497-.1485.3286-.2227.5388-.2227.2023 0 .3792.0742.529.2226.1518.1484.2275.3261.2296.5331-.0021.1406-.0371.2695-.1072.3847-.0719.1172-.1632.209-.2781.2753a.7075.7075 0 0 1-.3733.1035ZM71.6277 9.1154h1.2954v4.7412c-.002.4358-.1012.8085-.295 1.1219-.1962.3133-.4676.5525-.8162.7212-.3466.1669-.7527.2522-1.2142.2522-.422 0-.8001-.0723-1.1369-.2132-.3367-.141-.604-.3523-.8001-.6305-.1982-.2781-.2953-.6248-.2953-1.0402h1.2975c.002.1818.0455.3393.1287.471.083.1316.198.2318.3446.3022.1484.0705.319.1057.511.1057.208 0 .3863-.0408.5308-.1242.1445-.0816.2556-.204.3329-.3672.0751-.1613.1149-.3615.1168-.5989V9.1154ZM77.6968 11.0324c-.0304-.2833-.1638-.5044-.3962-.6615-.2344-.159-.5372-.2376-.9089-.2376-.2608 0-.4856.0384-.6723.1133-.1867.0767-.3315.179-.4307.3088-.099.1298-.1485.2778-.1524.4441 0 .1389.0343.2595.101.36.0667.1023.1561.1882.2724.2577.1143.0713.242.1297.3811.1772a4.587 4.587 0 0 0 .4229.1207l.6496.1553c.2611.0585.5145.137.7564.2376.242.0987.461.2247.6534.3764.1925.1517.345.3344.4573.5483.1124.2138.1696.4641.1696.7529 0 .3892-.1029.731-.3107 1.027-.2076.2942-.5067.5245-.8991.6908-.3906.1645-.863.2485-1.4193.2485-.5373 0-1.006-.0804-1.4003-.2412-.3962-.159-.705-.393-.9279-.7-.2229-.307-.3429-.6816-.36-1.122h1.2346c.0172.2303.0934.4222.2229.5775.1314.1535.3028.2668.5125.3436.2115.0749.4476.1133.7087.1133.2724 0 .5125-.0403.72-.1188.2058-.0786.3677-.1882.484-.3308.1182-.1407.1773-.307.1791-.497-.0018-.1737-.0553-.318-.1582-.4314-.1047-.1132-.2495-.2083-.4344-.285-.1865-.0768-.4038-.1462-.6515-.2065l-.7887-.1937c-.5697-.1408-1.0212-.3546-1.3509-.6415-.3313-.2869-.4953-.667-.4953-1.144 0-.391.1105-.7346.3336-1.0288.2208-.2942.5238-.5227.9068-.6853.3848-.1645.8192-.245 1.303-.245.4916 0 .922.0805 1.2937.245.3714.1626.663.3892.8744.678.2115.2887.322.6195.3278.994h-1.208Z" fill-rule="nonzero"/></g></svg>