<svg viewBox="0 0 85 19" xmlns="http://www.w3.org/2000/svg"><path d="M42.0714 4.75c-3.2287 0-5.5566 2.2167-5.5566 5.5417 0 3.325 2.6204 5.5416 5.849 5.5416 1.9507 0 3.6704-.8127 4.7349-2.1828l-2.2373-1.3608c-.5907.6804-1.4886 1.0776-2.4975 1.0776-1.4009 0-2.5912-.7697-3.0328-2.0012h8.1946c.0643-.3448.1023-.702.1023-1.0775 0-3.322-2.3279-5.5386-5.5566-5.5386Zm-.3969 2.375c1.4083 0 2.4138.6114 2.7783 1.5833h-5.5566c.3675-.9719 1.373-1.5833 2.7783-1.5833Zm26.5923 3.1667c0 3.325 2.6204 5.5416 5.8491 5.5416 1.9507 0 3.6703-.8127 4.7348-2.1828l-2.2372-1.3608c-.5908.6804-1.4886 1.0776-2.4976 1.0776-1.4008 0-2.5911-.7697-3.0327-2.0012h8.1945c.0643-.3448.1024-.702.1024-1.0775 0-3.322-2.328-5.5386-5.5566-5.5386-3.2287 0-5.5567 2.2167-5.5567 5.5417Zm5.1597-3.1667c1.4083 0 2.4138.6114 2.7784 1.5833h-5.5567c.3675-.9719 1.373-1.5833 2.7783-1.5833Zm-13.6552 3.1667c0 1.8472 1.1401 3.0787 2.9085 3.0787 1.1983 0 2.097-.5757 2.5595-1.5148l2.2337 1.364c-.9249 1.6316-2.6583 2.6137-4.7932 2.6137-3.2139 0-5.5262-2.2166-5.5262-5.5416 0-3.325 2.3152-5.5417 5.5262-5.5417 2.1349 0 3.8654.9821 4.7932 2.6138l-2.2337 1.3639c-.4624-.939-1.3612-1.5147-2.5595-1.5147-1.7655 0-2.9085 1.2314-2.9085 3.0787Zm24.3716-8.7084v13.4584h-2.3814V1.5833h2.3814ZM11.1132 0l11.1132 19H0L11.1132 0Zm18.6543 15.8333-8.3349-14.25h3.1252l5.2097 8.9063 5.2097-8.9063h3.1252l-8.3349 14.25ZM55.566 4.75v2.9331c-.286-.0878-.5892-.1483-.9153-.1483-1.662 0-2.8606 1.2108-2.8606 3.027v4.4799h-2.5745V4.75h2.5745v2.7848c0-1.5377 1.6906-2.7848 3.776-2.7848Z" fill="black" fill-rule="nonzero"/></svg>
