<svg width="224" height="53" viewBox="0 0 224 53" fill="none" xmlns="http://www.w3.org/2000/svg">
<path fill-rule="evenodd" clip-rule="evenodd" d="M55.5774 3.24512C54.5258 4.0752 54 5.2373 54 6.73145C54 8.20899 54.5258 9.36279 55.5774 10.1929C56.6289 11.023 57.8668 11.438 59.291 11.438C60.6986 11.438 61.924 11.0188 62.9673 10.1804C64.0106 9.34204 64.5323 8.19239 64.5323 6.73145C64.5323 5.2373 64.0106 4.0752 62.9673 3.24512C61.924 2.41503 60.6986 2 59.291 2C57.8668 2 56.6289 2.41503 55.5774 3.24512ZM63.9609 13.6294H54.5713V38.4072H63.9609V13.6294ZM66.0839 38.4072V13.2061H74.3558L74.778 15.9702C75.7882 14.7915 77.0054 13.9282 78.4296 13.3804C79.7709 12.8657 81.1123 12.6084 82.4537 12.6084H82.7021C83.8116 12.625 84.8342 12.7537 85.7698 12.9944C86.7055 13.2351 87.5956 13.6418 88.4402 14.2146C89.2847 14.7874 90.0051 15.5178 90.6013 16.406C91.1974 17.2942 91.6694 18.4189 92.0172 19.7803C92.3649 21.1416 92.5388 22.6938 92.5388 24.437V38.4072H83.174V24.4868C83.174 23.0425 82.8346 21.9841 82.1556 21.3118C81.4766 20.6394 80.6403 20.3032 79.6467 20.3032C78.4378 20.3032 77.4152 20.7224 76.579 21.5608C75.7427 22.3992 75.3245 23.5986 75.3245 25.1592V38.4072H66.0839ZM94.3141 13.2061V38.4072H103.555V25.1592C103.555 23.5986 103.973 22.3992 104.809 21.5608C105.645 20.7224 106.668 20.3032 107.877 20.3032C108.87 20.3032 109.707 20.6394 110.386 21.3118C111.065 21.9841 111.404 23.0425 111.404 24.4868V38.4072H120.769V24.437C120.769 22.6938 120.595 21.1416 120.247 19.7803C119.9 18.4189 119.428 17.2942 118.831 16.406C118.235 15.5178 117.515 14.7874 116.67 14.2146C115.826 13.6418 114.936 13.2351 114 12.9944C113.064 12.7537 112.042 12.625 110.932 12.6084H110.684C109.342 12.6084 108.001 12.8657 106.66 13.3804C105.235 13.9282 104.018 14.7915 103.008 15.9702L102.586 13.2061H94.3141ZM122.425 25.3468C122.425 22.7735 123.05 20.4991 124.3 18.5235C125.551 16.5479 127.232 15.0414 129.343 14.0038C131.454 12.9662 133.81 12.4474 136.41 12.4474C138.165 12.4474 139.896 12.7628 141.602 13.3937L143.645 10.7976C143.92 10.4448 144.142 10.1563 144.309 9.93223L148.637 10.9952L151.066 14.7882L147.812 18.648C149.418 20.441 150.221 22.5411 150.221 24.9483V25.4464C150.188 27.0401 149.774 28.5758 148.979 30.0533C148.184 31.5309 147.066 32.7843 145.626 33.8136C146.702 34.4278 147.601 35.1168 148.321 35.8805C149.041 36.6441 149.55 37.3954 149.849 38.1341C150.147 38.8729 150.341 39.483 150.432 39.9645C150.523 40.4459 150.569 40.9273 150.569 41.4088C150.569 42.9859 150.304 44.4137 149.774 45.692C149.244 46.9703 148.528 48.0328 147.625 48.8795C146.723 49.7262 145.655 50.4359 144.421 51.0086C143.187 51.5814 141.9 51.9923 140.558 52.2413C139.217 52.4903 137.801 52.6148 136.311 52.6148C131.823 52.6148 128.387 51.5109 126.002 49.3028C123.849 47.3106 122.773 44.6461 122.773 41.3092C122.773 40.9605 122.781 40.6036 122.798 40.2384H131.591V40.4127C131.591 41.2297 131.691 41.9251 131.891 42.4988L131.939 42.629C132.171 43.2931 132.522 43.7911 132.994 44.1231C133.466 44.4552 133.967 44.6876 134.497 44.8204C135.027 44.9532 135.632 45.0196 136.311 45.0196C137.619 45.0196 138.72 44.7084 139.614 44.0858C140.509 43.4632 140.956 42.5709 140.956 41.4088C140.956 40.3961 140.596 39.5826 139.875 38.9684C139.183 38.3777 138.088 38.0711 136.591 38.0483L136.41 38.047C132.171 38.047 128.78 36.9015 126.238 34.6105C123.696 32.3194 122.425 29.2316 122.425 25.3468ZM132.92 28.8821C132.001 27.9773 131.541 26.7861 131.541 25.3086C131.541 23.6816 131.997 22.4075 132.908 21.4861C133.818 20.5647 134.986 20.104 136.41 20.104C137.768 20.104 138.898 20.6103 139.801 21.623C140.703 22.6357 141.154 23.8643 141.154 25.3086C141.154 26.9024 140.699 28.1226 139.788 28.9692C138.877 29.8159 137.751 30.2393 136.41 30.2393C135.002 30.2393 133.839 29.7869 132.92 28.8821ZM151.579 25.8564C151.579 24.0801 151.848 22.449 152.386 20.9631C152.925 19.4773 153.645 18.228 154.548 17.2153C155.45 16.2026 156.502 15.3435 157.702 14.6379C158.903 13.9324 160.166 13.4177 161.49 13.094C162.815 12.7703 164.173 12.6084 165.564 12.6084C167.8 12.6084 169.833 12.9695 171.662 13.6917C173.492 14.4138 175.012 15.4556 176.221 16.8169C177.43 18.1782 178.266 19.8384 178.729 21.7974C178.925 22.6274 179.025 23.4987 179.029 24.4111L179.028 24.686C179.028 25.8648 178.887 27.1265 178.605 28.4712H161.043C161.358 29.5005 162.078 30.2932 163.204 30.8494C164.33 31.4055 165.481 31.6836 166.657 31.6836C169.141 31.6836 171.294 31.0029 173.116 29.6416L177.686 34.7964C176.212 36.1743 174.486 37.2161 172.507 37.9216C170.528 38.6272 168.437 38.98 166.235 38.98C164.198 38.98 162.314 38.7227 160.584 38.208C158.853 37.6934 157.309 36.9172 155.951 35.8796C154.593 34.842 153.525 33.4683 152.747 31.7583C151.968 30.0483 151.579 28.0811 151.579 25.8564ZM170.209 22.4448H161.093C161.209 21.6645 161.594 21.0088 162.248 20.4775C162.902 19.9463 163.66 19.6226 164.521 19.5063C164.918 19.4565 165.307 19.4316 165.688 19.4316C166.152 19.4316 166.607 19.4648 167.055 19.5312C167.899 19.6641 168.624 19.9919 169.228 20.5149C169.833 21.0378 170.16 21.6811 170.209 22.4448ZM179.069 35.7676L182.124 28.9194C183.3 29.6831 184.501 30.2849 185.726 30.7249C186.952 31.1648 187.908 31.4304 188.595 31.5217C189.282 31.613 190.09 31.6836 191.017 31.7334C192.723 31.7334 193.576 31.3267 193.576 30.5132C193.576 29.7329 192.69 29.2681 190.918 29.1187C189.874 29.0854 188.868 28.9775 187.9 28.7949C186.931 28.6123 185.966 28.3135 185.006 27.8984C184.045 27.4834 183.213 26.9729 182.509 26.3669C181.806 25.761 181.234 24.9849 180.795 24.0386C180.357 23.0923 180.137 22.0298 180.137 20.8511C180.137 19.3901 180.46 18.1118 181.106 17.0161C181.752 15.9204 182.629 15.0613 183.739 14.4387C184.848 13.8162 186.074 13.3555 187.415 13.0566C188.757 12.7578 190.197 12.6084 191.737 12.6084C193.741 12.6084 195.646 12.8823 197.451 13.4302C199.256 13.978 200.779 14.7251 202.021 15.6714L198.047 21.2744C197.408 20.8682 196.512 20.5207 195.36 20.2321L195.141 20.1787C193.948 19.8799 192.864 19.7305 191.887 19.7305H191.737C190.247 19.7305 189.502 20.1455 189.502 20.9756C189.502 21.2744 189.647 21.5483 189.937 21.7974C190.207 22.0298 190.647 22.161 191.257 22.1909L191.39 22.1958C192.549 22.229 193.625 22.3203 194.619 22.4697C195.613 22.6191 196.635 22.8848 197.687 23.2666C198.738 23.6484 199.637 24.1382 200.382 24.7358C201.127 25.3335 201.736 26.1262 202.208 27.114C202.68 28.1018 202.916 29.2349 202.916 30.5132C202.916 31.7251 202.704 32.8166 202.282 33.7878C201.86 34.759 201.284 35.5684 200.556 36.2158C199.827 36.8633 198.958 37.407 197.948 37.8469C196.937 38.2869 195.873 38.6023 194.756 38.7932C193.638 38.9841 192.458 39.0796 191.216 39.0796C188.98 39.0796 186.745 38.7849 184.509 38.1956C182.273 37.6062 180.46 36.7969 179.069 35.7676ZM203.356 13.3555V20.5522H207.38V29.2432C207.364 30.6045 207.504 31.8247 207.803 32.9038C208.134 34.0991 208.581 35.0745 209.144 35.8298C209.707 36.5852 210.394 37.2078 211.206 37.6975C212.017 38.1873 212.87 38.5317 213.764 38.731C214.658 38.9302 215.627 39.0298 216.67 39.0298C219.519 39.0298 221.928 38.4653 223.899 37.3364L221.862 30.3887C220.968 30.9697 220.057 31.2603 219.13 31.2603C217.507 31.2603 216.67 30.4468 216.621 28.8198V20.5522H222.334V13.3555H216.67V6.08398L207.38 7.10498V13.3555H203.356Z" fill="white"/>
<path fill-rule="evenodd" clip-rule="evenodd" d="M19.0112 3.87939L38.0225 34.3909L35.2428 40.4205L35.0785 40.7753C29.7227 39.1662 24.367 38.3616 19.0112 38.3616C13.6555 38.3616 8.29975 39.1662 2.944 40.7753L2.77971 40.4205L0 34.3909L19.0112 3.87939Z" fill="white"/>
<path opacity="0.2" fill-rule="evenodd" clip-rule="evenodd" d="M34.6427 41.5476L33.0853 45C28.3939 43.3586 23.7026 42.5378 19.0112 42.5378C14.3199 42.5378 9.62852 43.3586 4.93716 45L3.37976 41.5476C8.59025 39.9061 13.8007 39.0854 19.0112 39.0854C24.2217 39.0854 29.4322 39.9061 34.6427 41.5476Z" fill="white"/>
</svg>
