<?xml version="1.0" encoding="UTF-8" standalone="no"?>
<svg
   xmlns:dc="http://purl.org/dc/elements/1.1/"
   xmlns:cc="http://creativecommons.org/ns#"
   xmlns:rdf="http://www.w3.org/1999/02/22-rdf-syntax-ns#"
   xmlns:svg="http://www.w3.org/2000/svg"
   xmlns="http://www.w3.org/2000/svg"
   xmlns:sodipodi="http://sodipodi.sourceforge.net/DTD/sodipodi-0.dtd"
   xmlns:inkscape="http://www.inkscape.org/namespaces/inkscape"
   id="Express"
   viewBox="0 0 120 60"
   version="1.1"
   sodipodi:docname="expressjs-ar21.svg"
   width="120"
   height="60"
   inkscape:version="0.92.2 (5c3e80d, 2017-08-06)">
  <metadata
     id="metadata24">
    <rdf:RDF>
      <cc:Work
         rdf:about="">
        <dc:format>image/svg+xml</dc:format>
        <dc:type
           rdf:resource="http://purl.org/dc/dcmitype/StillImage" />
        <dc:title>Artboard 12</dc:title>
      </cc:Work>
    </rdf:RDF>
  </metadata>
  <defs
     id="defs22" />
  <sodipodi:namedview
     pagecolor="#ffffff"
     bordercolor="#666666"
     borderopacity="1"
     objecttolerance="10"
     gridtolerance="10"
     guidetolerance="10"
     inkscape:pageopacity="0"
     inkscape:pageshadow="2"
     inkscape:window-width="1920"
     inkscape:window-height="1001"
     id="namedview20"
     showgrid="false"
     inkscape:zoom="1.84375"
     inkscape:cx="-2.1694915"
     inkscape:cy="64"
     inkscape:window-x="-9"
     inkscape:window-y="-9"
     inkscape:window-maximized="1"
     inkscape:current-layer="Express" />
  <title
     id="title2">Artboard 12</title>
  <g
     id="original-wordmark"
     transform="matrix(0.85101532,0,0,0.85101532,5.5198422,-24.472693)">
    <path
       d="M 40.53,77.82 V 50.74 H 42 V 55 a 5.57,5.57 0 0 0 0.48,-0.6 7.28,7.28 0 0 1 6.64,-4.12 c 3.35,-0.1 6.07,1.14 7.67,4.12 a 13.24,13.24 0 0 1 0.32,12.14 c -1.49,3.34 -5.17,5 -9.11,4.39 A 7.37,7.37 0 0 1 42.12,67.05 V 77.82 Z M 42,60.32 c 0.13,1.32 0.18,2.26 0.33,3.18 0.58,3.62 2.72,5.77 6.08,6.16 A 6.91,6.91 0 0 0 56,65.27 11.77,11.77 0 0 0 55.74,55.59 6.77,6.77 0 0 0 48.61,51.65 6.59,6.59 0 0 0 42.72,56.52 33.4,33.4 0 0 0 42,60.32 Z"
       id="path4"
       inkscape:connector-curvature="0" />
    <path
       d="m 88.41,64 a 7.92,7.92 0 0 1 -7.74,7 c -6.16,0.31 -9.05,-3.78 -9.51,-8.5 a 13.62,13.62 0 0 1 1.2,-7.5 8.37,8.37 0 0 1 8.71,-4.67 8,8 0 0 1 7.1,6.09 41.09,41.09 0 0 1 0.69,4.5 H 72.67 c -0.3,4.28 2,7.72 5.26,8.55 4.06,1 7.53,-0.76 8.79,-4.62 C 87,63.86 87.51,63.72 88.41,64 Z M 72.67,59.55 h 14.47 c -0.09,-4.56 -2.93,-7.86 -6.78,-7.91 -4.36,-0.07 -7.5,3.11 -7.69,7.91 z"
       id="path6"
       inkscape:connector-curvature="0" />
    <path
       d="m 91.39,64.1 h 1.42 a 5.69,5.69 0 0 0 3.34,4.9 8.73,8.73 0 0 0 7.58,-0.2 3.41,3.41 0 0 0 2,-3.35 3.09,3.09 0 0 0 -2.08,-3.09 c -1.56,-0.58 -3.22,-0.9 -4.81,-1.41 A 35.25,35.25 0 0 1 94,59.18 c -2.56,-1.25 -2.72,-6.12 0.18,-7.66 a 10.21,10.21 0 0 1 9.76,-0.15 5.14,5.14 0 0 1 2.6,5.24 h -1.22 c 0,-0.06 -0.11,-0.11 -0.11,-0.17 -0.15,-3.89 -3.41,-5.09 -6.91,-4.75 a 9.17,9.17 0 0 0 -3,0.91 3,3 0 0 0 -1.74,3 3,3 0 0 0 2,2.82 c 1.54,0.56 3.15,0.92 4.73,1.36 1.27,0.35 2.59,0.58 3.82,1 a 4.51,4.51 0 0 1 3.1,4.07 4.81,4.81 0 0 1 -2.59,5 c -3.34,1.89 -8.84,1.39 -11.29,-1 A 6.67,6.67 0 0 1 91.39,64.1 Z"
       id="path8"
       inkscape:connector-curvature="0" />
    <path
       d="m 125.21,56.61 h -1.33 c 0,-0.18 -0.07,-0.34 -0.09,-0.49 a 4.35,4.35 0 0 0 -3.54,-4.18 8.73,8.73 0 0 0 -5.61,0.27 3.41,3.41 0 0 0 -2.47,3.25 3.14,3.14 0 0 0 2.4,3.16 c 2,0.62 4.05,1 6.08,1.56 a 17,17 0 0 1 1.94,0.59 5,5 0 0 1 0.27,9.31 11.13,11.13 0 0 1 -9,0.09 6.24,6.24 0 0 1 -3.76,-6.06 h 0.56 0.74 a 7.29,7.29 0 0 0 11.1,4.64 3.57,3.57 0 0 0 1.92,-3.34 3.09,3.09 0 0 0 -2.11,-3.07 c -1.56,-0.58 -3.22,-0.89 -4.81,-1.4 a 35.43,35.43 0 0 1 -4.87,-1.75 c -2.5,-1.23 -2.7,-6.06 0.15,-7.6 a 10.07,10.07 0 0 1 9.92,-0.11 5.23,5.23 0 0 1 2.51,5.13 z"
       id="path10"
       inkscape:connector-curvature="0" />
    <path
       d="M 38.1,70.51 A 2.29,2.29 0 0 1 35.26,69.43 C 33.63,66.99 31.83,64.66 30.1,62.28 l -0.75,-1 c -2.06,2.76 -4.12,5.41 -6,8.16 a 2.2,2.2 0 0 1 -2.7,1.06 l 7.73,-10.37 -7.19,-9.37 a 2.39,2.39 0 0 1 2.85,1 c 1.67,2.44 3.52,4.77 5.36,7.24 1.85,-2.45 3.68,-4.79 5.39,-7.21 a 2.15,2.15 0 0 1 2.68,-1 l -2.79,3.7 c -1.25,1.65 -2.48,3.31 -3.78,4.92 a 1,1 0 0 0 0,1.49 c 2.39,3.17 4.76,6.35 7.2,9.61 z"
       id="path12"
       inkscape:connector-curvature="0" />
    <path
       d="m 70.92,50.66 v 1.4 a 7.25,7.25 0 0 0 -7.72,7.49 q 0,4.94 0,9.88 c 0,0.35 0,0.7 0,1.12 H 61.77 V 50.74 h 1.4 v 4.06 c 1.73,-2.96 4.4,-4.06 7.75,-4.14 z"
       id="path14"
       inkscape:connector-curvature="0" />
    <path
       d="m 2.13,60 c 0.21,-1 0.34,-2.09 0.63,-3.11 1.73,-6.15 8.78,-8.71 13.63,-4.9 2.84,2.23 3.55,5.39 3.41,8.95 H 3.8 C 3.54,67.3 8.13,71.14 14,69.18 a 6.09,6.09 0 0 0 3.87,-4.31 c 0.31,-1 0.81,-1.17 1.76,-0.88 A 8.12,8.12 0 0 1 15.75,69.92 9.4,9.4 0 0 1 4.8,68.52 9.85,9.85 0 0 1 2.34,62.74 c 0,-0.34 -0.13,-0.68 -0.2,-1 Q 2.13,60.85 2.13,60 Z M 3.82,59.57 H 18.29 C 18.2,54.96 15.29,51.69 11.41,51.66 7.09,51.6 4,54.8 3.81,59.55 Z"
       id="path16"
       inkscape:connector-curvature="0" />
  </g>
</svg>
