<svg width="380" height="202" viewBox="0 0 380 202" fill="none" xmlns="http://www.w3.org/2000/svg">
<mask id="mask0_1776_620" style="mask-type:alpha" maskUnits="userSpaceOnUse" x="0" y="0" width="380" height="202">
<rect width="380" height="202" rx="8" fill="#080D19"/>
</mask>
<g mask="url(#mask0_1776_620)">
<path d="M40 0.5H379.5V69.5H40C34.7533 69.5 30.5 65.2467 30.5 60V10C30.5 4.75329 34.7533 0.5 40 0.5Z" fill="#E11D48" stroke="url(#paint0_linear_1776_620)"/>
<path d="M97.7578 50.127C97.1781 50.127 96.6576 50.0169 96.1963 49.7969C95.7393 49.5726 95.3732 49.2658 95.0981 48.8765C94.8231 48.4829 94.6771 48.0365 94.6602 47.5371H96.0439C96.0778 47.9391 96.2576 48.2713 96.5835 48.5337C96.9093 48.7961 97.3008 48.9272 97.7578 48.9272C98.1217 48.9272 98.4434 48.8426 98.7227 48.6733C99.002 48.5041 99.222 48.2734 99.3828 47.9814C99.5436 47.6852 99.624 47.3467 99.624 46.9658C99.624 46.585 99.5415 46.2443 99.3765 45.9438C99.2114 45.6392 98.9829 45.4001 98.6909 45.2266C98.4032 45.0531 98.071 44.9663 97.6943 44.9663C97.4066 44.9663 97.1188 45.0171 96.8311 45.1187C96.5433 45.216 96.3105 45.3429 96.1328 45.4995L94.8188 45.3091L95.3521 40.542H100.551V41.7671H96.5454L96.2471 44.4141H96.2979C96.4798 44.2321 96.7231 44.084 97.0278 43.9697C97.3368 43.8512 97.6689 43.792 98.0244 43.792C98.5999 43.792 99.112 43.9295 99.5605 44.2046C100.013 44.4754 100.369 44.8478 100.627 45.3218C100.885 45.7915 101.014 46.3311 101.014 46.9404C101.014 47.554 100.875 48.1021 100.595 48.5845C100.316 49.0627 99.9308 49.4393 99.4399 49.7144C98.9533 49.9894 98.3926 50.127 97.7578 50.127ZM105.134 40.542H106.873L109.882 47.8926H109.99L113.005 40.542H114.77V50H113.373V43.1572H113.284L110.485 49.9873H109.355L106.587 43.1509H106.499V50H105.134V40.542ZM116.191 50V42.9033H117.562V50H116.191ZM116.883 41.8115C116.642 41.8115 116.437 41.7311 116.268 41.5703C116.098 41.4095 116.014 41.217 116.014 40.9927C116.014 40.7642 116.098 40.5695 116.268 40.4087C116.437 40.2479 116.642 40.1675 116.883 40.1675C117.12 40.1675 117.323 40.2479 117.493 40.4087C117.666 40.5695 117.753 40.7642 117.753 40.9927C117.753 41.217 117.666 41.4095 117.493 41.5703C117.323 41.7311 117.12 41.8115 116.883 41.8115ZM120.254 45.7915V50H118.883V42.9033H120.216V44.0713H120.311C120.472 43.6862 120.724 43.3815 121.066 43.1572C121.409 42.9287 121.849 42.8145 122.387 42.8145C122.869 42.8145 123.29 42.916 123.65 43.1191C124.014 43.318 124.295 43.6164 124.494 44.0142C124.697 44.4119 124.799 44.9049 124.799 45.4932V50H123.428V45.6582C123.428 45.1462 123.292 44.7441 123.021 44.4521C122.751 44.1559 122.382 44.0078 121.917 44.0078C121.6 44.0078 121.314 44.0798 121.06 44.2236C120.81 44.3633 120.614 44.5643 120.47 44.8267C120.326 45.089 120.254 45.4106 120.254 45.7915ZM130.613 47.0674V42.9033H131.984V50H130.639V48.7686H130.562C130.393 49.1452 130.131 49.4604 129.775 49.7144C129.42 49.9683 128.976 50.0931 128.442 50.0889C127.985 50.0889 127.581 49.9894 127.23 49.7905C126.883 49.5916 126.61 49.2933 126.411 48.8955C126.216 48.4977 126.119 48.0047 126.119 47.4165V42.9033H127.49V47.2578C127.49 47.736 127.626 48.119 127.896 48.4067C128.167 48.6945 128.516 48.8363 128.944 48.832C129.202 48.832 129.458 48.7686 129.712 48.6416C129.97 48.5146 130.184 48.32 130.353 48.0576C130.527 47.7952 130.613 47.4652 130.613 47.0674ZM136.605 42.9033V44.0142H132.733V42.9033H136.605ZM133.768 41.2148H135.146V47.918C135.146 48.2438 135.213 48.4829 135.349 48.6353C135.484 48.7834 135.702 48.8574 136.002 48.8574C136.074 48.8574 136.151 48.8532 136.231 48.8447C136.316 48.8363 136.4 48.8236 136.485 48.8066L136.745 49.9492C136.605 49.9958 136.453 50.0317 136.288 50.0571C136.123 50.0825 135.958 50.0952 135.793 50.0952C135.179 50.0952 134.688 49.9238 134.32 49.5811C133.952 49.234 133.768 48.7728 133.768 48.1973V41.2148ZM140.573 50.146C139.879 50.146 139.278 49.9958 138.77 49.6953C138.262 49.3949 137.871 48.9717 137.596 48.4258C137.325 47.8757 137.189 47.2345 137.189 46.5024C137.189 45.7746 137.323 45.1335 137.589 44.5791C137.86 44.0247 138.239 43.5931 138.726 43.2842C139.216 42.971 139.792 42.8145 140.452 42.8145C140.854 42.8145 141.243 42.88 141.62 43.0112C141.997 43.1424 142.335 43.3498 142.636 43.6333C142.936 43.9168 143.173 44.285 143.347 44.7378C143.524 45.1906 143.613 45.7365 143.613 46.3755V46.8706H137.97V45.8359H142.902L142.261 46.1787C142.261 45.7428 142.194 45.3577 142.058 45.0234C141.923 44.6891 141.72 44.4289 141.449 44.2427C141.182 44.0522 140.85 43.957 140.452 43.957C140.054 43.957 139.714 44.0522 139.43 44.2427C139.151 44.4331 138.937 44.6849 138.789 44.998C138.641 45.3112 138.567 45.654 138.567 46.0264V46.731C138.567 47.2176 138.652 47.6302 138.821 47.9688C138.99 48.3073 139.225 48.5654 139.525 48.7432C139.83 48.9209 140.183 49.0098 140.585 49.0098C140.848 49.0098 141.085 48.9717 141.296 48.8955C141.512 48.8193 141.698 48.7051 141.855 48.5527C142.012 48.4004 142.13 48.2121 142.21 47.9878L143.518 48.2354C143.412 48.6162 143.226 48.9505 142.959 49.2383C142.693 49.526 142.356 49.7503 141.95 49.9111C141.548 50.0677 141.089 50.146 140.573 50.146ZM149.885 44.6426L148.634 44.8584C148.554 44.6214 148.404 44.4035 148.184 44.2046C147.968 44.0057 147.644 43.9062 147.212 43.9062C146.823 43.9062 146.497 43.9951 146.235 44.1729C145.977 44.3464 145.848 44.5685 145.848 44.8394C145.848 45.0763 145.934 45.2689 146.108 45.417C146.286 45.5651 146.567 45.6836 146.952 45.7725L148.088 46.0264C148.736 46.1745 149.22 46.4072 149.542 46.7246C149.864 47.042 150.024 47.4482 150.024 47.9434C150.024 48.3708 149.902 48.7516 149.656 49.0859C149.411 49.416 149.07 49.6763 148.634 49.8667C148.198 50.0529 147.695 50.146 147.124 50.146C146.328 50.146 145.681 49.9746 145.181 49.6318C144.682 49.2891 144.375 48.8066 144.261 48.1846L145.587 47.9814C145.672 48.3285 145.843 48.5908 146.102 48.7686C146.364 48.9463 146.702 49.0352 147.117 49.0352C147.566 49.0352 147.925 48.9399 148.196 48.7495C148.471 48.5591 148.609 48.3285 148.609 48.0576C148.609 47.609 148.275 47.3065 147.606 47.1499L146.406 46.8833C145.742 46.731 145.251 46.4919 144.934 46.166C144.62 45.8359 144.464 45.4212 144.464 44.9219C144.464 44.5029 144.58 44.1348 144.813 43.8174C145.05 43.5 145.374 43.2546 145.784 43.0811C146.199 42.9033 146.671 42.8145 147.2 42.8145C147.97 42.8145 148.573 42.9816 149.009 43.3159C149.449 43.6502 149.741 44.0924 149.885 44.6426ZM155.94 50.1523C155.492 50.1523 155.086 50.0698 154.722 49.9048C154.358 49.7355 154.07 49.4901 153.858 49.1685C153.647 48.8468 153.541 48.4554 153.541 47.9941C153.541 47.5921 153.617 47.2642 153.77 47.0103C153.926 46.7521 154.136 46.5469 154.398 46.3945C154.66 46.2422 154.952 46.1279 155.274 46.0518C155.596 45.9756 155.926 45.9163 156.264 45.874C156.692 45.8275 157.036 45.7873 157.299 45.7534C157.561 45.7196 157.752 45.6667 157.87 45.5947C157.993 45.5186 158.054 45.3979 158.054 45.2329V45.2012C158.054 44.7992 157.94 44.4881 157.711 44.2681C157.487 44.048 157.153 43.938 156.708 43.938C156.247 43.938 155.881 44.0396 155.61 44.2427C155.344 44.4416 155.16 44.668 155.058 44.9219L153.757 44.6235C153.913 44.1919 154.14 43.8449 154.436 43.5825C154.736 43.3159 155.079 43.1213 155.464 42.9985C155.854 42.8758 156.26 42.8145 156.683 42.8145C156.967 42.8145 157.267 42.8483 157.584 42.916C157.902 42.9795 158.2 43.1001 158.479 43.2778C158.763 43.4513 158.994 43.701 159.171 44.0269C159.349 44.3527 159.438 44.7738 159.438 45.29V50H158.086V49.0288H158.035C157.951 49.2023 157.817 49.3758 157.635 49.5493C157.458 49.7228 157.229 49.8667 156.95 49.981C156.67 50.0952 156.334 50.1523 155.94 50.1523ZM156.239 49.0479C156.624 49.0479 156.952 48.9738 157.223 48.8257C157.493 48.6733 157.701 48.4744 157.845 48.229C157.989 47.9836 158.061 47.7233 158.061 47.4482V46.5278C158.01 46.5744 157.915 46.6188 157.775 46.6611C157.635 46.7035 157.477 46.7394 157.299 46.769C157.121 46.7987 156.948 46.8262 156.778 46.8516C156.609 46.8727 156.467 46.8896 156.353 46.9023C156.086 46.9404 155.843 46.9997 155.623 47.0801C155.403 47.1562 155.225 47.2705 155.09 47.4229C154.959 47.571 154.893 47.7677 154.893 48.0132C154.893 48.356 155.02 48.6141 155.274 48.7876C155.528 48.9611 155.849 49.0479 156.239 49.0479ZM163.723 52.8057C162.876 52.8057 162.21 52.647 161.723 52.3296C161.236 52.0122 160.9 51.6356 160.714 51.1997L161.895 50.7109C161.979 50.8464 162.091 50.9902 162.231 51.1426C162.375 51.2949 162.567 51.424 162.809 51.5298C163.05 51.6356 163.361 51.6885 163.742 51.6885C164.262 51.6885 164.694 51.5615 165.037 51.3076C165.379 51.0579 165.551 50.6559 165.551 50.1016V48.7114H165.456C165.379 48.8595 165.263 49.0267 165.106 49.2129C164.95 49.3949 164.736 49.5535 164.465 49.689C164.194 49.8244 163.841 49.8921 163.405 49.8921C162.847 49.8921 162.343 49.7609 161.895 49.4985C161.45 49.2319 161.095 48.8426 160.828 48.3306C160.566 47.8143 160.435 47.1795 160.435 46.4263C160.435 45.673 160.564 45.0277 160.822 44.4902C161.084 43.9486 161.44 43.5339 161.888 43.2461C162.337 42.9583 162.847 42.8145 163.418 42.8145C163.858 42.8145 164.214 42.8885 164.484 43.0366C164.759 43.1805 164.973 43.3498 165.125 43.5444C165.278 43.7391 165.396 43.9105 165.481 44.0586H165.583V42.9033H166.922V50.1587C166.922 50.7681 166.78 51.2674 166.497 51.6567C166.217 52.0461 165.836 52.3338 165.354 52.52C164.872 52.7104 164.328 52.8057 163.723 52.8057ZM163.71 48.7432C164.307 48.7432 164.764 48.5379 165.081 48.1274C165.403 47.7127 165.563 47.1393 165.563 46.4072C165.563 45.929 165.494 45.5101 165.354 45.1504C165.214 44.7865 165.007 44.5029 164.732 44.2998C164.457 44.0924 164.116 43.9888 163.71 43.9888C163.295 43.9888 162.948 44.0967 162.669 44.3125C162.394 44.5241 162.187 44.814 162.047 45.1821C161.907 45.5461 161.837 45.9544 161.837 46.4072C161.837 46.8685 161.907 47.2769 162.047 47.6323C162.187 47.9836 162.396 48.2565 162.675 48.4512C162.959 48.6458 163.304 48.7432 163.71 48.7432ZM171.219 50.146C170.555 50.146 169.973 49.9937 169.474 49.689C168.979 49.3843 168.593 48.9569 168.318 48.4067C168.048 47.8566 167.912 47.2176 167.912 46.4897C167.912 45.7534 168.048 45.1102 168.318 44.5601C168.593 44.0057 168.979 43.5762 169.474 43.2715C169.973 42.9668 170.555 42.8145 171.219 42.8145C171.888 42.8145 172.47 42.9668 172.965 43.2715C173.46 43.5762 173.845 44.0057 174.12 44.5601C174.395 45.1102 174.533 45.7534 174.533 46.4897C174.533 47.2176 174.395 47.8566 174.12 48.4067C173.845 48.9569 173.46 49.3843 172.965 49.689C172.47 49.9937 171.888 50.146 171.219 50.146ZM171.219 48.9844C171.655 48.9844 172.015 48.8701 172.298 48.6416C172.582 48.4131 172.791 48.1105 172.927 47.7339C173.066 47.353 173.136 46.9383 173.136 46.4897C173.136 46.0327 173.066 45.6138 172.927 45.2329C172.791 44.8521 172.582 44.5474 172.298 44.3188C172.015 44.0903 171.655 43.9761 171.219 43.9761C170.788 43.9761 170.43 44.0903 170.146 44.3188C169.867 44.5474 169.658 44.8521 169.518 45.2329C169.378 45.6138 169.309 46.0327 169.309 46.4897C169.309 46.9383 169.378 47.353 169.518 47.7339C169.658 48.1105 169.867 48.4131 170.146 48.6416C170.43 48.8701 170.788 48.9844 171.219 48.9844Z" fill="#FECDD3"/>
<path d="M98.6436 30.1685C97.7939 30.1685 97.0566 30.0366 96.4316 29.7729C95.8066 29.5093 95.3184 29.126 94.9668 28.623C94.6152 28.1152 94.4248 27.5 94.3955 26.7773H96.3438C96.373 27.1582 96.4902 27.4756 96.6953 27.7295C96.9004 27.9785 97.1689 28.1665 97.501 28.2935C97.8379 28.4204 98.2114 28.4839 98.6216 28.4839C99.0513 28.4839 99.4297 28.418 99.7568 28.2861C100.084 28.1543 100.34 27.9712 100.526 27.7368C100.711 27.5024 100.804 27.229 100.804 26.9165C100.804 26.6333 100.721 26.4014 100.555 26.2207C100.389 26.0352 100.16 25.8789 99.8667 25.752C99.5737 25.625 99.2295 25.5127 98.834 25.415L97.5962 25.0928C96.6978 24.8633 95.9897 24.5142 95.4722 24.0454C94.9546 23.5718 94.6958 22.9419 94.6958 22.1558C94.6958 21.5112 94.8691 20.9497 95.2158 20.4712C95.5625 19.9878 96.0361 19.6118 96.6367 19.3433C97.2422 19.0747 97.9258 18.9404 98.6875 18.9404C99.4639 18.9404 100.145 19.0747 100.731 19.3433C101.317 19.6118 101.776 19.9829 102.108 20.4565C102.44 20.9302 102.613 21.4746 102.628 22.0898H100.716C100.667 21.6211 100.46 21.2598 100.094 21.0059C99.7324 20.7471 99.2563 20.6177 98.6655 20.6177C98.2554 20.6177 97.9014 20.6787 97.6035 20.8008C97.3105 20.9229 97.0859 21.0913 96.9297 21.3062C96.7734 21.521 96.6953 21.7651 96.6953 22.0386C96.6953 22.3413 96.7856 22.5903 96.9663 22.7856C97.1519 22.9761 97.3862 23.1299 97.6694 23.2471C97.9575 23.3643 98.2505 23.4619 98.5483 23.54L99.5664 23.7964C99.9766 23.894 100.372 24.0259 100.753 24.1919C101.134 24.353 101.476 24.5581 101.778 24.8071C102.086 25.0513 102.328 25.3491 102.503 25.7007C102.684 26.0522 102.774 26.4648 102.774 26.9385C102.774 27.5732 102.611 28.1348 102.284 28.623C101.957 29.1064 101.485 29.4849 100.87 29.7583C100.255 30.0317 99.5127 30.1685 98.6436 30.1685ZM107.506 30.1611C106.686 30.1611 105.978 29.9902 105.382 29.6484C104.786 29.3018 104.327 28.8135 104.005 28.1836C103.688 27.5537 103.529 26.8115 103.529 25.957C103.529 25.1123 103.688 24.3726 104.005 23.7378C104.322 23.0981 104.769 22.6001 105.345 22.2437C105.921 21.8872 106.6 21.709 107.381 21.709C107.884 21.709 108.36 21.7896 108.81 21.9507C109.264 22.1118 109.664 22.3608 110.011 22.6978C110.362 23.0347 110.638 23.4644 110.838 23.9868C111.039 24.5044 111.139 25.1221 111.139 25.8398V26.4404H104.43V25.144H110.179L109.278 25.5249C109.278 25.061 109.208 24.6582 109.066 24.3164C108.924 23.9697 108.714 23.6987 108.436 23.5034C108.158 23.3081 107.811 23.2104 107.396 23.2104C106.981 23.2104 106.627 23.3081 106.334 23.5034C106.041 23.6987 105.819 23.9624 105.667 24.2944C105.516 24.6216 105.44 24.9878 105.44 25.3931V26.2939C105.44 26.792 105.526 27.2192 105.697 27.5757C105.873 27.9272 106.117 28.1958 106.429 28.3813C106.747 28.5669 107.115 28.6597 107.535 28.6597C107.809 28.6597 108.058 28.6206 108.282 28.5425C108.512 28.4644 108.707 28.3472 108.868 28.1909C109.034 28.0298 109.161 27.832 109.249 27.5977L111.051 27.8101C110.934 28.2837 110.716 28.6987 110.399 29.0552C110.086 29.4067 109.684 29.6802 109.19 29.8755C108.702 30.0659 108.141 30.1611 107.506 30.1611ZM114.112 25.21V30H112.186V21.8115H114.076V23.2104H114.171C114.356 22.7515 114.647 22.3877 115.042 22.1191C115.443 21.8457 115.951 21.709 116.566 21.709C117.132 21.709 117.625 21.8286 118.045 22.0679C118.465 22.3071 118.79 22.6587 119.02 23.1226C119.254 23.5815 119.371 24.1382 119.371 24.7925V30H117.445V25.0928C117.445 24.5459 117.303 24.1187 117.02 23.811C116.737 23.4985 116.346 23.3423 115.848 23.3423C115.511 23.3423 115.211 23.4155 114.947 23.562C114.688 23.7085 114.483 23.9209 114.332 24.1992C114.186 24.4727 114.112 24.8096 114.112 25.21ZM123.817 30.1465C123.177 30.1465 122.601 29.9829 122.088 29.6558C121.581 29.3237 121.18 28.8428 120.887 28.2129C120.594 27.583 120.448 26.8188 120.448 25.9204C120.448 25.0073 120.597 24.2383 120.895 23.6133C121.197 22.9883 121.603 22.5146 122.11 22.1924C122.618 21.8701 123.187 21.709 123.817 21.709C124.3 21.709 124.696 21.7896 125.003 21.9507C125.311 22.1118 125.555 22.3071 125.736 22.5366C125.921 22.7612 126.063 22.9712 126.161 23.1665H126.241V19.0869H128.16V30H126.278V28.7036H126.161C126.058 28.9038 125.914 29.1162 125.729 29.3408C125.543 29.5605 125.296 29.751 124.989 29.9121C124.681 30.0684 124.291 30.1465 123.817 30.1465ZM124.352 28.5645C124.762 28.5645 125.108 28.4546 125.392 28.2349C125.68 28.0103 125.899 27.7002 126.051 27.3047C126.202 26.9043 126.278 26.4404 126.278 25.9131C126.278 25.3809 126.202 24.9194 126.051 24.5288C125.904 24.1333 125.687 23.8281 125.399 23.6133C125.116 23.3984 124.767 23.291 124.352 23.291C123.927 23.291 123.57 23.4033 123.282 23.6279C122.994 23.8525 122.777 24.1626 122.63 24.5581C122.489 24.9536 122.418 25.4053 122.418 25.9131C122.418 26.4209 122.491 26.875 122.638 27.2754C122.784 27.6758 122.999 27.9907 123.282 28.2202C123.57 28.4497 123.927 28.5645 124.352 28.5645ZM132.833 30V19.0869H139.938V20.7422H134.811V23.6719H139.557V25.3052H134.811V28.3447H139.967V30H132.833ZM141.307 30V21.8115H143.146V23.2104H143.248C143.419 22.7417 143.702 22.3755 144.098 22.1118C144.493 21.8433 144.962 21.709 145.504 21.709C146.061 21.709 146.529 21.8433 146.91 22.1118C147.291 22.3804 147.557 22.7466 147.708 23.2104H147.796C147.982 22.7563 148.29 22.3926 148.719 22.1191C149.149 21.8457 149.662 21.709 150.257 21.709C151.009 21.709 151.622 21.9482 152.096 22.4268C152.574 22.9004 152.813 23.5938 152.813 24.5068V30H150.88V24.7998C150.88 24.2969 150.743 23.9282 150.47 23.6938C150.201 23.4546 149.872 23.335 149.481 23.335C149.017 23.335 148.656 23.4814 148.397 23.7744C148.138 24.0625 148.009 24.4336 148.009 24.8877V30H146.104V24.7266C146.104 24.3018 145.98 23.9648 145.731 23.7158C145.482 23.4619 145.152 23.335 144.742 23.335C144.464 23.335 144.21 23.4058 143.98 23.5474C143.751 23.689 143.568 23.8867 143.431 24.1406C143.299 24.3945 143.233 24.6875 143.233 25.0195V30H141.307ZM156.6 30.1685C156.078 30.1685 155.609 30.0757 155.194 29.8901C154.779 29.6997 154.452 29.4214 154.212 29.0552C153.973 28.689 153.854 28.2373 153.854 27.7002C153.854 27.2412 153.939 26.8604 154.11 26.5576C154.281 26.2549 154.513 26.0132 154.806 25.8325C155.104 25.6519 155.438 25.5151 155.809 25.4224C156.18 25.3247 156.563 25.2563 156.959 25.2173C157.442 25.1636 157.833 25.1172 158.131 25.0781C158.429 25.0391 158.644 24.9756 158.775 24.8877C158.912 24.7998 158.98 24.6631 158.98 24.4775V24.4409C158.98 24.0454 158.863 23.7378 158.629 23.5181C158.395 23.2983 158.053 23.1885 157.604 23.1885C157.13 23.1885 156.754 23.291 156.476 23.4961C156.202 23.7012 156.017 23.9429 155.919 24.2212L154.125 23.9648C154.266 23.4668 154.5 23.0518 154.828 22.7197C155.155 22.3828 155.553 22.1313 156.021 21.9653C156.495 21.7944 157.018 21.709 157.589 21.709C157.979 21.709 158.37 21.7554 158.761 21.8481C159.151 21.936 159.51 22.0874 159.837 22.3022C160.165 22.5171 160.426 22.8052 160.621 23.1665C160.816 23.5278 160.914 23.9795 160.914 24.5215V30H159.061V28.8721H159.002C158.885 29.0967 158.719 29.3091 158.504 29.5093C158.294 29.7046 158.031 29.8633 157.713 29.9854C157.401 30.1074 157.03 30.1685 156.6 30.1685ZM157.091 28.7476C157.481 28.7476 157.818 28.6719 158.102 28.5205C158.385 28.3643 158.604 28.1592 158.761 27.9053C158.917 27.6465 158.995 27.3657 158.995 27.063V26.1035C158.932 26.1523 158.829 26.1987 158.688 26.2427C158.546 26.2817 158.385 26.3184 158.204 26.3525C158.023 26.3867 157.845 26.416 157.669 26.4404C157.499 26.4648 157.35 26.4844 157.223 26.499C156.935 26.5381 156.676 26.604 156.446 26.6968C156.222 26.7847 156.043 26.9067 155.912 27.063C155.78 27.2192 155.714 27.4219 155.714 27.6709C155.714 28.0273 155.843 28.2959 156.102 28.4766C156.361 28.6572 156.69 28.7476 157.091 28.7476ZM162.342 30V21.8115H164.269V30H162.342ZM163.309 20.6616C163.001 20.6616 162.738 20.5591 162.518 20.354C162.298 20.1489 162.188 19.9023 162.188 19.6143C162.188 19.3213 162.298 19.0723 162.518 18.8672C162.738 18.6621 163.001 18.5596 163.309 18.5596C163.612 18.5596 163.873 18.6621 164.093 18.8672C164.312 19.0723 164.422 19.3188 164.422 19.6069C164.422 19.8999 164.312 20.1489 164.093 20.354C163.873 20.5591 163.612 20.6616 163.309 20.6616ZM167.623 19.0869V30H165.697V19.0869H167.623ZM177.02 30.1465C176.063 30.1465 175.206 29.9243 174.449 29.48C173.697 29.0356 173.104 28.396 172.669 27.561C172.24 26.7261 172.025 25.7227 172.025 24.5508C172.025 23.374 172.242 22.3682 172.677 21.5332C173.116 20.6934 173.712 20.0513 174.464 19.6069C175.221 19.1626 176.073 18.9404 177.02 18.9404C177.621 18.9404 178.182 19.0259 178.705 19.1968C179.232 19.3677 179.701 19.6191 180.111 19.9512C180.521 20.2783 180.855 20.6812 181.114 21.1597C181.378 21.6333 181.551 22.1729 181.634 22.7783H179.642C179.588 22.4463 179.483 22.1533 179.327 21.8994C179.176 21.6455 178.985 21.4307 178.756 21.2549C178.531 21.0742 178.275 20.9399 177.987 20.8521C177.699 20.7593 177.389 20.7129 177.057 20.7129C176.461 20.7129 175.934 20.8618 175.475 21.1597C175.016 21.4526 174.657 21.8872 174.398 22.4634C174.139 23.0347 174.01 23.7305 174.01 24.5508C174.01 25.3809 174.139 26.0815 174.398 26.6528C174.662 27.2192 175.021 27.6489 175.475 27.9419C175.934 28.23 176.458 28.374 177.049 28.374C177.376 28.374 177.682 28.3325 177.965 28.2495C178.248 28.1616 178.504 28.0322 178.734 27.8613C178.968 27.6855 179.161 27.4756 179.312 27.2314C179.469 26.9824 179.579 26.6968 179.642 26.3745H181.634C181.561 26.897 181.4 27.3877 181.151 27.8467C180.907 28.3008 180.584 28.7012 180.184 29.0479C179.789 29.3896 179.325 29.6582 178.792 29.8535C178.26 30.0488 177.669 30.1465 177.02 30.1465ZM185.179 30.1685C184.657 30.1685 184.188 30.0757 183.773 29.8901C183.358 29.6997 183.031 29.4214 182.792 29.0552C182.552 28.689 182.433 28.2373 182.433 27.7002C182.433 27.2412 182.518 26.8604 182.689 26.5576C182.86 26.2549 183.092 26.0132 183.385 25.8325C183.683 25.6519 184.017 25.5151 184.388 25.4224C184.759 25.3247 185.143 25.2563 185.538 25.2173C186.021 25.1636 186.412 25.1172 186.71 25.0781C187.008 25.0391 187.223 24.9756 187.354 24.8877C187.491 24.7998 187.56 24.6631 187.56 24.4775V24.4409C187.56 24.0454 187.442 23.7378 187.208 23.5181C186.974 23.2983 186.632 23.1885 186.183 23.1885C185.709 23.1885 185.333 23.291 185.055 23.4961C184.781 23.7012 184.596 23.9429 184.498 24.2212L182.704 23.9648C182.845 23.4668 183.08 23.0518 183.407 22.7197C183.734 22.3828 184.132 22.1313 184.601 21.9653C185.074 21.7944 185.597 21.709 186.168 21.709C186.559 21.709 186.949 21.7554 187.34 21.8481C187.73 21.936 188.089 22.0874 188.417 22.3022C188.744 22.5171 189.005 22.8052 189.2 23.1665C189.396 23.5278 189.493 23.9795 189.493 24.5215V30H187.64V28.8721H187.582C187.464 29.0967 187.298 29.3091 187.083 29.5093C186.874 29.7046 186.61 29.8633 186.292 29.9854C185.98 30.1074 185.609 30.1685 185.179 30.1685ZM185.67 28.7476C186.061 28.7476 186.397 28.6719 186.681 28.5205C186.964 28.3643 187.184 28.1592 187.34 27.9053C187.496 27.6465 187.574 27.3657 187.574 27.063V26.1035C187.511 26.1523 187.408 26.1987 187.267 26.2427C187.125 26.2817 186.964 26.3184 186.783 26.3525C186.603 26.3867 186.424 26.416 186.249 26.4404C186.078 26.4648 185.929 26.4844 185.802 26.499C185.514 26.5381 185.255 26.604 185.025 26.6968C184.801 26.7847 184.623 26.9067 184.491 27.063C184.359 27.2192 184.293 27.4219 184.293 27.6709C184.293 28.0273 184.422 28.2959 184.681 28.4766C184.94 28.6572 185.27 28.7476 185.67 28.7476ZM190.921 30V21.8115H192.76V23.2104H192.862C193.033 22.7417 193.316 22.3755 193.712 22.1118C194.107 21.8433 194.576 21.709 195.118 21.709C195.675 21.709 196.144 21.8433 196.524 22.1118C196.905 22.3804 197.171 22.7466 197.323 23.2104H197.411C197.596 22.7563 197.904 22.3926 198.333 22.1191C198.763 21.8457 199.276 21.709 199.872 21.709C200.624 21.709 201.236 21.9482 201.71 22.4268C202.188 22.9004 202.428 23.5938 202.428 24.5068V30H200.494V24.7998C200.494 24.2969 200.357 23.9282 200.084 23.6938C199.815 23.4546 199.486 23.335 199.095 23.335C198.631 23.335 198.27 23.4814 198.011 23.7744C197.752 24.0625 197.623 24.4336 197.623 24.8877V30H195.719V24.7266C195.719 24.3018 195.594 23.9648 195.345 23.7158C195.096 23.4619 194.767 23.335 194.356 23.335C194.078 23.335 193.824 23.4058 193.595 23.5474C193.365 23.689 193.182 23.8867 193.045 24.1406C192.914 24.3945 192.848 24.6875 192.848 25.0195V30H190.921ZM203.856 33.0615V21.8115H205.746V23.1665H205.863C205.96 22.9712 206.1 22.7612 206.28 22.5366C206.461 22.3071 206.705 22.1118 207.013 21.9507C207.325 21.7896 207.723 21.709 208.207 21.709C208.836 21.709 209.405 21.8701 209.913 22.1924C210.421 22.5146 210.824 22.9883 211.122 23.6133C211.424 24.2383 211.576 25.0073 211.576 25.9204C211.576 26.8188 211.429 27.583 211.136 28.2129C210.843 28.8428 210.44 29.3237 209.928 29.6558C209.42 29.9829 208.844 30.1465 208.199 30.1465C207.735 30.1465 207.347 30.0684 207.035 29.9121C206.727 29.751 206.478 29.5605 206.288 29.3408C206.102 29.1162 205.96 28.9038 205.863 28.7036H205.782V33.0615H203.856ZM207.672 28.5645C208.097 28.5645 208.451 28.4497 208.734 28.2202C209.022 27.9907 209.239 27.6758 209.386 27.2754C209.532 26.875 209.605 26.4209 209.605 25.9131C209.605 25.4053 209.532 24.9536 209.386 24.5581C209.239 24.1626 209.024 23.8525 208.741 23.6279C208.458 23.4033 208.102 23.291 207.672 23.291C207.257 23.291 206.905 23.3984 206.617 23.6133C206.334 23.8281 206.117 24.1333 205.965 24.5288C205.819 24.9194 205.746 25.3809 205.746 25.9131C205.746 26.4404 205.819 26.9043 205.965 27.3047C206.117 27.7002 206.336 28.0103 206.625 28.2349C206.913 28.4546 207.262 28.5645 207.672 28.5645ZM215.003 30.1685C214.481 30.1685 214.012 30.0757 213.597 29.8901C213.182 29.6997 212.855 29.4214 212.616 29.0552C212.376 28.689 212.257 28.2373 212.257 27.7002C212.257 27.2412 212.342 26.8604 212.513 26.5576C212.684 26.2549 212.916 26.0132 213.209 25.8325C213.507 25.6519 213.841 25.5151 214.212 25.4224C214.583 25.3247 214.967 25.2563 215.362 25.2173C215.846 25.1636 216.236 25.1172 216.534 25.0781C216.832 25.0391 217.047 24.9756 217.179 24.8877C217.315 24.7998 217.384 24.6631 217.384 24.4775V24.4409C217.384 24.0454 217.267 23.7378 217.032 23.5181C216.798 23.2983 216.456 23.1885 216.007 23.1885C215.533 23.1885 215.157 23.291 214.879 23.4961C214.605 23.7012 214.42 23.9429 214.322 24.2212L212.528 23.9648C212.669 23.4668 212.904 23.0518 213.231 22.7197C213.558 22.3828 213.956 22.1313 214.425 21.9653C214.898 21.7944 215.421 21.709 215.992 21.709C216.383 21.709 216.773 21.7554 217.164 21.8481C217.555 21.936 217.914 22.0874 218.241 22.3022C218.568 22.5171 218.829 22.8052 219.024 23.1665C219.22 23.5278 219.317 23.9795 219.317 24.5215V30H217.464V28.8721H217.406C217.289 29.0967 217.123 29.3091 216.908 29.5093C216.698 29.7046 216.434 29.8633 216.117 29.9854C215.804 30.1074 215.433 30.1685 215.003 30.1685ZM215.494 28.7476C215.885 28.7476 216.222 28.6719 216.505 28.5205C216.788 28.3643 217.008 28.1592 217.164 27.9053C217.32 27.6465 217.398 27.3657 217.398 27.063V26.1035C217.335 26.1523 217.232 26.1987 217.091 26.2427C216.949 26.2817 216.788 26.3184 216.607 26.3525C216.427 26.3867 216.249 26.416 216.073 26.4404C215.902 26.4648 215.753 26.4844 215.626 26.499C215.338 26.5381 215.079 26.604 214.85 26.6968C214.625 26.7847 214.447 26.9067 214.315 27.063C214.183 27.2192 214.117 27.4219 214.117 27.6709C214.117 28.0273 214.247 28.2959 214.505 28.4766C214.764 28.6572 215.094 28.7476 215.494 28.7476ZM220.746 30V21.8115H222.672V30H220.746ZM221.712 20.6616C221.405 20.6616 221.141 20.5591 220.921 20.354C220.702 20.1489 220.592 19.9023 220.592 19.6143C220.592 19.3213 220.702 19.0723 220.921 18.8672C221.141 18.6621 221.405 18.5596 221.712 18.5596C222.015 18.5596 222.276 18.6621 222.496 18.8672C222.716 19.0723 222.826 19.3188 222.826 19.6069C222.826 19.8999 222.716 20.1489 222.496 20.354C222.276 20.5591 222.015 20.6616 221.712 20.6616ZM227.645 33.2373C226.605 33.2373 225.787 33.0347 225.191 32.6294C224.596 32.229 224.212 31.7432 224.042 31.1719L225.77 30.7471C225.848 30.9082 225.963 31.0669 226.114 31.2231C226.266 31.3843 226.468 31.5161 226.722 31.6187C226.976 31.7261 227.296 31.7798 227.682 31.7798C228.229 31.7798 228.68 31.6455 229.037 31.377C229.398 31.1133 229.579 30.6812 229.579 30.0806V28.5352H229.469C229.376 28.7305 229.234 28.9331 229.044 29.1431C228.854 29.3481 228.602 29.5239 228.29 29.6704C227.982 29.812 227.591 29.8828 227.118 29.8828C226.493 29.8828 225.924 29.7339 225.411 29.436C224.903 29.1382 224.498 28.6938 224.195 28.103C223.897 27.5122 223.749 26.7725 223.749 25.8838C223.749 24.9854 223.897 24.2261 224.195 23.606C224.498 22.9858 224.906 22.5146 225.418 22.1924C225.931 21.8701 226.502 21.709 227.132 21.709C227.611 21.709 228.006 21.7896 228.319 21.9507C228.631 22.1118 228.88 22.3071 229.066 22.5366C229.251 22.7612 229.396 22.9712 229.498 23.1665H229.601V21.8115H231.483V30.1318C231.483 30.8301 231.317 31.4087 230.985 31.8677C230.653 32.3267 230.196 32.6685 229.615 32.8931C229.039 33.1226 228.382 33.2373 227.645 33.2373ZM227.66 28.3667C228.275 28.3667 228.749 28.147 229.081 27.7075C229.417 27.2632 229.586 26.6504 229.586 25.8691C229.586 25.3516 229.513 24.8999 229.366 24.5142C229.22 24.1284 229.002 23.8281 228.714 23.6133C228.426 23.3984 228.075 23.291 227.66 23.291C227.23 23.291 226.871 23.4033 226.583 23.6279C226.295 23.8525 226.078 24.1602 225.931 24.5508C225.79 24.9365 225.719 25.376 225.719 25.8691C225.719 26.3672 225.792 26.8042 225.938 27.1802C226.085 27.5562 226.302 27.8491 226.59 28.0591C226.883 28.2642 227.24 28.3667 227.66 28.3667ZM234.83 25.21V30H232.904V21.8115H234.793V23.2104H234.889C235.074 22.7515 235.365 22.3877 235.76 22.1191C236.161 21.8457 236.668 21.709 237.284 21.709C237.85 21.709 238.343 21.8286 238.763 22.0679C239.183 22.3071 239.508 22.6587 239.737 23.1226C239.972 23.5815 240.089 24.1382 240.089 24.7925V30H238.163V25.0928C238.163 24.5459 238.021 24.1187 237.738 23.811C237.455 23.4985 237.064 23.3423 236.566 23.3423C236.229 23.3423 235.929 23.4155 235.665 23.562C235.406 23.7085 235.201 23.9209 235.05 24.1992C234.903 24.4727 234.83 24.8096 234.83 25.21Z" fill="white"/>
<path d="M50 84.5H379.5V153.5H50C44.7533 153.5 40.5 149.247 40.5 144V94C40.5 88.7533 44.7533 84.5 50 84.5Z" fill="url(#paint1_linear_1776_620)" fill-opacity="0.9" stroke="url(#paint2_linear_1776_620)"/>
<path d="M50 159.5H379.5V228.5H50C44.7533 228.5 40.5 224.247 40.5 219V169C40.5 163.753 44.7533 159.5 50 159.5Z" fill="url(#paint3_linear_1776_620)" fill-opacity="0.9" stroke="url(#paint4_linear_1776_620)"/>
<circle cx="64" cy="35" r="11" fill="#F43F5E"/>
<path fill-rule="evenodd" clip-rule="evenodd" d="M64 46C70.0751 46 75 41.0751 75 35C75 28.9249 70.0751 24 64 24C57.9249 24 53 28.9249 53 35C53 41.0751 57.9249 46 64 46ZM61.6355 31.177C61.2327 30.7743 60.5798 30.7743 60.177 31.177C59.7743 31.5798 59.7743 32.2327 60.177 32.6355L62.5416 35L60.177 37.3645C59.7743 37.7673 59.7743 38.4202 60.177 38.823C60.5798 39.2257 61.2327 39.2257 61.6355 38.823L64 36.4584L66.3645 38.823C66.7673 39.2257 67.4202 39.2257 67.823 38.823C68.2257 38.4202 68.2257 37.7673 67.823 37.3645L65.4584 35L67.823 32.6355C68.2257 32.2327 68.2257 31.5798 67.823 31.177C67.4202 30.7743 66.7673 30.7743 66.3645 31.177L64 33.5416L61.6355 31.177Z" fill="white"/>
<path d="M107.758 134.127C107.178 134.127 106.658 134.017 106.196 133.797C105.739 133.573 105.373 133.266 105.098 132.876C104.823 132.483 104.677 132.036 104.66 131.537H106.044C106.078 131.939 106.258 132.271 106.583 132.534C106.909 132.796 107.301 132.927 107.758 132.927C108.122 132.927 108.443 132.843 108.723 132.673C109.002 132.504 109.222 132.273 109.383 131.981C109.544 131.685 109.624 131.347 109.624 130.966C109.624 130.585 109.542 130.244 109.376 129.944C109.211 129.639 108.983 129.4 108.691 129.227C108.403 129.053 108.071 128.966 107.694 128.966C107.407 128.966 107.119 129.017 106.831 129.119C106.543 129.216 106.311 129.343 106.133 129.5L104.819 129.309L105.352 124.542H110.551V125.767H106.545L106.247 128.414H106.298C106.48 128.232 106.723 128.084 107.028 127.97C107.337 127.851 107.669 127.792 108.024 127.792C108.6 127.792 109.112 127.93 109.561 128.205C110.013 128.475 110.369 128.848 110.627 129.322C110.885 129.792 111.014 130.331 111.014 130.94C111.014 131.554 110.875 132.102 110.595 132.584C110.316 133.063 109.931 133.439 109.44 133.714C108.953 133.989 108.393 134.127 107.758 134.127ZM115.134 124.542H116.873L119.882 131.893H119.99L123.005 124.542H124.77V134H123.373V127.157H123.284L120.485 133.987H119.355L116.587 127.151H116.499V134H115.134V124.542ZM126.191 134V126.903H127.562V134H126.191ZM126.883 125.812C126.642 125.812 126.437 125.731 126.268 125.57C126.098 125.41 126.014 125.217 126.014 124.993C126.014 124.764 126.098 124.569 126.268 124.409C126.437 124.248 126.642 124.167 126.883 124.167C127.12 124.167 127.323 124.248 127.493 124.409C127.666 124.569 127.753 124.764 127.753 124.993C127.753 125.217 127.666 125.41 127.493 125.57C127.323 125.731 127.12 125.812 126.883 125.812ZM130.254 129.792V134H128.883V126.903H130.216V128.071H130.311C130.472 127.686 130.724 127.382 131.066 127.157C131.409 126.929 131.849 126.814 132.387 126.814C132.869 126.814 133.29 126.916 133.65 127.119C134.014 127.318 134.295 127.616 134.494 128.014C134.697 128.412 134.799 128.905 134.799 129.493V134H133.428V129.658C133.428 129.146 133.292 128.744 133.021 128.452C132.751 128.156 132.382 128.008 131.917 128.008C131.6 128.008 131.314 128.08 131.06 128.224C130.81 128.363 130.614 128.564 130.47 128.827C130.326 129.089 130.254 129.411 130.254 129.792ZM140.613 131.067V126.903H141.984V134H140.639V132.769H140.562C140.393 133.145 140.131 133.46 139.775 133.714C139.42 133.968 138.976 134.093 138.442 134.089C137.985 134.089 137.581 133.989 137.23 133.791C136.883 133.592 136.61 133.293 136.411 132.896C136.216 132.498 136.119 132.005 136.119 131.417V126.903H137.49V131.258C137.49 131.736 137.626 132.119 137.896 132.407C138.167 132.694 138.516 132.836 138.944 132.832C139.202 132.832 139.458 132.769 139.712 132.642C139.97 132.515 140.184 132.32 140.353 132.058C140.527 131.795 140.613 131.465 140.613 131.067ZM146.605 126.903V128.014H142.733V126.903H146.605ZM143.768 125.215H145.146V131.918C145.146 132.244 145.213 132.483 145.349 132.635C145.484 132.783 145.702 132.857 146.002 132.857C146.074 132.857 146.151 132.853 146.231 132.845C146.316 132.836 146.4 132.824 146.485 132.807L146.745 133.949C146.605 133.996 146.453 134.032 146.288 134.057C146.123 134.083 145.958 134.095 145.793 134.095C145.179 134.095 144.688 133.924 144.32 133.581C143.952 133.234 143.768 132.773 143.768 132.197V125.215ZM150.573 134.146C149.879 134.146 149.278 133.996 148.77 133.695C148.262 133.395 147.871 132.972 147.596 132.426C147.325 131.876 147.189 131.235 147.189 130.502C147.189 129.775 147.323 129.133 147.589 128.579C147.86 128.025 148.239 127.593 148.726 127.284C149.216 126.971 149.792 126.814 150.452 126.814C150.854 126.814 151.243 126.88 151.62 127.011C151.997 127.142 152.335 127.35 152.636 127.633C152.936 127.917 153.173 128.285 153.347 128.738C153.524 129.191 153.613 129.736 153.613 130.375V130.871H147.97V129.836H152.902L152.261 130.179C152.261 129.743 152.194 129.358 152.058 129.023C151.923 128.689 151.72 128.429 151.449 128.243C151.182 128.052 150.85 127.957 150.452 127.957C150.054 127.957 149.714 128.052 149.43 128.243C149.151 128.433 148.937 128.685 148.789 128.998C148.641 129.311 148.567 129.654 148.567 130.026V130.731C148.567 131.218 148.652 131.63 148.821 131.969C148.99 132.307 149.225 132.565 149.525 132.743C149.83 132.921 150.183 133.01 150.585 133.01C150.848 133.01 151.085 132.972 151.296 132.896C151.512 132.819 151.698 132.705 151.855 132.553C152.012 132.4 152.13 132.212 152.21 131.988L153.518 132.235C153.412 132.616 153.226 132.951 152.959 133.238C152.693 133.526 152.356 133.75 151.95 133.911C151.548 134.068 151.089 134.146 150.573 134.146ZM159.885 128.643L158.634 128.858C158.554 128.621 158.404 128.403 158.184 128.205C157.968 128.006 157.644 127.906 157.212 127.906C156.823 127.906 156.497 127.995 156.235 128.173C155.977 128.346 155.848 128.569 155.848 128.839C155.848 129.076 155.934 129.269 156.108 129.417C156.286 129.565 156.567 129.684 156.952 129.772L158.088 130.026C158.736 130.174 159.22 130.407 159.542 130.725C159.864 131.042 160.024 131.448 160.024 131.943C160.024 132.371 159.902 132.752 159.656 133.086C159.411 133.416 159.07 133.676 158.634 133.867C158.198 134.053 157.695 134.146 157.124 134.146C156.328 134.146 155.681 133.975 155.181 133.632C154.682 133.289 154.375 132.807 154.261 132.185L155.587 131.981C155.672 132.328 155.843 132.591 156.102 132.769C156.364 132.946 156.702 133.035 157.117 133.035C157.566 133.035 157.925 132.94 158.196 132.75C158.471 132.559 158.609 132.328 158.609 132.058C158.609 131.609 158.275 131.306 157.606 131.15L156.406 130.883C155.742 130.731 155.251 130.492 154.934 130.166C154.62 129.836 154.464 129.421 154.464 128.922C154.464 128.503 154.58 128.135 154.813 127.817C155.05 127.5 155.374 127.255 155.784 127.081C156.199 126.903 156.671 126.814 157.2 126.814C157.97 126.814 158.573 126.982 159.009 127.316C159.449 127.65 159.741 128.092 159.885 128.643ZM165.94 134.152C165.492 134.152 165.086 134.07 164.722 133.905C164.358 133.736 164.07 133.49 163.858 133.168C163.647 132.847 163.541 132.455 163.541 131.994C163.541 131.592 163.617 131.264 163.77 131.01C163.926 130.752 164.136 130.547 164.398 130.395C164.66 130.242 164.952 130.128 165.274 130.052C165.596 129.976 165.926 129.916 166.264 129.874C166.692 129.827 167.036 129.787 167.299 129.753C167.561 129.72 167.752 129.667 167.87 129.595C167.993 129.519 168.054 129.398 168.054 129.233V129.201C168.054 128.799 167.94 128.488 167.711 128.268C167.487 128.048 167.153 127.938 166.708 127.938C166.247 127.938 165.881 128.04 165.61 128.243C165.344 128.442 165.16 128.668 165.058 128.922L163.757 128.624C163.913 128.192 164.14 127.845 164.436 127.583C164.736 127.316 165.079 127.121 165.464 126.999C165.854 126.876 166.26 126.814 166.683 126.814C166.967 126.814 167.267 126.848 167.584 126.916C167.902 126.979 168.2 127.1 168.479 127.278C168.763 127.451 168.994 127.701 169.171 128.027C169.349 128.353 169.438 128.774 169.438 129.29V134H168.086V133.029H168.035C167.951 133.202 167.817 133.376 167.635 133.549C167.458 133.723 167.229 133.867 166.95 133.981C166.67 134.095 166.334 134.152 165.94 134.152ZM166.239 133.048C166.624 133.048 166.952 132.974 167.223 132.826C167.493 132.673 167.701 132.474 167.845 132.229C167.989 131.984 168.061 131.723 168.061 131.448V130.528C168.01 130.574 167.915 130.619 167.775 130.661C167.635 130.703 167.477 130.739 167.299 130.769C167.121 130.799 166.948 130.826 166.778 130.852C166.609 130.873 166.467 130.89 166.353 130.902C166.086 130.94 165.843 131 165.623 131.08C165.403 131.156 165.225 131.271 165.09 131.423C164.959 131.571 164.893 131.768 164.893 132.013C164.893 132.356 165.02 132.614 165.274 132.788C165.528 132.961 165.849 133.048 166.239 133.048ZM173.723 136.806C172.876 136.806 172.21 136.647 171.723 136.33C171.236 136.012 170.9 135.636 170.714 135.2L171.895 134.711C171.979 134.846 172.091 134.99 172.231 135.143C172.375 135.295 172.567 135.424 172.809 135.53C173.05 135.636 173.361 135.688 173.742 135.688C174.262 135.688 174.694 135.562 175.037 135.308C175.379 135.058 175.551 134.656 175.551 134.102V132.711H175.456C175.379 132.86 175.263 133.027 175.106 133.213C174.95 133.395 174.736 133.554 174.465 133.689C174.194 133.824 173.841 133.892 173.405 133.892C172.847 133.892 172.343 133.761 171.895 133.499C171.45 133.232 171.095 132.843 170.828 132.331C170.566 131.814 170.435 131.18 170.435 130.426C170.435 129.673 170.564 129.028 170.822 128.49C171.084 127.949 171.44 127.534 171.888 127.246C172.337 126.958 172.847 126.814 173.418 126.814C173.858 126.814 174.214 126.889 174.484 127.037C174.759 127.181 174.973 127.35 175.125 127.544C175.278 127.739 175.396 127.91 175.481 128.059H175.583V126.903H176.922V134.159C176.922 134.768 176.78 135.267 176.497 135.657C176.217 136.046 175.836 136.334 175.354 136.52C174.872 136.71 174.328 136.806 173.723 136.806ZM173.71 132.743C174.307 132.743 174.764 132.538 175.081 132.127C175.403 131.713 175.563 131.139 175.563 130.407C175.563 129.929 175.494 129.51 175.354 129.15C175.214 128.786 175.007 128.503 174.732 128.3C174.457 128.092 174.116 127.989 173.71 127.989C173.295 127.989 172.948 128.097 172.669 128.312C172.394 128.524 172.187 128.814 172.047 129.182C171.907 129.546 171.837 129.954 171.837 130.407C171.837 130.868 171.907 131.277 172.047 131.632C172.187 131.984 172.396 132.257 172.675 132.451C172.959 132.646 173.304 132.743 173.71 132.743ZM181.219 134.146C180.555 134.146 179.973 133.994 179.474 133.689C178.979 133.384 178.593 132.957 178.318 132.407C178.048 131.857 177.912 131.218 177.912 130.49C177.912 129.753 178.048 129.11 178.318 128.56C178.593 128.006 178.979 127.576 179.474 127.271C179.973 126.967 180.555 126.814 181.219 126.814C181.888 126.814 182.47 126.967 182.965 127.271C183.46 127.576 183.845 128.006 184.12 128.56C184.395 129.11 184.533 129.753 184.533 130.49C184.533 131.218 184.395 131.857 184.12 132.407C183.845 132.957 183.46 133.384 182.965 133.689C182.47 133.994 181.888 134.146 181.219 134.146ZM181.219 132.984C181.655 132.984 182.015 132.87 182.298 132.642C182.582 132.413 182.791 132.111 182.927 131.734C183.066 131.353 183.136 130.938 183.136 130.49C183.136 130.033 183.066 129.614 182.927 129.233C182.791 128.852 182.582 128.547 182.298 128.319C182.015 128.09 181.655 127.976 181.219 127.976C180.788 127.976 180.43 128.09 180.146 128.319C179.867 128.547 179.658 128.852 179.518 129.233C179.378 129.614 179.309 130.033 179.309 130.49C179.309 130.938 179.378 131.353 179.518 131.734C179.658 132.111 179.867 132.413 180.146 132.642C180.43 132.87 180.788 132.984 181.219 132.984Z" fill="#A5B4FC"/>
<path d="M107.758 209.127C107.178 209.127 106.658 209.017 106.196 208.797C105.739 208.573 105.373 208.266 105.098 207.876C104.823 207.483 104.677 207.036 104.66 206.537H106.044C106.078 206.939 106.258 207.271 106.583 207.534C106.909 207.796 107.301 207.927 107.758 207.927C108.122 207.927 108.443 207.843 108.723 207.673C109.002 207.504 109.222 207.273 109.383 206.981C109.544 206.685 109.624 206.347 109.624 205.966C109.624 205.585 109.542 205.244 109.376 204.944C109.211 204.639 108.983 204.4 108.691 204.227C108.403 204.053 108.071 203.966 107.694 203.966C107.407 203.966 107.119 204.017 106.831 204.119C106.543 204.216 106.311 204.343 106.133 204.5L104.819 204.309L105.352 199.542H110.551V200.767H106.545L106.247 203.414H106.298C106.48 203.232 106.723 203.084 107.028 202.97C107.337 202.851 107.669 202.792 108.024 202.792C108.6 202.792 109.112 202.93 109.561 203.205C110.013 203.475 110.369 203.848 110.627 204.322C110.885 204.792 111.014 205.331 111.014 205.94C111.014 206.554 110.875 207.102 110.595 207.584C110.316 208.063 109.931 208.439 109.44 208.714C108.953 208.989 108.393 209.127 107.758 209.127ZM115.134 199.542H116.873L119.882 206.893H119.99L123.005 199.542H124.77V209H123.373V202.157H123.284L120.485 208.987H119.355L116.587 202.151H116.499V209H115.134V199.542ZM126.191 209V201.903H127.562V209H126.191ZM126.883 200.812C126.642 200.812 126.437 200.731 126.268 200.57C126.098 200.41 126.014 200.217 126.014 199.993C126.014 199.764 126.098 199.569 126.268 199.409C126.437 199.248 126.642 199.167 126.883 199.167C127.12 199.167 127.323 199.248 127.493 199.409C127.666 199.569 127.753 199.764 127.753 199.993C127.753 200.217 127.666 200.41 127.493 200.57C127.323 200.731 127.12 200.812 126.883 200.812ZM130.254 204.792V209H128.883V201.903H130.216V203.071H130.311C130.472 202.686 130.724 202.382 131.066 202.157C131.409 201.929 131.849 201.814 132.387 201.814C132.869 201.814 133.29 201.916 133.65 202.119C134.014 202.318 134.295 202.616 134.494 203.014C134.697 203.412 134.799 203.905 134.799 204.493V209H133.428V204.658C133.428 204.146 133.292 203.744 133.021 203.452C132.751 203.156 132.382 203.008 131.917 203.008C131.6 203.008 131.314 203.08 131.06 203.224C130.81 203.363 130.614 203.564 130.47 203.827C130.326 204.089 130.254 204.411 130.254 204.792ZM140.613 206.067V201.903H141.984V209H140.639V207.769H140.562C140.393 208.145 140.131 208.46 139.775 208.714C139.42 208.968 138.976 209.093 138.442 209.089C137.985 209.089 137.581 208.989 137.23 208.791C136.883 208.592 136.61 208.293 136.411 207.896C136.216 207.498 136.119 207.005 136.119 206.417V201.903H137.49V206.258C137.49 206.736 137.626 207.119 137.896 207.407C138.167 207.694 138.516 207.836 138.944 207.832C139.202 207.832 139.458 207.769 139.712 207.642C139.97 207.515 140.184 207.32 140.353 207.058C140.527 206.795 140.613 206.465 140.613 206.067ZM146.605 201.903V203.014H142.733V201.903H146.605ZM143.768 200.215H145.146V206.918C145.146 207.244 145.213 207.483 145.349 207.635C145.484 207.783 145.702 207.857 146.002 207.857C146.074 207.857 146.151 207.853 146.231 207.845C146.316 207.836 146.4 207.824 146.485 207.807L146.745 208.949C146.605 208.996 146.453 209.032 146.288 209.057C146.123 209.083 145.958 209.095 145.793 209.095C145.179 209.095 144.688 208.924 144.32 208.581C143.952 208.234 143.768 207.773 143.768 207.197V200.215ZM150.573 209.146C149.879 209.146 149.278 208.996 148.77 208.695C148.262 208.395 147.871 207.972 147.596 207.426C147.325 206.876 147.189 206.235 147.189 205.502C147.189 204.775 147.323 204.133 147.589 203.579C147.86 203.025 148.239 202.593 148.726 202.284C149.216 201.971 149.792 201.814 150.452 201.814C150.854 201.814 151.243 201.88 151.62 202.011C151.997 202.142 152.335 202.35 152.636 202.633C152.936 202.917 153.173 203.285 153.347 203.738C153.524 204.191 153.613 204.736 153.613 205.375V205.871H147.97V204.836H152.902L152.261 205.179C152.261 204.743 152.194 204.358 152.058 204.023C151.923 203.689 151.72 203.429 151.449 203.243C151.182 203.052 150.85 202.957 150.452 202.957C150.054 202.957 149.714 203.052 149.43 203.243C149.151 203.433 148.937 203.685 148.789 203.998C148.641 204.311 148.567 204.654 148.567 205.026V205.731C148.567 206.218 148.652 206.63 148.821 206.969C148.99 207.307 149.225 207.565 149.525 207.743C149.83 207.921 150.183 208.01 150.585 208.01C150.848 208.01 151.085 207.972 151.296 207.896C151.512 207.819 151.698 207.705 151.855 207.553C152.012 207.4 152.13 207.212 152.21 206.988L153.518 207.235C153.412 207.616 153.226 207.951 152.959 208.238C152.693 208.526 152.356 208.75 151.95 208.911C151.548 209.068 151.089 209.146 150.573 209.146ZM159.885 203.643L158.634 203.858C158.554 203.621 158.404 203.403 158.184 203.205C157.968 203.006 157.644 202.906 157.212 202.906C156.823 202.906 156.497 202.995 156.235 203.173C155.977 203.346 155.848 203.569 155.848 203.839C155.848 204.076 155.934 204.269 156.108 204.417C156.286 204.565 156.567 204.684 156.952 204.772L158.088 205.026C158.736 205.174 159.22 205.407 159.542 205.725C159.864 206.042 160.024 206.448 160.024 206.943C160.024 207.371 159.902 207.752 159.656 208.086C159.411 208.416 159.07 208.676 158.634 208.867C158.198 209.053 157.695 209.146 157.124 209.146C156.328 209.146 155.681 208.975 155.181 208.632C154.682 208.289 154.375 207.807 154.261 207.185L155.587 206.981C155.672 207.328 155.843 207.591 156.102 207.769C156.364 207.946 156.702 208.035 157.117 208.035C157.566 208.035 157.925 207.94 158.196 207.75C158.471 207.559 158.609 207.328 158.609 207.058C158.609 206.609 158.275 206.306 157.606 206.15L156.406 205.883C155.742 205.731 155.251 205.492 154.934 205.166C154.62 204.836 154.464 204.421 154.464 203.922C154.464 203.503 154.58 203.135 154.813 202.817C155.05 202.5 155.374 202.255 155.784 202.081C156.199 201.903 156.671 201.814 157.2 201.814C157.97 201.814 158.573 201.982 159.009 202.316C159.449 202.65 159.741 203.092 159.885 203.643ZM165.94 209.152C165.492 209.152 165.086 209.07 164.722 208.905C164.358 208.736 164.07 208.49 163.858 208.168C163.647 207.847 163.541 207.455 163.541 206.994C163.541 206.592 163.617 206.264 163.77 206.01C163.926 205.752 164.136 205.547 164.398 205.395C164.66 205.242 164.952 205.128 165.274 205.052C165.596 204.976 165.926 204.916 166.264 204.874C166.692 204.827 167.036 204.787 167.299 204.753C167.561 204.72 167.752 204.667 167.87 204.595C167.993 204.519 168.054 204.398 168.054 204.233V204.201C168.054 203.799 167.94 203.488 167.711 203.268C167.487 203.048 167.153 202.938 166.708 202.938C166.247 202.938 165.881 203.04 165.61 203.243C165.344 203.442 165.16 203.668 165.058 203.922L163.757 203.624C163.913 203.192 164.14 202.845 164.436 202.583C164.736 202.316 165.079 202.121 165.464 201.999C165.854 201.876 166.26 201.814 166.683 201.814C166.967 201.814 167.267 201.848 167.584 201.916C167.902 201.979 168.2 202.1 168.479 202.278C168.763 202.451 168.994 202.701 169.171 203.027C169.349 203.353 169.438 203.774 169.438 204.29V209H168.086V208.029H168.035C167.951 208.202 167.817 208.376 167.635 208.549C167.458 208.723 167.229 208.867 166.95 208.981C166.67 209.095 166.334 209.152 165.94 209.152ZM166.239 208.048C166.624 208.048 166.952 207.974 167.223 207.826C167.493 207.673 167.701 207.474 167.845 207.229C167.989 206.984 168.061 206.723 168.061 206.448V205.528C168.01 205.574 167.915 205.619 167.775 205.661C167.635 205.703 167.477 205.739 167.299 205.769C167.121 205.799 166.948 205.826 166.778 205.852C166.609 205.873 166.467 205.89 166.353 205.902C166.086 205.94 165.843 206 165.623 206.08C165.403 206.156 165.225 206.271 165.09 206.423C164.959 206.571 164.893 206.768 164.893 207.013C164.893 207.356 165.02 207.614 165.274 207.788C165.528 207.961 165.849 208.048 166.239 208.048ZM173.723 211.806C172.876 211.806 172.21 211.647 171.723 211.33C171.236 211.012 170.9 210.636 170.714 210.2L171.895 209.711C171.979 209.846 172.091 209.99 172.231 210.143C172.375 210.295 172.567 210.424 172.809 210.53C173.05 210.636 173.361 210.688 173.742 210.688C174.262 210.688 174.694 210.562 175.037 210.308C175.379 210.058 175.551 209.656 175.551 209.102V207.711H175.456C175.379 207.86 175.263 208.027 175.106 208.213C174.95 208.395 174.736 208.554 174.465 208.689C174.194 208.824 173.841 208.892 173.405 208.892C172.847 208.892 172.343 208.761 171.895 208.499C171.45 208.232 171.095 207.843 170.828 207.331C170.566 206.814 170.435 206.18 170.435 205.426C170.435 204.673 170.564 204.028 170.822 203.49C171.084 202.949 171.44 202.534 171.888 202.246C172.337 201.958 172.847 201.814 173.418 201.814C173.858 201.814 174.214 201.889 174.484 202.037C174.759 202.181 174.973 202.35 175.125 202.544C175.278 202.739 175.396 202.91 175.481 203.059H175.583V201.903H176.922V209.159C176.922 209.768 176.78 210.267 176.497 210.657C176.217 211.046 175.836 211.334 175.354 211.52C174.872 211.71 174.328 211.806 173.723 211.806ZM173.71 207.743C174.307 207.743 174.764 207.538 175.081 207.127C175.403 206.713 175.563 206.139 175.563 205.407C175.563 204.929 175.494 204.51 175.354 204.15C175.214 203.786 175.007 203.503 174.732 203.3C174.457 203.092 174.116 202.989 173.71 202.989C173.295 202.989 172.948 203.097 172.669 203.312C172.394 203.524 172.187 203.814 172.047 204.182C171.907 204.546 171.837 204.954 171.837 205.407C171.837 205.868 171.907 206.277 172.047 206.632C172.187 206.984 172.396 207.257 172.675 207.451C172.959 207.646 173.304 207.743 173.71 207.743ZM181.219 209.146C180.555 209.146 179.973 208.994 179.474 208.689C178.979 208.384 178.593 207.957 178.318 207.407C178.048 206.857 177.912 206.218 177.912 205.49C177.912 204.753 178.048 204.11 178.318 203.56C178.593 203.006 178.979 202.576 179.474 202.271C179.973 201.967 180.555 201.814 181.219 201.814C181.888 201.814 182.47 201.967 182.965 202.271C183.46 202.576 183.845 203.006 184.12 203.56C184.395 204.11 184.533 204.753 184.533 205.49C184.533 206.218 184.395 206.857 184.12 207.407C183.845 207.957 183.46 208.384 182.965 208.689C182.47 208.994 181.888 209.146 181.219 209.146ZM181.219 207.984C181.655 207.984 182.015 207.87 182.298 207.642C182.582 207.413 182.791 207.111 182.927 206.734C183.066 206.353 183.136 205.938 183.136 205.49C183.136 205.033 183.066 204.614 182.927 204.233C182.791 203.852 182.582 203.547 182.298 203.319C182.015 203.09 181.655 202.976 181.219 202.976C180.788 202.976 180.43 203.09 180.146 203.319C179.867 203.547 179.658 203.852 179.518 204.233C179.378 204.614 179.309 205.033 179.309 205.49C179.309 205.938 179.378 206.353 179.518 206.734C179.658 207.111 179.867 207.413 180.146 207.642C180.43 207.87 180.788 207.984 181.219 207.984Z" fill="#A5B4FC"/>
<path d="M108.644 114.168C107.794 114.168 107.057 114.037 106.432 113.773C105.807 113.509 105.318 113.126 104.967 112.623C104.615 112.115 104.425 111.5 104.396 110.777H106.344C106.373 111.158 106.49 111.476 106.695 111.729C106.9 111.979 107.169 112.167 107.501 112.293C107.838 112.42 108.211 112.484 108.622 112.484C109.051 112.484 109.43 112.418 109.757 112.286C110.084 112.154 110.34 111.971 110.526 111.737C110.711 111.502 110.804 111.229 110.804 110.917C110.804 110.633 110.721 110.401 110.555 110.221C110.389 110.035 110.16 109.879 109.867 109.752C109.574 109.625 109.229 109.513 108.834 109.415L107.596 109.093C106.698 108.863 105.99 108.514 105.472 108.045C104.955 107.572 104.696 106.942 104.696 106.156C104.696 105.511 104.869 104.95 105.216 104.471C105.562 103.988 106.036 103.612 106.637 103.343C107.242 103.075 107.926 102.94 108.688 102.94C109.464 102.94 110.145 103.075 110.731 103.343C111.317 103.612 111.776 103.983 112.108 104.457C112.44 104.93 112.613 105.475 112.628 106.09H110.716C110.667 105.621 110.46 105.26 110.094 105.006C109.732 104.747 109.256 104.618 108.666 104.618C108.255 104.618 107.901 104.679 107.604 104.801C107.311 104.923 107.086 105.091 106.93 105.306C106.773 105.521 106.695 105.765 106.695 106.039C106.695 106.341 106.786 106.59 106.966 106.786C107.152 106.976 107.386 107.13 107.669 107.247C107.958 107.364 108.25 107.462 108.548 107.54L109.566 107.796C109.977 107.894 110.372 108.026 110.753 108.192C111.134 108.353 111.476 108.558 111.778 108.807C112.086 109.051 112.328 109.349 112.503 109.701C112.684 110.052 112.774 110.465 112.774 110.938C112.774 111.573 112.611 112.135 112.284 112.623C111.957 113.106 111.485 113.485 110.87 113.758C110.255 114.032 109.513 114.168 108.644 114.168ZM117.506 114.161C116.686 114.161 115.978 113.99 115.382 113.648C114.786 113.302 114.327 112.813 114.005 112.184C113.688 111.554 113.529 110.812 113.529 109.957C113.529 109.112 113.688 108.373 114.005 107.738C114.322 107.098 114.769 106.6 115.345 106.244C115.921 105.887 116.6 105.709 117.381 105.709C117.884 105.709 118.36 105.79 118.81 105.951C119.264 106.112 119.664 106.361 120.011 106.698C120.362 107.035 120.638 107.464 120.838 107.987C121.039 108.504 121.139 109.122 121.139 109.84V110.44H114.43V109.144H120.179L119.278 109.525C119.278 109.061 119.208 108.658 119.066 108.316C118.924 107.97 118.714 107.699 118.436 107.503C118.158 107.308 117.811 107.21 117.396 107.21C116.981 107.21 116.627 107.308 116.334 107.503C116.041 107.699 115.819 107.962 115.667 108.294C115.516 108.622 115.44 108.988 115.44 109.393V110.294C115.44 110.792 115.526 111.219 115.697 111.576C115.873 111.927 116.117 112.196 116.429 112.381C116.747 112.567 117.115 112.66 117.535 112.66C117.809 112.66 118.058 112.621 118.282 112.542C118.512 112.464 118.707 112.347 118.868 112.191C119.034 112.03 119.161 111.832 119.249 111.598L121.051 111.81C120.934 112.284 120.716 112.699 120.399 113.055C120.086 113.407 119.684 113.68 119.19 113.875C118.702 114.066 118.141 114.161 117.506 114.161ZM124.112 109.21V114H122.186V105.812H124.076V107.21H124.171C124.356 106.751 124.647 106.388 125.042 106.119C125.443 105.846 125.951 105.709 126.566 105.709C127.132 105.709 127.625 105.829 128.045 106.068C128.465 106.307 128.79 106.659 129.02 107.123C129.254 107.582 129.371 108.138 129.371 108.792V114H127.445V109.093C127.445 108.546 127.303 108.119 127.02 107.811C126.737 107.499 126.346 107.342 125.848 107.342C125.511 107.342 125.211 107.416 124.947 107.562C124.688 107.708 124.483 107.921 124.332 108.199C124.186 108.473 124.112 108.81 124.112 109.21ZM133.817 114.146C133.177 114.146 132.601 113.983 132.088 113.656C131.581 113.324 131.18 112.843 130.887 112.213C130.594 111.583 130.448 110.819 130.448 109.92C130.448 109.007 130.597 108.238 130.895 107.613C131.197 106.988 131.603 106.515 132.11 106.192C132.618 105.87 133.187 105.709 133.817 105.709C134.3 105.709 134.696 105.79 135.003 105.951C135.311 106.112 135.555 106.307 135.736 106.537C135.921 106.761 136.063 106.971 136.161 107.167H136.241V103.087H138.16V114H136.278V112.704H136.161C136.058 112.904 135.914 113.116 135.729 113.341C135.543 113.561 135.296 113.751 134.989 113.912C134.681 114.068 134.291 114.146 133.817 114.146ZM134.352 112.564C134.762 112.564 135.108 112.455 135.392 112.235C135.68 112.01 135.899 111.7 136.051 111.305C136.202 110.904 136.278 110.44 136.278 109.913C136.278 109.381 136.202 108.919 136.051 108.529C135.904 108.133 135.687 107.828 135.399 107.613C135.116 107.398 134.767 107.291 134.352 107.291C133.927 107.291 133.57 107.403 133.282 107.628C132.994 107.853 132.777 108.163 132.63 108.558C132.489 108.954 132.418 109.405 132.418 109.913C132.418 110.421 132.491 110.875 132.638 111.275C132.784 111.676 132.999 111.991 133.282 112.22C133.57 112.45 133.927 112.564 134.352 112.564ZM149.212 107.987L147.462 108.17C147.389 107.901 147.23 107.665 146.986 107.459C146.742 107.25 146.397 107.145 145.953 107.145C145.553 107.145 145.216 107.232 144.942 107.408C144.674 107.584 144.54 107.809 144.54 108.082C144.54 108.321 144.627 108.519 144.803 108.675C144.984 108.827 145.282 108.949 145.697 109.042L147.096 109.334C147.862 109.496 148.436 109.759 148.817 110.125C149.198 110.492 149.388 110.965 149.388 111.546C149.388 112.059 149.239 112.513 148.941 112.909C148.644 113.304 148.231 113.612 147.704 113.832C147.181 114.051 146.578 114.161 145.895 114.161C144.894 114.161 144.088 113.951 143.478 113.531C142.872 113.106 142.508 112.518 142.386 111.766L144.269 111.59C144.352 111.957 144.532 112.235 144.811 112.425C145.094 112.611 145.455 112.704 145.895 112.704C146.354 112.704 146.722 112.611 147 112.425C147.279 112.235 147.418 112.003 147.418 111.729C147.418 111.271 147.052 110.958 146.319 110.792L144.92 110.499C144.134 110.328 143.553 110.052 143.177 109.671C142.801 109.286 142.613 108.795 142.613 108.199C142.613 107.691 142.752 107.252 143.031 106.881C143.309 106.51 143.697 106.222 144.195 106.017C144.693 105.812 145.27 105.709 145.924 105.709C146.886 105.709 147.64 105.917 148.187 106.332C148.739 106.742 149.081 107.293 149.212 107.987ZM150.428 114V105.812H152.354V114H150.428ZM151.395 104.662C151.087 104.662 150.824 104.559 150.604 104.354C150.384 104.149 150.274 103.902 150.274 103.614C150.274 103.321 150.384 103.072 150.604 102.867C150.824 102.662 151.087 102.56 151.395 102.56C151.698 102.56 151.959 102.662 152.179 102.867C152.398 103.072 152.508 103.319 152.508 103.607C152.508 103.9 152.398 104.149 152.179 104.354C151.959 104.559 151.698 104.662 151.395 104.662ZM157.328 117.237C156.288 117.237 155.47 117.035 154.874 116.629C154.278 116.229 153.895 115.743 153.724 115.172L155.453 114.747C155.531 114.908 155.646 115.067 155.797 115.223C155.948 115.384 156.151 115.516 156.405 115.619C156.659 115.726 156.979 115.78 157.364 115.78C157.911 115.78 158.363 115.646 158.719 115.377C159.081 115.113 159.261 114.681 159.261 114.081V112.535H159.151C159.059 112.73 158.917 112.933 158.727 113.143C158.536 113.348 158.285 113.524 157.972 113.67C157.665 113.812 157.274 113.883 156.8 113.883C156.175 113.883 155.606 113.734 155.094 113.436C154.586 113.138 154.181 112.694 153.878 112.103C153.58 111.512 153.431 110.772 153.431 109.884C153.431 108.985 153.58 108.226 153.878 107.606C154.181 106.986 154.588 106.515 155.101 106.192C155.614 105.87 156.185 105.709 156.815 105.709C157.293 105.709 157.689 105.79 158.001 105.951C158.314 106.112 158.563 106.307 158.749 106.537C158.934 106.761 159.078 106.971 159.181 107.167H159.283V105.812H161.166V114.132C161.166 114.83 161 115.409 160.667 115.868C160.335 116.327 159.879 116.668 159.298 116.893C158.722 117.123 158.065 117.237 157.328 117.237ZM157.342 112.367C157.958 112.367 158.431 112.147 158.763 111.708C159.1 111.263 159.269 110.65 159.269 109.869C159.269 109.352 159.195 108.9 159.049 108.514C158.902 108.128 158.685 107.828 158.397 107.613C158.109 107.398 157.757 107.291 157.342 107.291C156.913 107.291 156.554 107.403 156.266 107.628C155.978 107.853 155.76 108.16 155.614 108.551C155.472 108.937 155.401 109.376 155.401 109.869C155.401 110.367 155.475 110.804 155.621 111.18C155.768 111.556 155.985 111.849 156.273 112.059C156.566 112.264 156.922 112.367 157.342 112.367ZM164.513 109.21V114H162.586V105.812H164.476V107.21H164.571C164.757 106.751 165.047 106.388 165.443 106.119C165.843 105.846 166.351 105.709 166.966 105.709C167.533 105.709 168.026 105.829 168.446 106.068C168.866 106.307 169.19 106.659 169.42 107.123C169.654 107.582 169.771 108.138 169.771 108.792V114H167.845V109.093C167.845 108.546 167.704 108.119 167.42 107.811C167.137 107.499 166.747 107.342 166.249 107.342C165.912 107.342 165.611 107.416 165.348 107.562C165.089 107.708 164.884 107.921 164.732 108.199C164.586 108.473 164.513 108.81 164.513 109.21ZM176.415 110.565V105.812H178.341V114H176.473V112.542H176.385C176.2 113.001 175.897 113.377 175.477 113.67C175.057 113.963 174.54 114.107 173.924 114.103C173.387 114.103 172.914 113.985 172.503 113.751C172.098 113.512 171.778 113.163 171.544 112.704C171.314 112.24 171.2 111.681 171.2 111.026V105.812H173.126V110.733C173.126 111.246 173.268 111.656 173.551 111.964C173.839 112.271 174.215 112.423 174.679 112.418C174.962 112.418 175.235 112.35 175.499 112.213C175.768 112.076 175.987 111.871 176.158 111.598C176.329 111.324 176.415 110.98 176.415 110.565ZM179.769 117.062V105.812H181.659V107.167H181.776C181.874 106.971 182.013 106.761 182.193 106.537C182.374 106.307 182.618 106.112 182.926 105.951C183.238 105.79 183.636 105.709 184.12 105.709C184.75 105.709 185.318 105.87 185.826 106.192C186.334 106.515 186.737 106.988 187.035 107.613C187.337 108.238 187.489 109.007 187.489 109.92C187.489 110.819 187.342 111.583 187.049 112.213C186.756 112.843 186.354 113.324 185.841 113.656C185.333 113.983 184.757 114.146 184.112 114.146C183.648 114.146 183.26 114.068 182.948 113.912C182.64 113.751 182.391 113.561 182.201 113.341C182.015 113.116 181.874 112.904 181.776 112.704H181.695V117.062H179.769ZM183.585 112.564C184.01 112.564 184.364 112.45 184.647 112.22C184.935 111.991 185.152 111.676 185.299 111.275C185.445 110.875 185.519 110.421 185.519 109.913C185.519 109.405 185.445 108.954 185.299 108.558C185.152 108.163 184.938 107.853 184.654 107.628C184.371 107.403 184.015 107.291 183.585 107.291C183.17 107.291 182.818 107.398 182.53 107.613C182.247 107.828 182.03 108.133 181.878 108.529C181.732 108.919 181.659 109.381 181.659 109.913C181.659 110.44 181.732 110.904 181.878 111.305C182.03 111.7 182.25 112.01 182.538 112.235C182.826 112.455 183.175 112.564 183.585 112.564ZM195.802 105.812V107.306H191.107V105.812H195.802ZM192.257 103.863H194.183V111.539C194.183 111.861 194.254 112.101 194.396 112.257C194.537 112.408 194.762 112.484 195.069 112.484C195.152 112.484 195.245 112.477 195.348 112.462C195.45 112.447 195.543 112.43 195.626 112.411L195.956 113.919C195.75 113.983 195.543 114.029 195.333 114.059C195.123 114.093 194.913 114.11 194.703 114.11C193.941 114.11 193.343 113.91 192.909 113.509C192.474 113.104 192.257 112.552 192.257 111.854V103.863ZM200.343 114.161C199.542 114.161 198.849 113.985 198.263 113.634C197.677 113.282 197.223 112.789 196.9 112.154C196.583 111.52 196.424 110.782 196.424 109.942C196.424 109.098 196.583 108.358 196.9 107.723C197.223 107.083 197.677 106.588 198.263 106.236C198.849 105.885 199.542 105.709 200.343 105.709C201.144 105.709 201.837 105.885 202.423 106.236C203.009 106.588 203.463 107.083 203.785 107.723C204.107 108.358 204.269 109.098 204.269 109.942C204.269 110.782 204.107 111.52 203.785 112.154C203.463 112.789 203.009 113.282 202.423 113.634C201.837 113.985 201.144 114.161 200.343 114.161ZM200.343 112.608C200.787 112.608 201.153 112.491 201.441 112.257C201.729 112.018 201.944 111.695 202.086 111.29C202.232 110.885 202.306 110.436 202.306 109.942C202.306 109.439 202.232 108.985 202.086 108.58C201.944 108.175 201.729 107.855 201.441 107.621C201.153 107.381 200.787 107.262 200.343 107.262C199.908 107.262 199.544 107.381 199.251 107.621C198.958 107.855 198.739 108.175 198.592 108.58C198.451 108.985 198.38 109.439 198.38 109.942C198.38 110.436 198.451 110.885 198.592 111.29C198.739 111.695 198.958 112.018 199.251 112.257C199.544 112.491 199.908 112.608 200.343 112.608ZM210.553 103.087V114H208.575V103.087H210.553ZM213.98 109.21V114H212.054V105.812H213.944V107.21H214.039C214.225 106.751 214.515 106.388 214.911 106.119C215.311 105.846 215.819 105.709 216.434 105.709C217 105.709 217.494 105.829 217.914 106.068C218.333 106.307 218.658 106.659 218.888 107.123C219.122 107.582 219.239 108.138 219.239 108.792V114H217.313V109.093C217.313 108.546 217.171 108.119 216.888 107.811C216.605 107.499 216.214 107.342 215.716 107.342C215.379 107.342 215.079 107.416 214.815 107.562C214.557 107.708 214.352 107.921 214.2 108.199C214.054 108.473 213.98 108.81 213.98 109.21ZM224.747 105.812V107.306H220.052V105.812H224.747ZM221.202 103.863H223.128V111.539C223.128 111.861 223.199 112.101 223.341 112.257C223.482 112.408 223.707 112.484 224.015 112.484C224.098 112.484 224.19 112.477 224.293 112.462C224.396 112.447 224.488 112.43 224.571 112.411L224.901 113.919C224.696 113.983 224.488 114.029 224.278 114.059C224.068 114.093 223.858 114.11 223.648 114.11C222.887 114.11 222.289 113.91 221.854 113.509C221.419 113.104 221.202 112.552 221.202 111.854V103.863ZM229.347 114.161C228.526 114.161 227.818 113.99 227.223 113.648C226.627 113.302 226.168 112.813 225.846 112.184C225.528 111.554 225.37 110.812 225.37 109.957C225.37 109.112 225.528 108.373 225.846 107.738C226.163 107.098 226.61 106.6 227.186 106.244C227.762 105.887 228.441 105.709 229.222 105.709C229.725 105.709 230.201 105.79 230.65 105.951C231.104 106.112 231.505 106.361 231.852 106.698C232.203 107.035 232.479 107.464 232.679 107.987C232.879 108.504 232.979 109.122 232.979 109.84V110.44H226.271V109.144H232.02L231.119 109.525C231.119 109.061 231.048 108.658 230.907 108.316C230.765 107.97 230.555 107.699 230.277 107.503C229.999 107.308 229.652 107.21 229.237 107.21C228.822 107.21 228.468 107.308 228.175 107.503C227.882 107.699 227.66 107.962 227.508 108.294C227.357 108.622 227.281 108.988 227.281 109.393V110.294C227.281 110.792 227.367 111.219 227.538 111.576C227.713 111.927 227.958 112.196 228.27 112.381C228.587 112.567 228.956 112.66 229.376 112.66C229.649 112.66 229.898 112.621 230.123 112.542C230.353 112.464 230.548 112.347 230.709 112.191C230.875 112.03 231.002 111.832 231.09 111.598L232.892 111.81C232.774 112.284 232.557 112.699 232.24 113.055C231.927 113.407 231.524 113.68 231.031 113.875C230.543 114.066 229.981 114.161 229.347 114.161ZM234.027 114V105.812H235.895V107.188H235.982C236.129 106.71 236.385 106.344 236.751 106.09C237.118 105.831 237.535 105.702 238.004 105.702C238.106 105.702 238.224 105.707 238.355 105.716C238.492 105.726 238.604 105.738 238.692 105.753V107.525C238.609 107.496 238.48 107.472 238.304 107.452C238.128 107.433 237.96 107.423 237.799 107.423C237.442 107.423 237.125 107.499 236.847 107.65C236.568 107.801 236.349 108.009 236.188 108.272C236.031 108.536 235.953 108.844 235.953 109.195V114H234.027ZM242.647 114.161C241.832 114.161 241.131 113.983 240.545 113.626C239.959 113.265 239.51 112.767 239.198 112.132C238.885 111.498 238.729 110.768 238.729 109.942C238.729 109.107 238.888 108.373 239.205 107.738C239.522 107.103 239.974 106.607 240.56 106.251C241.146 105.89 241.837 105.709 242.633 105.709C243.302 105.709 243.893 105.831 244.405 106.075C244.918 106.319 245.326 106.664 245.628 107.108C245.936 107.547 246.112 108.062 246.156 108.653H244.31C244.261 108.39 244.166 108.153 244.024 107.943C243.883 107.733 243.697 107.567 243.468 107.445C243.243 107.323 242.975 107.262 242.662 107.262C242.267 107.262 241.92 107.369 241.622 107.584C241.329 107.794 241.1 108.097 240.934 108.492C240.768 108.888 240.685 109.361 240.685 109.913C240.685 110.47 240.765 110.951 240.926 111.356C241.087 111.756 241.317 112.066 241.615 112.286C241.913 112.501 242.262 112.608 242.662 112.608C243.087 112.608 243.446 112.484 243.739 112.235C244.037 111.986 244.227 111.642 244.31 111.202H246.156C246.112 111.783 245.941 112.296 245.643 112.74C245.345 113.185 244.942 113.534 244.435 113.788C243.927 114.037 243.331 114.161 242.647 114.161ZM250.763 114.161C249.962 114.161 249.269 113.985 248.683 113.634C248.097 113.282 247.643 112.789 247.32 112.154C247.003 111.52 246.844 110.782 246.844 109.942C246.844 109.098 247.003 108.358 247.32 107.723C247.643 107.083 248.097 106.588 248.683 106.236C249.269 105.885 249.962 105.709 250.763 105.709C251.563 105.709 252.257 105.885 252.843 106.236C253.429 106.588 253.883 107.083 254.205 107.723C254.527 108.358 254.688 109.098 254.688 109.942C254.688 110.782 254.527 111.52 254.205 112.154C253.883 112.789 253.429 113.282 252.843 113.634C252.257 113.985 251.563 114.161 250.763 114.161ZM250.763 112.608C251.207 112.608 251.573 112.491 251.861 112.257C252.149 112.018 252.364 111.695 252.506 111.29C252.652 110.885 252.726 110.436 252.726 109.942C252.726 109.439 252.652 108.985 252.506 108.58C252.364 108.175 252.149 107.855 251.861 107.621C251.573 107.381 251.207 107.262 250.763 107.262C250.328 107.262 249.964 107.381 249.671 107.621C249.378 107.855 249.159 108.175 249.012 108.58C248.871 108.985 248.8 109.439 248.8 109.942C248.8 110.436 248.871 110.885 249.012 111.29C249.159 111.695 249.378 112.018 249.671 112.257C249.964 112.491 250.328 112.608 250.763 112.608ZM255.75 114V105.812H257.589V107.21H257.691C257.862 106.742 258.146 106.375 258.541 106.112C258.937 105.843 259.405 105.709 259.947 105.709C260.504 105.709 260.973 105.843 261.354 106.112C261.734 106.38 262 106.747 262.152 107.21H262.24C262.425 106.756 262.733 106.393 263.163 106.119C263.592 105.846 264.105 105.709 264.701 105.709C265.453 105.709 266.065 105.948 266.539 106.427C267.018 106.9 267.257 107.594 267.257 108.507V114H265.323V108.8C265.323 108.297 265.187 107.928 264.913 107.694C264.645 107.455 264.315 107.335 263.924 107.335C263.46 107.335 263.099 107.481 262.84 107.774C262.582 108.062 262.452 108.434 262.452 108.888V114H260.548V108.727C260.548 108.302 260.423 107.965 260.174 107.716C259.925 107.462 259.596 107.335 259.186 107.335C258.907 107.335 258.653 107.406 258.424 107.547C258.194 107.689 258.011 107.887 257.875 108.141C257.743 108.395 257.677 108.688 257.677 109.02V114H255.75Z" fill="white"/>
<path d="M104.791 189V178.087H108.885C109.725 178.087 110.428 178.243 110.995 178.556C111.566 178.868 111.998 179.298 112.291 179.845C112.584 180.392 112.73 181.012 112.73 181.705C112.73 182.403 112.582 183.026 112.284 183.573C111.991 184.115 111.556 184.542 110.98 184.854C110.404 185.162 109.696 185.316 108.856 185.316H106.146V183.69H108.585C109.078 183.69 109.481 183.607 109.793 183.441C110.111 183.27 110.343 183.036 110.489 182.738C110.641 182.435 110.716 182.091 110.716 181.705C110.716 181.314 110.641 180.973 110.489 180.68C110.343 180.382 110.111 180.152 109.793 179.991C109.481 179.825 109.076 179.742 108.578 179.742H106.769V189H104.791ZM113.807 189V180.812H115.675V182.188H115.763C115.909 181.71 116.166 181.344 116.532 181.09C116.898 180.831 117.315 180.702 117.784 180.702C117.887 180.702 118.004 180.707 118.136 180.716C118.272 180.726 118.385 180.738 118.473 180.753V182.525C118.39 182.496 118.26 182.472 118.084 182.452C117.909 182.433 117.74 182.423 117.579 182.423C117.223 182.423 116.905 182.499 116.627 182.65C116.349 182.801 116.129 183.009 115.968 183.272C115.812 183.536 115.733 183.844 115.733 184.195V189H113.807ZM122.428 189.161C121.627 189.161 120.934 188.985 120.348 188.634C119.762 188.282 119.308 187.789 118.985 187.154C118.668 186.52 118.509 185.782 118.509 184.942C118.509 184.098 118.668 183.358 118.985 182.723C119.308 182.083 119.762 181.588 120.348 181.236C120.934 180.885 121.627 180.709 122.428 180.709C123.229 180.709 123.922 180.885 124.508 181.236C125.094 181.588 125.548 182.083 125.87 182.723C126.192 183.358 126.354 184.098 126.354 184.942C126.354 185.782 126.192 186.52 125.87 187.154C125.548 187.789 125.094 188.282 124.508 188.634C123.922 188.985 123.229 189.161 122.428 189.161ZM122.428 187.608C122.872 187.608 123.238 187.491 123.526 187.257C123.814 187.018 124.029 186.695 124.171 186.29C124.317 185.885 124.391 185.436 124.391 184.942C124.391 184.439 124.317 183.985 124.171 183.58C124.029 183.175 123.814 182.855 123.526 182.621C123.238 182.381 122.872 182.262 122.428 182.262C121.993 182.262 121.629 182.381 121.336 182.621C121.043 182.855 120.824 183.175 120.677 183.58C120.536 183.985 120.465 184.439 120.465 184.942C120.465 185.436 120.536 185.885 120.677 186.29C120.824 186.695 121.043 187.018 121.336 187.257C121.629 187.491 121.993 187.608 122.428 187.608ZM130.433 189.146C129.793 189.146 129.217 188.983 128.705 188.656C128.197 188.324 127.796 187.843 127.503 187.213C127.21 186.583 127.064 185.819 127.064 184.92C127.064 184.007 127.213 183.238 127.511 182.613C127.813 181.988 128.219 181.515 128.727 181.192C129.234 180.87 129.803 180.709 130.433 180.709C130.917 180.709 131.312 180.79 131.62 180.951C131.927 181.112 132.171 181.307 132.352 181.537C132.538 181.761 132.679 181.971 132.777 182.167H132.857V178.087H134.776V189H132.894V187.704H132.777C132.674 187.904 132.53 188.116 132.345 188.341C132.159 188.561 131.913 188.751 131.605 188.912C131.297 189.068 130.907 189.146 130.433 189.146ZM130.968 187.564C131.378 187.564 131.725 187.455 132.008 187.235C132.296 187.01 132.516 186.7 132.667 186.305C132.818 185.904 132.894 185.44 132.894 184.913C132.894 184.381 132.818 183.919 132.667 183.529C132.521 183.133 132.303 182.828 132.015 182.613C131.732 182.398 131.383 182.291 130.968 182.291C130.543 182.291 130.187 182.403 129.898 182.628C129.61 182.853 129.393 183.163 129.247 183.558C129.105 183.954 129.034 184.405 129.034 184.913C129.034 185.421 129.107 185.875 129.254 186.275C129.4 186.676 129.615 186.991 129.898 187.22C130.187 187.45 130.543 187.564 130.968 187.564ZM141.419 185.565V180.812H143.346V189H141.478V187.542H141.39C141.205 188.001 140.902 188.377 140.482 188.67C140.062 188.963 139.544 189.107 138.929 189.103C138.392 189.103 137.918 188.985 137.508 188.751C137.103 188.512 136.783 188.163 136.549 187.704C136.319 187.24 136.205 186.681 136.205 186.026V180.812H138.131V185.733C138.131 186.246 138.272 186.656 138.556 186.964C138.844 187.271 139.22 187.423 139.684 187.418C139.967 187.418 140.24 187.35 140.504 187.213C140.772 187.076 140.992 186.871 141.163 186.598C141.334 186.324 141.419 185.98 141.419 185.565ZM148.341 189.161C147.525 189.161 146.825 188.983 146.239 188.626C145.653 188.265 145.204 187.767 144.891 187.132C144.579 186.498 144.422 185.768 144.422 184.942C144.422 184.107 144.581 183.373 144.898 182.738C145.216 182.103 145.667 181.607 146.253 181.251C146.839 180.89 147.53 180.709 148.326 180.709C148.995 180.709 149.586 180.831 150.099 181.075C150.611 181.319 151.019 181.664 151.322 182.108C151.629 182.547 151.805 183.062 151.849 183.653H150.003C149.955 183.39 149.859 183.153 149.718 182.943C149.576 182.733 149.391 182.567 149.161 182.445C148.937 182.323 148.668 182.262 148.355 182.262C147.96 182.262 147.613 182.369 147.315 182.584C147.022 182.794 146.793 183.097 146.627 183.492C146.461 183.888 146.378 184.361 146.378 184.913C146.378 185.47 146.458 185.951 146.62 186.356C146.781 186.756 147.01 187.066 147.308 187.286C147.606 187.501 147.955 187.608 148.355 187.608C148.78 187.608 149.139 187.484 149.432 187.235C149.73 186.986 149.92 186.642 150.003 186.202H151.849C151.805 186.783 151.634 187.296 151.336 187.74C151.039 188.185 150.636 188.534 150.128 188.788C149.62 189.037 149.024 189.161 148.341 189.161ZM156.969 180.812V182.306H152.274V180.812H156.969ZM153.424 178.863H155.35V186.539C155.35 186.861 155.421 187.101 155.562 187.257C155.704 187.408 155.929 187.484 156.236 187.484C156.319 187.484 156.412 187.477 156.515 187.462C156.617 187.447 156.71 187.43 156.793 187.411L157.123 188.919C156.917 188.983 156.71 189.029 156.5 189.059C156.29 189.093 156.08 189.11 155.87 189.11C155.108 189.11 154.51 188.91 154.076 188.509C153.641 188.104 153.424 187.552 153.424 186.854V178.863ZM162.682 189H160.565L164.417 178.087H166.849L170.694 189H168.585L165.67 180.328H165.582L162.682 189ZM162.755 184.723H168.504V186.305H162.755V184.723ZM173.419 184.21V189H171.493V180.812H173.382V182.21H173.478C173.663 181.751 173.954 181.388 174.349 181.119C174.75 180.846 175.257 180.709 175.873 180.709C176.439 180.709 176.932 180.829 177.352 181.068C177.772 181.307 178.097 181.659 178.326 182.123C178.561 182.582 178.678 183.138 178.678 183.792V189H176.751V184.093C176.751 183.546 176.61 183.119 176.327 182.811C176.043 182.499 175.653 182.342 175.155 182.342C174.818 182.342 174.518 182.416 174.254 182.562C173.995 182.708 173.79 182.921 173.639 183.199C173.492 183.473 173.419 183.81 173.419 184.21ZM182.464 189.168C181.942 189.168 181.473 189.076 181.058 188.89C180.643 188.7 180.316 188.421 180.077 188.055C179.837 187.689 179.718 187.237 179.718 186.7C179.718 186.241 179.803 185.86 179.974 185.558C180.145 185.255 180.377 185.013 180.67 184.833C180.968 184.652 181.302 184.515 181.673 184.422C182.044 184.325 182.428 184.256 182.823 184.217C183.307 184.164 183.697 184.117 183.995 184.078C184.293 184.039 184.508 183.976 184.64 183.888C184.776 183.8 184.845 183.663 184.845 183.478V183.441C184.845 183.045 184.728 182.738 184.493 182.518C184.259 182.298 183.917 182.188 183.468 182.188C182.994 182.188 182.618 182.291 182.34 182.496C182.066 182.701 181.881 182.943 181.783 183.221L179.989 182.965C180.13 182.467 180.365 182.052 180.692 181.72C181.019 181.383 181.417 181.131 181.886 180.965C182.359 180.794 182.882 180.709 183.453 180.709C183.844 180.709 184.234 180.755 184.625 180.848C185.016 180.936 185.375 181.087 185.702 181.302C186.029 181.517 186.29 181.805 186.485 182.167C186.681 182.528 186.778 182.979 186.778 183.521V189H184.925V187.872H184.867C184.75 188.097 184.583 188.309 184.369 188.509C184.159 188.705 183.895 188.863 183.578 188.985C183.265 189.107 182.894 189.168 182.464 189.168ZM182.955 187.748C183.346 187.748 183.683 187.672 183.966 187.521C184.249 187.364 184.469 187.159 184.625 186.905C184.781 186.646 184.859 186.366 184.859 186.063V185.104C184.796 185.152 184.693 185.199 184.552 185.243C184.41 185.282 184.249 185.318 184.068 185.353C183.888 185.387 183.709 185.416 183.534 185.44C183.363 185.465 183.214 185.484 183.087 185.499C182.799 185.538 182.54 185.604 182.311 185.697C182.086 185.785 181.908 185.907 181.776 186.063C181.644 186.219 181.578 186.422 181.578 186.671C181.578 187.027 181.708 187.296 181.966 187.477C182.225 187.657 182.555 187.748 182.955 187.748ZM190.133 178.087V189H188.207V178.087H190.133ZM192.762 192.062C192.499 192.066 192.254 192.047 192.03 192.003C191.81 191.964 191.632 191.917 191.495 191.864L191.949 190.362L192.044 190.392C192.435 190.494 192.767 190.501 193.041 190.414C193.319 190.326 193.541 190.06 193.707 189.615L193.868 189.176L190.909 180.812H192.953L194.835 187H194.923L196.812 180.812H198.871L195.589 189.989C195.438 190.423 195.238 190.794 194.989 191.102C194.74 191.415 194.432 191.651 194.066 191.812C193.7 191.979 193.265 192.062 192.762 192.062ZM203.727 180.812V182.306H199.032V180.812H203.727ZM200.182 178.863H202.108V186.539C202.108 186.861 202.179 187.101 202.32 187.257C202.462 187.408 202.687 187.484 202.994 187.484C203.077 187.484 203.17 187.477 203.272 187.462C203.375 187.447 203.468 187.43 203.551 187.411L203.88 188.919C203.675 188.983 203.468 189.029 203.258 189.059C203.048 189.093 202.838 189.11 202.628 189.11C201.866 189.11 201.268 188.91 200.833 188.509C200.399 188.104 200.182 187.552 200.182 186.854V178.863ZM204.789 189V180.812H206.715V189H204.789ZM205.755 179.662C205.448 179.662 205.184 179.559 204.964 179.354C204.745 179.149 204.635 178.902 204.635 178.614C204.635 178.321 204.745 178.072 204.964 177.867C205.184 177.662 205.448 177.56 205.755 177.56C206.058 177.56 206.319 177.662 206.539 177.867C206.759 178.072 206.869 178.319 206.869 178.607C206.869 178.9 206.759 179.149 206.539 179.354C206.319 179.559 206.058 179.662 205.755 179.662ZM211.71 189.161C210.895 189.161 210.194 188.983 209.608 188.626C209.022 188.265 208.573 187.767 208.26 187.132C207.948 186.498 207.792 185.768 207.792 184.942C207.792 184.107 207.95 183.373 208.268 182.738C208.585 182.103 209.037 181.607 209.623 181.251C210.208 180.89 210.899 180.709 211.695 180.709C212.364 180.709 212.955 180.831 213.468 181.075C213.98 181.319 214.388 181.664 214.691 182.108C214.999 182.547 215.174 183.062 215.218 183.653H213.373C213.324 183.39 213.229 183.153 213.087 182.943C212.945 182.733 212.76 182.567 212.53 182.445C212.306 182.323 212.037 182.262 211.725 182.262C211.329 182.262 210.982 182.369 210.685 182.584C210.392 182.794 210.162 183.097 209.996 183.492C209.83 183.888 209.747 184.361 209.747 184.913C209.747 185.47 209.828 185.951 209.989 186.356C210.15 186.756 210.379 187.066 210.677 187.286C210.975 187.501 211.324 187.608 211.725 187.608C212.149 187.608 212.508 187.484 212.801 187.235C213.099 186.986 213.29 186.642 213.373 186.202H215.218C215.174 186.783 215.003 187.296 214.706 187.74C214.408 188.185 214.005 188.534 213.497 188.788C212.989 189.037 212.394 189.161 211.71 189.161ZM222.718 182.987L220.968 183.17C220.895 182.901 220.736 182.665 220.492 182.459C220.248 182.25 219.903 182.145 219.459 182.145C219.059 182.145 218.722 182.232 218.448 182.408C218.18 182.584 218.045 182.809 218.045 183.082C218.045 183.321 218.133 183.519 218.309 183.675C218.49 183.827 218.788 183.949 219.203 184.042L220.602 184.334C221.368 184.496 221.942 184.759 222.323 185.125C222.704 185.492 222.894 185.965 222.894 186.546C222.894 187.059 222.745 187.513 222.447 187.909C222.149 188.304 221.737 188.612 221.209 188.832C220.687 189.051 220.084 189.161 219.4 189.161C218.399 189.161 217.594 188.951 216.983 188.531C216.378 188.106 216.014 187.518 215.892 186.766L217.774 186.59C217.857 186.957 218.038 187.235 218.316 187.425C218.6 187.611 218.961 187.704 219.4 187.704C219.859 187.704 220.228 187.611 220.506 187.425C220.785 187.235 220.924 187.003 220.924 186.729C220.924 186.271 220.558 185.958 219.825 185.792L218.426 185.499C217.64 185.328 217.059 185.052 216.683 184.671C216.307 184.286 216.119 183.795 216.119 183.199C216.119 182.691 216.258 182.252 216.537 181.881C216.815 181.51 217.203 181.222 217.701 181.017C218.199 180.812 218.775 180.709 219.43 180.709C220.392 180.709 221.146 180.917 221.693 181.332C222.245 181.742 222.586 182.293 222.718 182.987ZM225.34 189.125C225.008 189.125 224.728 189.012 224.498 188.788C224.273 188.558 224.161 188.28 224.161 187.953C224.161 187.625 224.273 187.35 224.498 187.125C224.728 186.896 225.008 186.781 225.34 186.781C225.672 186.781 225.951 186.896 226.175 187.125C226.405 187.35 226.52 187.625 226.52 187.953C226.52 188.28 226.405 188.558 226.175 188.788C225.951 189.012 225.672 189.125 225.34 189.125ZM225.34 183.565C225.008 183.565 224.728 183.453 224.498 183.229C224.273 182.999 224.161 182.721 224.161 182.394C224.161 182.066 224.273 181.791 224.498 181.566C224.728 181.336 225.008 181.222 225.34 181.222C225.672 181.222 225.951 181.336 226.175 181.566C226.405 181.791 226.52 182.066 226.52 182.394C226.52 182.721 226.405 182.999 226.175 183.229C225.951 183.453 225.672 183.565 225.34 183.565ZM240.392 178.087V189H238.619L233.485 181.566H233.39V189H231.412V178.087H233.185L238.319 185.521H238.414V178.087H240.392ZM245.519 189.161C244.698 189.161 243.99 188.99 243.395 188.648C242.799 188.302 242.34 187.813 242.018 187.184C241.7 186.554 241.542 185.812 241.542 184.957C241.542 184.112 241.7 183.373 242.018 182.738C242.335 182.098 242.782 181.6 243.358 181.244C243.934 180.887 244.613 180.709 245.394 180.709C245.897 180.709 246.373 180.79 246.822 180.951C247.276 181.112 247.677 181.361 248.023 181.698C248.375 182.035 248.651 182.464 248.851 182.987C249.051 183.504 249.151 184.122 249.151 184.84V185.44H242.442V184.144H248.192L247.291 184.525C247.291 184.061 247.22 183.658 247.079 183.316C246.937 182.97 246.727 182.699 246.449 182.503C246.17 182.308 245.824 182.21 245.409 182.21C244.994 182.21 244.64 182.308 244.347 182.503C244.054 182.699 243.832 182.962 243.68 183.294C243.529 183.622 243.453 183.988 243.453 184.393V185.294C243.453 185.792 243.539 186.219 243.709 186.576C243.885 186.927 244.129 187.196 244.442 187.381C244.759 187.567 245.128 187.66 245.548 187.66C245.821 187.66 246.07 187.621 246.295 187.542C246.524 187.464 246.72 187.347 246.881 187.191C247.047 187.03 247.174 186.832 247.262 186.598L249.063 186.81C248.946 187.284 248.729 187.699 248.412 188.055C248.099 188.407 247.696 188.68 247.203 188.875C246.715 189.066 246.153 189.161 245.519 189.161ZM251.656 189L249.342 180.812H251.305L252.748 186.568H252.821L254.293 180.812H256.234L257.706 186.546H257.779L259.2 180.812H261.17L258.856 189H256.842L255.304 183.47H255.201L253.663 189H251.656ZM269.059 189.168C268.209 189.168 267.472 189.037 266.847 188.773C266.222 188.509 265.733 188.126 265.382 187.623C265.03 187.115 264.84 186.5 264.811 185.777H266.759C266.788 186.158 266.905 186.476 267.11 186.729C267.315 186.979 267.584 187.167 267.916 187.293C268.253 187.42 268.626 187.484 269.037 187.484C269.466 187.484 269.845 187.418 270.172 187.286C270.499 187.154 270.755 186.971 270.941 186.737C271.126 186.502 271.219 186.229 271.219 185.917C271.219 185.633 271.136 185.401 270.97 185.221C270.804 185.035 270.575 184.879 270.282 184.752C269.989 184.625 269.645 184.513 269.249 184.415L268.011 184.093C267.113 183.863 266.405 183.514 265.887 183.045C265.37 182.572 265.111 181.942 265.111 181.156C265.111 180.511 265.284 179.95 265.631 179.471C265.978 178.988 266.451 178.612 267.052 178.343C267.657 178.075 268.341 177.94 269.103 177.94C269.879 177.94 270.56 178.075 271.146 178.343C271.732 178.612 272.191 178.983 272.523 179.457C272.855 179.93 273.028 180.475 273.043 181.09H271.131C271.083 180.621 270.875 180.26 270.509 180.006C270.147 179.747 269.671 179.618 269.081 179.618C268.67 179.618 268.316 179.679 268.019 179.801C267.726 179.923 267.501 180.091 267.345 180.306C267.188 180.521 267.11 180.765 267.11 181.039C267.11 181.341 267.201 181.59 267.381 181.786C267.567 181.976 267.801 182.13 268.084 182.247C268.373 182.364 268.666 182.462 268.963 182.54L269.981 182.796C270.392 182.894 270.787 183.026 271.168 183.192C271.549 183.353 271.891 183.558 272.193 183.807C272.501 184.051 272.743 184.349 272.918 184.701C273.099 185.052 273.189 185.465 273.189 185.938C273.189 186.573 273.026 187.135 272.699 187.623C272.372 188.106 271.9 188.485 271.285 188.758C270.67 189.032 269.928 189.168 269.059 189.168ZM274.295 189V180.812H276.222V189H274.295ZM275.262 179.662C274.955 179.662 274.691 179.559 274.471 179.354C274.251 179.149 274.142 178.902 274.142 178.614C274.142 178.321 274.251 178.072 274.471 177.867C274.691 177.662 274.955 177.56 275.262 177.56C275.565 177.56 275.826 177.662 276.046 177.867C276.266 178.072 276.375 178.319 276.375 178.607C276.375 178.9 276.266 179.149 276.046 179.354C275.826 179.559 275.565 179.662 275.262 179.662ZM281.195 192.237C280.155 192.237 279.337 192.035 278.741 191.629C278.146 191.229 277.762 190.743 277.591 190.172L279.32 189.747C279.398 189.908 279.513 190.067 279.664 190.223C279.815 190.384 280.018 190.516 280.272 190.619C280.526 190.726 280.846 190.78 281.231 190.78C281.778 190.78 282.23 190.646 282.586 190.377C282.948 190.113 283.128 189.681 283.128 189.081V187.535H283.019C282.926 187.73 282.784 187.933 282.594 188.143C282.403 188.348 282.152 188.524 281.839 188.67C281.532 188.812 281.141 188.883 280.667 188.883C280.042 188.883 279.474 188.734 278.961 188.436C278.453 188.138 278.048 187.694 277.745 187.103C277.447 186.512 277.298 185.772 277.298 184.884C277.298 183.985 277.447 183.226 277.745 182.606C278.048 181.986 278.456 181.515 278.968 181.192C279.481 180.87 280.052 180.709 280.682 180.709C281.161 180.709 281.556 180.79 281.869 180.951C282.181 181.112 282.43 181.307 282.616 181.537C282.801 181.761 282.945 181.971 283.048 182.167H283.15V180.812H285.033V189.132C285.033 189.83 284.867 190.409 284.535 190.868C284.203 191.327 283.746 191.668 283.165 191.893C282.589 192.123 281.932 192.237 281.195 192.237ZM281.209 187.367C281.825 187.367 282.298 187.147 282.63 186.708C282.967 186.263 283.136 185.65 283.136 184.869C283.136 184.352 283.062 183.9 282.916 183.514C282.77 183.128 282.552 182.828 282.264 182.613C281.976 182.398 281.625 182.291 281.209 182.291C280.78 182.291 280.421 182.403 280.133 182.628C279.845 182.853 279.627 183.16 279.481 183.551C279.339 183.937 279.269 184.376 279.269 184.869C279.269 185.367 279.342 185.804 279.488 186.18C279.635 186.556 279.852 186.849 280.14 187.059C280.433 187.264 280.79 187.367 281.209 187.367ZM288.38 184.21V189H286.454V180.812H288.343V182.21H288.438C288.624 181.751 288.915 181.388 289.31 181.119C289.71 180.846 290.218 180.709 290.833 180.709C291.4 180.709 291.893 180.829 292.313 181.068C292.733 181.307 293.058 181.659 293.287 182.123C293.521 182.582 293.639 183.138 293.639 183.792V189H291.712V184.093C291.712 183.546 291.571 183.119 291.288 182.811C291.004 182.499 290.614 182.342 290.116 182.342C289.779 182.342 289.479 182.416 289.215 182.562C288.956 182.708 288.751 182.921 288.6 183.199C288.453 183.473 288.38 183.81 288.38 184.21ZM300.282 185.565V180.812H302.208V189H300.34V187.542H300.252C300.067 188.001 299.764 188.377 299.344 188.67C298.924 188.963 298.407 189.107 297.792 189.103C297.254 189.103 296.781 188.985 296.371 188.751C295.965 188.512 295.646 188.163 295.411 187.704C295.182 187.24 295.067 186.681 295.067 186.026V180.812H296.993V185.733C296.993 186.246 297.135 186.656 297.418 186.964C297.706 187.271 298.082 187.423 298.546 187.418C298.829 187.418 299.103 187.35 299.366 187.213C299.635 187.076 299.854 186.871 300.025 186.598C300.196 186.324 300.282 185.98 300.282 185.565ZM303.636 192.062V180.812H305.526V182.167H305.643C305.741 181.971 305.88 181.761 306.061 181.537C306.241 181.307 306.485 181.112 306.793 180.951C307.105 180.79 307.503 180.709 307.987 180.709C308.617 180.709 309.186 180.87 309.693 181.192C310.201 181.515 310.604 181.988 310.902 182.613C311.205 183.238 311.356 184.007 311.356 184.92C311.356 185.819 311.209 186.583 310.917 187.213C310.624 187.843 310.221 188.324 309.708 188.656C309.2 188.983 308.624 189.146 307.979 189.146C307.516 189.146 307.127 189.068 306.815 188.912C306.507 188.751 306.258 188.561 306.068 188.341C305.882 188.116 305.741 187.904 305.643 187.704H305.562V192.062H303.636ZM307.452 187.564C307.877 187.564 308.231 187.45 308.514 187.22C308.802 186.991 309.02 186.676 309.166 186.275C309.312 185.875 309.386 185.421 309.386 184.913C309.386 184.405 309.312 183.954 309.166 183.558C309.02 183.163 308.805 182.853 308.521 182.628C308.238 182.403 307.882 182.291 307.452 182.291C307.037 182.291 306.686 182.398 306.397 182.613C306.114 182.828 305.897 183.133 305.746 183.529C305.599 183.919 305.526 184.381 305.526 184.913C305.526 185.44 305.599 185.904 305.746 186.305C305.897 186.7 306.117 187.01 306.405 187.235C306.693 187.455 307.042 187.564 307.452 187.564Z" fill="white"/>
<path d="M74 129C79.5228 129 84 124.523 84 119C84 113.477 79.5228 109 74 109C68.4772 109 64 113.477 64 119C64 124.523 68.4772 129 74 129Z" fill="#14B8A6" stroke="#14B8A6"/>
<g filter="url(#filter0_d_1776_620)">
<path d="M79.1888 116.681C79.5405 116.317 79.5304 115.736 79.1662 115.384C78.802 115.033 78.2217 115.043 77.87 115.407L72.1388 121.342L70.1087 119.381C69.7445 119.03 69.1642 119.04 68.8125 119.404C68.4608 119.768 68.4709 120.349 68.8351 120.7L71.5247 123.298C71.8888 123.649 72.4692 123.639 72.8209 123.275L79.1888 116.681Z" fill="black"/>
</g>
<path d="M79.1888 116.681C79.5405 116.317 79.5304 115.736 79.1662 115.384C78.802 115.033 78.2217 115.043 77.87 115.407L72.1388 121.342L70.1087 119.381C69.7445 119.03 69.1642 119.04 68.8125 119.404C68.4608 119.768 68.4709 120.349 68.8351 120.7L71.5247 123.298C71.8888 123.649 72.4692 123.639 72.8209 123.275L79.1888 116.681Z" fill="white"/>
<path d="M74 204C79.5228 204 84 199.523 84 194C84 188.477 79.5228 184 74 184C68.4772 184 64 188.477 64 194C64 199.523 68.4772 204 74 204Z" fill="#14B8A6" stroke="#14B8A6"/>
<g filter="url(#filter1_d_1776_620)">
<path d="M79.1888 191.681C79.5405 191.317 79.5304 190.736 79.1662 190.384C78.802 190.033 78.2217 190.043 77.87 190.407L72.1388 196.342L70.1087 194.381C69.7445 194.03 69.1642 194.04 68.8125 194.404C68.4608 194.768 68.4709 195.349 68.8351 195.7L71.5247 198.298C71.8888 198.649 72.4692 198.639 72.8209 198.275L79.1888 191.681Z" fill="black"/>
</g>
<path d="M79.1888 191.681C79.5405 191.317 79.5304 190.736 79.1662 190.384C78.802 190.033 78.2217 190.043 77.87 190.407L72.1388 196.342L70.1087 194.381C69.7445 194.03 69.1642 194.04 68.8125 194.404C68.4608 194.768 68.4709 195.349 68.8351 195.7L71.5247 198.298C71.8888 198.649 72.4692 198.639 72.8209 198.275L79.1888 191.681Z" fill="white"/>
</g>
<defs>
<filter id="filter0_d_1776_620" x="68.5552" y="115.127" width="10.8911" height="9.42773" filterUnits="userSpaceOnUse" color-interpolation-filters="sRGB">
<feFlood flood-opacity="0" result="BackgroundImageFix"/>
<feColorMatrix in="SourceAlpha" type="matrix" values="0 0 0 0 0 0 0 0 0 0 0 0 0 0 0 0 0 0 127 0" result="hardAlpha"/>
<feOffset dy="1"/>
<feColorMatrix type="matrix" values="0 0 0 0 0 0 0 0 0 0 0 0 0 0 0 0 0 0 0.127185 0"/>
<feBlend mode="normal" in2="BackgroundImageFix" result="effect1_dropShadow_1776_620"/>
<feBlend mode="normal" in="SourceGraphic" in2="effect1_dropShadow_1776_620" result="shape"/>
</filter>
<filter id="filter1_d_1776_620" x="68.5552" y="190.127" width="10.8911" height="9.42773" filterUnits="userSpaceOnUse" color-interpolation-filters="sRGB">
<feFlood flood-opacity="0" result="BackgroundImageFix"/>
<feColorMatrix in="SourceAlpha" type="matrix" values="0 0 0 0 0 0 0 0 0 0 0 0 0 0 0 0 0 0 127 0" result="hardAlpha"/>
<feOffset dy="1"/>
<feColorMatrix type="matrix" values="0 0 0 0 0 0 0 0 0 0 0 0 0 0 0 0 0 0 0.127185 0"/>
<feBlend mode="normal" in2="BackgroundImageFix" result="effect1_dropShadow_1776_620"/>
<feBlend mode="normal" in="SourceGraphic" in2="effect1_dropShadow_1776_620" result="shape"/>
</filter>
<linearGradient id="paint0_linear_1776_620" x1="205" y1="0" x2="205" y2="70" gradientUnits="userSpaceOnUse">
<stop stop-color="white" stop-opacity="0.22"/>
<stop offset="1" stop-color="white" stop-opacity="0.02"/>
</linearGradient>
<linearGradient id="paint1_linear_1776_620" x1="210" y1="14" x2="210" y2="154" gradientUnits="userSpaceOnUse">
<stop stop-color="#193066"/>
<stop offset="1" stop-color="#0A101F"/>
</linearGradient>
<linearGradient id="paint2_linear_1776_620" x1="210" y1="84" x2="210" y2="154" gradientUnits="userSpaceOnUse">
<stop stop-color="white" stop-opacity="0.22"/>
<stop offset="1" stop-color="white" stop-opacity="0.02"/>
</linearGradient>
<linearGradient id="paint3_linear_1776_620" x1="210" y1="89" x2="210" y2="229" gradientUnits="userSpaceOnUse">
<stop stop-color="#18233F"/>
<stop offset="1" stop-color="#0A101F"/>
</linearGradient>
<linearGradient id="paint4_linear_1776_620" x1="210" y1="159" x2="210" y2="229" gradientUnits="userSpaceOnUse">
<stop stop-color="white" stop-opacity="0.22"/>
<stop offset="1" stop-color="white" stop-opacity="0.02"/>
</linearGradient>
</defs>
</svg>
