<svg width="1512" height="198" viewBox="0 0 1512 198" fill="none" xmlns="http://www.w3.org/2000/svg">
<path d="M-173 192H943.5C944.328 192 945 192.672 945 193.5V193.5C945 194.328 944.328 195 943.5 195H-173V192Z" fill="url(#paint0_linear_1776_623)"/>
<path d="M346.456 104.364C346.396 103.86 346.155 103.469 345.73 103.19C345.306 102.912 344.786 102.773 344.169 102.773C343.718 102.773 343.324 102.846 342.986 102.991C342.651 103.137 342.389 103.338 342.2 103.593C342.015 103.848 341.922 104.138 341.922 104.463C341.922 104.735 341.987 104.969 342.116 105.164C342.249 105.356 342.418 105.517 342.623 105.646C342.829 105.772 343.044 105.877 343.269 105.96C343.495 106.039 343.702 106.104 343.891 106.153L344.925 106.432C345.19 106.501 345.485 106.598 345.81 106.72C346.138 106.843 346.451 107.01 346.749 107.222C347.051 107.431 347.3 107.7 347.495 108.028C347.691 108.356 347.789 108.759 347.789 109.236C347.789 109.786 347.644 110.283 347.356 110.727C347.071 111.171 346.653 111.524 346.103 111.786C345.556 112.048 344.892 112.179 344.11 112.179C343.38 112.179 342.749 112.061 342.215 111.826C341.685 111.591 341.267 111.263 340.963 110.842C340.661 110.421 340.49 109.932 340.45 109.375H341.723C341.756 109.759 341.886 110.078 342.111 110.33C342.34 110.578 342.628 110.764 342.976 110.886C343.327 111.006 343.705 111.065 344.11 111.065C344.58 111.065 345.003 110.989 345.377 110.837C345.752 110.681 346.048 110.465 346.267 110.19C346.486 109.912 346.595 109.587 346.595 109.216C346.595 108.878 346.501 108.603 346.312 108.391C346.123 108.179 345.874 108.006 345.566 107.874C345.258 107.741 344.925 107.625 344.567 107.526L343.314 107.168C342.519 106.939 341.889 106.612 341.425 106.188C340.961 105.764 340.729 105.209 340.729 104.523C340.729 103.953 340.883 103.455 341.191 103.031C341.503 102.604 341.92 102.272 342.444 102.037C342.971 101.798 343.559 101.679 344.209 101.679C344.865 101.679 345.449 101.797 345.959 102.032C346.469 102.264 346.874 102.582 347.172 102.987C347.474 103.391 347.633 103.85 347.649 104.364H346.456ZM352.339 112.159C351.623 112.159 351.006 111.99 350.489 111.652C349.972 111.314 349.575 110.848 349.296 110.255C349.018 109.662 348.879 108.984 348.879 108.222C348.879 107.446 349.021 106.762 349.306 106.168C349.595 105.572 349.996 105.106 350.509 104.771C351.026 104.433 351.63 104.264 352.319 104.264C352.856 104.264 353.34 104.364 353.771 104.562C354.202 104.761 354.555 105.04 354.83 105.398C355.105 105.756 355.275 106.173 355.342 106.651H354.168C354.079 106.303 353.88 105.994 353.572 105.726C353.267 105.454 352.856 105.318 352.339 105.318C351.881 105.318 351.48 105.437 351.136 105.676C350.794 105.911 350.528 106.245 350.335 106.675C350.146 107.103 350.052 107.605 350.052 108.182C350.052 108.772 350.145 109.286 350.33 109.723C350.519 110.161 350.784 110.5 351.126 110.742C351.47 110.984 351.875 111.105 352.339 111.105C352.644 111.105 352.921 111.052 353.169 110.946C353.418 110.84 353.628 110.688 353.801 110.489C353.973 110.29 354.095 110.051 354.168 109.773H355.342C355.275 110.223 355.111 110.629 354.85 110.991C354.591 111.349 354.248 111.634 353.82 111.846C353.396 112.055 352.902 112.159 352.339 112.159ZM357.81 107.406V112H356.637V101.818H357.81V105.557H357.91C358.089 105.162 358.357 104.849 358.715 104.617C359.076 104.382 359.557 104.264 360.157 104.264C360.677 104.264 361.133 104.369 361.524 104.577C361.915 104.783 362.218 105.099 362.434 105.527C362.653 105.951 362.762 106.491 362.762 107.148V112H361.589V107.227C361.589 106.621 361.431 106.152 361.116 105.82C360.805 105.486 360.372 105.318 359.819 105.318C359.434 105.318 359.09 105.399 358.785 105.562C358.483 105.724 358.244 105.961 358.069 106.273C357.896 106.584 357.81 106.962 357.81 107.406ZM367.69 112.159C366.954 112.159 366.32 111.997 365.786 111.672C365.256 111.344 364.846 110.886 364.558 110.3C364.273 109.71 364.13 109.024 364.13 108.241C364.13 107.459 364.273 106.77 364.558 106.173C364.846 105.573 365.247 105.106 365.761 104.771C366.278 104.433 366.881 104.264 367.571 104.264C367.969 104.264 368.361 104.33 368.749 104.463C369.137 104.596 369.49 104.811 369.808 105.109C370.126 105.404 370.38 105.795 370.569 106.283C370.758 106.77 370.852 107.37 370.852 108.082V108.58H364.966V107.565H369.659C369.659 107.134 369.573 106.75 369.4 106.412C369.231 106.074 368.989 105.807 368.674 105.612C368.363 105.416 367.995 105.318 367.571 105.318C367.103 105.318 366.699 105.434 366.358 105.666C366.02 105.895 365.759 106.193 365.577 106.561C365.395 106.929 365.304 107.323 365.304 107.744V108.42C365.304 108.997 365.403 109.486 365.602 109.887C365.804 110.285 366.084 110.588 366.442 110.797C366.8 111.002 367.216 111.105 367.69 111.105C367.998 111.105 368.277 111.062 368.525 110.976C368.777 110.886 368.994 110.754 369.177 110.578C369.359 110.399 369.5 110.177 369.599 109.912L370.733 110.23C370.613 110.615 370.413 110.953 370.131 111.244C369.849 111.533 369.501 111.758 369.087 111.92C368.673 112.08 368.207 112.159 367.69 112.159ZM375.1 112.159C374.464 112.159 373.902 111.998 373.415 111.677C372.928 111.352 372.547 110.895 372.272 110.305C371.996 109.711 371.859 109.01 371.859 108.202C371.859 107.4 371.996 106.704 372.272 106.114C372.547 105.524 372.929 105.068 373.42 104.746C373.91 104.425 374.477 104.264 375.12 104.264C375.617 104.264 376.01 104.347 376.299 104.513C376.59 104.675 376.812 104.861 376.965 105.07C377.12 105.275 377.241 105.444 377.328 105.577H377.427V101.818H378.6V112H377.467V110.827H377.328C377.241 110.966 377.119 111.142 376.96 111.354C376.801 111.562 376.574 111.75 376.279 111.915C375.984 112.078 375.591 112.159 375.1 112.159ZM375.259 111.105C375.73 111.105 376.128 110.982 376.453 110.737C376.777 110.489 377.024 110.146 377.193 109.708C377.362 109.267 377.447 108.759 377.447 108.182C377.447 107.612 377.364 107.113 377.198 106.685C377.033 106.254 376.787 105.92 376.463 105.681C376.138 105.439 375.737 105.318 375.259 105.318C374.762 105.318 374.348 105.446 374.017 105.701C373.688 105.953 373.441 106.296 373.276 106.73C373.113 107.161 373.032 107.645 373.032 108.182C373.032 108.725 373.115 109.219 373.281 109.663C373.45 110.104 373.698 110.455 374.026 110.717C374.358 110.976 374.769 111.105 375.259 111.105ZM385.305 108.878V104.364H386.478V112H385.305V110.707H385.225C385.046 111.095 384.768 111.425 384.39 111.697C384.012 111.965 383.535 112.099 382.958 112.099C382.481 112.099 382.057 111.995 381.685 111.786C381.314 111.574 381.022 111.256 380.81 110.832C380.598 110.404 380.492 109.866 380.492 109.216V104.364H381.665V109.136C381.665 109.693 381.821 110.137 382.133 110.469C382.448 110.8 382.849 110.966 383.336 110.966C383.628 110.966 383.924 110.891 384.226 110.742C384.531 110.593 384.786 110.364 384.991 110.056C385.2 109.748 385.305 109.355 385.305 108.878ZM389.38 101.818V112H388.207V101.818H389.38ZM394.311 112.159C393.575 112.159 392.94 111.997 392.407 111.672C391.876 111.344 391.467 110.886 391.179 110.3C390.894 109.71 390.751 109.024 390.751 108.241C390.751 107.459 390.894 106.77 391.179 106.173C391.467 105.573 391.868 105.106 392.382 104.771C392.899 104.433 393.502 104.264 394.192 104.264C394.589 104.264 394.982 104.33 395.37 104.463C395.758 104.596 396.111 104.811 396.429 105.109C396.747 105.404 397.001 105.795 397.189 106.283C397.378 106.77 397.473 107.37 397.473 108.082V108.58H391.586V107.565H396.28C396.28 107.134 396.193 106.75 396.021 106.412C395.852 106.074 395.61 105.807 395.295 105.612C394.984 105.416 394.616 105.318 394.192 105.318C393.724 105.318 393.32 105.434 392.978 105.666C392.64 105.895 392.38 106.193 392.198 106.561C392.016 106.929 391.925 107.323 391.925 107.744V108.42C391.925 108.997 392.024 109.486 392.223 109.887C392.425 110.285 392.705 110.588 393.063 110.797C393.421 111.002 393.837 111.105 394.311 111.105C394.619 111.105 394.898 111.062 395.146 110.976C395.398 110.886 395.615 110.754 395.797 110.578C395.98 110.399 396.121 110.177 396.22 109.912L397.353 110.23C397.234 110.615 397.034 110.953 396.752 111.244C396.47 111.533 396.122 111.758 395.708 111.92C395.294 112.08 394.828 112.159 394.311 112.159ZM401.721 112.159C401.085 112.159 400.523 111.998 400.036 111.677C399.549 111.352 399.167 110.895 398.892 110.305C398.617 109.711 398.48 109.01 398.48 108.202C398.48 107.4 398.617 106.704 398.892 106.114C399.167 105.524 399.55 105.068 400.041 104.746C400.531 104.425 401.098 104.264 401.741 104.264C402.238 104.264 402.631 104.347 402.919 104.513C403.211 104.675 403.433 104.861 403.585 105.07C403.741 105.275 403.862 105.444 403.948 105.577H404.048V101.818H405.221V112H404.088V110.827H403.948C403.862 110.966 403.74 111.142 403.581 111.354C403.421 111.562 403.194 111.75 402.899 111.915C402.604 112.078 402.212 112.159 401.721 112.159ZM401.88 111.105C402.351 111.105 402.749 110.982 403.073 110.737C403.398 110.489 403.645 110.146 403.814 109.708C403.983 109.267 404.068 108.759 404.068 108.182C404.068 107.612 403.985 107.113 403.819 106.685C403.653 106.254 403.408 105.92 403.083 105.681C402.759 105.439 402.357 105.318 401.88 105.318C401.383 105.318 400.969 105.446 400.637 105.701C400.309 105.953 400.062 106.296 399.897 106.73C399.734 107.161 399.653 107.645 399.653 108.182C399.653 108.725 399.736 109.219 399.902 109.663C400.071 110.104 400.319 110.455 400.647 110.717C400.979 110.976 401.39 111.105 401.88 111.105ZM410.79 112V101.818H416.895V102.912H412.022V106.352H416.437V107.446H412.022V112H410.79ZM422.761 108.878V104.364H423.934V112H422.761V110.707H422.682C422.503 111.095 422.224 111.425 421.846 111.697C421.469 111.965 420.991 112.099 420.415 112.099C419.937 112.099 419.513 111.995 419.142 111.786C418.771 111.574 418.479 111.256 418.267 110.832C418.055 110.404 417.949 109.866 417.949 109.216V104.364H419.122V109.136C419.122 109.693 419.278 110.137 419.589 110.469C419.904 110.8 420.305 110.966 420.792 110.966C421.084 110.966 421.381 110.891 421.682 110.742C421.987 110.593 422.243 110.364 422.448 110.056C422.657 109.748 422.761 109.355 422.761 108.878ZM426.837 107.406V112H425.663V104.364H426.797V105.557H426.896C427.075 105.169 427.347 104.857 427.712 104.622C428.076 104.384 428.547 104.264 429.124 104.264C429.641 104.264 430.093 104.37 430.481 104.582C430.869 104.791 431.17 105.109 431.386 105.537C431.601 105.961 431.709 106.498 431.709 107.148V112H430.536V107.227C430.536 106.627 430.38 106.16 430.068 105.825C429.757 105.487 429.329 105.318 428.786 105.318C428.411 105.318 428.076 105.399 427.781 105.562C427.49 105.724 427.259 105.961 427.09 106.273C426.921 106.584 426.837 106.962 426.837 107.406ZM436.535 112.159C435.819 112.159 435.203 111.99 434.686 111.652C434.169 111.314 433.771 110.848 433.493 110.255C433.214 109.662 433.075 108.984 433.075 108.222C433.075 107.446 433.217 106.762 433.503 106.168C433.791 105.572 434.192 105.106 434.706 104.771C435.223 104.433 435.826 104.264 436.515 104.264C437.052 104.264 437.536 104.364 437.967 104.562C438.398 104.761 438.751 105.04 439.026 105.398C439.301 105.756 439.472 106.173 439.538 106.651H438.365C438.275 106.303 438.076 105.994 437.768 105.726C437.463 105.454 437.052 105.318 436.535 105.318C436.078 105.318 435.677 105.437 435.332 105.676C434.991 105.911 434.724 106.245 434.532 106.675C434.343 107.103 434.248 107.605 434.248 108.182C434.248 108.772 434.341 109.286 434.527 109.723C434.716 110.161 434.981 110.5 435.322 110.742C435.667 110.984 436.071 111.105 436.535 111.105C436.84 111.105 437.117 111.052 437.365 110.946C437.614 110.84 437.824 110.688 437.997 110.489C438.169 110.29 438.292 110.051 438.365 109.773H439.538C439.472 110.223 439.308 110.629 439.046 110.991C438.787 111.349 438.444 111.634 438.017 111.846C437.592 112.055 437.099 112.159 436.535 112.159ZM444.154 104.364V105.358H440.197V104.364H444.154ZM441.35 102.534H442.524V109.812C442.524 110.144 442.572 110.393 442.668 110.558C442.767 110.721 442.893 110.83 443.046 110.886C443.201 110.939 443.365 110.966 443.538 110.966C443.667 110.966 443.773 110.959 443.856 110.946C443.939 110.929 444.005 110.916 444.055 110.906L444.293 111.96C444.214 111.99 444.103 112.02 443.96 112.05C443.818 112.083 443.637 112.099 443.418 112.099C443.087 112.099 442.762 112.028 442.444 111.886C442.129 111.743 441.867 111.526 441.659 111.234C441.453 110.943 441.35 110.575 441.35 110.131V102.534ZM445.499 112V104.364H446.672V112H445.499ZM446.096 103.091C445.867 103.091 445.67 103.013 445.504 102.857C445.342 102.701 445.261 102.514 445.261 102.295C445.261 102.077 445.342 101.889 445.504 101.734C445.67 101.578 445.867 101.5 446.096 101.5C446.324 101.5 446.52 101.578 446.682 101.734C446.848 101.889 446.931 102.077 446.931 102.295C446.931 102.514 446.848 102.701 446.682 102.857C446.52 103.013 446.324 103.091 446.096 103.091ZM451.504 112.159C450.814 112.159 450.209 111.995 449.689 111.667C449.172 111.339 448.768 110.88 448.476 110.29C448.188 109.7 448.043 109.01 448.043 108.222C448.043 107.426 448.188 106.732 448.476 106.138C448.768 105.545 449.172 105.085 449.689 104.756C450.209 104.428 450.814 104.264 451.504 104.264C452.193 104.264 452.796 104.428 453.313 104.756C453.834 105.085 454.238 105.545 454.526 106.138C454.818 106.732 454.964 107.426 454.964 108.222C454.964 109.01 454.818 109.7 454.526 110.29C454.238 110.88 453.834 111.339 453.313 111.667C452.796 111.995 452.193 112.159 451.504 112.159ZM451.504 111.105C452.027 111.105 452.458 110.971 452.796 110.702C453.134 110.434 453.385 110.081 453.547 109.643C453.709 109.206 453.791 108.732 453.791 108.222C453.791 107.711 453.709 107.236 453.547 106.795C453.385 106.354 453.134 105.998 452.796 105.726C452.458 105.454 452.027 105.318 451.504 105.318C450.98 105.318 450.549 105.454 450.211 105.726C449.873 105.998 449.623 106.354 449.46 106.795C449.298 107.236 449.217 107.711 449.217 108.222C449.217 108.732 449.298 109.206 449.46 109.643C449.623 110.081 449.873 110.434 450.211 110.702C450.549 110.971 450.98 111.105 451.504 111.105ZM457.508 107.406V112H456.335V104.364H457.468V105.557H457.568C457.747 105.169 458.019 104.857 458.383 104.622C458.748 104.384 459.218 104.264 459.795 104.264C460.312 104.264 460.765 104.37 461.152 104.582C461.54 104.791 461.842 105.109 462.057 105.537C462.273 105.961 462.38 106.498 462.38 107.148V112H461.207V107.227C461.207 106.627 461.051 106.16 460.74 105.825C460.428 105.487 460.001 105.318 459.457 105.318C459.083 105.318 458.748 105.399 458.453 105.562C458.161 105.724 457.931 105.961 457.762 106.273C457.593 106.584 457.508 106.962 457.508 107.406ZM469.514 106.074L468.46 106.372C468.393 106.196 468.295 106.026 468.166 105.86C468.04 105.691 467.868 105.552 467.649 105.442C467.43 105.333 467.15 105.278 466.809 105.278C466.342 105.278 465.952 105.386 465.641 105.602C465.332 105.814 465.178 106.084 465.178 106.412C465.178 106.704 465.284 106.934 465.496 107.103C465.709 107.272 466.04 107.413 466.491 107.526L467.624 107.804C468.307 107.97 468.816 108.223 469.151 108.565C469.485 108.903 469.653 109.339 469.653 109.872C469.653 110.31 469.527 110.701 469.275 111.045C469.026 111.39 468.678 111.662 468.231 111.861C467.783 112.06 467.263 112.159 466.67 112.159C465.891 112.159 465.246 111.99 464.736 111.652C464.225 111.314 463.902 110.82 463.766 110.17L464.88 109.892C464.986 110.303 465.187 110.611 465.482 110.817C465.78 111.022 466.169 111.125 466.65 111.125C467.197 111.125 467.631 111.009 467.952 110.777C468.277 110.542 468.44 110.26 468.44 109.932C468.44 109.667 468.347 109.445 468.161 109.266C467.976 109.083 467.691 108.947 467.306 108.858L466.033 108.56C465.334 108.394 464.82 108.137 464.492 107.789C464.167 107.438 464.005 106.999 464.005 106.472C464.005 106.041 464.126 105.66 464.368 105.328C464.613 104.997 464.946 104.737 465.367 104.548C465.791 104.359 466.272 104.264 466.809 104.264C467.565 104.264 468.158 104.43 468.589 104.761C469.023 105.093 469.331 105.53 469.514 106.074Z" fill="#E0E7FF"/>
<circle cx="405" cy="141" r="9" fill="white"/>
<path fill-rule="evenodd" clip-rule="evenodd" d="M396 141C396 136.029 400.029 132 405 132C409.971 132 414 136.029 414 141C414 145.971 409.971 150 405 150C400.029 150 396 145.971 396 141ZM408.333 139.325C408.555 139.014 408.483 138.582 408.172 138.36C407.86 138.137 407.428 138.21 407.206 138.521L404.219 142.702L402.72 141.203C402.45 140.932 402.012 140.932 401.741 141.203C401.471 141.473 401.471 141.911 401.741 142.182L403.818 144.259C403.962 144.403 404.162 144.476 404.365 144.459C404.568 144.442 404.753 144.337 404.871 144.172L408.333 139.325Z" fill="#6366F1"/>
<circle cx="405" cy="141" r="12.5" stroke="#818CF8"/>
<path d="M926.724 125V114.818H930.283C930.993 114.818 931.578 114.941 932.038 115.186C932.499 115.428 932.842 115.754 933.067 116.165C933.293 116.573 933.406 117.026 933.406 117.523C933.406 117.96 933.328 118.321 933.172 118.607C933.019 118.892 932.817 119.117 932.565 119.283C932.317 119.448 932.047 119.571 931.755 119.651V119.75C932.067 119.77 932.38 119.879 932.695 120.078C933.009 120.277 933.273 120.562 933.485 120.933C933.697 121.304 933.803 121.759 933.803 122.295C933.803 122.806 933.687 123.265 933.455 123.673C933.223 124.08 932.857 124.403 932.357 124.642C931.856 124.881 931.205 125 930.403 125H926.724ZM927.957 123.906H930.403C931.208 123.906 931.78 123.75 932.118 123.439C932.459 123.124 932.63 122.743 932.63 122.295C932.63 121.951 932.542 121.633 932.366 121.341C932.191 121.046 931.941 120.811 931.616 120.635C931.291 120.456 930.906 120.366 930.462 120.366H927.957V123.906ZM927.957 119.293H930.244C930.615 119.293 930.95 119.22 931.248 119.074C931.549 118.928 931.788 118.723 931.964 118.457C932.143 118.192 932.232 117.881 932.232 117.523C932.232 117.075 932.076 116.696 931.765 116.384C931.453 116.069 930.96 115.912 930.283 115.912H927.957V119.293ZM937.497 125.179C937.013 125.179 936.574 125.088 936.18 124.906C935.785 124.72 935.472 124.453 935.24 124.105C935.008 123.754 934.892 123.33 934.892 122.832C934.892 122.395 934.978 122.04 935.151 121.768C935.323 121.493 935.553 121.278 935.842 121.122C936.13 120.966 936.448 120.85 936.796 120.774C937.148 120.695 937.501 120.632 937.855 120.585C938.319 120.526 938.695 120.481 938.984 120.451C939.275 120.418 939.488 120.363 939.62 120.287C939.756 120.211 939.824 120.078 939.824 119.889V119.849C939.824 119.359 939.69 118.978 939.421 118.706C939.156 118.434 938.753 118.298 938.213 118.298C937.653 118.298 937.214 118.421 936.896 118.666C936.578 118.911 936.354 119.173 936.225 119.452L935.111 119.054C935.31 118.59 935.575 118.229 935.906 117.97C936.241 117.708 936.606 117.526 937 117.423C937.398 117.317 937.789 117.264 938.173 117.264C938.419 117.264 938.7 117.294 939.019 117.354C939.34 117.41 939.65 117.528 939.948 117.707C940.25 117.886 940.5 118.156 940.699 118.517C940.898 118.878 940.997 119.362 940.997 119.969V125H939.824V123.966H939.764C939.685 124.132 939.552 124.309 939.367 124.498C939.181 124.687 938.934 124.848 938.626 124.98C938.318 125.113 937.941 125.179 937.497 125.179ZM937.676 124.125C938.14 124.125 938.531 124.034 938.85 123.852C939.171 123.669 939.413 123.434 939.575 123.146C939.741 122.857 939.824 122.554 939.824 122.236V121.162C939.774 121.222 939.665 121.276 939.496 121.326C939.33 121.372 939.138 121.414 938.919 121.45C938.704 121.483 938.493 121.513 938.288 121.54C938.086 121.563 937.922 121.583 937.796 121.599C937.491 121.639 937.206 121.704 936.94 121.793C936.679 121.879 936.466 122.01 936.304 122.186C936.145 122.358 936.065 122.594 936.065 122.892C936.065 123.3 936.216 123.608 936.518 123.817C936.823 124.022 937.209 124.125 937.676 124.125ZM945.821 125.159C945.105 125.159 944.489 124.99 943.972 124.652C943.455 124.314 943.057 123.848 942.778 123.255C942.5 122.662 942.361 121.984 942.361 121.222C942.361 120.446 942.503 119.762 942.788 119.168C943.077 118.572 943.478 118.106 943.992 117.771C944.509 117.433 945.112 117.264 945.801 117.264C946.338 117.264 946.822 117.364 947.253 117.562C947.684 117.761 948.037 118.04 948.312 118.398C948.587 118.756 948.758 119.173 948.824 119.651H947.651C947.561 119.303 947.362 118.994 947.054 118.726C946.749 118.454 946.338 118.318 945.821 118.318C945.364 118.318 944.963 118.437 944.618 118.676C944.277 118.911 944.01 119.245 943.818 119.675C943.629 120.103 943.534 120.605 943.534 121.182C943.534 121.772 943.627 122.286 943.813 122.723C944.001 123.161 944.267 123.5 944.608 123.742C944.953 123.984 945.357 124.105 945.821 124.105C946.126 124.105 946.403 124.052 946.651 123.946C946.9 123.84 947.11 123.688 947.283 123.489C947.455 123.29 947.578 123.051 947.651 122.773H948.824C948.758 123.223 948.594 123.629 948.332 123.991C948.073 124.349 947.73 124.634 947.303 124.846C946.878 125.055 946.385 125.159 945.821 125.159ZM951.213 122.216L951.193 120.764H951.432L954.773 117.364H956.224L952.665 120.963H952.565L951.213 122.216ZM950.119 125V114.818H951.292V125H950.119ZM954.971 125L951.988 121.222L952.824 120.406L956.463 125H954.971ZM960.082 128.023C959.516 128.023 959.028 127.95 958.621 127.804C958.213 127.661 957.873 127.473 957.601 127.237C957.333 127.005 957.119 126.757 956.96 126.491L957.895 125.835C958.001 125.974 958.135 126.134 958.297 126.312C958.46 126.495 958.682 126.652 958.964 126.785C959.249 126.921 959.622 126.989 960.082 126.989C960.699 126.989 961.208 126.839 961.609 126.541C962.01 126.243 962.21 125.776 962.21 125.139V123.588H962.111C962.024 123.727 961.902 123.9 961.743 124.105C961.587 124.307 961.362 124.488 961.067 124.647C960.775 124.803 960.381 124.881 959.883 124.881C959.267 124.881 958.713 124.735 958.223 124.443C957.736 124.152 957.35 123.727 957.065 123.17C956.783 122.614 956.642 121.937 956.642 121.142C956.642 120.36 956.779 119.679 957.055 119.099C957.33 118.515 957.712 118.065 958.203 117.746C958.694 117.425 959.26 117.264 959.903 117.264C960.4 117.264 960.795 117.347 961.087 117.513C961.382 117.675 961.607 117.861 961.763 118.07C961.922 118.275 962.044 118.444 962.131 118.577H962.25V117.364H963.383V125.219C963.383 125.875 963.234 126.409 962.936 126.82C962.641 127.234 962.243 127.537 961.743 127.729C961.246 127.925 960.692 128.023 960.082 128.023ZM960.042 123.827C960.513 123.827 960.911 123.719 961.236 123.504C961.56 123.288 961.807 122.978 961.976 122.574C962.145 122.17 962.23 121.686 962.23 121.122C962.23 120.572 962.147 120.086 961.981 119.665C961.816 119.245 961.57 118.915 961.246 118.676C960.921 118.437 960.52 118.318 960.042 118.318C959.545 118.318 959.131 118.444 958.8 118.696C958.471 118.948 958.225 119.286 958.059 119.71C957.896 120.134 957.815 120.605 957.815 121.122C957.815 121.652 957.898 122.121 958.064 122.529C958.233 122.933 958.481 123.252 958.81 123.484C959.141 123.712 959.552 123.827 960.042 123.827ZM965.111 125V117.364H966.245V118.517H966.324C966.463 118.139 966.715 117.833 967.08 117.597C967.444 117.362 967.855 117.244 968.313 117.244C968.399 117.244 968.507 117.246 968.636 117.249C968.765 117.253 968.863 117.258 968.929 117.264V118.457C968.89 118.447 968.798 118.433 968.656 118.413C968.517 118.389 968.369 118.378 968.213 118.378C967.842 118.378 967.511 118.456 967.219 118.612C966.931 118.764 966.702 118.976 966.533 119.248C966.367 119.516 966.284 119.823 966.284 120.168V125H965.111ZM972.77 125.159C972.081 125.159 971.476 124.995 970.955 124.667C970.438 124.339 970.034 123.88 969.742 123.29C969.454 122.7 969.31 122.01 969.31 121.222C969.31 120.426 969.454 119.732 969.742 119.138C970.034 118.545 970.438 118.085 970.955 117.756C971.476 117.428 972.081 117.264 972.77 117.264C973.459 117.264 974.063 117.428 974.58 117.756C975.1 118.085 975.504 118.545 975.793 119.138C976.084 119.732 976.23 120.426 976.23 121.222C976.23 122.01 976.084 122.7 975.793 123.29C975.504 123.88 975.1 124.339 974.58 124.667C974.063 124.995 973.459 125.159 972.77 125.159ZM972.77 124.105C973.294 124.105 973.725 123.971 974.063 123.702C974.401 123.434 974.651 123.081 974.813 122.643C974.976 122.206 975.057 121.732 975.057 121.222C975.057 120.711 974.976 120.236 974.813 119.795C974.651 119.354 974.401 118.998 974.063 118.726C973.725 118.454 973.294 118.318 972.77 118.318C972.246 118.318 971.815 118.454 971.477 118.726C971.139 118.998 970.889 119.354 970.727 119.795C970.564 120.236 970.483 120.711 970.483 121.222C970.483 121.732 970.564 122.206 970.727 122.643C970.889 123.081 971.139 123.434 971.477 123.702C971.815 123.971 972.246 124.105 972.77 124.105ZM982.414 121.878V117.364H983.587V125H982.414V123.707H982.334C982.155 124.095 981.877 124.425 981.499 124.697C981.121 124.965 980.644 125.099 980.067 125.099C979.59 125.099 979.166 124.995 978.794 124.786C978.423 124.574 978.132 124.256 977.919 123.832C977.707 123.404 977.601 122.866 977.601 122.216V117.364H978.775V122.136C978.775 122.693 978.93 123.137 979.242 123.469C979.557 123.8 979.958 123.966 980.445 123.966C980.737 123.966 981.033 123.891 981.335 123.742C981.64 123.593 981.895 123.364 982.1 123.056C982.309 122.748 982.414 122.355 982.414 121.878ZM986.489 120.406V125H985.316V117.364H986.449V118.557H986.549C986.728 118.169 987 117.857 987.364 117.622C987.729 117.384 988.199 117.264 988.776 117.264C989.293 117.264 989.746 117.37 990.133 117.582C990.521 117.791 990.823 118.109 991.038 118.537C991.254 118.961 991.361 119.498 991.361 120.148V125H990.188V120.227C990.188 119.627 990.032 119.16 989.721 118.825C989.409 118.487 988.982 118.318 988.438 118.318C988.064 118.318 987.729 118.399 987.434 118.562C987.142 118.724 986.912 118.961 986.743 119.273C986.574 119.584 986.489 119.962 986.489 120.406ZM995.969 125.159C995.333 125.159 994.771 124.998 994.284 124.677C993.796 124.352 993.415 123.895 993.14 123.305C992.865 122.711 992.727 122.01 992.727 121.202C992.727 120.4 992.865 119.704 993.14 119.114C993.415 118.524 993.798 118.068 994.289 117.746C994.779 117.425 995.346 117.264 995.989 117.264C996.486 117.264 996.879 117.347 997.167 117.513C997.459 117.675 997.681 117.861 997.833 118.07C997.989 118.275 998.11 118.444 998.196 118.577H998.296V114.818H999.469V125H998.335V123.827H998.196C998.11 123.966 997.987 124.142 997.828 124.354C997.669 124.562 997.442 124.75 997.147 124.915C996.852 125.078 996.459 125.159 995.969 125.159ZM996.128 124.105C996.599 124.105 996.996 123.982 997.321 123.737C997.646 123.489 997.893 123.146 998.062 122.708C998.231 122.267 998.316 121.759 998.316 121.182C998.316 120.612 998.233 120.113 998.067 119.685C997.901 119.254 997.656 118.92 997.331 118.681C997.006 118.439 996.605 118.318 996.128 118.318C995.631 118.318 995.217 118.446 994.885 118.701C994.557 118.953 994.31 119.296 994.144 119.73C993.982 120.161 993.901 120.645 993.901 121.182C993.901 121.725 993.984 122.219 994.149 122.663C994.318 123.104 994.567 123.455 994.895 123.717C995.227 123.976 995.638 124.105 996.128 124.105ZM1008.94 114.818H1010.17V122.097C1010.17 122.746 1010.05 123.298 1009.81 123.752C1009.57 124.206 1009.24 124.551 1008.8 124.786C1008.37 125.022 1007.85 125.139 1007.26 125.139C1006.71 125.139 1006.21 125.038 1005.78 124.836C1005.34 124.63 1005 124.339 1004.75 123.961C1004.51 123.583 1004.38 123.134 1004.38 122.614H1005.59C1005.59 122.902 1005.67 123.154 1005.81 123.369C1005.95 123.581 1006.15 123.747 1006.4 123.866C1006.66 123.986 1006.94 124.045 1007.26 124.045C1007.62 124.045 1007.92 123.971 1008.17 123.822C1008.42 123.673 1008.61 123.454 1008.74 123.165C1008.87 122.874 1008.94 122.518 1008.94 122.097V114.818ZM1015.16 125.159C1014.47 125.159 1013.87 124.995 1013.35 124.667C1012.83 124.339 1012.43 123.88 1012.13 123.29C1011.85 122.7 1011.7 122.01 1011.7 121.222C1011.7 120.426 1011.85 119.732 1012.13 119.138C1012.43 118.545 1012.83 118.085 1013.35 117.756C1013.87 117.428 1014.47 117.264 1015.16 117.264C1015.85 117.264 1016.45 117.428 1016.97 117.756C1017.49 118.085 1017.9 118.545 1018.18 119.138C1018.48 119.732 1018.62 120.426 1018.62 121.222C1018.62 122.01 1018.48 122.7 1018.18 123.29C1017.9 123.88 1017.49 124.339 1016.97 124.667C1016.45 124.995 1015.85 125.159 1015.16 125.159ZM1015.16 124.105C1015.69 124.105 1016.12 123.971 1016.45 123.702C1016.79 123.434 1017.04 123.081 1017.21 122.643C1017.37 122.206 1017.45 121.732 1017.45 121.222C1017.45 120.711 1017.37 120.236 1017.21 119.795C1017.04 119.354 1016.79 118.998 1016.45 118.726C1016.12 118.454 1015.69 118.318 1015.16 118.318C1014.64 118.318 1014.21 118.454 1013.87 118.726C1013.53 118.998 1013.28 119.354 1013.12 119.795C1012.96 120.236 1012.88 120.711 1012.88 121.222C1012.88 121.732 1012.96 122.206 1013.12 122.643C1013.28 123.081 1013.53 123.434 1013.87 123.702C1014.21 123.971 1014.64 124.105 1015.16 124.105ZM1020.15 125V114.818H1021.33V118.577H1021.43C1021.51 118.444 1021.63 118.275 1021.78 118.07C1021.94 117.861 1022.16 117.675 1022.45 117.513C1022.74 117.347 1023.14 117.264 1023.63 117.264C1024.28 117.264 1024.84 117.425 1025.33 117.746C1025.82 118.068 1026.21 118.524 1026.48 119.114C1026.76 119.704 1026.89 120.4 1026.89 121.202C1026.89 122.01 1026.76 122.711 1026.48 123.305C1026.21 123.895 1025.82 124.352 1025.34 124.677C1024.85 124.998 1024.29 125.159 1023.65 125.159C1023.16 125.159 1022.77 125.078 1022.47 124.915C1022.18 124.75 1021.95 124.562 1021.79 124.354C1021.63 124.142 1021.51 123.966 1021.43 123.827H1021.29V125H1020.15ZM1021.31 121.182C1021.31 121.759 1021.39 122.267 1021.56 122.708C1021.73 123.146 1021.98 123.489 1022.3 123.737C1022.62 123.982 1023.02 124.105 1023.49 124.105C1023.98 124.105 1024.39 123.976 1024.72 123.717C1025.05 123.455 1025.3 123.104 1025.47 122.663C1025.64 122.219 1025.72 121.725 1025.72 121.182C1025.72 120.645 1025.64 120.161 1025.47 119.73C1025.31 119.296 1025.06 118.953 1024.73 118.701C1024.4 118.446 1023.99 118.318 1023.49 118.318C1023.02 118.318 1022.61 118.439 1022.29 118.681C1021.97 118.92 1021.72 119.254 1021.55 119.685C1021.39 120.113 1021.31 120.612 1021.31 121.182ZM1033.68 119.074L1032.62 119.372C1032.56 119.196 1032.46 119.026 1032.33 118.86C1032.2 118.691 1032.03 118.552 1031.81 118.442C1031.59 118.333 1031.31 118.278 1030.97 118.278C1030.51 118.278 1030.12 118.386 1029.8 118.602C1029.5 118.814 1029.34 119.084 1029.34 119.412C1029.34 119.704 1029.45 119.934 1029.66 120.103C1029.87 120.272 1030.2 120.413 1030.65 120.526L1031.79 120.804C1032.47 120.97 1032.98 121.223 1033.31 121.565C1033.65 121.903 1033.82 122.339 1033.82 122.872C1033.82 123.31 1033.69 123.701 1033.44 124.045C1033.19 124.39 1032.84 124.662 1032.4 124.861C1031.95 125.06 1031.43 125.159 1030.83 125.159C1030.06 125.159 1029.41 124.99 1028.9 124.652C1028.39 124.314 1028.07 123.82 1027.93 123.17L1029.04 122.892C1029.15 123.303 1029.35 123.611 1029.65 123.817C1029.94 124.022 1030.33 124.125 1030.81 124.125C1031.36 124.125 1031.8 124.009 1032.12 123.777C1032.44 123.542 1032.6 123.26 1032.6 122.932C1032.6 122.667 1032.51 122.445 1032.33 122.266C1032.14 122.083 1031.85 121.947 1031.47 121.858L1030.2 121.56C1029.5 121.394 1028.98 121.137 1028.66 120.789C1028.33 120.438 1028.17 119.999 1028.17 119.472C1028.17 119.041 1028.29 118.66 1028.53 118.328C1028.78 117.997 1029.11 117.737 1029.53 117.548C1029.96 117.359 1030.44 117.264 1030.97 117.264C1031.73 117.264 1032.32 117.43 1032.75 117.761C1033.19 118.093 1033.5 118.53 1033.68 119.074Z" fill="#E0E7FF"/>
<circle cx="980" cy="155" r="9" fill="white"/>
<path fill-rule="evenodd" clip-rule="evenodd" d="M971 155C971 150.029 975.029 146 980 146C984.971 146 989 150.029 989 155C989 159.971 984.971 164 980 164C975.029 164 971 159.971 971 155ZM983.333 153.325C983.555 153.014 983.483 152.582 983.172 152.36C982.86 152.137 982.428 152.21 982.206 152.521L979.219 156.702L977.72 155.203C977.45 154.932 977.012 154.932 976.741 155.203C976.471 155.473 976.471 155.911 976.741 156.182L978.818 158.259C978.962 158.403 979.162 158.476 979.365 158.459C979.568 158.442 979.753 158.337 979.871 158.172L983.333 153.325Z" fill="#6366F1"/>
<circle opacity="0.4" cx="980" cy="155" r="12.5" stroke="#1E293B"/>
<path d="M1071.94 32H1070.64L1074.38 21.8182H1075.65L1079.39 32H1078.1L1075.06 23.429H1074.98L1071.94 32ZM1072.41 28.0227H1077.62V29.1165H1072.41V28.0227ZM1081.79 21.8182V32H1080.56V21.8182H1081.79ZM1090.09 32.1392C1089.42 32.1392 1088.84 32.0166 1088.36 31.7713C1087.87 31.526 1087.5 31.1896 1087.24 30.7621C1086.98 30.3345 1086.84 29.8456 1086.84 29.2955C1086.84 28.8712 1086.93 28.495 1087.11 28.1669C1087.29 27.8355 1087.55 27.5289 1087.86 27.2472C1088.18 26.9621 1088.55 26.6771 1088.97 26.392L1090.44 25.2983C1090.73 25.1094 1090.96 24.9072 1091.13 24.6918C1091.31 24.4763 1091.4 24.1946 1091.4 23.8466C1091.4 23.5881 1091.28 23.3378 1091.06 23.0959C1090.83 22.8539 1090.53 22.733 1090.17 22.733C1089.91 22.733 1089.68 22.7992 1089.48 22.9318C1089.28 23.0611 1089.13 23.2268 1089.02 23.429C1088.91 23.6278 1088.85 23.8333 1088.85 24.0455C1088.85 24.2841 1088.92 24.526 1089.05 24.7713C1089.18 25.0133 1089.35 25.2618 1089.55 25.517C1089.75 25.7689 1089.97 26.0275 1090.19 26.2926L1094.86 32H1093.45L1089.59 27.3466C1089.23 26.9157 1088.91 26.5246 1088.61 26.1733C1088.32 25.822 1088.09 25.4756 1087.92 25.1342C1087.75 24.7929 1087.66 24.4233 1087.66 24.0256C1087.66 23.5682 1087.76 23.1671 1087.96 22.8224C1088.17 22.4744 1088.45 22.2043 1088.82 22.0121C1089.19 21.8165 1089.63 21.7188 1090.13 21.7188C1090.64 21.7188 1091.07 21.8182 1091.44 22.017C1091.81 22.2126 1092.09 22.4728 1092.29 22.7976C1092.49 23.1191 1092.59 23.4688 1092.59 23.8466C1092.59 24.3338 1092.47 24.7564 1092.23 25.1143C1091.99 25.4723 1091.66 25.8054 1091.24 26.1136L1089.21 27.625C1088.75 27.9631 1088.44 28.2912 1088.28 28.6094C1088.12 28.9276 1088.04 29.1562 1088.04 29.2955C1088.04 29.6136 1088.12 29.9103 1088.29 30.1854C1088.45 30.4605 1088.69 30.6825 1088.99 30.8516C1089.29 31.0206 1089.64 31.1051 1090.05 31.1051C1090.43 31.1051 1090.8 31.0239 1091.17 30.8615C1091.53 30.6958 1091.86 30.4571 1092.16 30.1456C1092.46 29.834 1092.69 29.4595 1092.86 29.022C1093.04 28.5845 1093.13 28.0923 1093.13 27.5455H1094.26C1094.26 28.2216 1094.18 28.7734 1094.03 29.201C1093.87 29.6286 1093.7 29.9633 1093.5 30.2053C1093.31 30.4472 1093.15 30.6278 1093.03 30.7472C1092.99 30.7969 1092.95 30.8466 1092.92 30.8963C1092.89 30.946 1092.85 30.9957 1092.81 31.0455C1092.48 31.4134 1092.07 31.6884 1091.57 31.8707C1091.07 32.0497 1090.57 32.1392 1090.09 32.1392ZM1099.41 32V21.8182H1100.65V30.9062H1105.38V32H1099.41ZM1106.87 32V21.8182H1108.1V30.9062H1112.83V32H1106.87ZM1114.32 21.8182H1115.8L1119.26 30.2699H1119.37L1122.84 21.8182H1124.31V32H1123.15V24.2642H1123.05L1119.87 32H1118.76L1115.58 24.2642H1115.48V32H1114.32V21.8182ZM1138.07 25H1136.84C1136.76 24.6454 1136.64 24.3338 1136.45 24.0653C1136.27 23.7969 1136.06 23.5715 1135.8 23.3892C1135.54 23.2036 1135.26 23.0644 1134.95 22.9716C1134.64 22.8788 1134.31 22.8324 1133.97 22.8324C1133.36 22.8324 1132.8 22.9882 1132.3 23.2997C1131.8 23.6113 1131.4 24.0703 1131.11 24.6768C1130.82 25.2834 1130.67 26.0275 1130.67 26.9091C1130.67 27.7907 1130.82 28.5348 1131.11 29.1413C1131.4 29.7479 1131.8 30.2069 1132.3 30.5185C1132.8 30.83 1133.36 30.9858 1133.97 30.9858C1134.31 30.9858 1134.64 30.9394 1134.95 30.8466C1135.26 30.7538 1135.54 30.6162 1135.8 30.4339C1136.06 30.2483 1136.27 30.0213 1136.45 29.7528C1136.64 29.4811 1136.76 29.1695 1136.84 28.8182H1138.07C1137.98 29.3385 1137.81 29.8042 1137.56 30.2152C1137.32 30.6262 1137.01 30.9759 1136.65 31.2642C1136.28 31.5492 1135.87 31.7663 1135.42 31.9155C1134.97 32.0646 1134.49 32.1392 1133.97 32.1392C1133.1 32.1392 1132.33 31.9271 1131.66 31.5028C1130.98 31.0786 1130.45 30.4754 1130.06 29.6932C1129.67 28.911 1129.48 27.983 1129.48 26.9091C1129.48 25.8352 1129.67 24.9072 1130.06 24.125C1130.45 23.3428 1130.98 22.7396 1131.66 22.3153C1132.33 21.8911 1133.1 21.679 1133.97 21.679C1134.49 21.679 1134.97 21.7536 1135.42 21.9027C1135.87 22.0518 1136.28 22.2706 1136.65 22.5589C1137.01 22.844 1137.32 23.192 1137.56 23.603C1137.81 24.0107 1137.98 24.4763 1138.07 25ZM1140.66 27.4062V32H1139.48V21.8182H1140.66V25.5568H1140.76C1140.93 25.1624 1141.2 24.8492 1141.56 24.6172C1141.92 24.3819 1142.4 24.2642 1143 24.2642C1143.52 24.2642 1143.98 24.3686 1144.37 24.5774C1144.76 24.7829 1145.06 25.0994 1145.28 25.527C1145.5 25.9512 1145.61 26.4915 1145.61 27.1477V32H1144.43V27.2273C1144.43 26.6207 1144.28 26.1518 1143.96 25.8203C1143.65 25.4856 1143.22 25.3182 1142.66 25.3182C1142.28 25.3182 1141.94 25.3994 1141.63 25.5618C1141.33 25.7242 1141.09 25.9612 1140.91 26.2727C1140.74 26.5843 1140.66 26.9621 1140.66 27.4062ZM1149.58 32.179C1149.1 32.179 1148.66 32.0878 1148.26 31.9055C1147.87 31.7199 1147.56 31.4531 1147.32 31.1051C1147.09 30.7538 1146.98 30.3295 1146.98 29.8324C1146.98 29.3949 1147.06 29.0402 1147.23 28.7685C1147.41 28.4934 1147.64 28.2779 1147.93 28.1222C1148.21 27.9664 1148.53 27.8504 1148.88 27.7741C1149.23 27.6946 1149.58 27.6316 1149.94 27.5852C1150.4 27.5256 1150.78 27.4808 1151.07 27.451C1151.36 27.4179 1151.57 27.3632 1151.7 27.2869C1151.84 27.2107 1151.91 27.0781 1151.91 26.8892V26.8494C1151.91 26.3589 1151.77 25.9777 1151.51 25.706C1151.24 25.4342 1150.84 25.2983 1150.3 25.2983C1149.74 25.2983 1149.3 25.4209 1148.98 25.6662C1148.66 25.9115 1148.44 26.1733 1148.31 26.4517L1147.2 26.054C1147.39 25.59 1147.66 25.2287 1147.99 24.9702C1148.33 24.7083 1148.69 24.526 1149.08 24.4233C1149.48 24.3172 1149.87 24.2642 1150.26 24.2642C1150.5 24.2642 1150.78 24.294 1151.1 24.3537C1151.42 24.41 1151.73 24.5277 1152.03 24.7067C1152.33 24.8857 1152.58 25.1558 1152.78 25.517C1152.98 25.8783 1153.08 26.3622 1153.08 26.9688V32H1151.91V30.9659H1151.85C1151.77 31.1316 1151.64 31.3089 1151.45 31.4979C1151.27 31.6868 1151.02 31.8475 1150.71 31.9801C1150.4 32.1127 1150.03 32.179 1149.58 32.179ZM1149.76 31.125C1150.22 31.125 1150.62 31.0339 1150.93 30.8516C1151.26 30.6693 1151.5 30.4339 1151.66 30.1456C1151.83 29.8572 1151.91 29.554 1151.91 29.2358V28.1619C1151.86 28.2216 1151.75 28.2763 1151.58 28.326C1151.41 28.3724 1151.22 28.4138 1151 28.4503C1150.79 28.4834 1150.58 28.5133 1150.37 28.5398C1150.17 28.563 1150.01 28.5829 1149.88 28.5994C1149.57 28.6392 1149.29 28.7038 1149.02 28.7933C1148.76 28.8795 1148.55 29.0104 1148.39 29.1861C1148.23 29.3584 1148.15 29.5937 1148.15 29.892C1148.15 30.2997 1148.3 30.608 1148.6 30.8168C1148.91 31.0223 1149.29 31.125 1149.76 31.125ZM1154.8 32V24.3636H1155.98V32H1154.8ZM1155.4 23.0909C1155.17 23.0909 1154.97 23.013 1154.81 22.8572C1154.65 22.7015 1154.56 22.5142 1154.56 22.2955C1154.56 22.0767 1154.65 21.8894 1154.81 21.7337C1154.97 21.5779 1155.17 21.5 1155.4 21.5C1155.63 21.5 1155.82 21.5779 1155.99 21.7337C1156.15 21.8894 1156.23 22.0767 1156.23 22.2955C1156.23 22.5142 1156.15 22.7015 1155.99 22.8572C1155.82 23.013 1155.63 23.0909 1155.4 23.0909ZM1158.88 27.4062V32H1157.71V24.3636H1158.84V25.5568H1158.94C1159.12 25.169 1159.39 24.8575 1159.75 24.6222C1160.12 24.3835 1160.59 24.2642 1161.17 24.2642C1161.68 24.2642 1162.13 24.3703 1162.52 24.5824C1162.91 24.7912 1163.21 25.1094 1163.43 25.5369C1163.64 25.9612 1163.75 26.4981 1163.75 27.1477V32H1162.58V27.2273C1162.58 26.6274 1162.42 26.16 1162.11 25.8253C1161.8 25.4872 1161.37 25.3182 1160.83 25.3182C1160.45 25.3182 1160.12 25.3994 1159.82 25.5618C1159.53 25.7242 1159.3 25.9612 1159.13 26.2727C1158.96 26.5843 1158.88 26.9621 1158.88 27.4062ZM1170.88 26.0739L1169.83 26.3722C1169.76 26.1965 1169.67 26.0258 1169.54 25.8601C1169.41 25.6911 1169.24 25.5518 1169.02 25.4425C1168.8 25.3331 1168.52 25.2784 1168.18 25.2784C1167.71 25.2784 1167.32 25.3861 1167.01 25.6016C1166.7 25.8137 1166.55 26.0838 1166.55 26.4119C1166.55 26.7036 1166.65 26.9339 1166.87 27.103C1167.08 27.272 1167.41 27.4129 1167.86 27.5256L1168.99 27.804C1169.68 27.9697 1170.19 28.2232 1170.52 28.5646C1170.86 28.9027 1171.02 29.3385 1171.02 29.8722C1171.02 30.3097 1170.9 30.7008 1170.65 31.0455C1170.4 31.3902 1170.05 31.6619 1169.6 31.8608C1169.15 32.0597 1168.63 32.1591 1168.04 32.1591C1167.26 32.1591 1166.62 31.9901 1166.11 31.652C1165.6 31.3139 1165.27 30.8201 1165.14 30.1705L1166.25 29.892C1166.36 30.303 1166.56 30.6113 1166.85 30.8168C1167.15 31.0223 1167.54 31.125 1168.02 31.125C1168.57 31.125 1169 31.009 1169.32 30.777C1169.65 30.5417 1169.81 30.2599 1169.81 29.9318C1169.81 29.6667 1169.72 29.4446 1169.53 29.2656C1169.35 29.0833 1169.06 28.9474 1168.68 28.858L1167.4 28.5597C1166.7 28.3939 1166.19 28.1371 1165.86 27.7891C1165.54 27.4377 1165.38 26.9986 1165.38 26.4716C1165.38 26.0407 1165.5 25.6596 1165.74 25.3281C1165.98 24.9967 1166.32 24.7365 1166.74 24.5476C1167.16 24.3587 1167.64 24.2642 1168.18 24.2642C1168.93 24.2642 1169.53 24.4299 1169.96 24.7614C1170.39 25.0928 1170.7 25.5303 1170.88 26.0739Z" fill="#E0E7FF"/>
<circle cx="1121" cy="62" r="9" fill="white"/>
<path fill-rule="evenodd" clip-rule="evenodd" d="M1112 62C1112 57.0294 1116.03 53 1121 53C1125.97 53 1130 57.0294 1130 62C1130 66.9706 1125.97 71 1121 71C1116.03 71 1112 66.9706 1112 62ZM1124.33 60.3255C1124.55 60.0143 1124.48 59.582 1124.17 59.3597C1123.86 59.1375 1123.43 59.2095 1123.21 59.5207L1120.22 63.7018L1118.72 62.2028C1118.45 61.9324 1118.01 61.9324 1117.74 62.2028C1117.47 62.4731 1117.47 62.9115 1117.74 63.1818L1119.82 65.2588C1119.96 65.4027 1120.16 65.476 1120.36 65.4592C1120.57 65.4424 1120.75 65.3372 1120.87 65.1716L1124.33 60.3255Z" fill="#6366F1"/>
<circle opacity="0.4" cx="1121" cy="62" r="12.5" stroke="#1E293B"/>
<path d="M212.173 52.3636C212.113 51.8598 211.871 51.4688 211.447 51.1903C211.023 50.9119 210.502 50.7727 209.886 50.7727C209.435 50.7727 209.041 50.8456 208.703 50.9915C208.368 51.1373 208.106 51.3378 207.917 51.593C207.732 51.8482 207.639 52.1383 207.639 52.4631C207.639 52.7348 207.703 52.9685 207.833 53.1641C207.965 53.3563 208.134 53.517 208.34 53.6463C208.545 53.7723 208.761 53.8767 208.986 53.9595C209.211 54.0391 209.419 54.1037 209.608 54.1534L210.642 54.4318C210.907 54.5014 211.202 54.5975 211.527 54.7202C211.855 54.8428 212.168 55.0102 212.466 55.2223C212.768 55.4311 213.016 55.6996 213.212 56.0277C213.407 56.3558 213.505 56.7585 213.505 57.2358C213.505 57.786 213.361 58.2831 213.073 58.7273C212.788 59.1714 212.37 59.5244 211.82 59.7862C211.273 60.0481 210.608 60.179 209.826 60.179C209.097 60.179 208.466 60.0613 207.932 59.826C207.402 59.5907 206.984 59.2625 206.679 58.8416C206.378 58.4207 206.207 57.9318 206.167 57.375H207.44C207.473 57.7595 207.602 58.0777 207.828 58.3295C208.056 58.5781 208.345 58.7637 208.693 58.8864C209.044 59.0057 209.422 59.0653 209.826 59.0653C210.297 59.0653 210.719 58.9891 211.094 58.8366C211.469 58.6809 211.765 58.4654 211.984 58.1903C212.203 57.9119 212.312 57.5871 212.312 57.2159C212.312 56.8778 212.218 56.6027 212.029 56.3906C211.84 56.1785 211.591 56.0062 211.283 55.8736C210.975 55.741 210.642 55.625 210.284 55.5256L209.031 55.1676C208.235 54.9389 207.606 54.6125 207.142 54.1882C206.678 53.764 206.446 53.2088 206.446 52.5227C206.446 51.9527 206.6 51.4555 206.908 51.0312C207.219 50.6037 207.637 50.2723 208.161 50.0369C208.688 49.7983 209.276 49.679 209.926 49.679C210.582 49.679 211.165 49.7966 211.676 50.032C212.186 50.264 212.59 50.5821 212.889 50.9865C213.19 51.3909 213.349 51.8499 213.366 52.3636H212.173ZM218.155 60.1591C217.419 60.1591 216.785 59.9967 216.251 59.6719C215.721 59.3438 215.311 58.8864 215.023 58.2997C214.738 57.7098 214.595 57.0237 214.595 56.2415C214.595 55.4593 214.738 54.7699 215.023 54.1733C215.311 53.5734 215.712 53.1061 216.226 52.7713C216.743 52.4332 217.346 52.2642 218.036 52.2642C218.433 52.2642 218.826 52.3305 219.214 52.4631C219.602 52.5956 219.955 52.8111 220.273 53.1094C220.591 53.4044 220.845 53.7955 221.034 54.2827C221.222 54.7699 221.317 55.3698 221.317 56.0824V56.5795H215.431V55.5653H220.124C220.124 55.1345 220.038 54.75 219.865 54.4119C219.696 54.0739 219.454 53.8071 219.139 53.6115C218.828 53.416 218.46 53.3182 218.036 53.3182C217.568 53.3182 217.164 53.4342 216.823 53.6662C216.485 53.8949 216.224 54.1932 216.042 54.5611C215.86 54.929 215.769 55.3234 215.769 55.7443V56.4205C215.769 56.9972 215.868 57.486 216.067 57.8871C216.269 58.2848 216.549 58.5881 216.907 58.7969C217.265 59.0024 217.681 59.1051 218.155 59.1051C218.463 59.1051 218.742 59.062 218.99 58.9759C219.242 58.8864 219.459 58.7538 219.642 58.5781C219.824 58.3991 219.965 58.1771 220.064 57.9119L221.198 58.2301C221.078 58.6146 220.878 58.9527 220.596 59.2443C220.314 59.5327 219.966 59.758 219.552 59.9205C219.138 60.0795 218.672 60.1591 218.155 60.1591ZM222.682 60V52.3636H223.815V53.517H223.895C224.034 53.1392 224.286 52.8326 224.651 52.5973C225.015 52.362 225.426 52.2443 225.883 52.2443C225.97 52.2443 226.077 52.246 226.207 52.2493C226.336 52.2526 226.434 52.2576 226.5 52.2642V53.4574C226.46 53.4474 226.369 53.4325 226.226 53.4126C226.087 53.3894 225.94 53.3778 225.784 53.3778C225.413 53.3778 225.081 53.4557 224.79 53.6115C224.501 53.764 224.273 53.9761 224.104 54.2479C223.938 54.5163 223.855 54.8229 223.855 55.1676V60H222.682ZM233.947 52.3636L231.124 60H229.93L227.107 52.3636H228.379L230.487 58.4489H230.567L232.675 52.3636H233.947ZM238.004 60.1591C237.269 60.1591 236.634 59.9967 236.1 59.6719C235.57 59.3438 235.161 58.8864 234.872 58.2997C234.587 57.7098 234.445 57.0237 234.445 56.2415C234.445 55.4593 234.587 54.7699 234.872 54.1733C235.161 53.5734 235.562 53.1061 236.075 52.7713C236.592 52.4332 237.196 52.2642 237.885 52.2642C238.283 52.2642 238.676 52.3305 239.063 52.4631C239.451 52.5956 239.804 52.8111 240.122 53.1094C240.44 53.4044 240.694 53.7955 240.883 54.2827C241.072 54.7699 241.166 55.3698 241.166 56.0824V56.5795H235.28V55.5653H239.973C239.973 55.1345 239.887 54.75 239.715 54.4119C239.546 54.0739 239.304 53.8071 238.989 53.6115C238.677 53.416 238.309 53.3182 237.885 53.3182C237.418 53.3182 237.013 53.4342 236.672 53.6662C236.334 53.8949 236.074 54.1932 235.891 54.5611C235.709 54.929 235.618 55.3234 235.618 55.7443V56.4205C235.618 56.9972 235.717 57.486 235.916 57.8871C236.119 58.2848 236.399 58.5881 236.757 58.7969C237.114 59.0024 237.53 59.1051 238.004 59.1051C238.313 59.1051 238.591 59.062 238.84 58.9759C239.092 58.8864 239.309 58.7538 239.491 58.5781C239.673 58.3991 239.814 58.1771 239.913 57.9119L241.047 58.2301C240.928 58.6146 240.727 58.9527 240.445 59.2443C240.164 59.5327 239.816 59.758 239.401 59.9205C238.987 60.0795 238.521 60.1591 238.004 60.1591ZM242.531 60V52.3636H243.665V53.517H243.744C243.883 53.1392 244.135 52.8326 244.5 52.5973C244.864 52.362 245.275 52.2443 245.733 52.2443C245.819 52.2443 245.927 52.246 246.056 52.2493C246.185 52.2526 246.283 52.2576 246.349 52.2642V53.4574C246.31 53.4474 246.218 53.4325 246.076 53.4126C245.937 53.3894 245.789 53.3778 245.633 53.3778C245.262 53.3778 244.931 53.4557 244.639 53.6115C244.351 53.764 244.122 53.9761 243.953 54.2479C243.787 54.5163 243.704 54.8229 243.704 55.1676V60H242.531ZM248.493 49.8182V60H247.32V49.8182H248.493ZM253.424 60.1591C252.688 60.1591 252.054 59.9967 251.52 59.6719C250.99 59.3438 250.58 58.8864 250.292 58.2997C250.007 57.7098 249.864 57.0237 249.864 56.2415C249.864 55.4593 250.007 54.7699 250.292 54.1733C250.58 53.5734 250.981 53.1061 251.495 52.7713C252.012 52.4332 252.615 52.2642 253.305 52.2642C253.702 52.2642 254.095 52.3305 254.483 52.4631C254.871 52.5956 255.224 52.8111 255.542 53.1094C255.86 53.4044 256.114 53.7955 256.303 54.2827C256.492 54.7699 256.586 55.3698 256.586 56.0824V56.5795H250.7V55.5653H255.393C255.393 55.1345 255.307 54.75 255.134 54.4119C254.965 54.0739 254.723 53.8071 254.408 53.6115C254.097 53.416 253.729 53.3182 253.305 53.3182C252.837 53.3182 252.433 53.4342 252.092 53.6662C251.754 53.8949 251.493 54.1932 251.311 54.5611C251.129 54.929 251.038 55.3234 251.038 55.7443V56.4205C251.038 56.9972 251.137 57.486 251.336 57.8871C251.538 58.2848 251.818 58.5881 252.176 58.7969C252.534 59.0024 252.95 59.1051 253.424 59.1051C253.732 59.1051 254.011 59.062 254.259 58.9759C254.511 58.8864 254.728 58.7538 254.911 58.5781C255.093 58.3991 255.234 58.1771 255.333 57.9119L256.467 58.2301C256.347 58.6146 256.147 58.9527 255.865 59.2443C255.583 59.5327 255.235 59.758 254.821 59.9205C254.407 60.0795 253.941 60.1591 253.424 60.1591ZM263.36 54.0739L262.306 54.3722C262.24 54.1965 262.142 54.0258 262.013 53.8601C261.887 53.6911 261.714 53.5518 261.496 53.4425C261.277 53.3331 260.997 53.2784 260.655 53.2784C260.188 53.2784 259.799 53.3861 259.487 53.6016C259.179 53.8137 259.025 54.0838 259.025 54.4119C259.025 54.7036 259.131 54.9339 259.343 55.103C259.555 55.272 259.886 55.4129 260.337 55.5256L261.471 55.804C262.153 55.9697 262.662 56.2232 262.997 56.5646C263.332 56.9027 263.499 57.3385 263.499 57.8722C263.499 58.3097 263.373 58.7008 263.121 59.0455C262.873 59.3902 262.525 59.6619 262.077 59.8608C261.63 60.0597 261.109 60.1591 260.516 60.1591C259.737 60.1591 259.093 59.9901 258.582 59.652C258.072 59.3139 257.749 58.8201 257.613 58.1705L258.726 57.892C258.832 58.303 259.033 58.6113 259.328 58.8168C259.626 59.0223 260.016 59.125 260.496 59.125C261.043 59.125 261.477 59.009 261.799 58.777C262.124 58.5417 262.286 58.2599 262.286 57.9318C262.286 57.6667 262.193 57.4446 262.008 57.2656C261.822 57.0833 261.537 56.9474 261.153 56.858L259.88 56.5597C259.18 56.3939 258.667 56.1371 258.339 55.7891C258.014 55.4377 257.851 54.9986 257.851 54.4716C257.851 54.0407 257.972 53.6596 258.214 53.3281C258.46 52.9967 258.793 52.7365 259.214 52.5476C259.638 52.3587 260.118 52.2642 260.655 52.2642C261.411 52.2642 262.004 52.4299 262.435 52.7614C262.869 53.0928 263.178 53.5303 263.36 54.0739ZM270.254 54.0739L269.2 54.3722C269.134 54.1965 269.036 54.0258 268.907 53.8601C268.781 53.6911 268.609 53.5518 268.39 53.4425C268.171 53.3331 267.891 53.2784 267.55 53.2784C267.082 53.2784 266.693 53.3861 266.381 53.6016C266.073 53.8137 265.919 54.0838 265.919 54.4119C265.919 54.7036 266.025 54.9339 266.237 55.103C266.449 55.272 266.781 55.4129 267.232 55.5256L268.365 55.804C269.048 55.9697 269.557 56.2232 269.891 56.5646C270.226 56.9027 270.394 57.3385 270.394 57.8722C270.394 58.3097 270.268 58.7008 270.016 59.0455C269.767 59.3902 269.419 59.6619 268.972 59.8608C268.524 60.0597 268.004 60.1591 267.411 60.1591C266.632 60.1591 265.987 59.9901 265.477 59.652C264.966 59.3139 264.643 58.8201 264.507 58.1705L265.621 57.892C265.727 58.303 265.927 58.6113 266.222 58.8168C266.521 59.0223 266.91 59.125 267.391 59.125C267.938 59.125 268.372 59.009 268.693 58.777C269.018 58.5417 269.18 58.2599 269.18 57.9318C269.18 57.6667 269.088 57.4446 268.902 57.2656C268.716 57.0833 268.431 56.9474 268.047 56.858L266.774 56.5597C266.075 56.3939 265.561 56.1371 265.233 55.7891C264.908 55.4377 264.746 54.9986 264.746 54.4716C264.746 54.0407 264.867 53.6596 265.109 53.3281C265.354 52.9967 265.687 52.7365 266.108 52.5476C266.532 52.3587 267.013 52.2642 267.55 52.2642C268.305 52.2642 268.899 52.4299 269.33 52.7614C269.764 53.0928 270.072 53.5303 270.254 54.0739ZM279.115 56.8182H280.467L281.601 58.3097L281.899 58.7074L283.59 60.9545H282.237L281.124 59.4631L280.845 59.0852L279.115 56.8182ZM284.007 54.9091C284.007 55.983 283.813 56.911 283.426 57.6932C283.038 58.4754 282.506 59.0786 281.83 59.5028C281.154 59.9271 280.381 60.1392 279.513 60.1392C278.645 60.1392 277.872 59.9271 277.196 59.5028C276.52 59.0786 275.988 58.4754 275.6 57.6932C275.212 56.911 275.019 55.983 275.019 54.9091C275.019 53.8352 275.212 52.9072 275.6 52.125C275.988 51.3428 276.52 50.7396 277.196 50.3153C277.872 49.8911 278.645 49.679 279.513 49.679C280.381 49.679 281.154 49.8911 281.83 50.3153C282.506 50.7396 283.038 51.3428 283.426 52.125C283.813 52.9072 284.007 53.8352 284.007 54.9091ZM282.814 54.9091C282.814 54.0275 282.667 53.2834 282.372 52.6768C282.08 52.0703 281.684 51.6113 281.183 51.2997C280.686 50.9882 280.129 50.8324 279.513 50.8324C278.896 50.8324 278.338 50.9882 277.837 51.2997C277.34 51.6113 276.944 52.0703 276.649 52.6768C276.358 53.2834 276.212 54.0275 276.212 54.9091C276.212 55.7907 276.358 56.5348 276.649 57.1413C276.944 57.7479 277.34 58.2069 277.837 58.5185C278.338 58.83 278.896 58.9858 279.513 58.9858C280.129 58.9858 280.686 58.83 281.183 58.5185C281.684 58.2069 282.08 57.7479 282.372 57.1413C282.667 56.5348 282.814 55.7907 282.814 54.9091ZM290.314 56.8778V52.3636H291.487V60H290.314V58.7074H290.234C290.055 59.0952 289.777 59.425 289.399 59.6967C289.021 59.9652 288.544 60.0994 287.967 60.0994C287.49 60.0994 287.066 59.995 286.694 59.7862C286.323 59.5741 286.032 59.2559 285.819 58.8317C285.607 58.4041 285.501 57.8655 285.501 57.2159V52.3636H286.675V57.1364C286.675 57.6932 286.83 58.1373 287.142 58.4688C287.457 58.8002 287.858 58.9659 288.345 58.9659C288.637 58.9659 288.933 58.8913 289.235 58.7422C289.54 58.593 289.795 58.3643 290.001 58.0561C290.209 57.7479 290.314 57.3551 290.314 56.8778ZM296.418 60.1591C295.682 60.1591 295.047 59.9967 294.514 59.6719C293.983 59.3438 293.574 58.8864 293.286 58.2997C293.001 57.7098 292.858 57.0237 292.858 56.2415C292.858 55.4593 293.001 54.7699 293.286 54.1733C293.574 53.5734 293.975 53.1061 294.489 52.7713C295.006 52.4332 295.609 52.2642 296.298 52.2642C296.696 52.2642 297.089 52.3305 297.477 52.4631C297.864 52.5956 298.217 52.8111 298.536 53.1094C298.854 53.4044 299.107 53.7955 299.296 54.2827C299.485 54.7699 299.58 55.3698 299.58 56.0824V56.5795H293.693V55.5653H298.387C298.387 55.1345 298.3 54.75 298.128 54.4119C297.959 54.0739 297.717 53.8071 297.402 53.6115C297.091 53.416 296.723 53.3182 296.298 53.3182C295.831 53.3182 295.427 53.4342 295.085 53.6662C294.747 53.8949 294.487 54.1932 294.305 54.5611C294.123 54.929 294.031 55.3234 294.031 55.7443V56.4205C294.031 56.9972 294.131 57.486 294.33 57.8871C294.532 58.2848 294.812 58.5881 295.17 58.7969C295.528 59.0024 295.944 59.1051 296.418 59.1051C296.726 59.1051 297.004 59.062 297.253 58.9759C297.505 58.8864 297.722 58.7538 297.904 58.5781C298.087 58.3991 298.227 58.1771 298.327 57.9119L299.46 58.2301C299.341 58.6146 299.141 58.9527 298.859 59.2443C298.577 59.5327 298.229 59.758 297.815 59.9205C297.4 60.0795 296.935 60.1591 296.418 60.1591ZM305.757 56.8778V52.3636H306.93V60H305.757V58.7074H305.677C305.498 59.0952 305.22 59.425 304.842 59.6967C304.464 59.9652 303.987 60.0994 303.41 60.0994C302.933 60.0994 302.509 59.995 302.138 59.7862C301.766 59.5741 301.475 59.2559 301.263 58.8317C301.051 58.4041 300.944 57.8655 300.944 57.2159V52.3636H302.118V57.1364C302.118 57.6932 302.274 58.1373 302.585 58.4688C302.9 58.8002 303.301 58.9659 303.788 58.9659C304.08 58.9659 304.377 58.8913 304.678 58.7422C304.983 58.593 305.238 58.3643 305.444 58.0561C305.653 57.7479 305.757 57.3551 305.757 56.8778ZM311.861 60.1591C311.125 60.1591 310.49 59.9967 309.957 59.6719C309.427 59.3438 309.017 58.8864 308.729 58.2997C308.444 57.7098 308.301 57.0237 308.301 56.2415C308.301 55.4593 308.444 54.7699 308.729 54.1733C309.017 53.5734 309.418 53.1061 309.932 52.7713C310.449 52.4332 311.052 52.2642 311.742 52.2642C312.139 52.2642 312.532 52.3305 312.92 52.4631C313.308 52.5956 313.661 52.8111 313.979 53.1094C314.297 53.4044 314.551 53.7955 314.74 54.2827C314.928 54.7699 315.023 55.3698 315.023 56.0824V56.5795H309.137V55.5653H313.83C313.83 55.1345 313.744 54.75 313.571 54.4119C313.402 54.0739 313.16 53.8071 312.845 53.6115C312.534 53.416 312.166 53.3182 311.742 53.3182C311.274 53.3182 310.87 53.4342 310.529 53.6662C310.191 53.8949 309.93 54.1932 309.748 54.5611C309.566 54.929 309.475 55.3234 309.475 55.7443V56.4205C309.475 56.9972 309.574 57.486 309.773 57.8871C309.975 58.2848 310.255 58.5881 310.613 58.7969C310.971 59.0024 311.387 59.1051 311.861 59.1051C312.169 59.1051 312.448 59.062 312.696 58.9759C312.948 58.8864 313.165 58.7538 313.347 58.5781C313.53 58.3991 313.671 58.1771 313.77 57.9119L314.904 58.2301C314.784 58.6146 314.584 58.9527 314.302 59.2443C314.02 59.5327 313.672 59.758 313.258 59.9205C312.844 60.0795 312.378 60.1591 311.861 60.1591ZM321.797 54.0739L320.743 54.3722C320.677 54.1965 320.579 54.0258 320.449 53.8601C320.324 53.6911 320.151 53.5518 319.932 53.4425C319.714 53.3331 319.434 53.2784 319.092 53.2784C318.625 53.2784 318.235 53.3861 317.924 53.6016C317.616 53.8137 317.462 54.0838 317.462 54.4119C317.462 54.7036 317.568 54.9339 317.78 55.103C317.992 55.272 318.323 55.4129 318.774 55.5256L319.908 55.804C320.59 55.9697 321.099 56.2232 321.434 56.5646C321.769 56.9027 321.936 57.3385 321.936 57.8722C321.936 58.3097 321.81 58.7008 321.558 59.0455C321.31 59.3902 320.962 59.6619 320.514 59.8608C320.067 60.0597 319.546 60.1591 318.953 60.1591C318.174 60.1591 317.529 59.9901 317.019 59.652C316.509 59.3139 316.186 58.8201 316.05 58.1705L317.163 57.892C317.269 58.303 317.47 58.6113 317.765 58.8168C318.063 59.0223 318.453 59.125 318.933 59.125C319.48 59.125 319.914 59.009 320.236 58.777C320.561 58.5417 320.723 58.2599 320.723 57.9318C320.723 57.6667 320.63 57.4446 320.445 57.2656C320.259 57.0833 319.974 56.9474 319.589 56.858L318.317 56.5597C317.617 56.3939 317.104 56.1371 316.775 55.7891C316.451 55.4377 316.288 54.9986 316.288 54.4716C316.288 54.0407 316.409 53.6596 316.651 53.3281C316.896 52.9967 317.23 52.7365 317.65 52.5476C318.075 52.3587 318.555 52.2642 319.092 52.2642C319.848 52.2642 320.441 52.4299 320.872 52.7614C321.306 53.0928 321.614 53.5303 321.797 54.0739Z" fill="#E0E7FF"/>
<circle cx="264" cy="89" r="9" fill="white"/>
<path fill-rule="evenodd" clip-rule="evenodd" d="M255 89C255 84.0294 259.029 80 264 80C268.971 80 273 84.0294 273 89C273 93.9706 268.971 98 264 98C259.029 98 255 93.9706 255 89ZM267.333 87.3255C267.555 87.0143 267.483 86.582 267.172 86.3597C266.86 86.1375 266.428 86.2095 266.206 86.5207L263.219 90.7018L261.72 89.2028C261.45 88.9324 261.012 88.9324 260.741 89.2028C260.471 89.4731 260.471 89.9115 260.741 90.1818L262.818 92.2588C262.962 92.4027 263.162 92.476 263.365 92.4592C263.568 92.4424 263.753 92.3372 263.871 92.1716L267.333 87.3255Z" fill="#6366F1"/>
<circle cx="264" cy="89" r="12.5" stroke="#818CF8"/>
<path d="M515.887 19L513.103 8.81818H514.356L516.484 17.1108H516.583L518.751 8.81818H520.143L522.311 17.1108H522.41L524.538 8.81818H525.791L523.007 19H521.734L519.487 10.8864H519.407L517.16 19H515.887ZM529.239 19.1591C528.503 19.1591 527.868 18.9967 527.335 18.6719C526.804 18.3438 526.395 17.8864 526.107 17.2997C525.822 16.7098 525.679 16.0237 525.679 15.2415C525.679 14.4593 525.822 13.7699 526.107 13.1733C526.395 12.5734 526.796 12.1061 527.31 11.7713C527.827 11.4332 528.43 11.2642 529.119 11.2642C529.517 11.2642 529.91 11.3305 530.298 11.4631C530.685 11.5956 531.038 11.8111 531.357 12.1094C531.675 12.4044 531.928 12.7955 532.117 13.2827C532.306 13.7699 532.401 14.3698 532.401 15.0824V15.5795H526.514V14.5653H531.207C531.207 14.1345 531.121 13.75 530.949 13.4119C530.78 13.0739 530.538 12.8071 530.223 12.6115C529.911 12.416 529.544 12.3182 529.119 12.3182C528.652 12.3182 528.248 12.4342 527.906 12.6662C527.568 12.8949 527.308 13.1932 527.126 13.5611C526.943 13.929 526.852 14.3234 526.852 14.7443V15.4205C526.852 15.9972 526.952 16.486 527.151 16.8871C527.353 17.2848 527.633 17.5881 527.991 17.7969C528.349 18.0024 528.765 18.1051 529.239 18.1051C529.547 18.1051 529.825 18.062 530.074 17.9759C530.326 17.8864 530.543 17.7538 530.725 17.5781C530.907 17.3991 531.048 17.1771 531.148 16.9119L532.281 17.2301C532.162 17.6146 531.961 17.9527 531.68 18.2443C531.398 18.5327 531.05 18.758 530.636 18.9205C530.221 19.0795 529.756 19.1591 529.239 19.1591ZM533.924 19V8.81818H535.098V12.5767H535.197C535.283 12.4441 535.403 12.2751 535.555 12.0696C535.711 11.8608 535.933 11.6752 536.221 11.5128C536.513 11.3471 536.907 11.2642 537.405 11.2642C538.048 11.2642 538.614 11.425 539.105 11.7464C539.595 12.0679 539.978 12.5237 540.253 13.1136C540.528 13.7036 540.666 14.3996 540.666 15.2017C540.666 16.0104 540.528 16.7114 540.253 17.3047C539.978 17.8946 539.597 18.352 539.11 18.6768C538.623 18.9983 538.061 19.1591 537.424 19.1591C536.934 19.1591 536.541 19.0779 536.246 18.9155C535.951 18.7498 535.724 18.5625 535.565 18.3537C535.406 18.1416 535.283 17.9659 535.197 17.8267H535.058V19H533.924ZM535.078 15.1818C535.078 15.7585 535.162 16.2673 535.331 16.7081C535.5 17.1456 535.747 17.4886 536.072 17.7372C536.397 17.9825 536.795 18.1051 537.265 18.1051C537.756 18.1051 538.165 17.9759 538.493 17.7173C538.825 17.4555 539.073 17.1042 539.239 16.6634C539.408 16.2192 539.493 15.7254 539.493 15.1818C539.493 14.6449 539.41 14.161 539.244 13.7301C539.082 13.2959 538.835 12.9529 538.503 12.701C538.175 12.4458 537.763 12.3182 537.265 12.3182C536.788 12.3182 536.387 12.4392 536.062 12.6811C535.737 12.9197 535.492 13.2545 535.326 13.6854C535.161 14.1129 535.078 14.6117 535.078 15.1818ZM543.214 14.4062V19H542.041V8.81818H543.214V12.5568H543.313C543.492 12.1624 543.761 11.8492 544.119 11.6172C544.48 11.3819 544.961 11.2642 545.561 11.2642C546.081 11.2642 546.537 11.3686 546.928 11.5774C547.319 11.7829 547.622 12.0994 547.838 12.527C548.056 12.9512 548.166 13.4915 548.166 14.1477V19H546.992V14.2273C546.992 13.6207 546.835 13.1518 546.52 12.8203C546.209 12.4856 545.776 12.3182 545.223 12.3182C544.838 12.3182 544.493 12.3994 544.188 12.5618C543.887 12.7242 543.648 12.9612 543.473 13.2727C543.3 13.5843 543.214 13.9621 543.214 14.4062ZM552.994 19.1591C552.305 19.1591 551.7 18.995 551.18 18.6669C550.663 18.3388 550.258 17.8797 549.967 17.2898C549.678 16.6998 549.534 16.0104 549.534 15.2216C549.534 14.4261 549.678 13.7318 549.967 13.1385C550.258 12.5452 550.663 12.0845 551.18 11.7564C551.7 11.4283 552.305 11.2642 552.994 11.2642C553.684 11.2642 554.287 11.4283 554.804 11.7564C555.324 12.0845 555.729 12.5452 556.017 13.1385C556.309 13.7318 556.455 14.4261 556.455 15.2216C556.455 16.0104 556.309 16.6998 556.017 17.2898C555.729 17.8797 555.324 18.3388 554.804 18.6669C554.287 18.995 553.684 19.1591 552.994 19.1591ZM552.994 18.1051C553.518 18.1051 553.949 17.9709 554.287 17.7024C554.625 17.4339 554.875 17.081 555.038 16.6435C555.2 16.206 555.281 15.732 555.281 15.2216C555.281 14.7112 555.2 14.2356 555.038 13.7947C554.875 13.3539 554.625 12.9976 554.287 12.7259C553.949 12.4541 553.518 12.3182 552.994 12.3182C552.471 12.3182 552.04 12.4541 551.702 12.7259C551.364 12.9976 551.114 13.3539 550.951 13.7947C550.789 14.2356 550.708 14.7112 550.708 15.2216C550.708 15.732 550.789 16.206 550.951 16.6435C551.114 17.081 551.364 17.4339 551.702 17.7024C552.04 17.9709 552.471 18.1051 552.994 18.1051ZM560.928 19.1591C560.239 19.1591 559.634 18.995 559.113 18.6669C558.596 18.3388 558.192 17.8797 557.9 17.2898C557.612 16.6998 557.468 16.0104 557.468 15.2216C557.468 14.4261 557.612 13.7318 557.9 13.1385C558.192 12.5452 558.596 12.0845 559.113 11.7564C559.634 11.4283 560.239 11.2642 560.928 11.2642C561.617 11.2642 562.221 11.4283 562.738 11.7564C563.258 12.0845 563.662 12.5452 563.951 13.1385C564.242 13.7318 564.388 14.4261 564.388 15.2216C564.388 16.0104 564.242 16.6998 563.951 17.2898C563.662 17.8797 563.258 18.3388 562.738 18.6669C562.221 18.995 561.617 19.1591 560.928 19.1591ZM560.928 18.1051C561.452 18.1051 561.883 17.9709 562.221 17.7024C562.559 17.4339 562.809 17.081 562.971 16.6435C563.134 16.206 563.215 15.732 563.215 15.2216C563.215 14.7112 563.134 14.2356 562.971 13.7947C562.809 13.3539 562.559 12.9976 562.221 12.7259C561.883 12.4541 561.452 12.3182 560.928 12.3182C560.404 12.3182 559.973 12.4541 559.635 12.7259C559.297 12.9976 559.047 13.3539 558.885 13.7947C558.722 14.2356 558.641 14.7112 558.641 15.2216C558.641 15.732 558.722 16.206 558.885 16.6435C559.047 17.081 559.297 17.4339 559.635 17.7024C559.973 17.9709 560.404 18.1051 560.928 18.1051ZM566.853 16.2159L566.833 14.7642H567.072L570.413 11.3636H571.864L568.305 14.9631H568.205L566.853 16.2159ZM565.759 19V8.81818H566.933V19H565.759ZM570.611 19L567.629 15.2216L568.464 14.4062L572.103 19H570.611ZM578.364 13.0739L577.31 13.3722C577.243 13.1965 577.145 13.0258 577.016 12.8601C576.89 12.6911 576.718 12.5518 576.499 12.4425C576.28 12.3331 576 12.2784 575.659 12.2784C575.192 12.2784 574.802 12.3861 574.491 12.6016C574.182 12.8137 574.028 13.0838 574.028 13.4119C574.028 13.7036 574.134 13.9339 574.346 14.103C574.559 14.272 574.89 14.4129 575.341 14.5256L576.474 14.804C577.157 14.9697 577.666 15.2232 578.001 15.5646C578.335 15.9027 578.503 16.3385 578.503 16.8722C578.503 17.3097 578.377 17.7008 578.125 18.0455C577.876 18.3902 577.528 18.6619 577.081 18.8608C576.633 19.0597 576.113 19.1591 575.52 19.1591C574.741 19.1591 574.096 18.9901 573.586 18.652C573.075 18.3139 572.752 17.8201 572.616 17.1705L573.73 16.892C573.836 17.303 574.037 17.6113 574.332 17.8168C574.63 18.0223 575.019 18.125 575.5 18.125C576.047 18.125 576.481 18.009 576.802 17.777C577.127 17.5417 577.29 17.2599 577.29 16.9318C577.29 16.6667 577.197 16.4446 577.011 16.2656C576.826 16.0833 576.541 15.9474 576.156 15.858L574.883 15.5597C574.184 15.3939 573.67 15.1371 573.342 14.7891C573.017 14.4377 572.855 13.9986 572.855 13.4716C572.855 13.0407 572.976 12.6596 573.218 12.3281C573.463 11.9967 573.796 11.7365 574.217 11.5476C574.641 11.3587 575.122 11.2642 575.659 11.2642C576.415 11.2642 577.008 11.4299 577.439 11.7614C577.873 12.0928 578.181 12.5303 578.364 13.0739Z" fill="#E0E7FF"/>
<circle cx="546" cy="49" r="9" fill="white"/>
<path fill-rule="evenodd" clip-rule="evenodd" d="M537 49C537 44.0294 541.029 40 546 40C550.971 40 555 44.0294 555 49C555 53.9706 550.971 58 546 58C541.029 58 537 53.9706 537 49ZM549.333 47.3255C549.555 47.0143 549.483 46.582 549.172 46.3597C548.86 46.1375 548.428 46.2095 548.206 46.5207L545.219 50.7018L543.72 49.2028C543.45 48.9324 543.012 48.9324 542.741 49.2028C542.471 49.4731 542.471 49.9115 542.741 50.1818L544.818 52.2588C544.962 52.4027 545.162 52.476 545.365 52.4592C545.568 52.4424 545.753 52.3372 545.871 52.1716L549.333 47.3255Z" fill="#6366F1"/>
<circle cx="546" cy="49" r="12.5" stroke="#818CF8"/>
<path d="M1232.31 89L1229.53 78.8182H1230.78L1232.91 87.1108H1233.01L1235.17 78.8182H1236.56L1238.73 87.1108H1238.83L1240.96 78.8182H1242.21L1239.43 89H1238.16L1235.91 80.8864H1235.83L1233.58 89H1232.31ZM1245.56 89.1591C1244.87 89.1591 1244.27 88.995 1243.75 88.6669C1243.23 88.3388 1242.83 87.8797 1242.53 87.2898C1242.25 86.6998 1242.1 86.0104 1242.1 85.2216C1242.1 84.4261 1242.25 83.7318 1242.53 83.1385C1242.83 82.5452 1243.23 82.0845 1243.75 81.7564C1244.27 81.4283 1244.87 81.2642 1245.56 81.2642C1246.25 81.2642 1246.85 81.4283 1247.37 81.7564C1247.89 82.0845 1248.3 82.5452 1248.58 83.1385C1248.88 83.7318 1249.02 84.4261 1249.02 85.2216C1249.02 86.0104 1248.88 86.6998 1248.58 87.2898C1248.3 87.8797 1247.89 88.3388 1247.37 88.6669C1246.85 88.995 1246.25 89.1591 1245.56 89.1591ZM1245.56 88.1051C1246.08 88.1051 1246.52 87.9709 1246.85 87.7024C1247.19 87.4339 1247.44 87.081 1247.6 86.6435C1247.77 86.206 1247.85 85.732 1247.85 85.2216C1247.85 84.7112 1247.77 84.2356 1247.6 83.7947C1247.44 83.3539 1247.19 82.9976 1246.85 82.7259C1246.52 82.4541 1246.08 82.3182 1245.56 82.3182C1245.04 82.3182 1244.61 82.4541 1244.27 82.7259C1243.93 82.9976 1243.68 83.3539 1243.52 83.7947C1243.36 84.2356 1243.27 84.7112 1243.27 85.2216C1243.27 85.732 1243.36 86.206 1243.52 86.6435C1243.68 87.081 1243.93 87.4339 1244.27 87.7024C1244.61 87.9709 1245.04 88.1051 1245.56 88.1051ZM1250.39 89V81.3636H1251.53V82.517H1251.61C1251.74 82.1392 1252 81.8326 1252.36 81.5973C1252.73 81.362 1253.14 81.2443 1253.59 81.2443C1253.68 81.2443 1253.79 81.246 1253.92 81.2493C1254.05 81.2526 1254.14 81.2576 1254.21 81.2642V82.4574C1254.17 82.4474 1254.08 82.4325 1253.94 82.4126C1253.8 82.3894 1253.65 82.3778 1253.49 82.3778C1253.12 82.3778 1252.79 82.4557 1252.5 82.6115C1252.21 82.764 1251.98 82.9761 1251.81 83.2479C1251.65 83.5163 1251.57 83.8229 1251.57 84.1676V89H1250.39ZM1256.28 86.2159L1256.26 84.7642H1256.49L1259.83 81.3636H1261.29L1257.73 84.9631H1257.63L1256.28 86.2159ZM1255.18 89V78.8182H1256.35V89H1255.18ZM1260.03 89L1257.05 85.2216L1257.89 84.4062L1261.53 89H1260.03ZM1265.78 81.3636V82.358H1261.66V81.3636H1265.78ZM1262.89 89V80.3097C1262.89 79.8722 1263 79.5076 1263.2 79.2159C1263.41 78.9242 1263.67 78.7055 1264 78.5597C1264.33 78.4138 1264.68 78.3409 1265.04 78.3409C1265.33 78.3409 1265.57 78.3641 1265.75 78.4105C1265.93 78.4569 1266.07 78.5 1266.16 78.5398L1265.82 79.554C1265.76 79.5341 1265.67 79.5092 1265.57 79.4794C1265.47 79.4496 1265.33 79.4347 1265.16 79.4347C1264.77 79.4347 1264.49 79.5324 1264.32 79.728C1264.15 79.9235 1264.07 80.2102 1264.07 80.5881V89H1262.89ZM1268.17 78.8182V89H1267V78.8182H1268.17ZM1273.01 89.1591C1272.32 89.1591 1271.71 88.995 1271.19 88.6669C1270.67 88.3388 1270.27 87.8797 1269.98 87.2898C1269.69 86.6998 1269.55 86.0104 1269.55 85.2216C1269.55 84.4261 1269.69 83.7318 1269.98 83.1385C1270.27 82.5452 1270.67 82.0845 1271.19 81.7564C1271.71 81.4283 1272.32 81.2642 1273.01 81.2642C1273.7 81.2642 1274.3 81.4283 1274.82 81.7564C1275.34 82.0845 1275.74 82.5452 1276.03 83.1385C1276.32 83.7318 1276.47 84.4261 1276.47 85.2216C1276.47 86.0104 1276.32 86.6998 1276.03 87.2898C1275.74 87.8797 1275.34 88.3388 1274.82 88.6669C1274.3 88.995 1273.7 89.1591 1273.01 89.1591ZM1273.01 88.1051C1273.53 88.1051 1273.96 87.9709 1274.3 87.7024C1274.64 87.4339 1274.89 87.081 1275.05 86.6435C1275.21 86.206 1275.29 85.732 1275.29 85.2216C1275.29 84.7112 1275.21 84.2356 1275.05 83.7947C1274.89 83.3539 1274.64 82.9976 1274.3 82.7259C1273.96 82.4541 1273.53 82.3182 1273.01 82.3182C1272.48 82.3182 1272.05 82.4541 1271.71 82.7259C1271.38 82.9976 1271.13 83.3539 1270.96 83.7947C1270.8 84.2356 1270.72 84.7112 1270.72 85.2216C1270.72 85.732 1270.8 86.206 1270.96 86.6435C1271.13 87.081 1271.38 87.4339 1271.71 87.7024C1272.05 87.9709 1272.48 88.1051 1273.01 88.1051ZM1279.31 89L1276.98 81.3636H1278.21L1279.86 87.2102H1279.94L1281.57 81.3636H1282.83L1284.44 87.1903H1284.52L1286.17 81.3636H1287.4L1285.07 89H1283.92L1282.25 83.1335H1282.13L1280.46 89H1279.31ZM1293.94 83.0739L1292.89 83.3722C1292.82 83.1965 1292.72 83.0258 1292.59 82.8601C1292.47 82.6911 1292.3 82.5518 1292.08 82.4425C1291.86 82.3331 1291.58 82.2784 1291.24 82.2784C1290.77 82.2784 1290.38 82.3861 1290.07 82.6016C1289.76 82.8137 1289.61 83.0838 1289.61 83.4119C1289.61 83.7036 1289.71 83.9339 1289.92 84.103C1290.14 84.272 1290.47 84.4129 1290.92 84.5256L1292.05 84.804C1292.74 84.9697 1293.24 85.2232 1293.58 85.5646C1293.91 85.9027 1294.08 86.3385 1294.08 86.8722C1294.08 87.3097 1293.95 87.7008 1293.7 88.0455C1293.45 88.3902 1293.11 88.6619 1292.66 88.8608C1292.21 89.0597 1291.69 89.1591 1291.1 89.1591C1290.32 89.1591 1289.67 88.9901 1289.16 88.652C1288.65 88.3139 1288.33 87.8201 1288.19 87.1705L1289.31 86.892C1289.41 87.303 1289.61 87.6113 1289.91 87.8168C1290.21 88.0223 1290.6 88.125 1291.08 88.125C1291.62 88.125 1292.06 88.009 1292.38 87.777C1292.71 87.5417 1292.87 87.2599 1292.87 86.9318C1292.87 86.6667 1292.77 86.4446 1292.59 86.2656C1292.4 86.0833 1292.12 85.9474 1291.73 85.858L1290.46 85.5597C1289.76 85.3939 1289.25 85.1371 1288.92 84.7891C1288.6 84.4377 1288.43 83.9986 1288.43 83.4716C1288.43 83.0407 1288.55 82.6596 1288.8 82.3281C1289.04 81.9967 1289.37 81.7365 1289.8 81.5476C1290.22 81.3587 1290.7 81.2642 1291.24 81.2642C1291.99 81.2642 1292.59 81.4299 1293.02 81.7614C1293.45 82.0928 1293.76 82.5303 1293.94 83.0739Z" fill="#E0E7FF"/>
<circle cx="1262" cy="119" r="9" fill="white"/>
<path fill-rule="evenodd" clip-rule="evenodd" d="M1253 119C1253 114.029 1257.03 110 1262 110C1266.97 110 1271 114.029 1271 119C1271 123.971 1266.97 128 1262 128C1257.03 128 1253 123.971 1253 119ZM1265.33 117.325C1265.55 117.014 1265.48 116.582 1265.17 116.36C1264.86 116.137 1264.43 116.21 1264.21 116.521L1261.22 120.702L1259.72 119.203C1259.45 118.932 1259.01 118.932 1258.74 119.203C1258.47 119.473 1258.47 119.911 1258.74 120.182L1260.82 122.259C1260.96 122.403 1261.16 122.476 1261.36 122.459C1261.57 122.442 1261.75 122.337 1261.87 122.172L1265.33 117.325Z" fill="#6366F1"/>
<circle opacity="0.4" cx="1262" cy="119" r="12.5" stroke="#1E293B"/>
<rect x="263.5" y="102" width="1" height="89" fill="#818CF8"/>
<rect opacity="0.4" x="1261.5" y="132" width="1" height="61" fill="#1E293B"/>
<rect x="545.5" y="62" width="1" height="129" fill="#818CF8"/>
<rect opacity="0.4" x="1120.5" y="75" width="1" height="118" fill="#1E293B"/>
<rect x="404.5" y="154" width="1" height="37" fill="#818CF8"/>
<rect opacity="0.4" x="979.5" y="168" width="1" height="25" fill="#1E293B"/>
<circle cx="264" cy="193.5" r="3" fill="#818CF8"/>
<circle cx="980" cy="193.5" r="3" fill="#475569"/>
<circle cx="405" cy="193.5" r="3" fill="#818CF8"/>
<circle cx="945" cy="193.5" r="3" fill="#A5B4FC"/>
<circle cx="1121" cy="193.5" r="3" fill="#475569"/>
<circle cx="546" cy="193.5" r="3" fill="#818CF8"/>
<circle cx="1262" cy="193.5" r="3" fill="#475569"/>
<rect x="632" y="188" width="248" height="10" fill="#050911"/>
<defs>
<linearGradient id="paint0_linear_1776_623" x1="-173" y1="194.242" x2="945" y2="194.247" gradientUnits="userSpaceOnUse">
<stop stop-color="#8650FA"/>
<stop offset="1" stop-color="#87B6FF"/>
</linearGradient>
</defs>
</svg>
