<svg width="100" height="30" viewBox="0 0 100 30" fill="none" xmlns="http://www.w3.org/2000/svg">
<g clip-path="url(#clip0_5554_605)">
<path d="M5.05402 7H2V23H5.05402V7Z" fill="#FAFAF9"/>
<path d="M63.0549 20.0129C62.4997 20.0129 61.9627 19.789 61.6156 19.3643C61.4951 19.2185 61.3964 19.0586 61.3599 18.9022C61.2795 18.561 61.243 18.1398 61.3398 17.6653C61.4804 16.9652 61.7891 16.3378 61.7891 14.989C61.7891 13.6402 61.4695 13.004 61.3161 12.3002C61.2028 11.7796 61.2558 11.3228 61.3635 10.9621C61.3928 10.8555 61.4567 10.7471 61.5371 10.6422C61.8805 10.189 62.443 9.94558 63.0202 9.94558H70.7685V7.00269H58.5872L58.5872 23H71.0334V20.0129H63.0586H63.0549Z" fill="#FAFAF9"/>
<path d="M67.3454 13.5194H64.4083C63.579 13.5194 62.905 14.1769 62.905 14.9873C62.905 15.7977 63.5772 16.4552 64.4083 16.4552H67.3454C68.1747 16.4552 68.8487 15.7977 68.8487 14.9873C68.8487 14.1769 68.1765 13.5194 67.3454 13.5194Z" fill="#FAFAF9"/>
<path d="M48.0149 14.0756V16.5814H52.7219C52.689 17.2069 52.5594 17.7631 52.3292 18.2447C50.8333 21.4506 45.6129 20.8678 44.2503 17.8111C43.8539 17.0079 43.6548 16.0802 43.6548 15.0317C43.6548 14.0454 43.8539 13.1533 44.2503 12.3554C44.6467 11.5575 45.2239 10.9302 45.9764 10.4734C46.7289 10.0185 47.613 9.78925 48.6213 9.78925C49.6295 9.78925 50.4771 9.96874 51.2004 10.3259C51.9237 10.6831 52.6087 11.179 53.2662 11.8169L55.2956 9.53868C54.4553 8.70166 53.4471 8.0388 52.2634 7.54654C51.0798 7.05251 49.8158 6.80371 48.4624 6.80371C46.8294 6.80371 45.3736 7.14492 44.0914 7.8291C42.8091 8.51329 41.8118 9.48537 41.1068 10.7453C40.3999 12.0053 40.0474 13.4341 40.0474 15.0299C40.0474 16.6258 40.3743 18.0741 41.0264 19.327C42.9388 23.1424 48.2121 24.3402 51.626 21.8914C51.9621 21.6248 52.3292 21.4649 52.6452 21.591C52.868 21.6817 52.9959 21.9127 53.005 22.1473C53.0215 22.5631 53.0379 22.6677 53.0489 23.0001H55.5768V14.0721H48.0149V14.0756Z" fill="#FAFAF9"/>
<path d="M34.5787 7L34.6645 12.5775C34.6645 13.6704 34.7412 14.7722 35.3477 15.6572C36.65 17.5623 34.9988 18.824 33.8426 17.5641L25.6046 7L21.8749 6.99999V11.2731L21.8822 18.0723C21.8822 18.5219 21.5023 19.1368 20.6894 19.0871C19.5405 19.0195 19.7798 16.7342 17.8948 14.6869L11.9146 7.01516L8.31079 7.00001V23H11.4525V18.1185C11.4525 16.8746 11.4762 15.2378 10.8388 14.3653C9.77935 12.9134 10.563 11.8329 11.4982 11.9466C11.9018 11.9946 12.1174 12.279 12.1174 12.279L17.4308 19.1119L20.4648 23H24.9965V17.5321C24.9965 16.4392 24.9727 15.4102 24.496 14.4559C24.4704 14.4079 24.4522 14.3582 24.4303 14.3066C24.3444 14.1112 24.2933 13.9192 24.2293 13.7433C23.97 12.9987 24.1928 12.4709 24.6001 12.2452C24.9837 12.0337 25.5061 12.0373 25.8988 12.4691C26.1655 12.7659 33.9708 23 33.9708 23H37.724V7H34.5787Z" fill="#FAFAF9"/>
<path d="M77.5249 10.0606C78.071 9.74067 78.8382 9.56829 79.83 9.56829C80.7433 9.56829 81.5616 9.73356 82.2648 10.0534C82.9808 10.3751 83.6165 10.8443 84.1572 11.4502L84.6138 11.9621L86.3764 9.56296L86.0641 9.24664C85.518 8.68329 84.9389 8.21236 84.3289 7.84094C83.7188 7.46597 83.0265 7.17097 82.2831 6.97194C81.5379 6.76401 80.7104 6.66272 79.8318 6.66272C78.6519 6.66272 77.576 6.83154 76.6335 7.17453C75.6709 7.52284 74.8873 8.04709 74.3284 8.74727C73.7585 9.45633 73.4699 10.3165 73.4699 11.2903C73.4699 12.1824 73.6873 12.9697 74.133 13.6148C74.5659 14.2456 75.2088 14.7841 76.0289 15.2071C76.8253 15.6229 77.8537 15.9819 79.0903 16.284L79.4592 16.3693L79.5232 16.1418L79.4702 16.3693C80.473 16.6305 81.242 16.8704 81.7589 17.0819L81.852 16.8669L81.7589 17.0855C82.232 17.2845 82.5553 17.512 82.7452 17.7625C82.8384 17.8869 82.9078 18.0433 82.9553 18.2175C82.9955 18.3703 83.0247 18.5427 83.0247 18.7382C83.0247 19.1842 82.9114 19.5396 82.7014 19.8293C82.5918 19.9786 82.4658 20.119 82.2977 20.2327C81.768 20.597 80.9881 20.8032 79.9487 20.8032C78.9752 20.8032 78.0473 20.5846 77.1742 20.1616L77.0683 20.3696L77.1742 20.1581C76.2956 19.7245 75.6052 19.1913 75.1193 18.5693L74.6736 17.9936L72.8489 20.4797L73.1283 20.7996C73.9046 21.6722 74.8873 22.3759 76.0472 22.8984C77.2126 23.4297 78.5295 23.6892 79.9487 23.6892C81.1908 23.6892 82.3068 23.5044 83.253 23.1294C84.2193 22.7491 84.9992 22.1715 85.5454 21.4198C86.0988 20.6574 86.3746 19.7369 86.3746 18.692C86.3746 17.7537 86.1445 16.9309 85.6878 16.2573C85.2421 15.5962 84.5645 15.0436 83.706 14.6099V14.6011C82.8694 14.1817 81.7771 13.8067 80.4474 13.4886L80.0474 13.4033C79.1414 13.1723 78.4491 12.9572 77.9797 12.7546C77.5505 12.5752 77.2527 12.3584 77.0865 12.1362C76.9239 11.9176 76.8363 11.6386 76.8363 11.2601C76.8363 10.9864 76.8966 10.759 77.0098 10.567C77.123 10.3751 77.2929 10.2063 77.5395 10.0623H77.5304L77.5249 10.0606Z" fill="#FAFAF9"/>
<path d="M97.7084 7.00178C97.3998 7.00178 97.0929 7.0231 96.7879 7.07108C96.2143 7.16172 95.944 7.27545 95.6389 7.40696C95.4855 7.47271 95.0216 7.75883 94.4078 7.75883C93.7941 7.75883 93.4032 7.48693 93.2699 7.43184C92.9868 7.31455 92.7256 7.20614 92.2835 7.11373C91.9 7.03377 91.5091 7 91.1164 7H87.8486V9.88247H91.8817C92.4315 9.88247 92.8772 10.3214 92.8772 10.8599V23H95.9513V10.8563C95.9513 10.3196 96.397 9.88247 96.9468 9.88247H101V7.00178H97.7048H97.7084Z" fill="#FAFAF9"/>
</g>
<defs>
<clipPath id="clip0_5554_605">
<rect width="100" height="30" fill="white"/>
</clipPath>
</defs>
</svg>
