<svg width="574" height="147" viewBox="0 0 574 147" fill="none" xmlns="http://www.w3.org/2000/svg">
<path fill-rule="evenodd" clip-rule="evenodd" d="M144.753 80.1945V3.36085C144.753 2.37901 144.189 1.57568 143.5 1.57568H64.2003C63.9373 1.57568 63.6868 1.68279 63.4739 1.89701L37.4831 28.2104C36.4935 29.2101 36.9946 31.4416 38.2096 31.4416H102.228L141.759 4.98536L113.251 37.4933V110.667C113.251 112.131 114.416 112.97 115.243 112.095L144.239 81.6227C144.565 81.2835 144.753 80.7658 144.753 80.1945ZM81.2539 145.996L107.27 119.651C108.259 118.648 107.758 116.45 106.544 116.45H32.7394C32.0509 116.45 31.4875 115.676 31.4875 114.691V37.2223C31.4875 35.7626 30.3106 34.936 29.4843 35.8154L0.500795 66.2754C0.187798 66.6096 0 67.1372 0 67.6823V132.26C0 140.034 4.48211 146.33 10.0159 146.33H80.5153C80.7782 146.33 81.0411 146.207 81.2539 145.996Z" fill="white"/>
<path d="M283.992 118.727H211.74V0H232.676V99.6418H283.992V118.727Z" fill="white"/>
<path d="M294.066 75.3874C294.066 61.4974 297.739 50.6029 305.085 42.7036C312.483 34.7514 322.505 30.7752 335.15 30.7752C347.008 30.7752 356.505 34.3007 363.641 41.3517C370.882 48.3497 374.503 58.025 374.503 70.3775C374.503 74.3006 374.267 77.561 373.794 80.1587H314.529V84.8506C314.529 90.7883 316.418 95.5596 320.196 99.1646C324.026 102.77 329.064 104.572 335.308 104.572C340.292 104.572 344.516 103.459 347.979 101.232C351.495 98.9526 353.882 95.9307 355.141 92.1666H374.975C373.139 100.702 368.679 107.541 361.595 112.683C354.249 117.773 345.487 120.318 335.308 120.318C322.4 120.318 312.299 116.315 305.006 108.31C297.713 100.145 294.066 89.1713 294.066 75.3874ZM314.529 64.6518V66.3218H354.512V64.0157C354.512 58.7142 352.701 54.473 349.081 51.2921C345.513 48.0581 340.764 46.4412 334.835 46.4412C328.749 46.4412 323.843 48.1111 320.117 51.4511C316.392 54.791 314.529 59.1913 314.529 64.6518Z" fill="white"/>
<path d="M386.151 93.8366C386.151 85.4603 388.906 78.9129 394.415 74.1945C399.977 69.4762 407.585 67.117 417.24 67.117H441.087V61.3914C441.087 51.5306 435.919 46.6002 425.582 46.6002C415.403 46.6002 409.92 50.9475 409.133 59.6419H389.535C390.218 50.5233 393.838 43.4458 400.397 38.4094C406.956 33.32 415.692 30.7752 426.606 30.7752C433.217 30.7752 438.936 31.7825 443.763 33.7971C448.591 35.8117 452.211 38.5419 454.625 41.9879C458.927 48.1907 461.079 54.7645 461.079 61.7095V104.413H472.333V118.727H455.884C451.476 118.727 448.25 117.932 446.203 116.342C444.209 114.751 442.924 112.233 442.347 108.787L442.189 105.208H441.087C439.251 109.768 435.814 113.426 430.777 116.182C425.792 118.939 420.047 120.318 413.541 120.318C405.145 120.318 398.482 117.958 393.549 113.24C388.617 108.469 386.151 102.001 386.151 93.8366ZM406.3 90.2581V94.1547C406.3 97.6007 407.506 100.225 409.92 102.027C412.386 103.83 415.744 104.731 419.994 104.731C426.396 104.731 431.512 102.823 435.342 99.0056C439.172 95.1355 441.087 90.0461 441.087 83.7373V79.9997H420.467C416.007 79.9997 412.517 80.954 409.999 82.8625C407.533 84.718 406.3 87.1832 406.3 90.2581Z" fill="white"/>
<path d="M507.593 145.924H487.681V32.4452H505.232L507.593 47.7135H508.931C511.607 42.306 515.516 38.1443 520.658 35.2285C525.801 32.2597 531.677 30.7752 538.288 30.7752C549.255 30.7752 557.807 34.6718 563.946 42.465C570.138 50.2583 573.234 61.1263 573.234 75.0693C573.234 89.0653 570.138 99.9864 563.946 107.833C557.755 115.626 549.202 119.522 538.288 119.522C531.257 119.522 525.197 118.038 520.107 115.069C515.018 112.1 511.293 107.939 508.931 102.584H507.593V145.924ZM531.126 103.061C537.842 103.061 543.089 101.285 546.867 97.7332C550.698 94.1282 552.613 89.1183 552.613 82.7035V67.5942C552.613 61.2324 550.75 56.249 547.025 52.6439C543.352 49.0389 538.131 47.2364 531.362 47.2364C524.174 47.2364 518.402 49.3835 514.047 53.6777C509.745 57.9719 507.593 63.6976 507.593 70.8546V79.443C507.593 86.6001 509.745 92.3257 514.047 96.6199C518.35 100.914 524.043 103.061 531.126 103.061Z" fill="white"/>
</svg>
