<?xml version="1.0" encoding="UTF-8"?>
<svg width="4635.9px" height="708.232385px" viewBox="0 0 4635.9 708.232385" version="1.1" xmlns="http://www.w3.org/2000/svg" xmlns:xlink="http://www.w3.org/1999/xlink">
    <title>Tripadvisor_Logo_horizontal-lockup_registered_RGB</title>
    <g id="Page-1" stroke="none" stroke-width="1" fill="none" fill-rule="evenodd">
        <g id="Tripadvisor_Logo_horizontal-lockup_registered_RGB" fill="#FFFFFF" fill-rule="nonzero">
            <path d="M4610.9,550.552385 C4597.09288,550.552385 4585.9,561.745267 4585.9,575.552385 C4585.9,589.359504 4597.09288,600.552385 4610.9,600.552385 C4624.70712,600.552385 4635.9,589.359504 4635.9,575.552385 C4635.9,561.745267 4624.70712,550.552385 4610.9,550.552385 Z M4610.9,596.632385 C4602.37303,596.632385 4594.68586,591.495325 4591.42366,583.617041 C4588.16147,575.738757 4589.96682,566.671089 4595.99773,560.643038 C4602.02864,554.614988 4611.09716,552.813942 4618.9739,556.079876 C4626.85063,559.345811 4631.98405,567.035412 4631.98,575.562385 C4631.96897,587.198356 4622.53597,596.626873 4610.9,596.632385 L4610.9,596.632385 Z M4619.02,571.302385 C4619.02,566.752385 4615.77,564.052385 4611.02,564.052385 L4603.02,564.052385 L4603.02,586.822385 L4606.96,586.822385 L4606.96,578.562385 L4611.22,578.562385 L4615.35,586.822385 L4619.58,586.822385 L4615.11,577.712385 C4617.62213,576.599716 4619.18034,574.04522 4619.02,571.302385 L4619.02,571.302385 Z M4610.86,575.082385 L4606.99,575.082385 L4606.99,567.532385 L4610.86,567.532385 C4613.49,567.532385 4615.09,568.862385 4615.09,571.302385 C4615.09,573.742385 4613.49,575.112385 4610.86,575.112385 L4610.86,575.082385 Z M373.28,409.422385 C373.284045,449.041282 349.420776,484.761108 312.818462,499.924472 C276.216148,515.087835 234.083682,506.708285 206.068891,478.693494 C178.054101,450.678703 169.67455,408.546237 184.837914,371.943923 C200.001278,335.34161 235.721103,311.478341 275.34,311.482385 C301.315303,311.482385 326.226725,321.801034 344.594038,340.168347 C362.961351,358.53566 373.28,383.447082 373.28,409.422385 L373.28,409.422385 Z M925.46,409.422385 C925.464045,449.040372 901.601858,484.759565 865.000772,499.923515 C828.399686,515.087465 786.268004,506.709747 758.252427,478.69703 C730.23685,450.684313 721.854831,408.553487 737.015043,371.950853 C752.175256,335.348219 787.892013,311.482385 827.51,311.482385 C881.602386,311.482385 925.454478,355.329999 925.46,409.422385 Z M903.11,108.202385 C802.98,39.8823853 682.11,0.00118684632 551.43,0.00118684632 C426.182099,-0.243921926 303.801379,37.4814169 200.43,108.202385 L0,108.202385 L90.17,206.322385 C32.8299463,258.497127 0.18575488,332.457702 0.28,409.982385 C0.28,562.172385 123.66,685.552385 275.85,685.552385 C345.313033,685.643818 412.228484,659.400783 463.11,612.112385 L551.45,708.232385 L639.77,612.112385 C690.650068,659.379153 757.552756,685.607093 827,685.512385 C979.19,685.512385 1102.68,562.132385 1102.68,409.942385 C1102.77425,332.417702 1070.13005,258.457127 1012.79,206.282385 L1102.96,108.162385 L903.11,108.202385 Z M275.85,596.472385 C172.85,596.472385 89.36,512.982385 89.36,409.982385 C89.36,306.982385 172.86,223.492385 275.85,223.492385 C378.84,223.492385 462.35,306.982385 462.35,409.982385 C462.35,512.982385 378.85,596.472385 275.85,596.472385 Z M551.48,404.612385 C551.48,281.882385 462.22,176.612385 344.48,131.552385 C476.938511,76.3662738 625.951489,76.3662738 758.41,131.552385 C640.73,176.602385 551.48,281.892385 551.48,404.612385 Z M1013.48,409.982385 C1013.48,512.982385 929.98,596.472385 826.99,596.472385 C724,596.472385 640.49,512.982385 640.49,409.982385 C640.49,306.982385 723.99,223.492385 826.99,223.492385 C929.99,223.492385 1013.49,306.982385 1013.49,409.982385 L1013.48,409.982385 Z M1667.59,236.532385 L1710.96,236.532385 L1710.96,322.372385 L1660.21,322.372385 C1621.12,322.372385 1596.04,341.552385 1596.04,380.652385 L1596.04,596.472385 L1503.26,596.472385 L1503.26,236.532385 L1596.04,236.532385 L1596.04,297.012385 C1604.16,254.232385 1633.67,236.532385 1667.6,236.532385 L1667.59,236.532385 Z M1853.94,150.942385 C1853.94,181.903468 1828.84108,207.002385 1797.88,207.002385 C1766.91892,207.002385 1741.82,181.903468 1741.82,150.942385 C1741.82,119.222385 1766.16,94.1423853 1797.88,94.1423853 C1829.6,94.1423853 1853.95,119.222385 1853.95,150.942385 L1853.94,150.942385 Z M1751.61,236.532385 L1844.11,236.532385 L1844.11,596.472385 L1751.58,596.472385 L1751.61,236.532385 Z M2098.96,230.450299 C2059.52441,230.262056 2021.12975,243.100116 1989.74,266.972385 L1989.74,236.532385 L1897.22,236.532385 L1897.22,702.112385 L1989.74,702.112385 L1989.74,566.032385 C2021.12975,589.904655 2059.52441,602.742715 2098.96,602.552385 C2201.72,602.552385 2284.96,519.252385 2284.96,416.502385 C2284.96,313.752385 2201.73,230.450299 2098.97,230.450299 L2098.96,230.450299 Z M2090.81,517.572385 C2049.931,517.572385 2013.07721,492.94747 1997.4335,455.1802 C1981.78978,417.412929 1990.4369,373.94092 2019.34272,345.035103 C2048.24854,316.129285 2091.72054,307.482165 2129.48781,323.125881 C2167.25509,338.769597 2191.88,375.623386 2191.88,416.502385 C2191.88,472.3179 2146.63551,517.566863 2090.82,517.572385 L2090.81,517.572385 Z M3981.38,482.772385 C3981.38,552.172385 3921.84,602.552385 3839.81,602.552385 C3754.69,602.552385 3695.24,550.982385 3695.24,477.132385 L3695.24,475.132385 L3785.78,475.132385 L3785.78,477.132385 C3785.78,507.952385 3807.78,528.662385 3840.56,528.662385 C3871.98,528.662385 3893.09,513.332385 3893.09,490.522385 C3893.09,468.912385 3878.48,456.832385 3839.2,445.962385 L3787.49,431.862385 C3733.15,417.152385 3701.99,381.742385 3701.99,334.722385 C3701.99,274.302385 3758.99,230.452385 3837.56,230.452385 C3916.86,230.452385 3970.14,274.332385 3970.14,339.662385 L3970.14,341.712385 L3884.84,341.712385 L3884.84,339.662385 C3884.84,317.482385 3864.07,300.112385 3837.56,300.112385 C3809.72,300.112385 3790.28,312.892385 3790.28,331.202385 C3790.28,349.962385 3804.12,360.862385 3839.64,370.112385 L3893.64,384.922385 C3966.16,404.272385 3981.39,448.812385 3981.39,482.772385 L3981.38,482.772385 Z M2613.38,266.972385 C2581.97665,243.089662 2543.56269,230.251024 2504.11,230.450052 C2401.35,230.450052 2318.06,313.752385 2318.06,416.502385 C2318.06,519.252385 2401.37,602.554471 2504.11,602.554471 C2543.54559,602.742715 2581.94025,589.904655 2613.33,566.032385 L2613.33,596.472385 L2705.85,596.472385 L2705.85,236.532385 L2613.33,236.532385 L2613.38,266.972385 Z M2613.38,416.512385 C2613.37448,472.330503 2568.12145,517.576067 2512.30333,517.572385 C2456.48522,517.568703 2411.24,472.31717 2411.24,416.499052 C2411.24,360.680934 2456.49188,315.432385 2512.31,315.432385 C2568.11932,315.45447 2613.35,360.70306 2613.35,416.512385 L2613.38,416.512385 Z M3040.11,266.972385 C3008.72025,243.100116 2970.32559,230.262056 2930.89,230.452385 C2828.14,230.452385 2744.84,313.752385 2744.84,416.502385 C2744.84,519.252385 2828.14,602.554471 2930.89,602.554471 C2970.32559,602.742715 3008.72025,589.904655 3040.11,566.032385 L3040.11,596.472385 L3132.64,596.472385 L3132.64,108.412385 L3040.11,108.412385 L3040.11,266.972385 Z M2939.05,517.572393 C2898.17009,517.57643 2861.31323,492.95408 2845.66637,455.187129 C2830.0195,417.420179 2838.66415,373.94653 2867.56918,345.038639 C2896.47421,316.130748 2939.94701,307.481795 2977.7155,323.124925 C3015.484,338.768054 3040.11,375.622476 3040.11,416.502385 C3040.11,443.314748 3029.4561,469.028361 3010.49314,487.983814 C2991.53019,506.939266 2965.81236,517.582997 2939,517.572393 L2939.05,517.572393 Z M3562.39,236.572385 L3654.92,236.572385 L3654.92,596.472385 L3562.39,596.472385 L3562.39,236.572385 Z M3664.72,150.982385 C3664.72,181.943468 3639.62108,207.042385 3608.66,207.042385 C3577.69892,207.042385 3552.6,181.943468 3552.6,150.982385 C3552.6,119.262385 3576.94,94.1823853 3608.66,94.1823853 C3640.38,94.1823853 3664.67,119.222385 3664.67,150.942385 L3664.72,150.982385 Z M4195.43,230.492385 C4092.68,230.492385 4009.38,313.792385 4009.38,416.542385 C4009.38,519.292385 4092.68,602.592385 4195.43,602.592385 C4298.18,602.592385 4381.43,519.292385 4381.43,416.542385 C4381.43,313.792385 4298.11,230.452385 4195.38,230.452385 L4195.43,230.492385 Z M4195.43,517.612385 C4154.551,517.612385 4117.69721,492.98747 4102.0535,455.2202 C4086.40978,417.452929 4095.0569,373.98092 4123.96272,345.075103 C4152.86854,316.169285 4196.34054,307.522165 4234.10781,323.165881 C4271.87509,338.809597 4296.5,375.663386 4296.5,416.542385 C4296.49205,443.350364 4285.83294,469.056759 4266.86839,488.004422 C4247.90385,506.952086 4222.18798,517.588303 4195.38,517.572385 L4195.43,517.612385 Z M1548.66,190.982385 L1417.25,190.982385 L1417.25,596.472385 L1325.03,596.472385 L1325.03,190.982385 L1193.62,190.982385 L1193.62,108.412385 L1548.62,108.412385 L1548.66,190.982385 Z M3426.42,236.532385 L3523.63,236.532385 L3399.42,596.472385 L3288.11,596.472385 L3164.58,236.532385 L3261.78,236.532385 L3344.11,497.902385 L3426.42,236.532385 Z M4588.61,236.532385 L4631.98,236.532385 L4631.98,322.372385 L4581.23,322.372385 C4542.14,322.372385 4517.05,341.552385 4517.05,380.652385 L4517.05,596.472385 L4424.28,596.472385 L4424.28,236.532385 L4517.05,236.532385 L4517.05,297.012385 C4525.17,254.232385 4554.68,236.532385 4588.61,236.532385 Z" id="Shape"></path>
        </g>
    </g>
</svg>