<svg width="100" height="29" viewBox="0 0 100 29" fill="none" xmlns="http://www.w3.org/2000/svg">
<g clip-path="url(#clip0_1_8755)">
<path d="M0 0.371248L6.35 0.350586L12.0629 11.7341L17.8169 0.371248L24.1669 0.350586L15.0015 17.2402L14.981 28.067L9.12423 28.0463L9.18587 17.4465L0 0.371248Z" fill="white"/>
<path d="M45.3125 22.3133L39.4764 18.1476L33.8044 22.1896L36.024 15.508L30.311 11.3835L37.298 11.301L39.5174 4.49563L41.6957 11.301L48.7239 11.3835L43.1343 15.508L45.3125 22.3133ZM52.7518 14.3118C52.6206 3.17631 46.0051 0 39.5585 0C33.112 0 26.321 2.84569 26.3655 14.3944C26.4065 25.0767 33.112 28.5 39.5585 28.5C46.0051 28.5 52.875 24.788 52.7518 14.3118Z" fill="white"/>
<path d="M80.6588 0.288479L74.1004 0.268555L64.2189 12.8127V0.370999H58.3828V28.0873H64.2189V18.265L66.7196 16.4497L73.9616 28.105L80.6588 28.0873L70.9332 12.6211L80.6588 0.288479Z" fill="white"/>
<path d="M99.9999 5.16979V0.347656H87.5263V0.34873H84.0801V28.0652H87.5122V28.0726H99.9865V23.2504H89.9161V16.0429H99.3285V11.2207H89.9161V5.16979H99.9999Z" fill="white"/>
</g>
<defs>
<clipPath id="clip0_1_8755">
<rect width="100" height="29" fill="white"/>
</clipPath>
</defs>
</svg>
