<svg width="122" height="48" viewBox="0 -8 122 39" fill="none" xmlns="http://www.w3.org/2000/svg">
  <g clip-path="url(#clip0_6754_8146)">
    <path
      d="M101.175 31.8576C101.175 32.5699 100.956 33.1998 100.518 33.7204C100.463 33.8025 100.38 33.8575 100.326 33.9396C99.7503 34.5148 99.038 34.8161 98.2436 34.8161C97.4218 34.8161 96.7369 34.5148 96.1617 33.9396C96.0796 33.8575 96.0246 33.8025 95.9425 33.7204C95.5043 33.1998 95.2852 32.5699 95.2852 31.8576C95.2852 31.6385 95.3123 31.4465 95.3398 31.2549C95.8604 31.8302 96.5453 32.2684 97.3122 32.4329C97.5862 32.4875 97.8875 32.5424 98.189 32.5424H98.326C98.5998 32.5424 98.8738 32.515 99.1476 32.4603C99.9148 32.2684 100.627 31.8576 101.147 31.3095C101.175 31.474 101.175 31.6657 101.175 31.8576Z"
      fill="#ffffff" />
    <path
      d="M47.59 1.13008C47.4805 1.13008 47.3984 1.10269 47.2888 1.10269C45.7818 1.10269 44.5492 2.22587 44.3575 3.7052C42.4123 1.5684 39.7826 0.5 36.5498 0.5C33.2077 0.5 30.3586 1.73276 27.9754 4.19829C25.6194 6.66382 24.4414 9.67725 24.4414 13.266C24.4414 16.7999 25.6194 19.8407 27.9754 22.3336C30.3314 24.7992 33.2077 26.032 36.5498 26.032C39.81 26.032 42.4123 24.9635 44.3575 22.7994C44.5217 24.2787 45.7818 25.4292 47.2888 25.4292C47.3709 25.4292 47.4805 25.4292 47.59 25.4292C49.1242 25.2923 50.2473 23.9225 50.2473 22.3884V4.17091C50.2473 2.63679 49.1242 1.26705 47.59 1.13008ZM42.3577 18.3888C41.0427 19.7038 39.3715 20.3886 37.3445 20.3886C35.3171 20.3886 33.646 19.7311 32.3312 18.3888C31.0162 17.0191 30.3314 15.348 30.3314 13.266C30.3314 11.2114 30.9887 9.51288 32.3312 8.19794C33.646 6.82819 35.3171 6.17071 37.3445 6.17071C39.3715 6.17071 41.0427 6.8556 42.3577 8.19794C43.6724 9.51288 44.3575 11.2114 44.3575 13.266C44.3575 15.3206 43.6724 17.0191 42.3577 18.3888ZM87.8057 3.21209C86.0796 1.40403 83.8334 0.5 81.0664 0.5C77.9434 0.5 75.5328 1.62319 73.8891 3.86955C72.3549 1.62319 70.1085 0.5 67.2047 0.5C64.4925 0.5 62.3285 1.43142 60.7669 3.29428C60.3561 2.03411 59.1781 1.13008 57.781 1.13008H57.6439C56.1919 1.13008 55.0414 2.30806 55.0414 3.73258V22.3884C55.0414 24.0047 56.3015 25.4292 57.9452 25.4292H58.0001C59.6163 25.4292 60.9585 24.1143 60.9585 22.4706V11.8689C60.9585 9.8964 61.4242 8.47187 62.301 7.54046C63.1775 6.55426 64.3283 6.08852 65.7526 6.08852C67.0677 6.08852 68.0265 6.49945 68.6839 7.2939C69.3687 8.06097 69.7523 9.21154 69.7523 10.773V22.361C69.7523 23.9773 71.0399 25.3745 72.6562 25.4019H72.7111C74.3273 25.4019 75.6698 24.0869 75.6698 22.4432V11.8689C75.6698 9.84162 76.1081 8.41709 76.9299 7.48568C77.779 6.55426 78.9298 6.06115 80.3815 6.06115C81.6966 6.06115 82.6826 6.47207 83.4224 7.2939C84.1347 8.06097 84.5457 9.21154 84.5457 10.773V22.361C84.5457 23.9773 85.8058 25.3745 87.4495 25.4019H87.5042C89.1479 25.4019 90.4629 24.0869 90.4629 22.4432V10.4443C90.3533 7.45827 89.504 5.02014 87.8057 3.21209Z"
      fill="#ffffff" />
    <path
      d="M117.585 4.2531C115.201 1.76016 112.352 0.5 109.01 0.5C105.75 0.5 103.147 1.5684 101.202 3.73258C101.038 2.25327 99.7779 1.10269 98.2712 1.10269C98.1891 1.10269 98.0796 1.10269 97.97 1.13008C96.4359 1.26705 95.3125 2.63679 95.3125 4.17091V28.8674C95.3125 28.977 95.3125 29.0591 95.34 29.1686C95.3674 29.3331 95.3949 29.4973 95.477 29.6618C95.5316 29.7988 95.614 29.963 95.6961 30.0726C96.2167 30.8944 97.2028 31.4425 98.2163 31.4425H98.3533C99.3397 31.4425 100.326 30.8945 100.846 30.1001C100.928 29.963 101.011 29.826 101.065 29.6893C101.12 29.5248 101.175 29.3603 101.202 29.1961C101.23 29.0865 101.23 28.9495 101.23 28.84V22.8267C103.175 24.9635 105.777 26.0045 109.037 26.0045C112.379 26.0045 115.229 24.7718 117.612 22.3063C119.968 19.8407 121.146 16.7999 121.146 13.2386C121.118 9.73206 119.94 6.71863 117.585 4.2531ZM113.229 18.3888C111.914 19.7038 110.243 20.3886 108.216 20.3886C106.188 20.3886 104.517 19.7311 103.202 18.3888C101.887 17.0191 101.202 15.348 101.202 13.266C101.202 11.2114 101.887 9.51288 103.202 8.19794C104.545 6.82819 106.188 6.17071 108.216 6.17071C110.243 6.17071 111.914 6.8556 113.229 8.19794C114.544 9.51288 115.229 11.2114 115.229 13.266C115.229 15.3206 114.544 17.0191 113.229 18.3888Z"
      fill="#ffffff" />
    <path
      d="M20.3858 5.12957C20.3036 5.40351 20.1392 5.65006 19.9748 5.86924L10.0305 19.7858H16.1019C16.8416 19.7858 17.5264 20.0597 18.0469 20.5255C18.6222 21.0185 18.9783 21.7308 19.0058 22.5527C19.0058 23.3745 18.677 24.1416 18.1017 24.662C17.6086 25.1278 16.9237 25.4017 16.1841 25.4017H4.82552C2.85309 25.4291 1.34637 23.4841 2.08603 21.4021C2.16822 21.1281 2.33259 20.8816 2.49696 20.6624L12.496 6.71847H6.3699C5.65763 6.71847 5.00015 6.44451 4.50704 6.00621C3.93177 5.48569 3.54824 4.71865 3.57562 3.86942C3.57562 3.07496 3.93177 2.39009 4.47966 1.89699C5.00015 1.40388 5.71241 1.10254 6.47949 1.10254H17.6463C19.5913 1.10254 21.1254 3.04757 20.3858 5.12957Z"
      fill="#ffffff" />
    <path
      d="M19.657 19.916C20.3227 19.916 20.9116 20.1224 21.3981 20.5353C21.4749 20.5869 21.5261 20.6643 21.6029 20.7159C22.1406 21.2577 22.4222 21.9286 22.4222 22.6768C22.4222 23.4509 22.1406 24.096 21.6029 24.6378C21.5261 24.7152 21.4749 24.7668 21.3981 24.8442C20.9116 25.257 20.3227 25.4635 19.657 25.4635C19.4522 25.4635 19.273 25.4377 19.0938 25.4118C19.6314 24.9216 20.0411 24.2766 20.1947 23.5541C20.2459 23.2961 20.2971 23.0123 20.2971 22.7284V22.5994C20.2971 22.3414 20.2715 22.0834 20.2203 21.8254C20.0411 21.1029 19.657 20.432 19.145 19.9418C19.2986 19.916 19.4778 19.916 19.657 19.916Z"
      fill="#ffffff" />
    <path
      d="M2.99567 6.64999C2.32996 6.64999 1.74108 6.44357 1.25461 6.03073C1.1778 5.97914 1.12659 5.90173 1.04978 5.85014C0.512108 5.30829 0.230469 4.63744 0.230469 3.88917C0.230469 3.11511 0.512108 2.47005 1.04978 1.92821C1.1266 1.8508 1.1778 1.7992 1.25461 1.7218C1.74108 1.30896 2.32996 1.10254 2.99567 1.10254C3.20048 1.10254 3.37972 1.12835 3.55893 1.15415C3.02127 1.64439 2.6116 2.28944 2.45798 3.0119C2.40677 3.26992 2.35557 3.55374 2.35557 3.83755V3.96658C2.35557 4.22459 2.38117 4.48261 2.43238 4.74065C2.6116 5.46309 2.99567 6.13394 3.50773 6.6242C3.35412 6.64999 3.17488 6.64999 2.99567 6.64999Z"
      fill="#ffffff" />
  </g>
  <defs>
    <clipPath id="clip0_6754_8146">
      <rect width="121.212" height="38" fill="white" transform="translate(0 0.5)" />
    </clipPath>
  </defs>
</svg>