<svg width="800" height="450" viewBox="0 0 800 600" fill="none" xmlns="http://www.w3.org/2000/svg">
<path d="M630.766 293.361C623.608 292.588 616.449 291.62 609.484 290.653C608.323 290.459 607.549 289.492 607.743 288.331C607.936 287.17 608.903 286.396 610.064 286.59C658.047 293.555 708.351 295.103 759.623 291.233C760.784 291.233 761.751 292.007 761.751 293.168C761.751 294.329 760.977 295.296 759.816 295.296C715.703 298.585 672.558 297.811 630.766 293.361Z" fill="#18435c"></path>
<path d="M609.482 290.459C609.482 290.459 609.289 290.459 609.482 290.459C606.193 290.072 602.904 289.492 599.808 288.911C598.841 288.718 598.067 287.751 598.26 286.783C598.454 285.816 599.422 285.042 600.389 285.235C603.485 285.816 606.58 286.203 609.869 286.59C610.837 286.783 611.611 287.751 611.417 288.718C611.417 289.879 610.45 290.653 609.482 290.459ZM590.328 287.557C587.039 286.977 583.75 286.396 580.654 285.816C579.687 285.622 578.913 284.655 579.106 283.494C579.3 282.527 580.267 281.753 581.428 281.946C584.524 282.527 587.619 283.107 590.908 283.688C591.876 283.881 592.65 284.848 592.456 286.009C592.263 286.977 591.296 287.557 590.328 287.557ZM571.367 283.881C571.367 283.881 571.174 283.881 571.367 283.881C567.885 283.107 564.789 282.527 561.693 281.753C560.726 281.559 559.952 280.398 560.145 279.431C560.339 278.464 561.5 277.69 562.467 277.883C565.563 278.657 568.659 279.238 571.948 279.818C572.915 280.012 573.689 280.979 573.495 282.14C573.302 283.301 572.335 284.075 571.367 283.881ZM552.406 279.624H552.212L549.891 279.044C547.569 278.464 545.248 277.883 542.926 277.303C541.958 277.109 541.184 275.948 541.571 274.981C541.765 274.014 542.926 273.24 543.893 273.627C546.215 274.207 548.536 274.787 550.858 275.368L553.18 275.948C554.147 276.142 554.922 277.303 554.535 278.27C554.341 279.237 553.374 279.818 552.406 279.624ZM533.639 274.788C533.445 274.788 533.445 274.788 533.252 274.788C530.156 274.014 526.867 273.046 523.965 272.079C522.997 271.692 522.417 270.725 522.611 269.757C522.998 268.79 523.965 268.209 524.932 268.403C528.028 269.37 531.124 270.144 534.219 270.918C535.187 271.111 535.767 272.272 535.574 273.24C535.574 274.401 534.606 274.981 533.639 274.788ZM515.065 269.564C514.871 269.564 514.871 269.564 514.678 269.564C511.582 268.596 508.486 267.629 505.391 266.661C504.423 266.274 503.843 265.307 504.23 264.146C504.617 263.179 505.584 262.598 506.745 262.985C509.841 263.953 512.743 264.92 516.032 265.888C516.999 266.274 517.58 267.242 517.386 268.209C516.999 268.983 516.032 269.564 515.065 269.564ZM496.684 263.566C496.491 263.566 496.491 263.566 496.297 263.566C493.202 262.598 490.106 261.438 487.204 260.47C486.237 260.083 485.656 258.922 486.043 257.955C486.43 256.987 487.591 256.407 488.558 256.794C491.46 257.761 494.556 258.922 497.652 259.89C498.619 260.277 499.2 261.244 498.813 262.405C498.426 263.179 497.652 263.759 496.684 263.566ZM478.497 257.181C478.304 257.181 478.111 257.181 478.111 256.987C475.015 255.827 471.919 254.666 469.017 253.698C468.049 253.311 467.469 252.15 467.856 251.183C468.243 250.216 469.404 249.635 470.371 250.022C473.274 251.183 476.369 252.151 479.465 253.311C480.432 253.698 481.012 254.859 480.625 255.827C480.238 256.794 479.271 257.181 478.497 257.181ZM460.31 250.409C460.117 250.409 459.923 250.409 459.923 250.216L450.83 246.733C449.862 246.346 449.282 245.185 449.669 244.218C450.056 243.251 451.217 242.67 452.184 243.057L461.278 246.54C462.245 246.927 462.826 248.087 462.439 249.055C462.052 250.022 461.278 250.409 460.31 250.409ZM442.317 243.638C442.124 243.638 441.93 243.637 441.93 243.444C438.834 242.283 435.932 241.122 432.836 240.155C431.869 239.768 431.289 238.607 431.676 237.64C432.063 236.672 433.223 236.092 434.191 236.479C437.093 237.64 440.189 238.607 443.284 239.768C444.252 240.155 444.832 241.316 444.445 242.283C444.058 243.251 443.091 243.638 442.317 243.638ZM424.13 237.059C423.936 237.059 423.936 237.059 423.743 237.059C420.454 235.898 417.552 234.931 414.649 234.157C413.682 233.77 413.102 232.803 413.295 231.835C413.682 230.868 414.649 230.288 415.617 230.481C418.519 231.448 421.615 232.416 424.904 233.383C425.871 233.77 426.451 234.737 426.065 235.898C425.871 236.672 424.904 237.059 424.13 237.059ZM405.556 231.448C405.556 231.448 405.362 231.448 405.169 231.448C402.073 230.674 398.784 229.901 395.882 229.127C394.915 228.933 394.141 227.772 394.334 226.805C394.528 225.837 395.495 225.064 396.656 225.257C399.752 225.837 402.847 226.805 406.136 227.579C407.104 227.772 407.878 228.933 407.491 229.9C407.491 230.868 406.523 231.448 405.556 231.448ZM357.767 224.87C356.799 224.677 356.025 223.903 356.025 222.935C356.025 221.774 356.993 221 357.96 221C361.249 221 364.539 221.194 367.828 221.387C368.795 221.387 369.762 222.355 369.569 223.516C369.569 224.677 368.601 225.451 367.44 225.257C364.345 225.064 361.056 225.064 357.96 224.87C357.96 224.87 357.96 224.87 357.767 224.87ZM386.788 227.192C386.595 227.192 386.595 227.192 386.788 227.192C383.499 226.611 380.404 226.224 377.114 225.837C376.147 225.644 375.373 224.677 375.373 223.709C375.567 222.742 376.534 221.968 377.502 221.968C380.597 222.355 383.886 222.742 387.176 223.322C388.143 223.516 388.917 224.483 388.723 225.644C388.723 226.611 387.756 227.385 386.788 227.192Z" fill="#18435c"></path>
<path d="M218.462 331.863C214.206 331.476 209.369 329.735 204.725 327.026C195.245 321.609 188.473 313.096 187.506 305.55C186.151 295.489 194.084 283.88 207.628 272.465C202.984 269.37 197.76 266.274 191.956 263.372C139.33 236.672 92.8948 244.217 66.7752 260.083C65.8078 260.663 64.6471 260.276 64.0667 259.502C63.4862 258.535 63.8728 257.374 64.6467 256.794C83.0272 245.572 105.858 240.541 130.623 242.283C151.712 243.637 174.156 250.022 193.89 260.083C200.082 263.178 205.693 266.661 210.917 270.144C238.391 248.667 285.599 228.546 330.68 222.741C340.16 221.58 349.06 221 357.767 221C358.928 221 359.702 221.967 359.702 222.935C359.702 224.096 358.734 224.87 357.767 224.87C349.06 224.87 340.354 225.45 331.26 226.611C285.212 232.609 240.326 252.343 214.399 272.465C229.297 283.494 238.777 295.876 239.745 306.518C240.519 315.611 235.682 327.413 227.169 330.896C224.653 332.057 221.751 332.25 218.462 331.863ZM211.304 274.981C198.147 285.815 190.602 296.65 191.763 305.163C192.536 311.548 198.534 318.707 206.853 323.544C214.012 327.607 220.978 328.961 225.621 327.22C232.393 324.511 236.262 314.257 235.682 306.905C234.908 297.231 225.814 285.622 211.304 274.981Z" fill="#18435c"></path>
<path d="M11.8276 379.072C10.8602 378.879 10.086 378.105 10.086 377.137C10.086 376.751 9.89251 373.074 10.086 367.27C10.086 366.109 11.0534 365.335 12.0208 365.335C12.9882 365.335 13.9556 366.303 13.9556 367.27C13.7621 372.881 13.7621 376.364 13.9556 376.75C13.9556 377.911 13.1816 378.685 12.0208 378.685C12.0208 379.072 12.0211 379.072 11.8276 379.072ZM12.6013 359.724C11.6339 359.531 10.8602 358.757 10.8602 357.596C10.8602 356.822 11.0534 355.855 11.0534 354.887C11.2469 352.566 11.6338 350.244 12.0208 347.922C12.2143 346.955 13.1818 346.181 14.1492 346.374C15.1166 346.568 15.8906 347.535 15.6972 348.503C15.3102 350.824 15.1167 353.146 14.7298 355.468C14.5363 356.435 14.5361 357.209 14.5361 357.983C14.7296 359.144 13.7622 359.918 12.6013 359.724ZM15.5035 340.57C15.5035 340.57 15.31 340.57 15.5035 340.57C14.3426 340.377 13.5689 339.409 13.7624 338.248C14.3428 334.959 15.1164 331.863 15.8903 328.768C16.0838 327.8 17.2446 327.027 18.212 327.413C19.1794 327.607 19.9537 328.768 19.5667 329.735C18.7928 332.831 18.0187 335.927 17.4383 339.022C17.4383 340.183 16.4709 340.763 15.5035 340.57ZM20.3404 321.996C20.147 321.996 20.1471 321.996 19.9536 321.996C18.9862 321.609 18.4056 320.642 18.7925 319.481C19.7599 316.385 20.9207 313.289 22.0816 310.194C22.4685 309.226 23.6295 308.646 24.5969 309.033C25.5643 309.42 26.1449 310.581 25.7579 311.548C24.5971 314.45 23.4363 317.546 22.4689 320.448C22.0819 321.416 21.3078 321.996 20.3404 321.996ZM27.4991 304.003C27.3056 304.003 27.112 304.003 26.9185 303.809C25.9511 303.422 25.5642 302.261 25.9511 301.294C27.3055 298.392 28.8536 295.49 30.5949 292.587C31.1753 291.62 32.336 291.426 33.3034 291.813C34.2708 292.394 34.4646 293.555 34.0776 294.522C32.5298 297.231 30.9819 300.133 29.6275 302.842C29.0471 303.616 28.273 304.003 27.4991 304.003ZM37.173 287.363C36.786 287.363 36.5926 287.17 36.2056 286.976C35.2382 286.396 35.0448 285.235 35.8187 284.268C37.7535 281.559 39.6885 278.85 41.8168 276.529C42.5907 275.755 43.7514 275.561 44.5253 276.335C45.2992 277.109 45.4929 278.27 44.7189 279.044C42.7842 281.366 40.6559 283.881 38.9146 286.59C38.5276 286.976 37.9469 287.363 37.173 287.363ZM49.7491 272.659C49.3621 272.659 48.9755 272.466 48.5885 272.079C47.8146 271.305 47.8146 270.144 48.5885 269.37C50.9103 267.048 53.4253 264.92 56.134 262.985C56.9079 262.405 58.2621 262.405 58.8425 263.372C59.4229 264.339 59.423 265.5 58.4556 266.081C55.9404 268.016 53.6188 270.144 51.297 272.272C50.9101 272.466 50.3295 272.659 49.7491 272.659ZM65.0342 260.857C64.4538 260.857 63.8729 260.47 63.6795 259.889C63.099 258.922 63.4861 257.761 64.26 257.181L64.8405 256.794C65.8079 256.213 66.9686 256.407 67.549 257.374C68.1295 258.342 67.9364 259.503 66.969 260.083L66.3884 260.47C66.0015 260.663 65.4211 260.857 65.0342 260.857Z" fill="#000000"></path>
<path d="M752.852 277.497L761.364 309.227L789.999 289.686L752.852 277.497Z" fill="#316481"></path>
</svg>
