<svg width="115" height="35" viewBox="0 0 115 35" fill="none" xmlns="http://www.w3.org/2000/svg">
<path fill-rule="evenodd" clip-rule="evenodd" d="M1.06703 0.854492C0.355675 1.42416 0 2.22167 0 3.24707C0 4.26107 0.355675 5.05289 1.06703 5.62256C1.77839 6.19222 2.61577 6.47705 3.57919 6.47705C4.5314 6.47705 5.36037 6.18937 6.06613 5.61401C6.77189 5.03865 7.12477 4.24968 7.12477 3.24707C7.12477 2.22167 6.77189 1.42416 6.06613 0.854492C5.36037 0.284828 4.5314 0 3.57919 0C2.61577 0 1.77839 0.284828 1.06703 0.854492ZM6.73828 7.98096H0.386485V24.9854H6.73828V7.98096ZM8.17444 24.9854V7.69043H13.7701L14.0557 9.5874C14.7391 8.77848 15.5625 8.18604 16.5259 7.81006C17.4333 7.45687 18.3407 7.28027 19.2481 7.28027H19.4161C20.1667 7.29167 20.8584 7.37996 21.4914 7.54517C22.1243 7.71037 22.7264 7.9895 23.2978 8.38257C23.8691 8.77564 24.3564 9.27693 24.7597 9.88647C25.163 10.496 25.4822 11.2679 25.7175 12.2021C25.9527 13.1364 26.0704 14.2017 26.0704 15.3979V24.9854H19.7354V15.4321C19.7354 14.4409 19.5057 13.7146 19.0464 13.2532C18.5871 12.7917 18.0214 12.561 17.3493 12.561C16.5315 12.561 15.8397 12.8487 15.274 13.4241C14.7083 13.9994 14.4254 14.8226 14.4254 15.8936V24.9854H8.17444ZM27.2713 7.69043V24.9854H33.5223V15.8936C33.5223 14.8226 33.8051 13.9994 34.3708 13.4241C34.9366 12.8487 35.6283 12.561 36.4461 12.561C37.1182 12.561 37.684 12.7917 38.1433 13.2532C38.6026 13.7146 38.8322 14.4409 38.8322 15.4321V24.9854H45.1672V15.3979C45.1672 14.2017 45.0496 13.1364 44.8143 12.2021C44.5791 11.2679 44.2598 10.496 43.8565 9.88647C43.4532 9.27693 42.9659 8.77564 42.3946 8.38257C41.8233 7.9895 41.2211 7.71037 40.5882 7.54517C39.9553 7.37996 39.2635 7.29167 38.5129 7.28027H38.3449C37.4375 7.28027 36.5301 7.45687 35.6227 7.81006C34.6593 8.18604 33.8359 8.77848 33.1526 9.5874L32.8669 7.69043H27.2713ZM46.2875 16.0223C46.2875 14.2563 46.7103 12.6955 47.5561 11.3397C48.4019 9.98388 49.539 8.94995 50.9673 8.23787C52.3956 7.52579 53.9891 7.16976 55.7479 7.16976C56.9354 7.16976 58.1061 7.38623 59.2599 7.81917L60.6423 6.03759C60.8283 5.79546 60.9781 5.59749 61.0915 5.44368L64.0194 6.1732L65.6621 8.7762L63.4608 11.4251C64.5475 12.6556 65.0908 14.0968 65.0908 15.7489V16.0907C65.0684 17.1844 64.7883 18.2383 64.2506 19.2523C63.7129 20.2663 62.9567 21.1265 61.9821 21.8328C62.7103 22.2544 63.318 22.7272 63.8053 23.2513C64.2926 23.7754 64.6371 24.2909 64.8387 24.7979C65.0404 25.3049 65.172 25.7236 65.2336 26.054C65.2952 26.3844 65.326 26.7148 65.326 27.0452C65.326 28.1276 65.1468 29.1074 64.7883 29.9847C64.4299 30.862 63.9454 31.5911 63.3348 32.1722C62.7243 32.7533 62.0017 33.2403 61.1671 33.6334C60.3325 34.0265 59.4616 34.3084 58.5542 34.4793C57.6468 34.6502 56.689 34.7357 55.6807 34.7357C52.6448 34.7357 50.3204 33.978 48.7072 32.4627C47.2509 31.0955 46.5227 29.2669 46.5227 26.9769C46.5227 26.7376 46.5283 26.4927 46.5395 26.242H52.488V26.3617C52.488 26.9224 52.5556 27.3996 52.6909 27.7933L52.7233 27.8826C52.8801 28.3384 53.1182 28.6802 53.4374 28.908C53.7567 29.1359 54.0956 29.2954 54.4541 29.3866C54.8125 29.4777 55.2214 29.5233 55.6807 29.5233C56.5657 29.5233 57.3107 29.3097 57.9156 28.8824C58.5206 28.4552 58.823 27.8428 58.823 27.0452C58.823 26.3503 58.5794 25.792 58.0921 25.3704C57.6235 24.9651 56.8831 24.7546 55.8707 24.7391L55.7479 24.7381C52.8801 24.7381 50.5864 23.952 48.8668 22.3797C47.1472 20.8074 46.2875 18.6883 46.2875 16.0223ZM53.387 18.4485C52.7653 17.8276 52.4544 17.0101 52.4544 15.9961C52.4544 14.8796 52.7625 14.0051 53.3786 13.3728C53.9948 12.7405 54.7845 12.4243 55.7479 12.4243C56.6665 12.4243 57.4311 12.7718 58.0416 13.4668C58.6522 14.1618 58.9574 15.0049 58.9574 15.9961C58.9574 17.0898 58.6494 17.9272 58.0332 18.5083C57.4171 19.0894 56.6553 19.3799 55.7479 19.3799C54.7957 19.3799 54.0088 19.0694 53.387 18.4485ZM66.0094 16.3721C66.0094 15.153 66.1914 14.0336 66.5555 13.0139C66.9196 11.9942 67.4069 11.1369 68.0174 10.4419C68.628 9.7469 69.3393 9.15731 70.1515 8.6731C70.9637 8.18888 71.8179 7.83569 72.7141 7.61353C73.6103 7.39136 74.5289 7.28027 75.4699 7.28027C76.9822 7.28027 78.3573 7.52807 79.5952 8.02368C80.8331 8.51929 81.8609 9.23421 82.6787 10.1685C83.4964 11.1027 84.0622 12.242 84.3758 13.5864C84.5082 14.1561 84.5758 14.754 84.5786 15.3802L84.5775 15.5688C84.5775 16.3778 84.4823 17.2436 84.2918 18.1665H72.4116C72.6244 18.8729 73.1117 19.4169 73.8735 19.7986C74.6353 20.1803 75.4139 20.3711 76.2092 20.3711C77.8896 20.3711 79.3459 19.904 80.5782 18.9697L83.6701 22.5073C82.673 23.453 81.5052 24.1679 80.1665 24.6521C78.8278 25.1363 77.4135 25.3784 75.9236 25.3784C74.5457 25.3784 73.2714 25.2018 72.1007 24.8486C70.9301 24.4954 69.8854 23.9628 68.9668 23.2507C68.0482 22.5387 67.3257 21.5959 66.7992 20.4224C66.2726 19.2489 66.0094 17.8988 66.0094 16.3721ZM78.6122 14.0308H72.4452C72.5236 13.4953 72.7841 13.0452 73.2266 12.6807C73.6691 12.3161 74.1816 12.0939 74.7641 12.0142C75.033 11.98 75.2962 11.9629 75.5539 11.9629C75.8676 11.9629 76.1756 11.9857 76.4781 12.0312C77.0494 12.1224 77.5395 12.3474 77.9484 12.7063C78.3573 13.0652 78.5786 13.5067 78.6122 14.0308ZM84.6055 23.1738L86.6723 18.4741C87.4677 18.9982 88.2799 19.4112 89.1089 19.7131C89.9379 20.0151 90.5848 20.1973 91.0497 20.26C91.5146 20.3227 92.0607 20.3711 92.6881 20.4053C93.8419 20.4053 94.4188 20.1261 94.4188 19.5679C94.4188 19.0324 93.8195 18.7134 92.6208 18.6108C91.9151 18.5881 91.2345 18.514 90.5792 18.3887C89.9238 18.2633 89.2713 18.0583 88.6216 17.7734C87.9718 17.4886 87.4089 17.1383 86.9328 16.7224C86.4567 16.3066 86.0702 15.7739 85.7733 15.1245C85.4765 14.4751 85.328 13.7459 85.328 12.937C85.328 11.9344 85.5465 11.0571 85.9834 10.3052C86.4203 9.55322 87.014 8.96362 87.7646 8.53638C88.5151 8.10913 89.3441 7.79297 90.2515 7.58789C91.1589 7.38281 92.1335 7.28027 93.1754 7.28027C94.5309 7.28027 95.8191 7.46826 97.0402 7.84424C98.2613 8.22022 99.2919 8.73291 100.132 9.38232L97.4435 13.2275C97.0112 12.9487 96.4053 12.7103 95.6257 12.5122L95.4775 12.4756C94.6709 12.2705 93.9371 12.168 93.2762 12.168H93.1754C92.1671 12.168 91.663 12.4528 91.663 13.0225C91.663 13.2275 91.7611 13.4155 91.9571 13.5864C92.1401 13.7459 92.4377 13.836 92.85 13.8565L92.9401 13.8599C93.7243 13.8826 94.4524 13.9453 95.1246 14.0479C95.7967 14.1504 96.4885 14.3327 97.1998 14.5947C97.9112 14.8568 98.5189 15.1929 99.023 15.603C99.5272 16.0132 99.9388 16.5572 100.258 17.2351C100.577 17.913 100.737 18.6906 100.737 19.5679C100.737 20.3996 100.594 21.1487 100.309 21.8152C100.023 22.4817 99.6336 23.0371 99.1407 23.4814C98.6478 23.9258 98.0596 24.2989 97.3763 24.6008C96.6929 24.9028 95.9732 25.1192 95.217 25.2502C94.4608 25.3813 93.6627 25.4468 92.8225 25.4468C91.3102 25.4468 89.7978 25.2445 88.2855 24.8401C86.7732 24.4356 85.5465 23.8802 84.6055 23.1738ZM101.035 7.79297V12.7319H103.757V18.6963C103.746 19.6305 103.841 20.4679 104.043 21.2085C104.267 22.0288 104.569 22.6982 104.95 23.2166C105.331 23.7349 105.796 24.1622 106.345 24.4983C106.894 24.8344 107.471 25.0708 108.076 25.2075C108.681 25.3442 109.336 25.4126 110.042 25.4126C111.969 25.4126 113.599 25.0252 114.932 24.2505L113.554 19.4824C112.949 19.8812 112.333 20.0806 111.705 20.0806C110.608 20.0806 110.042 19.5223 110.008 18.4058V12.7319H113.873V7.79297H110.042V2.80273L103.757 3.50342V7.79297H101.035Z" fill="#FFFFFF"/>
</svg>
