<svg width="401" height="120" viewBox="0 0 401 120" fill="none" xmlns="http://www.w3.org/2000/svg">
<path fill-rule="evenodd" clip-rule="evenodd" d="M3.7207 2.92969C1.24022 4.88282 0 7.61717 0 11.1328C0 14.6094 1.24022 17.3242 3.7207 19.2773C6.20118 21.2305 9.12108 22.207 12.4805 22.207C15.8008 22.207 18.6914 21.2207 21.1523 19.248C23.6133 17.2754 24.8438 14.5703 24.8438 11.1328C24.8438 7.61717 23.6133 4.88282 21.1523 2.92969C18.6914 0.976553 15.8008 0 12.4805 0C9.12108 0 6.20118 0.976553 3.7207 2.92969ZM23.4961 27.3633H1.34766V85.6641H23.4961V27.3633ZM28.5039 85.6641V26.3672H48.0156L49.0117 32.8711C51.3945 30.0976 54.2656 28.0664 57.625 26.7773C60.7891 25.5664 63.9531 24.9609 67.1172 24.9609H67.7031C70.3203 25 72.7324 25.3027 74.9395 25.8691C77.1465 26.4356 79.2461 27.3926 81.2383 28.7402C83.2305 30.0879 84.9297 31.8066 86.3359 33.8965C87.7422 35.9863 88.8555 38.6328 89.6758 41.8359C90.4961 45.0391 90.9062 48.6914 90.9062 52.793V85.6641H68.8164V52.9102C68.8164 49.5117 68.0156 47.0215 66.4141 45.4395C64.8125 43.8574 62.8399 43.0664 60.4961 43.0664C57.6445 43.0664 55.2324 44.0527 53.2598 46.0254C51.2871 47.9981 50.3008 50.8203 50.3008 54.4922V85.6641H28.5039ZM95.0938 26.3672V85.6641H116.891V54.4922C116.891 50.8203 117.877 47.9981 119.85 46.0254C121.822 44.0527 124.234 43.0664 127.086 43.0664C129.43 43.0664 131.402 43.8574 133.004 45.4395C134.605 47.0215 135.406 49.5117 135.406 52.9102V85.6641H157.496V52.793C157.496 48.6914 157.086 45.0391 156.266 41.8359C155.445 38.6328 154.332 35.9863 152.926 33.8965C151.52 31.8066 149.82 30.0879 147.828 28.7402C145.836 27.3926 143.736 26.4356 141.529 25.8691C139.322 25.3027 136.91 25 134.293 24.9609H133.707C130.543 24.9609 127.379 25.5664 124.215 26.7773C120.855 28.0664 117.984 30.0976 115.602 32.8711L114.605 26.3672H95.0938ZM161.402 54.9336C161.402 48.8789 162.877 43.5274 165.826 38.8789C168.775 34.2304 172.74 30.6856 177.721 28.2441C182.701 25.8027 188.258 24.582 194.391 24.582C198.531 24.582 202.613 25.3242 206.637 26.8086L211.457 20.7003C212.106 19.8702 212.628 19.1914 213.023 18.6641L223.233 21.1653L228.961 30.0898L221.285 39.1719C225.074 43.3906 226.969 48.332 226.969 53.9961V55.168C226.891 58.918 225.914 62.5312 224.039 66.0078C222.164 69.4844 219.527 72.4336 216.129 74.8555C218.668 76.3008 220.787 77.9219 222.486 79.7188C224.186 81.5156 225.387 83.2832 226.09 85.0215C226.793 86.7598 227.252 88.1953 227.467 89.3281C227.682 90.4609 227.789 91.5937 227.789 92.7266C227.789 96.4375 227.164 99.7969 225.914 102.805C224.664 105.813 222.975 108.312 220.846 110.305C218.717 112.297 216.197 113.967 213.287 115.314C210.377 116.662 207.34 117.629 204.176 118.215C201.012 118.801 197.672 119.094 194.156 119.094C183.57 119.094 175.465 116.496 169.84 111.301C164.762 106.613 162.223 100.344 162.223 92.4922C162.223 91.6719 162.242 90.832 162.281 89.9727H183.023V90.3828C183.023 92.3053 183.259 93.9414 183.731 95.2912L183.844 95.5977C184.391 97.1602 185.221 98.332 186.334 99.1133C187.447 99.8945 188.629 100.441 189.879 100.754C191.129 101.066 192.555 101.223 194.156 101.223C197.242 101.223 199.84 100.49 201.949 99.0254C204.059 97.5605 205.113 95.461 205.113 92.7266C205.113 90.3437 204.264 88.4297 202.564 86.9844C200.931 85.5946 198.349 84.8731 194.819 84.8196L194.391 84.8164C184.391 84.8164 176.393 82.1211 170.396 76.7305C164.4 71.3398 161.402 64.0743 161.402 54.9336ZM186.158 63.252C183.99 61.123 182.906 58.3203 182.906 54.8438C182.906 51.0156 183.98 48.0176 186.129 45.8496C188.277 43.6816 191.031 42.5977 194.391 42.5977C197.594 42.5977 200.26 43.7891 202.389 46.1719C204.518 48.5547 205.582 51.4453 205.582 54.8438C205.582 58.5938 204.508 61.4648 202.359 63.457C200.211 65.4492 197.555 66.4453 194.391 66.4453C191.07 66.4453 188.326 65.3809 186.158 63.252ZM230.172 56.1328C230.172 51.9531 230.807 48.1153 232.076 44.6191C233.346 41.123 235.045 38.1836 237.174 35.8008C239.303 33.418 241.783 31.3965 244.615 29.7363C247.447 28.0762 250.426 26.8652 253.551 26.1035C256.676 25.3418 259.879 24.9609 263.16 24.9609C268.434 24.9609 273.228 25.8105 277.545 27.5098C281.861 29.209 285.445 31.6601 288.297 34.8633C291.148 38.0664 293.121 41.9726 294.215 46.582C294.676 48.5352 294.912 50.5851 294.922 52.7319L294.918 53.3789C294.918 56.1524 294.586 59.1211 293.922 62.2852H252.496C253.238 64.707 254.937 66.5723 257.594 67.8809C260.25 69.1895 262.965 69.8438 265.738 69.8438C271.598 69.8438 276.676 68.2422 280.973 65.0391L291.754 77.168C288.277 80.4102 284.205 82.8613 279.537 84.5215C274.869 86.1816 269.938 87.0117 264.742 87.0117C259.937 87.0117 255.494 86.4063 251.412 85.1953C247.33 83.9844 243.688 82.1582 240.484 79.7168C237.281 77.2754 234.762 74.043 232.926 70.0195C231.09 65.9961 230.172 61.3672 230.172 56.1328ZM274.117 48.1055H252.613C252.887 46.2695 253.795 44.7266 255.338 43.4766C256.881 42.2266 258.668 41.4648 260.699 41.1914C261.637 41.0742 262.555 41.0156 263.453 41.0156C264.547 41.0156 265.621 41.0938 266.676 41.25C268.668 41.5625 270.377 42.334 271.803 43.5645C273.229 44.7949 274 46.3086 274.117 48.1055ZM295.016 79.4531L302.223 63.3398C304.996 65.1367 307.828 66.5527 310.719 67.5879C313.609 68.6231 315.865 69.248 317.486 69.4629C319.107 69.6777 321.012 69.8438 323.199 69.9609C327.223 69.9609 329.234 69.0039 329.234 67.0898C329.234 65.2539 327.145 64.1602 322.965 63.8086C320.504 63.7305 318.131 63.4766 315.846 63.0469C313.561 62.6172 311.285 61.9141 309.02 60.9375C306.754 59.9609 304.791 58.7598 303.131 57.334C301.471 55.9082 300.123 54.082 299.088 51.8555C298.053 49.6289 297.535 47.1289 297.535 44.3555C297.535 40.918 298.297 37.9102 299.82 35.332C301.344 32.7539 303.414 30.7324 306.031 29.2676C308.648 27.8027 311.539 26.7188 314.703 26.0156C317.867 25.3125 321.266 24.9609 324.898 24.9609C329.625 24.9609 334.117 25.6055 338.375 26.8945C342.633 28.1836 346.227 29.9414 349.156 32.168L339.781 45.3516C338.274 44.3957 336.161 43.5782 333.443 42.8991L332.926 42.7734C330.113 42.0703 327.555 41.7188 325.25 41.7188H324.898C321.383 41.7188 319.625 42.6953 319.625 44.6484C319.625 45.3516 319.967 45.9961 320.65 46.582C321.288 47.1289 322.326 47.4376 323.764 47.5081L324.078 47.5195C326.812 47.5977 329.352 47.8125 331.695 48.1641C334.039 48.5156 336.451 49.1406 338.932 50.0391C341.412 50.9375 343.531 52.0898 345.289 53.4961C347.047 54.9024 348.482 56.7676 349.596 59.0918C350.709 61.416 351.266 64.082 351.266 67.0898C351.266 69.9414 350.768 72.5098 349.771 74.7949C348.775 77.0801 347.418 78.9844 345.699 80.5078C343.98 82.0313 341.93 83.3105 339.547 84.3457C337.164 85.3809 334.654 86.123 332.018 86.5723C329.381 87.0215 326.598 87.2461 323.668 87.2461C318.395 87.2461 313.121 86.5527 307.848 85.166C302.574 83.7793 298.297 81.875 295.016 79.4531ZM352.305 26.7188V43.6523H361.797V64.1016C361.758 67.3047 362.09 70.1758 362.793 72.7148C363.574 75.5274 364.629 77.8223 365.957 79.5996C367.285 81.377 368.906 82.8418 370.82 83.9941C372.734 85.1465 374.746 85.957 376.855 86.4258C378.965 86.8945 381.25 87.1289 383.711 87.1289C390.43 87.1289 396.113 85.8008 400.762 83.1445L395.957 66.7969C393.848 68.1641 391.699 68.8477 389.512 68.8477C385.684 68.8477 383.711 66.9336 383.594 63.1055V43.6523H397.07V26.7188H383.711V9.60938L361.797 12.0117V26.7188H352.305Z" fill="#222631"/>
</svg>
