<svg width="440" height="257" viewBox="0 0 440 257" fill="none" xmlns="http://www.w3.org/2000/svg">
<g clip-path="url(#clip0_151_330)">
<rect width="440" height="257" rx="8" fill="#121327"/>
<rect x="-0.5" y="-0.5" width="441" height="258" rx="8.5" fill="#121327" stroke="black"/>
<path d="M30.4736 37.6123V39H26.1533V37.6123H30.4736ZM26.5908 29.0469V39H24.9297V29.0469H26.5908ZM29.8926 33.1895V34.5566H26.1533V33.1895H29.8926ZM30.4326 29.0469V30.4414H26.1533V29.0469H30.4326ZM34.7734 37.1543L36.8926 29.0469H38.6904L35.7168 39H34.4863L34.7734 37.1543ZM32.9209 29.0469L35.0264 37.1543L35.334 39H34.1035L31.1299 29.0469H32.9209ZM45.376 37.6123V39H41.0557V37.6123H45.376ZM41.4932 29.0469V39H39.832V29.0469H41.4932ZM44.7949 33.1895V34.5566H41.0557V33.1895H44.7949ZM45.335 29.0469V30.4414H41.0557V29.0469H45.335ZM53.4971 29.0469V39H51.8701L48.3564 32.1094V39H46.75V29.0469H48.3564L51.8975 35.9854V29.0469H53.4971ZM58.7881 29.0469V39H57.1338V29.0469H58.7881ZM61.3242 29.0469V30.4414H54.625V29.0469H61.3242ZM66.8066 36.4297C66.8066 36.2246 66.7839 36.0423 66.7383 35.8828C66.6973 35.7188 66.6175 35.5706 66.499 35.4385C66.3805 35.3063 66.2119 35.1764 65.9932 35.0488C65.779 34.9212 65.501 34.7913 65.1592 34.6592C64.7673 34.5088 64.4004 34.3447 64.0586 34.167C63.7214 33.9847 63.4229 33.7796 63.1631 33.5518C62.9079 33.3193 62.7074 33.0482 62.5615 32.7383C62.4157 32.4284 62.3428 32.0684 62.3428 31.6582C62.3428 31.2526 62.4134 30.8835 62.5547 30.5508C62.7005 30.2135 62.9056 29.9242 63.1699 29.6826C63.4388 29.4365 63.7578 29.2474 64.127 29.1152C64.4961 28.9785 64.904 28.9102 65.3506 28.9102C65.9932 28.9102 66.5423 29.0469 66.998 29.3203C67.4583 29.5938 67.8092 29.9606 68.0508 30.4209C68.2969 30.8812 68.4199 31.3916 68.4199 31.9521H66.7656C66.7656 31.6286 66.7155 31.3415 66.6152 31.0908C66.515 30.8402 66.36 30.6442 66.1504 30.5029C65.9408 30.3617 65.6696 30.291 65.3369 30.291C65.0316 30.291 64.7786 30.3503 64.5781 30.4688C64.3822 30.5872 64.2363 30.749 64.1406 30.9541C64.0495 31.1592 64.0039 31.3939 64.0039 31.6582C64.0039 31.8405 64.0426 32.0068 64.1201 32.1572C64.1976 32.3031 64.3092 32.4375 64.4551 32.5605C64.6009 32.6836 64.7786 32.7998 64.9883 32.9092C65.1979 33.0186 65.4395 33.1234 65.7129 33.2236C66.1777 33.3923 66.5833 33.5791 66.9297 33.7842C67.276 33.9893 67.5609 34.2194 67.7842 34.4746C68.012 34.7253 68.1807 35.0101 68.29 35.3291C68.404 35.6481 68.4609 36.0104 68.4609 36.416C68.4609 36.8262 68.3903 37.1999 68.249 37.5371C68.1123 37.8698 67.9118 38.1546 67.6475 38.3916C67.3831 38.6286 67.0641 38.8132 66.6904 38.9453C66.3167 39.0729 65.8975 39.1367 65.4326 39.1367C65.0042 39.1367 64.5918 39.0729 64.1953 38.9453C63.8034 38.8177 63.4525 38.624 63.1426 38.3643C62.8327 38.0999 62.5866 37.7695 62.4043 37.373C62.2266 36.9766 62.1377 36.5117 62.1377 35.9785H63.7988C63.7988 36.2975 63.8376 36.571 63.915 36.7988C63.9925 37.0221 64.1042 37.2067 64.25 37.3525C64.4004 37.4938 64.5758 37.5986 64.7764 37.667C64.9814 37.7308 65.2093 37.7627 65.46 37.7627C65.7699 37.7627 66.0228 37.708 66.2188 37.5986C66.4193 37.4847 66.5674 37.3275 66.6631 37.127C66.7588 36.9264 66.8066 36.694 66.8066 36.4297Z" fill="white"/>
<rect x="24" y="53" width="445" height="72" rx="8" fill="black"/>
<path fill-rule="evenodd" clip-rule="evenodd" d="M419.5 95.607C416.708 95.607 414.444 93.4241 414.444 90.7313C414.444 88.1556 416.516 86.0464 419.139 85.8679L419.139 89.3186L425.177 85.1593L419.139 81L419.139 84.4722C415.717 84.6527 413 87.386 413 90.7313C413 94.1934 415.91 97 419.5 97C423.09 97 426 94.1934 426 90.7313L424.556 90.7313C424.556 93.4241 422.292 95.607 419.5 95.607Z" fill="#ACB2C2"/>
<circle cx="44" cy="89" r="4" fill="#95DD7B"/>
<rect x="64" y="75" width="141" height="28" rx="4" fill="#404656"/>
<path d="M76.3408 92.1113C75.9443 92.1113 75.6117 92.0339 75.3428 91.8789C75.0785 91.7194 74.8665 91.512 74.707 91.2568C74.543 91.0062 74.4245 90.7236 74.3516 90.4092C74.2832 90.0902 74.249 89.7689 74.249 89.4453V89.1582C74.249 88.8392 74.2832 88.5225 74.3516 88.208C74.4245 87.8936 74.543 87.6087 74.707 87.3535C74.8711 87.1029 75.0853 86.9001 75.3496 86.7451C75.6185 86.5856 75.9489 86.5059 76.3408 86.5059C76.596 86.5059 76.833 86.5492 77.0518 86.6357C77.2751 86.7223 77.4665 86.8408 77.626 86.9912C77.7855 87.1416 77.9108 87.3171 78.002 87.5176C78.0977 87.7135 78.1478 87.9232 78.1523 88.1465H79.3486C79.3486 87.7728 79.2734 87.4219 79.123 87.0938C78.9727 86.7656 78.7653 86.4808 78.501 86.2393C78.2321 86.0023 77.9131 85.8154 77.5439 85.6787C77.1794 85.5374 76.7783 85.4668 76.3408 85.4668C75.7803 85.4668 75.2904 85.5671 74.8711 85.7676C74.4518 85.9681 74.1032 86.237 73.8252 86.5742C73.5426 86.916 73.3307 87.3102 73.1895 87.7568C73.0482 88.2035 72.9775 88.6706 72.9775 89.1582V89.4453C72.9775 89.9375 73.0482 90.4069 73.1895 90.8535C73.3307 91.2956 73.5426 91.6852 73.8252 92.0225C74.1032 92.3643 74.4518 92.6354 74.8711 92.8359C75.2904 93.0365 75.7803 93.1367 76.3408 93.1367C76.7327 93.1367 77.1087 93.0706 77.4688 92.9385C77.8288 92.8018 78.1478 92.6195 78.4258 92.3916C78.7038 92.1683 78.9248 91.9085 79.0889 91.6123C79.2575 91.3115 79.3441 90.9971 79.3486 90.6689H78.1523C78.1478 90.874 78.0931 91.0654 77.9883 91.2432C77.888 91.4163 77.7536 91.5667 77.585 91.6943C77.4163 91.8265 77.2227 91.929 77.0039 92.002C76.7897 92.0749 76.5687 92.1113 76.3408 92.1113ZM82.1623 86.7041V82.5H80.8977V93H82.1623V87.627C82.2535 87.4811 82.356 87.349 82.4699 87.2305C82.5884 87.1074 82.716 87.0003 82.8527 86.9092C83.0259 86.7907 83.215 86.6995 83.4201 86.6357C83.6252 86.5719 83.8417 86.54 84.0695 86.54C84.3475 86.5355 84.5936 86.5742 84.8078 86.6562C85.022 86.7337 85.1997 86.8522 85.341 87.0117C85.4732 87.1576 85.5734 87.3421 85.6418 87.5654C85.7102 87.7842 85.7443 88.0394 85.7443 88.3311V93H87.009V88.3447C87.009 87.848 86.9475 87.4196 86.8244 87.0596C86.7059 86.695 86.535 86.3942 86.3117 86.1572C86.0884 85.9202 85.8173 85.7471 85.4982 85.6377C85.1838 85.5238 84.8329 85.4668 84.4455 85.4668C84.1493 85.4714 83.869 85.5146 83.6047 85.5967C83.3449 85.6787 83.1057 85.7995 82.8869 85.959C82.7502 86.0547 82.6203 86.1663 82.4973 86.2939C82.3742 86.417 82.2626 86.5537 82.1623 86.7041ZM93.4662 93H94.7855V92.8906C94.7035 92.6855 94.6397 92.4463 94.5941 92.1729C94.5486 91.8949 94.5258 91.6328 94.5258 91.3867V87.9482C94.5258 87.5335 94.4506 87.1712 94.3002 86.8613C94.1498 86.5514 93.9447 86.2917 93.685 86.082C93.4206 85.877 93.1085 85.7243 92.7484 85.624C92.3884 85.5192 91.9988 85.4668 91.5795 85.4668C91.1192 85.4668 90.7068 85.5306 90.3422 85.6582C89.9822 85.7858 89.6768 85.9521 89.4262 86.1572C89.171 86.3669 88.975 86.6016 88.8383 86.8613C88.7061 87.1211 88.6378 87.3854 88.6332 87.6543H89.9047C89.9047 87.4993 89.9411 87.3512 90.0141 87.21C90.0915 87.0641 90.1986 86.9388 90.3354 86.834C90.4721 86.7292 90.6384 86.6449 90.8344 86.5811C91.0349 86.5173 91.2605 86.4854 91.5111 86.4854C91.78 86.4854 92.0215 86.5195 92.2357 86.5879C92.4545 86.6562 92.6391 86.752 92.7895 86.875C92.9398 87.0026 93.0561 87.1553 93.1381 87.333C93.2201 87.5107 93.2611 87.7113 93.2611 87.9346V88.5156H91.8803C91.3653 88.5156 90.8982 88.5658 90.4789 88.666C90.0642 88.7663 89.7087 88.9167 89.4125 89.1172C89.1163 89.3223 88.8861 89.5775 88.7221 89.8828C88.5626 90.1882 88.4828 90.5436 88.4828 90.9492C88.4828 91.2591 88.5421 91.5485 88.6605 91.8174C88.7836 92.0817 88.9568 92.3096 89.1801 92.501C89.3988 92.6969 89.6654 92.8519 89.9799 92.9658C90.2989 93.0798 90.6544 93.1367 91.0463 93.1367C91.2878 93.1367 91.5157 93.1117 91.7299 93.0615C91.9441 93.0114 92.1469 92.943 92.3383 92.8564C92.5251 92.7699 92.696 92.6696 92.851 92.5557C93.0105 92.4417 93.154 92.321 93.2816 92.1934C93.2953 92.3483 93.3158 92.4987 93.3432 92.6445C93.3751 92.7858 93.4161 92.9043 93.4662 93ZM91.2309 92.0361C90.9848 92.0361 90.7683 92.0042 90.5814 91.9404C90.3946 91.8766 90.2396 91.7878 90.1166 91.6738C89.9936 91.5645 89.9001 91.4323 89.8363 91.2773C89.7771 91.1224 89.7475 90.9538 89.7475 90.7715C89.7475 90.5801 89.7816 90.4092 89.85 90.2588C89.9229 90.1084 90.0277 89.9785 90.1645 89.8691C90.3559 89.7142 90.6133 89.6003 90.9369 89.5273C91.265 89.4499 91.6479 89.4111 92.0854 89.4111H93.2611V90.9082C93.1882 91.054 93.088 91.1953 92.9604 91.332C92.8327 91.4642 92.6824 91.5827 92.5092 91.6875C92.3314 91.7923 92.1355 91.8766 91.9213 91.9404C91.7071 92.0042 91.477 92.0361 91.2309 92.0361ZM101.161 85.4668C100.623 85.4668 100.142 85.5853 99.7184 85.8223C99.2991 86.0547 98.9391 86.3737 98.6383 86.7793L98.6314 86.5947L98.5768 85.6035H97.3736V93H98.6451V88.2559C98.7271 88.028 98.8297 87.8229 98.9527 87.6406C99.0803 87.4538 99.2285 87.2965 99.3971 87.1689C99.5839 87.0231 99.8027 86.9137 100.053 86.8408C100.304 86.7633 100.584 86.7246 100.894 86.7246C101.136 86.7246 101.366 86.7383 101.585 86.7656C101.808 86.7884 102.043 86.8271 102.289 86.8818L102.46 85.6445C102.332 85.5898 102.141 85.5465 101.885 85.5146C101.635 85.4827 101.393 85.4668 101.161 85.4668ZM103.79 89.2402V89.3838C103.79 89.9124 103.858 90.4069 103.995 90.8672C104.132 91.3229 104.328 91.7194 104.583 92.0566C104.833 92.3939 105.141 92.6582 105.506 92.8496C105.87 93.041 106.278 93.1367 106.729 93.1367C106.998 93.1367 107.249 93.1071 107.481 93.0479C107.714 92.9932 107.926 92.9134 108.117 92.8086C108.24 92.7402 108.354 92.6605 108.459 92.5693C108.568 92.4782 108.671 92.3779 108.766 92.2686V92.9043C108.766 93.2233 108.721 93.5059 108.63 93.752C108.539 93.998 108.409 94.2031 108.24 94.3672C108.067 94.5358 107.86 94.6634 107.618 94.75C107.376 94.8366 107.105 94.8799 106.804 94.8799C106.636 94.8799 106.467 94.8617 106.299 94.8252C106.13 94.7933 105.961 94.7386 105.793 94.6611C105.624 94.5837 105.458 94.4788 105.294 94.3467C105.13 94.2191 104.97 94.0618 104.815 93.875L104.159 94.6338C104.328 94.8753 104.528 95.0781 104.761 95.2422C104.998 95.4062 105.244 95.5361 105.499 95.6318C105.749 95.7321 105.998 95.8027 106.244 95.8438C106.49 95.8893 106.709 95.9121 106.9 95.9121C107.365 95.9121 107.789 95.8438 108.172 95.707C108.554 95.5703 108.885 95.3698 109.163 95.1055C109.436 94.8411 109.648 94.5199 109.799 94.1416C109.954 93.7633 110.031 93.3304 110.031 92.8428V85.6035H108.883L108.821 86.4102C108.735 86.3008 108.641 86.2005 108.541 86.1094C108.445 86.0182 108.343 85.9385 108.233 85.8701C108.033 85.738 107.807 85.6377 107.556 85.5693C107.31 85.501 107.039 85.4668 106.743 85.4668C106.283 85.4668 105.87 85.5602 105.506 85.7471C105.141 85.9339 104.831 86.1937 104.576 86.5264C104.321 86.859 104.125 87.2578 103.988 87.7227C103.856 88.1829 103.79 88.6888 103.79 89.2402ZM105.054 89.3838V89.2402C105.054 88.8802 105.091 88.5384 105.164 88.2148C105.241 87.8867 105.362 87.5973 105.526 87.3467C105.686 87.1006 105.891 86.9046 106.141 86.7588C106.397 86.613 106.702 86.54 107.057 86.54C107.267 86.54 107.458 86.5674 107.632 86.6221C107.805 86.6722 107.962 86.7428 108.103 86.834C108.245 86.9297 108.37 87.0413 108.479 87.1689C108.589 87.2965 108.684 87.4378 108.766 87.5928V90.9834C108.684 91.1429 108.589 91.2887 108.479 91.4209C108.37 91.5531 108.247 91.667 108.11 91.7627C107.969 91.8584 107.809 91.9336 107.632 91.9883C107.458 92.0384 107.263 92.0635 107.044 92.0635C106.693 92.0635 106.392 91.9928 106.141 91.8516C105.891 91.7057 105.686 91.5098 105.526 91.2637C105.362 91.0176 105.241 90.7327 105.164 90.4092C105.091 90.0856 105.054 89.7438 105.054 89.3838ZM114.998 93.1367C115.718 93.1367 116.322 92.9932 116.81 92.7061C117.302 92.4144 117.671 92.0817 117.917 91.708L117.145 91.1064C116.912 91.4072 116.62 91.6488 116.27 91.8311C115.919 92.0133 115.518 92.1045 115.066 92.1045C114.725 92.1045 114.412 92.0407 114.13 91.9131C113.847 91.7855 113.606 91.61 113.405 91.3867C113.209 91.1771 113.054 90.9355 112.94 90.6621C112.831 90.3887 112.76 90.0719 112.729 89.7119V89.6641H118.013V89.0967C118.013 88.5817 117.947 88.1032 117.814 87.6611C117.687 87.2191 117.491 86.834 117.227 86.5059C116.962 86.1823 116.63 85.9294 116.229 85.7471C115.832 85.5602 115.367 85.4668 114.834 85.4668C114.41 85.4668 113.995 85.5534 113.59 85.7266C113.189 85.8997 112.831 86.1481 112.517 86.4717C112.198 86.7998 111.942 87.2008 111.751 87.6748C111.56 88.1442 111.464 88.6774 111.464 89.2744V89.5615C111.464 90.0765 111.55 90.5527 111.724 90.9902C111.897 91.4277 112.138 91.806 112.448 92.125C112.758 92.444 113.13 92.6924 113.562 92.8701C114 93.0479 114.479 93.1367 114.998 93.1367ZM114.834 86.5059C115.158 86.5059 115.436 86.5651 115.668 86.6836C115.905 86.8021 116.101 86.957 116.256 87.1484C116.411 87.3398 116.532 87.5677 116.618 87.832C116.705 88.0918 116.748 88.3356 116.748 88.5635V88.625H112.77C112.82 88.2832 112.906 87.9824 113.029 87.7227C113.157 87.4583 113.312 87.235 113.494 87.0527C113.676 86.875 113.882 86.7406 114.109 86.6494C114.337 86.5537 114.579 86.5059 114.834 86.5059ZM121.64 92.1797C121.64 92.444 121.722 92.6696 121.886 92.8564C122.055 93.0387 122.303 93.1299 122.631 93.1299C122.955 93.1299 123.203 93.0387 123.376 92.8564C123.549 92.6742 123.636 92.4486 123.636 92.1797C123.636 91.9062 123.549 91.6761 123.376 91.4893C123.208 91.2979 122.959 91.2021 122.631 91.2021C122.298 91.2021 122.05 91.2979 121.886 91.4893C121.722 91.6807 121.64 91.9108 121.64 92.1797ZM132.062 91.0381C132.062 91.1566 132.039 91.2682 131.994 91.373C131.948 91.4779 131.882 91.5736 131.795 91.6602C131.654 91.8014 131.458 91.9131 131.207 91.9951C130.957 92.0726 130.663 92.1113 130.326 92.1113C130.111 92.1113 129.895 92.0885 129.676 92.043C129.457 91.9974 129.259 91.9199 129.081 91.8105C128.899 91.7012 128.746 91.5576 128.623 91.3799C128.505 91.2021 128.437 90.9834 128.418 90.7236H127.154C127.154 91.0381 127.224 91.3411 127.366 91.6328C127.511 91.9245 127.721 92.1797 127.995 92.3984C128.263 92.6217 128.594 92.8018 128.986 92.9385C129.378 93.0706 129.824 93.1367 130.326 93.1367C130.763 93.1367 131.166 93.0843 131.536 92.9795C131.905 92.8747 132.221 92.7266 132.486 92.5352C132.75 92.3438 132.955 92.1136 133.101 91.8447C133.251 91.5758 133.327 91.2773 133.327 90.9492C133.327 90.6439 133.26 90.375 133.128 90.1426C133.001 89.9102 132.814 89.7051 132.568 89.5273C132.322 89.3542 132.019 89.2061 131.659 89.083C131.299 88.9554 130.891 88.8438 130.435 88.748C130.089 88.6797 129.801 88.609 129.574 88.5361C129.35 88.4632 129.173 88.3812 129.04 88.29C128.904 88.1989 128.808 88.0964 128.753 87.9824C128.699 87.8685 128.671 87.7386 128.671 87.5928C128.671 87.4515 128.705 87.3148 128.774 87.1826C128.842 87.0505 128.945 86.9342 129.081 86.834C129.214 86.7337 129.38 86.654 129.58 86.5947C129.786 86.5355 130.023 86.5059 130.291 86.5059C130.551 86.5059 130.784 86.5423 130.989 86.6152C131.198 86.6882 131.376 86.7839 131.522 86.9023C131.668 87.0208 131.782 87.1576 131.864 87.3125C131.946 87.4629 131.987 87.6178 131.987 87.7773H133.251C133.251 87.4538 133.181 87.153 133.039 86.875C132.903 86.5924 132.707 86.3464 132.452 86.1367C132.196 85.9271 131.886 85.763 131.522 85.6445C131.157 85.526 130.747 85.4668 130.291 85.4668C129.868 85.4668 129.478 85.5238 129.122 85.6377C128.772 85.7516 128.468 85.9066 128.213 86.1025C127.958 86.2985 127.76 86.5286 127.619 86.793C127.477 87.0527 127.407 87.333 127.407 87.6338C127.407 87.9391 127.475 88.208 127.612 88.4404C127.748 88.6683 127.942 88.8665 128.193 89.0352C128.439 89.2083 128.735 89.3564 129.081 89.4795C129.432 89.6025 129.82 89.7074 130.244 89.7939C130.59 89.8623 130.879 89.9398 131.112 90.0264C131.344 90.1084 131.531 90.1995 131.672 90.2998C131.814 90.4001 131.914 90.5117 131.973 90.6348C132.032 90.7533 132.062 90.8877 132.062 91.0381ZM139.729 93H140.878V85.6035H139.606V90.9082C139.538 91.0677 139.451 91.2158 139.346 91.3525C139.246 91.4847 139.128 91.5986 138.991 91.6943C138.827 91.8128 138.633 91.9062 138.41 91.9746C138.186 92.0384 137.934 92.0703 137.651 92.0703C137.409 92.0703 137.195 92.0384 137.008 91.9746C136.826 91.9108 136.671 91.7992 136.544 91.6396C136.416 91.4847 136.32 91.2751 136.256 91.0107C136.193 90.7464 136.161 90.4137 136.161 90.0127V85.6035H134.896V89.999C134.896 90.5505 134.955 91.0244 135.074 91.4209C135.197 91.8128 135.37 92.1364 135.593 92.3916C135.817 92.6468 136.086 92.8359 136.4 92.959C136.714 93.0775 137.065 93.1367 137.453 93.1367C137.936 93.1367 138.362 93.0365 138.731 92.8359C139.1 92.6309 139.408 92.346 139.654 91.9814L139.729 93ZM145.715 92.1113C145.318 92.1113 144.985 92.0339 144.717 91.8789C144.452 91.7194 144.24 91.512 144.081 91.2568C143.917 91.0062 143.798 90.7236 143.725 90.4092C143.657 90.0902 143.623 89.7689 143.623 89.4453V89.1582C143.623 88.8392 143.657 88.5225 143.725 88.208C143.798 87.8936 143.917 87.6087 144.081 87.3535C144.245 87.1029 144.459 86.9001 144.723 86.7451C144.992 86.5856 145.323 86.5059 145.715 86.5059C145.97 86.5059 146.207 86.5492 146.426 86.6357C146.649 86.7223 146.84 86.8408 147 86.9912C147.159 87.1416 147.285 87.3171 147.376 87.5176C147.471 87.7135 147.522 87.9232 147.526 88.1465H148.722C148.722 87.7728 148.647 87.4219 148.497 87.0938C148.346 86.7656 148.139 86.4808 147.875 86.2393C147.606 86.0023 147.287 85.8154 146.918 85.6787C146.553 85.5374 146.152 85.4668 145.715 85.4668C145.154 85.4668 144.664 85.5671 144.245 85.7676C143.826 85.9681 143.477 86.237 143.199 86.5742C142.916 86.916 142.705 87.3102 142.563 87.7568C142.422 88.2035 142.351 88.6706 142.351 89.1582V89.4453C142.351 89.9375 142.422 90.4069 142.563 90.8535C142.705 91.2956 142.916 91.6852 143.199 92.0225C143.477 92.3643 143.826 92.6354 144.245 92.8359C144.664 93.0365 145.154 93.1367 145.715 93.1367C146.107 93.1367 146.483 93.0706 146.843 92.9385C147.203 92.8018 147.522 92.6195 147.8 92.3916C148.078 92.1683 148.299 91.9085 148.463 91.6123C148.631 91.3115 148.718 90.9971 148.722 90.6689H147.526C147.522 90.874 147.467 91.0654 147.362 91.2432C147.262 91.4163 147.127 91.5667 146.959 91.6943C146.79 91.8265 146.596 91.929 146.378 92.002C146.164 92.0749 145.943 92.1113 145.715 92.1113ZM153.423 92.1113C153.026 92.1113 152.694 92.0339 152.425 91.8789C152.16 91.7194 151.949 91.512 151.789 91.2568C151.625 91.0062 151.507 90.7236 151.434 90.4092C151.365 90.0902 151.331 89.7689 151.331 89.4453V89.1582C151.331 88.8392 151.365 88.5225 151.434 88.208C151.507 87.8936 151.625 87.6087 151.789 87.3535C151.953 87.1029 152.167 86.9001 152.432 86.7451C152.701 86.5856 153.031 86.5059 153.423 86.5059C153.678 86.5059 153.915 86.5492 154.134 86.6357C154.357 86.7223 154.549 86.8408 154.708 86.9912C154.868 87.1416 154.993 87.3171 155.084 87.5176C155.18 87.7135 155.23 87.9232 155.234 88.1465H156.431C156.431 87.7728 156.355 87.4219 156.205 87.0938C156.055 86.7656 155.847 86.4808 155.583 86.2393C155.314 86.0023 154.995 85.8154 154.626 85.6787C154.261 85.5374 153.86 85.4668 153.423 85.4668C152.862 85.4668 152.372 85.5671 151.953 85.7676C151.534 85.9681 151.185 86.237 150.907 86.5742C150.625 86.916 150.413 87.3102 150.271 87.7568C150.13 88.2035 150.06 88.6706 150.06 89.1582V89.4453C150.06 89.9375 150.13 90.4069 150.271 90.8535C150.413 91.2956 150.625 91.6852 150.907 92.0225C151.185 92.3643 151.534 92.6354 151.953 92.8359C152.372 93.0365 152.862 93.1367 153.423 93.1367C153.815 93.1367 154.191 93.0706 154.551 92.9385C154.911 92.8018 155.23 92.6195 155.508 92.3916C155.786 92.1683 156.007 91.9085 156.171 91.6123C156.34 91.3115 156.426 90.9971 156.431 90.6689H155.234C155.23 90.874 155.175 91.0654 155.07 91.2432C154.97 91.4163 154.836 91.5667 154.667 91.6943C154.498 91.8265 154.305 91.929 154.086 92.002C153.872 92.0749 153.651 92.1113 153.423 92.1113ZM161.247 93.1367C161.967 93.1367 162.571 92.9932 163.059 92.7061C163.551 92.4144 163.92 92.0817 164.166 91.708L163.394 91.1064C163.161 91.4072 162.87 91.6488 162.519 91.8311C162.168 92.0133 161.767 92.1045 161.316 92.1045C160.974 92.1045 160.662 92.0407 160.379 91.9131C160.097 91.7855 159.855 91.61 159.654 91.3867C159.459 91.1771 159.304 90.9355 159.19 90.6621C159.08 90.3887 159.01 90.0719 158.978 89.7119V89.6641H164.262V89.0967C164.262 88.5817 164.196 88.1032 164.064 87.6611C163.936 87.2191 163.74 86.834 163.476 86.5059C163.211 86.1823 162.879 85.9294 162.478 85.7471C162.081 85.5602 161.616 85.4668 161.083 85.4668C160.659 85.4668 160.245 85.5534 159.839 85.7266C159.438 85.8997 159.08 86.1481 158.766 86.4717C158.447 86.7998 158.192 87.2008 158 87.6748C157.809 88.1442 157.713 88.6774 157.713 89.2744V89.5615C157.713 90.0765 157.8 90.5527 157.973 90.9902C158.146 91.4277 158.388 91.806 158.697 92.125C159.007 92.444 159.379 92.6924 159.812 92.8701C160.249 93.0479 160.728 93.1367 161.247 93.1367ZM161.083 86.5059C161.407 86.5059 161.685 86.5651 161.917 86.6836C162.154 86.8021 162.35 86.957 162.505 87.1484C162.66 87.3398 162.781 87.5677 162.867 87.832C162.954 88.0918 162.997 88.3356 162.997 88.5635V88.625H159.019C159.069 88.2832 159.155 87.9824 159.279 87.7227C159.406 87.4583 159.561 87.235 159.743 87.0527C159.926 86.875 160.131 86.7406 160.359 86.6494C160.586 86.5537 160.828 86.5059 161.083 86.5059ZM168.955 93.1367C169.676 93.1367 170.279 92.9932 170.767 92.7061C171.259 92.4144 171.628 92.0817 171.874 91.708L171.102 91.1064C170.87 91.4072 170.578 91.6488 170.227 91.8311C169.876 92.0133 169.475 92.1045 169.024 92.1045C168.682 92.1045 168.37 92.0407 168.087 91.9131C167.805 91.7855 167.563 91.61 167.363 91.3867C167.167 91.1771 167.012 90.9355 166.898 90.6621C166.788 90.3887 166.718 90.0719 166.686 89.7119V89.6641H171.97V89.0967C171.97 88.5817 171.904 88.1032 171.772 87.6611C171.644 87.2191 171.448 86.834 171.184 86.5059C170.92 86.1823 170.587 85.9294 170.186 85.7471C169.789 85.5602 169.325 85.4668 168.791 85.4668C168.368 85.4668 167.953 85.5534 167.547 85.7266C167.146 85.8997 166.788 86.1481 166.474 86.4717C166.155 86.7998 165.9 87.2008 165.708 87.6748C165.517 88.1442 165.421 88.6774 165.421 89.2744V89.5615C165.421 90.0765 165.508 90.5527 165.681 90.9902C165.854 91.4277 166.096 91.806 166.406 92.125C166.716 92.444 167.087 92.6924 167.52 92.8701C167.957 93.0479 168.436 93.1367 168.955 93.1367ZM168.791 86.5059C169.115 86.5059 169.393 86.5651 169.625 86.6836C169.862 86.8021 170.058 86.957 170.213 87.1484C170.368 87.3398 170.489 87.5677 170.576 87.832C170.662 88.0918 170.705 88.3356 170.705 88.5635V88.625H166.727C166.777 88.2832 166.864 87.9824 166.987 87.7227C167.114 87.4583 167.269 87.235 167.452 87.0527C167.634 86.875 167.839 86.7406 168.067 86.6494C168.295 86.5537 168.536 86.5059 168.791 86.5059ZM173.157 89.2402V89.3838C173.157 89.9124 173.227 90.4069 173.369 90.8672C173.51 91.3229 173.708 91.7194 173.963 92.0566C174.219 92.3939 174.526 92.6582 174.886 92.8496C175.251 93.041 175.657 93.1367 176.103 93.1367C176.559 93.1367 176.958 93.0592 177.299 92.9043C177.641 92.7493 177.935 92.5215 178.181 92.2207L178.236 93H179.398V82.5H178.133V86.335C177.892 86.0524 177.605 85.8382 177.272 85.6924C176.944 85.542 176.559 85.4668 176.117 85.4668C175.666 85.4668 175.258 85.5602 174.893 85.7471C174.529 85.9339 174.219 86.1937 173.963 86.5264C173.704 86.859 173.503 87.2578 173.362 87.7227C173.225 88.1829 173.157 88.6888 173.157 89.2402ZM174.421 89.3838V89.2402C174.421 88.8802 174.46 88.5384 174.538 88.2148C174.615 87.8867 174.736 87.5973 174.9 87.3467C175.06 87.1006 175.265 86.9046 175.515 86.7588C175.77 86.613 176.076 86.54 176.431 86.54C176.846 86.54 177.192 86.638 177.47 86.834C177.748 87.0254 177.969 87.2715 178.133 87.5723V91.0039C177.969 91.3275 177.748 91.585 177.47 91.7764C177.192 91.9678 176.841 92.0635 176.418 92.0635C176.067 92.0635 175.766 91.9928 175.515 91.8516C175.265 91.7057 175.06 91.5098 174.9 91.2637C174.736 91.0176 174.615 90.7327 174.538 90.4092C174.46 90.0856 174.421 89.7438 174.421 89.3838ZM184.372 93.1367C185.092 93.1367 185.696 92.9932 186.183 92.7061C186.676 92.4144 187.045 92.0817 187.291 91.708L186.518 91.1064C186.286 91.4072 185.994 91.6488 185.643 91.8311C185.292 92.0133 184.891 92.1045 184.44 92.1045C184.098 92.1045 183.786 92.0407 183.504 91.9131C183.221 91.7855 182.98 91.61 182.779 91.3867C182.583 91.1771 182.428 90.9355 182.314 90.6621C182.205 90.3887 182.134 90.0719 182.102 89.7119V89.6641H187.387V89.0967C187.387 88.5817 187.32 88.1032 187.188 87.6611C187.061 87.2191 186.865 86.834 186.6 86.5059C186.336 86.1823 186.003 85.9294 185.602 85.7471C185.206 85.5602 184.741 85.4668 184.208 85.4668C183.784 85.4668 183.369 85.5534 182.964 85.7266C182.563 85.8997 182.205 86.1481 181.89 86.4717C181.571 86.7998 181.316 87.2008 181.125 87.6748C180.933 88.1442 180.838 88.6774 180.838 89.2744V89.5615C180.838 90.0765 180.924 90.5527 181.097 90.9902C181.271 91.4277 181.512 91.806 181.822 92.125C182.132 92.444 182.503 92.6924 182.936 92.8701C183.374 93.0479 183.852 93.1367 184.372 93.1367ZM184.208 86.5059C184.531 86.5059 184.809 86.5651 185.042 86.6836C185.279 86.8021 185.475 86.957 185.63 87.1484C185.785 87.3398 185.905 87.5677 185.992 87.832C186.079 88.0918 186.122 88.3356 186.122 88.5635V88.625H182.143C182.193 88.2832 182.28 87.9824 182.403 87.7227C182.531 87.4583 182.686 87.235 182.868 87.0527C183.05 86.875 183.255 86.7406 183.483 86.6494C183.711 86.5537 183.953 86.5059 184.208 86.5059ZM188.573 89.2402V89.3838C188.573 89.9124 188.644 90.4069 188.785 90.8672C188.926 91.3229 189.125 91.7194 189.38 92.0566C189.635 92.3939 189.943 92.6582 190.303 92.8496C190.667 93.041 191.073 93.1367 191.52 93.1367C191.975 93.1367 192.374 93.0592 192.716 92.9043C193.058 92.7493 193.352 92.5215 193.598 92.2207L193.652 93H194.814V82.5H193.55V86.335C193.308 86.0524 193.021 85.8382 192.688 85.6924C192.36 85.542 191.975 85.4668 191.533 85.4668C191.082 85.4668 190.674 85.5602 190.31 85.7471C189.945 85.9339 189.635 86.1937 189.38 86.5264C189.12 86.859 188.92 87.2578 188.778 87.7227C188.642 88.1829 188.573 88.6888 188.573 89.2402ZM189.838 89.3838V89.2402C189.838 88.8802 189.877 88.5384 189.954 88.2148C190.032 87.8867 190.152 87.5973 190.316 87.3467C190.476 87.1006 190.681 86.9046 190.932 86.7588C191.187 86.613 191.492 86.54 191.848 86.54C192.262 86.54 192.609 86.638 192.887 86.834C193.165 87.0254 193.386 87.2715 193.55 87.5723V91.0039C193.386 91.3275 193.165 91.585 192.887 91.7764C192.609 91.9678 192.258 92.0635 191.834 92.0635C191.483 92.0635 191.182 91.9928 190.932 91.8516C190.681 91.7057 190.476 91.5098 190.316 91.2637C190.152 91.0176 190.032 90.7327 189.954 90.4092C189.877 90.0856 189.838 89.7438 189.838 89.3838Z" fill="white"/>
<path d="M229 93H233V105H229V93Z" fill="#ACB2C2"/>
<path d="M235 104H239V105H235V104Z" fill="#ACB2C2" fill-opacity="0.5"/>
<path d="M241 104H245V105H241V104Z" fill="#ACB2C2" fill-opacity="0.5"/>
<path d="M247 80H251V105H247V80Z" fill="#ACB2C2"/>
<path d="M253 100H257V105H253V100Z" fill="#ACB2C2"/>
<path d="M259 100H263V105H259V100Z" fill="#ACB2C2"/>
<path d="M265 99H269V105H265V99Z" fill="#ACB2C2"/>
<path d="M271 97H275V105H271V97Z" fill="#ACB2C2"/>
<path d="M277 73H281V105H277V73Z" fill="#ACB2C2"/>
<path d="M283 96H287V105H283V96Z" fill="#ACB2C2"/>
<path d="M289 94H293V105H289V94Z" fill="#ACB2C2"/>
<path d="M295 94H299V105H295V94Z" fill="#ACB2C2"/>
<path d="M301 98H305V105H301V98Z" fill="#ACB2C2"/>
<path d="M307 100H311V105H307V100Z" fill="#ACB2C2"/>
<path d="M313 98H317V105H313V98Z" fill="#ACB2C2"/>
<path d="M319 98H323V105H319V98Z" fill="#ACB2C2"/>
<path d="M325 100H329V105H325V100Z" fill="#ACB2C2"/>
<path d="M331 103H335V105H331V103Z" fill="#ACB2C2"/>
<path d="M337 100H341V105H337V100Z" fill="#ACB2C2"/>
<path d="M343 100H347V105H343V100Z" fill="#ACB2C2"/>
<path d="M349 100H353V105H349V100Z" fill="#ACB2C2"/>
<path d="M355 103H359V105H355V103Z" fill="#ACB2C2"/>
<path d="M361 103H365V105H361V103Z" fill="#ACB2C2"/>
<path d="M367 103H371V105H367V103Z" fill="#ACB2C2"/>
<path d="M373 101H377V105H373V101Z" fill="#ACB2C2"/>
<path d="M379 101H383V105H379V101Z" fill="#ACB2C2"/>
<path d="M385 96H389V105H385V96Z" fill="#ACB2C2"/>
<rect x="24" y="129" width="445" height="72" rx="8" fill="black"/>
<path fill-rule="evenodd" clip-rule="evenodd" d="M419.5 171.607C416.708 171.607 414.444 169.424 414.444 166.731C414.444 164.156 416.516 162.046 419.139 161.868L419.139 165.319L425.177 161.159L419.139 157L419.139 160.472C415.717 160.653 413 163.386 413 166.731C413 170.193 415.91 173 419.5 173C423.09 173 426 170.193 426 166.731L424.556 166.731C424.556 169.424 422.292 171.607 419.5 171.607Z" fill="#ACB2C2"/>
<circle cx="44" cy="165" r="4" fill="#F24242"/>
<rect x="64" y="151" width="133" height="28" rx="4" fill="#404656"/>
<path d="M76.3408 168.111C75.9443 168.111 75.6117 168.034 75.3428 167.879C75.0785 167.719 74.8665 167.512 74.707 167.257C74.543 167.006 74.4245 166.724 74.3516 166.409C74.2832 166.09 74.249 165.769 74.249 165.445V165.158C74.249 164.839 74.2832 164.522 74.3516 164.208C74.4245 163.894 74.543 163.609 74.707 163.354C74.8711 163.103 75.0853 162.9 75.3496 162.745C75.6185 162.586 75.9489 162.506 76.3408 162.506C76.596 162.506 76.833 162.549 77.0518 162.636C77.2751 162.722 77.4665 162.841 77.626 162.991C77.7855 163.142 77.9108 163.317 78.002 163.518C78.0977 163.714 78.1478 163.923 78.1523 164.146H79.3486C79.3486 163.773 79.2734 163.422 79.123 163.094C78.9727 162.766 78.7653 162.481 78.501 162.239C78.2321 162.002 77.9131 161.815 77.5439 161.679C77.1794 161.537 76.7783 161.467 76.3408 161.467C75.7803 161.467 75.2904 161.567 74.8711 161.768C74.4518 161.968 74.1032 162.237 73.8252 162.574C73.5426 162.916 73.3307 163.31 73.1895 163.757C73.0482 164.203 72.9775 164.671 72.9775 165.158V165.445C72.9775 165.938 73.0482 166.407 73.1895 166.854C73.3307 167.296 73.5426 167.685 73.8252 168.022C74.1032 168.364 74.4518 168.635 74.8711 168.836C75.2904 169.036 75.7803 169.137 76.3408 169.137C76.7327 169.137 77.1087 169.071 77.4688 168.938C77.8288 168.802 78.1478 168.619 78.4258 168.392C78.7038 168.168 78.9248 167.909 79.0889 167.612C79.2575 167.312 79.3441 166.997 79.3486 166.669H78.1523C78.1478 166.874 78.0931 167.065 77.9883 167.243C77.888 167.416 77.7536 167.567 77.585 167.694C77.4163 167.826 77.2227 167.929 77.0039 168.002C76.7897 168.075 76.5687 168.111 76.3408 168.111ZM82.1623 162.704V158.5H80.8977V169H82.1623V163.627C82.2535 163.481 82.356 163.349 82.4699 163.23C82.5884 163.107 82.716 163 82.8527 162.909C83.0259 162.791 83.215 162.7 83.4201 162.636C83.6252 162.572 83.8417 162.54 84.0695 162.54C84.3475 162.535 84.5936 162.574 84.8078 162.656C85.022 162.734 85.1997 162.852 85.341 163.012C85.4732 163.158 85.5734 163.342 85.6418 163.565C85.7102 163.784 85.7443 164.039 85.7443 164.331V169H87.009V164.345C87.009 163.848 86.9475 163.42 86.8244 163.06C86.7059 162.695 86.535 162.394 86.3117 162.157C86.0884 161.92 85.8173 161.747 85.4982 161.638C85.1838 161.524 84.8329 161.467 84.4455 161.467C84.1493 161.471 83.869 161.515 83.6047 161.597C83.3449 161.679 83.1057 161.799 82.8869 161.959C82.7502 162.055 82.6203 162.166 82.4973 162.294C82.3742 162.417 82.2626 162.554 82.1623 162.704ZM93.4662 169H94.7855V168.891C94.7035 168.686 94.6397 168.446 94.5941 168.173C94.5486 167.895 94.5258 167.633 94.5258 167.387V163.948C94.5258 163.534 94.4506 163.171 94.3002 162.861C94.1498 162.551 93.9447 162.292 93.685 162.082C93.4206 161.877 93.1085 161.724 92.7484 161.624C92.3884 161.519 91.9988 161.467 91.5795 161.467C91.1192 161.467 90.7068 161.531 90.3422 161.658C89.9822 161.786 89.6768 161.952 89.4262 162.157C89.171 162.367 88.975 162.602 88.8383 162.861C88.7061 163.121 88.6378 163.385 88.6332 163.654H89.9047C89.9047 163.499 89.9411 163.351 90.0141 163.21C90.0915 163.064 90.1986 162.939 90.3354 162.834C90.4721 162.729 90.6384 162.645 90.8344 162.581C91.0349 162.517 91.2605 162.485 91.5111 162.485C91.78 162.485 92.0215 162.52 92.2357 162.588C92.4545 162.656 92.6391 162.752 92.7895 162.875C92.9398 163.003 93.0561 163.155 93.1381 163.333C93.2201 163.511 93.2611 163.711 93.2611 163.935V164.516H91.8803C91.3653 164.516 90.8982 164.566 90.4789 164.666C90.0642 164.766 89.7087 164.917 89.4125 165.117C89.1163 165.322 88.8861 165.577 88.7221 165.883C88.5626 166.188 88.4828 166.544 88.4828 166.949C88.4828 167.259 88.5421 167.549 88.6605 167.817C88.7836 168.082 88.9568 168.31 89.1801 168.501C89.3988 168.697 89.6654 168.852 89.9799 168.966C90.2989 169.08 90.6544 169.137 91.0463 169.137C91.2878 169.137 91.5157 169.112 91.7299 169.062C91.9441 169.011 92.1469 168.943 92.3383 168.856C92.5251 168.77 92.696 168.67 92.851 168.556C93.0105 168.442 93.154 168.321 93.2816 168.193C93.2953 168.348 93.3158 168.499 93.3432 168.645C93.3751 168.786 93.4161 168.904 93.4662 169ZM91.2309 168.036C90.9848 168.036 90.7683 168.004 90.5814 167.94C90.3946 167.877 90.2396 167.788 90.1166 167.674C89.9936 167.564 89.9001 167.432 89.8363 167.277C89.7771 167.122 89.7475 166.954 89.7475 166.771C89.7475 166.58 89.7816 166.409 89.85 166.259C89.9229 166.108 90.0277 165.979 90.1645 165.869C90.3559 165.714 90.6133 165.6 90.9369 165.527C91.265 165.45 91.6479 165.411 92.0854 165.411H93.2611V166.908C93.1882 167.054 93.088 167.195 92.9604 167.332C92.8327 167.464 92.6824 167.583 92.5092 167.688C92.3314 167.792 92.1355 167.877 91.9213 167.94C91.7071 168.004 91.477 168.036 91.2309 168.036ZM101.161 161.467C100.623 161.467 100.142 161.585 99.7184 161.822C99.2991 162.055 98.9391 162.374 98.6383 162.779L98.6314 162.595L98.5768 161.604H97.3736V169H98.6451V164.256C98.7271 164.028 98.8297 163.823 98.9527 163.641C99.0803 163.454 99.2285 163.297 99.3971 163.169C99.5839 163.023 99.8027 162.914 100.053 162.841C100.304 162.763 100.584 162.725 100.894 162.725C101.136 162.725 101.366 162.738 101.585 162.766C101.808 162.788 102.043 162.827 102.289 162.882L102.46 161.645C102.332 161.59 102.141 161.547 101.885 161.515C101.635 161.483 101.393 161.467 101.161 161.467ZM103.79 165.24V165.384C103.79 165.912 103.858 166.407 103.995 166.867C104.132 167.323 104.328 167.719 104.583 168.057C104.833 168.394 105.141 168.658 105.506 168.85C105.87 169.041 106.278 169.137 106.729 169.137C106.998 169.137 107.249 169.107 107.481 169.048C107.714 168.993 107.926 168.913 108.117 168.809C108.24 168.74 108.354 168.66 108.459 168.569C108.568 168.478 108.671 168.378 108.766 168.269V168.904C108.766 169.223 108.721 169.506 108.63 169.752C108.539 169.998 108.409 170.203 108.24 170.367C108.067 170.536 107.86 170.663 107.618 170.75C107.376 170.837 107.105 170.88 106.804 170.88C106.636 170.88 106.467 170.862 106.299 170.825C106.13 170.793 105.961 170.739 105.793 170.661C105.624 170.584 105.458 170.479 105.294 170.347C105.13 170.219 104.97 170.062 104.815 169.875L104.159 170.634C104.328 170.875 104.528 171.078 104.761 171.242C104.998 171.406 105.244 171.536 105.499 171.632C105.749 171.732 105.998 171.803 106.244 171.844C106.49 171.889 106.709 171.912 106.9 171.912C107.365 171.912 107.789 171.844 108.172 171.707C108.554 171.57 108.885 171.37 109.163 171.105C109.436 170.841 109.648 170.52 109.799 170.142C109.954 169.763 110.031 169.33 110.031 168.843V161.604H108.883L108.821 162.41C108.735 162.301 108.641 162.201 108.541 162.109C108.445 162.018 108.343 161.938 108.233 161.87C108.033 161.738 107.807 161.638 107.556 161.569C107.31 161.501 107.039 161.467 106.743 161.467C106.283 161.467 105.87 161.56 105.506 161.747C105.141 161.934 104.831 162.194 104.576 162.526C104.321 162.859 104.125 163.258 103.988 163.723C103.856 164.183 103.79 164.689 103.79 165.24ZM105.054 165.384V165.24C105.054 164.88 105.091 164.538 105.164 164.215C105.241 163.887 105.362 163.597 105.526 163.347C105.686 163.101 105.891 162.905 106.141 162.759C106.397 162.613 106.702 162.54 107.057 162.54C107.267 162.54 107.458 162.567 107.632 162.622C107.805 162.672 107.962 162.743 108.103 162.834C108.245 162.93 108.37 163.041 108.479 163.169C108.589 163.297 108.684 163.438 108.766 163.593V166.983C108.684 167.143 108.589 167.289 108.479 167.421C108.37 167.553 108.247 167.667 108.11 167.763C107.969 167.858 107.809 167.934 107.632 167.988C107.458 168.038 107.263 168.063 107.044 168.063C106.693 168.063 106.392 167.993 106.141 167.852C105.891 167.706 105.686 167.51 105.526 167.264C105.362 167.018 105.241 166.733 105.164 166.409C105.091 166.086 105.054 165.744 105.054 165.384ZM114.998 169.137C115.718 169.137 116.322 168.993 116.81 168.706C117.302 168.414 117.671 168.082 117.917 167.708L117.145 167.106C116.912 167.407 116.62 167.649 116.27 167.831C115.919 168.013 115.518 168.104 115.066 168.104C114.725 168.104 114.412 168.041 114.13 167.913C113.847 167.785 113.606 167.61 113.405 167.387C113.209 167.177 113.054 166.936 112.94 166.662C112.831 166.389 112.76 166.072 112.729 165.712V165.664H118.013V165.097C118.013 164.582 117.947 164.103 117.814 163.661C117.687 163.219 117.491 162.834 117.227 162.506C116.962 162.182 116.63 161.929 116.229 161.747C115.832 161.56 115.367 161.467 114.834 161.467C114.41 161.467 113.995 161.553 113.59 161.727C113.189 161.9 112.831 162.148 112.517 162.472C112.198 162.8 111.942 163.201 111.751 163.675C111.56 164.144 111.464 164.677 111.464 165.274V165.562C111.464 166.076 111.55 166.553 111.724 166.99C111.897 167.428 112.138 167.806 112.448 168.125C112.758 168.444 113.13 168.692 113.562 168.87C114 169.048 114.479 169.137 114.998 169.137ZM114.834 162.506C115.158 162.506 115.436 162.565 115.668 162.684C115.905 162.802 116.101 162.957 116.256 163.148C116.411 163.34 116.532 163.568 116.618 163.832C116.705 164.092 116.748 164.336 116.748 164.563V164.625H112.77C112.82 164.283 112.906 163.982 113.029 163.723C113.157 163.458 113.312 163.235 113.494 163.053C113.676 162.875 113.882 162.741 114.109 162.649C114.337 162.554 114.579 162.506 114.834 162.506ZM121.64 168.18C121.64 168.444 121.722 168.67 121.886 168.856C122.055 169.039 122.303 169.13 122.631 169.13C122.955 169.13 123.203 169.039 123.376 168.856C123.549 168.674 123.636 168.449 123.636 168.18C123.636 167.906 123.549 167.676 123.376 167.489C123.208 167.298 122.959 167.202 122.631 167.202C122.298 167.202 122.05 167.298 121.886 167.489C121.722 167.681 121.64 167.911 121.64 168.18ZM131.994 161.467C131.456 161.467 130.975 161.585 130.551 161.822C130.132 162.055 129.772 162.374 129.471 162.779L129.464 162.595L129.41 161.604H128.206V169H129.478V164.256C129.56 164.028 129.662 163.823 129.786 163.641C129.913 163.454 130.061 163.297 130.23 163.169C130.417 163.023 130.635 162.914 130.886 162.841C131.137 162.763 131.417 162.725 131.727 162.725C131.968 162.725 132.199 162.738 132.417 162.766C132.641 162.788 132.875 162.827 133.121 162.882L133.292 161.645C133.165 161.59 132.973 161.547 132.718 161.515C132.468 161.483 132.226 161.467 131.994 161.467ZM138.123 169.137C138.843 169.137 139.447 168.993 139.934 168.706C140.426 168.414 140.796 168.082 141.042 167.708L140.269 167.106C140.037 167.407 139.745 167.649 139.394 167.831C139.043 168.013 138.642 168.104 138.191 168.104C137.849 168.104 137.537 168.041 137.254 167.913C136.972 167.785 136.73 167.61 136.53 167.387C136.334 167.177 136.179 166.936 136.065 166.662C135.956 166.389 135.885 166.072 135.853 165.712V165.664H141.137V165.097C141.137 164.582 141.071 164.103 140.939 163.661C140.811 163.219 140.615 162.834 140.351 162.506C140.087 162.182 139.754 161.929 139.353 161.747C138.957 161.56 138.492 161.467 137.959 161.467C137.535 161.467 137.12 161.553 136.714 161.727C136.313 161.9 135.956 162.148 135.641 162.472C135.322 162.8 135.067 163.201 134.876 163.675C134.684 164.144 134.588 164.677 134.588 165.274V165.562C134.588 166.076 134.675 166.553 134.848 166.99C135.021 167.428 135.263 167.806 135.573 168.125C135.883 168.444 136.254 168.692 136.687 168.87C137.125 169.048 137.603 169.137 138.123 169.137ZM137.959 162.506C138.282 162.506 138.56 162.565 138.793 162.684C139.03 162.802 139.226 162.957 139.38 163.148C139.535 163.34 139.656 163.568 139.743 163.832C139.829 164.092 139.873 164.336 139.873 164.563V164.625H135.894C135.944 164.283 136.031 163.982 136.154 163.723C136.282 163.458 136.436 163.235 136.619 163.053C136.801 162.875 137.006 162.741 137.234 162.649C137.462 162.554 137.703 162.506 137.959 162.506ZM144.45 169H145.721V162.581H148.572V161.604H145.721V161.084C145.721 160.774 145.76 160.503 145.838 160.271C145.92 160.038 146.038 159.849 146.193 159.703C146.339 159.562 146.521 159.457 146.74 159.389C146.963 159.316 147.219 159.279 147.506 159.279C147.788 159.279 148.053 159.304 148.299 159.354C148.549 159.4 148.768 159.455 148.955 159.519L149.105 158.473C148.987 158.441 148.871 158.413 148.757 158.391C148.643 158.363 148.529 158.338 148.415 158.315C148.242 158.284 148.066 158.258 147.888 158.24C147.711 158.217 147.531 158.206 147.348 158.206C146.911 158.206 146.514 158.268 146.159 158.391C145.804 158.514 145.5 158.696 145.25 158.938C144.995 159.179 144.796 159.48 144.655 159.84C144.518 160.195 144.45 160.61 144.45 161.084V161.604H142.413V162.581H144.45V169ZM155.146 169H156.294V161.604H155.022V166.908C154.954 167.068 154.868 167.216 154.763 167.353C154.662 167.485 154.544 167.599 154.407 167.694C154.243 167.813 154.049 167.906 153.826 167.975C153.603 168.038 153.35 168.07 153.067 168.07C152.826 168.07 152.612 168.038 152.425 167.975C152.243 167.911 152.088 167.799 151.96 167.64C151.832 167.485 151.737 167.275 151.673 167.011C151.609 166.746 151.577 166.414 151.577 166.013V161.604H150.312V165.999C150.312 166.55 150.372 167.024 150.49 167.421C150.613 167.813 150.786 168.136 151.01 168.392C151.233 168.647 151.502 168.836 151.816 168.959C152.131 169.077 152.482 169.137 152.869 169.137C153.352 169.137 153.778 169.036 154.147 168.836C154.517 168.631 154.824 168.346 155.07 167.981L155.146 169ZM157.98 169H159.244V163.695C159.331 163.536 159.431 163.39 159.545 163.258C159.664 163.126 159.791 163.009 159.928 162.909C160.097 162.795 160.281 162.706 160.482 162.643C160.682 162.574 160.899 162.54 161.131 162.54C161.4 162.54 161.637 162.572 161.842 162.636C162.052 162.7 162.229 162.802 162.375 162.943C162.516 163.085 162.624 163.269 162.696 163.497C162.769 163.725 162.806 164.003 162.806 164.331V169H164.071V164.304C164.071 163.812 164.009 163.388 163.886 163.032C163.767 162.672 163.597 162.376 163.373 162.144C163.15 161.911 162.879 161.74 162.56 161.631C162.245 161.521 161.894 161.467 161.507 161.467C161.22 161.471 160.946 161.515 160.687 161.597C160.432 161.674 160.195 161.786 159.976 161.932C159.83 162.027 159.691 162.141 159.559 162.273C159.431 162.401 159.313 162.542 159.203 162.697L159.114 161.604H157.98V169ZM165.449 165.24V165.384C165.449 165.912 165.519 166.407 165.661 166.867C165.802 167.323 166 167.719 166.255 168.057C166.51 168.394 166.818 168.658 167.178 168.85C167.543 169.041 167.948 169.137 168.395 169.137C168.851 169.137 169.249 169.059 169.591 168.904C169.933 168.749 170.227 168.521 170.473 168.221L170.528 169H171.69V158.5H170.425V162.335C170.184 162.052 169.897 161.838 169.564 161.692C169.236 161.542 168.851 161.467 168.409 161.467C167.957 161.467 167.55 161.56 167.185 161.747C166.82 161.934 166.51 162.194 166.255 162.526C165.996 162.859 165.795 163.258 165.654 163.723C165.517 164.183 165.449 164.689 165.449 165.24ZM166.713 165.384V165.24C166.713 164.88 166.752 164.538 166.829 164.215C166.907 163.887 167.028 163.597 167.192 163.347C167.351 163.101 167.556 162.905 167.807 162.759C168.062 162.613 168.368 162.54 168.723 162.54C169.138 162.54 169.484 162.638 169.762 162.834C170.04 163.025 170.261 163.271 170.425 163.572V167.004C170.261 167.327 170.04 167.585 169.762 167.776C169.484 167.968 169.133 168.063 168.709 168.063C168.358 168.063 168.058 167.993 167.807 167.852C167.556 167.706 167.351 167.51 167.192 167.264C167.028 167.018 166.907 166.733 166.829 166.409C166.752 166.086 166.713 165.744 166.713 165.384ZM176.664 169.137C177.384 169.137 177.988 168.993 178.475 168.706C178.967 168.414 179.337 168.082 179.583 167.708L178.81 167.106C178.578 167.407 178.286 167.649 177.935 167.831C177.584 168.013 177.183 168.104 176.732 168.104C176.39 168.104 176.078 168.041 175.796 167.913C175.513 167.785 175.271 167.61 175.071 167.387C174.875 167.177 174.72 166.936 174.606 166.662C174.497 166.389 174.426 166.072 174.394 165.712V165.664H179.678V165.097C179.678 164.582 179.612 164.103 179.48 163.661C179.352 163.219 179.157 162.834 178.892 162.506C178.628 162.182 178.295 161.929 177.894 161.747C177.498 161.56 177.033 161.467 176.5 161.467C176.076 161.467 175.661 161.553 175.255 161.727C174.854 161.9 174.497 162.148 174.182 162.472C173.863 162.8 173.608 163.201 173.417 163.675C173.225 164.144 173.129 164.677 173.129 165.274V165.562C173.129 166.076 173.216 166.553 173.389 166.99C173.562 167.428 173.804 167.806 174.114 168.125C174.424 168.444 174.795 168.692 175.228 168.87C175.666 169.048 176.144 169.137 176.664 169.137ZM176.5 162.506C176.823 162.506 177.101 162.565 177.334 162.684C177.571 162.802 177.767 162.957 177.921 163.148C178.076 163.34 178.197 163.568 178.284 163.832C178.37 164.092 178.414 164.336 178.414 164.563V164.625H174.435C174.485 164.283 174.572 163.982 174.695 163.723C174.823 163.458 174.977 163.235 175.16 163.053C175.342 162.875 175.547 162.741 175.775 162.649C176.003 162.554 176.244 162.506 176.5 162.506ZM180.865 165.24V165.384C180.865 165.912 180.936 166.407 181.077 166.867C181.218 167.323 181.416 167.719 181.672 168.057C181.927 168.394 182.235 168.658 182.595 168.85C182.959 169.041 183.365 169.137 183.811 169.137C184.267 169.137 184.666 169.059 185.008 168.904C185.349 168.749 185.643 168.521 185.889 168.221L185.944 169H187.106V158.5H185.842V162.335C185.6 162.052 185.313 161.838 184.98 161.692C184.652 161.542 184.267 161.467 183.825 161.467C183.374 161.467 182.966 161.56 182.601 161.747C182.237 161.934 181.927 162.194 181.672 162.526C181.412 162.859 181.211 163.258 181.07 163.723C180.933 164.183 180.865 164.689 180.865 165.24ZM182.13 165.384V165.24C182.13 164.88 182.168 164.538 182.246 164.215C182.323 163.887 182.444 163.597 182.608 163.347C182.768 163.101 182.973 162.905 183.223 162.759C183.479 162.613 183.784 162.54 184.139 162.54C184.554 162.54 184.901 162.638 185.179 162.834C185.457 163.025 185.678 163.271 185.842 163.572V167.004C185.678 167.327 185.457 167.585 185.179 167.776C184.901 167.968 184.55 168.063 184.126 168.063C183.775 168.063 183.474 167.993 183.223 167.852C182.973 167.706 182.768 167.51 182.608 167.264C182.444 167.018 182.323 166.733 182.246 166.409C182.168 166.086 182.13 165.744 182.13 165.384Z" fill="white"/>
<path d="M229 177H233V181H229V177Z" fill="#ACB2C2"/>
<path d="M235 180H239V181H235V180Z" fill="#ACB2C2" fill-opacity="0.5"/>
<path d="M241 180H245V181H241V180Z" fill="#ACB2C2" fill-opacity="0.5"/>
<path d="M247 176H251V181H247V176Z" fill="#ACB2C2"/>
<path d="M253 180H257V181H253V180Z" fill="#ACB2C2" fill-opacity="0.5"/>
<path d="M259 180H263V181H259V180Z" fill="#ACB2C2" fill-opacity="0.5"/>
<path d="M265 180H269V181H265V180Z" fill="#ACB2C2" fill-opacity="0.5"/>
<path d="M271 180H275V181H271V180Z" fill="#ACB2C2" fill-opacity="0.5"/>
<path d="M277 180H281V181H277V180Z" fill="#ACB2C2" fill-opacity="0.5"/>
<path d="M283 180H287V181H283V180Z" fill="#ACB2C2" fill-opacity="0.5"/>
<path d="M289 180H293V181H289V180Z" fill="#ACB2C2" fill-opacity="0.5"/>
<path d="M295 180H299V181H295V180Z" fill="#ACB2C2" fill-opacity="0.5"/>
<path d="M301 180H305V181H301V180Z" fill="#ACB2C2" fill-opacity="0.5"/>
<path d="M307 180H311V181H307V180Z" fill="#ACB2C2" fill-opacity="0.5"/>
<path d="M313 180H317V181H313V180Z" fill="#ACB2C2" fill-opacity="0.5"/>
<path d="M319 180H323V181H319V180Z" fill="#ACB2C2" fill-opacity="0.5"/>
<path d="M325 180H329V181H325V180Z" fill="#ACB2C2" fill-opacity="0.5"/>
<path d="M331 149H335V181H331V149Z" fill="#F24242"/>
<path d="M337 172H341V181H337V172Z" fill="#F24242"/>
<path d="M343 179H347V181H343V179Z" fill="#F24242"/>
<path d="M349 177H353V181H349V177Z" fill="#F24242"/>
<path d="M355 179H359V181H355V179Z" fill="#F24242"/>
<path d="M361 176H365V181H361V176Z" fill="#F24242"/>
<path d="M367 177H371V181H367V177Z" fill="#F24242"/>
<path d="M373 179H377V181H373V179Z" fill="#F24242"/>
<path d="M379 179H383V181H379V179Z" fill="#F24242"/>
<path d="M385 172H389V181H385V172Z" fill="#F24242"/>
<rect x="24" y="205" width="445" height="72" rx="8" fill="black"/>
<path fill-rule="evenodd" clip-rule="evenodd" d="M419.5 247.607C416.708 247.607 414.444 245.424 414.444 242.731C414.444 240.156 416.516 238.046 419.139 237.868L419.139 241.319L425.177 237.159L419.139 233L419.139 236.472C415.717 236.653 413 239.386 413 242.731C413 246.193 415.91 249 419.5 249C423.09 249 426 246.193 426 242.731L424.556 242.731C424.556 245.424 422.292 247.607 419.5 247.607Z" fill="#ACB2C2"/>
<circle cx="44" cy="241" r="4" fill="#95DD7B"/>
<rect x="64" y="227" width="125" height="28" rx="4" fill="#404656"/>
<path d="M76.3408 244.111C75.9443 244.111 75.6117 244.034 75.3428 243.879C75.0785 243.719 74.8665 243.512 74.707 243.257C74.543 243.006 74.4245 242.724 74.3516 242.409C74.2832 242.09 74.249 241.769 74.249 241.445V241.158C74.249 240.839 74.2832 240.522 74.3516 240.208C74.4245 239.894 74.543 239.609 74.707 239.354C74.8711 239.103 75.0853 238.9 75.3496 238.745C75.6185 238.586 75.9489 238.506 76.3408 238.506C76.596 238.506 76.833 238.549 77.0518 238.636C77.2751 238.722 77.4665 238.841 77.626 238.991C77.7855 239.142 77.9108 239.317 78.002 239.518C78.0977 239.714 78.1478 239.923 78.1523 240.146H79.3486C79.3486 239.773 79.2734 239.422 79.123 239.094C78.9727 238.766 78.7653 238.481 78.501 238.239C78.2321 238.002 77.9131 237.815 77.5439 237.679C77.1794 237.537 76.7783 237.467 76.3408 237.467C75.7803 237.467 75.2904 237.567 74.8711 237.768C74.4518 237.968 74.1032 238.237 73.8252 238.574C73.5426 238.916 73.3307 239.31 73.1895 239.757C73.0482 240.203 72.9775 240.671 72.9775 241.158V241.445C72.9775 241.938 73.0482 242.407 73.1895 242.854C73.3307 243.296 73.5426 243.685 73.8252 244.022C74.1032 244.364 74.4518 244.635 74.8711 244.836C75.2904 245.036 75.7803 245.137 76.3408 245.137C76.7327 245.137 77.1087 245.071 77.4688 244.938C77.8288 244.802 78.1478 244.619 78.4258 244.392C78.7038 244.168 78.9248 243.909 79.0889 243.612C79.2575 243.312 79.3441 242.997 79.3486 242.669H78.1523C78.1478 242.874 78.0931 243.065 77.9883 243.243C77.888 243.416 77.7536 243.567 77.585 243.694C77.4163 243.826 77.2227 243.929 77.0039 244.002C76.7897 244.075 76.5687 244.111 76.3408 244.111ZM82.1623 238.704V234.5H80.8977V245H82.1623V239.627C82.2535 239.481 82.356 239.349 82.4699 239.23C82.5884 239.107 82.716 239 82.8527 238.909C83.0259 238.791 83.215 238.7 83.4201 238.636C83.6252 238.572 83.8417 238.54 84.0695 238.54C84.3475 238.535 84.5936 238.574 84.8078 238.656C85.022 238.734 85.1997 238.852 85.341 239.012C85.4732 239.158 85.5734 239.342 85.6418 239.565C85.7102 239.784 85.7443 240.039 85.7443 240.331V245H87.009V240.345C87.009 239.848 86.9475 239.42 86.8244 239.06C86.7059 238.695 86.535 238.394 86.3117 238.157C86.0884 237.92 85.8173 237.747 85.4982 237.638C85.1838 237.524 84.8329 237.467 84.4455 237.467C84.1493 237.471 83.869 237.515 83.6047 237.597C83.3449 237.679 83.1057 237.799 82.8869 237.959C82.7502 238.055 82.6203 238.166 82.4973 238.294C82.3742 238.417 82.2626 238.554 82.1623 238.704ZM93.4662 245H94.7855V244.891C94.7035 244.686 94.6397 244.446 94.5941 244.173C94.5486 243.895 94.5258 243.633 94.5258 243.387V239.948C94.5258 239.534 94.4506 239.171 94.3002 238.861C94.1498 238.551 93.9447 238.292 93.685 238.082C93.4206 237.877 93.1085 237.724 92.7484 237.624C92.3884 237.519 91.9988 237.467 91.5795 237.467C91.1192 237.467 90.7068 237.531 90.3422 237.658C89.9822 237.786 89.6768 237.952 89.4262 238.157C89.171 238.367 88.975 238.602 88.8383 238.861C88.7061 239.121 88.6378 239.385 88.6332 239.654H89.9047C89.9047 239.499 89.9411 239.351 90.0141 239.21C90.0915 239.064 90.1986 238.939 90.3354 238.834C90.4721 238.729 90.6384 238.645 90.8344 238.581C91.0349 238.517 91.2605 238.485 91.5111 238.485C91.78 238.485 92.0215 238.52 92.2357 238.588C92.4545 238.656 92.6391 238.752 92.7895 238.875C92.9398 239.003 93.0561 239.155 93.1381 239.333C93.2201 239.511 93.2611 239.711 93.2611 239.935V240.516H91.8803C91.3653 240.516 90.8982 240.566 90.4789 240.666C90.0642 240.766 89.7087 240.917 89.4125 241.117C89.1163 241.322 88.8861 241.577 88.7221 241.883C88.5626 242.188 88.4828 242.544 88.4828 242.949C88.4828 243.259 88.5421 243.549 88.6605 243.817C88.7836 244.082 88.9568 244.31 89.1801 244.501C89.3988 244.697 89.6654 244.852 89.9799 244.966C90.2989 245.08 90.6544 245.137 91.0463 245.137C91.2878 245.137 91.5157 245.112 91.7299 245.062C91.9441 245.011 92.1469 244.943 92.3383 244.856C92.5251 244.77 92.696 244.67 92.851 244.556C93.0105 244.442 93.154 244.321 93.2816 244.193C93.2953 244.348 93.3158 244.499 93.3432 244.645C93.3751 244.786 93.4161 244.904 93.4662 245ZM91.2309 244.036C90.9848 244.036 90.7683 244.004 90.5814 243.94C90.3946 243.877 90.2396 243.788 90.1166 243.674C89.9936 243.564 89.9001 243.432 89.8363 243.277C89.7771 243.122 89.7475 242.954 89.7475 242.771C89.7475 242.58 89.7816 242.409 89.85 242.259C89.9229 242.108 90.0277 241.979 90.1645 241.869C90.3559 241.714 90.6133 241.6 90.9369 241.527C91.265 241.45 91.6479 241.411 92.0854 241.411H93.2611V242.908C93.1882 243.054 93.088 243.195 92.9604 243.332C92.8327 243.464 92.6824 243.583 92.5092 243.688C92.3314 243.792 92.1355 243.877 91.9213 243.94C91.7071 244.004 91.477 244.036 91.2309 244.036ZM101.161 237.467C100.623 237.467 100.142 237.585 99.7184 237.822C99.2991 238.055 98.9391 238.374 98.6383 238.779L98.6314 238.595L98.5768 237.604H97.3736V245H98.6451V240.256C98.7271 240.028 98.8297 239.823 98.9527 239.641C99.0803 239.454 99.2285 239.297 99.3971 239.169C99.5839 239.023 99.8027 238.914 100.053 238.841C100.304 238.763 100.584 238.725 100.894 238.725C101.136 238.725 101.366 238.738 101.585 238.766C101.808 238.788 102.043 238.827 102.289 238.882L102.46 237.645C102.332 237.59 102.141 237.547 101.885 237.515C101.635 237.483 101.393 237.467 101.161 237.467ZM103.79 241.24V241.384C103.79 241.912 103.858 242.407 103.995 242.867C104.132 243.323 104.328 243.719 104.583 244.057C104.833 244.394 105.141 244.658 105.506 244.85C105.87 245.041 106.278 245.137 106.729 245.137C106.998 245.137 107.249 245.107 107.481 245.048C107.714 244.993 107.926 244.913 108.117 244.809C108.24 244.74 108.354 244.66 108.459 244.569C108.568 244.478 108.671 244.378 108.766 244.269V244.904C108.766 245.223 108.721 245.506 108.63 245.752C108.539 245.998 108.409 246.203 108.24 246.367C108.067 246.536 107.86 246.663 107.618 246.75C107.376 246.837 107.105 246.88 106.804 246.88C106.636 246.88 106.467 246.862 106.299 246.825C106.13 246.793 105.961 246.739 105.793 246.661C105.624 246.584 105.458 246.479 105.294 246.347C105.13 246.219 104.97 246.062 104.815 245.875L104.159 246.634C104.328 246.875 104.528 247.078 104.761 247.242C104.998 247.406 105.244 247.536 105.499 247.632C105.749 247.732 105.998 247.803 106.244 247.844C106.49 247.889 106.709 247.912 106.9 247.912C107.365 247.912 107.789 247.844 108.172 247.707C108.554 247.57 108.885 247.37 109.163 247.105C109.436 246.841 109.648 246.52 109.799 246.142C109.954 245.763 110.031 245.33 110.031 244.843V237.604H108.883L108.821 238.41C108.735 238.301 108.641 238.201 108.541 238.109C108.445 238.018 108.343 237.938 108.233 237.87C108.033 237.738 107.807 237.638 107.556 237.569C107.31 237.501 107.039 237.467 106.743 237.467C106.283 237.467 105.87 237.56 105.506 237.747C105.141 237.934 104.831 238.194 104.576 238.526C104.321 238.859 104.125 239.258 103.988 239.723C103.856 240.183 103.79 240.689 103.79 241.24ZM105.054 241.384V241.24C105.054 240.88 105.091 240.538 105.164 240.215C105.241 239.887 105.362 239.597 105.526 239.347C105.686 239.101 105.891 238.905 106.141 238.759C106.397 238.613 106.702 238.54 107.057 238.54C107.267 238.54 107.458 238.567 107.632 238.622C107.805 238.672 107.962 238.743 108.103 238.834C108.245 238.93 108.37 239.041 108.479 239.169C108.589 239.297 108.684 239.438 108.766 239.593V242.983C108.684 243.143 108.589 243.289 108.479 243.421C108.37 243.553 108.247 243.667 108.11 243.763C107.969 243.858 107.809 243.934 107.632 243.988C107.458 244.038 107.263 244.063 107.044 244.063C106.693 244.063 106.392 243.993 106.141 243.852C105.891 243.706 105.686 243.51 105.526 243.264C105.362 243.018 105.241 242.733 105.164 242.409C105.091 242.086 105.054 241.744 105.054 241.384ZM114.998 245.137C115.718 245.137 116.322 244.993 116.81 244.706C117.302 244.414 117.671 244.082 117.917 243.708L117.145 243.106C116.912 243.407 116.62 243.649 116.27 243.831C115.919 244.013 115.518 244.104 115.066 244.104C114.725 244.104 114.412 244.041 114.13 243.913C113.847 243.785 113.606 243.61 113.405 243.387C113.209 243.177 113.054 242.936 112.94 242.662C112.831 242.389 112.76 242.072 112.729 241.712V241.664H118.013V241.097C118.013 240.582 117.947 240.103 117.814 239.661C117.687 239.219 117.491 238.834 117.227 238.506C116.962 238.182 116.63 237.929 116.229 237.747C115.832 237.56 115.367 237.467 114.834 237.467C114.41 237.467 113.995 237.553 113.59 237.727C113.189 237.9 112.831 238.148 112.517 238.472C112.198 238.8 111.942 239.201 111.751 239.675C111.56 240.144 111.464 240.677 111.464 241.274V241.562C111.464 242.076 111.55 242.553 111.724 242.99C111.897 243.428 112.138 243.806 112.448 244.125C112.758 244.444 113.13 244.692 113.562 244.87C114 245.048 114.479 245.137 114.998 245.137ZM114.834 238.506C115.158 238.506 115.436 238.565 115.668 238.684C115.905 238.802 116.101 238.957 116.256 239.148C116.411 239.34 116.532 239.568 116.618 239.832C116.705 240.092 116.748 240.336 116.748 240.563V240.625H112.77C112.82 240.283 112.906 239.982 113.029 239.723C113.157 239.458 113.312 239.235 113.494 239.053C113.676 238.875 113.882 238.741 114.109 238.649C114.337 238.554 114.579 238.506 114.834 238.506ZM121.64 244.18C121.64 244.444 121.722 244.67 121.886 244.856C122.055 245.039 122.303 245.13 122.631 245.13C122.955 245.13 123.203 245.039 123.376 244.856C123.549 244.674 123.636 244.449 123.636 244.18C123.636 243.906 123.549 243.676 123.376 243.489C123.208 243.298 122.959 243.202 122.631 243.202C122.298 243.202 122.05 243.298 121.886 243.489C121.722 243.681 121.64 243.911 121.64 244.18ZM132.021 245H133.169V237.604H131.898V242.908C131.829 243.068 131.743 243.216 131.638 243.353C131.538 243.485 131.419 243.599 131.283 243.694C131.119 243.813 130.925 243.906 130.702 243.975C130.478 244.038 130.225 244.07 129.943 244.07C129.701 244.07 129.487 244.038 129.3 243.975C129.118 243.911 128.963 243.799 128.835 243.64C128.708 243.485 128.612 243.275 128.548 243.011C128.484 242.746 128.453 242.414 128.453 242.013V237.604H127.188V241.999C127.188 242.55 127.247 243.024 127.366 243.421C127.489 243.813 127.662 244.136 127.885 244.392C128.108 244.647 128.377 244.836 128.692 244.959C129.006 245.077 129.357 245.137 129.745 245.137C130.228 245.137 130.654 245.036 131.023 244.836C131.392 244.631 131.7 244.346 131.946 243.981L132.021 245ZM134.848 247.844H136.113V244.289C136.204 244.389 136.302 244.483 136.407 244.569C136.512 244.651 136.623 244.727 136.742 244.795C136.938 244.904 137.157 244.989 137.398 245.048C137.644 245.107 137.908 245.137 138.191 245.137C138.656 245.137 139.068 245.041 139.428 244.85C139.793 244.658 140.098 244.394 140.344 244.057C140.59 243.719 140.777 243.323 140.905 242.867C141.032 242.407 141.096 241.912 141.096 241.384V241.24C141.096 240.689 141.032 240.183 140.905 239.723C140.777 239.258 140.59 238.859 140.344 238.526C140.098 238.194 139.793 237.934 139.428 237.747C139.064 237.56 138.644 237.467 138.171 237.467C137.902 237.467 137.649 237.496 137.412 237.556C137.179 237.61 136.967 237.692 136.776 237.802C136.639 237.875 136.512 237.964 136.393 238.068C136.275 238.169 136.165 238.283 136.065 238.41L136.004 237.604H134.848V247.844ZM139.832 241.24V241.384C139.832 241.744 139.791 242.088 139.709 242.416C139.631 242.744 139.51 243.034 139.346 243.284C139.182 243.535 138.973 243.735 138.717 243.886C138.462 244.032 138.159 244.104 137.808 244.104C137.589 244.104 137.389 244.077 137.207 244.022C137.029 243.968 136.867 243.893 136.721 243.797C136.594 243.715 136.48 243.615 136.379 243.496C136.279 243.378 136.19 243.25 136.113 243.113V239.552C136.199 239.397 136.3 239.256 136.414 239.128C136.528 239 136.657 238.893 136.803 238.807C136.935 238.72 137.084 238.654 137.248 238.608C137.416 238.563 137.599 238.54 137.795 238.54C138.15 238.54 138.455 238.613 138.711 238.759C138.966 238.905 139.178 239.101 139.346 239.347C139.51 239.597 139.631 239.887 139.709 240.215C139.791 240.538 139.832 240.88 139.832 241.24ZM142.324 241.24V241.384C142.324 241.912 142.395 242.407 142.536 242.867C142.677 243.323 142.875 243.719 143.131 244.057C143.386 244.394 143.693 244.658 144.054 244.85C144.418 245.041 144.824 245.137 145.27 245.137C145.726 245.137 146.125 245.059 146.467 244.904C146.808 244.749 147.102 244.521 147.348 244.221L147.403 245H148.565V234.5H147.301V238.335C147.059 238.052 146.772 237.838 146.439 237.692C146.111 237.542 145.726 237.467 145.284 237.467C144.833 237.467 144.425 237.56 144.06 237.747C143.696 237.934 143.386 238.194 143.131 238.526C142.871 238.859 142.67 239.258 142.529 239.723C142.392 240.183 142.324 240.689 142.324 241.24ZM143.589 241.384V241.24C143.589 240.88 143.627 240.538 143.705 240.215C143.782 239.887 143.903 239.597 144.067 239.347C144.227 239.101 144.432 238.905 144.682 238.759C144.938 238.613 145.243 238.54 145.598 238.54C146.013 238.54 146.36 238.638 146.637 238.834C146.915 239.025 147.137 239.271 147.301 239.572V243.004C147.137 243.327 146.915 243.585 146.637 243.776C146.36 243.968 146.009 244.063 145.585 244.063C145.234 244.063 144.933 243.993 144.682 243.852C144.432 243.706 144.227 243.51 144.067 243.264C143.903 243.018 143.782 242.733 143.705 242.409C143.627 242.086 143.589 241.744 143.589 241.384ZM155.132 245H156.451V244.891C156.369 244.686 156.305 244.446 156.26 244.173C156.214 243.895 156.191 243.633 156.191 243.387V239.948C156.191 239.534 156.116 239.171 155.966 238.861C155.815 238.551 155.61 238.292 155.351 238.082C155.086 237.877 154.774 237.724 154.414 237.624C154.054 237.519 153.664 237.467 153.245 237.467C152.785 237.467 152.372 237.531 152.008 237.658C151.648 237.786 151.342 237.952 151.092 238.157C150.837 238.367 150.641 238.602 150.504 238.861C150.372 239.121 150.303 239.385 150.299 239.654H151.57C151.57 239.499 151.607 239.351 151.68 239.21C151.757 239.064 151.864 238.939 152.001 238.834C152.138 238.729 152.304 238.645 152.5 238.581C152.701 238.517 152.926 238.485 153.177 238.485C153.446 238.485 153.687 238.52 153.901 238.588C154.12 238.656 154.305 238.752 154.455 238.875C154.605 239.003 154.722 239.155 154.804 239.333C154.886 239.511 154.927 239.711 154.927 239.935V240.516H153.546C153.031 240.516 152.564 240.566 152.145 240.666C151.73 240.766 151.374 240.917 151.078 241.117C150.782 241.322 150.552 241.577 150.388 241.883C150.228 242.188 150.148 242.544 150.148 242.949C150.148 243.259 150.208 243.549 150.326 243.817C150.449 244.082 150.622 244.31 150.846 244.501C151.064 244.697 151.331 244.852 151.646 244.966C151.965 245.08 152.32 245.137 152.712 245.137C152.953 245.137 153.181 245.112 153.396 245.062C153.61 245.011 153.812 244.943 154.004 244.856C154.191 244.77 154.362 244.67 154.517 244.556C154.676 244.442 154.82 244.321 154.947 244.193C154.961 244.348 154.981 244.499 155.009 244.645C155.041 244.786 155.082 244.904 155.132 245ZM152.896 244.036C152.65 244.036 152.434 244.004 152.247 243.94C152.06 243.877 151.905 243.788 151.782 243.674C151.659 243.564 151.566 243.432 151.502 243.277C151.443 243.122 151.413 242.954 151.413 242.771C151.413 242.58 151.447 242.409 151.516 242.259C151.589 242.108 151.693 241.979 151.83 241.869C152.021 241.714 152.279 241.6 152.603 241.527C152.931 241.45 153.313 241.411 153.751 241.411H154.927V242.908C154.854 243.054 154.754 243.195 154.626 243.332C154.498 243.464 154.348 243.583 154.175 243.688C153.997 243.792 153.801 243.877 153.587 243.94C153.373 244.004 153.143 244.036 152.896 244.036ZM160.974 235.812H159.702V237.604H157.761V238.581H159.702V242.601C159.702 243.056 159.762 243.446 159.88 243.77C160.003 244.089 160.169 244.348 160.379 244.549C160.589 244.754 160.835 244.904 161.117 245C161.404 245.091 161.712 245.137 162.04 245.137C162.236 245.137 162.432 245.128 162.628 245.109C162.829 245.091 163.018 245.064 163.196 245.027C163.373 244.995 163.537 244.957 163.688 244.911C163.838 244.861 163.966 244.804 164.071 244.74L163.893 243.845C163.815 243.863 163.715 243.886 163.592 243.913C163.474 243.936 163.346 243.959 163.209 243.981C163.068 244.004 162.924 244.025 162.779 244.043C162.633 244.057 162.491 244.063 162.355 244.063C162.168 244.063 161.99 244.041 161.821 243.995C161.657 243.95 161.512 243.87 161.384 243.756C161.256 243.646 161.156 243.498 161.083 243.312C161.01 243.125 160.974 242.888 160.974 242.601V238.581H163.79V237.604H160.974V235.812ZM168.955 245.137C169.676 245.137 170.279 244.993 170.767 244.706C171.259 244.414 171.628 244.082 171.874 243.708L171.102 243.106C170.87 243.407 170.578 243.649 170.227 243.831C169.876 244.013 169.475 244.104 169.024 244.104C168.682 244.104 168.37 244.041 168.087 243.913C167.805 243.785 167.563 243.61 167.363 243.387C167.167 243.177 167.012 242.936 166.898 242.662C166.788 242.389 166.718 242.072 166.686 241.712V241.664H171.97V241.097C171.97 240.582 171.904 240.103 171.772 239.661C171.644 239.219 171.448 238.834 171.184 238.506C170.92 238.182 170.587 237.929 170.186 237.747C169.789 237.56 169.325 237.467 168.791 237.467C168.368 237.467 167.953 237.553 167.547 237.727C167.146 237.9 166.788 238.148 166.474 238.472C166.155 238.8 165.9 239.201 165.708 239.675C165.517 240.144 165.421 240.677 165.421 241.274V241.562C165.421 242.076 165.508 242.553 165.681 242.99C165.854 243.428 166.096 243.806 166.406 244.125C166.716 244.444 167.087 244.692 167.52 244.87C167.957 245.048 168.436 245.137 168.955 245.137ZM168.791 238.506C169.115 238.506 169.393 238.565 169.625 238.684C169.862 238.802 170.058 238.957 170.213 239.148C170.368 239.34 170.489 239.568 170.576 239.832C170.662 240.092 170.705 240.336 170.705 240.563V240.625H166.727C166.777 240.283 166.864 239.982 166.987 239.723C167.114 239.458 167.269 239.235 167.452 239.053C167.634 238.875 167.839 238.741 168.067 238.649C168.295 238.554 168.536 238.506 168.791 238.506ZM173.157 241.24V241.384C173.157 241.912 173.227 242.407 173.369 242.867C173.51 243.323 173.708 243.719 173.963 244.057C174.219 244.394 174.526 244.658 174.886 244.85C175.251 245.041 175.657 245.137 176.103 245.137C176.559 245.137 176.958 245.059 177.299 244.904C177.641 244.749 177.935 244.521 178.181 244.221L178.236 245H179.398V234.5H178.133V238.335C177.892 238.052 177.605 237.838 177.272 237.692C176.944 237.542 176.559 237.467 176.117 237.467C175.666 237.467 175.258 237.56 174.893 237.747C174.529 237.934 174.219 238.194 173.963 238.526C173.704 238.859 173.503 239.258 173.362 239.723C173.225 240.183 173.157 240.689 173.157 241.24ZM174.421 241.384V241.24C174.421 240.88 174.46 240.538 174.538 240.215C174.615 239.887 174.736 239.597 174.9 239.347C175.06 239.101 175.265 238.905 175.515 238.759C175.77 238.613 176.076 238.54 176.431 238.54C176.846 238.54 177.192 238.638 177.47 238.834C177.748 239.025 177.969 239.271 178.133 239.572V243.004C177.969 243.327 177.748 243.585 177.47 243.776C177.192 243.968 176.841 244.063 176.418 244.063C176.067 244.063 175.766 243.993 175.515 243.852C175.265 243.706 175.06 243.51 174.9 243.264C174.736 243.018 174.615 242.733 174.538 242.409C174.46 242.086 174.421 241.744 174.421 241.384Z" fill="white"/>
<path d="M229 250H233V255H229V250Z" fill="#ACB2C2"/>
<path d="M235 254H239V255H235V254Z" fill="#ACB2C2" fill-opacity="0.5"/>
<path d="M241 254H245V255H241V254Z" fill="#ACB2C2" fill-opacity="0.5"/>
<path d="M247 250H251V255H247V250Z" fill="#ACB2C2"/>
<path d="M253 254H257V255H253V254Z" fill="#ACB2C2" fill-opacity="0.5"/>
<path d="M259 254H263V255H259V254Z" fill="#ACB2C2" fill-opacity="0.5"/>
<path d="M265 254H269V255H265V254Z" fill="#ACB2C2" fill-opacity="0.5"/>
<path d="M271 250H275V255H271V250Z" fill="#ACB2C2"/>
<path d="M277 250H281V255H277V250Z" fill="#ACB2C2"/>
<path d="M283 254H287V255H283V254Z" fill="#ACB2C2" fill-opacity="0.5"/>
<path d="M289 251H293V255H289V251Z" fill="#ACB2C2"/>
<path d="M295 254H299V255H295V254Z" fill="#ACB2C2" fill-opacity="0.5"/>
<path d="M301 254H305V255H301V254Z" fill="#ACB2C2" fill-opacity="0.5"/>
<path d="M307 250H311V255H307V250Z" fill="#ACB2C2"/>
<path d="M313 251H317V255H313V251Z" fill="#ACB2C2"/>
<path d="M319 254H323V255H319V254Z" fill="#ACB2C2" fill-opacity="0.5"/>
<path d="M325 254H329V255H325V254Z" fill="#ACB2C2" fill-opacity="0.5"/>
<path d="M331 254H335V255H331V254Z" fill="#ACB2C2" fill-opacity="0.5"/>
<path d="M337 254H341V255H337V254Z" fill="#ACB2C2" fill-opacity="0.5"/>
<path d="M343 254H347V255H343V254Z" fill="#ACB2C2" fill-opacity="0.5"/>
<path d="M349 254H353V255H349V254Z" fill="#ACB2C2" fill-opacity="0.5"/>
<path d="M355 254H359V255H355V254Z" fill="#ACB2C2" fill-opacity="0.5"/>
<path d="M361 254H365V255H361V254Z" fill="#ACB2C2" fill-opacity="0.5"/>
<path d="M367 254H371V255H367V254Z" fill="#ACB2C2" fill-opacity="0.5"/>
<path d="M373 254H377V255H373V254Z" fill="#ACB2C2" fill-opacity="0.5"/>
<path d="M379 254H383V255H379V254Z" fill="#ACB2C2" fill-opacity="0.5"/>
<path d="M385 246H389V255H385V246Z" fill="#ACB2C2"/>
</g>
<defs>
<clipPath id="clip0_151_330">
<rect width="440" height="257" rx="8" fill="white"/>
</clipPath>
</defs>
</svg>
