<svg width="1159" height="1017" viewBox="0 0 1159 1017" fill="none" xmlns="http://www.w3.org/2000/svg">
  <g clip-path="url(#clip0_202_975)">
    <g opacity="0.05">
      <mask id="mask0_202_975" style="mask-type:alpha" maskUnits="userSpaceOnUse" x="0" y="0" width="1080" height="1623">
        <rect width="1080" height="1623" fill="url(#paint0_radial_202_975)" />
      </mask>
      <g mask="url(#mask0_202_975)">
        <path d="M58.2538 441.107L65.2418 347.196L157.897 411.592L58.2538 441.107Z" stroke="white" />
        <path d="M229.589 757.721L236.577 663.81L329.233 728.205L229.589 757.721Z" stroke="white" />
        <path d="M556.84 293.419L563.828 199.508L656.484 263.904L556.84 293.419Z" stroke="white" />
        <path d="M728.175 610.033L735.163 516.122L827.819 580.517L728.175 610.033Z" stroke="white" />
        <path d="M143.921 599.414L150.909 505.503L243.565 569.899L143.921 599.414Z" stroke="white" />
        <path d="M315.257 916.028L322.245 822.117L414.9 886.512L315.257 916.028Z" stroke="white" />
        <path d="M642.508 451.726L649.496 357.815L742.151 422.21L642.508 451.726Z" stroke="white" />
        <path d="M813.843 768.34L820.831 674.429L913.487 738.824L813.843 768.34Z" stroke="white" />
        <path d="M58.254 441.107L150.91 505.503L157.897 411.592L58.254 441.107Z" stroke="white" />
        <path d="M229.589 757.721L322.244 822.117L329.232 728.205L229.589 757.721Z" stroke="white" />
        <path d="M556.84 293.419L649.495 357.815L656.483 263.904L556.84 293.419Z" stroke="white" />
        <path d="M728.175 610.033L820.831 674.428L827.819 580.517L728.175 610.033Z" stroke="white" />
        <path d="M143.921 599.414L236.577 663.81L243.565 569.898L143.921 599.414Z" stroke="white" />
        <path d="M315.257 916.028L407.912 980.424L414.9 886.512L315.257 916.028Z" stroke="white" />
        <path d="M642.508 451.726L735.163 516.122L742.151 422.21L642.508 451.726Z" stroke="white" />
        <path d="M813.843 768.34L906.498 832.736L913.486 738.824L813.843 768.34Z" stroke="white" />
        <path d="M157.971 411.57L164.959 317.659L257.615 382.054L157.971 411.57Z" stroke="white" />
        <path d="M329.306 728.184L336.294 634.272L428.95 698.668L329.306 728.184Z" stroke="white" />
        <path d="M656.557 263.882L663.545 169.971L756.201 234.366L656.557 263.882Z" stroke="white" />
        <path d="M827.893 580.495L834.88 486.584L927.536 550.98L827.893 580.495Z" stroke="white" />
        <path d="M243.639 569.877L250.627 475.965L343.282 540.361L243.639 569.877Z" stroke="white" />
        <path d="M414.974 886.49L421.962 792.579L514.618 856.975L414.974 886.49Z" stroke="white" />
        <path d="M742.225 422.188L749.213 328.277L841.868 392.673L742.225 422.188Z" stroke="white" />
        <path d="M913.56 738.802L920.548 644.891L1013.2 709.287L913.56 738.802Z" stroke="white" />
        <path d="M157.971 411.57L250.627 475.965L257.615 382.054L157.971 411.57Z" stroke="white" />
        <path d="M329.306 728.183L421.962 792.579L428.95 698.668L329.306 728.183Z" stroke="white" />
        <path d="M656.557 263.882L749.213 328.277L756.201 234.366L656.557 263.882Z" stroke="white" />
        <path d="M827.893 580.495L920.548 644.891L927.536 550.98L827.893 580.495Z" stroke="white" />
        <path d="M243.639 569.877L336.294 634.272L343.282 540.361L243.639 569.877Z" stroke="white" />
        <path d="M414.974 886.49L507.629 950.886L514.617 856.975L414.974 886.49Z" stroke="white" />
        <path d="M742.225 422.189L834.88 486.584L841.868 392.673L742.225 422.189Z" stroke="white" />
        <path d="M913.56 738.802L1006.22 803.198L1013.2 709.287L913.56 738.802Z" stroke="white" />
        <path d="M257.688 382.032L264.676 288.121L357.332 352.517L257.688 382.032Z" stroke="white" />
        <path d="M429.023 698.646L436.011 604.735L528.667 669.13L429.023 698.646Z" stroke="white" />
        <path d="M756.274 234.344L763.262 140.433L855.918 204.829L756.274 234.344Z" stroke="white" />
        <path d="M927.61 550.958L934.598 457.046L1027.25 521.442L927.61 550.958Z" stroke="white" />
        <path d="M343.356 540.339L350.344 446.428L442.999 510.823L343.356 540.339Z" stroke="white" />
        <path d="M514.691 856.953L521.679 763.041L614.335 827.437L514.691 856.953Z" stroke="white" />
        <path d="M841.942 392.651L848.93 298.74L941.586 363.135L841.942 392.651Z" stroke="white" />
        <path d="M1013.28 709.265L1020.27 615.353L1112.92 679.749L1013.28 709.265Z" stroke="white" />
        <path d="M257.689 382.032L350.344 446.428L357.332 352.516L257.689 382.032Z" stroke="white" />
        <path d="M429.024 698.646L521.679 763.041L528.667 669.13L429.024 698.646Z" stroke="white" />
        <path d="M756.274 234.344L848.93 298.74L855.918 204.828L756.274 234.344Z" stroke="white" />
        <path d="M927.61 550.958L1020.27 615.353L1027.25 521.442L927.61 550.958Z" stroke="white" />
        <path d="M343.356 540.339L436.012 604.735L442.999 510.823L343.356 540.339Z" stroke="white" />
        <path d="M514.691 856.953L607.347 921.348L614.334 827.437L514.691 856.953Z" stroke="white" />
        <path d="M841.942 392.651L934.598 457.047L941.586 363.135L841.942 392.651Z" stroke="white" />
        <path d="M1013.28 709.265L1105.93 773.66L1112.92 679.749L1013.28 709.265Z" stroke="white" />
        <path d="M357.406 352.495L364.394 258.583L457.049 322.979L357.406 352.495Z" stroke="white" />
        <path d="M528.741 669.108L535.729 575.197L628.384 639.593L528.741 669.108Z" stroke="white" />
        <path d="M855.992 204.807L862.98 110.895L955.635 175.291L855.992 204.807Z" stroke="white" />
        <path d="M1027.33 521.42L1034.32 427.509L1126.97 491.904L1027.33 521.42Z" stroke="white" />
        <path d="M443.073 510.802L450.061 416.89L542.717 481.286L443.073 510.802Z" stroke="white" />
        <path d="M614.409 827.415L621.397 733.504L714.052 797.899L614.409 827.415Z" stroke="white" />
        <path d="M941.66 363.114L948.648 269.202L1041.3 333.598L941.66 363.114Z" stroke="white" />
        <path d="M1112.99 679.727L1119.98 585.816L1212.64 650.211L1112.99 679.727Z" stroke="white" />
        <path d="M357.405 352.495L450.061 416.89L457.049 322.979L357.405 352.495Z" stroke="white" />
        <path d="M528.741 669.108L621.396 733.504L628.384 639.592L528.741 669.108Z" stroke="white" />
        <path d="M855.992 204.807L948.647 269.202L955.635 175.291L855.992 204.807Z" stroke="white" />
        <path d="M1027.33 521.42L1119.98 585.816L1126.97 491.905L1027.33 521.42Z" stroke="white" />
        <path d="M443.073 510.801L535.729 575.197L542.717 481.286L443.073 510.801Z" stroke="white" />
        <path d="M614.408 827.415L707.064 891.811L714.052 797.899L614.408 827.415Z" stroke="white" />
        <path d="M941.659 363.113L1034.31 427.509L1041.3 333.598L941.659 363.113Z" stroke="white" />
        <path d="M457.123 322.957L464.111 229.046L556.766 293.441L457.123 322.957Z" stroke="white" />
        <path d="M628.458 639.571L635.446 545.66L728.101 610.055L628.458 639.571Z" stroke="white" />
        <path d="M955.709 175.269L962.697 81.3578L1055.35 145.753L955.709 175.269Z" stroke="white" />
        <path d="M542.79 481.264L549.778 387.353L642.434 451.748L542.79 481.264Z" stroke="white" />
        <path d="M714.125 797.877L721.113 703.966L813.769 768.362L714.125 797.877Z" stroke="white" />
        <path d="M1041.38 333.576L1048.36 239.665L1141.02 304.06L1041.38 333.576Z" stroke="white" />
        <path d="M457.123 322.957L549.778 387.352L556.766 293.441L457.123 322.957Z" stroke="white" />
        <path d="M628.458 639.571L721.114 703.966L728.102 610.055L628.458 639.571Z" stroke="white" />
        <path d="M955.709 175.269L1048.36 239.664L1055.35 145.753L955.709 175.269Z" stroke="white" />
        <path d="M542.791 481.264L635.446 545.659L642.434 451.748L542.791 481.264Z" stroke="white" />
        <path d="M714.126 797.878L806.781 862.273L813.769 768.362L714.126 797.878Z" stroke="white" />
        <path d="M1041.38 333.576L1134.03 397.971L1141.02 304.06L1041.38 333.576Z" stroke="white" />
        <path d="M164.922 317.669L157.934 411.581L65.2785 347.185L164.922 317.669Z" stroke="white" />
        <path d="M336.257 634.283L329.269 728.194L236.614 663.799L336.257 634.283Z" stroke="white" />
        <path d="M663.508 169.981L656.52 263.893L563.865 199.497L663.508 169.981Z" stroke="white" />
        <path d="M834.843 486.595L827.855 580.506L735.2 516.111L834.843 486.595Z" stroke="white" />
        <path d="M250.59 475.976L243.602 569.888L150.946 505.492L250.59 475.976Z" stroke="white" />
        <path d="M421.925 792.59L414.937 886.501L322.281 822.106L421.925 792.59Z" stroke="white" />
        <path d="M749.176 328.288L742.188 422.2L649.532 357.804L749.176 328.288Z" stroke="white" />
        <path d="M920.511 644.902L913.523 738.813L820.868 674.418L920.511 644.902Z" stroke="white" />
        <path d="M250.59 475.976L157.934 411.581L150.946 505.492L250.59 475.976Z" stroke="white" />
        <path d="M421.925 792.59L329.269 728.195L322.281 822.106L421.925 792.59Z" stroke="white" />
        <path d="M749.176 328.288L656.52 263.893L649.532 357.804L749.176 328.288Z" stroke="white" />
        <path d="M920.511 644.902L827.856 580.506L820.868 674.418L920.511 644.902Z" stroke="white" />
        <path d="M336.257 634.283L243.602 569.888L236.614 663.799L336.257 634.283Z" stroke="white" />
        <path d="M507.593 950.897L414.937 886.501L407.949 980.413L507.593 950.897Z" stroke="white" />
        <path d="M834.844 486.595L742.188 422.2L735.2 516.111L834.844 486.595Z" stroke="white" />
        <path d="M1006.18 803.209L913.523 738.813L906.535 832.725L1006.18 803.209Z" stroke="white" />
        <path d="M264.639 288.132L257.651 382.043L164.996 317.648L264.639 288.132Z" stroke="white" />
        <path d="M435.975 604.746L428.987 698.657L336.331 634.261L435.975 604.746Z" stroke="white" />
        <path d="M763.226 140.444L756.238 234.355L663.582 169.96L763.226 140.444Z" stroke="white" />
        <path d="M934.561 457.058L927.573 550.969L834.918 486.573L934.561 457.058Z" stroke="white" />
        <path d="M350.307 446.439L343.319 540.35L250.664 475.954L350.307 446.439Z" stroke="white" />
        <path d="M521.642 763.052L514.654 856.964L421.999 792.568L521.642 763.052Z" stroke="white" />
        <path d="M848.893 298.751L841.905 392.662L749.25 328.266L848.893 298.751Z" stroke="white" />
        <path d="M1020.23 615.364L1013.24 709.276L920.585 644.88L1020.23 615.364Z" stroke="white" />
        <path d="M350.307 446.439L257.652 382.043L250.664 475.954L350.307 446.439Z" stroke="white" />
        <path d="M521.642 763.052L428.986 698.657L421.999 792.568L521.642 763.052Z" stroke="white" />
        <path d="M848.893 298.751L756.238 234.355L749.25 328.266L848.893 298.751Z" stroke="white" />
        <path d="M1020.23 615.365L927.573 550.969L920.585 644.88L1020.23 615.365Z" stroke="#4437D0" />
        <path d="M435.975 604.745L343.319 540.35L336.331 634.261L435.975 604.745Z" stroke="white" />
        <path d="M607.31 921.359L514.654 856.964L507.667 950.875L607.31 921.359Z" stroke="white" />
        <path d="M934.561 457.057L841.905 392.662L834.918 486.573L934.561 457.057Z" stroke="white" />
        <path d="M1105.9 773.671L1013.24 709.276L1006.25 803.187L1105.9 773.671Z" stroke="white" />
        <path d="M364.357 258.594L357.369 352.506L264.713 288.11L364.357 258.594Z" stroke="white" />
        <path d="M535.692 575.208L528.704 669.119L436.048 604.724L535.692 575.208Z" stroke="white" />
        <path d="M862.943 110.906L855.955 204.818L763.299 140.422L862.943 110.906Z" stroke="white" />
        <path d="M1034.28 427.52L1027.29 521.431L934.634 457.036L1034.28 427.52Z" stroke="white" />
        <path d="M450.024 416.901L443.036 510.812L350.381 446.417L450.024 416.901Z" stroke="white" />
        <path d="M621.359 733.515L614.372 827.426L521.716 763.03L621.359 733.515Z" stroke="white" />
        <path d="M948.61 269.213L941.622 363.124L848.967 298.729L948.61 269.213Z" stroke="white" />
        <path d="M1119.95 585.827L1112.96 679.738L1020.3 615.342L1119.95 585.827Z" stroke="white" />
        <path d="M450.024 416.901L357.369 352.505L350.381 446.417L450.024 416.901Z" stroke="white" />
        <path d="M621.359 733.515L528.704 669.119L521.716 763.031L621.359 733.515Z" stroke="white" />
        <path d="M948.61 269.213L855.955 204.817L848.967 298.729L948.61 269.213Z" stroke="white" />
        <path d="M1119.95 585.827L1027.29 521.431L1020.3 615.343L1119.95 585.827Z" stroke="white" />
        <path d="M535.692 575.208L443.036 510.812L436.048 604.724L535.692 575.208Z" stroke="white" />
        <path d="M707.027 891.822L614.372 827.426L607.384 921.337L707.027 891.822Z" stroke="white" />
        <path d="M1034.28 427.52L941.623 363.124L934.635 457.036L1034.28 427.52Z" stroke="white" />
        <path d="M1205.61 744.134L1112.96 679.738L1105.97 773.649L1205.61 744.134Z" stroke="white" />
        <path d="M464.074 229.057L457.086 322.968L364.43 258.572L464.074 229.057Z" stroke="white" />
        <path d="M635.409 545.67L628.421 639.582L535.766 575.186L635.409 545.67Z" stroke="white" />
        <path d="M962.66 81.3686L955.672 175.28L863.017 110.884L962.66 81.3686Z" stroke="white" />
        <path d="M1134 397.982L1127.01 491.894L1034.35 427.498L1134 397.982Z" stroke="white" />
        <path d="M549.741 387.364L542.753 481.275L450.098 416.879L549.741 387.364Z" stroke="white" />
        <path d="M721.077 703.977L714.089 797.888L621.433 733.493L721.077 703.977Z" stroke="white" />
        <path d="M1048.33 239.676L1041.34 333.587L948.684 269.191L1048.33 239.676Z" stroke="white" />
        <path d="M549.742 387.363L457.086 322.968L450.098 416.879L549.742 387.363Z" stroke="white" />
        <path d="M721.077 703.977L628.421 639.582L621.433 733.493L721.077 703.977Z" stroke="white" />
        <path d="M1048.33 239.675L955.672 175.28L948.684 269.191L1048.33 239.675Z" stroke="white" />
        <path d="M1219.66 556.289L1127.01 491.894L1120.02 585.805L1219.66 556.289Z" stroke="white" />
        <path d="M635.409 545.67L542.754 481.275L535.766 575.186L635.409 545.67Z" stroke="white" />
        <path d="M806.745 862.284L714.089 797.889L707.101 891.8L806.745 862.284Z" stroke="white" />
        <path d="M1134 397.982L1041.34 333.587L1034.35 427.498L1134 397.982Z" stroke="white" />
        <path d="M563.791 199.519L556.803 293.43L464.148 229.035L563.791 199.519Z" stroke="white" />
        <path d="M735.127 516.133L728.139 610.044L635.483 545.649L735.127 516.133Z" stroke="white" />
        <path d="M1062.38 51.831L1055.39 145.742L962.734 81.3468L1062.38 51.831Z" stroke="white" />
        <path d="M649.459 357.826L642.471 451.737L549.815 387.342L649.459 357.826Z" stroke="white" />
        <path d="M820.794 674.439L813.806 768.351L721.151 703.955L820.794 674.439Z" stroke="white" />
        <path d="M1148.04 210.138L1141.06 304.049L1048.4 239.654L1148.04 210.138Z" stroke="white" />
        <path d="M649.459 357.826L556.803 293.43L549.815 387.342L649.459 357.826Z" stroke="white" />
        <path d="M820.794 674.44L728.138 610.044L721.151 703.955L820.794 674.44Z" stroke="white" />
        <path d="M1148.04 210.138L1055.39 145.742L1048.4 239.654L1148.04 210.138Z" stroke="white" />
        <path d="M735.126 516.133L642.471 451.737L635.483 545.648L735.126 516.133Z" stroke="white" />
        <path d="M906.462 832.746L813.806 768.351L806.818 862.262L906.462 832.746Z" stroke="white" />
        <path d="M401.254 1074.11L408.242 980.196L500.897 1044.59L401.254 1074.11Z" stroke="white" />
        <path d="M899.84 926.419L906.828 832.508L999.484 896.904L899.84 926.419Z" stroke="white" />
        <path d="M985.508 1084.73L992.496 990.815L1085.15 1055.21L985.508 1084.73Z" stroke="white" />
        <path d="M899.84 926.419L992.495 990.815L999.483 896.904L899.84 926.419Z" stroke="white" />
        <path d="M500.971 1044.57L507.959 950.659L600.615 1015.05L500.971 1044.57Z" stroke="white" />
        <path d="M999.557 896.882L1006.54 802.971L1099.2 867.366L999.557 896.882Z" stroke="white" />
        <path d="M1085.23 1055.19L1092.21 961.277L1184.87 1025.67L1085.23 1055.19Z" stroke="white" />
        <path d="M500.971 1044.57L593.627 1108.97L600.615 1015.05L500.971 1044.57Z" stroke="white" />
        <path d="M999.557 896.882L1092.21 961.277L1099.2 867.366L999.557 896.882Z" stroke="white" />
        <path d="M600.688 1015.03L607.676 921.121L700.332 985.517L600.688 1015.03Z" stroke="white" />
        <path d="M1099.27 867.344L1106.26 773.433L1198.92 837.829L1099.27 867.344Z" stroke="white" />
        <path d="M600.689 1015.03L693.344 1079.43L700.332 985.516L600.689 1015.03Z" stroke="white" />
        <path d="M700.406 985.495L707.394 891.583L800.049 955.979L700.406 985.495Z" stroke="white" />
        <path d="M700.405 985.495L793.061 1049.89L800.049 955.979L700.405 985.495Z" stroke="white" />
        <path d="M800.123 955.957L807.111 862.046L899.766 926.441L800.123 955.957Z" stroke="white" />
        <path d="M885.79 1114.26L892.778 1020.35L985.434 1084.75L885.79 1114.26Z" stroke="white" />
        <path d="M800.123 955.957L892.778 1020.35L899.766 926.441L800.123 955.957Z" stroke="white" />
        <path d="M507.922 950.669L500.934 1044.58L408.278 980.185L507.922 950.669Z" stroke="white" />
        <path d="M1006.51 802.981L999.52 896.893L906.865 832.497L1006.51 802.981Z" stroke="white" />
        <path d="M1092.18 961.288L1085.19 1055.2L992.532 990.804L1092.18 961.288Z" stroke="white" />
        <path d="M1092.18 961.288L999.52 896.893L992.532 990.804L1092.18 961.288Z" stroke="white" />
        <path d="M607.639 921.132L600.651 1015.04L507.996 950.648L607.639 921.132Z" stroke="white" />
        <path d="M1106.23 773.444L1099.24 867.355L1006.58 802.96L1106.23 773.444Z" stroke="white" />
        <path d="M693.307 1079.44L600.652 1015.04L593.664 1108.95L693.307 1079.44Z" stroke="white" />
        <path d="M1191.89 931.751L1099.24 867.355L1092.25 961.266L1191.89 931.751Z" stroke="white" />
        <path d="M707.357 891.594L700.369 985.506L607.713 921.11L707.357 891.594Z" stroke="white" />
        <path d="M793.024 1049.9L700.369 985.505L693.381 1079.42L793.024 1049.9Z" stroke="white" />
        <path d="M807.074 862.057L800.086 955.968L707.43 891.572L807.074 862.057Z" stroke="white" />
        <path d="M892.742 1020.36L800.086 955.968L793.098 1049.88L892.742 1020.36Z" stroke="white" />
        <path d="M906.791 832.519L899.803 926.43L807.148 862.035L906.791 832.519Z" stroke="white" />
        <path d="M992.459 990.826L985.471 1084.74L892.815 1020.34L992.459 990.826Z" stroke="white" />
        <path d="M992.459 990.826L899.803 926.43L892.815 1020.34L992.459 990.826Z" stroke="white" />
        <g opacity="0.2">
          <path d="M-9.50484 765.538L-5.95264 717.8L-5.41848 717.896L-3.70062 694.81L19.0772 710.64L19.3734 710.298L66.4733 743.032L66.1771 743.375L88.9549 759.205L64.4592 766.461L64.6972 766.901L14.0451 781.905L13.8071 781.465L-10.6885 788.721L-8.97067 765.635L-9.50484 765.538Z" stroke="white" stroke-dasharray="72 72" />
          <path d="M317.746 301.236L321.298 253.498L321.832 253.595L323.55 230.508L346.328 246.339L346.624 245.996L393.724 278.73L393.428 279.073L416.206 294.904L391.71 302.16L391.948 302.599L341.296 317.603L341.058 317.164L316.562 324.419L318.28 301.333L317.746 301.236Z" stroke="white" stroke-dasharray="72 72" />
          <path d="M489.081 617.85L492.633 570.111L493.167 570.208L494.885 547.122L517.663 562.952L517.959 562.609L565.059 595.344L564.763 595.687L587.541 611.517L563.045 618.773L563.283 619.213L512.631 634.217L512.393 633.777L487.897 641.033L489.615 617.946L489.081 617.85Z" stroke="white" stroke-dasharray="72 72" />
          <path d="M-95.1728 607.231L-91.6206 559.493L-91.0865 559.59L-89.3686 536.503L-66.5908 552.334L-66.2946 551.991L-19.1947 584.725L-19.4909 585.068L3.28695 600.899L-21.2087 608.155L-20.9708 608.594L-71.6229 623.598L-71.8608 623.158L-96.3565 630.414L-94.6386 607.328L-95.1728 607.231Z" stroke="white" stroke-dasharray="72 72" />
          <path d="M76.1626 923.844L79.7148 876.106L80.249 876.203L81.9669 853.117L104.745 868.947L105.041 868.604L152.141 901.339L151.845 901.682L174.622 917.512L150.127 924.768L150.365 925.208L99.7126 940.212L99.4746 939.772L74.9789 947.028L76.6968 923.941L76.1626 923.844Z" stroke="white" stroke-dasharray="72 72" />
          <path d="M403.414 459.543L406.966 411.804L407.5 411.901L409.218 388.815L431.996 404.645L432.292 404.303L479.392 437.037L479.096 437.38L501.873 453.21L477.378 460.466L477.616 460.906L426.964 475.91L426.726 475.47L402.23 482.726L403.948 459.64L403.414 459.543Z" stroke="white" stroke-dasharray="72 72" />
          <path d="M574.749 776.156L578.301 728.418L578.835 728.515L580.553 705.429L603.331 721.259L603.627 720.916L650.727 753.651L650.431 753.994L673.208 769.824L648.713 777.08L648.951 777.52L598.299 792.524L598.061 792.084L573.565 799.34L575.283 776.253L574.749 776.156Z" stroke="white" stroke-dasharray="72 72" />
          <path d="M11.7927 804.894L58.8926 837.629L59.1888 837.286L81.9667 853.117L83.6845 830.03L84.2187 830.127L87.7709 782.389L87.2367 782.292L88.9546 759.205L64.4589 766.461L64.2209 766.022L13.5688 781.025L13.8068 781.465L-10.6889 788.721L12.0889 804.552L11.7927 804.894Z" stroke="white" stroke-dasharray="72 72" />
          <path d="M339.044 340.593L386.144 373.327L386.44 372.984L409.218 388.815L410.935 365.728L411.47 365.825L415.022 318.087L414.488 317.99L416.206 294.904L391.71 302.16L391.472 301.72L340.82 316.724L341.058 317.163L316.562 324.419L339.34 340.25L339.044 340.593Z" stroke="white" stroke-dasharray="72 72" />
          <path d="M510.379 657.206L557.479 689.941L557.775 689.598L580.553 705.428L582.271 682.342L582.805 682.439L586.357 634.701L585.823 634.604L587.541 611.517L563.045 618.773L562.807 618.333L512.155 633.337L512.393 633.777L487.897 641.033L510.675 656.863L510.379 657.206Z" stroke="white" stroke-dasharray="72 72" />
          <path d="M-73.8747 646.588L-26.7748 679.322L-26.4786 678.979L-3.70082 694.81L-1.98296 671.723L-1.44879 671.82L2.1034 624.082L1.56923 623.985L3.28709 600.898L-21.2086 608.154L-21.4466 607.715L-72.0986 622.718L-71.8607 623.158L-96.3564 630.414L-73.5785 646.245L-73.8747 646.588Z" stroke="white" stroke-dasharray="72 72" />
          <path d="M97.4607 963.201L144.561 995.936L144.857 995.593L167.635 1011.42L169.352 988.337L169.887 988.434L173.439 940.696L172.905 940.599L174.623 917.512L150.127 924.768L149.889 924.328L99.2368 939.332L99.4748 939.772L74.9791 947.028L97.7569 962.859L97.4607 963.201Z" stroke="white" stroke-dasharray="72 72" />
          <path d="M424.712 498.9L471.812 531.634L472.108 531.291L494.886 547.122L496.603 524.035L497.138 524.132L500.69 476.394L500.156 476.297L501.874 453.21L477.378 460.466L477.14 460.027L426.488 475.031L426.726 475.47L402.23 482.726L425.008 498.557L424.712 498.9Z" stroke="white" stroke-dasharray="72 72" />
          <path d="M596.047 815.513L643.147 848.248L643.443 847.905L666.221 863.736L667.938 840.649L668.473 840.746L672.025 793.008L671.491 792.911L673.208 769.824L648.713 777.08L648.475 776.64L597.823 791.644L598.061 792.084L573.565 799.34L596.343 815.171L596.047 815.513Z" stroke="white" stroke-dasharray="72 72" />
          <path d="M-81.123 419.386L-77.5708 371.648L-77.0366 371.745L-75.3188 348.659L-52.541 364.489L-52.2448 364.146L-5.14486 396.881L-5.44106 397.224L17.3368 413.054L-7.15892 420.31L-6.92096 420.75L-57.5731 435.754L-57.811 435.314L-82.3067 442.57L-80.5888 419.483L-81.123 419.386Z" stroke="white" stroke-dasharray="72 72" />
          <path d="M90.2124 736L93.7646 688.262L94.2988 688.359L96.0167 665.272L118.794 681.103L119.091 680.76L166.191 713.494L165.894 713.837L188.672 729.668L164.177 736.924L164.414 737.364L113.762 752.367L113.524 751.928L89.0287 759.184L90.7466 736.097L90.2124 736Z" stroke="white" stroke-dasharray="72 72" />
          <path d="M417.463 271.698L421.016 223.96L421.55 224.057L423.268 200.971L446.045 216.801L446.342 216.458L493.442 249.193L493.145 249.536L515.923 265.366L491.428 272.622L491.665 273.062L441.013 288.066L440.775 287.626L416.28 294.882L417.998 271.795L417.463 271.698Z" stroke="white" stroke-dasharray="72 72" />
          <path d="M588.798 588.312L592.351 540.574L592.885 540.671L594.603 517.584L617.38 533.415L617.677 533.072L664.777 565.806L664.48 566.149L687.258 581.98L662.762 589.236L663 589.675L612.348 604.679L612.11 604.239L587.615 611.495L589.333 588.409L588.798 588.312Z" stroke="white" stroke-dasharray="72 72" />
          <path d="M4.54448 577.693L8.09667 529.955L8.63083 530.052L10.3487 506.965L33.1265 522.796L33.4227 522.453L80.5226 555.188L80.2264 555.53L103.004 571.361L78.5086 578.617L78.7465 579.057L28.0944 594.061L27.8565 593.621L3.36078 600.877L5.07864 577.79L4.54448 577.693Z" stroke="white" stroke-dasharray="72 72" />
          <path d="M175.88 894.307L179.432 846.569L179.966 846.665L181.684 823.579L204.462 839.41L204.758 839.067L251.858 871.801L251.562 872.144L274.34 887.975L249.844 895.23L250.082 895.67L199.43 910.674L199.192 910.234L174.696 917.49L176.414 894.404L175.88 894.307Z" stroke="white" stroke-dasharray="72 72" />
          <path d="M503.131 430.005L506.683 382.267L507.217 382.364L508.935 359.277L531.713 375.108L532.009 374.765L579.109 407.499L578.813 407.842L601.591 423.673L577.095 430.929L577.333 431.368L526.681 446.372L526.443 445.933L501.947 453.188L503.665 430.102L503.131 430.005Z" stroke="white" stroke-dasharray="72 72" />
          <path d="M674.466 746.619L678.018 698.881L678.552 698.977L680.27 675.891L703.048 691.722L703.344 691.379L750.444 724.113L750.148 724.456L772.926 740.287L748.43 747.542L748.668 747.982L698.016 762.986L697.778 762.546L673.282 769.802L675 746.716L674.466 746.619Z" stroke="white" stroke-dasharray="72 72" />
          <path d="M-59.8249 458.743L-12.725 491.478L-12.4288 491.135L10.349 506.965L12.0668 483.879L12.601 483.976L16.1532 436.237L15.619 436.14L17.3369 413.054L-7.15878 420.31L-7.39675 419.87L-58.0488 434.874L-57.8109 435.314L-82.3066 442.57L-59.5287 458.4L-59.8249 458.743Z" stroke="white" stroke-dasharray="72 72" />
          <path d="M111.51 775.357L158.61 808.091L158.906 807.748L181.684 823.579L183.402 800.492L183.936 800.589L187.488 752.851L186.954 752.754L188.672 729.668L164.176 736.924L163.938 736.484L113.286 751.488L113.524 751.927L89.0283 759.183L111.806 775.014L111.51 775.357Z" stroke="white" stroke-dasharray="72 72" />
          <path d="M438.761 311.055L485.861 343.79L486.157 343.447L508.935 359.277L510.653 336.191L511.187 336.288L514.739 288.549L514.205 288.453L515.923 265.366L491.427 272.622L491.189 272.182L440.537 287.186L440.775 287.626L416.279 294.882L439.057 310.712L438.761 311.055Z" stroke="white" stroke-dasharray="72 72" />
          <path d="M610.096 627.669L657.196 660.403L657.493 660.06L680.27 675.891L681.988 652.805L682.522 652.901L686.075 605.163L685.54 605.066L687.258 581.98L662.763 589.236L662.525 588.796L611.873 603.8L612.111 604.24L587.615 611.495L610.393 627.326L610.096 627.669Z" stroke="white" stroke-dasharray="72 72" />
          <path d="M25.8425 617.05L72.9424 649.784L73.2386 649.442L96.0165 665.272L97.7343 642.186L98.2685 642.283L101.821 594.544L101.287 594.447L103.004 571.361L78.5087 578.617L78.2707 578.177L27.6186 593.181L27.8566 593.621L3.36092 600.877L26.1387 616.707L25.8425 617.05Z" stroke="white" stroke-dasharray="72 72" />
          <path d="M197.178 933.664L244.278 966.398L244.574 966.055L267.352 981.886L269.07 958.799L269.604 958.896L273.156 911.158L272.622 911.061L274.34 887.975L249.844 895.231L249.606 894.791L198.954 909.795L199.192 910.234L174.696 917.49L197.474 933.321L197.178 933.664Z" stroke="white" stroke-dasharray="72 72" />
          <path d="M524.429 469.362L571.529 502.096L571.825 501.754L594.603 517.584L596.321 494.498L596.855 494.595L600.407 446.856L599.873 446.759L601.591 423.673L577.095 430.929L576.857 430.489L526.205 445.493L526.443 445.933L501.947 453.189L524.725 469.019L524.429 469.362Z" stroke="white" stroke-dasharray="72 72" />
          <path d="M695.764 785.976L742.864 818.71L743.16 818.367L765.938 834.198L767.656 811.111L768.19 811.208L771.742 763.47L771.208 763.373L772.926 740.287L748.43 747.543L748.192 747.103L697.54 762.107L697.778 762.546L673.282 769.802L696.06 785.633L695.764 785.976Z" stroke="white" stroke-dasharray="72 72" />
          <path d="M18.5943 389.849L22.1465 342.111L22.6806 342.207L24.3985 319.121L47.1763 334.952L47.4725 334.609L94.5724 367.343L94.2762 367.686L117.054 383.517L92.5584 390.772L92.7963 391.212L42.1442 406.216L41.9063 405.776L17.4106 413.032L19.1284 389.946L18.5943 389.849Z" stroke="white" stroke-dasharray="72 72" />
          <path d="M189.929 706.463L193.481 658.724L194.016 658.821L195.733 635.735L218.511 651.565L218.807 651.222L265.907 683.957L265.611 684.3L288.389 700.13L263.893 707.386L264.131 707.826L213.479 722.83L213.241 722.39L188.746 729.646L190.463 706.559L189.929 706.463Z" stroke="white" stroke-dasharray="72 72" />
          <path d="M517.18 242.161L520.732 194.423L521.267 194.519L522.984 171.433L545.762 187.264L546.058 186.921L593.158 219.655L592.862 219.998L615.64 235.829L591.144 243.084L591.382 243.524L540.73 258.528L540.492 258.088L515.997 265.344L517.714 242.258L517.18 242.161Z" stroke="white" stroke-dasharray="72 72" />
          <path d="M688.516 558.774L692.068 511.036L692.602 511.133L694.32 488.046L717.098 503.877L717.394 503.534L764.494 536.269L764.198 536.611L786.975 552.442L762.48 559.698L762.718 560.138L712.066 575.142L711.828 574.702L687.332 581.958L689.05 558.871L688.516 558.774Z" stroke="white" stroke-dasharray="72 72" />
          <path d="M104.262 548.156L107.814 500.417L108.348 500.514L110.066 477.428L132.844 493.258L133.14 492.916L180.24 525.65L179.944 525.993L202.722 541.823L178.226 549.079L178.464 549.519L127.812 564.523L127.574 564.083L103.078 571.339L104.796 548.253L104.262 548.156Z" stroke="white" stroke-dasharray="72 72" />
          <path d="M275.597 864.769L279.149 817.031L279.684 817.128L281.401 794.041L304.179 809.872L304.475 809.529L351.575 842.263L351.279 842.606L374.057 858.437L349.561 865.693L349.799 866.133L299.147 881.136L298.909 880.697L274.414 887.953L276.131 864.866L275.597 864.769Z" stroke="white" stroke-dasharray="72 72" />
          <path d="M602.848 400.467L606.4 352.729L606.935 352.826L608.652 329.74L631.43 345.57L631.726 345.227L678.826 377.962L678.53 378.305L701.308 394.135L676.812 401.391L677.05 401.831L626.398 416.835L626.16 416.395L601.664 423.651L603.382 400.564L602.848 400.467Z" stroke="white" stroke-dasharray="72 72" />
          <path d="M774.183 717.081L777.735 669.343L778.27 669.44L779.987 646.353L802.765 662.184L803.061 661.841L850.161 694.576L849.865 694.918L872.643 710.749L848.147 718.005L848.385 718.445L797.733 733.448L797.495 733.009L772.999 740.265L774.717 717.178L774.183 717.081Z" stroke="white" stroke-dasharray="72 72" />
          <path d="M39.8923 429.206L86.9923 461.94L87.2884 461.597L110.066 477.428L111.784 454.341L112.318 454.438L115.87 406.7L115.336 406.603L117.054 383.516L92.5585 390.772L92.3205 390.333L41.6684 405.336L41.9064 405.776L17.4107 413.032L40.1885 428.863L39.8923 429.206Z" stroke="white" stroke-dasharray="72 72" />
          <path d="M211.227 745.819L258.327 778.554L258.623 778.211L281.401 794.041L283.119 770.955L283.653 771.052L287.205 723.314L286.671 723.217L288.389 700.13L263.893 707.386L263.655 706.946L213.003 721.95L213.241 722.39L188.746 729.646L211.524 745.476L211.227 745.819Z" stroke="white" stroke-dasharray="72 72" />
          <path d="M538.478 281.518L585.578 314.252L585.874 313.909L608.652 329.74L610.37 306.653L610.904 306.75L614.456 259.012L613.922 258.915L615.64 235.828L591.144 243.084L590.906 242.645L540.254 257.648L540.492 258.088L515.997 265.344L538.774 281.175L538.478 281.518Z" stroke="white" stroke-dasharray="72 72" />
          <path d="M709.814 598.131L756.914 630.866L757.21 630.523L779.988 646.353L781.706 623.267L782.24 623.364L785.792 575.625L785.258 575.529L786.976 552.442L762.48 559.698L762.242 559.258L711.59 574.262L711.828 574.702L687.332 581.958L710.11 597.788L709.814 598.131Z" stroke="white" stroke-dasharray="72 72" />
          <path d="M125.56 587.512L172.66 620.247L172.956 619.904L195.734 635.735L197.452 612.648L197.986 612.745L201.538 565.007L201.004 564.91L202.722 541.823L178.226 549.079L177.988 548.639L127.336 563.643L127.574 564.083L103.078 571.339L125.856 587.17L125.56 587.512Z" stroke="white" stroke-dasharray="72 72" />
          <path d="M296.895 904.126L343.995 936.861L344.291 936.518L367.069 952.348L368.787 929.262L369.321 929.359L372.873 881.62L372.339 881.524L374.057 858.437L349.561 865.693L349.323 865.253L298.671 880.257L298.909 880.697L274.413 887.953L297.191 903.783L296.895 904.126Z" stroke="white" stroke-dasharray="72 72" />
          <path d="M624.146 439.824L671.246 472.559L671.542 472.216L694.32 488.047L696.038 464.96L696.572 465.057L700.124 417.319L699.59 417.222L701.308 394.135L676.812 401.391L676.574 400.951L625.922 415.955L626.16 416.395L601.664 423.651L624.442 439.482L624.146 439.824Z" stroke="white" stroke-dasharray="72 72" />
          <path d="M795.481 756.438L842.581 789.173L842.877 788.83L865.655 804.66L867.373 781.574L867.907 781.671L871.459 733.932L870.925 733.836L872.643 710.749L848.147 718.005L847.909 717.565L797.257 732.569L797.495 733.009L773 740.265L795.777 756.095L795.481 756.438Z" stroke="white" stroke-dasharray="72 72" />
          <path d="M118.312 360.311L121.864 312.573L122.398 312.67L124.116 289.583L146.894 305.414L147.19 305.071L194.29 337.805L193.994 338.148L216.771 353.979L192.276 361.235L192.514 361.675L141.862 376.678L141.624 376.239L117.128 383.495L118.846 360.408L118.312 360.311Z" stroke="white" stroke-dasharray="72 72" />
          <path d="M289.647 676.925L293.199 629.187L293.733 629.284L295.451 606.197L318.229 622.028L318.525 621.685L365.625 654.419L365.328 654.762L388.106 670.593L363.611 677.849L363.849 678.288L313.196 693.292L312.959 692.852L288.463 700.108L290.181 677.022L289.647 676.925Z" stroke="white" stroke-dasharray="72 72" />
          <path d="M616.898 212.623L620.45 164.885L620.984 164.982L622.702 141.895L645.48 157.726L645.776 157.383L692.876 190.117L692.579 190.46L715.357 206.291L690.862 213.547L691.1 213.987L640.447 228.99L640.209 228.551L615.714 235.807L617.432 212.72L616.898 212.623Z" stroke="white" stroke-dasharray="72 72" />
          <path d="M788.233 529.237L791.785 481.499L792.319 481.595L794.037 458.509L816.815 474.339L817.111 473.997L864.211 506.731L863.915 507.074L886.693 522.904L862.197 530.16L862.435 530.6L811.783 545.604L811.545 545.164L787.049 552.42L788.767 529.334L788.233 529.237Z" stroke="white" stroke-dasharray="72 72" />
          <path d="M203.979 518.618L207.531 470.88L208.065 470.977L209.783 447.89L232.561 463.721L232.857 463.378L279.957 496.112L279.661 496.455L302.439 512.286L277.943 519.542L278.181 519.981L227.529 534.985L227.291 534.546L202.795 541.802L204.513 518.715L203.979 518.618Z" stroke="white" stroke-dasharray="72 72" />
          <path d="M375.314 835.232L378.867 787.493L379.401 787.59L381.119 764.504L403.897 780.334L404.193 779.991L451.293 812.726L450.996 813.069L473.774 828.899L449.279 836.155L449.517 836.595L398.864 851.599L398.626 851.159L374.131 858.415L375.849 835.329L375.314 835.232Z" stroke="white" stroke-dasharray="72 72" />
          <path d="M702.565 370.93L706.118 323.192L706.652 323.289L708.37 300.202L731.148 316.033L731.444 315.69L778.544 348.424L778.247 348.767L801.025 364.598L776.53 371.854L776.768 372.294L726.115 387.297L725.877 386.858L701.382 394.114L703.1 371.027L702.565 370.93Z" stroke="white" stroke-dasharray="72 72" />
          <path d="M873.9 687.544L877.453 639.805L877.987 639.902L879.705 616.816L902.482 632.646L902.779 632.303L949.879 665.038L949.582 665.381L972.36 681.211L947.865 688.467L948.102 688.907L897.45 703.911L897.212 703.471L872.717 710.727L874.435 687.641L873.9 687.544Z" stroke="white" stroke-dasharray="72 72" />
          <path d="M139.609 399.668L186.709 432.402L187.005 432.059L209.783 447.89L211.501 424.804L212.035 424.9L215.587 377.162L215.053 377.065L216.771 353.979L192.275 361.235L192.037 360.795L141.385 375.799L141.623 376.239L117.128 383.495L139.905 399.325L139.609 399.668Z" stroke="white" stroke-dasharray="72 72" />
          <path d="M310.945 716.282L358.044 749.016L358.341 748.673L381.119 764.504L382.836 741.417L383.371 741.514L386.923 693.776L386.389 693.679L388.106 670.592L363.611 677.848L363.373 677.409L312.721 692.412L312.959 692.852L288.463 700.108L311.241 715.939L310.945 716.282Z" stroke="white" stroke-dasharray="72 72" />
          <path d="M638.196 251.98L685.295 284.714L685.592 284.372L708.369 300.202L710.087 277.116L710.622 277.212L714.174 229.474L713.64 229.377L715.357 206.291L690.862 213.547L690.624 213.107L639.972 228.111L640.21 228.551L615.714 235.807L638.492 251.637L638.196 251.98Z" stroke="white" stroke-dasharray="72 72" />
          <path d="M809.531 568.594L856.631 601.328L856.927 600.985L879.705 616.816L881.423 593.729L881.957 593.826L885.509 546.088L884.975 545.991L886.693 522.905L862.197 530.161L861.959 529.721L811.307 544.725L811.545 545.164L787.049 552.42L809.827 568.251L809.531 568.594Z" stroke="white" stroke-dasharray="72 72" />
          <path d="M225.277 557.975L272.377 590.709L272.673 590.366L295.451 606.197L297.169 583.11L297.703 583.207L301.255 535.469L300.721 535.372L302.439 512.286L277.943 519.542L277.705 519.102L227.053 534.106L227.291 534.545L202.795 541.801L225.573 557.632L225.277 557.975Z" stroke="white" stroke-dasharray="72 72" />
          <path d="M396.612 874.589L443.712 907.323L444.008 906.98L466.786 922.811L468.504 899.724L469.038 899.821L472.59 852.083L472.056 851.986L473.774 828.899L449.278 836.155L449.04 835.716L398.388 850.719L398.626 851.159L374.13 858.415L396.908 874.246L396.612 874.589Z" stroke="white" stroke-dasharray="72 72" />
          <path d="M723.863 410.287L770.963 443.021L771.259 442.678L794.037 458.509L795.755 435.422L796.289 435.519L799.841 387.781L799.307 387.684L801.025 364.598L776.529 371.854L776.291 371.414L725.639 386.418L725.877 386.857L701.381 394.113L724.159 409.944L723.863 410.287Z" stroke="white" stroke-dasharray="72 72" />
          <path d="M895.198 726.901L942.298 759.635L942.595 759.292L965.372 775.123L967.09 752.036L967.624 752.133L971.177 704.395L970.642 704.298L972.36 681.211L947.865 688.467L947.627 688.028L896.975 703.031L897.213 703.471L872.717 710.727L895.495 726.558L895.198 726.901Z" stroke="white" stroke-dasharray="72 72" />
          <path d="M218.029 330.774L221.581 283.035L222.115 283.132L223.833 260.046L246.611 275.876L246.907 275.533L294.007 308.268L293.711 308.611L316.489 324.441L291.993 331.697L292.231 332.137L241.579 347.141L241.341 346.701L216.845 353.957L218.563 330.871L218.029 330.774Z" stroke="white" stroke-dasharray="72 72" />
          <path d="M389.364 647.387L392.916 599.649L393.45 599.746L395.168 576.66L417.946 592.49L418.242 592.147L465.342 624.882L465.046 625.225L487.824 641.055L463.328 648.311L463.566 648.751L412.914 663.755L412.676 663.315L388.18 670.571L389.898 647.484L389.364 647.387Z" stroke="white" stroke-dasharray="72 72" />
          <path d="M716.615 183.086L720.167 135.347L720.701 135.444L722.419 112.358L745.197 128.188L745.493 127.845L792.593 160.58L792.297 160.923L815.075 176.753L790.579 184.009L790.817 184.449L740.165 199.453L739.927 199.013L715.431 206.269L717.149 183.183L716.615 183.086Z" stroke="white" stroke-dasharray="72 72" />
          <path d="M887.95 499.699L891.502 451.961L892.037 452.058L893.754 428.971L916.532 444.802L916.828 444.459L963.928 477.193L963.632 477.536L986.41 493.367L961.914 500.623L962.152 501.063L911.5 516.066L911.262 515.627L886.767 522.883L888.484 499.796L887.95 499.699Z" stroke="white" stroke-dasharray="72 72" />
          <path d="M303.696 489.081L307.249 441.342L307.783 441.439L309.501 418.353L332.278 434.183L332.575 433.84L379.674 466.575L379.378 466.918L402.156 482.748L377.66 490.004L377.898 490.444L327.246 505.448L327.008 505.008L302.513 512.264L304.23 489.177L303.696 489.081Z" stroke="white" stroke-dasharray="72 72" />
          <path d="M475.032 805.694L478.584 757.956L479.118 758.053L480.836 734.966L503.614 750.797L503.91 750.454L551.01 783.188L550.714 783.531L573.492 799.362L548.996 806.618L549.234 807.057L498.582 822.061L498.344 821.622L473.848 828.877L475.566 805.791L475.032 805.694Z" stroke="white" stroke-dasharray="72 72" />
          <path d="M802.283 341.393L805.835 293.654L806.369 293.751L808.087 270.665L830.865 286.495L831.161 286.152L878.261 318.887L877.965 319.23L900.743 335.06L876.247 342.316L876.485 342.756L825.833 357.76L825.595 357.32L801.099 364.576L802.817 341.489L802.283 341.393Z" stroke="white" stroke-dasharray="72 72" />
          <path d="M973.618 658.006L977.17 610.268L977.704 610.365L979.422 587.278L1002.2 603.109L1002.5 602.766L1049.6 635.5L1049.3 635.843L1072.08 651.674L1047.58 658.93L1047.82 659.369L997.168 674.373L996.93 673.934L972.434 681.189L974.152 658.103L973.618 658.006Z" stroke="white" stroke-dasharray="72 72" />
          <path d="M239.326 370.13L286.426 402.865L286.723 402.522L309.5 418.352L311.218 395.266L311.752 395.363L315.305 347.625L314.77 347.528L316.488 324.441L291.993 331.697L291.755 331.257L241.103 346.261L241.34 346.701L216.845 353.957L239.623 369.787L239.326 370.13Z" stroke="white" stroke-dasharray="72 72" />
          <path d="M410.662 686.744L457.762 719.479L458.058 719.136L480.836 734.966L482.554 711.88L483.088 711.977L486.64 664.238L486.106 664.141L487.824 641.055L463.328 648.311L463.09 647.871L412.438 662.875L412.676 663.315L388.18 670.571L410.958 686.401L410.662 686.744Z" stroke="white" stroke-dasharray="72 72" />
          <path d="M737.913 222.442L785.013 255.177L785.309 254.834L808.087 270.664L809.805 247.578L810.339 247.675L813.891 199.937L813.357 199.84L815.075 176.753L790.579 184.009L790.341 183.569L739.689 198.573L739.927 199.013L715.431 206.269L738.209 222.099L737.913 222.442Z" stroke="white" stroke-dasharray="72 72" />
          <path d="M909.248 539.056L956.348 571.79L956.644 571.447L979.422 587.278L981.14 564.192L981.674 564.288L985.226 516.55L984.692 516.453L986.41 493.367L961.914 500.623L961.676 500.183L911.024 515.187L911.262 515.627L886.767 522.883L909.544 538.713L909.248 539.056Z" stroke="white" stroke-dasharray="72 72" />
          <path d="M324.994 528.437L372.094 561.172L372.39 560.829L395.168 576.659L396.886 553.573L397.42 553.67L400.973 505.931L400.438 505.835L402.156 482.748L377.661 490.004L377.423 489.564L326.77 504.568L327.008 505.008L302.513 512.264L325.291 528.094L324.994 528.437Z" stroke="white" stroke-dasharray="72 72" />
          <path d="M496.329 845.051L543.429 877.785L543.725 877.443L566.503 893.273L568.221 870.187L568.755 870.283L572.307 822.545L571.773 822.448L573.491 799.362L548.996 806.618L548.758 806.178L498.105 821.182L498.343 821.622L473.848 828.878L496.626 844.708L496.329 845.051Z" stroke="white" stroke-dasharray="72 72" />
          <path d="M823.58 380.749L870.68 413.484L870.976 413.141L893.754 428.971L895.472 405.885L896.006 405.982L899.558 358.243L899.024 358.147L900.742 335.06L876.246 342.316L876.009 341.876L825.356 356.88L825.594 357.32L801.099 364.576L823.877 380.406L823.58 380.749Z" stroke="white" stroke-dasharray="72 72" />
          <path d="M994.916 697.363L1042.02 730.097L1042.31 729.755L1065.09 745.585L1066.81 722.499L1067.34 722.595L1070.89 674.857L1070.36 674.76L1072.08 651.674L1047.58 658.93L1047.34 658.49L996.692 673.494L996.93 673.934L972.434 681.19L995.212 697.02L994.916 697.363Z" stroke="white" stroke-dasharray="72 72" />
          <path d="M94.7959 688.467L91.2437 736.205L90.7095 736.108L88.9916 759.194L66.2138 743.364L65.9176 743.707L18.8177 710.972L19.1139 710.629L-3.6639 694.799L20.8318 687.543L20.5938 687.103L71.2459 672.099L71.4839 672.539L95.9796 665.283L94.2617 688.37L94.7959 688.467Z" stroke="white" stroke-dasharray="72 72" />
          <path d="M422.047 224.165L418.495 271.903L417.96 271.806L416.243 294.893L393.465 279.062L393.169 279.405L346.069 246.671L346.365 246.328L323.587 230.497L348.083 223.241L347.845 222.801L398.497 207.798L398.735 208.237L423.231 200.981L421.513 224.068L422.047 224.165Z" stroke="white" stroke-dasharray="72 72" />
          <path d="M593.382 540.779L589.83 588.517L589.296 588.42L587.578 611.506L564.8 595.676L564.504 596.019L517.404 563.284L517.7 562.941L494.923 547.111L519.418 539.855L519.18 539.415L569.832 524.411L570.07 524.851L594.566 517.595L592.848 540.682L593.382 540.779Z" stroke="white" stroke-dasharray="72 72" />
          <path d="M9.12838 530.16L5.57618 577.898L5.04202 577.801L3.32415 600.888L-19.4537 585.057L-19.7499 585.4L-66.8498 552.665L-66.5536 552.323L-89.3314 536.492L-64.8357 529.236L-65.0737 528.796L-14.4216 513.793L-14.1836 514.232L10.3121 506.976L8.59421 530.063L9.12838 530.16Z" stroke="white" stroke-dasharray="72 72" />
          <path d="M180.463 846.773L176.911 894.511L176.377 894.415L174.659 917.501L151.881 901.671L151.585 902.013L104.485 869.279L104.781 868.936L82.0036 853.106L106.499 845.85L106.261 845.41L156.913 830.406L157.151 830.846L181.647 823.59L179.929 846.676L180.463 846.773Z" stroke="white" stroke-dasharray="72 72" />
          <path d="M507.714 382.472L504.162 430.21L503.628 430.113L501.91 453.2L479.132 437.369L478.836 437.712L431.736 404.977L432.032 404.635L409.255 388.804L433.75 381.548L433.512 381.108L484.164 366.105L484.402 366.544L508.898 359.288L507.18 382.375L507.714 382.472Z" stroke="white" stroke-dasharray="72 72" />
          <path d="M679.05 699.085L675.498 746.823L674.963 746.727L673.246 769.813L650.468 753.983L650.172 754.325L603.072 721.591L603.368 721.248L580.59 705.418L605.086 698.162L604.848 697.722L655.5 682.718L655.738 683.158L680.233 675.902L678.516 698.988L679.05 699.085Z" stroke="white" stroke-dasharray="72 72" />
          <path d="M-12.1697 490.803L-59.2696 458.068L-59.5658 458.411L-82.3436 442.581L-84.0615 465.667L-84.5956 465.57L-88.1478 513.309L-87.6137 513.405L-89.3315 536.492L-64.8358 529.236L-64.5979 529.676L-13.9458 514.672L-14.1837 514.232L10.3119 506.976L-12.4659 491.146L-12.1697 490.803Z" stroke="white" stroke-dasharray="72 72" />
          <path d="M159.165 807.417L112.065 774.682L111.769 775.025L88.9913 759.195L87.2735 782.281L86.7393 782.184L83.1872 829.922L83.7214 830.019L82.0035 853.106L106.499 845.85L106.737 846.29L157.389 831.286L157.151 830.846L181.647 823.59L158.869 807.76L159.165 807.417Z" stroke="white" stroke-dasharray="72 72" />
          <path d="M486.417 343.115L439.317 310.38L439.021 310.723L416.243 294.893L414.525 317.979L413.991 317.882L410.439 365.621L410.973 365.717L409.255 388.804L433.751 381.548L433.989 381.988L484.641 366.984L484.403 366.544L508.898 359.288L486.121 343.458L486.417 343.115Z" stroke="white" stroke-dasharray="72 72" />
          <path d="M657.752 659.729L610.652 626.994L610.356 627.337L587.578 611.506L585.86 634.593L585.326 634.496L581.774 682.234L582.308 682.331L580.59 705.418L605.086 698.162L605.324 698.602L655.976 683.598L655.738 683.158L680.233 675.902L657.456 660.071L657.752 659.729Z" stroke="white" stroke-dasharray="72 72" />
          <path d="M73.4978 649.11L26.3979 616.375L26.1017 616.718L3.32387 600.888L1.60601 623.974L1.07185 623.877L-2.48034 671.615L-1.94617 671.712L-3.66403 694.799L20.8316 687.543L21.0696 687.983L71.7217 672.979L71.4837 672.539L95.9794 665.283L73.2016 649.453L73.4978 649.11Z" stroke="white" stroke-dasharray="72 72" />
          <path d="M244.833 965.723L197.733 932.989L197.437 933.332L174.659 917.501L172.941 940.588L172.407 940.491L168.855 988.229L169.389 988.326L167.671 1011.41L192.167 1004.16L192.405 1004.6L243.057 989.593L242.819 989.153L267.315 981.897L244.537 966.066L244.833 965.723Z" stroke="white" stroke-dasharray="72 72" />
          <path d="M572.084 501.422L524.984 468.687L524.688 469.03L501.91 453.2L500.192 476.286L499.658 476.189L496.106 523.927L496.64 524.024L494.922 547.111L519.418 539.855L519.656 540.295L570.308 525.291L570.07 524.851L594.566 517.595L571.788 501.765L572.084 501.422Z" stroke="white" stroke-dasharray="72 72" />
          <path d="M743.42 818.035L696.32 785.301L696.024 785.644L673.246 769.813L671.528 792.9L670.994 792.803L667.442 840.541L667.976 840.638L666.258 863.725L690.754 856.469L690.991 856.908L741.644 841.905L741.406 841.465L765.901 834.209L743.123 818.378L743.42 818.035Z" stroke="white" stroke-dasharray="72 72" />
          <path d="M23.1777 342.315L19.6255 390.053L19.0913 389.957L17.3735 413.043L-5.40435 397.213L-5.70055 397.555L-52.8004 364.821L-52.5042 364.478L-75.2821 348.648L-50.7864 341.392L-51.0244 340.952L-0.372254 325.948L-0.134288 326.388L24.3614 319.132L22.6435 342.218L23.1777 342.315Z" stroke="white" stroke-dasharray="72 72" />
          <path d="M194.513 658.929L190.961 706.667L190.427 706.57L188.709 729.657L165.931 713.826L165.635 714.169L118.535 681.435L118.831 681.092L96.0534 665.261L120.549 658.005L120.311 657.566L170.963 642.562L171.201 643.002L195.697 635.746L193.979 658.832L194.513 658.929Z" stroke="white" stroke-dasharray="72 72" />
          <path d="M521.764 194.627L518.212 242.365L517.678 242.269L515.96 265.355L493.182 249.525L492.886 249.867L445.786 217.133L446.082 216.79L423.304 200.96L447.8 193.704L447.562 193.264L498.214 178.26L498.452 178.7L522.948 171.444L521.23 194.53L521.764 194.627Z" stroke="white" stroke-dasharray="72 72" />
          <path d="M693.099 511.241L689.547 558.979L689.013 558.882L687.295 581.969L664.517 566.138L664.221 566.481L617.121 533.747L617.417 533.404L594.639 517.573L619.135 510.317L618.897 509.878L669.549 494.874L669.787 495.314L694.283 488.058L692.565 511.144L693.099 511.241Z" stroke="white" stroke-dasharray="72 72" />
          <path d="M108.846 500.622L105.293 548.36L104.759 548.263L103.041 571.35L80.2636 555.519L79.9674 555.862L32.8675 523.128L33.1637 522.785L10.3859 506.954L34.8816 499.698L34.6436 499.259L85.2957 484.255L85.5337 484.695L110.029 477.439L108.311 500.525L108.846 500.622Z" stroke="white" stroke-dasharray="72 72" />
          <path d="M280.181 817.236L276.628 864.974L276.094 864.877L274.376 887.964L251.599 872.133L251.302 872.476L204.202 839.741L204.499 839.399L181.721 823.568L206.217 816.312L205.979 815.872L256.631 800.868L256.869 801.308L281.364 794.052L279.646 817.139L280.181 817.236Z" stroke="white" stroke-dasharray="72 72" />
          <path d="M607.432 352.934L603.879 400.672L603.345 400.575L601.627 423.662L578.85 407.831L578.553 408.174L531.453 375.44L531.75 375.097L508.972 359.266L533.468 352.01L533.23 351.571L583.882 336.567L584.12 337.007L608.615 329.751L606.897 352.837L607.432 352.934Z" stroke="white" stroke-dasharray="72 72" />
          <path d="M778.767 669.548L775.215 717.286L774.681 717.189L772.963 740.276L750.185 724.445L749.889 724.788L702.789 692.053L703.085 691.711L680.307 675.88L704.803 668.624L704.565 668.184L755.217 653.18L755.455 653.62L779.951 646.364L778.233 669.451L778.767 669.548Z" stroke="white" stroke-dasharray="72 72" />
          <path d="M87.5476 461.265L40.4477 428.531L40.1515 428.874L17.3737 413.043L15.6558 436.13L15.1217 436.033L11.5695 483.771L12.1036 483.868L10.3858 506.954L34.8815 499.698L35.1194 500.138L85.7715 485.134L85.5335 484.695L110.029 477.439L87.2514 461.608L87.5476 461.265Z" stroke="white" stroke-dasharray="72 72" />
          <path d="M258.883 777.879L211.783 745.145L211.486 745.487L188.709 729.657L186.991 752.743L186.457 752.646L182.904 800.385L183.439 800.482L181.721 823.568L206.216 816.312L206.454 816.752L257.106 801.748L256.869 801.308L281.364 794.052L258.586 778.222L258.883 777.879Z" stroke="white" stroke-dasharray="72 72" />
          <path d="M586.134 313.577L539.034 280.843L538.737 281.186L515.96 265.355L514.242 288.442L513.708 288.345L510.155 336.083L510.69 336.18L508.972 359.266L533.467 352.01L533.705 352.45L584.357 337.446L584.119 337.007L608.615 329.751L585.837 313.92L586.134 313.577Z" stroke="white" stroke-dasharray="72 72" />
          <path d="M757.469 630.191L710.369 597.457L710.073 597.8L687.295 581.969L685.577 605.056L685.043 604.959L681.491 652.697L682.025 652.794L680.307 675.88L704.803 668.624L705.041 669.064L755.693 654.06L755.455 653.62L779.951 646.365L757.173 630.534L757.469 630.191Z" stroke="white" stroke-dasharray="72 72" />
          <path d="M173.215 619.572L126.115 586.838L125.819 587.181L103.041 571.35L101.323 594.436L100.789 594.34L97.2369 642.078L97.7711 642.175L96.0533 665.261L120.549 658.005L120.787 658.445L171.439 643.441L171.201 643.001L195.697 635.745L172.919 619.915L173.215 619.572Z" stroke="white" stroke-dasharray="72 72" />
          <path d="M344.551 936.186L297.451 903.451L297.154 903.794L274.377 887.964L272.659 911.05L272.125 910.953L268.572 958.692L269.107 958.788L267.389 981.875L291.884 974.619L292.122 975.059L342.774 960.055L342.536 959.615L367.032 952.359L344.254 936.529L344.551 936.186Z" stroke="white" stroke-dasharray="72 72" />
          <path d="M671.802 471.884L624.702 439.15L624.405 439.493L601.628 423.662L599.91 446.748L599.376 446.652L595.823 494.39L596.358 494.487L594.64 517.573L619.135 510.317L619.373 510.757L670.025 495.753L669.787 495.313L694.283 488.057L671.505 472.227L671.802 471.884Z" stroke="white" stroke-dasharray="72 72" />
          <path d="M843.136 788.498L796.037 755.763L795.74 756.106L772.963 740.276L771.245 763.362L770.711 763.265L767.158 811.004L767.693 811.1L765.975 834.187L790.47 826.931L790.708 827.371L841.36 812.367L841.122 811.927L865.618 804.671L842.84 788.841L843.136 788.498Z" stroke="white" stroke-dasharray="72 72" />
          <path d="M122.895 312.778L119.343 360.516L118.809 360.419L117.091 383.506L94.3129 367.675L94.0167 368.018L46.9168 335.283L47.213 334.941L24.4352 319.11L48.9309 311.854L48.6929 311.414L99.345 296.41L99.583 296.85L124.079 289.594L122.361 312.681L122.895 312.778Z" stroke="white" stroke-dasharray="72 72" />
          <path d="M294.23 629.391L290.678 677.13L290.144 677.033L288.426 700.119L265.648 684.289L265.352 684.632L218.252 651.897L218.548 651.554L195.771 635.724L220.266 628.468L220.028 628.028L270.68 613.024L270.918 613.464L295.414 606.208L293.696 629.295L294.23 629.391Z" stroke="white" stroke-dasharray="72 72" />
          <path d="M621.481 165.09L617.929 212.828L617.395 212.731L615.677 235.818L592.899 219.987L592.603 220.33L545.503 187.595L545.799 187.253L523.022 171.422L547.517 164.166L547.279 163.726L597.931 148.722L598.169 149.162L622.665 141.906L620.947 164.993L621.481 165.09Z" stroke="white" stroke-dasharray="72 72" />
          <path d="M792.817 481.703L789.265 529.442L788.73 529.345L787.013 552.431L764.235 536.601L763.939 536.944L716.839 504.209L717.135 503.866L694.357 488.036L718.853 480.78L718.615 480.34L769.267 465.336L769.505 465.776L794.001 458.52L792.283 481.607L792.817 481.703Z" stroke="white" stroke-dasharray="72 72" />
          <path d="M208.563 471.085L205.011 518.823L204.477 518.726L202.759 541.812L179.981 525.982L179.685 526.325L132.585 493.59L132.881 493.247L110.103 477.417L134.599 470.161L134.361 469.721L185.013 454.717L185.251 455.157L209.747 447.901L208.029 470.988L208.563 471.085Z" stroke="white" stroke-dasharray="72 72" />
          <path d="M379.898 787.698L376.346 835.436L375.812 835.339L374.094 858.426L351.316 842.595L351.02 842.938L303.92 810.204L304.216 809.861L281.438 794.03L305.934 786.774L305.696 786.335L356.348 771.331L356.586 771.771L381.082 764.515L379.364 787.601L379.898 787.698Z" stroke="white" stroke-dasharray="72 72" />
          <path d="M707.149 323.397L703.597 371.135L703.063 371.038L701.345 394.124L678.567 378.294L678.271 378.637L631.171 345.902L631.467 345.559L608.689 329.729L633.185 322.473L632.947 322.033L683.599 307.029L683.837 307.469L708.333 300.213L706.615 323.3L707.149 323.397Z" stroke="white" stroke-dasharray="72 72" />
          <path d="M878.484 640.01L874.932 687.748L874.398 687.651L872.68 710.738L849.902 694.907L849.606 695.25L802.506 662.516L802.802 662.173L780.025 646.342L804.52 639.086L804.282 638.647L854.934 623.643L855.172 624.083L879.668 616.827L877.95 639.913L878.484 640.01Z" stroke="white" stroke-dasharray="72 72" />
          <path d="M187.265 431.728L140.165 398.993L139.869 399.336L117.091 383.505L115.373 406.592L114.839 406.495L111.287 454.233L111.821 454.33L110.103 477.417L134.599 470.161L134.837 470.601L185.489 455.597L185.251 455.157L209.747 447.901L186.969 432.07L187.265 431.728Z" stroke="white" stroke-dasharray="72 72" />
          <path d="M358.6 748.342L311.5 715.607L311.204 715.95L288.426 700.119L286.708 723.206L286.174 723.109L282.622 770.847L283.156 770.944L281.438 794.031L305.934 786.775L306.172 787.214L356.824 772.211L356.586 771.771L381.082 764.515L358.304 748.684L358.6 748.342Z" stroke="white" stroke-dasharray="72 72" />
          <path d="M685.851 284.04L638.751 251.305L638.455 251.648L615.677 235.817L613.959 258.904L613.425 258.807L609.873 306.545L610.407 306.642L608.689 329.729L633.185 322.473L633.423 322.913L684.075 307.909L683.837 307.469L708.332 300.213L685.555 284.382L685.851 284.04Z" stroke="white" stroke-dasharray="72 72" />
          <path d="M857.186 600.653L810.086 567.919L809.79 568.262L787.012 552.431L785.294 575.518L784.76 575.421L781.208 623.159L781.742 623.256L780.024 646.343L804.52 639.087L804.758 639.526L855.41 624.522L855.172 624.083L879.668 616.827L856.89 600.996L857.186 600.653Z" stroke="white" stroke-dasharray="72 72" />
          <path d="M272.932 590.034L225.832 557.3L225.536 557.643L202.758 541.812L201.041 564.899L200.506 564.802L196.954 612.54L197.488 612.637L195.771 635.724L220.266 628.468L220.504 628.907L271.156 613.904L270.918 613.464L295.414 606.208L272.636 590.377L272.932 590.034Z" stroke="white" stroke-dasharray="72 72" />
          <path d="M444.268 906.648L397.168 873.914L396.872 874.257L374.094 858.426L372.376 881.513L371.842 881.416L368.29 929.154L368.824 929.251L367.106 952.337L391.602 945.081L391.84 945.521L442.492 930.517L442.254 930.078L466.749 922.822L443.972 906.991L444.268 906.648Z" stroke="white" stroke-dasharray="72 72" />
          <path d="M771.519 442.346L724.419 409.612L724.123 409.955L701.345 394.124L699.627 417.211L699.093 417.114L695.541 464.852L696.075 464.949L694.357 488.036L718.853 480.78L719.091 481.219L769.743 466.216L769.505 465.776L794 458.52L771.223 442.689L771.519 442.346Z" stroke="white" stroke-dasharray="72 72" />
          <path d="M942.854 758.96L895.754 726.226L895.458 726.569L872.68 710.738L870.962 733.825L870.428 733.728L866.876 781.466L867.41 781.563L865.692 804.649L890.188 797.393L890.426 797.833L941.078 782.829L940.84 782.39L965.335 775.134L942.558 759.303L942.854 758.96Z" stroke="white" stroke-dasharray="72 72" />
          <path d="M222.612 283.24L219.06 330.978L218.526 330.881L216.808 353.968L194.03 338.137L193.734 338.48L146.634 305.746L146.93 305.403L124.153 289.572L148.648 282.316L148.41 281.877L199.062 266.873L199.3 267.313L223.796 260.057L222.078 283.143L222.612 283.24Z" stroke="white" stroke-dasharray="72 72" />
          <path d="M393.948 599.854L390.396 647.592L389.861 647.495L388.143 670.582L365.366 654.751L365.069 655.094L317.97 622.36L318.266 622.017L295.488 606.186L319.984 598.93L319.746 598.49L370.398 583.487L370.636 583.926L395.131 576.67L393.414 599.757L393.948 599.854Z" stroke="white" stroke-dasharray="72 72" />
          <path d="M721.199 135.552L717.646 183.29L717.112 183.193L715.394 206.28L692.617 190.449L692.32 190.792L645.221 158.058L645.517 157.715L622.739 141.884L647.235 134.628L646.997 134.189L697.649 119.185L697.887 119.625L722.382 112.369L720.665 135.455L721.199 135.552Z" stroke="white" stroke-dasharray="72 72" />
          <path d="M892.534 452.166L888.981 499.904L888.447 499.807L886.729 522.894L863.952 507.063L863.655 507.406L816.556 474.672L816.852 474.329L794.074 458.498L818.57 451.242L818.332 450.802L868.984 435.799L869.222 436.238L893.717 428.982L891.999 452.069L892.534 452.166Z" stroke="white" stroke-dasharray="72 72" />
          <path d="M308.28 441.547L304.728 489.285L304.193 489.188L302.476 512.275L279.698 496.444L279.401 496.787L232.302 464.053L232.598 463.71L209.82 447.879L234.316 440.623L234.078 440.184L284.73 425.18L284.968 425.619L309.463 418.364L307.746 441.45L308.28 441.547Z" stroke="white" stroke-dasharray="72 72" />
          <path d="M479.615 758.16L476.063 805.899L475.529 805.802L473.811 828.888L451.033 813.058L450.737 813.401L403.637 780.666L403.933 780.323L381.155 764.493L405.651 757.237L405.413 756.797L456.065 741.793L456.303 742.233L480.799 734.977L479.081 758.064L479.615 758.16Z" stroke="white" stroke-dasharray="72 72" />
          <path d="M806.866 293.859L803.314 341.597L802.78 341.5L801.062 364.587L778.284 348.756L777.988 349.099L730.888 316.365L731.184 316.022L708.406 300.191L732.902 292.935L732.664 292.496L783.316 277.492L783.554 277.931L808.05 270.676L806.332 293.762L806.866 293.859Z" stroke="white" stroke-dasharray="72 72" />
          <path d="M978.202 610.472L974.649 658.211L974.115 658.114L972.397 681.2L949.62 665.37L949.323 665.713L902.223 632.978L902.52 632.635L879.742 616.805L904.238 609.549L904 609.109L954.652 594.105L954.89 594.545L979.385 587.289L977.667 610.376L978.202 610.472Z" stroke="white" stroke-dasharray="72 72" />
          <path d="M286.982 402.19L239.882 369.456L239.586 369.798L216.808 353.968L215.09 377.054L214.556 376.957L211.004 424.696L211.538 424.793L209.82 447.879L234.316 440.623L234.554 441.063L285.206 426.059L284.968 425.619L309.464 418.363L286.686 402.533L286.982 402.19Z" stroke="white" stroke-dasharray="72 72" />
          <path d="M458.317 718.804L411.217 686.069L410.921 686.412L388.143 670.582L386.425 693.668L385.891 693.571L382.339 741.31L382.873 741.406L381.155 764.493L405.651 757.237L405.889 757.677L456.541 742.673L456.303 742.233L480.799 734.977L458.021 719.147L458.317 718.804Z" stroke="white" stroke-dasharray="72 72" />
          <path d="M785.568 254.502L738.468 221.768L738.172 222.11L715.394 206.28L713.676 229.366L713.142 229.27L709.59 277.008L710.124 277.105L708.406 300.191L732.902 292.935L733.14 293.375L783.792 278.371L783.554 277.931L808.05 270.675L785.272 254.845L785.568 254.502Z" stroke="white" stroke-dasharray="72 72" />
          <path d="M956.904 571.116L909.804 538.382L909.507 538.724L886.73 522.894L885.012 545.98L884.478 545.883L880.925 593.622L881.46 593.719L879.742 616.805L904.237 609.549L904.475 609.989L955.128 594.985L954.89 594.545L979.385 587.289L956.607 571.459L956.904 571.116Z" stroke="white" stroke-dasharray="72 72" />
          <path d="M372.65 560.497L325.55 527.762L325.254 528.105L302.476 512.275L300.758 535.361L300.224 535.264L296.672 583.003L297.206 583.1L295.488 606.186L319.984 598.93L320.221 599.37L370.874 584.366L370.636 583.926L395.131 576.67L372.353 560.84L372.65 560.497Z" stroke="white" stroke-dasharray="72 72" />
          <path d="M543.985 877.111L496.885 844.376L496.589 844.719L473.811 828.889L472.093 851.975L471.559 851.878L468.007 899.616L468.541 899.713L466.823 922.8L491.319 915.544L491.557 915.984L542.209 900.98L541.971 900.54L566.467 893.284L543.689 877.453L543.985 877.111Z" stroke="white" stroke-dasharray="72 72" />
          <path d="M871.236 412.809L824.136 380.074L823.84 380.417L801.062 364.587L799.344 387.673L798.81 387.576L795.258 435.315L795.792 435.412L794.074 458.498L818.57 451.242L818.808 451.682L869.46 436.678L869.222 436.238L893.718 428.982L870.94 413.152L871.236 412.809Z" stroke="white" stroke-dasharray="72 72" />
          <path d="M1042.57 729.423L995.471 696.688L995.175 697.031L972.397 681.201L970.679 704.287L970.145 704.19L966.593 751.928L967.127 752.025L965.409 775.112L989.905 767.856L990.143 768.296L1040.79 753.292L1040.56 752.852L1065.05 745.596L1042.27 729.765L1042.57 729.423Z" stroke="white" stroke-dasharray="72 72" />
          <path d="M322.33 253.702L318.777 301.441L318.243 301.344L316.525 324.43L293.748 308.6L293.451 308.943L246.351 276.208L246.648 275.865L223.87 260.035L248.365 252.779L248.128 252.339L298.78 237.335L299.018 237.775L323.513 230.519L321.795 253.606L322.33 253.702Z" stroke="white" stroke-dasharray="72 72" />
          <path d="M493.665 570.316L490.113 618.054L489.579 617.958L487.861 641.044L465.083 625.214L464.787 625.556L417.687 592.822L417.983 592.479L395.205 576.649L419.701 569.393L419.463 568.953L470.115 553.949L470.353 554.389L494.849 547.133L493.131 570.219L493.665 570.316Z" stroke="white" stroke-dasharray="72 72" />
          <path d="M820.916 106.014L817.364 153.753L816.83 153.656L815.112 176.742L792.334 160.912L792.038 161.255L744.938 128.52L745.234 128.177L722.456 112.347L746.952 105.091L746.714 104.651L797.366 89.6472L797.604 90.087L822.1 82.831L820.382 105.918L820.916 106.014Z" stroke="white" stroke-dasharray="72 72" />
          <path d="M992.251 422.628L988.699 470.366L988.165 470.27L986.447 493.356L963.669 477.526L963.373 477.868L916.273 445.134L916.569 444.791L893.791 428.961L918.287 421.705L918.049 421.265L968.701 406.261L968.939 406.701L993.435 399.445L991.717 422.531L992.251 422.628Z" stroke="white" stroke-dasharray="72 72" />
          <path d="M407.997 412.009L404.445 459.748L403.911 459.651L402.193 482.737L379.415 466.907L379.119 467.249L332.019 434.515L332.315 434.172L309.537 418.342L334.033 411.086L333.795 410.646L384.447 395.642L384.685 396.082L409.181 388.826L407.463 411.912L407.997 412.009Z" stroke="white" stroke-dasharray="72 72" />
          <path d="M579.332 728.623L575.78 776.361L575.246 776.264L573.528 799.351L550.75 783.52L550.454 783.863L503.354 751.129L503.651 750.786L480.873 734.955L505.368 727.699L505.13 727.259L555.783 712.256L556.02 712.695L580.516 705.439L578.798 728.526L579.332 728.623Z" stroke="white" stroke-dasharray="72 72" />
          <path d="M906.583 264.321L903.031 312.06L902.497 311.963L900.779 335.049L878.001 319.219L877.705 319.561L830.605 286.827L830.902 286.484L808.124 270.654L832.619 263.398L832.381 262.958L883.034 247.954L883.271 248.394L907.767 241.138L906.049 264.224L906.583 264.321Z" stroke="white" stroke-dasharray="72 72" />
          <path d="M1077.92 580.935L1074.37 628.673L1073.83 628.576L1072.11 651.663L1049.34 635.832L1049.04 636.175L1001.94 603.441L1002.24 603.098L979.459 587.267L1003.95 580.011L1003.72 579.571L1054.37 564.568L1054.61 565.007L1079.1 557.751L1077.38 580.838L1077.92 580.935Z" stroke="white" stroke-dasharray="72 72" />
          <path d="M386.699 372.652L339.6 339.918L339.303 340.261L316.526 324.43L314.808 347.517L314.274 347.42L310.721 395.158L311.255 395.255L309.538 418.342L334.033 411.086L334.271 411.525L384.923 396.522L384.685 396.082L409.181 388.826L386.403 372.995L386.699 372.652Z" stroke="white" stroke-dasharray="72 72" />
          <path d="M558.034 689.266L510.935 656.532L510.638 656.875L487.86 641.044L486.143 664.131L485.608 664.034L482.056 711.772L482.591 711.869L480.873 734.955L505.368 727.699L505.606 728.139L556.258 713.135L556.02 712.696L580.516 705.44L557.738 689.609L558.034 689.266Z" stroke="white" stroke-dasharray="72 72" />
          <path d="M885.285 224.964L838.185 192.23L837.889 192.573L815.111 176.742L813.394 199.829L812.859 199.732L809.307 247.47L809.841 247.567L808.124 270.654L832.619 263.398L832.857 263.837L883.509 248.834L883.271 248.394L907.767 241.138L884.989 225.307L885.285 224.964Z" stroke="white" stroke-dasharray="72 72" />
          <path d="M1056.62 541.578L1009.52 508.844L1009.22 509.187L986.447 493.356L984.729 516.443L984.195 516.346L980.643 564.084L981.177 564.181L979.459 587.267L1003.95 580.011L1004.19 580.451L1054.84 565.447L1054.61 565.008L1079.1 557.752L1056.32 541.921L1056.62 541.578Z" stroke="white" stroke-dasharray="72 72" />
          <path d="M472.367 530.959L425.267 498.225L424.971 498.568L402.193 482.737L400.475 505.824L399.941 505.727L396.389 553.465L396.923 553.562L395.205 576.648L419.701 569.392L419.939 569.832L470.591 554.828L470.353 554.389L494.849 547.133L472.071 531.302L472.367 530.959Z" stroke="white" stroke-dasharray="72 72" />
          <path d="M643.702 847.573L596.602 814.839L596.306 815.181L573.528 799.351L571.81 822.437L571.276 822.341L567.724 870.079L568.258 870.176L566.54 893.262L591.036 886.006L591.274 886.446L641.926 871.442L641.688 871.002L666.184 863.746L643.406 847.916L643.702 847.573Z" stroke="white" stroke-dasharray="72 72" />
          <path d="M970.953 383.271L923.853 350.537L923.557 350.88L900.779 335.049L899.061 358.136L898.527 358.039L894.975 405.777L895.509 405.874L893.791 428.96L918.287 421.704L918.525 422.144L969.177 407.14L968.939 406.701L993.434 399.445L970.657 383.614L970.953 383.271Z" stroke="white" stroke-dasharray="72 72" />
          <path d="M1142.29 699.885L1095.19 667.151L1094.89 667.493L1072.11 651.663L1070.4 674.749L1069.86 674.653L1066.31 722.391L1066.84 722.488L1065.13 745.574L1089.62 738.318L1089.86 738.758L1140.51 723.754L1140.27 723.314L1164.77 716.058L1141.99 700.228L1142.29 699.885Z" stroke="white" stroke-dasharray="72 72" />
          <path d="M162.16 1081.92L165.712 1034.19L166.246 1034.28L167.964 1011.2L190.742 1027.03L191.038 1026.68L238.138 1059.42L237.842 1059.76L260.619 1075.59L236.124 1082.85L236.362 1083.29L185.71 1098.29L185.472 1097.85L160.976 1105.11L162.694 1082.02L162.16 1081.92Z" stroke="white" stroke-dasharray="72 72" />
          <path d="M660.746 934.236L664.298 886.498L664.832 886.595L666.55 863.508L689.328 879.339L689.624 878.996L736.724 911.73L736.428 912.073L759.206 927.904L734.71 935.16L734.948 935.599L684.296 950.603L684.058 950.164L659.562 957.419L661.28 934.333L660.746 934.236Z" stroke="white" stroke-dasharray="72 72" />
          <path d="M746.414 1092.54L749.966 1044.8L750.5 1044.9L752.218 1021.81L774.996 1037.65L775.292 1037.3L822.392 1070.04L822.096 1070.38L844.873 1086.21L820.378 1093.47L820.616 1093.91L769.964 1108.91L769.726 1108.47L745.23 1115.73L746.948 1092.64L746.414 1092.54Z" stroke="white" stroke-dasharray="72 72" />
          <path d="M682.044 973.593L729.144 1006.33L729.44 1005.98L752.218 1021.81L753.935 998.728L754.47 998.825L758.022 951.087L757.488 950.99L759.206 927.904L734.71 935.16L734.472 934.72L683.82 949.724L684.058 950.163L659.562 957.419L682.34 973.25L682.044 973.593Z" stroke="white" stroke-dasharray="72 72" />
          <path d="M261.877 1052.39L265.429 1004.65L265.963 1004.75L267.681 981.659L290.459 997.489L290.755 997.146L337.855 1029.88L337.559 1030.22L360.337 1046.05L335.841 1053.31L336.079 1053.75L285.427 1068.75L285.189 1068.31L260.693 1075.57L262.411 1052.48L261.877 1052.39Z" stroke="white" stroke-dasharray="72 72" />
          <path d="M760.463 904.698L764.016 856.96L764.55 857.057L766.268 833.971L789.045 849.801L789.342 849.458L836.442 882.193L836.145 882.536L858.923 898.366L834.428 905.622L834.665 906.062L784.013 921.066L783.775 920.626L759.28 927.882L760.998 904.795L760.463 904.698Z" stroke="white" stroke-dasharray="72 72" />
          <path d="M846.131 1063.01L849.683 1015.27L850.217 1015.36L851.935 992.277L874.713 1008.11L875.009 1007.76L922.109 1040.5L921.813 1040.84L944.591 1056.67L920.095 1063.93L920.333 1064.37L869.681 1079.37L869.443 1078.93L844.947 1086.19L846.665 1063.1L846.131 1063.01Z" stroke="white" stroke-dasharray="72 72" />
          <path d="M781.761 944.055L828.861 976.79L829.157 976.447L851.935 992.277L853.653 969.191L854.187 969.288L857.739 921.549L857.205 921.453L858.923 898.366L834.427 905.622L834.189 905.182L783.537 920.186L783.775 920.626L759.279 927.882L782.057 943.712L781.761 944.055Z" stroke="white" stroke-dasharray="72 72" />
          <path d="M361.594 1022.85L365.146 975.111L365.681 975.207L367.399 952.121L390.176 967.952L390.473 967.609L437.572 1000.34L437.276 1000.69L460.054 1016.52L435.558 1023.77L435.796 1024.21L385.144 1039.22L384.906 1038.78L360.411 1046.03L362.128 1022.95L361.594 1022.85Z" stroke="white" stroke-dasharray="72 72" />
          <path d="M860.18 875.161L863.732 827.423L864.267 827.519L865.984 804.433L888.762 820.264L889.058 819.921L936.158 852.655L935.862 852.998L958.64 868.829L934.144 876.084L934.382 876.524L883.73 891.528L883.492 891.088L858.997 898.344L860.714 875.258L860.18 875.161Z" stroke="white" stroke-dasharray="72 72" />
          <path d="M945.848 1033.47L949.4 985.729L949.935 985.826L951.652 962.74L974.43 978.57L974.726 978.227L1021.83 1010.96L1021.53 1011.3L1044.31 1027.14L1019.81 1034.39L1020.05 1034.83L969.398 1049.83L969.16 1049.39L944.664 1056.65L946.382 1033.56L945.848 1033.47Z" stroke="white" stroke-dasharray="72 72" />
          <path d="M382.892 1062.21L429.992 1094.94L430.288 1094.6L453.066 1110.43L454.784 1087.34L455.318 1087.44L458.87 1039.7L458.336 1039.6L460.054 1016.52L435.558 1023.77L435.32 1023.33L384.668 1038.34L384.906 1038.78L360.41 1046.03L383.188 1061.86L382.892 1062.21Z" stroke="white" stroke-dasharray="72 72" />
          <path d="M881.478 914.518L928.578 947.252L928.874 946.909L951.652 962.74L953.37 939.653L953.904 939.75L957.456 892.012L956.922 891.915L958.64 868.828L934.144 876.084L933.906 875.645L883.254 890.648L883.492 891.088L858.997 898.344L881.774 914.175L881.478 914.518Z" stroke="white" stroke-dasharray="72 72" />
          <path d="M461.312 993.311L464.864 945.573L465.398 945.67L467.116 922.583L489.894 938.414L490.19 938.071L537.29 970.805L536.994 971.148L559.771 986.979L535.276 994.235L535.514 994.675L484.862 1009.68L484.624 1009.24L460.128 1016.49L461.846 993.408L461.312 993.311Z" stroke="white" stroke-dasharray="72 72" />
          <path d="M959.898 845.623L963.45 797.885L963.984 797.982L965.702 774.895L988.48 790.726L988.776 790.383L1035.88 823.117L1035.58 823.46L1058.36 839.291L1033.86 846.547L1034.1 846.987L983.447 861.99L983.209 861.551L958.714 868.807L960.432 845.72L959.898 845.623Z" stroke="white" stroke-dasharray="72 72" />
          <path d="M1045.57 1003.93L1049.12 956.192L1049.65 956.289L1051.37 933.202L1074.15 949.033L1074.44 948.69L1121.54 981.424L1121.25 981.767L1144.03 997.598L1119.53 1004.85L1119.77 1005.29L1069.12 1020.3L1068.88 1019.86L1044.38 1027.11L1046.1 1004.03L1045.57 1003.93Z" stroke="white" stroke-dasharray="72 72" />
          <path d="M482.61 1032.67L529.71 1065.4L530.006 1065.06L552.784 1080.89L554.501 1057.8L555.036 1057.9L558.588 1010.16L558.054 1010.07L559.771 986.979L535.276 994.235L535.038 993.795L484.386 1008.8L484.624 1009.24L460.128 1016.49L482.906 1032.33L482.61 1032.67Z" stroke="white" stroke-dasharray="72 72" />
          <path d="M981.196 884.98L1028.3 917.714L1028.59 917.372L1051.37 933.202L1053.09 910.116L1053.62 910.212L1057.17 862.474L1056.64 862.377L1058.36 839.291L1033.86 846.547L1033.62 846.107L982.972 861.111L983.21 861.551L958.714 868.807L981.492 884.637L981.196 884.98Z" stroke="white" stroke-dasharray="72 72" />
          <path d="M1066.86 1043.29L1113.96 1076.02L1114.26 1075.68L1137.04 1091.51L1138.75 1068.42L1139.29 1068.52L1142.84 1020.78L1142.31 1020.68L1144.02 997.598L1119.53 1004.85L1119.29 1004.41L1068.64 1019.42L1068.88 1019.86L1044.38 1027.11L1067.16 1042.94L1066.86 1043.29Z" stroke="white" stroke-dasharray="72 72" />
          <path d="M561.029 963.774L564.581 916.035L565.115 916.132L566.833 893.046L589.611 908.876L589.907 908.533L637.007 941.268L636.711 941.611L659.489 957.441L634.993 964.697L635.231 965.137L584.579 980.141L584.341 979.701L559.845 986.957L561.563 963.871L561.029 963.774Z" stroke="white" stroke-dasharray="72 72" />
          <path d="M1059.61 816.086L1063.17 768.347L1063.7 768.444L1065.42 745.358L1088.2 761.188L1088.49 760.845L1135.59 793.58L1135.3 793.923L1158.07 809.753L1133.58 817.009L1133.82 817.449L1083.16 832.453L1082.93 832.013L1058.43 839.269L1060.15 816.183L1059.61 816.086Z" stroke="white" stroke-dasharray="72 72" />
          <path d="M582.326 1003.13L629.426 1035.86L629.723 1035.52L652.5 1051.35L654.218 1028.27L654.752 1028.36L658.305 980.625L657.77 980.528L659.488 957.441L634.993 964.697L634.755 964.257L584.103 979.261L584.34 979.701L559.845 986.957L582.623 1002.79L582.326 1003.13Z" stroke="white" stroke-dasharray="72 72" />
          <path d="M1080.91 855.442L1128.01 888.177L1128.31 887.834L1151.09 903.664L1152.8 880.578L1153.34 880.675L1156.89 832.937L1156.36 832.84L1158.07 809.753L1133.58 817.009L1133.34 816.569L1082.69 831.573L1082.93 832.013L1058.43 839.269L1081.21 855.099L1080.91 855.442Z" stroke="white" stroke-dasharray="72 72" />
          <path d="M266.46 1004.85L262.908 1052.59L262.374 1052.49L260.656 1075.58L237.878 1059.75L237.582 1060.09L190.482 1027.36L190.778 1027.02L168.001 1011.19L192.496 1003.93L192.258 1003.49L242.91 988.486L243.148 988.925L267.644 981.669L265.926 1004.76L266.46 1004.85Z" stroke="white" stroke-dasharray="72 72" />
          <path d="M765.047 857.165L761.495 904.903L760.96 904.806L759.243 927.893L736.465 912.062L736.169 912.405L689.069 879.671L689.365 879.328L666.587 863.497L691.083 856.241L690.845 855.801L741.497 840.798L741.735 841.237L766.231 833.981L764.513 857.068L765.047 857.165Z" stroke="white" stroke-dasharray="72 72" />
          <path d="M850.714 1015.47L847.162 1063.21L846.628 1063.11L844.91 1086.2L822.132 1070.37L821.836 1070.71L774.736 1037.98L775.032 1037.63L752.255 1021.8L776.75 1014.55L776.512 1014.11L827.164 999.105L827.402 999.544L851.898 992.288L850.18 1015.37L850.714 1015.47Z" stroke="white" stroke-dasharray="72 72" />
          <path d="M829.417 976.115L782.317 943.381L782.021 943.723L759.243 927.893L757.525 950.979L756.991 950.882L753.439 998.621L753.973 998.718L752.255 1021.8L776.751 1014.55L776.989 1014.99L827.641 999.984L827.403 999.544L851.898 992.288L829.121 976.458L829.417 976.115Z" stroke="white" stroke-dasharray="72 72" />
          <path d="M366.178 975.315L362.625 1023.05L362.091 1022.96L360.373 1046.04L337.596 1030.21L337.299 1030.56L290.2 997.821L290.496 997.478L267.718 981.648L292.214 974.392L291.976 973.952L342.628 958.948L342.866 959.388L367.361 952.132L365.644 975.218L366.178 975.315Z" stroke="white" stroke-dasharray="72 72" />
          <path d="M864.764 827.627L861.212 875.365L860.678 875.269L858.96 898.355L836.182 882.525L835.886 882.867L788.786 850.133L789.082 849.79L766.304 833.96L790.8 826.704L790.562 826.264L841.214 811.26L841.452 811.7L865.948 804.444L864.23 827.53L864.764 827.627Z" stroke="white" stroke-dasharray="72 72" />
          <path d="M950.432 985.934L946.879 1033.67L946.345 1033.58L944.627 1056.66L921.85 1040.83L921.553 1041.17L874.453 1008.44L874.75 1008.1L851.972 992.266L876.468 985.01L876.23 984.571L926.882 969.567L927.12 970.007L951.615 962.751L949.897 985.837L950.432 985.934Z" stroke="white" stroke-dasharray="72 72" />
          <path d="M929.134 946.577L882.034 913.843L881.737 914.186L858.96 898.355L857.242 921.442L856.708 921.345L853.155 969.083L853.69 969.18L851.972 992.266L876.467 985.01L876.705 985.45L927.357 970.446L927.119 970.007L951.615 962.751L928.837 946.92L929.134 946.577Z" stroke="white" stroke-dasharray="72 72" />
          <path d="M465.895 945.778L462.343 993.516L461.809 993.419L460.091 1016.51L437.313 1000.67L437.017 1001.02L389.917 968.283L390.213 967.941L367.435 952.11L391.931 944.854L391.693 944.414L442.345 929.41L442.583 929.85L467.079 922.594L465.361 945.681L465.895 945.778Z" stroke="white" stroke-dasharray="72 72" />
          <path d="M964.481 798.09L960.929 845.828L960.395 845.731L958.677 868.818L935.899 852.987L935.603 853.33L888.503 820.595L888.799 820.253L866.022 804.422L890.517 797.166L890.279 796.726L940.931 781.722L941.169 782.162L965.665 774.906L963.947 797.993L964.481 798.09Z" stroke="white" stroke-dasharray="72 72" />
          <path d="M1050.15 956.397L1046.6 1004.13L1046.06 1004.04L1044.34 1027.12L1021.57 1011.29L1021.27 1011.64L974.171 978.902L974.467 978.559L951.689 962.729L976.185 955.473L975.947 955.033L1026.6 940.029L1026.84 940.469L1051.33 933.213L1049.61 956.3L1050.15 956.397Z" stroke="white" stroke-dasharray="72 72" />
          <path d="M530.265 1064.73L483.165 1031.99L482.869 1032.34L460.091 1016.51L458.373 1039.59L457.839 1039.5L454.287 1087.23L454.821 1087.33L453.103 1110.42L477.599 1103.16L477.837 1103.6L528.489 1088.6L528.251 1088.16L552.747 1080.9L529.969 1065.07L530.265 1064.73Z" stroke="white" stroke-dasharray="72 72" />
          <path d="M1028.85 917.04L981.751 884.305L981.455 884.648L958.677 868.818L956.96 891.904L956.425 891.807L952.873 939.545L953.407 939.642L951.69 962.729L976.185 955.473L976.423 955.913L1027.08 940.909L1026.84 940.469L1051.33 933.213L1028.56 917.383L1028.85 917.04Z" stroke="white" stroke-dasharray="72 72" />
          <path d="M1114.52 1075.35L1067.42 1042.61L1067.12 1042.95L1044.34 1027.12L1042.63 1050.21L1042.09 1050.11L1038.54 1097.85L1039.07 1097.95L1037.36 1121.04L1061.85 1113.78L1062.09 1114.22L1112.74 1099.22L1112.5 1098.78L1137 1091.52L1114.22 1075.69L1114.52 1075.35Z" stroke="white" stroke-dasharray="72 72" />
          <path d="M565.612 916.24L562.06 963.978L561.526 963.881L559.808 986.968L537.03 971.137L536.734 971.48L489.634 938.746L489.93 938.403L467.153 922.572L491.648 915.316L491.41 914.877L542.062 899.873L542.3 900.313L566.796 893.057L565.078 916.143L565.612 916.24Z" stroke="white" stroke-dasharray="72 72" />
          <path d="M1064.2 768.552L1060.65 816.29L1060.11 816.193L1058.39 839.28L1035.62 823.449L1035.32 823.792L988.221 791.058L988.517 790.715L965.739 774.884L990.235 767.628L989.997 767.189L1040.65 752.185L1040.89 752.625L1065.38 745.369L1063.66 768.455L1064.2 768.552Z" stroke="white" stroke-dasharray="72 72" />
          <path d="M1149.87 926.859L1146.31 974.597L1145.78 974.5L1144.06 997.587L1121.28 981.756L1120.99 982.099L1073.89 949.365L1074.18 949.022L1051.41 933.191L1075.9 925.935L1075.66 925.496L1126.32 910.492L1126.55 910.931L1151.05 903.676L1149.33 926.762L1149.87 926.859Z" stroke="white" stroke-dasharray="72 72" />
          <path d="M629.982 1035.19L582.882 1002.46L582.586 1002.8L559.808 986.968L558.09 1010.05L557.556 1009.96L554.004 1057.7L554.538 1057.79L552.82 1080.88L577.316 1073.62L577.554 1074.06L628.206 1059.06L627.968 1058.62L652.464 1051.36L629.686 1035.53L629.982 1035.19Z" stroke="white" stroke-dasharray="72 72" />
          <path d="M1128.57 887.502L1081.47 854.768L1081.17 855.11L1058.39 839.28L1056.68 862.366L1056.14 862.27L1052.59 910.008L1053.12 910.105L1051.41 933.191L1075.9 925.935L1076.14 926.375L1126.79 911.371L1126.55 910.931L1151.05 903.675L1128.27 887.845L1128.57 887.502Z" stroke="white" stroke-dasharray="72 72" />
          <path d="M665.33 886.702L661.777 934.441L661.243 934.344L659.525 957.43L636.748 941.6L636.451 941.943L589.351 909.208L589.648 908.865L566.87 893.035L591.365 885.779L591.128 885.339L641.78 870.335L642.018 870.775L666.513 863.519L664.795 886.606L665.33 886.702Z" stroke="white" stroke-dasharray="72 72" />
          <path d="M1163.92 739.014L1160.36 786.753L1159.83 786.656L1158.11 809.742L1135.33 793.912L1135.04 794.255L1087.94 761.52L1088.23 761.177L1065.46 745.347L1089.95 738.091L1089.71 737.651L1140.37 722.647L1140.6 723.087L1165.1 715.831L1163.38 738.918L1163.92 739.014Z" stroke="white" stroke-dasharray="72 72" />
          <path d="M729.699 1005.65L682.6 972.918L682.303 973.261L659.526 957.43L657.808 980.517L657.274 980.42L653.721 1028.16L654.255 1028.26L652.538 1051.34L677.033 1044.09L677.271 1044.53L727.923 1029.52L727.685 1029.08L752.181 1021.83L729.403 1006L729.699 1005.65Z" stroke="white" stroke-dasharray="72 72" />
        </g>
      </g>
    </g>
    <path d="M1020.23 615.365L927.573 550.969L920.585 644.88L1020.23 615.365Z" stroke="#4437D0" />
  </g>
  <defs>
    <radialGradient id="paint0_radial_202_975" cx="0" cy="0" r="1" gradientUnits="userSpaceOnUse" gradientTransform="translate(626 415) rotate(90.2477) scale(809.508 538.674)">
      <stop stop-color="#C4C4C4" />
      <stop offset="1" stop-color="#C4C4C4" stop-opacity="0" />
    </radialGradient>
    <clipPath id="clip0_202_975">
      <rect width="1159" height="1017" fill="white" />
    </clipPath>
  </defs>
</svg>