<svg width="64" height="64" viewBox="0 0 64 64" fill="none" xmlns="http://www.w3.org/2000/svg">
<rect width="64" height="64" rx="8" fill="#4636F5"/>
<path d="M32 42C27.439 42 24 40.065 24 37.5V26H24.047C24.3967 24.7003 25.3349 23.6393 26.582 23.133C28.2782 22.3478 30.1313 21.9603 32 22C36.561 22 40 23.935 40 26.5C39.999 26.6678 39.9829 26.8351 39.952 27H40V37.5C40 40.065 36.561 42 32 42ZM25.777 29.394V37.5C25.777 38.519 28.2 40 32 40C35.8 40 38.222 38.519 38.222 37.5V29.394C36.3471 30.5202 34.1857 31.0781 32 31C29.814 31.078 27.6523 30.5201 25.777 29.394ZM32 24C28.2 24 25.777 25.481 25.777 26.5C25.777 27.519 28.2 29 32 29C35.8 29 38.222 27.519 38.222 26.5C38.222 25.481 35.8 24 32 24Z" fill="white"/>
</svg>
