<svg xmlns="http://www.w3.org/2000/svg" width="580" height="440" fill="none">
  <g clip-path="url(#a)" opacity=".75">
    <path fill="#fff" d="M388.677 289.127H224.215v136.06h164.462v-136.06Z" opacity=".5"/>
    <path fill="#080D19" stroke="#fff" stroke-width="2" d="M387.032 288.579H223.667v134.962h163.365V288.579Z"/>
    <path fill="#fff" d="M320.86 281.834a.546.546 0 0 0 .775 0l3.489-3.491a.55.55 0 0 0-.775-.776l-3.101 3.104-3.102-3.104a.548.548 0 1 0-.775.776l3.489 3.491Zm-.161-16.846v16.458h1.097v-16.458h-1.097ZM290.161 281.834a.546.546 0 0 0 .775 0l3.489-3.491a.55.55 0 0 0-.776-.776l-3.101 3.104-3.101-3.104a.548.548 0 1 0-.775.776l3.489 3.491ZM290 264.988v16.458h1.096v-16.458H290ZM183.261 91.782a.549.549 0 0 0 0 .776l3.489 3.49a.549.549 0 0 0 .775-.776l-3.101-3.102 3.101-3.104a.549.549 0 0 0-.775-.776l-3.489 3.492Zm33.667.776a.547.547 0 0 0 0-.776l-3.489-3.492a.547.547 0 1 0-.775.776l3.102 3.104-3.102 3.103a.549.549 0 0 0 .775.776l3.489-3.492Zm-33.28.16h32.893v-1.097h-32.893v1.097ZM396.512 91.782a.549.549 0 0 0 0 .776l3.489 3.49a.549.549 0 0 0 .775-.776l-3.101-3.102 3.101-3.104a.549.549 0 0 0-.775-.776l-3.489 3.492Zm33.668.776a.549.549 0 0 0 0-.776l-3.489-3.492a.547.547 0 1 0-.775.776l3.101 3.104-3.101 3.103a.547.547 0 1 0 .775.776l3.489-3.492Zm-33.28.16h32.892v-1.097H396.9v1.097Z"/>
    <path fill="#fff" d="M423.922 332.63a.548.548 0 0 0 0 .775l3.489 3.492a.548.548 0 1 0 .775-.776l-3.101-3.104 3.101-3.103a.547.547 0 1 0-.775-.776l-3.489 3.492Zm33.668.775a.548.548 0 0 0 0-.775l-3.489-3.492a.548.548 0 1 0-.775.776l3.101 3.103-3.101 3.104a.55.55 0 0 0 .775.776l3.489-3.492Zm-33.28.161h32.892v-1.097H424.31v1.097Z" opacity=".5"/>
    <path fill="#fff" d="M183.261 121.408a.548.548 0 0 0 0 .775l3.489 3.492a.548.548 0 1 0 .775-.776l-3.101-3.103 3.101-3.104a.55.55 0 0 0-.775-.776l-3.489 3.492Zm33.667.775a.546.546 0 0 0 0-.775l-3.489-3.492a.548.548 0 1 0-.775.776l3.102 3.104-3.102 3.103a.55.55 0 0 0 .775.776l3.489-3.492Zm-33.28.161h32.893v-1.097h-32.893v1.097Z"/>
    <path fill="#fff" d="M99.934 190.213a.546.546 0 0 0 .775 0l3.489-3.491a.55.55 0 0 0-.775-.776l-3.102 3.104-3.1-3.104a.548.548 0 1 0-.776.776l3.489 3.491Zm-.16-22.333v21.945h1.096V167.88h-1.097ZM66.73 233.834v4.634h.385c.558 0 .957-.175 1.194-.526.238-.353.357-.953.357-1.798 0-.839-.119-1.434-.357-1.784-.237-.351-.636-.526-1.194-.526h-.386Zm-1.422-1.282h1.522c1.176 0 2.022.281 2.54.843.516.56.775 1.476.775 2.749 0 1.276-.259 2.197-.776 2.763-.517.562-1.363.844-2.539.844h-1.522v-7.199Zm10.595 6.934a5.329 5.329 0 0 1-2.082.405c-.902 0-1.593-.242-2.071-.724-.476-.485-.714-1.183-.714-2.093 0-.88.23-1.576.69-2.088.459-.51 1.085-.766 1.879-.766.8 0 1.419.238 1.86.714.443.472.664 1.139.664 2.001v.573h-3.657c.003.425.129.742.376.951.247.208.617.313 1.108.313.325 0 .644-.047.959-.14.315-.093.644-.241.988-.444v1.298Zm-1.195-3.039c-.006-.372-.103-.654-.29-.843-.182-.193-.454-.29-.813-.29-.325 0-.584.1-.776.299-.193.196-.307.476-.342.839l2.22-.005Zm5.204.767c-.527 0-.895.068-1.104.203-.209.135-.313.366-.313.694 0 .244.072.439.217.584.144.144.34.217.587.217.373 0 .662-.14.868-.42.205-.283.308-.676.308-1.181v-.097h-.563Zm1.965-.544v3.081h-1.402v-.603c-.17.238-.388.421-.655.549a2 2 0 0 1-.882.194c-.613 0-1.092-.163-1.436-.488-.34-.324-.51-.778-.51-1.359 0-.631.203-1.095.612-1.394.408-.302 1.039-.453 1.893-.453h.978v-.236c0-.229-.083-.401-.25-.517-.164-.118-.406-.178-.728-.178-.337 0-.665.043-.983.13a4.512 4.512 0 0 0-.987.406v-1.206c.31-.129.627-.224.948-.284a5.47 5.47 0 0 1 1.022-.092c.877 0 1.492.178 1.846.535.356.357.534.995.534 1.915Zm4.419-1.553v-2.869h1.406v7.503h-1.406v-.801c-.151.312-.347.547-.588.704-.238.158-.52.237-.843.237-.617 0-1.096-.248-1.436-.743-.34-.495-.51-1.192-.51-2.093 0-.913.17-1.613.514-2.102.347-.489.84-.733 1.48-.733.289 0 .548.076.776.226.23.149.433.372.607.671Zm-1.966 1.948c0 .521.086.929.26 1.225.173.295.413.443.718.443s.546-.148.723-.443c.176-.296.265-.704.265-1.225 0-.521-.089-.929-.265-1.225-.177-.296-.418-.444-.723-.444s-.545.148-.718.444c-.174.296-.26.704-.26 1.225Zm4.591-.805h5.108v1.297H88.92v-1.297Zm7.32 1.239v-4.166h-1.432v-1.085h2.843v5.251c0 .424.066.725.198.901.131.177.355.265.67.265h1.127v1.086h-1.523c-.67 0-1.153-.174-1.445-.521-.293-.347-.438-.924-.438-1.731Zm9.39 1.987a5.318 5.318 0 0 1-2.081.405c-.903 0-1.594-.242-2.072-.724-.476-.485-.713-1.183-.713-2.093 0-.88.23-1.576.688-2.088.46-.51 1.086-.766 1.88-.766.8 0 1.42.238 1.86.714.443.472.665 1.139.665 2.001v.573h-3.657c.003.425.128.742.375.951.247.208.617.313 1.109.313.324 0 .644-.047.958-.14.315-.093.645-.241.988-.444v1.298Zm-1.195-3.039c-.006-.372-.103-.654-.289-.843-.183-.193-.455-.29-.814-.29-.325 0-.583.1-.776.299-.192.196-.306.476-.342.839l2.221-.005Zm5.156-3.63v1.533h1.845v1.085h-1.845v2.556c0 .24.058.414.173.52.119.103.315.154.588.154h1.084v1.086h-1.185c-.81 0-1.357-.129-1.643-.386-.286-.261-.429-.741-.429-1.442v-2.488h-1.378v-1.085h1.378v-1.533h1.412Zm5.945 0v1.533h1.846v1.085h-1.846v2.556c0 .24.058.414.174.52.119.103.314.154.588.154h1.084v1.086h-1.186c-.809 0-1.357-.129-1.643-.386-.286-.261-.428-.741-.428-1.442v-2.488h-1.378v-1.085h1.378v-1.533h1.411Zm7.931 6.669a5.318 5.318 0 0 1-2.081.405c-.903 0-1.593-.242-2.073-.724-.475-.485-.712-1.183-.712-2.093 0-.88.23-1.576.689-2.088.459-.51 1.085-.766 1.879-.766.799 0 1.419.238 1.86.714.443.472.665 1.139.665 2.001v.573h-3.657c.003.425.128.742.375.951.248.208.617.313 1.109.313.324 0 .644-.047.958-.14.315-.093.645-.241.988-.444v1.298Zm-1.195-3.039c-.006-.372-.103-.654-.289-.843-.183-.193-.454-.29-.814-.29-.325 0-.583.1-.776.299-.193.196-.307.476-.342.839l2.221-.005Zm7.377-.607a1.507 1.507 0 0 0-.545-.318 2.067 2.067 0 0 0-.679-.106c-.299 0-.561.053-.785.159a1.164 1.164 0 0 0-.516.453c-.077.123-.132.27-.164.443a5.27 5.27 0 0 0-.043.792v2.488h-1.412v-5.401h1.412v.839c.138-.309.35-.547.636-.713.286-.171.62-.256 1.002-.256.193 0 .381.024.564.072.186.045.363.113.53.203v1.345Zm5.174-1.321v1.234a3.169 3.169 0 0 0-1.657-.506c-.315 0-.553.047-.713.14a.436.436 0 0 0-.241.405c0 .257.344.466 1.031.627l.053.014.405.097c.514.122.89.319 1.127.593.241.27.361.636.361 1.099 0 .556-.183.974-.549 1.254-.363.276-.91.415-1.643.415-.324 0-.657-.03-.997-.087a7.02 7.02 0 0 1-1.036-.251v-1.234c.312.176.628.311.949.405.325.093.638.139.94.139.331 0 .581-.048.752-.144a.46.46 0 0 0 .255-.42.496.496 0 0 0-.183-.414c-.119-.097-.405-.2-.858-.309l-.39-.087c-.54-.122-.933-.313-1.181-.574-.247-.26-.371-.609-.371-1.046 0-.521.188-.926.564-1.215.376-.289.904-.434 1.585-.434.306 0 .609.026.911.077.305.048.601.122.886.222Z" opacity=".6"/>
    <path fill="#080D19" stroke="#82828F" stroke-width="2" d="M169.395 196.958H31.248a2.742 2.742 0 0 0-2.741 2.743v23.042a2.742 2.742 0 0 0 2.74 2.743h138.148a2.742 2.742 0 0 0 2.741-2.743v-23.042a2.742 2.742 0 0 0-2.741-2.743Z"/>
    <path stroke="#82828F" d="M46.323 196.409v29.626M64.524 196.409v29.626M82.614 196.409v29.626M100.705 196.409v29.626M118.796 196.409v29.626M136.887 196.409v29.626M154.977 196.409v29.626"/>
    <path fill="#fff" d="M174.877 68.579H25.765a3.29 3.29 0 0 0-3.289 3.291v87.232a3.29 3.29 0 0 0 3.29 3.292h149.111a3.29 3.29 0 0 0 3.289-3.292V71.87a3.29 3.29 0 0 0-3.289-3.291Z" opacity=".1"/>
    <path fill="#fff" d="M85.645 153.727a.97.97 0 0 1-.115.019.37.37 0 0 1-.088.01c-.824 0-1.451-.315-1.878-.945-.424-.63-.637-1.56-.637-2.787 0-1.232.212-2.162.637-2.792.427-.63 1.056-.945 1.888-.945.835 0 1.465.315 1.889.945.428.63.64 1.56.64 2.792 0 .845-.1 1.554-.302 2.126-.203.569-.497.975-.882 1.22l.896.877-.974.724-1.074-1.244Zm-.193-6.162c-.362 0-.628.194-.794.583-.168.385-.251 1.011-.251 1.876 0 .861.083 1.486.25 1.875.167.386.433.579.795.579.367 0 .633-.193.8-.579.167-.389.25-1.014.25-1.875 0-.865-.083-1.491-.25-1.876-.167-.389-.433-.583-.8-.583Zm3.749 4.165v-3.515h1.412v3.299c0 .389.055.667.164.834.109.167.29.251.544.251a.665.665 0 0 0 .593-.338c.144-.225.217-.54.217-.945v-3.101h1.411v5.401h-1.411v-.8c-.1.299-.27.53-.511.694a1.482 1.482 0 0 1-.863.246c-.514 0-.903-.171-1.166-.511-.26-.341-.39-.846-.39-1.515Zm10.484 1.621a5.328 5.328 0 0 1-2.081.405c-.903 0-1.593-.242-2.072-.723-.476-.486-.713-1.184-.713-2.093 0-.881.23-1.577.69-2.088.459-.511 1.085-.767 1.878-.767.8 0 1.42.238 1.86.714.443.472.665 1.14.665 2.001v.574h-3.657c.003.424.128.741.376.95.247.208.617.313 1.108.313.324 0 .644-.046.959-.14.314-.093.644-.241.987-.444v1.298Zm-1.195-3.038c-.006-.373-.102-.654-.289-.844-.183-.193-.454-.289-.814-.289-.324 0-.583.1-.776.299-.192.196-.306.475-.342.839l2.221-.005Zm2.602 1.417v-3.515h1.412v3.299c0 .389.055.667.164.834.109.167.291.251.544.251a.665.665 0 0 0 .593-.338c.144-.225.217-.54.217-.945v-3.101h1.411v5.401h-1.411v-.8c-.1.299-.27.53-.511.694a1.482 1.482 0 0 1-.863.246c-.513 0-.902-.171-1.166-.511-.259-.341-.39-.846-.39-1.515Zm10.485 1.621a5.327 5.327 0 0 1-2.082.405c-.902 0-1.593-.242-2.072-.723-.475-.486-.713-1.184-.713-2.093 0-.881.23-1.577.689-2.088.46-.511 1.086-.767 1.879-.767.8 0 1.42.238 1.86.714.443.472.665 1.14.665 2.001v.574h-3.657c.003.424.129.741.376.95.247.208.617.313 1.108.313.324 0 .644-.046.959-.14.315-.093.644-.241.988-.444v1.298Zm-1.195-3.038c-.007-.373-.103-.654-.289-.844-.184-.193-.455-.289-.815-.289-.324 0-.583.1-.775.299-.193.196-.307.475-.342.839l2.221-.005Zm6.605-1.929v1.235a3.139 3.139 0 0 0-.814-.377 2.849 2.849 0 0 0-.843-.13c-.315 0-.553.047-.713.14a.436.436 0 0 0-.241.405c0 .257.344.466 1.031.627l.053.014.405.097c.514.122.89.32 1.127.593.241.27.361.636.361 1.099 0 .557-.183.974-.549 1.254-.363.277-.91.415-1.643.415a5.93 5.93 0 0 1-.997-.087 7.02 7.02 0 0 1-1.036-.251v-1.234c.312.177.628.312.949.405.325.093.638.14.94.14.331 0 .581-.048.752-.145a.458.458 0 0 0 .255-.42.496.496 0 0 0-.183-.414c-.119-.096-.405-.2-.858-.309l-.39-.086c-.54-.123-.933-.314-1.181-.574-.247-.261-.371-.609-.371-1.047 0-.52.188-.926.564-1.215.376-.289.904-.434 1.585-.434.306 0 .609.026.911.078.305.047.601.121.886.221Z"/>
    <path fill="#080D19" stroke="#fff" stroke-width="2" d="M169.395 80.1H31.248a2.742 2.742 0 0 0-2.741 2.743v18.021a2.742 2.742 0 0 0 2.74 2.743h138.148a2.742 2.742 0 0 0 2.741-2.743V82.843a2.742 2.742 0 0 0-2.741-2.743Z"/>
    <path stroke="#fff" d="M46.323 79.551v24.604M64.524 79.551v24.604M82.614 79.551v24.604M100.705 79.551v24.604M118.796 79.551v24.604M136.887 79.551v24.604M154.977 79.551v24.604"/>
    <path fill="#080D19" stroke="#fff" stroke-width="2" d="M169.395 109.261H31.248a2.742 2.742 0 0 0-2.741 2.743v18.021a2.742 2.742 0 0 0 2.74 2.743h138.148a2.742 2.742 0 0 0 2.741-2.743v-18.021a2.742 2.742 0 0 0-2.741-2.743Z"/>
    <path stroke="#fff" d="M46.323 108.712v24.605M64.524 108.712v24.605M82.614 108.712v24.605M100.705 108.712v24.605M118.796 108.712v24.605M136.887 108.712v24.605M154.977 108.712v24.605"/>
    <path fill="#fff" d="M223.667 69.676h166.654v176.658H223.667V69.676Z" opacity=".5"/>
    <path fill="#080D19" stroke="#fff" stroke-width="2" d="M388.677 69.127H223.119v175.561h165.558V69.128Z"/>
    <path fill="#0A0A12" d="M377.713 115.212H235.18a.55.55 0 0 0-.549.549v27.431a.55.55 0 0 0 .549.549h142.533a.549.549 0 0 0 .548-.549v-27.431a.549.549 0 0 0-.548-.549Z"/>
    <path fill="#fff" d="M261.01 132.006v2.816h-1.406v-7.455h1.406v.811c.148-.312.343-.547.584-.704.24-.158.523-.237.847-.237.617 0 1.096.248 1.437.743.34.495.51 1.192.51 2.093 0 .913-.173 1.613-.52 2.102-.344.489-.835.733-1.474.733-.29 0-.55-.074-.781-.222-.228-.151-.429-.378-.603-.68Zm1.966-1.943c0-.521-.086-.929-.26-1.225-.173-.295-.412-.444-.718-.444-.305 0-.546.149-.722.444-.177.296-.266.704-.266 1.225 0 .521.089.929.266 1.225.176.296.417.443.722.443.306 0 .545-.147.718-.443.174-.296.26-.704.26-1.225Zm5.223.169c-.527 0-.894.067-1.103.202-.209.135-.314.367-.314.695 0 .244.073.439.218.583.144.145.34.217.587.217.373 0 .662-.14.868-.419.205-.284.308-.677.308-1.182v-.096h-.564Zm1.966-.545v3.081h-1.402v-.603c-.17.238-.389.421-.656.55-.266.129-.56.193-.881.193-.613 0-1.092-.162-1.436-.487-.34-.325-.511-.778-.511-1.36 0-.63.204-1.094.612-1.393.409-.303 1.039-.454 1.894-.454h.978v-.236c0-.228-.084-.4-.25-.516-.164-.119-.407-.178-.728-.178-.338 0-.665.043-.983.13a4.564 4.564 0 0 0-.988.405v-1.206c.312-.128.628-.223.949-.284a5.48 5.48 0 0 1 1.022-.092c.877 0 1.492.179 1.845.536.357.356.535.994.535 1.914Zm4.033 3.664c-.19.508-.418.878-.684 1.11a1.402 1.402 0 0 1-.964.352h-1.166v-1.075h.574c.288 0 .501-.05.635-.15.135-.097.272-.323.41-.68l.106-.289-2.053-5.252h1.484l1.234 3.506 1.181-3.506h1.484l-2.241 5.984Zm4.385-2.834v-4.167h-1.432v-1.085h2.843v5.252c0 .424.066.724.198.901.132.177.355.265.669.265h1.128v1.085h-1.523c-.671 0-1.153-.173-1.445-.521-.293-.347-.438-.924-.438-1.73Zm7.048-2.132c-.337 0-.602.149-.795.448-.192.296-.288.709-.288 1.24 0 .53.096.945.288 1.243.193.297.458.444.795.444a.903.903 0 0 0 .8-.444c.193-.298.29-.713.29-1.243 0-.531-.097-.944-.29-1.24-.192-.299-.459-.448-.8-.448Zm-2.495 1.688c0-.872.225-1.561.674-2.069.453-.511 1.06-.767 1.821-.767.765 0 1.372.256 1.822.767.453.508.679 1.197.679 2.069 0 .871-.226 1.562-.679 2.073-.45.508-1.057.762-1.822.762-.761 0-1.368-.254-1.821-.762-.449-.511-.674-1.202-.674-2.073Zm8.846.159c-.527 0-.895.067-1.103.202-.209.135-.314.367-.314.695 0 .244.073.439.217.583.144.145.341.217.588.217.373 0 .662-.14.867-.419.206-.284.309-.677.309-1.182v-.096h-.564Zm1.966-.545v3.081h-1.402v-.603a1.71 1.71 0 0 1-.656.55c-.266.129-.56.193-.881.193-.614 0-1.092-.162-1.436-.487-.34-.325-.511-.778-.511-1.36 0-.63.204-1.094.612-1.393.408-.303 1.039-.454 1.893-.454h.979v-.236c0-.228-.084-.4-.251-.516-.164-.119-.406-.178-.728-.178a3.71 3.71 0 0 0-.983.13 4.578 4.578 0 0 0-.987.405v-1.206a4.89 4.89 0 0 1 .949-.284 5.468 5.468 0 0 1 1.021-.092c.877 0 1.493.179 1.846.536.356.356.535.994.535 1.914Zm4.418-1.553v-2.869h1.407v7.503h-1.407v-.8c-.151.311-.347.546-.588.704a1.494 1.494 0 0 1-.843.236c-.617 0-1.095-.247-1.436-.743-.34-.495-.51-1.192-.51-2.092 0-.913.171-1.614.515-2.103.347-.488.84-.733 1.479-.733.289 0 .548.076.776.227.231.148.433.371.607.67Zm-1.966 1.948c0 .521.087.929.26 1.225.174.296.413.444.718.444.306 0 .546-.148.723-.444.177-.296.265-.704.265-1.225 0-.521-.088-.929-.265-1.225-.177-.295-.417-.443-.723-.443-.305 0-.544.148-.718.443-.173.296-.26.704-.26 1.225Zm15.158 2.411a2.916 2.916 0 0 1-.766.309c-.273.07-.567.106-.882.106-.831 0-1.482-.251-1.951-.752-.469-.502-.703-1.196-.703-2.083 0-.891.236-1.587.708-2.088.472-.505 1.124-.758 1.956-.758a3.4 3.4 0 0 1 1.638.415v1.293a2.266 2.266 0 0 0-.679-.406 2.063 2.063 0 0 0-.762-.144c-.459 0-.812.146-1.059.439-.248.292-.371.709-.371 1.249 0 .54.123.954.371 1.243.247.29.6.435 1.059.435.273 0 .529-.046.767-.136.237-.093.462-.232.674-.419v1.297Zm5.994-3.231v3.506h-1.402v-3.288c0-.389-.056-.668-.168-.835-.11-.167-.29-.251-.54-.251a.677.677 0 0 0-.602.343c-.145.225-.217.539-.217.94v3.091h-1.403v-7.503h1.403v2.913c.099-.299.269-.531.511-.695.24-.164.531-.246.872-.246.51 0 .896.17 1.156.512.26.337.39.842.39 1.513Zm6.095 3.241a5.34 5.34 0 0 1-2.081.405c-.903 0-1.593-.241-2.072-.723-.475-.486-.713-1.184-.713-2.093 0-.881.229-1.577.689-2.088.459-.511 1.085-.767 1.879-.767.8 0 1.419.238 1.86.714.443.472.665 1.14.665 2.001v.574h-3.657c.003.424.128.741.376.95.247.209.616.313 1.107.313.325 0 .645-.046.959-.14.315-.093.644-.241.988-.443v1.297Zm-1.195-3.038c-.006-.373-.102-.654-.289-.844-.183-.193-.454-.289-.814-.289-.324 0-.583.1-.776.299-.193.196-.307.476-.342.839l2.221-.005Zm6.943 3.028a2.916 2.916 0 0 1-.766.309c-.273.07-.567.106-.882.106-.831 0-1.482-.251-1.951-.752-.469-.502-.703-1.196-.703-2.083 0-.891.236-1.587.708-2.088.472-.505 1.124-.758 1.956-.758a3.414 3.414 0 0 1 1.638.415v1.293a2.266 2.266 0 0 0-.679-.406 2.063 2.063 0 0 0-.762-.144c-.459 0-.812.146-1.059.439-.248.292-.371.709-.371 1.249 0 .54.123.954.371 1.243.247.29.6.435 1.059.435.273 0 .529-.046.767-.136.237-.093.462-.232.674-.419v1.297Zm1.672-7.228h1.412v3.94l1.696-1.838h1.71l-2.042 2.016 2.158 3.385h-1.561l-1.479-2.526-.482.462v2.064h-1.412v-7.503Zm6.172 2.102h2.795v4.316h1.754v1.085h-4.925v-1.085h1.759v-3.23h-1.383v-1.086Zm1.383-2.628h1.412v1.65h-1.412v-1.65Zm8.658 4.523v3.506h-1.402v-3.288c0-.393-.056-.672-.168-.839-.109-.171-.289-.256-.54-.256-.254 0-.454.114-.602.342-.145.229-.217.545-.217.95v3.091h-1.402v-5.401h1.402v.811c.099-.299.27-.531.511-.695.241-.164.531-.246.872-.246.511 0 .896.17 1.156.512.26.337.39.842.39 1.513Zm4.655.719c0-.482-.092-.868-.275-1.157-.183-.293-.424-.439-.723-.439-.295 0-.534.144-.717.434-.18.289-.271.677-.271 1.162 0 .489.091.878.271 1.167.183.289.422.434.717.434.299 0 .54-.145.723-.434.183-.292.275-.681.275-1.167Zm1.412 2.382c0 .865-.197 1.489-.589 1.871-.388.386-1.021.579-1.897.579-.296 0-.589-.023-.878-.068a6.095 6.095 0 0 1-.881-.198v-1.297a3.388 3.388 0 0 0 1.667.434c.398 0 .692-.095.882-.284.189-.186.284-.479.284-.878v-.583a1.371 1.371 0 0 1-.549.573c-.228.126-.506.189-.834.189-.617 0-1.106-.241-1.47-.723-.363-.483-.544-1.137-.544-1.963 0-.855.181-1.533.544-2.035.364-.502.85-.753 1.461-.753.308 0 .582.073.823.218.241.145.431.349.569.612v-.69h1.412v4.996Z"/>
    <path stroke="#fff" stroke-width="2" d="M377.713 115.212H235.18a.55.55 0 0 0-.549.549v27.431a.55.55 0 0 0 .549.549h142.533a.549.549 0 0 0 .548-.549v-27.431a.549.549 0 0 0-.548-.549Z"/>
    <path fill="#0A0A12" d="M377.713 80.1H235.18a.549.549 0 0 0-.549.548v27.432c0 .303.246.548.549.548h142.533a.548.548 0 0 0 .548-.548V80.648a.549.549 0 0 0-.548-.548Z"/>
    <path fill="#fff" d="M274.81 92.255h2.795v4.316h1.753v1.085h-4.924V96.57h1.758v-3.23h-1.382v-1.086Zm1.382-2.628h1.413v1.65h-1.413v-1.65Zm7.31 3.395v-2.87h1.407v7.504h-1.407v-.8c-.151.311-.347.546-.588.703a1.492 1.492 0 0 1-.843.237c-.617 0-1.096-.248-1.436-.743-.34-.495-.511-1.192-.511-2.093 0-.912.172-1.613.516-2.102.347-.489.84-.733 1.479-.733.289 0 .548.076.776.227.231.148.433.371.607.67Zm-1.966 1.948c0 .521.087.93.26 1.225.174.296.413.444.718.444s.546-.148.723-.444c.176-.296.265-.704.265-1.225 0-.52-.089-.93-.265-1.225-.177-.296-.418-.444-.723-.444s-.544.148-.718.444c-.173.296-.26.704-.26 1.225Zm9.41 2.42a5.373 5.373 0 0 1-2.081.406c-.903 0-1.594-.242-2.073-.723-.475-.486-.712-1.184-.712-2.093 0-.88.229-1.577.688-2.088.46-.511 1.086-.767 1.88-.767.799 0 1.419.238 1.86.714.443.472.665 1.14.665 2v.575h-3.657c.003.424.128.74.375.95.247.208.617.313 1.108.313.325 0 .645-.047.959-.14.315-.093.644-.241.988-.444v1.298Zm-1.195-3.037c-.006-.373-.103-.654-.289-.844-.183-.193-.455-.29-.814-.29-.325 0-.583.1-.776.3-.193.195-.307.475-.342.838l2.221-.004Zm5.155-1.557c.107-.229.242-.398.405-.507.164-.109.365-.164.602-.164.466 0 .788.16.964.482.18.322.27.99.27 2.006v3.043h-1.156v-3.467c0-.402-.031-.67-.092-.805s-.172-.203-.333-.203c-.16 0-.273.07-.337.208-.064.138-.096.404-.096.8v3.467h-1.142v-3.467c0-.395-.032-.662-.097-.8-.064-.139-.176-.208-.337-.208-.16 0-.271.068-.332.203s-.091.403-.091.805v3.467h-1.157v-5.4h1.027v.559c.08-.213.208-.38.385-.502a.997.997 0 0 1 .593-.188c.218 0 .417.066.597.198.18.129.289.286.327.473Zm4.751 4.098v2.816h-1.407v-7.455h1.407v.81c.148-.312.342-.546.583-.703.241-.158.524-.237.848-.237.617 0 1.096.248 1.436.742.341.496.511 1.193.511 2.093 0 .913-.174 1.614-.521 2.103-.343.489-.835.733-1.474.733-.289 0-.549-.074-.78-.222-.228-.151-.429-.378-.603-.68Zm1.966-1.943c0-.521-.087-.93-.26-1.225-.174-.296-.413-.444-.718-.444s-.546.148-.723.444c-.177.296-.265.704-.265 1.225 0 .52.088.929.265 1.225.177.295.418.443.723.443s.544-.148.718-.443c.173-.296.26-.704.26-1.225Zm4.818-1.678c-.337 0-.602.15-.795.448-.193.296-.289.709-.289 1.24 0 .53.096.945.289 1.243.193.297.458.444.795.444a.904.904 0 0 0 .8-.444c.193-.298.289-.713.289-1.243 0-.531-.096-.944-.289-1.24-.192-.299-.459-.448-.8-.448Zm-2.496 1.688c0-.872.225-1.561.675-2.07.453-.51 1.06-.766 1.821-.766.765 0 1.372.256 1.821.767.454.508.68 1.197.68 2.069 0 .87-.226 1.562-.68 2.073-.449.508-1.056.762-1.821.762-.761 0-1.368-.254-1.821-.762-.45-.511-.675-1.202-.675-2.074Zm8.798-4.24v1.534h1.846v1.085h-1.846v2.556c0 .24.058.415.174.52.119.104.315.155.588.155h1.084v1.085h-1.186c-.809 0-1.356-.129-1.643-.386-.285-.26-.428-.741-.428-1.442V93.34h-1.378v-1.085h1.378v-1.533h1.411Zm7.931 6.67a5.387 5.387 0 0 1-1.002.303c-.34.068-.7.102-1.079.102-.903 0-1.593-.242-2.072-.723-.475-.486-.713-1.184-.713-2.093 0-.88.229-1.577.689-2.088.459-.511 1.085-.767 1.879-.767.8 0 1.42.238 1.86.714.443.472.665 1.14.665 2v.575h-3.657c.003.424.128.74.376.95.247.208.616.313 1.108.313.324 0 .644-.047.958-.14.316-.093.644-.241.988-.444v1.298Zm-1.195-3.038c-.006-.373-.102-.654-.289-.844-.183-.193-.454-.29-.814-.29-.324 0-.583.1-.776.3-.193.195-.307.475-.342.838l2.221-.004Zm6.991-.203v3.506h-1.401v-3.289c0-.392-.057-.672-.169-.839-.109-.17-.289-.255-.54-.255-.254 0-.454.114-.602.342-.145.228-.217.545-.217.95v3.09h-1.402v-5.4h1.402v.81c.1-.299.27-.53.511-.694.241-.164.531-.246.872-.246.511 0 .896.17 1.156.511.26.338.39.843.39 1.514Zm5.898 3.231c-.237.138-.493.24-.766.309-.273.07-.567.106-.882.106-.832 0-1.482-.251-1.951-.752-.469-.502-.703-1.196-.703-2.084 0-.89.235-1.586.708-2.088.472-.504 1.124-.757 1.956-.757.289 0 .567.034.833.102.27.067.538.171.805.313v1.293a2.255 2.255 0 0 0-1.441-.55c-.459 0-.812.146-1.059.439-.248.292-.372.709-.372 1.248 0 .54.124.955.372 1.244.247.29.6.435 1.059.435.273 0 .529-.046.767-.136.237-.093.462-.232.674-.419v1.297Zm4.259.858c-.189.508-.417.878-.684 1.11a1.396 1.396 0 0 1-.963.352h-1.166v-1.076h.573c.289 0 .501-.05.636-.15.135-.096.271-.323.409-.68l.106-.288-2.052-5.252h1.484l1.233 3.506 1.181-3.506h1.484l-2.241 5.984Z"/>
    <path stroke="#fff" stroke-width="2" d="M377.713 80.1H235.18a.549.549 0 0 0-.549.548v27.432c0 .303.246.548.549.548h142.533a.548.548 0 0 0 .548-.548V80.648a.549.549 0 0 0-.548-.548Z"/>
    <path fill="#0A0A12" d="M377.164 150.324H234.631a.549.549 0 0 0-.548.549v27.431c0 .303.246.549.548.549h142.533a.55.55 0 0 0 .549-.549v-27.431a.55.55 0 0 0-.549-.549Z"/>
    <path fill="#fff" d="M269.588 167.615a5.42 5.42 0 0 1-1.002.304 5.59 5.59 0 0 1-1.079.101c-.903 0-1.594-.241-2.073-.723-.475-.485-.712-1.183-.712-2.093 0-.88.229-1.577.689-2.088.459-.511 1.085-.766 1.878-.766.8 0 1.42.238 1.861.713.442.473.664 1.14.664 2.001v.574h-3.657c.004.425.129.741.376.95.248.209.617.314 1.108.314.325 0 .645-.047.959-.14a4.52 4.52 0 0 0 .988-.444v1.297Zm-1.195-3.038c-.007-.373-.103-.654-.289-.844-.183-.192-.455-.289-.815-.289-.324 0-.582.1-.775.299-.193.196-.307.476-.342.839l2.221-.005Zm7.377-.607a1.509 1.509 0 0 0-.545-.319 2.093 2.093 0 0 0-.679-.105c-.299 0-.561.052-.786.159a1.16 1.16 0 0 0-.515.453 1.25 1.25 0 0 0-.164.443 5.255 5.255 0 0 0-.043.791v2.488h-1.412v-5.4h1.412v.839c.138-.309.35-.547.636-.714.285-.17.62-.255 1.002-.255.192 0 .38.024.564.072.186.045.362.112.53.202v1.346Zm5.945 0a1.513 1.513 0 0 0-.544-.319 2.095 2.095 0 0 0-.68-.105c-.298 0-.56.052-.785.159a1.163 1.163 0 0 0-.516.453c-.076.122-.131.27-.163.443a5.226 5.226 0 0 0-.044.791v2.488h-1.411v-5.4h1.411v.839a1.53 1.53 0 0 1 .636-.714c.286-.17.62-.255 1.003-.255.192 0 .38.024.563.072.187.045.363.112.53.202v1.346Zm3.368-.473c-.337 0-.602.15-.795.449-.193.295-.289.708-.289 1.239 0 .53.096.945.289 1.244.193.296.458.443.795.443.341 0 .607-.147.8-.443.193-.299.289-.714.289-1.244 0-.531-.096-.944-.289-1.239-.193-.299-.459-.449-.8-.449Zm-2.495 1.688c0-.871.224-1.561.674-2.069.453-.511 1.06-.766 1.821-.766.765 0 1.372.255 1.822.766.453.508.679 1.198.679 2.069s-.226 1.562-.679 2.073c-.45.508-1.057.762-1.822.762-.761 0-1.368-.254-1.821-.762-.45-.511-.674-1.202-.674-2.073Zm11.019-1.215a1.517 1.517 0 0 0-.545-.319 2.093 2.093 0 0 0-.679-.105c-.299 0-.561.052-.786.159a1.16 1.16 0 0 0-.515.453 1.25 1.25 0 0 0-.164.443 5.255 5.255 0 0 0-.043.791v2.488h-1.412v-5.4h1.412v.839c.138-.309.35-.547.636-.714.285-.17.62-.255 1.002-.255.193 0 .38.024.563.072.187.045.363.112.531.202v1.346Zm11.505.405v3.505h-1.401v-3.288c0-.389-.057-.667-.169-.835-.109-.166-.289-.25-.54-.25a.676.676 0 0 0-.602.342c-.145.225-.217.539-.217.94v3.091h-1.402v-7.503h1.402v2.913c.099-.299.27-.531.511-.695.241-.164.531-.245.872-.245.511 0 .896.17 1.156.511.26.337.39.842.39 1.514Zm4.158.969c-.526 0-.894.067-1.103.202-.208.135-.313.367-.313.695 0 .244.072.439.217.583.145.145.34.217.588.217.372 0 .661-.139.867-.419.205-.283.309-.677.309-1.181v-.097h-.565Zm1.966-.545v3.081h-1.401v-.603a1.7 1.7 0 0 1-.656.55c-.267.129-.56.193-.882.193-.613 0-1.092-.162-1.435-.487-.341-.325-.511-.778-.511-1.359 0-.631.204-1.095.611-1.394.409-.302 1.04-.454 1.894-.454h.979v-.236c0-.228-.084-.4-.251-.516-.164-.118-.407-.178-.728-.178-.337 0-.664.043-.982.13a4.524 4.524 0 0 0-.988.405v-1.206a4.87 4.87 0 0 1 .949-.284 5.462 5.462 0 0 1 1.021-.091c.877 0 1.492.178 1.846.535.356.357.534.995.534 1.914Zm5.768-.424v3.505h-1.402v-3.288c0-.392-.056-.672-.169-.839-.109-.171-.289-.256-.54-.256-.254 0-.454.114-.602.343-.144.228-.217.544-.217.949v3.091h-1.402v-5.4h1.402v.81c.1-.299.27-.531.511-.695.241-.164.531-.245.872-.245.511 0 .896.17 1.157.511.259.337.39.842.39 1.514Zm4.597-1.128v-2.87h1.406v7.503h-1.406v-.8c-.152.311-.347.546-.589.704a1.491 1.491 0 0 1-.843.236c-.616 0-1.095-.247-1.436-.743-.34-.495-.51-1.192-.51-2.092 0-.913.172-1.614.515-2.102.347-.489.84-.733 1.479-.733.289 0 .548.075.776.226.232.148.434.372.608.671Zm-1.966 1.947c0 .521.086.93.26 1.225.173.296.412.444.718.444.305 0 .546-.148.722-.444.177-.295.266-.704.266-1.225 0-.52-.089-.929-.266-1.224-.176-.296-.417-.444-.722-.444-.306 0-.545.148-.718.444-.174.295-.26.704-.26 1.224Zm5.964.435v-4.167h-1.431v-1.085h2.843v5.252c0 .424.066.724.198.901.131.177.354.265.67.265h1.127v1.085h-1.523c-.671 0-1.153-.173-1.445-.52-.292-.348-.439-.925-.439-1.731Zm5.146-3.149h2.795v4.315h1.754v1.085h-4.924v-1.085h1.758v-3.23h-1.383v-1.085Zm1.383-2.628h1.412v1.649h-1.412v-1.649Zm8.659 4.523v3.505h-1.403v-3.288c0-.392-.056-.672-.169-.839-.109-.171-.288-.256-.539-.256-.254 0-.454.114-.602.343-.145.228-.217.544-.217.949v3.091h-1.402v-5.4h1.402v.81c.099-.299.27-.531.51-.695.242-.164.532-.245.873-.245.511 0 .896.17 1.156.511.26.337.391.842.391 1.514Zm4.654.718c0-.482-.092-.868-.275-1.157-.183-.293-.424-.439-.723-.439-.295 0-.534.145-.717.434-.18.289-.27.677-.27 1.162 0 .489.09.878.27 1.167.183.289.422.434.717.434.299 0 .54-.145.723-.434.183-.292.275-.681.275-1.167Zm1.412 2.382c0 .865-.196 1.489-.588 1.871-.389.386-1.022.579-1.899.579-.295 0-.587-.022-.877-.067a6.373 6.373 0 0 1-.881-.198v-1.297c.266.147.538.257.814.328.276.07.561.106.853.106.398 0 .692-.095.881-.285.19-.186.285-.479.285-.877v-.584a1.374 1.374 0 0 1-.549.574c-.228.125-.506.188-.834.188-.617 0-1.106-.241-1.469-.723-.363-.483-.545-1.137-.545-1.963 0-.855.182-1.533.545-2.035.363-.502.849-.752 1.459-.752.309 0 .583.072.824.217.241.145.431.349.569.612v-.689h1.412v4.995Z"/>
    <path stroke="#fff" stroke-width="2" d="M377.164 150.324H234.631a.549.549 0 0 0-.548.549v27.431c0 .303.246.549.548.549h142.533a.55.55 0 0 0 .549-.549v-27.431a.55.55 0 0 0-.549-.549Z"/>
    <path fill="#0A0A12" d="M377.164 185.436H234.631a.549.549 0 0 0-.548.549v27.431c0 .303.246.549.548.549h142.533a.55.55 0 0 0 .549-.549v-27.431a.55.55 0 0 0-.549-.549Z"/>
    <path fill="#fff" d="M272.026 197.761v1.234a3.184 3.184 0 0 0-.814-.376 2.828 2.828 0 0 0-.844-.13c-.314 0-.552.046-.712.14a.437.437 0 0 0-.242.405c0 .257.344.466 1.032.627l.053.014.404.097c.515.122.89.319 1.128.593.241.27.361.636.361 1.099 0 .556-.183.974-.549 1.254-.363.276-.911.414-1.643.414-.325 0-.657-.029-.998-.086a7.137 7.137 0 0 1-1.035-.251v-1.234c.311.176.627.311.949.404.324.094.637.14.939.14.331 0 .582-.048.752-.144a.46.46 0 0 0 .255-.42.496.496 0 0 0-.183-.414c-.119-.097-.404-.2-.857-.309l-.391-.087c-.539-.122-.933-.313-1.18-.574-.248-.26-.371-.609-.371-1.046 0-.521.188-.926.564-1.215.376-.289.904-.434 1.585-.434.305 0 .609.026.911.077.304.048.6.122.886.222Zm1.942 3.346v-3.515h1.411v3.298c0 .389.055.667.164.834.109.167.291.251.545.251a.663.663 0 0 0 .592-.338c.145-.225.217-.539.217-.944v-3.101h1.412v5.401h-1.412v-.801c-.099.299-.27.531-.511.695a1.486 1.486 0 0 1-.862.245c-.514 0-.903-.17-1.166-.511-.26-.341-.39-.845-.39-1.514Zm9.27-.801c0-.52-.087-.928-.26-1.224-.174-.296-.413-.444-.718-.444s-.546.148-.723.444c-.177.296-.265.704-.265 1.224 0 .522.088.93.265 1.226.177.295.418.443.723.443s.544-.148.718-.443c.173-.296.26-.704.26-1.226Zm-1.966-1.947c.174-.299.374-.522.603-.671.231-.15.491-.226.78-.226.639 0 1.131.244 1.474.733.347.489.521 1.189.521 2.102 0 .9-.17 1.598-.511 2.093-.34.495-.819.742-1.436.742a1.52 1.52 0 0 1-.848-.236c-.241-.157-.435-.392-.583-.704v.801h-1.407v-7.504h1.407v2.87Zm8.591-.598v1.234a3.184 3.184 0 0 0-.814-.376 2.826 2.826 0 0 0-.843-.13c-.315 0-.553.046-.713.14a.437.437 0 0 0-.242.405c0 .257.344.466 1.031.627l.054.014.404.097c.514.122.89.319 1.128.593.241.27.361.636.361 1.099 0 .556-.183.974-.549 1.254-.363.276-.911.414-1.643.414-.325 0-.657-.029-.997-.086a7.117 7.117 0 0 1-1.036-.251v-1.234c.311.176.627.311.949.404.324.094.637.14.939.14.331 0 .582-.048.752-.144a.46.46 0 0 0 .255-.42.496.496 0 0 0-.183-.414c-.119-.097-.404-.2-.857-.309l-.391-.087c-.54-.122-.933-.313-1.18-.574-.248-.26-.371-.609-.371-1.046 0-.521.188-.926.564-1.215.376-.289.904-.434 1.585-.434.305 0 .608.026.911.077.304.048.6.122.886.222Zm6.283 4.957a2.93 2.93 0 0 1-.766.309c-.273.07-.567.105-.882.105-.832 0-1.482-.25-1.951-.752-.469-.501-.704-1.196-.704-2.083 0-.89.236-1.587.708-2.088.473-.505 1.125-.757 1.957-.757a3.4 3.4 0 0 1 1.638.415v1.292a2.254 2.254 0 0 0-1.441-.549c-.459 0-.812.145-1.06.438-.247.293-.371.709-.371 1.249 0 .54.124.955.371 1.244.248.29.601.434 1.06.434.273 0 .529-.045.766-.135.238-.093.463-.233.675-.419v1.297Zm6.379-3.636a1.493 1.493 0 0 0-.545-.318 2.067 2.067 0 0 0-.679-.106c-.299 0-.56.052-.785.159a1.163 1.163 0 0 0-.516.453 1.29 1.29 0 0 0-.164.443 5.403 5.403 0 0 0-.043.791v2.489h-1.411v-5.401h1.411v.839c.138-.309.35-.547.636-.714.286-.17.62-.255 1.003-.255.192 0 .38.024.563.072.187.045.363.113.53.203v1.345Zm1.465-1.49h2.794v4.315h1.754v1.086h-4.924v-1.086h1.759v-3.23h-1.383v-1.085Zm1.383-2.628h1.411v1.649h-1.411v-1.649Zm5.628 7.266v2.817h-1.408v-7.455h1.408v.81c.147-.312.342-.546.582-.704.242-.158.524-.236.848-.236.617 0 1.096.247 1.436.742.341.495.511 1.193.511 2.093 0 .913-.174 1.614-.52 2.102-.344.489-.836.733-1.475.733-.289 0-.549-.074-.78-.221-.229-.152-.429-.378-.602-.681Zm1.965-1.943c0-.52-.087-.929-.26-1.224-.173-.296-.413-.444-.718-.444s-.546.148-.723.444c-.176.295-.264.704-.264 1.224 0 .521.088.93.264 1.225.177.296.418.444.723.444s.545-.148.718-.444c.173-.295.26-.704.26-1.225Zm5.175-4.229v1.534h1.845v1.085h-1.845v2.556c0 .24.058.414.173.52.119.103.315.154.588.154h1.084v1.086h-1.185c-.809 0-1.357-.129-1.643-.386-.286-.261-.429-.741-.429-1.442v-2.488h-1.378v-1.085h1.378v-1.534h1.412Zm3.686 1.534h2.794v4.315h1.755v1.086h-4.925v-1.086h1.759v-3.23h-1.383v-1.085Zm1.383-2.628h1.411v1.649h-1.411v-1.649Zm6.466 3.646c-.337 0-.603.149-.795.448-.193.295-.29.709-.29 1.239 0 .531.097.945.29 1.244.192.296.458.444.795.444.34 0 .607-.148.8-.444.193-.299.288-.713.288-1.244 0-.53-.095-.944-.288-1.239-.193-.299-.46-.448-.8-.448Zm-2.496 1.687c0-.871.225-1.561.675-2.069.452-.511 1.059-.766 1.821-.766.765 0 1.371.255 1.821.766.453.508.68 1.198.68 2.069s-.227 1.563-.68 2.073c-.45.508-1.056.762-1.821.762-.762 0-1.369-.254-1.821-.762-.45-.51-.675-1.202-.675-2.073Zm10.634-.81v3.506h-1.402v-3.289c0-.392-.056-.672-.169-.839-.109-.17-.289-.255-.54-.255-.254 0-.454.114-.602.342-.144.228-.217.545-.217.95v3.091h-1.402v-5.401h1.402v.81c.1-.299.27-.53.511-.694.241-.164.531-.246.872-.246.511 0 .896.17 1.157.511.259.338.39.842.39 1.514Zm5.56-1.726v1.234a3.184 3.184 0 0 0-.814-.376 2.826 2.826 0 0 0-.843-.13c-.315 0-.553.046-.714.14a.437.437 0 0 0-.24.405c0 .257.343.466 1.031.627l.052.014.405.097c.514.122.89.319 1.128.593.241.27.361.636.361 1.099 0 .556-.183.974-.549 1.254-.363.276-.911.414-1.643.414-.325 0-.657-.029-.998-.086a7.18 7.18 0 0 1-1.036-.251v-1.234c.312.176.629.311.95.404.324.094.637.14.939.14.331 0 .582-.048.752-.144a.46.46 0 0 0 .256-.42.496.496 0 0 0-.184-.414c-.119-.097-.405-.2-.858-.309l-.39-.087c-.539-.122-.933-.313-1.18-.574-.247-.26-.371-.609-.371-1.046 0-.521.188-.926.563-1.215.376-.289.905-.434 1.586-.434.305 0 .608.026.91.077.306.048.601.122.887.222Z"/>
    <path stroke="#fff" stroke-width="2" d="M377.164 185.436H234.631a.549.549 0 0 0-.548.549v27.431c0 .303.246.549.548.549h142.533a.55.55 0 0 0 .549-.549v-27.431a.55.55 0 0 0-.549-.549Z"/>
    <path fill="#080D19" d="M377.164 227.955H234.631a.823.823 0 0 0-.822.823v27.431c0 .455.368.823.822.823h142.533a.822.822 0 0 0 .823-.823v-27.431a.823.823 0 0 0-.823-.823Z"/>
    <path fill="#fff" d="M263.381 240.554v1.234a3.153 3.153 0 0 0-.814-.376 2.817 2.817 0 0 0-.843-.13c-.314 0-.552.046-.713.14a.436.436 0 0 0-.241.405c0 .257.344.466 1.031.627l.053.014.405.097c.514.122.89.319 1.127.593.242.27.362.636.362 1.099 0 .556-.184.974-.55 1.254-.363.276-.91.414-1.643.414-.324 0-.656-.029-.997-.086a7.02 7.02 0 0 1-1.036-.251v-1.234c.312.176.628.311.95.405.324.093.637.139.939.139.331 0 .581-.048.752-.144a.46.46 0 0 0 .255-.42.496.496 0 0 0-.183-.414c-.119-.097-.405-.2-.858-.309l-.39-.087c-.54-.122-.933-.313-1.18-.574-.248-.26-.372-.609-.372-1.046 0-.521.188-.926.564-1.215.376-.289.905-.434 1.585-.434.306 0 .609.026.911.077.305.048.601.122.886.222Zm4.496-1.703v1.534h1.845v1.085h-1.845v2.556c0 .24.058.414.173.52.119.103.315.154.588.154h1.084v1.086h-1.185c-.809 0-1.357-.129-1.643-.386-.286-.261-.429-.741-.429-1.442v-2.488h-1.378v-1.085h1.378v-1.534h1.412Zm5.994 4.398c-.527 0-.895.068-1.104.203-.208.135-.313.366-.313.694 0 .244.073.439.217.583.144.145.341.218.588.218.373 0 .662-.14.867-.42.206-.283.308-.676.308-1.181v-.097h-.563Zm1.966-.545v3.082h-1.403v-.603c-.17.238-.388.421-.655.549-.266.129-.56.193-.881.193-.614 0-1.092-.162-1.436-.487-.341-.325-.511-.778-.511-1.359 0-.631.204-1.095.612-1.394.408-.302 1.039-.453 1.893-.453h.978v-.236c0-.229-.083-.401-.25-.517-.164-.118-.406-.178-.728-.178a3.71 3.71 0 0 0-.983.13 4.514 4.514 0 0 0-.987.406v-1.206c.311-.129.628-.224.949-.285.321-.06.662-.091 1.021-.091.877 0 1.492.178 1.846.535.356.357.535.995.535 1.914Zm3.931-3.853v1.534h1.846v1.085h-1.846v2.556c0 .24.058.414.174.52.119.103.315.154.588.154h1.084v1.086h-1.186c-.809 0-1.357-.129-1.643-.386-.286-.261-.428-.741-.428-1.442v-2.488h-1.378v-1.085h1.378v-1.534h1.411Zm7.931 6.67a5.415 5.415 0 0 1-1.002.303c-.34.067-.701.101-1.079.101-.903 0-1.593-.241-2.072-.723-.476-.485-.713-1.183-.713-2.093 0-.88.229-1.576.689-2.088.459-.511 1.085-.766 1.879-.766.799 0 1.419.238 1.86.714.443.472.665 1.139.665 2v.574h-3.657c.003.425.128.741.375.951.248.208.617.313 1.109.313.324 0 .644-.047.958-.14.315-.093.644-.242.988-.444v1.298Zm-1.195-3.039c-.006-.372-.102-.654-.289-.844-.183-.192-.454-.289-.814-.289-.324 0-.583.1-.776.299-.193.196-.307.476-.342.839l2.221-.005Zm5.392-2.57v.473h1.657v1.085h-1.657v4.316h-1.412v-4.316h-1.311v-1.085h1.311v-.376c0-.65.135-1.099.405-1.35.269-.251.77-.376 1.503-.376h1.161v1.085h-1.103c-.212 0-.357.038-.434.115-.074.077-.114.22-.12.429Zm3.156 3.988v-3.515h1.411v3.298c0 .389.055.667.164.834.109.167.291.251.545.251a.664.664 0 0 0 .592-.338c.145-.225.217-.539.217-.944v-3.101h1.412v5.401h-1.412v-.801c-.099.299-.27.531-.511.695a1.488 1.488 0 0 1-.862.245c-.514 0-.903-.17-1.166-.511-.26-.341-.39-.845-.39-1.514Zm7.039-.366v-4.166h-1.431v-1.085h2.843v5.251c0 .424.066.725.197.901.132.177.355.265.67.265h1.128v1.086h-1.523c-.671 0-1.153-.174-1.446-.521-.292-.347-.438-.925-.438-1.731Zm10.027-3.149h1.175l.641 4.137.583-2.724h1.142l.574 2.724.65-4.137h1.176l-.979 5.401h-1.339l-.655-2.807-.651 2.807h-1.339l-.978-5.401Zm8.913 1.018c-.337 0-.602.149-.795.448-.192.295-.289.709-.289 1.239 0 .531.097.945.289 1.244.193.296.458.444.795.444.341 0 .608-.148.8-.444.193-.299.289-.713.289-1.244 0-.53-.096-.944-.289-1.239-.192-.299-.459-.448-.8-.448Zm-2.495 1.687c0-.871.224-1.561.674-2.069.453-.511 1.06-.766 1.821-.766.765 0 1.372.255 1.822.766.453.508.679 1.198.679 2.069s-.226 1.563-.679 2.073c-.45.508-1.057.762-1.822.762-.761 0-1.368-.254-1.821-.762-.45-.51-.674-1.202-.674-2.073Zm11.019-1.215a1.493 1.493 0 0 0-.545-.318 2.067 2.067 0 0 0-.679-.106c-.299 0-.561.053-.786.159a1.166 1.166 0 0 0-.515.453 1.27 1.27 0 0 0-.164.443 5.27 5.27 0 0 0-.043.792v2.488h-1.412v-5.401h1.412v.839c.138-.309.35-.547.636-.714.286-.17.62-.255 1.002-.255.193 0 .381.024.564.072.186.045.363.113.53.203v1.345Zm1.238-3.592h1.412v3.939l1.696-1.837h1.71l-2.042 2.015 2.158 3.386h-1.561l-1.48-2.527-.481.463v2.064h-1.412v-7.503Zm10.417 7.238a5.415 5.415 0 0 1-1.002.303c-.341.067-.7.101-1.08.101-.902 0-1.593-.241-2.071-.723-.476-.485-.713-1.183-.713-2.093 0-.88.229-1.576.689-2.088.459-.511 1.085-.766 1.879-.766.8 0 1.42.238 1.859.714.444.472.665 1.139.665 2v.574h-3.657c.004.425.129.741.376.951.248.208.617.313 1.108.313.325 0 .644-.047.959-.14.315-.093.644-.242.988-.444v1.298Zm-1.195-3.039c-.006-.372-.103-.654-.289-.844-.183-.192-.455-.289-.814-.289-.325 0-.583.1-.776.299-.193.196-.307.476-.342.839l2.221-.005Zm7.376-.607a1.489 1.489 0 0 0-.544-.318 2.067 2.067 0 0 0-.679-.106c-.299 0-.56.053-.786.159a1.166 1.166 0 0 0-.515.453 1.25 1.25 0 0 0-.164.443 5.27 5.27 0 0 0-.043.792v2.488h-1.412v-5.401h1.412v.839c.138-.309.35-.547.636-.714.286-.17.62-.255 1.002-.255.193 0 .381.024.564.072.186.045.363.113.529.203v1.345Zm5.176-1.321v1.234a3.19 3.19 0 0 0-.815-.376 2.817 2.817 0 0 0-.843-.13c-.315 0-.552.046-.713.14a.438.438 0 0 0-.241.405c0 .257.344.466 1.031.627l.053.014.405.097c.514.122.89.319 1.127.593.241.27.362.636.362 1.099 0 .556-.183.974-.55 1.254-.362.276-.91.414-1.643.414-.324 0-.656-.029-.997-.086a7.02 7.02 0 0 1-1.036-.251v-1.234c.312.176.628.311.949.405.325.093.638.139.94.139.331 0 .581-.048.751-.144a.458.458 0 0 0 .256-.42.496.496 0 0 0-.183-.414c-.119-.097-.405-.2-.858-.309l-.39-.087c-.54-.122-.933-.313-1.181-.574-.247-.26-.37-.609-.37-1.046 0-.521.187-.926.563-1.215.376-.289.904-.434 1.586-.434.304 0 .608.026.91.077.305.048.6.122.887.222Z"/>
    <path stroke="#fff" d="M377.164 227.955H234.631a.823.823 0 0 0-.822.823v27.431c0 .455.368.823.822.823h142.533a.822.822 0 0 0 .823-.823v-27.431a.823.823 0 0 0-.823-.823Z"/>
    <path fill="#0A0A12" d="M377.164 410.648H234.631a.823.823 0 0 0-.822.823v27.432c0 .454.368.823.822.823h142.533a.823.823 0 0 0 .823-.823v-27.432a.823.823 0 0 0-.823-.823Z"/>
    <path fill="#fff" d="M246.2 425.32c-.716-.273-1.202-.559-1.455-.858-.254-.302-.381-.707-.381-1.215 0-.653.209-1.165.626-1.538.418-.373.991-.559 1.72-.559.332 0 .662.038.993.115.331.074.659.185.983.333v1.388a3.865 3.865 0 0 0-.93-.491 2.752 2.752 0 0 0-.935-.169c-.344 0-.607.069-.79.207-.183.139-.274.336-.274.593 0 .2.065.365.197.497.135.129.414.272.839.429l.611.232c.578.212 1.004.493 1.277.844.273.35.41.792.41 1.326 0 .726-.216 1.269-.646 1.629-.427.357-1.075.536-1.942.536a4.61 4.61 0 0 1-1.074-.13 4.684 4.684 0 0 1-1.036-.377v-1.471c.379.271.745.472 1.099.603.356.132.708.198 1.055.198.35 0 .621-.079.814-.236.193-.161.289-.385.289-.67a.871.871 0 0 0-.193-.564 1.256 1.256 0 0 0-.559-.386l-.698-.266Zm8.798 2.894a5.34 5.34 0 0 1-2.082.405c-.902 0-1.593-.242-2.072-.723-.475-.486-.713-1.184-.713-2.093 0-.881.23-1.577.689-2.088.46-.511 1.086-.767 1.88-.767.799 0 1.419.238 1.86.714.443.472.664 1.139.664 2.001v.574h-3.656c.002.424.128.741.375.95.247.208.617.313 1.109.313.324 0 .643-.047.958-.14.315-.093.644-.241.988-.444v1.298Zm-1.195-3.038c-.006-.373-.103-.654-.289-.844-.183-.193-.455-.289-.814-.289-.325 0-.583.099-.776.299-.193.195-.307.475-.342.838l2.221-.004Zm3.96 2.541v2.816h-1.406v-7.455h1.406v.81c.148-.312.342-.546.584-.703.24-.158.523-.237.848-.237.616 0 1.095.248 1.435.742.341.496.511 1.193.511 2.093 0 .913-.173 1.614-.52 2.103-.344.489-.835.733-1.475.733-.289 0-.549-.074-.78-.222-.228-.151-.429-.378-.603-.68Zm1.966-1.943c0-.521-.086-.929-.26-1.225-.173-.296-.412-.444-.718-.444-.305 0-.546.148-.722.444-.177.296-.266.704-.266 1.225 0 .521.089.929.266 1.225.176.295.417.443.722.443.306 0 .545-.148.718-.443.174-.296.26-.704.26-1.225Zm5.223.169c-.526 0-.894.067-1.103.202-.209.135-.313.366-.313.695 0 .244.072.438.216.583.145.145.341.217.588.217.373 0 .662-.14.867-.42.206-.283.309-.676.309-1.181v-.096h-.564Zm1.966-.545v3.081h-1.402v-.603c-.17.238-.389.421-.655.55a2 2 0 0 1-.882.193c-.614 0-1.092-.163-1.436-.487-.34-.325-.511-.778-.511-1.36 0-.63.204-1.094.613-1.393.407-.303 1.038-.454 1.893-.454h.978v-.236c0-.228-.083-.401-.25-.516-.164-.119-.407-.179-.728-.179-.338 0-.665.044-.983.13a4.52 4.52 0 0 0-.988.406v-1.206c.312-.128.628-.223.949-.284a5.471 5.471 0 0 1 1.022-.092c.877 0 1.492.178 1.845.536.357.356.535.994.535 1.914Zm6.153-.83a1.521 1.521 0 0 0-.545-.318 2.067 2.067 0 0 0-.679-.106c-.299 0-.561.053-.785.159a1.164 1.164 0 0 0-.516.453c-.077.123-.132.27-.164.444a5.255 5.255 0 0 0-.043.791v2.488h-1.411v-5.401h1.411v.839c.138-.308.35-.546.636-.713.286-.171.62-.256 1.002-.256.193 0 .381.024.564.073.186.045.363.112.53.202v1.345Zm3.773 1.375c-.527 0-.895.067-1.104.202-.209.135-.313.366-.313.695 0 .244.072.438.217.583.144.145.341.217.588.217.372 0 .661-.14.867-.42.206-.283.308-.676.308-1.181v-.096h-.563Zm1.965-.545v3.081h-1.402v-.603c-.17.238-.389.421-.655.55-.266.129-.56.193-.881.193-.614 0-1.093-.163-1.437-.487-.34-.325-.51-.778-.51-1.36 0-.63.204-1.094.612-1.393.408-.303 1.039-.454 1.893-.454h.978v-.236c0-.228-.083-.401-.25-.516-.164-.119-.407-.179-.728-.179-.337 0-.665.044-.983.13a4.54 4.54 0 0 0-.988.406v-1.206a4.92 4.92 0 0 1 .95-.284 5.468 5.468 0 0 1 1.021-.092c.877 0 1.492.178 1.845.536.357.356.535.994.535 1.914Zm3.932-3.853v1.533h1.845v1.085h-1.845v2.556c0 .241.058.415.173.52.119.104.315.155.588.155h1.084v1.085h-1.185c-.809 0-1.357-.129-1.643-.386-.286-.26-.428-.741-.428-1.442v-2.488h-1.379v-1.085h1.379v-1.533h1.411Zm7.931 6.669a5.327 5.327 0 0 1-2.081.405c-.903 0-1.594-.242-2.073-.723-.475-.486-.712-1.184-.712-2.093 0-.881.229-1.577.688-2.088.46-.511 1.086-.767 1.879-.767.8 0 1.42.238 1.86.714.443.472.665 1.139.665 2.001v.574h-3.657c.004.424.129.741.376.95.247.208.617.313 1.108.313.325 0 .645-.047.959-.14.315-.093.644-.241.988-.444v1.298Zm-1.195-3.038c-.007-.373-.103-.654-.289-.844-.183-.193-.455-.289-.815-.289-.324 0-.582.099-.775.299-.193.195-.307.475-.342.838l2.221-.004Zm9.906 2.541v2.816h-1.407v-7.455h1.407v.81c.148-.312.342-.546.583-.703.241-.158.524-.237.848-.237.617 0 1.096.248 1.436.742.341.496.51 1.193.51 2.093 0 .913-.173 1.614-.52 2.103-.343.489-.835.733-1.474.733a1.42 1.42 0 0 1-.781-.222c-.228-.151-.428-.378-.602-.68Zm1.966-1.943c0-.521-.087-.929-.26-1.225-.174-.296-.413-.444-.718-.444s-.546.148-.723.444c-.177.296-.265.704-.265 1.225 0 .521.088.929.265 1.225.177.295.418.443.723.443s.544-.148.718-.443c.173-.296.26-.704.26-1.225Zm5.223.169c-.527 0-.895.067-1.103.202-.209.135-.313.366-.313.695 0 .244.071.438.216.583.145.145.341.217.588.217.373 0 .661-.14.867-.42.206-.283.309-.676.309-1.181v-.096h-.564Zm1.965-.545v3.081h-1.401v-.603a1.71 1.71 0 0 1-.656.55c-.266.129-.56.193-.881.193-.614 0-1.092-.163-1.436-.487-.341-.325-.511-.778-.511-1.36 0-.63.204-1.094.612-1.393.408-.303 1.039-.454 1.894-.454h.978v-.236c0-.228-.084-.401-.251-.516-.164-.119-.406-.179-.727-.179-.338 0-.665.044-.983.13a4.52 4.52 0 0 0-.988.406v-1.206a4.89 4.89 0 0 1 .949-.284 5.471 5.471 0 0 1 1.022-.092c.876 0 1.491.178 1.845.536.356.356.534.994.534 1.914Zm4.034 3.664c-.19.508-.418.878-.685 1.109a1.394 1.394 0 0 1-.963.353h-1.166v-1.076h.573c.289 0 .501-.05.636-.15.135-.096.271-.323.41-.679l.106-.289-2.053-5.252h1.484l1.233 3.506 1.181-3.506h1.484l-2.24 5.984Zm5.844-5.443c.106-.229.241-.398.405-.507a1.06 1.06 0 0 1 .602-.164c.466 0 .787.161.964.482.18.322.27.991.27 2.006v3.043h-1.157v-3.467c0-.402-.03-.67-.091-.805-.062-.135-.172-.203-.333-.203-.161 0-.273.069-.337.208-.064.138-.097.404-.097.8v3.467H317.5v-3.467c0-.396-.033-.662-.097-.8-.064-.139-.176-.208-.337-.208-.161 0-.271.068-.332.203-.062.135-.092.403-.092.805v3.467h-1.157v-5.401h1.027v.56c.08-.213.209-.38.385-.502.177-.125.374-.188.593-.188.218 0 .417.066.597.198.18.129.29.286.328.473Zm7.931 4.595a5.34 5.34 0 0 1-2.082.405c-.903 0-1.593-.242-2.071-.723-.476-.486-.714-1.184-.714-2.093 0-.881.23-1.577.69-2.088.459-.511 1.085-.767 1.878-.767.8 0 1.42.238 1.86.714.444.472.665 1.139.665 2.001v.574h-3.657c.003.424.129.741.376.95.248.208.617.313 1.108.313.325 0 .644-.047.959-.14.315-.093.644-.241.988-.444v1.298Zm-1.195-3.038c-.007-.373-.103-.654-.289-.844-.183-.193-.455-.289-.815-.289-.324 0-.582.099-.775.299-.193.195-.307.475-.343.838l2.222-.004Zm6.991-.203v3.506h-1.402v-3.289c0-.392-.056-.672-.169-.839-.109-.17-.289-.255-.54-.255-.253 0-.454.114-.601.342-.145.228-.218.545-.218.95v3.091h-1.401v-5.401h1.401v.81c.1-.299.27-.53.511-.694.241-.164.532-.246.873-.246.51 0 .896.17 1.156.511.26.338.39.843.39 1.514Zm4.11-3.428v1.533h1.845v1.085h-1.845v2.556c0 .241.058.415.174.52.118.104.314.155.587.155h1.084v1.085h-1.185c-.809 0-1.357-.129-1.643-.386-.286-.26-.429-.741-.429-1.442v-2.488h-1.378v-1.085h1.378v-1.533h1.412Zm12.662 6.726c0 .811-.146 1.387-.438 1.731-.289.348-.771.522-1.446.522h-1.522v-1.086h1.127c.315 0 .538-.088.67-.265.131-.177.198-.477.198-.902v-4.108h-1.432v-1.085h2.843v5.193Zm0-6.172h-1.411v-1.649h1.411v1.649Zm4.819 1.997c-.338 0-.603.149-.795.448-.193.296-.29.709-.29 1.239 0 .531.097.946.29 1.244.192.296.457.444.795.444.34 0 .606-.148.799-.444.193-.298.289-.713.289-1.244 0-.53-.096-.943-.289-1.239-.193-.299-.459-.448-.799-.448Zm-2.496 1.687c0-.871.224-1.56.674-2.068.453-.511 1.06-.767 1.822-.767.764 0 1.371.256 1.821.767.452.508.679 1.197.679 2.068 0 .872-.227 1.563-.679 2.074-.45.508-1.057.762-1.821.762-.762 0-1.369-.254-1.822-.762-.45-.511-.674-1.202-.674-2.074Zm9.568.01c0-.521-.086-.929-.259-1.225-.174-.296-.413-.444-.719-.444-.305 0-.546.148-.722.444-.177.296-.265.704-.265 1.225 0 .521.088.929.265 1.225.176.296.417.444.722.444.306 0 .545-.148.719-.444.173-.296.259-.704.259-1.225Zm-1.965-1.948c.173-.299.374-.522.602-.67.231-.151.491-.227.781-.227.639 0 1.13.244 1.474.733.347.489.52 1.189.52 2.102 0 .901-.17 1.598-.51 2.093-.341.495-.819.743-1.436.743a1.51 1.51 0 0 1-.848-.237c-.241-.157-.435-.392-.583-.704v.801h-1.407v-7.503h1.407v2.869Zm8.59-.598v1.234a3.153 3.153 0 0 0-.814-.376 2.817 2.817 0 0 0-.843-.13c-.315 0-.552.047-.713.14a.436.436 0 0 0-.241.405c0 .257.344.466 1.031.627l.053.014.405.097c.514.122.889.32 1.127.593.241.27.362.636.362 1.099 0 .557-.183.974-.55 1.254-.363.276-.91.415-1.643.415-.324 0-.656-.029-.997-.087a7.02 7.02 0 0 1-1.036-.251v-1.234c.311.177.628.312.95.405a3.4 3.4 0 0 0 .939.14c.331 0 .581-.049.752-.145a.46.46 0 0 0 .255-.42.496.496 0 0 0-.183-.414c-.119-.097-.405-.2-.858-.309l-.39-.087c-.54-.122-.933-.313-1.18-.574-.248-.26-.371-.608-.371-1.046 0-.52.188-.926.563-1.215.376-.289.905-.434 1.585-.434.305 0 .609.026.911.077.305.048.601.122.886.222Z"/>
    <path stroke="#fff" d="M377.164 410.648H234.631a.823.823 0 0 0-.822.823v27.432c0 .454.368.823.822.823h142.533a.823.823 0 0 0 .823-.823v-27.432a.823.823 0 0 0-.823-.823Z"/>
    <path fill="#0A0A12" d="M378.261 1.646H235.728a.548.548 0 0 0-.548.549v27.43c0 .304.245.55.548.55h142.533a.548.548 0 0 0 .548-.55V2.196a.548.548 0 0 0-.548-.55Z"/>
    <path fill="#fff" d="m301.318 13.305-.67 2.946h1.344l-.674-2.946Zm-.868-1.302h1.74l1.942 7.199h-1.421l-.444-1.78h-1.903l-.434 1.78h-1.421l1.941-7.2Zm5.975 6.437v2.816h-1.406v-7.455h1.406v.81c.148-.311.342-.546.583-.704.241-.157.524-.236.848-.236.617 0 1.095.248 1.436.743.34.495.511 1.192.511 2.092 0 .913-.173 1.614-.52 2.103-.344.488-.836.733-1.475.733-.289 0-.549-.074-.78-.222-.228-.151-.429-.378-.603-.68Zm1.966-1.943c0-.52-.086-.93-.26-1.225-.173-.296-.413-.444-.718-.444s-.546.148-.723.444c-.176.296-.265.704-.265 1.225 0 .52.089.929.265 1.225.177.295.418.443.723.443s.545-.148.718-.443c.174-.296.26-.704.26-1.225Zm3.98 1.943v2.816h-1.407v-7.455h1.407v.81c.148-.311.342-.546.583-.704.241-.157.523-.236.848-.236.617 0 1.095.248 1.436.743.34.495.511 1.192.511 2.092 0 .913-.174 1.614-.521 2.103-.343.488-.835.733-1.474.733-.289 0-.55-.074-.781-.222-.228-.151-.429-.378-.602-.68Zm1.966-1.943c0-.52-.087-.93-.26-1.225-.174-.296-.413-.444-.719-.444-.304 0-.546.148-.722.444-.177.296-.265.704-.265 1.225 0 .52.088.929.265 1.225.176.295.418.443.722.443.306 0 .545-.148.719-.443.173-.296.26-.704.26-1.225Z"/>
    <path stroke="#fff" stroke-width="2" d="M378.261 1.646H235.728a.548.548 0 0 0-.548.549v27.43c0 .304.245.55.548.55h142.533a.548.548 0 0 0 .548-.55V2.196a.548.548 0 0 0-.548-.55Z"/>
    <path fill="#080D19" d="M377.164 299.551H234.631a.549.549 0 0 0-.548.549v27.431c0 .303.246.549.548.549h142.533a.55.55 0 0 0 .549-.549V300.1a.55.55 0 0 0-.549-.549Z"/>
    <path fill="#fff" d="m267.52 311.21-.67 2.946h1.345l-.675-2.946Zm-.867-1.302h1.739l1.942 7.199h-1.421l-.443-1.779h-1.904l-.433 1.779h-1.422l1.942-7.199Zm7.169.265v1.534h1.846v1.085h-1.846v2.555c0 .241.059.415.174.521.119.103.315.154.588.154h1.084v1.085h-1.186c-.809 0-1.356-.128-1.642-.385-.286-.261-.429-.742-.429-1.442v-2.488h-1.378v-1.085h1.378v-1.534h1.411Zm5.946 0v1.534h1.846v1.085h-1.846v2.555c0 .241.058.415.174.521.118.103.315.154.588.154h1.084v1.085h-1.186c-.809 0-1.357-.128-1.643-.385-.286-.261-.428-.742-.428-1.442v-2.488h-1.379v-1.085h1.379v-1.534h1.411Zm7.931 6.669a5.42 5.42 0 0 1-1.002.304c-.34.067-.701.101-1.079.101-.903 0-1.593-.241-2.072-.723-.476-.486-.713-1.183-.713-2.093 0-.881.229-1.577.689-2.088.459-.511 1.085-.767 1.879-.767.799 0 1.419.239 1.86.714.443.473.665 1.14.665 2.001v.574h-3.658c.004.425.129.741.376.95.248.209.617.313 1.108.313.325 0 .645-.046.959-.139a4.52 4.52 0 0 0 .988-.444v1.297Zm-1.195-3.038c-.007-.373-.102-.654-.289-.844-.183-.192-.454-.289-.814-.289-.324 0-.583.1-.776.299-.193.196-.307.476-.342.839l2.221-.005Zm5.155-1.557c.107-.228.242-.397.405-.506.164-.11.365-.165.602-.165.466 0 .788.161.964.483.18.321.27.99.27 2.006v3.042h-1.156v-3.467c0-.402-.031-.67-.092-.805s-.172-.202-.333-.202c-.16 0-.273.069-.337.207-.064.138-.096.405-.096.8v3.467h-1.142v-3.467c0-.395-.032-.662-.096-.8-.065-.138-.177-.207-.338-.207-.16 0-.271.067-.332.202s-.091.403-.091.805v3.467h-1.157v-5.4h1.027v.559c.08-.212.208-.38.385-.501a.995.995 0 0 1 .593-.189c.218 0 .417.066.597.198.18.129.289.286.327.473Zm4.751 4.098v2.816h-1.407v-7.454h1.407v.81c.148-.312.342-.547.583-.704.241-.158.524-.237.848-.237.617 0 1.096.248 1.436.743.341.495.511 1.192.511 2.093 0 .913-.174 1.613-.521 2.102-.343.489-.835.733-1.474.733-.289 0-.549-.074-.78-.222-.228-.151-.429-.378-.603-.68Zm1.966-1.943c0-.521-.087-.929-.26-1.225-.174-.295-.413-.443-.718-.443s-.546.148-.723.443c-.177.296-.265.704-.265 1.225 0 .521.088.929.265 1.225.177.296.418.443.723.443s.544-.147.718-.443c.173-.296.26-.704.26-1.225Zm5.175-4.229v1.534h1.845v1.085h-1.845v2.555c0 .241.058.415.173.521.119.103.315.154.588.154h1.084v1.085h-1.185c-.81 0-1.357-.128-1.643-.385-.286-.261-.429-.742-.429-1.442v-2.488h-1.378v-1.085h1.378v-1.534h1.412Zm13.679 6.659a2.902 2.902 0 0 1-.767.309c-.273.07-.566.106-.881.106-.832 0-1.482-.251-1.952-.752-.468-.502-.703-1.196-.703-2.083 0-.891.236-1.587.708-2.088.473-.505 1.125-.757 1.957-.757a3.4 3.4 0 0 1 1.638.414v1.293a2.254 2.254 0 0 0-.679-.405 2.051 2.051 0 0 0-.762-.145c-.459 0-.812.146-1.06.439-.247.293-.371.709-.371 1.249 0 .54.124.954.371 1.244.248.289.601.434 1.06.434.273 0 .529-.045.766-.135.238-.094.463-.233.675-.42v1.297Zm5.993-3.231v3.506h-1.401v-3.288c0-.389-.057-.667-.169-.835-.109-.167-.289-.25-.54-.25a.678.678 0 0 0-.602.342c-.144.225-.217.539-.217.94v3.091h-1.402v-7.503h1.402v2.913c.099-.299.27-.531.511-.695.241-.164.531-.246.872-.246.511 0 .896.171 1.157.512.259.337.389.842.389 1.513Zm4.158.97c-.526 0-.894.067-1.103.202-.208.135-.313.367-.313.695 0 .244.072.439.217.583.145.145.34.217.588.217.372 0 .661-.14.867-.419.206-.283.309-.677.309-1.182v-.096h-.565Zm1.966-.545v3.081h-1.401v-.603a1.7 1.7 0 0 1-.656.55c-.267.129-.56.193-.882.193-.613 0-1.092-.162-1.435-.487-.341-.325-.511-.778-.511-1.36 0-.63.204-1.094.612-1.393.408-.302 1.039-.454 1.894-.454h.978v-.236c0-.228-.084-.4-.251-.516-.164-.118-.406-.178-.727-.178-.338 0-.665.043-.983.13a4.524 4.524 0 0 0-.988.405v-1.206a4.87 4.87 0 0 1 .949-.284 5.464 5.464 0 0 1 1.022-.092c.876 0 1.491.179 1.845.536.356.357.534.995.534 1.914Zm6.153-.829a1.505 1.505 0 0 0-.544-.319 2.097 2.097 0 0 0-.679-.106c-.299 0-.561.053-.786.16a1.16 1.16 0 0 0-.515.453 1.25 1.25 0 0 0-.164.443 5.255 5.255 0 0 0-.043.791v2.488h-1.413v-5.4h1.413v.839a1.52 1.52 0 0 1 .636-.714c.285-.17.62-.256 1.002-.256.192 0 .38.025.563.073.187.045.363.112.53.202v1.346Zm4.269 1.123c0-.482-.091-.868-.274-1.157-.184-.293-.424-.439-.723-.439-.295 0-.535.145-.718.434-.18.289-.27.677-.27 1.162 0 .489.09.878.27 1.167.183.289.423.434.718.434.299 0 .539-.145.723-.434.183-.292.274-.681.274-1.167Zm1.412 2.382c0 .865-.196 1.489-.588 1.871-.388.386-1.021.579-1.898.579-.296 0-.588-.023-.877-.068a6.108 6.108 0 0 1-.882-.198v-1.297c.267.148.538.258.815.329.275.07.56.105.852.105.399 0 .693-.094.882-.284.189-.186.284-.479.284-.878v-.583a1.38 1.38 0 0 1-.549.574c-.228.125-.506.188-.833.188-.617 0-1.107-.241-1.47-.723-.363-.483-.544-1.137-.544-1.963 0-.855.181-1.533.544-2.035.363-.502.85-.752 1.46-.752.308 0 .583.072.824.217.24.145.43.349.568.612v-.689h1.412v4.995Zm5.975.14a5.42 5.42 0 0 1-1.002.304 5.594 5.594 0 0 1-1.08.101c-.903 0-1.593-.241-2.071-.723-.476-.486-.714-1.183-.714-2.093 0-.881.23-1.577.689-2.088.46-.511 1.086-.767 1.879-.767.8 0 1.42.239 1.86.714.444.473.665 1.14.665 2.001v.574h-3.657c.003.425.128.741.376.95.247.209.616.313 1.108.313.325 0 .644-.046.959-.139a4.52 4.52 0 0 0 .988-.444v1.297Zm-1.195-3.038c-.007-.373-.103-.654-.289-.844-.183-.192-.455-.289-.815-.289-.324 0-.583.1-.776.299-.192.196-.306.476-.342.839l2.222-.005Z"/>
    <path stroke="#fff" stroke-width="2" d="M377.164 299.551H234.631a.549.549 0 0 0-.548.549v27.431c0 .303.246.549.548.549h142.533a.55.55 0 0 0 .549-.549V300.1a.55.55 0 0 0-.549-.549Z"/>
    <path fill="#0A0A12" d="M172.136 299.87H29.603a.549.549 0 0 0-.548.549v27.431c0 .303.245.549.548.549h142.533a.548.548 0 0 0 .548-.549v-27.431a.548.548 0 0 0-.548-.549Z"/>
    <path fill="#fff" d="M45.489 311.481v-1.254h4.283v1.254h-1.43v4.692h1.43v1.253h-4.283v-1.253h1.43v-4.692h-1.43Zm10.277 2.44v3.505h-1.402v-3.288c0-.392-.056-.672-.169-.839-.109-.171-.289-.256-.54-.256-.253 0-.454.115-.602.343-.144.228-.217.545-.217.949v3.091h-1.402v-5.4h1.402v.81c.1-.299.27-.53.511-.694.241-.165.532-.246.872-.246.511 0 .896.17 1.157.511.26.337.39.842.39 1.514Zm4.346-2.368v.473h1.657v1.085h-1.657v4.315H58.7v-4.315h-1.31v-1.085h1.31v-.376c0-.65.135-1.099.405-1.35.27-.251.771-.377 1.503-.377h1.162v1.086h-1.104c-.212 0-.356.038-.434.115-.074.077-.114.22-.12.429Zm7.93 1.963a1.492 1.492 0 0 0-.544-.318 2.07 2.07 0 0 0-.679-.106c-.299 0-.56.052-.786.159a1.157 1.157 0 0 0-.515.453 1.24 1.24 0 0 0-.164.443c-.029.174-.043.438-.043.791v2.488h-1.412v-5.4h1.412v.839c.138-.309.35-.547.636-.714.285-.17.62-.255 1.002-.255.193 0 .38.024.564.072.186.045.362.113.53.203v1.345Zm3.773 1.374c-.526 0-.894.068-1.103.203-.21.135-.313.366-.313.694 0 .244.072.439.216.583.145.145.341.218.589.218.372 0 .661-.14.867-.42.205-.283.308-.677.308-1.181v-.097h-.564Zm1.966-.545v3.081H72.38v-.602c-.17.238-.389.421-.655.549-.267.129-.56.193-.882.193-.614 0-1.092-.162-1.436-.487-.34-.325-.51-.778-.51-1.359 0-.631.204-1.095.611-1.394.408-.302 1.04-.454 1.894-.454h.978v-.235c0-.229-.083-.401-.25-.517-.165-.118-.407-.178-.728-.178-.337 0-.665.043-.983.13a4.564 4.564 0 0 0-.988.405v-1.205c.312-.129.628-.224.95-.285a5.47 5.47 0 0 1 1.02-.091c.878 0 1.493.178 1.846.535.357.357.535.995.535 1.914Zm5.382-2.15v1.234a3.168 3.168 0 0 0-1.657-.506c-.315 0-.553.046-.713.14a.437.437 0 0 0-.241.405c0 .257.343.466 1.03.627l.054.014.404.096c.514.123.89.32 1.128.594.241.269.361.636.361 1.099 0 .556-.183.974-.55 1.254-.362.276-.91.414-1.642.414-.325 0-.657-.029-.997-.086a7.148 7.148 0 0 1-1.037-.251v-1.234c.313.176.629.311.95.404.325.094.638.14.94.14.33 0 .58-.048.751-.145a.457.457 0 0 0 .255-.419c0-.18-.06-.318-.183-.414-.118-.097-.404-.2-.857-.309l-.39-.087c-.54-.122-.934-.313-1.18-.574-.248-.26-.372-.609-.372-1.046 0-.521.188-.926.564-1.215.376-.289.904-.434 1.585-.434.305 0 .608.026.91.077.306.048.601.122.887.222Zm4.495-1.703v1.534h1.846v1.085h-1.846v2.555c0 .241.058.415.174.521.119.103.315.154.588.154h1.084v1.085h-1.185c-.81 0-1.358-.128-1.643-.385-.286-.261-.43-.741-.43-1.442v-2.488H80.87v-1.085h1.378v-1.534h1.411Zm8.167 3.024a1.491 1.491 0 0 0-.544-.318 2.07 2.07 0 0 0-.68-.106c-.298 0-.56.052-.785.159a1.161 1.161 0 0 0-.516.453 1.25 1.25 0 0 0-.163.443 5.255 5.255 0 0 0-.043.791v2.488H87.68v-5.4h1.413v.839c.138-.309.35-.547.636-.714.285-.17.62-.255 1.002-.255.192 0 .38.024.563.072.187.045.363.113.53.203v1.345Zm1.171 2.025v-3.515h1.412v3.298c0 .389.054.667.164.834.109.167.29.251.544.251a.665.665 0 0 0 .593-.338c.144-.225.216-.54.216-.944v-3.101h1.413v5.4h-1.413v-.8c-.099.299-.27.531-.51.695a1.489 1.489 0 0 1-.862.245c-.515 0-.903-.17-1.166-.511-.26-.341-.39-.845-.39-1.514Zm10.287 1.611c-.238.138-.493.24-.766.308a3.495 3.495 0 0 1-.882.106c-.832 0-1.482-.25-1.951-.752-.47-.501-.703-1.196-.703-2.083 0-.89.235-1.587.708-2.088.472-.505 1.124-.757 1.956-.757a3.414 3.414 0 0 1 1.638.415v1.292a2.254 2.254 0 0 0-.679-.405 2.064 2.064 0 0 0-.762-.145c-.459 0-.812.146-1.06.439-.247.293-.371.709-.371 1.249 0 .54.124.955.371 1.244.248.289.601.434 1.06.434.273 0 .529-.045.766-.135.238-.093.463-.233.675-.419v1.297Zm4.158-6.66v1.534h1.846v1.085h-1.846v2.555c0 .241.058.415.174.521.119.103.314.154.587.154h1.085v1.085h-1.186c-.809 0-1.357-.128-1.643-.385-.286-.261-.429-.741-.429-1.442v-2.488h-1.378v-1.085h1.378v-1.534h1.412Zm3.392 5.049v-3.515h1.412v3.298c0 .389.055.667.164.834.109.167.29.251.544.251a.666.666 0 0 0 .593-.338c.144-.225.217-.54.217-.944v-3.101h1.411v5.4h-1.411v-.8c-.1.299-.27.531-.511.695a1.488 1.488 0 0 1-.862.245c-.515 0-.903-.17-1.166-.511-.261-.341-.391-.845-.391-1.514Zm10.72-2.025a1.489 1.489 0 0 0-.544-.318 2.07 2.07 0 0 0-.679-.106c-.299 0-.561.052-.786.159a1.16 1.16 0 0 0-.515.453 1.25 1.25 0 0 0-.164.443 5.264 5.264 0 0 0-.043.791v2.488h-1.412v-5.4h1.412v.839c.138-.309.35-.547.636-.714.286-.17.62-.255 1.002-.255.193 0 .381.024.564.072.186.045.363.113.529.203v1.345Zm5.71 3.645a5.396 5.396 0 0 1-1.002.304c-.341.067-.7.101-1.079.101-.903 0-1.594-.241-2.072-.723-.476-.485-.713-1.183-.713-2.093 0-.88.23-1.577.689-2.088.459-.511 1.086-.766 1.879-.766.8 0 1.42.238 1.86.713.443.473.665 1.14.665 2.001v.574h-3.657c.003.425.128.741.375.95.248.209.617.314 1.109.314.324 0 .644-.047.959-.14.314-.093.644-.242.987-.444v1.297Zm-1.195-3.038c-.006-.372-.103-.654-.289-.844-.183-.192-.455-.289-.814-.289-.325 0-.583.1-.776.299-.192.196-.306.476-.342.839l2.221-.005Zm12.889 3.029c-.238.138-.493.24-.766.308a3.495 3.495 0 0 1-.882.106c-.832 0-1.482-.25-1.951-.752-.469-.501-.704-1.196-.704-2.083 0-.89.237-1.587.709-2.088.472-.505 1.124-.757 1.956-.757a3.406 3.406 0 0 1 1.638.415v1.292a2.235 2.235 0 0 0-.68-.405 2.059 2.059 0 0 0-.761-.145c-.459 0-.812.146-1.06.439-.247.293-.371.709-.371 1.249 0 .54.124.955.371 1.244.248.289.601.434 1.06.434.273 0 .528-.045.766-.135.238-.093.463-.233.675-.419v1.297Zm3.801-4.109c-.337 0-.602.15-.794.449-.193.295-.289.709-.289 1.239 0 .531.096.945.289 1.244.192.296.457.444.794.444.341 0 .608-.148.8-.444.193-.299.289-.713.289-1.244 0-.53-.096-.944-.289-1.239-.192-.299-.459-.449-.8-.449Zm-2.496 1.688c0-.871.226-1.561.675-2.069.453-.511 1.06-.766 1.821-.766.765 0 1.372.255 1.822.766.453.508.679 1.198.679 2.069s-.226 1.563-.679 2.073c-.45.508-1.057.762-1.822.762-.761 0-1.368-.254-1.821-.762-.449-.51-.675-1.202-.675-2.073Zm9.285-1.938v-2.87h1.407v7.503h-1.407v-.8c-.15.312-.347.546-.587.704a1.496 1.496 0 0 1-.843.236c-.617 0-1.096-.247-1.437-.742-.34-.495-.51-1.193-.51-2.093 0-.913.171-1.613.515-2.102.347-.489.84-.733 1.479-.733.29 0 .548.075.777.226.23.148.433.372.606.671Zm-1.965 1.947c0 .522.086.93.26 1.225.173.296.413.444.718.444s.546-.148.723-.444c.176-.295.264-.703.264-1.225 0-.52-.088-.928-.264-1.224-.177-.296-.418-.444-.723-.444s-.545.148-.718.444c-.174.296-.26.704-.26 1.224Zm9.409 2.421a5.373 5.373 0 0 1-1.002.304c-.34.067-.7.101-1.079.101-.902 0-1.593-.241-2.072-.723-.475-.485-.713-1.183-.713-2.093 0-.88.23-1.577.689-2.088.46-.511 1.086-.766 1.879-.766.8 0 1.42.238 1.86.713.443.473.665 1.14.665 2.001v.574h-3.657c.003.425.129.741.376.95.247.209.617.314 1.108.314.324 0 .644-.047.959-.14.314-.093.644-.242.987-.444v1.297Zm-1.195-3.038c-.006-.372-.102-.654-.289-.844-.183-.192-.454-.289-.814-.289-.324 0-.583.1-.775.299-.193.196-.307.476-.342.839l2.22-.005Z"/>
    <path stroke="#fff" stroke-dasharray="4 4" d="M172.136 299.87H29.603a.549.549 0 0 0-.548.549v27.431c0 .303.245.549.548.549h142.533a.548.548 0 0 0 .548-.549v-27.431a.548.548 0 0 0-.548-.549Z"/>
    <path fill="#0A0A12" d="M172.136 334.434H29.603a.549.549 0 0 0-.548.549v27.431c0 .303.245.549.548.549h142.533a.548.548 0 0 0 .548-.549v-27.431a.548.548 0 0 0-.548-.549Z"/>
    <path fill="#fff" d="M65.465 345.939c-.363 0-.628.194-.795.583-.167.386-.25 1.011-.25 1.876 0 .861.083 1.486.25 1.875.167.386.432.579.795.579.366 0 .632-.193.8-.579.167-.389.25-1.014.25-1.875 0-.865-.083-1.49-.25-1.876-.168-.389-.434-.583-.8-.583Zm-2.525 2.459c0-1.231.212-2.162.636-2.792.427-.63 1.057-.945 1.889-.945.835 0 1.465.315 1.888.945.428.63.641 1.561.641 2.792 0 1.227-.213 2.157-.64 2.787-.424.63-1.054.945-1.89.945-.831 0-1.46-.315-1.888-.945-.424-.63-.636-1.56-.636-2.787Zm9.598.906c0-.521-.087-.929-.26-1.225-.174-.295-.413-.443-.718-.443s-.546.148-.723.443c-.176.296-.265.704-.265 1.225 0 .521.089.929.265 1.225.177.296.418.444.723.444s.544-.148.718-.444c.173-.296.26-.704.26-1.225Zm-1.966-1.948c.174-.299.374-.522.602-.67.232-.151.492-.227.781-.227.64 0 1.13.244 1.474.733.347.489.521 1.19.521 2.103 0 .9-.17 1.597-.51 2.092-.341.496-.82.743-1.437.743a1.51 1.51 0 0 1-.848-.237c-.24-.157-.435-.392-.583-.703v.8h-1.407v-7.503h1.407v2.869Zm8.59-.598v1.235a3.14 3.14 0 0 0-1.656-.507c-.315 0-.553.047-.713.14a.436.436 0 0 0-.241.405c0 .257.343.466 1.03.627l.054.014.404.097c.514.122.89.32 1.128.593.241.27.361.637.361 1.1 0 .556-.183.973-.55 1.253-.362.277-.91.415-1.642.415-.325 0-.657-.029-.997-.087a7.141 7.141 0 0 1-1.037-.25v-1.235c.313.177.629.312.95.405.325.093.638.14.94.14.33 0 .58-.048.751-.145a.457.457 0 0 0 .255-.42c0-.18-.06-.318-.183-.414-.118-.096-.404-.2-.857-.309l-.39-.086c-.54-.123-.934-.314-1.181-.574-.247-.261-.371-.609-.371-1.047 0-.52.188-.926.564-1.215.375-.289.904-.434 1.585-.434.305 0 .608.026.91.078.306.047.601.121.887.221Zm6.482 4.967a5.322 5.322 0 0 1-2.082.405c-.903 0-1.593-.241-2.072-.723-.475-.486-.713-1.184-.713-2.093 0-.881.23-1.577.689-2.088.46-.511 1.086-.767 1.88-.767.799 0 1.419.238 1.86.714.442.472.664 1.14.664 2.001v.574h-3.657c.003.424.128.741.376.95.247.209.616.313 1.108.313.325 0 .644-.046.959-.14.315-.093.644-.241.988-.443v1.297Zm-1.195-3.038c-.007-.373-.103-.654-.29-.844-.182-.193-.454-.289-.814-.289-.324 0-.583.1-.776.299-.192.196-.306.475-.342.839l2.222-.005Zm7.376-.608a1.52 1.52 0 0 0-.544-.318 2.069 2.069 0 0 0-.68-.106c-.298 0-.56.053-.785.159a1.163 1.163 0 0 0-.516.454 1.25 1.25 0 0 0-.163.443 5.246 5.246 0 0 0-.043.791v2.488H87.68v-5.401h1.413v.84c.138-.309.35-.547.636-.714.285-.171.62-.256 1.002-.256.192 0 .38.024.563.073.187.045.363.112.53.202v1.345Zm5.956-1.49-1.716 5.401h-1.74l-1.714-5.401h1.43l1.153 4.215 1.156-4.215h1.43Zm3.762 2.865c-.526 0-.894.067-1.103.202-.209.135-.313.367-.313.695 0 .244.072.439.217.583.145.145.34.217.588.217.372 0 .661-.14.867-.42.205-.283.308-.676.308-1.181v-.096h-.564Zm1.966-.545v3.081h-1.402v-.603a1.7 1.7 0 0 1-.655.55c-.267.129-.56.193-.882.193-.613 0-1.092-.162-1.435-.487-.34-.325-.511-.778-.511-1.36 0-.63.204-1.094.612-1.393.408-.303 1.039-.454 1.893-.454h.978v-.236c0-.228-.083-.4-.25-.516-.164-.119-.406-.178-.728-.178-.337 0-.665.043-.982.13a4.5 4.5 0 0 0-.988.405v-1.206c.311-.128.627-.223.949-.284a5.46 5.46 0 0 1 1.021-.092c.877 0 1.492.179 1.846.536.356.356.534.994.534 1.914Zm4.703.395c0-.521-.087-.929-.26-1.225-.173-.295-.413-.443-.718-.443s-.546.148-.723.443c-.176.296-.265.704-.265 1.225 0 .521.089.929.265 1.225.177.296.418.444.723.444s.545-.148.718-.444c.173-.296.26-.704.26-1.225Zm-1.966-1.948c.174-.299.374-.522.602-.67a1.4 1.4 0 0 1 .781-.227c.639 0 1.131.244 1.475.733.346.489.52 1.19.52 2.103 0 .9-.171 1.597-.511 2.092-.341.496-.819.743-1.436.743-.324 0-.607-.079-.848-.237-.241-.157-.435-.392-.583-.703v.8h-1.407v-7.503h1.407v2.869Zm4.881-.767h2.795v4.316h1.753v1.085h-4.924v-1.085h1.759v-3.23h-1.383v-1.086Zm1.383-2.628h1.412v1.65h-1.412v-1.65Zm5.363 5.777v-4.166h-1.432v-1.085h2.843v5.251c0 .425.066.725.198.902.131.177.355.265.67.265h1.127v1.085h-1.523c-.671 0-1.153-.173-1.445-.521-.292-.347-.438-.924-.438-1.731Zm5.145-3.149h2.795v4.316h1.754v1.085h-4.924v-1.085h1.758v-3.23h-1.383v-1.086Zm1.383-2.628h1.412v1.65h-1.412v-1.65Zm6.823 1.095v1.533h1.845v1.086h-1.845v2.555c0 .241.058.415.173.521.119.103.315.154.588.154h1.084v1.085h-1.185c-.809 0-1.357-.128-1.643-.386-.286-.26-.429-.741-.429-1.441v-2.488h-1.378v-1.086h1.378v-1.533h1.412Zm6.046 7.517c-.189.508-.417.878-.684 1.11a1.398 1.398 0 0 1-.963.352h-1.166v-1.076h.573c.289 0 .501-.049.636-.149.135-.097.272-.323.41-.68l.106-.289-2.053-5.252h1.484l1.234 3.506 1.18-3.506h1.484l-2.241 5.984Z"/>
    <path stroke="#fff" stroke-dasharray="4 4" d="M172.136 334.434H29.603a.549.549 0 0 0-.548.549v27.431c0 .303.245.549.548.549h142.533a.548.548 0 0 0 .548-.549v-27.431a.548.548 0 0 0-.548-.549Z"/>
    <path fill="#0A0A12" d="M172.136 368.998H29.603a.548.548 0 0 0-.548.548v27.432c0 .303.245.548.548.548h142.533a.548.548 0 0 0 .548-.548v-27.432a.548.548 0 0 0-.548-.548Z"/>
    <path fill="#fff" d="M49.868 386.346c-.224.116-.46.203-.708.261a3.465 3.465 0 0 1-.78.087c-.97 0-1.71-.32-2.222-.96-.51-.64-.766-1.564-.766-2.773 0-1.212.256-2.137.766-2.777.511-.64 1.252-.96 2.222-.96.273 0 .534.029.785.087.25.058.485.144.703.26v1.582a2.69 2.69 0 0 0-.713-.492 1.662 1.662 0 0 0-.708-.159c-.52 0-.914.208-1.18.622-.264.412-.396 1.024-.396 1.837 0 .811.132 1.423.396 1.838.266.411.66.617 1.18.617.244 0 .48-.052.708-.154.232-.107.47-.273.713-.497v1.581Zm4.11-2.329c-.526 0-.894.068-1.103.203-.209.135-.313.366-.313.694 0 .244.072.439.217.584.144.144.34.217.587.217.373 0 .662-.14.868-.42.205-.283.308-.676.308-1.181v-.097h-.564Zm1.966-.545v3.082h-1.402v-.603c-.17.238-.389.421-.655.549-.267.129-.56.194-.882.194-.614 0-1.092-.163-1.436-.488-.34-.324-.51-.778-.51-1.359 0-.631.204-1.095.611-1.394.408-.302 1.04-.453 1.894-.453h.978v-.236c0-.229-.084-.401-.25-.517-.164-.118-.407-.178-.728-.178-.337 0-.665.043-.983.13a4.519 4.519 0 0 0-.988.406v-1.206c.312-.129.628-.224.95-.284a5.47 5.47 0 0 1 1.021-.092c.877 0 1.492.178 1.845.535.357.357.535.995.535 1.914Zm2.737 2.32v2.816h-1.407v-7.455h1.407v.81c.148-.312.342-.546.583-.704.24-.158.524-.236.848-.236.616 0 1.095.247 1.435.742.342.496.511 1.193.511 2.093 0 .913-.173 1.614-.52 2.103-.344.488-.835.733-1.474.733-.29 0-.55-.075-.78-.222-.229-.152-.43-.378-.603-.68Zm1.966-1.944c0-.52-.087-.929-.26-1.224-.174-.296-.413-.444-.718-.444-.306 0-.546.148-.723.444-.177.295-.265.704-.265 1.224 0 .522.088.93.265 1.225.177.296.417.444.723.444.305 0 .544-.148.717-.444.174-.295.26-.703.26-1.225Zm5.223.169c-.527 0-.895.068-1.104.203-.208.135-.313.366-.313.694 0 .244.072.439.217.584.144.144.34.217.588.217.373 0 .661-.14.867-.42.206-.283.309-.676.309-1.181v-.097h-.564Zm1.965-.545v3.082h-1.401v-.603c-.17.238-.39.421-.656.549-.267.129-.56.194-.882.194-.613 0-1.092-.163-1.435-.488-.34-.324-.511-.778-.511-1.359 0-.631.204-1.095.612-1.394.407-.302 1.039-.453 1.893-.453h.979v-.236c0-.229-.084-.401-.25-.517-.165-.118-.408-.178-.729-.178-.337 0-.664.043-.983.13a4.518 4.518 0 0 0-.987.406v-1.206c.311-.129.627-.224.949-.284a5.468 5.468 0 0 1 1.021-.092c.877 0 1.492.178 1.846.535.356.357.534.995.534 1.914Zm5.72 2.807a2.93 2.93 0 0 1-.767.309 3.54 3.54 0 0 1-.881.106c-.832 0-1.483-.251-1.952-.753-.468-.501-.703-1.196-.703-2.083 0-.89.236-1.586.708-2.088.473-.505 1.125-.757 1.957-.757.289 0 .567.034.833.102.27.067.538.171.805.313v1.292a2.248 2.248 0 0 0-.68-.405 2.066 2.066 0 0 0-.76-.144c-.46 0-.814.146-1.061.439-.247.292-.37.708-.37 1.248s.123.955.37 1.244c.247.29.6.434 1.06.434.273 0 .529-.045.766-.135.238-.093.463-.233.675-.419v1.297Zm1.898-5.126h2.794v4.315h1.755v1.086h-4.925v-1.086h1.759v-3.23h-1.383v-1.085Zm1.383-2.628h1.411v1.649h-1.411v-1.649Zm6.822 1.095v1.533h1.846v1.085h-1.846v2.556c0 .24.058.414.174.52.119.103.315.154.588.154h1.084v1.086h-1.185c-.81 0-1.358-.129-1.643-.386-.286-.261-.43-.741-.43-1.442v-2.488H80.87v-1.085h1.378v-1.533h1.411Zm6.047 7.517c-.19.508-.417.878-.684 1.109a1.397 1.397 0 0 1-.963.352H86.89v-1.075h.574c.289 0 .501-.05.636-.15.135-.096.271-.323.41-.679l.105-.29-2.052-5.251h1.484l1.233 3.506 1.18-3.506h1.485l-2.24 5.984Zm11.791-5.444c.105-.228.24-.397.404-.506.164-.109.365-.164.603-.164.465 0 .786.161.963.482.18.322.27.99.27 2.006v3.043h-1.157v-3.467c0-.402-.03-.671-.091-.806s-.172-.202-.332-.202c-.161 0-.273.069-.338.207-.064.139-.096.405-.096.801v3.467h-1.142v-3.467c0-.396-.032-.662-.096-.801-.064-.138-.177-.207-.337-.207-.161 0-.272.067-.333.202s-.092.404-.092.806v3.467h-1.156v-5.401h1.026v.56c.08-.213.21-.38.386-.502a.995.995 0 0 1 .592-.188c.219 0 .418.066.598.197a.77.77 0 0 1 .328.473Zm5.993 2.324c-.527 0-.895.068-1.103.203-.209.135-.313.366-.313.694 0 .244.072.439.217.584.144.144.34.217.587.217.373 0 .662-.14.868-.42.205-.283.308-.676.308-1.181v-.097h-.564Zm1.966-.545v3.082h-1.402v-.603c-.17.238-.388.421-.655.549a2 2 0 0 1-.882.194c-.613 0-1.092-.163-1.436-.488-.34-.324-.511-.778-.511-1.359 0-.631.204-1.095.612-1.394.408-.302 1.04-.453 1.894-.453h.978v-.236c0-.229-.084-.401-.251-.517-.163-.118-.406-.178-.727-.178a3.71 3.71 0 0 0-.983.13 4.52 4.52 0 0 0-.988.406v-1.206c.312-.129.628-.224.949-.284a5.48 5.48 0 0 1 1.022-.092c.877 0 1.492.178 1.846.535.356.357.534.995.534 1.914Zm5.768-.424v3.506h-1.403v-3.289c0-.392-.056-.672-.168-.839-.11-.17-.289-.255-.54-.255-.254 0-.454.114-.602.342-.145.228-.217.545-.217.95v3.091h-1.402v-5.401h1.402v.81c.1-.299.27-.53.511-.694.241-.164.531-.246.872-.246.511 0 .896.17 1.156.511.26.338.391.842.391 1.514Zm4.158.969c-.527 0-.895.068-1.104.203-.209.135-.313.366-.313.694 0 .244.072.439.217.584.145.144.34.217.587.217.373 0 .662-.14.868-.42.205-.283.308-.676.308-1.181v-.097h-.563Zm1.966-.545v3.082h-1.403v-.603c-.17.238-.388.421-.655.549a2 2 0 0 1-.882.194c-.613 0-1.092-.163-1.436-.488-.34-.324-.51-.778-.51-1.359 0-.631.203-1.095.612-1.394.408-.302 1.039-.453 1.893-.453h.978v-.236c0-.229-.083-.401-.25-.517-.164-.118-.406-.178-.728-.178a3.71 3.71 0 0 0-.983.13 4.514 4.514 0 0 0-.987.406v-1.206c.311-.129.628-.224.949-.284a5.46 5.46 0 0 1 1.021-.092c.877 0 1.492.178 1.846.535.356.357.535.995.535 1.914Zm4.476.295c0-.483-.092-.868-.275-1.157-.183-.293-.424-.439-.723-.439-.295 0-.534.144-.718.434-.179.289-.27.676-.27 1.162 0 .488.091.877.27 1.167.184.289.423.433.718.433.299 0 .54-.144.723-.433.183-.293.275-.682.275-1.167Zm1.411 2.382c0 .864-.196 1.488-.587 1.871-.389.385-1.022.578-1.899.578a6.066 6.066 0 0 1-1.758-.265v-1.297c.266.147.537.257.814.328.276.07.56.106.853.106.398 0 .692-.095.881-.285.19-.186.285-.479.285-.877v-.584a1.37 1.37 0 0 1-.55.574c-.228.126-.506.188-.833.188-.617 0-1.107-.241-1.47-.723s-.544-1.137-.544-1.963c0-.855.181-1.533.544-2.035.363-.501.85-.752 1.46-.752.308 0 .583.072.824.217.241.145.431.349.569.613v-.69h1.411v4.996Zm5.975.14a5.34 5.34 0 0 1-2.082.405c-.902 0-1.593-.242-2.071-.724-.476-.485-.714-1.183-.714-2.093 0-.88.23-1.576.689-2.088.46-.51 1.086-.766 1.88-.766.799 0 1.419.238 1.859.714.444.472.665 1.139.665 2v.574h-3.657c.003.425.129.742.376.951.247.208.617.313 1.108.313.325 0 .644-.047.959-.14.315-.093.644-.241.988-.444v1.298Zm-1.195-3.039c-.006-.372-.103-.654-.289-.843-.183-.193-.455-.29-.814-.29-.325 0-.584.1-.776.299-.193.196-.307.476-.342.839l2.221-.005Zm5.155-1.557c.106-.228.241-.397.405-.506.164-.109.365-.164.603-.164.465 0 .786.161.963.482.18.322.27.99.27 2.006v3.043h-1.157v-3.467c0-.402-.03-.671-.091-.806s-.172-.202-.332-.202c-.161 0-.273.069-.338.207-.064.139-.096.405-.096.801v3.467h-1.142v-3.467c0-.396-.032-.662-.097-.801-.064-.138-.176-.207-.337-.207-.16 0-.271.067-.332.202s-.092.404-.092.806v3.467h-1.156v-5.401h1.026v.56a1.04 1.04 0 0 1 .386-.502.995.995 0 0 1 .592-.188c.219 0 .418.066.598.197a.77.77 0 0 1 .327.473Zm7.931 4.596a5.296 5.296 0 0 1-2.081.405c-.903 0-1.594-.242-2.072-.724-.476-.485-.713-1.183-.713-2.093 0-.88.23-1.576.688-2.088.46-.51 1.086-.766 1.88-.766.8 0 1.42.238 1.86.714.443.472.665 1.139.665 2v.574h-3.657c.003.425.128.742.375.951.248.208.617.313 1.109.313.324 0 .644-.047.958-.14.315-.093.645-.241.988-.444v1.298Zm-1.195-3.039c-.006-.372-.103-.654-.289-.843-.183-.193-.455-.29-.814-.29-.325 0-.583.1-.776.299-.192.196-.306.476-.342.839l2.221-.005Zm6.992-.202v3.506h-1.403v-3.289c0-.392-.056-.672-.168-.839-.11-.17-.29-.255-.54-.255-.254 0-.455.114-.602.342-.145.228-.217.545-.217.95v3.091h-1.402v-5.401h1.402v.81c.1-.299.27-.53.511-.694.24-.164.531-.246.872-.246.51 0 .896.17 1.156.511.261.338.391.842.391 1.514Zm4.109-3.428v1.533h1.846v1.085h-1.846v2.556c0 .24.058.414.174.52.119.103.315.154.588.154h1.084v1.086h-1.186c-.809 0-1.357-.129-1.643-.386-.286-.261-.428-.741-.428-1.442v-2.488h-1.378v-1.085h1.378v-1.533h1.411Z"/>
    <path stroke="#fff" stroke-dasharray="4 4" d="M172.136 368.998H29.603a.548.548 0 0 0-.548.548v27.432c0 .303.245.548.548.548h142.533a.548.548 0 0 0 .548-.548v-27.432a.548.548 0 0 0-.548-.548Z"/>
    <path fill="#080D19" d="M377.164 333.566H234.631a.549.549 0 0 0-.548.549v27.431c0 .303.246.549.548.549h142.533a.55.55 0 0 0 .549-.549v-27.431a.55.55 0 0 0-.549-.549Z"/>
    <path fill="#fff" d="M278.646 345.119v2.112h.583c.465 0 .791-.079.978-.236.189-.158.284-.431.284-.82 0-.389-.095-.663-.284-.82-.187-.157-.513-.236-.978-.236h-.583Zm-1.422-1.196h1.952c.992 0 1.705.177 2.139.531.437.353.655.927.655 1.721s-.218 1.368-.655 1.721c-.434.354-1.147.531-2.139.531h-.53v2.695h-1.422v-7.199Zm7.03 4.948v-4.167h-1.431v-1.085h2.843v5.252c0 .424.066.724.197.901.132.177.356.265.67.265h1.127v1.085h-1.522c-.672 0-1.153-.173-1.446-.52-.292-.348-.438-.925-.438-1.731Zm7.454-.285c-.527 0-.895.067-1.103.202-.209.135-.314.367-.314.695 0 .244.072.439.217.583.144.145.341.217.588.217.373 0 .662-.14.867-.419.206-.283.309-.677.309-1.182v-.096h-.564Zm1.966-.545v3.081h-1.402v-.603a1.7 1.7 0 0 1-.656.55c-.266.129-.56.193-.881.193-.614 0-1.092-.162-1.436-.487-.341-.325-.511-.778-.511-1.36 0-.63.204-1.094.612-1.393.408-.302 1.039-.454 1.893-.454h.979v-.236c0-.228-.084-.4-.251-.516-.164-.118-.407-.178-.728-.178a3.71 3.71 0 0 0-.983.13 4.578 4.578 0 0 0-.987.405v-1.206a4.89 4.89 0 0 1 .949-.284 5.468 5.468 0 0 1 1.021-.092c.877 0 1.492.179 1.846.536.356.357.535.995.535 1.914Zm5.767-.425v3.506h-1.402v-3.288c0-.393-.056-.672-.169-.839-.109-.171-.289-.256-.539-.256-.254 0-.455.114-.603.343-.144.228-.216.544-.216.949v3.091h-1.403v-5.4h1.403v.81c.099-.299.269-.531.511-.695.24-.164.531-.246.871-.246.511 0 .896.171 1.157.512.26.337.39.842.39 1.513Zm12.277-.404a1.509 1.509 0 0 0-.545-.319 2.093 2.093 0 0 0-.679-.106c-.299 0-.561.053-.786.16a1.16 1.16 0 0 0-.515.453 1.27 1.27 0 0 0-.164.443 5.255 5.255 0 0 0-.043.791v2.488h-1.412v-5.4h1.412v.839c.138-.309.35-.547.636-.714.286-.17.62-.256 1.002-.256.193 0 .38.025.564.073.186.045.363.112.53.202v1.346Zm5.709 3.645a5.373 5.373 0 0 1-1.002.304c-.34.067-.7.101-1.079.101-.903 0-1.593-.241-2.072-.723-.475-.486-.713-1.183-.713-2.093 0-.881.23-1.577.689-2.088.459-.511 1.086-.767 1.879-.767.8 0 1.42.239 1.86.714.443.473.665 1.14.665 2.001v.574h-3.657c.003.425.128.741.376.95.247.209.616.313 1.108.313.324 0 .644-.046.958-.139a4.5 4.5 0 0 0 .988-.444v1.297Zm-1.194-3.038c-.007-.373-.103-.654-.29-.844-.183-.192-.454-.289-.814-.289-.324 0-.583.1-.776.299-.193.196-.307.476-.342.839l2.222-.005Zm5.155-3.631v1.534h1.845v1.085h-1.845v2.555c0 .241.058.415.173.521.119.103.315.154.588.154h1.084v1.085h-1.185c-.81 0-1.357-.128-1.643-.385-.286-.261-.429-.742-.429-1.442v-2.488h-1.378v-1.085h1.378v-1.534h1.412Zm8.167 3.024a1.509 1.509 0 0 0-.545-.319 2.093 2.093 0 0 0-.679-.106c-.299 0-.561.053-.786.16a1.16 1.16 0 0 0-.515.453 1.27 1.27 0 0 0-.164.443 5.255 5.255 0 0 0-.043.791v2.488h-1.412v-5.4h1.412v.839c.138-.309.35-.547.636-.714.286-.17.62-.256 1.002-.256.193 0 .381.025.564.073.186.045.363.112.53.202v1.346Zm3.826 4.493c-.19.508-.418.878-.685 1.11a1.395 1.395 0 0 1-.963.352h-1.166v-1.075h.573c.289 0 .501-.05.636-.15.135-.097.271-.323.409-.68l.107-.289-2.053-5.251h1.484l1.233 3.505 1.181-3.505h1.484l-2.24 5.983Z"/>
    <path stroke="#fff" stroke-width="2" d="M377.164 333.566H234.631a.549.549 0 0 0-.548.549v27.431c0 .303.246.549.548.549h142.533a.55.55 0 0 0 .549-.549v-27.431a.55.55 0 0 0-.549-.549Z"/>
    <path fill="#080D19" d="M377.164 367.581H234.631a.549.549 0 0 0-.548.549v27.431c0 .303.246.549.548.549h142.533a.55.55 0 0 0 .549-.549V368.13a.55.55 0 0 0-.549-.549Z"/>
    <path fill="#fff" d="M278.901 381.979c-.716-.274-1.202-.559-1.455-.858-.254-.303-.381-.708-.381-1.216 0-.652.209-1.165.627-1.538.418-.373.99-.559 1.72-.559a4.3 4.3 0 0 1 .992.116c.331.073.659.184.983.332v1.389a3.906 3.906 0 0 0-.93-.492 2.77 2.77 0 0 0-.934-.169c-.344 0-.608.069-.791.208-.183.138-.274.335-.274.593 0 .199.065.365.198.496.134.129.414.272.838.43l.612.231c.578.212 1.003.494 1.276.844.273.35.41.792.41 1.326 0 .727-.215 1.27-.645 1.63-.428.357-1.075.535-1.942.535a4.56 4.56 0 0 1-1.075-.13 4.731 4.731 0 0 1-1.036-.376V383.3c.379.27.745.471 1.099.603.356.131.708.197 1.055.197.35 0 .622-.078.814-.236.193-.16.289-.384.289-.67a.878.878 0 0 0-.192-.564 1.262 1.262 0 0 0-.559-.386l-.699-.265Zm8.798 2.893a5.396 5.396 0 0 1-1.002.304c-.34.067-.7.101-1.079.101-.903 0-1.593-.241-2.072-.723-.476-.486-.713-1.183-.713-2.093 0-.881.23-1.577.689-2.088.459-.511 1.085-.767 1.879-.767.799 0 1.419.239 1.86.714.443.473.665 1.14.665 2.001v.574h-3.657c.003.425.128.741.375.95.248.209.617.313 1.109.313.324 0 .644-.046.958-.139a4.5 4.5 0 0 0 .988-.444v1.297Zm-1.195-3.038c-.006-.373-.102-.654-.289-.844-.183-.192-.454-.289-.814-.289-.324 0-.583.1-.776.299-.192.196-.307.476-.342.839l2.221-.005Zm6.991-.203v3.506h-1.402v-3.288c0-.393-.056-.672-.168-.839-.109-.171-.29-.256-.54-.256-.254 0-.455.114-.602.343-.145.228-.217.544-.217.949v3.091h-1.402v-5.401h1.402v.811c.1-.299.27-.531.511-.695.24-.164.531-.246.872-.246.51 0 .896.171 1.156.512.26.337.39.842.39 1.513Zm4.597-1.128v-2.869h1.407v7.503h-1.407v-.8c-.151.311-.347.546-.588.704a1.494 1.494 0 0 1-.843.236c-.617 0-1.096-.247-1.436-.743-.34-.495-.51-1.192-.51-2.092 0-.913.171-1.614.515-2.103.347-.488.84-.733 1.479-.733.289 0 .548.076.776.227.231.148.433.371.607.67Zm-1.966 1.948c0 .521.087.929.26 1.225.174.296.413.444.718.444.306 0 .546-.148.723-.444.177-.296.265-.704.265-1.225 0-.521-.088-.929-.265-1.224-.177-.296-.417-.444-.723-.444-.305 0-.544.148-.718.444-.173.295-.26.703-.26 1.224Zm15.356 2.421a5.406 5.406 0 0 1-1.003.304c-.34.067-.7.101-1.079.101-.902 0-1.593-.241-2.072-.723-.475-.486-.712-1.183-.712-2.093 0-.881.229-1.577.688-2.088.46-.511 1.086-.767 1.879-.767.8 0 1.42.239 1.86.714.443.473.665 1.14.665 2.001v.574h-3.657c.004.425.129.741.376.95.247.209.617.313 1.108.313.325 0 .644-.046.959-.139a4.52 4.52 0 0 0 .988-.444v1.297Zm-1.195-3.038c-.007-.373-.103-.654-.289-.844-.183-.192-.455-.289-.815-.289-.324 0-.582.1-.775.299-.193.196-.307.476-.342.839l2.221-.005Zm5.155-1.557c.107-.228.241-.397.405-.507.164-.109.364-.164.602-.164.466 0 .787.161.964.483.18.321.27.99.27 2.005v3.043h-1.156v-3.467c0-.402-.031-.67-.092-.805s-.172-.202-.333-.202c-.16 0-.273.069-.337.207-.064.138-.096.405-.096.8v3.467h-1.142v-3.467c0-.395-.032-.662-.097-.8-.064-.138-.176-.207-.337-.207-.161 0-.271.067-.332.202-.062.135-.092.403-.092.805v3.467h-1.156v-5.401h1.026v.56c.08-.212.209-.38.386-.501a.994.994 0 0 1 .592-.189c.219 0 .418.066.597.198a.76.76 0 0 1 .328.473Zm5.994 2.324c-.527 0-.894.067-1.103.202-.209.135-.313.367-.313.695 0 .244.072.439.216.583.145.145.341.217.589.217.372 0 .661-.14.867-.419.205-.283.308-.677.308-1.182v-.096h-.564Zm1.966-.545v3.081H322v-.603c-.17.238-.389.422-.655.55a2 2 0 0 1-.882.193c-.614 0-1.092-.162-1.436-.487-.341-.325-.51-.778-.51-1.36 0-.63.203-1.094.611-1.393.408-.302 1.039-.454 1.894-.454H322v-.236c0-.228-.084-.4-.251-.516-.164-.119-.406-.178-.727-.178a3.71 3.71 0 0 0-.983.13 4.564 4.564 0 0 0-.988.405v-1.206a4.9 4.9 0 0 1 .95-.284 5.46 5.46 0 0 1 1.021-.092c.877 0 1.492.179 1.845.536.356.357.535.995.535 1.914Zm1.672-2.32h2.794v4.316h1.754v1.085h-4.924v-1.085h1.759v-3.23h-1.383v-1.086Zm1.383-2.627h1.411v1.649h-1.411v-1.649Zm5.362 5.777v-4.167h-1.431v-1.085h2.843v5.252c0 .424.066.724.198.901.131.177.354.265.669.265h1.128v1.085h-1.523c-.671 0-1.153-.173-1.445-.52-.292-.348-.439-.925-.439-1.731Z"/>
    <path stroke="#fff" stroke-width="2" d="M377.164 367.581H234.631a.549.549 0 0 0-.548.549v27.431c0 .303.246.549.548.549h142.533a.55.55 0 0 0 .549-.549V368.13a.55.55 0 0 0-.549-.549Z"/>
    <path fill="#fff" d="M492.002 119.084v2.112h.583c.466 0 .792-.079.978-.236.19-.158.285-.431.285-.82 0-.389-.095-.662-.285-.82-.186-.157-.512-.236-.978-.236h-.583Zm-1.421-1.196h1.951c.993 0 1.706.177 2.139.531.437.353.656.927.656 1.721s-.219 1.368-.656 1.721c-.433.354-1.146.531-2.139.531h-.53v2.695h-1.421v-7.199Zm5.936 5.314v-3.515h1.411v3.298c0 .389.055.667.164.834.109.167.291.251.545.251a.664.664 0 0 0 .592-.338c.145-.225.217-.54.217-.945v-3.1h1.412v5.4h-1.412v-.8a1.31 1.31 0 0 1-.511.694c-.237.164-.525.246-.862.246-.514 0-.903-.17-1.166-.511-.26-.341-.39-.846-.39-1.514Zm9.27-.801c0-.52-.087-.929-.26-1.224-.174-.296-.413-.444-.718-.444s-.546.148-.723.444c-.177.295-.265.704-.265 1.224 0 .521.088.93.265 1.225.177.296.418.444.723.444s.544-.148.718-.444c.173-.295.26-.704.26-1.225Zm-1.966-1.947c.173-.299.374-.523.603-.671.231-.151.491-.226.78-.226.639 0 1.131.244 1.474.733.347.488.521 1.189.521 2.102 0 .9-.17 1.597-.511 2.092-.341.496-.819.743-1.436.743a1.52 1.52 0 0 1-.848-.236c-.241-.158-.435-.393-.583-.704v.8h-1.407v-7.503h1.407v2.87Zm8.591-.598v1.234a3.184 3.184 0 0 0-.814-.376 2.826 2.826 0 0 0-.843-.13c-.315 0-.553.046-.714.139a.438.438 0 0 0-.241.405c0 .258.344.467 1.031.627l.054.015.404.096c.514.123.89.32 1.128.593.241.27.361.637.361 1.1 0 .556-.183.974-.549 1.253-.363.277-.911.415-1.643.415a6.985 6.985 0 0 1-2.033-.337v-1.235c.311.177.627.312.949.405.324.094.637.14.939.14.331 0 .582-.048.752-.145a.457.457 0 0 0 .255-.419.498.498 0 0 0-.183-.415c-.119-.096-.404-.199-.857-.308l-.391-.087c-.54-.123-.933-.313-1.18-.574-.248-.261-.371-.609-.371-1.046 0-.521.187-.926.564-1.215.376-.29.904-.434 1.585-.434.305 0 .608.025.91.077.305.048.601.122.887.222Zm1.942 3.346v-3.515h1.411v3.298c0 .389.055.667.164.834.109.167.291.251.545.251a.664.664 0 0 0 .592-.338c.145-.225.217-.54.217-.945v-3.1h1.412v5.4h-1.412v-.8c-.099.299-.269.53-.511.694a1.481 1.481 0 0 1-.862.246c-.514 0-.903-.17-1.166-.511-.26-.341-.39-.846-.39-1.514Zm9.27-.801c0-.52-.087-.929-.26-1.224-.174-.296-.413-.444-.718-.444-.306 0-.546.148-.723.444-.177.295-.265.704-.265 1.224 0 .521.088.93.265 1.225.177.296.417.444.723.444.305 0 .544-.148.718-.444.173-.295.26-.704.26-1.225Zm-1.966-1.947c.174-.299.374-.523.602-.671a1.4 1.4 0 0 1 .781-.226c.639 0 1.13.244 1.474.733.347.488.52 1.189.52 2.102 0 .9-.169 1.597-.51 2.092-.34.496-.819.743-1.436.743a1.52 1.52 0 0 1-.848-.236c-.241-.158-.435-.393-.583-.704v.8h-1.407v-7.503h1.407v2.87ZM507.25 149.615a.548.548 0 0 0 .775 0l3.488-3.492a.546.546 0 0 0 0-.775.546.546 0 0 0-.775 0l-3.101 3.103-3.101-3.103a.546.546 0 0 0-.775 0 .546.546 0 0 0 0 .775l3.489 3.492Zm-.161-16.847v16.459h1.096v-16.459h-1.096ZM480.774 206.833h-4.481v-7.199h4.481v1.253h-3.059v1.553h2.771v1.254h-2.771v1.885h3.059v1.254Zm6.211-5.401-1.715 5.401h-1.74l-1.715-5.401h1.431l1.152 4.215 1.156-4.215h1.431Zm5.7 5.136a5.318 5.318 0 0 1-2.081.405c-.903 0-1.594-.242-2.072-.723-.476-.486-.713-1.184-.713-2.093 0-.881.23-1.577.688-2.088.46-.511 1.086-.767 1.88-.767.8 0 1.42.238 1.86.714.443.472.665 1.139.665 2.001v.574h-3.657c.003.424.128.741.375.95.247.208.617.313 1.109.313.324 0 .644-.046.958-.14.315-.093.645-.241.988-.444v1.298Zm-1.195-3.038c-.006-.373-.103-.654-.289-.844-.183-.193-.455-.289-.814-.289-.325 0-.583.1-.776.299-.192.196-.306.475-.342.839l2.221-.005Zm6.991-.203v3.506h-1.402v-3.289c0-.392-.056-.672-.168-.838-.11-.171-.29-.256-.54-.256-.254 0-.455.114-.602.342-.145.229-.217.545-.217.95v3.091h-1.402v-5.401h1.402v.811c.1-.299.27-.531.511-.695.24-.164.531-.246.872-.246.51 0 .896.17 1.156.512.261.337.39.842.39 1.513Zm4.11-3.428v1.533h1.846v1.085h-1.846v2.556c0 .241.058.415.174.521.119.103.315.154.588.154h1.084v1.085h-1.186c-.809 0-1.357-.128-1.643-.386-.286-.26-.428-.741-.428-1.442v-2.488h-1.378v-1.085h1.378v-1.533h1.411Zm13.342 1.702v1.235a3.145 3.145 0 0 0-.815-.377 2.849 2.849 0 0 0-.843-.13c-.314 0-.552.047-.712.14a.437.437 0 0 0-.242.405c0 .257.344.466 1.032.627l.053.014.404.097c.514.122.89.32 1.128.593.241.27.361.636.361 1.099 0 .557-.183.974-.549 1.254-.363.277-.911.415-1.643.415-.325 0-.657-.029-.998-.087a6.978 6.978 0 0 1-1.035-.251v-1.234c.311.177.627.312.949.405a3.4 3.4 0 0 0 .939.14c.331 0 .582-.048.752-.145a.458.458 0 0 0 .255-.42.496.496 0 0 0-.183-.414c-.119-.097-.404-.2-.857-.309l-.391-.087c-.54-.122-.933-.313-1.18-.573-.248-.261-.371-.609-.371-1.047 0-.52.188-.926.564-1.215.375-.289.904-.434 1.584-.434.306 0 .609.026.912.078.304.047.6.121.886.221Zm4.495-1.702v1.533h1.846v1.085h-1.846v2.556c0 .241.058.415.173.521.119.103.316.154.589.154h1.084v1.085h-1.186c-.809 0-1.357-.128-1.643-.386-.285-.26-.428-.741-.428-1.442v-2.488h-1.379v-1.085h1.379v-1.533h1.411Zm5.589 2.551c-.337 0-.602.149-.795.448-.192.296-.289.709-.289 1.24 0 .53.097.945.289 1.243.193.297.458.444.795.444a.903.903 0 0 0 .8-.444c.193-.298.29-.713.29-1.243 0-.531-.097-.944-.29-1.24-.192-.299-.459-.448-.8-.448Zm-2.495 1.688c0-.872.225-1.561.674-2.069.453-.511 1.06-.767 1.821-.767.765 0 1.372.256 1.822.767.453.508.679 1.197.679 2.069 0 .871-.226 1.562-.679 2.073-.45.508-1.057.762-1.822.762-.761 0-1.368-.254-1.821-.762-.449-.511-.674-1.202-.674-2.073Zm11.019-1.216a1.521 1.521 0 0 0-.545-.318 2.067 2.067 0 0 0-.679-.106c-.299 0-.561.053-.785.159a1.164 1.164 0 0 0-.516.453c-.077.123-.132.27-.164.444a5.255 5.255 0 0 0-.043.791v2.488h-1.412v-5.401h1.412v.84c.138-.309.35-.547.636-.714.286-.171.62-.256 1.002-.256.193 0 .38.024.564.073.186.045.362.112.53.202v1.345Zm5.709 3.646a5.296 5.296 0 0 1-2.081.405c-.903 0-1.593-.242-2.072-.723-.475-.486-.713-1.184-.713-2.093 0-.881.23-1.577.689-2.088.459-.511 1.086-.767 1.879-.767.8 0 1.42.238 1.86.714.443.472.665 1.139.665 2.001v.574h-3.657c.003.424.128.741.376.95.247.208.616.313 1.108.313.324 0 .644-.046.958-.14.316-.093.645-.241.988-.444v1.298Zm-1.194-3.038c-.007-.373-.103-.654-.29-.844-.183-.193-.454-.289-.814-.289-.324 0-.583.1-.776.299-.193.196-.307.475-.342.839l2.222-.005ZM504.321 361.116v4.634h.385c.559 0 .957-.175 1.195-.526.238-.353.357-.953.357-1.798 0-.84-.119-1.434-.357-1.784-.238-.351-.636-.526-1.195-.526h-.385Zm-1.422-1.283h1.523c1.176 0 2.022.282 2.54.844.517.56.775 1.475.775 2.749 0 1.276-.258 2.197-.775 2.763-.518.562-1.364.843-2.54.843h-1.523v-7.199Zm7.262 3.93v2.132h.944c.453 0 .769-.078.949-.232.184-.154.275-.423.275-.805 0-.389-.095-.669-.284-.839-.19-.171-.503-.256-.94-.256h-.944Zm0-2.806v1.673h.944c.36 0 .615-.065.766-.193.154-.128.232-.341.232-.636 0-.296-.079-.51-.237-.642-.154-.135-.407-.202-.761-.202h-.944Zm-1.373-1.134h2.317c.8 0 1.401.154 1.802.459.405.302.607.755.607 1.36 0 .463-.119.824-.357 1.084-.237.261-.586.412-1.045.454.549.054.962.239 1.238.554.28.315.42.756.42 1.321 0 .695-.209 1.198-.627 1.509-.418.313-1.097.468-2.038.468h-2.317v-7.209Z"/>
    <path fill="#080D19" stroke="#fff" stroke-width="2" d="M578.904 80.1H436.37a.549.549 0 0 0-.548.548v27.432c0 .303.246.548.548.548h142.534a.548.548 0 0 0 .548-.548V80.648a.549.549 0 0 0-.548-.548Z"/>
    <path stroke="#fff" d="M453.639 79.551v29.626M471.839 79.551v29.626M489.93 79.551v29.626M508.021 79.551v29.626M526.112 79.551v29.626M544.202 79.551v29.626M562.293 79.551v29.626"/>
    <path fill="#fff" d="M.548 211.222H.274v.274h.274v-.274Zm0-106.983v-.274H.274v.274h.274Zm16.64.195a.276.276 0 0 0 0-.389l-1.744-1.746a.274.274 0 1 0-.388.389l1.55 1.551-1.55 1.552a.274.274 0 0 0 .388.388l1.744-1.745Zm-.194-.469h-.88v.549h.88v-.549Zm-3.23 0h-1.762v.549h1.762v-.549Zm-4.112 0H7.89v.549h1.762v-.549Zm-4.111 0H3.779v.549H5.54v-.549Zm-4.112 0H.55v.549h.88v-.549Zm-1.155.274v.819h.548v-.819H.274Zm0 3.003v1.637h.548v-1.637H.274Zm0 3.82v1.638h.548v-1.638H.274Zm0 3.821v1.637h.548v-1.637H.274Zm0 3.821v1.637h.548v-1.637H.274Zm0 3.821v1.637h.548v-1.637H.274Zm0 3.82v1.638h.548v-1.638H.274Zm0 3.821v1.638h.548v-1.638H.274Zm0 3.821v1.638h.548v-1.638H.274Zm0 3.821v1.637h.548v-1.637H.274Zm0 3.821v1.637h.548v-1.637H.274Zm0 3.821v1.637h.548v-1.637H.274Zm0 3.82v1.638h.548v-1.638H.274Zm0 3.821v1.638h.548v-1.638H.274Zm0 3.821v.819h.548v-.819H.274Zm0 .819v.818h.548v-.818H.274Zm0 3.002v1.637h.548v-1.637H.274Zm0 3.82v1.638h.548v-1.638H.274Zm0 3.822v1.637h.548v-1.637H.274Zm0 3.82v1.637h.548v-1.637H.274Zm0 3.821v1.638h.548v-1.638H.274Zm0 3.821v1.637h.548v-1.637H.274Zm0 3.821v1.637h.548v-1.637H.274Zm0 3.82v1.638h.548v-1.638H.274Zm0 3.821v1.638h.548v-1.638H.274Zm0 3.821v1.637h.548v-1.637H.274Zm0 3.821v1.637h.548v-1.637H.274Zm0 3.821v1.637h.548v-1.637H.274Zm0 3.82v1.638h.548v-1.638H.274Zm0 3.821v.819h.548v-.819H.274Zm.274 1.093h.881v-.548H.55v.548Zm3.23 0h1.763v-.548H3.779v.548Zm4.112 0h1.762v-.548H7.89v.548Zm4.112 0h1.762v-.548h-1.762v.548Zm4.111 0h.881v-.548h-.88v.548Zm-15.565-.274H0v.549h.548v-.549Zm0-106.983v-.548H0v.548h.548Zm16.834.388a.548.548 0 0 0 0-.775l-3.489-3.492a.548.548 0 1 0-.775.776l3.101 3.103-3.101 3.104a.55.55 0 0 0 .775.776l3.489-3.492Zm-.388-.936h-.88v1.097h.88v-1.097Zm-3.23 0h-1.762v1.097h1.762v-1.097Zm-4.112 0H7.89v1.097h1.762v-1.097Zm-4.111 0H3.779v1.097H5.54v-1.097Zm-4.112 0H.55v1.097h.88v-1.097ZM0 104.239v.819h1.096v-.819H0Zm0 3.003v1.637h1.096v-1.637H0Zm0 3.82v1.638h1.096v-1.638H0Zm0 3.821v1.637h1.096v-1.637H0Zm0 3.821v1.637h1.096v-1.637H0Zm0 3.821v1.637h1.096v-1.637H0Zm0 3.82v1.638h1.096v-1.638H0Zm0 3.821v1.638h1.096v-1.638H0Zm0 3.821v1.638h1.096v-1.638H0Zm0 3.821v1.637h1.096v-1.637H0Zm0 3.821v1.637h1.096v-1.637H0Zm0 3.821v1.637h1.096v-1.637H0Zm0 3.82v1.638h1.096v-1.638H0Zm0 3.821v1.638h1.096v-1.638H0Zm0 3.821v.819h1.096v-.819H0Zm0 .819v.818h1.096v-.818H0Zm0 3.002v1.637h1.096v-1.637H0Zm0 3.82v1.638h1.096v-1.638H0Zm0 3.822v1.637h1.096v-1.637H0Zm0 3.82v1.637h1.096v-1.637H0Zm0 3.821v1.638h1.096v-1.638H0Zm0 3.821v1.637h1.096v-1.637H0Zm0 3.821v1.637h1.096v-1.637H0Zm0 3.82v1.638h1.096v-1.638H0Zm0 3.821v1.638h1.096v-1.638H0Zm0 3.821v1.637h1.096v-1.637H0Zm0 3.821v1.637h1.096v-1.637H0Zm0 3.821v1.637h1.096v-1.637H0Zm0 3.82v1.638h1.096v-1.638H0Zm0 3.821v.819h1.096v-.819H0Zm.548 1.368h.881v-1.098H.55v1.098Zm3.23 0h1.763v-1.098H3.779v1.098Zm4.112 0h1.762v-1.098H7.89v1.098Zm4.112 0h1.762v-1.098h-1.762v1.098Zm4.111 0h.881v-1.098h-.88v1.098Z" opacity=".6"/>
    <path fill="#fff" d="M100.321 46.633v-.548h-.548v.548h.548Zm-.387 16.847a.547.547 0 0 0 .775 0l3.489-3.491a.549.549 0 0 0-.775-.776l-3.102 3.103-3.1-3.103a.547.547 0 1 0-.776.776l3.489 3.491Zm407.703-16.847h.548v-.548h-.548v.548Zm-.387 16.847a.547.547 0 0 0 .775 0l3.488-3.491a.547.547 0 1 0-.775-.776l-3.101 3.103-3.101-3.103a.547.547 0 1 0-.775.776l3.489 3.491ZM99.773 46.633v16.46h1.097v-16.46h-1.097Zm407.316 0v16.46h1.096v-16.46h-1.096Zm-406.768.549h203.658v-1.097H100.321v1.097Zm203.658 0h203.658v-1.097H303.979v1.097Z"/>
    <path stroke="#fff" stroke-width="2" d="M306.994 36.21v10.972"/>
    <path fill="#000" fill-rule="evenodd" d="M522.987 161.25h-30.151v25.33c0 2.398 6.749 4.343 15.075 4.343s15.076-1.945 15.076-4.343v-25.33Z" clip-rule="evenodd"/>
    <mask id="b" width="31" height="30" x="492" y="161" maskUnits="userSpaceOnUse" style="mask-type:luminance">
      <path fill="#fff" fill-rule="evenodd" d="M522.987 161.25h-30.151v25.33c0 2.398 6.749 4.343 15.075 4.343s15.076-1.945 15.076-4.343v-25.33Z" clip-rule="evenodd"/>
    </mask>
    <g mask="url(#b)">
      <path fill="#fff" d="M492.836 161.25v-1.097h-1.097v1.097h1.097Zm30.151 0h1.096v-1.097h-1.096v1.097Zm-30.151 1.097h30.151v-2.194h-30.151v2.194Zm1.096 24.233v-25.33h-2.193v25.33h2.193Zm13.979 3.245c-4.09 0-7.752-.479-10.357-1.228-1.309-.378-2.289-.806-2.917-1.234-.664-.452-.705-.736-.705-.783h-2.193c0 1.153.803 2.011 1.664 2.598.898.611 2.126 1.119 3.545 1.527 2.852.822 6.728 1.315 10.963 1.315v-2.195Zm13.979-3.245c0 .047-.04.331-.705.783-.627.428-1.607.856-2.917 1.234-2.605.749-6.267 1.228-10.357 1.228v2.195c4.236 0 8.111-.493 10.964-1.315 1.418-.408 2.646-.916 3.544-1.527.861-.587 1.664-1.445 1.664-2.598h-2.193Zm0-25.33v25.33h2.193v-25.33h-2.193Z"/>
    </g>
    <path fill="#000" stroke="#fff" stroke-width="2" d="M522.439 161.25c0 .323-.232.751-.945 1.237-.696.473-1.738.921-3.074 1.307-2.667.767-6.382 1.25-10.509 1.25-4.127 0-7.842-.483-10.508-1.25-1.337-.386-2.379-.834-3.074-1.307-.714-.486-.945-.914-.945-1.237 0-.323.231-.75.945-1.236.695-.474 1.737-.922 3.074-1.307 2.666-.768 6.381-1.251 10.508-1.251 4.127 0 7.842.483 10.509 1.251 1.336.385 2.378.833 3.074 1.307.713.486.945.913.945 1.236Z"/>
    <mask id="c" width="31" height="5" x="492" y="170" maskUnits="userSpaceOnUse" style="mask-type:alpha">
      <path fill="#080D19" d="M522.987 170.075h-30.151v4.389h30.151v-4.389Z"/>
    </mask>
    <g mask="url(#c)">
      <path fill="#000" stroke="#fff" stroke-width="2" d="M522.439 170.028c0 .323-.232.751-.946 1.237-.695.473-1.737.921-3.073 1.307-2.667.767-6.382 1.25-10.509 1.25-4.127 0-7.842-.483-10.508-1.25-1.337-.386-2.379-.834-3.074-1.307-.714-.486-.945-.914-.945-1.237 0-.323.231-.75.945-1.236.695-.474 1.737-.922 3.074-1.307 2.666-.768 6.381-1.251 10.508-1.251 4.127 0 7.842.483 10.509 1.251 1.336.385 2.378.833 3.073 1.307.714.486.946.913.946 1.236Z"/>
    </g>
    <mask id="d" width="31" height="6" x="492" y="178" maskUnits="userSpaceOnUse" style="mask-type:alpha">
      <path fill="#D9D9D9" d="M522.987 178.853h-30.151v4.389h30.151v-4.389Z"/>
    </mask>
    <g mask="url(#d)">
      <path fill="#000" stroke="#fff" stroke-width="2" d="M522.439 178.806c0 .323-.232.751-.946 1.237-.695.473-1.737.922-3.073 1.307-2.667.767-6.382 1.25-10.509 1.25-4.127 0-7.842-.483-10.508-1.25-1.337-.385-2.379-.834-3.074-1.307-.714-.486-.945-.914-.945-1.237 0-.323.231-.75.945-1.236.695-.474 1.737-.922 3.074-1.307 2.666-.768 6.381-1.251 10.508-1.251 4.127 0 7.842.483 10.509 1.251 1.336.385 2.378.833 3.073 1.307.714.486.946.913.946 1.236Z"/>
    </g>
    <path fill="#000" fill-rule="evenodd" d="M522.987 320.352h-30.151v25.331c0 2.398 6.749 4.342 15.075 4.342s15.076-1.944 15.076-4.342v-25.331Z" clip-rule="evenodd"/>
    <mask id="e" width="31" height="31" x="492" y="320" maskUnits="userSpaceOnUse" style="mask-type:luminance">
      <path fill="#fff" fill-rule="evenodd" d="M522.987 320.352h-30.151v25.331c0 2.398 6.749 4.342 15.075 4.342s15.076-1.944 15.076-4.342v-25.331Z" clip-rule="evenodd"/>
    </mask>
    <g mask="url(#e)">
      <path fill="#fff" d="M492.836 320.352v-1.097h-1.097v1.097h1.097Zm30.151 0h1.096v-1.097h-1.096v1.097Zm-30.151 1.098h30.151v-2.195h-30.151v2.195Zm1.096 24.233v-25.331h-2.193v25.331h2.193Zm13.979 3.245c-4.09 0-7.752-.479-10.357-1.229-1.309-.378-2.289-.806-2.917-1.234-.664-.452-.705-.736-.705-.782h-2.193c0 1.152.803 2.01 1.664 2.597.898.611 2.126 1.119 3.545 1.528 2.852.821 6.728 1.314 10.963 1.314v-2.194Zm13.979-3.245c0 .046-.04.33-.705.782-.627.428-1.607.856-2.917 1.234-2.605.75-6.267 1.229-10.357 1.229v2.194c4.236 0 8.111-.493 10.964-1.314 1.418-.409 2.646-.917 3.544-1.528.861-.587 1.664-1.445 1.664-2.597h-2.193Zm0-25.331v25.331h2.193v-25.331h-2.193Z"/>
    </g>
    <path fill="#000" stroke="#fff" stroke-width="2" d="M522.439 320.352c0 .323-.232.751-.945 1.237-.696.473-1.738.922-3.074 1.307-2.667.767-6.382 1.25-10.509 1.25-4.127 0-7.842-.483-10.508-1.25-1.337-.385-2.379-.834-3.074-1.307-.714-.486-.945-.914-.945-1.237 0-.323.231-.75.945-1.236.695-.474 1.737-.922 3.074-1.307 2.666-.768 6.381-1.25 10.508-1.25 4.127 0 7.842.482 10.509 1.25 1.336.385 2.378.833 3.074 1.307.713.486.945.913.945 1.236Z"/>
    <mask id="f" width="31" height="5" x="492" y="329" maskUnits="userSpaceOnUse" style="mask-type:alpha">
      <path fill="#080D19" d="M522.987 329.177h-30.151v4.389h30.151v-4.389Z"/>
    </mask>
    <g mask="url(#f)">
      <path fill="#000" stroke="#fff" stroke-width="2" d="M522.439 329.13c0 .324-.232.751-.946 1.237-.695.473-1.737.922-3.073 1.307-2.667.767-6.382 1.25-10.509 1.25-4.127 0-7.842-.483-10.508-1.25-1.337-.385-2.379-.834-3.074-1.307-.714-.486-.945-.913-.945-1.237 0-.323.231-.75.945-1.236.695-.474 1.737-.922 3.074-1.307 2.666-.768 6.381-1.25 10.508-1.25 4.127 0 7.842.482 10.509 1.25 1.336.385 2.378.833 3.073 1.307.714.486.946.913.946 1.236Z"/>
    </g>
    <mask id="g" width="31" height="6" x="492" y="337" maskUnits="userSpaceOnUse" style="mask-type:alpha">
      <path fill="#D9D9D9" d="M522.987 337.955h-30.151v4.389h30.151v-4.389Z"/>
    </mask>
    <g mask="url(#g)">
      <path fill="#000" stroke="#fff" stroke-width="2" d="M522.439 337.908c0 .324-.232.751-.946 1.237-.695.474-1.737.922-3.073 1.307-2.667.767-6.382 1.25-10.509 1.25-4.127 0-7.842-.483-10.508-1.25-1.337-.385-2.379-.833-3.074-1.307-.714-.486-.945-.913-.945-1.237 0-.323.231-.75.945-1.236.695-.474 1.737-.922 3.074-1.307 2.666-.768 6.381-1.25 10.508-1.25 4.127 0 7.842.482 10.509 1.25 1.336.385 2.378.833 3.073 1.307.714.486.946.913.946 1.236Z"/>
    </g>
  </g>
  <defs>
    <clipPath id="a">
      <path fill="#fff" d="M0 0h580v440H0z"/>
    </clipPath>
  </defs>
</svg>
