<svg width="397" height="129" viewBox="0 0 397 129" fill="none" xmlns="http://www.w3.org/2000/svg">
  <path opacity="0.2" fill-rule="evenodd" clip-rule="evenodd"
    d="M-35.1983 65.9428C1.98405 46.4578 22.3926 27.0463 33.5099 12.4773C39.0681 5.19339 42.3015 -0.877187 44.1471 -5.13661C45.0698 -7.26616 45.6454 -8.94251 45.9911 -10.0909C46.1639 -10.665 46.2793 -11.1072 46.3519 -11.4079C46.3882 -11.5583 46.4137 -11.6733 46.4304 -11.7518C46.4388 -11.7911 46.4449 -11.8212 46.4491 -11.8421L46.4538 -11.8664L46.4551 -11.8732L46.4555 -11.8754C46.4557 -11.8761 46.4558 -11.8766 45.9641 -11.9677C45.4758 -12.0581 45.4726 -12.059 45.4726 -12.0591L45.4725 -12.0586L45.4718 -12.0549L45.4683 -12.0371C45.465 -12.0206 45.4598 -11.9948 45.4523 -11.9599C45.4375 -11.8902 45.4139 -11.784 45.3798 -11.6424C45.3115 -11.3594 45.2009 -10.9352 45.0335 -10.3791C44.6987 -9.26699 44.1364 -7.6272 43.2295 -5.53419C41.4159 -1.34848 38.2234 4.6518 32.7149 11.8707C21.6985 26.3075 1.40977 45.6298 -35.6625 65.0571C-72.8449 84.5421 -93.2535 103.954 -104.371 118.523C-109.929 125.807 -113.162 131.877 -115.008 136.137C-115.931 138.266 -116.506 139.942 -116.852 141.091C-117.025 141.665 -117.14 142.107 -117.213 142.408C-117.249 142.558 -117.275 142.673 -117.291 142.752C-117.3 142.791 -117.306 142.821 -117.31 142.842L-117.315 142.866L-117.316 142.873L-117.316 142.875C-117.317 142.876 -117.317 142.877 -116.825 142.968C-116.333 143.059 -116.333 143.059 -116.333 143.059L-116.333 143.058L-116.333 143.055L-116.329 143.037C-116.326 143.021 -116.321 142.995 -116.313 142.96C-116.298 142.89 -116.275 142.784 -116.241 142.642C-116.172 142.359 -116.062 141.935 -115.894 141.379C-115.56 140.267 -114.997 138.627 -114.09 136.534C-112.277 132.348 -109.084 126.348 -103.576 119.129C-92.5593 104.692 -72.2706 85.3701 -35.1983 65.9428ZM-25.2025 65.9428C11.9799 46.4578 32.3885 27.0463 43.5057 12.4773C49.0639 5.19339 52.2973 -0.877187 54.1429 -5.13661C55.0656 -7.26616 55.6412 -8.94251 55.9869 -10.0909C56.1598 -10.665 56.2751 -11.1072 56.3477 -11.4079C56.384 -11.5583 56.4095 -11.6733 56.4263 -11.7518C56.4346 -11.7911 56.4408 -11.8212 56.4449 -11.8421L56.4496 -11.8664L56.451 -11.8732L56.4514 -11.8754C56.4515 -11.8761 56.4516 -11.8766 55.96 -11.9677C55.4716 -12.0581 55.4684 -12.059 55.4684 -12.0591L55.4683 -12.0586L55.4676 -12.0549L55.4641 -12.0371C55.4608 -12.0206 55.4556 -11.9948 55.4482 -11.9599C55.4333 -11.8902 55.4097 -11.784 55.3756 -11.6424C55.3073 -11.3594 55.1968 -10.9352 55.0294 -10.3791C54.6945 -9.26699 54.1322 -7.6272 53.2253 -5.53419C51.4117 -1.34848 48.2193 4.6518 42.7107 11.8707C31.6943 26.3075 11.4056 45.6298 -25.6667 65.0571C-62.8491 84.5421 -83.2577 103.954 -94.3749 118.523C-99.9331 125.807 -103.167 131.877 -105.012 136.137C-105.935 138.266 -106.51 139.942 -106.856 141.091C-107.029 141.665 -107.144 142.107 -107.217 142.408C-107.253 142.558 -107.279 142.673 -107.295 142.752L-107.304 142.791L-107.314 142.842L-107.319 142.866L-107.32 142.873L-107.321 142.875C-107.321 142.876 -107.321 142.877 -106.829 142.968C-106.338 143.059 -106.338 143.059 -106.338 143.059L-106.338 143.058L-106.337 143.055L-106.333 143.037C-106.33 143.021 -106.325 142.995 -106.317 142.96C-106.303 142.89 -106.279 142.784 -106.245 142.642C-106.177 142.359 -106.066 141.935 -105.899 141.379C-105.564 140.267 -105.001 138.627 -104.095 136.534C-102.281 132.348 -99.0885 126.348 -93.5799 119.129C-82.5635 104.692 -62.2748 85.3701 -25.2025 65.9428ZM53.5015 12.4773C42.3843 27.0463 21.9757 46.4578 -15.2067 65.9428C-52.279 85.3701 -72.5677 104.692 -83.5841 119.129C-89.0927 126.348 -92.2851 132.348 -94.0987 136.534C-95.0056 138.627 -95.5679 140.267 -95.9028 141.379C-96.0702 141.935 -96.1807 142.359 -96.249 142.642C-96.2831 142.784 -96.3067 142.89 -96.3215 142.96C-96.329 142.995 -96.3342 143.021 -96.3375 143.037L-96.341 143.055L-96.3417 143.058L-96.3418 143.059C-96.3418 143.059 -96.3417 143.059 -96.8333 142.968C-97.325 142.877 -97.3249 142.876 -97.3248 142.875L-97.3244 142.873L-97.323 142.866L-97.3183 142.842L-97.3112 142.807L-97.2997 142.752C-97.2829 142.673 -97.2574 142.558 -97.2211 142.408C-97.1485 142.107 -97.0332 141.665 -96.8603 141.091C-96.5146 139.942 -95.939 138.266 -95.0163 136.137C-93.1707 131.877 -89.9373 125.807 -84.3791 118.523C-73.2618 103.954 -52.8533 84.5421 -15.6709 65.0571C21.4014 45.6298 41.6901 26.3075 52.7065 11.8707C58.2151 4.6518 61.4075 -1.34848 63.2212 -5.53419C64.1281 -7.6272 64.6904 -9.26699 65.0252 -10.3791C65.1926 -10.9352 65.3031 -11.3594 65.3714 -11.6424C65.4056 -11.784 65.4291 -11.8902 65.444 -11.9599C65.4514 -11.9948 65.4566 -12.0206 65.4599 -12.0371L65.4634 -12.0549L65.4641 -12.0586L65.4642 -12.0591C65.4642 -12.059 65.4674 -12.0581 65.9558 -11.9677C66.4474 -11.8766 66.4473 -11.8761 66.4472 -11.8754L66.4468 -11.8732L66.4455 -11.8664L66.4407 -11.8421C66.4366 -11.8212 66.4304 -11.7911 66.4221 -11.7518C66.4054 -11.6733 66.3798 -11.5583 66.3435 -11.4079C66.271 -11.1072 66.1556 -10.665 65.9827 -10.0909C65.637 -8.94251 65.0614 -7.26616 64.1387 -5.13661C62.2932 -0.877187 59.0597 5.19339 53.5015 12.4773ZM-5.21088 65.9428C31.9715 46.4578 52.3801 27.0463 63.4973 12.4773C69.0555 5.19339 72.289 -0.877187 74.1346 -5.13661C75.0573 -7.26616 75.6328 -8.94251 75.9786 -10.0909C76.1514 -10.665 76.2668 -11.1072 76.3393 -11.4079C76.3756 -11.5583 76.4012 -11.6733 76.4179 -11.7518C76.4263 -11.7911 76.4324 -11.8212 76.4365 -11.8421L76.4413 -11.8664L76.4426 -11.8732L76.443 -11.8754C76.4431 -11.8761 76.4433 -11.8766 75.9516 -11.9677C75.4632 -12.0581 75.46 -12.059 75.46 -12.0591L75.4599 -12.0586L75.4592 -12.0549L75.4557 -12.0371C75.4525 -12.0206 75.4472 -11.9948 75.4398 -11.9599C75.425 -11.8902 75.4014 -11.784 75.3672 -11.6424C75.299 -11.3594 75.1884 -10.9352 75.021 -10.3791C74.6862 -9.26699 74.1239 -7.6272 73.217 -5.53419C71.4034 -1.34848 68.2109 4.6518 62.7023 11.8707C51.686 26.3075 31.3972 45.6298 -5.67504 65.0571C-42.8574 84.5421 -63.266 103.954 -74.3832 118.523C-79.9415 125.807 -83.1749 131.877 -85.0205 136.137C-85.9432 138.266 -86.5188 139.942 -86.8645 141.091C-87.0373 141.665 -87.1527 142.107 -87.2253 142.408C-87.2615 142.558 -87.2871 142.673 -87.3038 142.752C-87.3122 142.791 -87.3183 142.821 -87.3225 142.842L-87.3272 142.866L-87.3285 142.873L-87.3289 142.875C-87.3291 142.876 -87.3292 142.877 -86.8375 142.968C-86.3459 143.059 -86.3459 143.059 -86.3459 143.059L-86.3459 143.058L-86.3452 143.055L-86.3417 143.037L-86.3359 143.008L-86.3257 142.96C-86.3109 142.89 -86.2873 142.784 -86.2532 142.642C-86.1849 142.359 -86.0743 141.935 -85.9069 141.379C-85.5721 140.267 -85.0098 138.627 -84.1029 136.534C-82.2893 132.348 -79.0968 126.348 -73.5883 119.129C-62.5719 104.692 -42.2832 85.3701 -5.21088 65.9428ZM73.4932 12.4773C62.3759 27.0463 41.9673 46.4578 4.78495 65.9428C-32.2873 85.3701 -52.576 104.692 -63.5924 119.129C-69.101 126.348 -72.2935 132.348 -74.1071 136.534C-75.014 138.627 -75.5763 140.267 -75.9111 141.379C-76.0785 141.935 -76.189 142.359 -76.2573 142.642C-76.2915 142.784 -76.3151 142.89 -76.3299 142.96L-76.341 143.013L-76.3458 143.037L-76.3493 143.055L-76.35 143.058L-76.3501 143.059C-76.3501 143.059 -76.3501 143.059 -76.8417 142.968C-77.3333 142.877 -77.3332 142.876 -77.3331 142.875L-77.3327 142.873L-77.3314 142.866L-77.3266 142.842C-77.3225 142.821 -77.3164 142.791 -77.308 142.752C-77.2913 142.673 -77.2657 142.558 -77.2294 142.408C-77.1569 142.107 -77.0415 141.665 -76.8687 141.091C-76.5229 139.942 -75.9474 138.266 -75.0246 136.137C-73.1791 131.877 -69.9456 125.807 -64.3874 118.523C-53.2702 103.954 -32.8616 84.5421 4.32079 65.0571C41.3931 45.6298 61.6818 26.3075 72.6982 11.8707C78.2068 4.6518 81.3992 -1.34848 83.2128 -5.53419C84.1197 -7.6272 84.682 -9.26699 85.0168 -10.3791C85.1842 -10.9352 85.2948 -11.3594 85.3631 -11.6424C85.3972 -11.784 85.4208 -11.8902 85.4356 -11.9599C85.4431 -11.9948 85.4483 -12.0206 85.4516 -12.0371L85.4551 -12.0549L85.4557 -12.0586L85.4559 -12.0591C85.4559 -12.059 85.459 -12.0581 85.9474 -11.9677C86.4391 -11.8766 86.439 -11.8761 86.4388 -11.8754L86.4384 -11.8732L86.4371 -11.8664L86.4324 -11.8421C86.4282 -11.8212 86.4221 -11.7911 86.4137 -11.7518C86.397 -11.6733 86.3715 -11.5583 86.3352 -11.4079C86.2626 -11.1072 86.1472 -10.665 85.9744 -10.0909C85.6287 -8.94251 85.0531 -7.26616 84.1304 -5.13661C82.2848 -0.877187 79.0514 5.19339 73.4932 12.4773ZM14.7808 65.9428C51.9632 46.4578 72.3717 27.0463 83.489 12.4773C89.0472 5.19339 92.2806 -0.877187 94.1262 -5.13661C95.0489 -7.26616 95.6245 -8.94251 95.9702 -10.0909C96.1431 -10.665 96.2584 -11.1072 96.331 -11.4079C96.3673 -11.5583 96.3929 -11.6733 96.4096 -11.7518C96.4179 -11.7911 96.4241 -11.8212 96.4282 -11.8421L96.433 -11.8664L96.4343 -11.8732L96.4347 -11.8754C96.4348 -11.8761 96.4349 -11.8766 95.9433 -11.9677C95.4549 -12.0581 95.4517 -12.059 95.4517 -12.0591L95.4516 -12.0586L95.4509 -12.0549L95.4474 -12.0371C95.4441 -12.0206 95.4389 -11.9948 95.4315 -11.9599C95.4166 -11.8902 95.393 -11.784 95.3589 -11.6424C95.2906 -11.3594 95.1801 -10.9352 95.0127 -10.3791C94.6779 -9.26699 94.1155 -7.6272 93.2086 -5.53419C91.395 -1.34848 88.2026 4.6518 82.694 11.8707C71.6776 26.3075 51.3889 45.6298 14.3166 65.0571C-22.8658 84.5421 -43.2744 103.954 -54.3916 118.523C-59.9498 125.807 -63.1833 131.877 -65.0288 136.137C-65.9515 138.266 -66.5271 139.942 -66.8728 141.091C-67.0457 141.665 -67.1611 142.107 -67.2336 142.408C-67.2699 142.558 -67.2955 142.673 -67.3122 142.752C-67.3205 142.791 -67.3267 142.821 -67.3308 142.842L-67.3356 142.866L-67.3369 142.873L-67.3373 142.875C-67.3374 142.876 -67.3375 142.877 -66.8459 142.968C-66.3542 143.059 -66.3543 143.059 -66.3543 143.059L-66.3542 143.058L-66.3535 143.055L-66.35 143.037C-66.3467 143.021 -66.3415 142.995 -66.3341 142.96C-66.3192 142.89 -66.2957 142.784 -66.2615 142.642C-66.1932 142.359 -66.0827 141.935 -65.9153 141.379C-65.5805 140.267 -65.0181 138.627 -64.1113 136.534C-62.2976 132.348 -59.1052 126.348 -53.5966 119.129C-42.5802 104.692 -22.2915 85.3701 14.7808 65.9428ZM93.4848 12.4773C82.3676 27.0463 61.959 46.4578 24.7766 65.9428C-12.2957 85.3701 -32.5844 104.692 -43.6008 119.129C-49.1094 126.348 -52.3018 132.348 -54.1154 136.534C-55.0223 138.627 -55.5846 140.267 -55.9195 141.379C-56.0869 141.935 -56.1974 142.359 -56.2657 142.642C-56.2798 142.701 -56.2921 142.753 -56.3027 142.8C-56.3178 142.865 -56.3295 142.919 -56.3383 142.96C-56.3457 142.995 -56.3509 143.021 -56.3542 143.037L-56.3577 143.055L-56.3584 143.058L-56.3585 143.059C-56.3585 143.059 -56.3584 143.059 -56.4344 143.045L-56.8501 142.968C-57.3417 142.877 -57.3416 142.876 -57.3415 142.875L-57.3411 142.873L-57.3397 142.866L-57.335 142.842C-57.3308 142.821 -57.3247 142.791 -57.3164 142.752C-57.2996 142.673 -57.2741 142.558 -57.2378 142.408C-57.1652 142.107 -57.0499 141.665 -56.877 141.091C-56.5313 139.942 -55.9557 138.266 -55.033 136.137C-53.1874 131.877 -49.954 125.807 -44.3958 118.523C-33.2785 103.954 -12.87 84.5421 24.3124 65.0571C61.3847 45.6298 81.6734 26.3075 92.6898 11.8707C98.1984 4.6518 101.391 -1.34848 103.204 -5.53419C104.111 -7.6272 104.674 -9.26699 105.008 -10.3791C105.176 -10.9352 105.286 -11.3594 105.355 -11.6424C105.389 -11.784 105.412 -11.8902 105.427 -11.9599C105.435 -11.9948 105.44 -12.0206 105.443 -12.0371L105.447 -12.0549L105.447 -12.0586L105.448 -12.0591C105.448 -12.059 105.451 -12.0581 105.939 -11.9677C106.431 -11.8766 106.431 -11.8761 106.43 -11.8754L106.43 -11.8732L106.429 -11.8664L106.424 -11.8421C106.42 -11.8212 106.414 -11.7911 106.405 -11.7518C106.389 -11.6733 106.363 -11.5583 106.327 -11.4079C106.254 -11.1072 106.139 -10.665 105.966 -10.0909C105.62 -8.94251 105.045 -7.26616 104.122 -5.13661C102.276 -0.877187 99.043 5.19339 93.4848 12.4773ZM34.7724 65.9428C71.9548 46.4578 92.3634 27.0463 103.481 12.4773C109.039 5.19339 112.272 -0.877187 114.118 -5.13661C115.041 -7.26616 115.616 -8.94251 115.962 -10.0909C116.135 -10.665 116.25 -11.1072 116.323 -11.4079C116.359 -11.5583 116.384 -11.6733 116.401 -11.7518C116.41 -11.7911 116.416 -11.8212 116.42 -11.8421L116.425 -11.8664L116.426 -11.8732L116.426 -11.8754C116.426 -11.8761 116.427 -11.8766 115.935 -11.9677C115.447 -12.0581 115.443 -12.059 115.443 -12.0591L115.443 -12.0586L115.443 -12.0549L115.439 -12.0371C115.436 -12.0206 115.431 -11.9948 115.423 -11.9599C115.408 -11.8902 115.385 -11.784 115.351 -11.6424C115.282 -11.3594 115.172 -10.9352 115.004 -10.3791C114.669 -9.26699 114.107 -7.6272 113.2 -5.53419C111.387 -1.34848 108.194 4.6518 102.686 11.8707C91.6693 26.3075 71.3806 45.6298 34.3083 65.0571C-2.87415 84.5421 -23.2827 103.954 -34.3999 118.523C-39.9582 125.807 -43.1916 131.877 -45.0372 136.137C-45.9599 138.266 -46.5355 139.942 -46.8812 141.091C-47.054 141.665 -47.1694 142.107 -47.242 142.408C-47.2782 142.558 -47.3038 142.673 -47.3205 142.752C-47.3289 142.791 -47.335 142.821 -47.3392 142.842L-47.3439 142.866L-47.3452 142.873L-47.3456 142.875C-47.3457 142.876 -47.3458 142.876 -47.2391 142.896C-47.1683 142.909 -47.0504 142.931 -46.8542 142.968C-46.5743 143.019 -46.4538 143.042 -46.4019 143.052C-46.3626 143.059 -46.3626 143.059 -46.3627 143.059L-46.3626 143.058L-46.3619 143.055L-46.3584 143.037L-46.3525 143.008L-46.3424 142.96C-46.3276 142.89 -46.304 142.784 -46.2699 142.642C-46.2016 142.359 -46.091 141.935 -45.9236 141.379C-45.5888 140.267 -45.0265 138.627 -44.1196 136.534C-42.306 132.348 -39.1135 126.348 -33.605 119.129C-22.5886 104.692 -2.29987 85.3701 34.7724 65.9428ZM113.476 12.4773C102.359 27.0463 81.9507 46.4578 44.7682 65.9428C7.69595 85.3701 -12.5928 104.692 -23.6091 119.129C-29.1177 126.348 -32.3102 132.348 -34.1238 136.534C-35.0307 138.627 -35.593 140.267 -35.9278 141.379C-36.0952 141.935 -36.2058 142.359 -36.274 142.642C-36.3082 142.784 -36.3318 142.89 -36.3466 142.96C-36.354 142.995 -36.3593 143.021 -36.3625 143.037L-36.366 143.055L-36.3667 143.058L-36.3668 143.059C-36.3668 143.059 -36.3668 143.059 -36.8584 142.968C-37.35 142.877 -37.3499 142.876 -37.3498 142.875L-37.3494 142.873L-37.3481 142.866L-37.3433 142.842C-37.3392 142.821 -37.3331 142.791 -37.3247 142.752C-37.308 142.673 -37.2824 142.558 -37.2461 142.408C-37.1736 142.107 -37.0582 141.665 -36.8854 141.091C-36.5396 139.942 -35.9641 138.266 -35.0414 136.137C-33.1958 131.877 -29.9623 125.807 -24.4041 118.523C-13.2869 103.954 7.12167 84.5421 44.3041 65.0571C81.3764 45.6298 101.665 26.3075 112.681 11.8707C118.19 4.6518 121.382 -1.34848 123.196 -5.53419C124.103 -7.6272 124.665 -9.26699 125 -10.3791C125.168 -10.9352 125.278 -11.3594 125.346 -11.6424C125.38 -11.784 125.404 -11.8902 125.419 -11.9599C125.426 -11.9948 125.432 -12.0206 125.435 -12.0371L125.438 -12.0549L125.439 -12.0586L125.439 -12.0591C125.439 -12.059 125.442 -12.0581 125.931 -11.9677C126.422 -11.8766 126.422 -11.8761 126.422 -11.8754L126.422 -11.8732L126.42 -11.8664L126.416 -11.8421C126.412 -11.8212 126.405 -11.7911 126.397 -11.7518C126.38 -11.6733 126.355 -11.5583 126.318 -11.4079C126.246 -11.1072 126.131 -10.665 125.958 -10.0909C125.612 -8.94251 125.036 -7.26616 124.114 -5.13661C122.268 -0.877187 119.035 5.19339 113.476 12.4773ZM54.7641 65.9428C91.9465 46.4578 112.355 27.0463 123.472 12.4773C129.03 5.19339 132.264 -0.877187 134.109 -5.13661C135.032 -7.26616 135.608 -8.94251 135.954 -10.0909C136.126 -10.665 136.242 -11.1072 136.314 -11.4079C136.351 -11.5583 136.376 -11.6733 136.393 -11.7518C136.401 -11.7911 136.407 -11.8212 136.411 -11.8421L136.416 -11.8664L136.418 -11.8732L136.418 -11.8754C136.418 -11.8761 136.418 -11.8766 135.927 -11.9677C135.438 -12.0581 135.435 -12.059 135.435 -12.0591L135.435 -12.0586L135.434 -12.0549L135.431 -12.0371C135.427 -12.0206 135.422 -11.9948 135.415 -11.9599C135.4 -11.8902 135.376 -11.784 135.342 -11.6424C135.274 -11.3594 135.163 -10.9352 134.996 -10.3791C134.661 -9.26699 134.099 -7.6272 133.192 -5.53419C131.378 -1.34848 128.186 4.6518 122.677 11.8707C111.661 26.3075 91.3722 45.6298 54.2999 65.0571C17.1175 84.5421 -3.29107 103.954 -14.4083 118.523C-19.9665 125.807 -23.2 131.877 -25.0455 136.137C-25.9682 138.266 -26.5438 139.942 -26.8895 141.091C-27.0624 141.665 -27.1778 142.107 -27.2503 142.408C-27.2866 142.558 -27.3122 142.673 -27.3289 142.752C-27.3372 142.791 -27.3434 142.821 -27.3475 142.842L-27.3523 142.866L-27.3536 142.873L-27.354 142.875C-27.3541 142.876 -27.3542 142.877 -26.8626 142.968C-26.3709 143.059 -26.371 143.059 -26.371 143.059L-26.3709 143.058L-26.3702 143.055L-26.3667 143.037L-26.3611 143.009L-26.3508 142.96C-26.3359 142.89 -26.3124 142.784 -26.2782 142.642C-26.2099 142.359 -26.0994 141.935 -25.932 141.379C-25.5972 140.267 -25.0348 138.627 -24.128 136.534C-22.3143 132.348 -19.1219 126.348 -13.6133 119.129C-2.59694 104.692 17.6918 85.3701 54.7641 65.9428ZM133.468 12.4773C122.351 27.0463 101.942 46.4578 64.7599 65.9428C27.6876 85.3701 7.39888 104.692 -3.61749 119.129C-9.12608 126.348 -12.3185 132.348 -14.1321 136.534C-15.039 138.627 -15.6014 140.267 -15.9362 141.379C-16.1036 141.935 -16.2141 142.359 -16.2824 142.642C-16.3165 142.784 -16.3401 142.89 -16.355 142.96C-16.3624 142.995 -16.3676 143.021 -16.3709 143.037L-16.3744 143.055L-16.3751 143.058L-16.3752 143.059C-16.3752 143.059 -16.3751 143.059 -16.8668 142.968C-17.3584 142.877 -17.3583 142.876 -17.3582 142.875L-17.3578 142.873L-17.3565 142.866L-17.3517 142.842L-17.343 142.799L-17.3331 142.752C-17.3164 142.673 -17.2908 142.558 -17.2545 142.408C-17.1819 142.107 -17.0666 141.665 -16.8937 141.091C-16.548 139.942 -15.9724 138.266 -15.0497 136.137C-13.2041 131.877 -9.9707 125.807 -4.41248 118.523C6.70475 103.954 27.1133 84.5421 64.2957 65.0571C101.368 45.6298 121.657 26.3075 132.673 11.8707C138.182 4.6518 141.374 -1.34848 143.188 -5.53419C144.095 -7.6272 144.657 -9.26699 144.992 -10.3791C145.159 -10.9352 145.27 -11.3594 145.338 -11.6424C145.372 -11.784 145.396 -11.8902 145.411 -11.9599C145.418 -11.9948 145.423 -12.0206 145.427 -12.0371L145.43 -12.0549L145.431 -12.0586L145.431 -12.0591C145.431 -12.059 145.434 -12.0581 145.922 -11.9677C146.414 -11.8766 146.414 -11.8761 146.414 -11.8754L146.413 -11.8732L146.412 -11.8664L146.407 -11.8421C146.403 -11.8212 146.397 -11.7911 146.389 -11.7518C146.372 -11.6733 146.346 -11.5583 146.31 -11.4079C146.238 -11.1072 146.122 -10.665 145.949 -10.0909C145.604 -8.94251 145.028 -7.26616 144.105 -5.13661C142.26 -0.877187 139.026 5.19339 133.468 12.4773ZM74.7557 65.9428C111.938 46.4578 132.347 27.0463 143.464 12.4773C149.022 5.19339 152.256 -0.877187 154.101 -5.13661C155.024 -7.26616 155.599 -8.94251 155.945 -10.0909C156.118 -10.665 156.233 -11.1072 156.306 -11.4079C156.342 -11.5583 156.368 -11.6733 156.384 -11.7518C156.393 -11.7911 156.399 -11.8212 156.403 -11.8421L156.408 -11.8664L156.409 -11.8732L156.41 -11.8754C156.41 -11.8761 156.41 -11.8766 155.918 -11.9677C155.43 -12.0581 155.427 -12.059 155.427 -12.0591L155.427 -12.0586L155.426 -12.0549L155.422 -12.0371C155.419 -12.0206 155.414 -11.9948 155.406 -11.9599C155.392 -11.8902 155.368 -11.784 155.334 -11.6424C155.266 -11.3594 155.155 -10.9352 154.988 -10.3791C154.653 -9.26699 154.09 -7.6272 153.184 -5.53419C151.37 -1.34848 148.178 4.6518 142.669 11.8707C131.653 26.3075 111.364 45.6298 74.2915 65.0571C37.1091 84.5421 16.7006 103.954 5.58335 118.523C0.0251312 125.807 -3.20832 131.877 -5.05389 136.137C-5.97659 138.266 -6.55218 139.942 -6.89789 141.091C-7.07074 141.665 -7.18611 142.107 -7.25867 142.408C-7.29495 142.558 -7.32053 142.673 -7.33723 142.752L-7.34847 142.805L-7.35587 142.842L-7.36063 142.866L-7.36194 142.873L-7.36234 142.875C-7.3624 142.876 -7.36246 142.876 -7.30976 142.886C-7.25156 142.897 -7.12897 142.92 -6.87093 142.968C-6.3793 143.059 -6.37934 143.059 -6.37936 143.059L-6.37926 143.058L-6.37857 143.055L-6.37508 143.037L-6.36834 143.004L-6.35913 142.96C-6.34429 142.89 -6.32071 142.784 -6.28657 142.642C-6.21828 142.359 -6.10775 141.935 -5.94034 141.379C-5.60553 140.267 -5.0432 138.627 -4.13631 136.534C-2.32269 132.348 0.869743 126.348 6.37833 119.129C17.3947 104.692 37.6834 85.3701 74.7557 65.9428ZM153.46 12.4773C142.343 27.0463 121.934 46.4578 84.7515 65.9428C47.6793 85.3701 27.3905 104.692 16.3742 119.129C10.8656 126.348 7.67313 132.348 5.85951 136.534C4.95263 138.627 4.3903 140.267 4.05549 141.379C3.88808 141.935 3.77754 142.359 3.70926 142.642C3.67512 142.784 3.65154 142.89 3.6367 142.96L3.62704 143.006L3.62075 143.037L3.61726 143.055L3.61656 143.058L3.61646 143.059C3.61647 143.059 3.61648 143.059 3.60462 143.057L3.55367 143.047L3.12489 142.968C2.88803 142.924 2.7653 142.901 2.70174 142.889C2.63335 142.876 2.63342 142.876 2.63348 142.875L2.63389 142.873L2.6352 142.866L2.63995 142.842L2.64537 142.815L2.65096 142.788L2.65859 142.752C2.66342 142.729 2.669 142.703 2.67536 142.674L2.69268 142.597C2.70524 142.542 2.72 142.479 2.73715 142.408C2.80972 142.107 2.92509 141.665 3.09794 141.091C3.44365 139.942 4.01923 138.266 4.94194 136.137C6.78751 131.877 10.021 125.807 15.5792 118.523C26.6964 103.954 47.105 84.5421 84.2874 65.0571C121.36 45.6298 141.648 26.3075 152.665 11.8707C158.173 4.6518 161.366 -1.34848 163.179 -5.53419C164.086 -7.6272 164.649 -9.26699 164.983 -10.3791C165.151 -10.9352 165.261 -11.3594 165.33 -11.6424C165.364 -11.784 165.387 -11.8902 165.402 -11.9599C165.41 -11.9948 165.415 -12.0206 165.418 -12.0371L165.422 -12.0549L165.422 -12.0586L165.422 -12.0591C165.422 -12.059 165.426 -12.0581 165.914 -11.9677C166.406 -11.8766 166.406 -11.8761 166.405 -11.8754L166.405 -11.8732L166.404 -11.8664L166.399 -11.8421C166.395 -11.8212 166.389 -11.7911 166.38 -11.7518C166.364 -11.6733 166.338 -11.5583 166.302 -11.4079C166.229 -11.1072 166.114 -10.665 165.941 -10.0909C165.595 -8.94251 165.02 -7.26616 164.097 -5.13661C162.251 -0.877187 159.018 5.19339 153.46 12.4773ZM94.7474 65.9428C131.93 46.4578 152.338 27.0463 163.456 12.4773C169.014 5.19339 172.247 -0.877187 174.093 -5.13661C175.016 -7.26616 175.591 -8.94251 175.937 -10.0909C176.11 -10.665 176.225 -11.1072 176.298 -11.4079C176.334 -11.5583 176.359 -11.6733 176.376 -11.7518C176.384 -11.7911 176.391 -11.8212 176.395 -11.8421L176.4 -11.8664L176.401 -11.8732L176.401 -11.8754C176.401 -11.8761 176.401 -11.8766 175.91 -11.9677C175.421 -12.0581 175.418 -12.059 175.418 -12.0591L175.418 -12.0586L175.417 -12.0549L175.414 -12.0371C175.411 -12.0206 175.405 -11.9948 175.398 -11.9599C175.383 -11.8902 175.36 -11.784 175.325 -11.6424C175.257 -11.3594 175.147 -10.9352 174.979 -10.3791C174.644 -9.26699 174.082 -7.6272 173.175 -5.53419C171.362 -1.34848 168.169 4.6518 162.661 11.8707C151.644 26.3075 131.355 45.6298 94.2832 65.0571C57.1008 84.5421 36.6922 103.954 25.575 118.523C20.0168 125.807 16.7833 131.877 14.9378 136.137C14.015 138.266 13.4395 139.942 13.0938 141.091C12.9209 141.665 12.8055 142.107 12.733 142.408C12.7148 142.483 12.6992 142.55 12.6862 142.607C12.679 142.639 12.6726 142.668 12.6668 142.694L12.6544 142.752C12.6461 142.791 12.6399 142.821 12.6358 142.842L12.631 142.866L12.6297 142.873L12.6293 142.875C12.6292 142.876 12.6291 142.877 13.1207 142.968C13.6124 143.059 13.6123 143.059 13.6123 143.059L13.6124 143.058L13.6131 143.055L13.6166 143.037C13.6198 143.021 13.6251 142.995 13.6325 142.96C13.6474 142.89 13.6709 142.784 13.7051 142.642C13.7734 142.359 13.8839 141.935 14.0513 141.379C14.3861 140.267 14.9485 138.627 15.8553 136.534C17.669 132.348 20.8614 126.348 26.37 119.129C37.3864 104.692 57.6751 85.3701 94.7474 65.9428ZM173.451 12.4773C162.334 27.0463 141.926 46.4578 104.743 65.9428C67.6709 85.3701 47.3822 104.692 36.3658 119.129C30.8572 126.348 27.6648 132.348 25.8512 136.534C24.9443 138.627 24.3819 140.267 24.0471 141.379C23.8797 141.935 23.7692 142.359 23.7009 142.642C23.6667 142.784 23.6432 142.89 23.6283 142.96C23.6209 142.995 23.6157 143.021 23.6124 143.037L23.6089 143.055L23.6082 143.058L23.6081 143.059C23.6081 143.059 23.6082 143.059 23.1165 142.968C22.9275 142.933 22.8112 142.911 22.7396 142.898C22.6819 142.887 22.6533 142.881 22.6391 142.878C22.6251 142.876 22.6251 142.876 22.6251 142.875L22.6255 142.873L22.6268 142.866L22.6316 142.842C22.6357 142.821 22.6419 142.791 22.6502 142.752C22.6589 142.711 22.6699 142.661 22.6835 142.601C22.6962 142.545 22.7113 142.48 22.7288 142.408C22.8013 142.107 22.9167 141.665 23.0896 141.091C23.4353 139.942 24.0109 138.266 24.9336 136.137C26.7791 131.877 30.0126 125.807 35.5708 118.523C46.688 103.954 67.0966 84.5421 104.279 65.0571C141.351 45.6298 161.64 26.3075 172.656 11.8707C178.165 4.6518 181.357 -1.34848 183.171 -5.53419C184.078 -7.6272 184.64 -9.26699 184.975 -10.3791C185.142 -10.9352 185.253 -11.3594 185.321 -11.6424C185.355 -11.784 185.379 -11.8902 185.394 -11.9599C185.401 -11.9948 185.407 -12.0206 185.41 -12.0371L185.413 -12.0549L185.414 -12.0586L185.414 -12.0591C185.414 -12.059 185.417 -12.0581 185.906 -11.9677C186.397 -11.8766 186.397 -11.8761 186.397 -11.8754L186.397 -11.8732L186.395 -11.8664L186.391 -11.8421C186.386 -11.8212 186.38 -11.7911 186.372 -11.7518C186.355 -11.6733 186.33 -11.5583 186.293 -11.4079C186.221 -11.1072 186.105 -10.665 185.933 -10.0909C185.587 -8.94251 185.011 -7.26616 184.089 -5.13661C182.243 -0.877187 179.01 5.19339 173.451 12.4773ZM114.739 65.9428C151.921 46.4578 172.33 27.0463 183.447 12.4773C189.005 5.19339 192.239 -0.877187 194.084 -5.13661C195.007 -7.26616 195.583 -8.94251 195.928 -10.0909C196.101 -10.665 196.217 -11.1072 196.289 -11.4079C196.326 -11.5583 196.351 -11.6733 196.368 -11.7518C196.376 -11.7911 196.382 -11.8212 196.386 -11.8421L196.391 -11.8664L196.393 -11.8732L196.393 -11.8754C196.393 -11.8761 196.393 -11.8766 195.901 -11.9677C195.413 -12.0581 195.41 -12.059 195.41 -12.0591L195.41 -12.0586L195.409 -12.0549L195.406 -12.0371C195.402 -12.0206 195.397 -11.9948 195.39 -11.9599C195.375 -11.8902 195.351 -11.784 195.317 -11.6424C195.249 -11.3594 195.138 -10.9352 194.971 -10.3791C194.636 -9.26699 194.074 -7.6272 193.167 -5.53419C191.353 -1.34848 188.161 4.6518 182.652 11.8707C171.636 26.3075 151.347 45.6298 114.275 65.0571C77.0924 84.5421 56.6839 103.954 45.5667 118.523C40.0084 125.807 36.775 131.877 34.9294 136.137C34.0067 138.266 33.4311 139.942 33.0854 141.091C32.9126 141.665 32.7972 142.107 32.7246 142.408C32.6883 142.558 32.6628 142.673 32.6461 142.752L32.634 142.809L32.6274 142.842L32.6227 142.866L32.6214 142.873L32.621 142.875C32.6208 142.876 32.6207 142.877 33.1124 142.968C33.604 143.059 33.604 143.059 33.6039 143.059L33.604 143.058L33.6047 143.055L33.6082 143.037L33.6135 143.011L33.6242 142.96C33.639 142.89 33.6626 142.784 33.6967 142.642C33.765 142.359 33.8755 141.935 34.043 141.379C34.3778 140.267 34.9401 138.627 35.847 136.534C37.6606 132.348 40.853 126.348 46.3616 119.129C57.378 104.692 77.6667 85.3701 114.739 65.9428ZM193.443 12.4773C182.326 27.0463 161.917 46.4578 124.735 65.9428C87.6625 85.3701 67.3738 104.692 56.3575 119.129C50.8489 126.348 47.6564 132.348 45.8428 136.534C44.9359 138.627 44.3736 140.267 44.0388 141.379C43.8714 141.935 43.7608 142.359 43.6926 142.642C43.6789 142.699 43.6669 142.75 43.6565 142.795C43.6409 142.863 43.6289 142.918 43.62 142.96C43.6126 142.995 43.6073 143.021 43.604 143.037L43.6006 143.055L43.5999 143.058L43.5998 143.059C43.5998 143.059 43.5998 143.059 43.1082 142.968C42.6165 142.877 42.6167 142.876 42.6168 142.875L42.6172 142.873L42.6185 142.866L42.6232 142.842C42.6274 142.821 42.6335 142.791 42.6419 142.752C42.6512 142.708 42.6634 142.652 42.6787 142.585C42.6906 142.533 42.7045 142.474 42.7204 142.408C42.793 142.107 42.9084 141.665 43.0812 141.091C43.4269 139.942 44.0025 138.266 44.9252 136.137C46.7708 131.877 50.0042 125.807 55.5625 118.523C66.6797 103.954 87.0883 84.5421 124.271 65.0571C161.343 45.6298 181.632 26.3075 192.648 11.8707C198.157 4.6518 201.349 -1.34848 203.163 -5.53419C204.07 -7.6272 204.632 -9.26699 204.967 -10.3791C205.134 -10.9352 205.245 -11.3594 205.313 -11.6424C205.347 -11.784 205.371 -11.8902 205.385 -11.9599C205.393 -11.9948 205.398 -12.0206 205.401 -12.0371L205.405 -12.0549L205.406 -12.0586L205.406 -12.0591C205.406 -12.059 205.409 -12.0581 205.897 -11.9677C206.389 -11.8766 206.389 -11.8761 206.389 -11.8754L206.388 -11.8732L206.387 -11.8664L206.382 -11.8421C206.378 -11.8212 206.372 -11.7911 206.364 -11.7518C206.347 -11.6733 206.321 -11.5583 206.285 -11.4079C206.212 -11.1072 206.097 -10.665 205.924 -10.0909C205.579 -8.94251 205.003 -7.26616 204.08 -5.13661C202.235 -0.877187 199.001 5.19339 193.443 12.4773ZM134.731 65.9428C171.913 46.4578 192.322 27.0463 203.439 12.4773C208.997 5.19339 212.231 -0.877187 214.076 -5.13661C214.999 -7.26616 215.574 -8.94251 215.92 -10.0909C216.093 -10.665 216.208 -11.1072 216.281 -11.4079C216.317 -11.5583 216.343 -11.6733 216.359 -11.7518C216.368 -11.7911 216.374 -11.8212 216.378 -11.8421L216.383 -11.8664L216.384 -11.8732L216.385 -11.8754C216.385 -11.8761 216.385 -11.8766 215.893 -11.9677C215.405 -12.0581 215.402 -12.059 215.402 -12.0591L215.401 -12.0586L215.401 -12.0549L215.397 -12.0371C215.394 -12.0206 215.389 -11.9948 215.381 -11.9599C215.366 -11.8902 215.343 -11.784 215.309 -11.6424C215.24 -11.3594 215.13 -10.9352 214.963 -10.3791C214.628 -9.26699 214.065 -7.6272 213.159 -5.53419C211.345 -1.34848 208.152 4.6518 202.644 11.8707C191.628 26.3075 171.339 45.6298 134.266 65.0571C97.0841 84.5421 76.6755 103.954 65.5583 118.523C60.0001 125.807 56.7666 131.877 54.9211 136.137C53.9983 138.266 53.4228 139.942 53.0771 141.091C52.9042 141.665 52.7888 142.107 52.7163 142.408C52.6992 142.479 52.6844 142.542 52.6719 142.597C52.6578 142.659 52.6465 142.71 52.6377 142.752L52.6311 142.783C52.626 142.807 52.622 142.827 52.6191 142.842L52.6143 142.866L52.613 142.873L52.6126 142.875C52.6125 142.876 52.6124 142.877 53.104 142.968L53.4789 143.037C53.5956 143.059 53.5956 143.059 53.5956 143.059L53.5957 143.058L53.5964 143.055L53.5999 143.037C53.6031 143.021 53.6084 142.995 53.6158 142.96C53.6306 142.89 53.6542 142.784 53.6884 142.642C53.7567 142.359 53.8672 141.935 54.0346 141.379C54.3694 140.267 54.9317 138.627 55.8386 136.534C57.6523 132.348 60.8447 126.348 66.3533 119.129C77.3696 104.692 97.6584 85.3701 134.731 65.9428ZM213.435 12.4773C202.317 27.0463 181.909 46.4578 144.727 65.9428C107.654 85.3701 87.3655 104.692 76.3491 119.129C70.8405 126.348 67.6481 132.348 65.8345 136.534C64.9276 138.627 64.3652 140.267 64.0304 141.379C63.863 141.935 63.7525 142.359 63.6842 142.642C63.6501 142.784 63.6265 142.89 63.6116 142.96C63.6042 142.995 63.599 143.021 63.5957 143.037L63.5922 143.055L63.5915 143.058L63.5914 143.059C63.5914 143.059 63.5914 143.059 63.4356 143.03L63.0998 142.968C62.6082 142.877 62.6083 142.876 62.6084 142.875L62.6088 142.873L62.6101 142.866L62.6149 142.842C62.619 142.821 62.6252 142.791 62.6335 142.752C62.6502 142.673 62.6758 142.558 62.7121 142.408C62.7847 142.107 62.9 141.665 63.0729 141.091C63.4186 139.942 63.9942 138.266 64.9169 136.137C66.7625 131.877 69.9959 125.807 75.5541 118.523C86.6714 103.954 107.08 84.5421 144.262 65.0571C181.335 45.6298 201.623 26.3075 212.64 11.8707C218.148 4.6518 221.341 -1.34848 223.154 -5.53419C224.061 -7.6272 224.624 -9.26699 224.958 -10.3791C225.126 -10.9352 225.236 -11.3594 225.305 -11.6424C225.339 -11.784 225.362 -11.8902 225.377 -11.9599C225.385 -11.9948 225.39 -12.0206 225.393 -12.0371L225.397 -12.0549L225.397 -12.0586L225.397 -12.0591C225.397 -12.059 225.401 -12.0581 225.889 -11.9677C226.381 -11.8766 226.38 -11.8761 226.38 -11.8754L226.38 -11.8732L226.379 -11.8664L226.374 -11.8421C226.37 -11.8212 226.364 -11.7911 226.355 -11.7518C226.339 -11.6733 226.313 -11.5583 226.277 -11.4079C226.204 -11.1072 226.089 -10.665 225.916 -10.0909C225.57 -8.94251 224.995 -7.26616 224.072 -5.13661C222.226 -0.877187 218.993 5.19339 213.435 12.4773ZM154.722 65.9428C191.905 46.4578 212.313 27.0463 223.431 12.4773C228.989 5.19339 232.222 -0.877187 234.068 -5.13661C234.99 -7.26616 235.566 -8.94251 235.912 -10.0909C236.085 -10.665 236.2 -11.1072 236.273 -11.4079C236.309 -11.5583 236.334 -11.6733 236.351 -11.7518C236.359 -11.7911 236.366 -11.8212 236.37 -11.8421L236.374 -11.8664L236.376 -11.8732L236.376 -11.8754C236.376 -11.8761 236.376 -11.8766 235.885 -11.9677C235.396 -12.0581 235.393 -12.059 235.393 -12.0591L235.393 -12.0586L235.392 -12.0549L235.389 -12.0371C235.386 -12.0206 235.38 -11.9948 235.373 -11.9599C235.358 -11.8902 235.335 -11.784 235.3 -11.6424C235.232 -11.3594 235.122 -10.9352 234.954 -10.3791C234.619 -9.26699 234.057 -7.6272 233.15 -5.53419C231.337 -1.34848 228.144 4.6518 222.636 11.8707C211.619 26.3075 191.33 45.6298 154.258 65.0571C117.076 84.5421 96.6672 103.954 85.5499 118.523C79.9917 125.807 76.7583 131.877 74.9127 136.137C73.99 138.266 73.4144 139.942 73.0687 141.091C72.8959 141.665 72.7805 142.107 72.7079 142.408C72.6716 142.558 72.6461 142.673 72.6293 142.752C72.621 142.791 72.6149 142.821 72.6107 142.842L72.606 142.866L72.6046 142.873L72.6042 142.875C72.6042 142.876 72.6041 142.876 72.7191 142.898L72.785 142.91L73.0957 142.968C73.5873 143.059 73.5872 143.059 73.5872 143.059L73.5873 143.058L73.588 143.055L73.5915 143.037C73.5948 143.021 73.6 142.995 73.6075 142.96C73.6223 142.89 73.6459 142.784 73.68 142.642C73.7483 142.359 73.8588 141.935 74.0262 141.379C74.3611 140.267 74.9234 138.627 75.8303 136.534C77.6439 132.348 80.8363 126.348 86.3449 119.129C97.3613 104.692 117.65 85.3701 154.722 65.9428ZM233.426 12.4773C222.309 27.0463 201.901 46.4578 164.718 65.9428C127.646 85.3701 107.357 104.692 96.3407 119.129C90.8322 126.348 87.6397 132.348 85.8261 136.534C84.9192 138.627 84.3569 140.267 84.0221 141.379C83.8547 141.935 83.7441 142.359 83.6758 142.642C83.663 142.696 83.6516 142.744 83.6416 142.787C83.6252 142.859 83.6125 142.916 83.6033 142.96C83.5959 142.995 83.5906 143.021 83.5873 143.037L83.5838 143.055L83.5831 143.058L83.5831 143.059C83.5831 143.059 83.5831 143.059 83.0915 142.968L82.7993 142.913L82.6864 142.892C82.5999 142.876 82.6 142.876 82.6001 142.875L82.6005 142.873L82.6018 142.866L82.6065 142.842C82.6107 142.821 82.6168 142.791 82.6252 142.752C82.6419 142.673 82.6674 142.558 82.7037 142.408C82.7763 142.107 82.8917 141.665 83.0645 141.091C83.4102 139.942 83.9858 138.266 84.9085 136.137C86.7541 131.877 89.9875 125.807 95.5458 118.523C106.663 103.954 127.072 84.5421 164.254 65.0571C201.326 45.6298 221.615 26.3075 232.631 11.8707C238.14 4.6518 241.332 -1.34848 243.146 -5.53419C244.053 -7.6272 244.615 -9.26699 244.95 -10.3791C245.117 -10.9352 245.228 -11.3594 245.296 -11.6424C245.33 -11.784 245.354 -11.8902 245.369 -11.9599C245.376 -11.9948 245.381 -12.0206 245.385 -12.0371L245.388 -12.0549L245.389 -12.0586L245.389 -12.0591C245.389 -12.059 245.392 -12.0581 245.881 -11.9677C246.372 -11.8766 246.372 -11.8761 246.372 -11.8754L246.372 -11.8732L246.37 -11.8664L246.366 -11.8421C246.361 -11.8212 246.355 -11.7911 246.347 -11.7518C246.33 -11.6733 246.305 -11.5583 246.268 -11.4079C246.196 -11.1072 246.08 -10.665 245.908 -10.0909C245.562 -8.94251 244.986 -7.26616 244.064 -5.13661C242.218 -0.877187 238.985 5.19339 233.426 12.4773ZM174.714 65.9428C211.896 46.4578 232.305 27.0463 243.422 12.4773C248.98 5.19339 252.214 -0.877187 254.059 -5.13661C254.982 -7.26616 255.558 -8.94251 255.903 -10.0909C256.076 -10.665 256.192 -11.1072 256.264 -11.4079C256.3 -11.5583 256.326 -11.6733 256.343 -11.7518C256.351 -11.7911 256.357 -11.8212 256.361 -11.8421L256.366 -11.8664L256.367 -11.8732L256.368 -11.8754C256.368 -11.8761 256.368 -11.8766 255.876 -11.9677C255.388 -12.0581 255.385 -12.059 255.385 -12.0591L255.385 -12.0586L255.384 -12.0549L255.381 -12.0371C255.377 -12.0206 255.372 -11.9948 255.365 -11.9599C255.35 -11.8902 255.326 -11.784 255.292 -11.6424C255.224 -11.3594 255.113 -10.9352 254.946 -10.3791C254.611 -9.26699 254.049 -7.6272 253.142 -5.53419C251.328 -1.34848 248.136 4.6518 242.627 11.8707C231.611 26.3075 211.322 45.6298 174.25 65.0571C137.067 84.5421 116.659 103.954 105.542 118.523C99.9834 125.807 96.7499 131.877 94.9043 136.137C93.9816 138.266 93.4061 139.942 93.0603 141.091C92.8875 141.665 92.7721 142.107 92.6996 142.408C92.6633 142.558 92.6377 142.673 92.621 142.752L92.6096 142.806L92.6024 142.842L92.5976 142.866L92.5963 142.873L92.5959 142.875C92.5958 142.876 92.5957 142.877 93.0873 142.968L93.5218 143.048C93.5789 143.059 93.5789 143.059 93.5789 143.059L93.579 143.058L93.5797 143.055L93.5831 143.037C93.5864 143.021 93.5917 142.995 93.5991 142.96C93.6139 142.89 93.6375 142.784 93.6717 142.642C93.7399 142.359 93.8505 141.935 94.0179 141.379C94.3527 140.267 94.915 138.627 95.8219 136.534C97.6355 132.348 100.828 126.348 106.337 119.129C117.353 104.692 137.642 85.3701 174.714 65.9428ZM253.418 12.4773C242.301 27.0463 221.892 46.4578 184.71 65.9428C147.637 85.3701 127.349 104.692 116.332 119.129C110.824 126.348 107.631 132.348 105.818 136.534C104.911 138.627 104.349 140.267 104.014 141.379C103.846 141.935 103.736 142.359 103.667 142.642C103.651 142.712 103.636 142.773 103.624 142.826C103.612 142.88 103.602 142.924 103.595 142.96C103.588 142.995 103.582 143.021 103.579 143.037L103.576 143.055L103.575 143.058L103.575 143.059C103.575 143.059 103.575 143.059 103.083 142.968C102.897 142.933 102.781 142.912 102.71 142.898L102.648 142.887C102.592 142.876 102.592 142.876 102.592 142.875L102.592 142.873L102.593 142.866L102.598 142.842C102.602 142.821 102.608 142.791 102.617 142.752C102.634 142.673 102.659 142.558 102.695 142.408C102.768 142.107 102.883 141.665 103.056 141.091C103.402 139.942 103.977 138.266 104.9 136.137C106.746 131.877 109.979 125.807 115.537 118.523C126.655 103.954 147.063 84.5421 184.246 65.0571C221.318 45.6298 241.607 26.3075 252.623 11.8707C258.132 4.6518 261.324 -1.34848 263.138 -5.53419C264.045 -7.6272 264.607 -9.26699 264.942 -10.3791C265.109 -10.9352 265.22 -11.3594 265.288 -11.6424C265.322 -11.784 265.346 -11.8902 265.36 -11.9599C265.368 -11.9948 265.373 -12.0206 265.376 -12.0371L265.38 -12.0549L265.381 -12.0586L265.381 -12.0591C265.381 -12.059 265.384 -12.0581 265.872 -11.9677C266.364 -11.8766 266.364 -11.8761 266.364 -11.8754L266.363 -11.8732L266.362 -11.8664L266.357 -11.8421C266.353 -11.8212 266.347 -11.7911 266.339 -11.7518C266.322 -11.6733 266.296 -11.5583 266.26 -11.4079C266.187 -11.1072 266.072 -10.665 265.899 -10.0909C265.553 -8.94251 264.978 -7.26616 264.055 -5.13661C262.21 -0.877187 258.976 5.19339 253.418 12.4773ZM194.706 65.9428C231.888 46.4578 252.297 27.0463 263.414 12.4773C268.972 5.19339 272.205 -0.877187 274.051 -5.13661C274.974 -7.26616 275.549 -8.94251 275.895 -10.0909C276.068 -10.665 276.183 -11.1072 276.256 -11.4079C276.292 -11.5583 276.318 -11.6733 276.334 -11.7518C276.343 -11.7911 276.349 -11.8212 276.353 -11.8421L276.358 -11.8664L276.359 -11.8732L276.359 -11.8754C276.36 -11.8761 276.36 -11.8766 275.868 -11.9677C275.38 -12.0581 275.377 -12.059 275.377 -12.0591L275.376 -12.0586L275.376 -12.0549L275.372 -12.0371C275.369 -12.0206 275.364 -11.9948 275.356 -11.9599C275.341 -11.8902 275.318 -11.784 275.284 -11.6424C275.215 -11.3594 275.105 -10.9352 274.938 -10.3791C274.603 -9.26699 274.04 -7.6272 273.133 -5.53419C271.32 -1.34848 268.127 4.6518 262.619 11.8707C251.602 26.3075 231.314 45.6298 194.241 65.0571C157.059 84.5421 136.65 103.954 125.533 118.523C119.975 125.807 116.742 131.877 114.896 136.137C113.973 138.266 113.398 139.942 113.052 141.091C112.879 141.665 112.764 142.107 112.691 142.408C112.655 142.558 112.629 142.673 112.613 142.752C112.604 142.791 112.598 142.821 112.594 142.842L112.589 142.866L112.588 142.873L112.588 142.875C112.587 142.876 112.587 142.877 113.079 142.968C113.571 143.059 113.571 143.059 113.571 143.059L113.571 143.058L113.571 143.055L113.575 143.037C113.578 143.021 113.583 142.995 113.591 142.96C113.601 142.91 113.616 142.842 113.636 142.756C113.644 142.721 113.653 142.683 113.663 142.642C113.732 142.359 113.842 141.935 114.01 141.379C114.344 140.267 114.907 138.627 115.814 136.534C117.627 132.348 120.82 126.348 126.328 119.129C137.345 104.692 157.633 85.3701 194.706 65.9428ZM273.41 12.4773C262.292 27.0463 241.884 46.4578 204.701 65.9428C167.629 85.3701 147.34 104.692 136.324 119.129C130.815 126.348 127.623 132.348 125.809 136.534C124.903 138.627 124.34 140.267 124.005 141.379C123.838 141.935 123.727 142.359 123.659 142.642C123.644 142.707 123.63 142.764 123.619 142.814C123.611 142.848 123.604 142.879 123.598 142.906L123.587 142.96C123.579 142.995 123.574 143.021 123.571 143.037L123.567 143.055L123.566 143.058L123.566 143.059C123.566 143.059 123.566 143.059 123.075 142.968C122.886 142.933 122.77 142.911 122.698 142.898C122.583 142.876 122.583 142.876 122.583 142.875L122.584 142.873L122.585 142.866L122.59 142.842C122.594 142.821 122.6 142.791 122.608 142.752C122.618 142.707 122.63 142.651 122.646 142.584C122.658 142.532 122.671 142.473 122.687 142.408C122.76 142.107 122.875 141.665 123.048 141.091C123.394 139.942 123.969 138.266 124.892 136.137C126.737 131.877 129.971 125.807 135.529 118.523C146.646 103.954 167.055 84.5421 204.237 65.0571C241.31 45.6298 261.598 26.3075 272.615 11.8707C278.123 4.6518 281.316 -1.34848 283.129 -5.53419C284.036 -7.6272 284.599 -9.26699 284.933 -10.3791C285.101 -10.9352 285.211 -11.3594 285.28 -11.6424C285.314 -11.784 285.337 -11.8902 285.352 -11.9599C285.36 -11.9948 285.365 -12.0206 285.368 -12.0371L285.372 -12.0549L285.372 -12.0586L285.372 -12.0591C285.372 -12.059 285.376 -12.0581 285.864 -11.9677C286.356 -11.8766 286.355 -11.8761 286.355 -11.8754L286.355 -11.8732L286.354 -11.8664L286.349 -11.8421C286.345 -11.8212 286.339 -11.7911 286.33 -11.7518C286.313 -11.6733 286.288 -11.5583 286.252 -11.4079C286.179 -11.1072 286.064 -10.665 285.891 -10.0909C285.545 -8.94251 284.97 -7.26616 284.047 -5.13661C282.201 -0.877187 278.968 5.19339 273.41 12.4773ZM214.697 65.9428C251.88 46.4578 272.288 27.0463 283.405 12.4773C288.964 5.19339 292.197 -0.877187 294.043 -5.13661C294.965 -7.26616 295.541 -8.94251 295.887 -10.0909C296.06 -10.665 296.175 -11.1072 296.247 -11.4079C296.284 -11.5583 296.309 -11.6733 296.326 -11.7518C296.334 -11.7911 296.341 -11.8212 296.345 -11.8421L296.349 -11.8664L296.351 -11.8732L296.351 -11.8754C296.351 -11.8761 296.351 -11.8766 295.86 -11.9677C295.371 -12.0581 295.368 -12.059 295.368 -12.0591L295.368 -12.0586L295.367 -12.0549L295.364 -12.0371C295.361 -12.0206 295.355 -11.9948 295.348 -11.9599C295.333 -11.8902 295.31 -11.784 295.275 -11.6424C295.207 -11.3594 295.097 -10.9352 294.929 -10.3791C294.594 -9.26699 294.032 -7.6272 293.125 -5.53419C291.311 -1.34848 288.119 4.6518 282.61 11.8707C271.594 26.3075 251.305 45.6298 214.233 65.0571C177.051 84.5421 156.642 103.954 145.525 118.523C139.967 125.807 136.733 131.877 134.888 136.137C133.965 138.266 133.389 139.942 133.044 141.091C132.871 141.665 132.755 142.107 132.683 142.408C132.647 142.558 132.621 142.673 132.604 142.752L132.593 142.804L132.586 142.842L132.581 142.866L132.58 142.873L132.579 142.875C132.579 142.876 132.579 142.877 133.071 142.968C133.562 143.059 133.562 143.059 133.562 143.059L133.562 143.058L133.563 143.055L133.566 143.037C133.57 143.021 133.575 142.995 133.582 142.96C133.597 142.89 133.621 142.784 133.655 142.642C133.723 142.359 133.834 141.935 134.001 141.379C134.336 140.267 134.898 138.627 135.805 136.534C137.619 132.348 140.811 126.348 146.32 119.129C157.336 104.692 177.625 85.3701 214.697 65.9428ZM293.401 12.4773C282.284 27.0463 261.875 46.4578 224.693 65.9428C187.621 85.3701 167.332 104.692 156.316 119.129C150.807 126.348 147.615 132.348 145.801 136.534C144.894 138.627 144.332 140.267 143.997 141.379C143.83 141.935 143.719 142.359 143.651 142.642C143.617 142.784 143.593 142.89 143.578 142.96C143.571 142.995 143.566 143.021 143.562 143.037L143.559 143.055L143.558 143.058L143.558 143.059C143.558 143.059 143.558 143.059 143.066 142.968C142.575 142.877 142.575 142.876 142.575 142.875L142.575 142.873L142.577 142.866L142.581 142.842C142.586 142.821 142.592 142.791 142.6 142.752C142.606 142.725 142.613 142.694 142.62 142.659C142.63 142.615 142.642 142.564 142.655 142.508L142.67 142.444L142.679 142.408C142.751 142.107 142.867 141.665 143.039 141.091C143.385 139.942 143.961 138.266 144.883 136.137C146.729 131.877 149.962 125.807 155.521 118.523C166.638 103.954 187.046 84.5421 224.229 65.0571C261.301 45.6298 281.59 26.3075 292.606 11.8707C298.115 4.6518 301.307 -1.34848 303.121 -5.53419C304.028 -7.6272 304.59 -9.26699 304.925 -10.3791C305.092 -10.9352 305.203 -11.3594 305.271 -11.6424C305.305 -11.784 305.329 -11.8902 305.344 -11.9599C305.351 -11.9948 305.356 -12.0206 305.36 -12.0371L305.363 -12.0549L305.364 -12.0586L305.364 -12.0591C305.364 -12.059 305.367 -12.0581 305.856 -11.9677C306.347 -11.8766 306.347 -11.8761 306.347 -11.8754L306.347 -11.8732L306.345 -11.8664L306.34 -11.8421C306.336 -11.8212 306.33 -11.7911 306.322 -11.7518C306.305 -11.6733 306.28 -11.5583 306.243 -11.4079C306.171 -11.1072 306.055 -10.665 305.883 -10.0909C305.537 -8.94251 304.961 -7.26616 304.038 -5.13661C302.193 -0.877187 298.959 5.19339 293.401 12.4773ZM234.689 65.9428C271.871 46.4578 292.28 27.0463 303.397 12.4773C308.955 5.19339 312.189 -0.877187 314.034 -5.13661C314.957 -7.26616 315.533 -8.94251 315.878 -10.0909C316.051 -10.665 316.167 -11.1072 316.239 -11.4079C316.275 -11.5583 316.301 -11.6733 316.318 -11.7518C316.326 -11.7911 316.332 -11.8212 316.336 -11.8421L316.341 -11.8664L316.342 -11.8732L316.343 -11.8754C316.343 -11.8761 316.343 -11.8766 315.851 -11.9677C315.363 -12.0581 315.36 -12.059 315.36 -12.0591L315.36 -12.0586L315.359 -12.0549L315.355 -12.0371C315.352 -12.0206 315.347 -11.9948 315.34 -11.9599C315.325 -11.8902 315.301 -11.784 315.267 -11.6424C315.199 -11.3594 315.088 -10.9352 314.921 -10.3791C314.586 -9.26699 314.024 -7.6272 313.117 -5.53419C311.303 -1.34848 308.111 4.6518 302.602 11.8707C291.586 26.3075 271.297 45.6298 234.225 65.0571C197.042 84.5421 176.634 103.954 165.517 118.523C159.958 125.807 156.725 131.877 154.879 136.137C153.957 138.266 153.381 139.942 153.035 141.091C152.862 141.665 152.747 142.107 152.674 142.408C152.638 142.558 152.613 142.673 152.596 142.752C152.591 142.776 152.586 142.797 152.583 142.814L152.577 142.842L152.573 142.866L152.571 142.873L152.571 142.875C152.571 142.876 152.571 142.877 153.062 142.968C153.554 143.059 153.554 143.059 153.554 143.059L153.554 143.058L153.555 143.055L153.558 143.037C153.561 143.021 153.567 142.995 153.574 142.96C153.589 142.89 153.612 142.784 153.647 142.642C153.715 142.359 153.825 141.935 153.993 141.379C154.328 140.267 154.89 138.627 155.797 136.534C157.61 132.348 160.803 126.348 166.311 119.129C177.328 104.692 197.617 85.3701 234.689 65.9428ZM313.393 12.4773C302.276 27.0463 281.867 46.4578 244.685 65.9428C207.612 85.3701 187.324 104.692 176.307 119.129C170.799 126.348 167.606 132.348 165.793 136.534C164.886 138.627 164.323 140.267 163.989 141.379C163.821 141.935 163.711 142.359 163.642 142.642C163.608 142.784 163.585 142.89 163.57 142.96C163.562 142.995 163.557 143.021 163.554 143.037L163.55 143.055L163.55 143.058L163.55 143.059C163.55 143.059 163.55 143.059 163.058 142.968C162.566 142.877 162.566 142.876 162.567 142.875L162.567 142.873L162.568 142.866L162.573 142.842L162.58 142.808L162.592 142.752C162.608 142.673 162.634 142.558 162.67 142.408C162.743 142.107 162.858 141.665 163.031 141.091C163.377 139.942 163.952 138.266 164.875 136.137C166.721 131.877 169.954 125.807 175.512 118.523C186.63 103.954 207.038 84.5421 244.221 65.0571C281.293 45.6298 301.582 26.3075 312.598 11.8707C318.107 4.6518 321.299 -1.34848 323.113 -5.53419C324.019 -7.6272 324.582 -9.26699 324.917 -10.3791C325.084 -10.9352 325.195 -11.3594 325.263 -11.6424C325.297 -11.784 325.321 -11.8902 325.335 -11.9599C325.343 -11.9948 325.348 -12.0206 325.351 -12.0371L325.355 -12.0549L325.355 -12.0586L325.356 -12.0591C325.356 -12.059 325.359 -12.0581 325.847 -11.9677C326.339 -11.8766 326.339 -11.8761 326.339 -11.8754L326.338 -11.8732L326.337 -11.8664L326.332 -11.8421C326.328 -11.8212 326.322 -11.7911 326.313 -11.7518C326.297 -11.6733 326.271 -11.5583 326.235 -11.4079C326.162 -11.1072 326.047 -10.665 325.874 -10.0909C325.528 -8.94251 324.953 -7.26616 324.03 -5.13661C322.185 -0.877187 318.951 5.19339 313.393 12.4773ZM254.681 65.9428C291.863 46.4578 312.271 27.0463 323.389 12.4773C328.947 5.19339 332.18 -0.877187 334.026 -5.13661C334.949 -7.26616 335.524 -8.94251 335.87 -10.0909C336.043 -10.665 336.158 -11.1072 336.231 -11.4079C336.267 -11.5583 336.293 -11.6733 336.309 -11.7518C336.318 -11.7911 336.324 -11.8212 336.328 -11.8421L336.333 -11.8664L336.334 -11.8732L336.334 -11.8754C336.335 -11.8761 336.335 -11.8766 335.843 -11.9677C335.355 -12.0581 335.351 -12.059 335.351 -12.0591L335.351 -12.0586L335.351 -12.0549L335.347 -12.0371C335.344 -12.0206 335.339 -11.9948 335.331 -11.9599C335.316 -11.8902 335.293 -11.784 335.259 -11.6424C335.19 -11.3594 335.08 -10.9352 334.912 -10.3791C334.578 -9.26699 334.015 -7.6272 333.108 -5.53419C331.295 -1.34848 328.102 4.6518 322.594 11.8707C311.577 26.3075 291.289 45.6298 254.216 65.0571C217.034 84.5421 196.625 103.954 185.508 118.523C179.95 125.807 176.716 131.877 174.871 136.137C173.948 138.266 173.373 139.942 173.027 141.091C172.854 141.665 172.739 142.107 172.666 142.408C172.63 142.558 172.604 142.673 172.588 142.752C172.579 142.791 172.573 142.821 172.569 142.842L172.564 142.866L172.563 142.873L172.562 142.875C172.562 142.876 172.562 142.877 173.054 142.968C173.546 143.059 173.545 143.059 173.545 143.059L173.546 143.058L173.546 143.055L173.55 143.037C173.552 143.025 173.555 143.008 173.56 142.987L173.566 142.96L173.576 142.91L173.587 142.861C173.601 142.802 173.617 142.729 173.638 142.642C173.707 142.359 173.817 141.935 173.984 141.379C174.319 140.267 174.882 138.627 175.788 136.534C177.602 132.348 180.795 126.348 186.303 119.129C197.32 104.692 217.608 85.3701 254.681 65.9428ZM333.385 12.4773C322.267 27.0463 301.859 46.4578 264.676 65.9428C227.604 85.3701 207.315 104.692 196.299 119.129C190.79 126.348 187.598 132.348 185.784 136.534C184.877 138.627 184.315 140.267 183.98 141.379C183.813 141.935 183.702 142.359 183.634 142.642C183.6 142.784 183.576 142.89 183.562 142.96C183.554 142.995 183.549 143.021 183.546 143.037L183.542 143.055L183.541 143.058L183.541 143.059C183.541 143.059 183.541 143.059 183.05 142.968L182.684 142.9C182.558 142.876 182.558 142.876 182.558 142.875L182.559 142.873L182.56 142.866L182.565 142.842C182.569 142.821 182.575 142.791 182.583 142.752C182.6 142.673 182.626 142.558 182.662 142.408C182.735 142.107 182.85 141.665 183.023 141.091C183.368 139.942 183.944 138.266 184.867 136.137C186.712 131.877 189.946 125.807 195.504 118.523C206.621 103.954 227.03 84.5421 264.212 65.0571C301.284 45.6298 321.573 26.3075 332.59 11.8707C338.098 4.6518 341.291 -1.34848 343.104 -5.53419C344.011 -7.6272 344.573 -9.26699 344.908 -10.3791C345.076 -10.9352 345.186 -11.3594 345.254 -11.6424C345.289 -11.784 345.312 -11.8902 345.327 -11.9599C345.334 -11.9948 345.34 -12.0206 345.343 -12.0371L345.346 -12.0549L345.347 -12.0586L345.347 -12.0591C345.347 -12.059 345.35 -12.0581 345.839 -11.9677C346.331 -11.8766 346.33 -11.8761 346.33 -11.8754L346.33 -11.8732L346.329 -11.8664L346.324 -11.8421C346.32 -11.8212 346.313 -11.7911 346.305 -11.7518C346.288 -11.6733 346.263 -11.5583 346.227 -11.4079C346.154 -11.1072 346.039 -10.665 345.866 -10.0909C345.52 -8.94251 344.945 -7.26616 344.022 -5.13661C342.176 -0.877187 338.943 5.19339 333.385 12.4773ZM274.672 65.9428C311.855 46.4578 332.263 27.0463 343.38 12.4773C348.939 5.19339 352.172 -0.877187 354.018 -5.13661C354.94 -7.26616 355.516 -8.94251 355.862 -10.0909C356.034 -10.665 356.15 -11.1072 356.222 -11.4079C356.259 -11.5583 356.284 -11.6733 356.301 -11.7518C356.309 -11.7911 356.315 -11.8212 356.32 -11.8421L356.324 -11.8664L356.326 -11.8732L356.326 -11.8754C356.326 -11.8761 356.326 -11.8766 355.835 -11.9677C355.346 -12.0581 355.343 -12.059 355.343 -12.0591L355.343 -12.0586L355.342 -12.0549L355.339 -12.0371C355.336 -12.0206 355.33 -11.9948 355.323 -11.9599C355.308 -11.8902 355.284 -11.784 355.25 -11.6424C355.182 -11.3594 355.071 -10.9352 354.904 -10.3791C354.569 -9.26699 354.007 -7.6272 353.1 -5.53419C351.286 -1.34848 348.094 4.6518 342.585 11.8707C331.569 26.3075 311.28 45.6298 274.208 65.0571C237.026 84.5421 216.617 103.954 205.5 118.523C199.942 125.807 196.708 131.877 194.863 136.137C193.94 138.266 193.364 139.942 193.019 141.091C192.846 141.665 192.73 142.107 192.658 142.408C192.645 142.461 192.633 142.51 192.623 142.554C192.612 142.601 192.603 142.642 192.595 142.679L192.579 142.752L192.567 142.81L192.561 142.842L192.556 142.866L192.555 142.873L192.554 142.875C192.554 142.876 192.554 142.877 193.046 142.968C193.537 143.059 193.537 143.059 193.537 143.059L193.537 143.058L193.538 143.055L193.541 143.037L193.548 143.007L193.557 142.96C193.565 142.926 193.574 142.884 193.585 142.833C193.597 142.779 193.612 142.715 193.63 142.642C193.698 142.359 193.809 141.935 193.976 141.379C194.311 140.267 194.873 138.627 195.78 136.534C197.594 132.348 200.786 126.348 206.295 119.129C217.311 104.692 237.6 85.3701 274.672 65.9428ZM353.376 12.4773C342.259 27.0463 321.85 46.4578 284.668 65.9428C247.596 85.3701 227.307 104.692 216.291 119.129C210.782 126.348 207.59 132.348 205.776 136.534C204.869 138.627 204.307 140.267 203.972 141.379C203.805 141.935 203.694 142.359 203.626 142.642C203.606 142.722 203.59 142.791 203.578 142.848C203.568 142.892 203.56 142.93 203.553 142.96L203.542 143.012L203.537 143.037L203.534 143.055L203.533 143.058L203.533 143.059C203.533 143.059 203.533 143.059 203.041 142.968C202.55 142.877 202.55 142.876 202.55 142.875L202.55 142.873L202.552 142.866L202.556 142.842L202.56 142.822C202.564 142.803 202.569 142.78 202.575 142.752C202.592 142.673 202.617 142.558 202.654 142.408C202.726 142.107 202.842 141.665 203.014 141.091C203.36 139.942 203.936 138.266 204.858 136.137C206.704 131.877 209.937 125.807 215.496 118.523C226.613 103.954 247.021 84.5421 284.204 65.0571C321.276 45.6298 341.565 26.3075 352.581 11.8707C358.09 4.6518 361.282 -1.34848 363.096 -5.53419C364.003 -7.6272 364.565 -9.26699 364.9 -10.3791C365.067 -10.9352 365.178 -11.3594 365.246 -11.6424C365.28 -11.784 365.304 -11.8902 365.319 -11.9599C365.326 -11.9948 365.331 -12.0206 365.335 -12.0371L365.338 -12.0549L365.339 -12.0586L365.339 -12.0591C365.339 -12.059 365.342 -12.0581 365.83 -11.9677C366.322 -11.8766 366.322 -11.8761 366.322 -11.8754L366.321 -11.8732L366.32 -11.8664L366.315 -11.8421C366.311 -11.8212 366.305 -11.7911 366.297 -11.7518C366.28 -11.6733 366.255 -11.5583 366.218 -11.4079C366.146 -11.1072 366.03 -10.665 365.857 -10.0909C365.512 -8.94251 364.936 -7.26616 364.013 -5.13661C362.168 -0.877187 358.934 5.19339 353.376 12.4773ZM294.664 65.9428C331.846 46.4578 352.255 27.0463 363.372 12.4773C368.93 5.19339 372.164 -0.877187 374.009 -5.13661C374.932 -7.26616 375.508 -8.94251 375.853 -10.0909C376.026 -10.665 376.141 -11.1072 376.214 -11.4079C376.25 -11.5583 376.276 -11.6733 376.293 -11.7518C376.301 -11.7911 376.307 -11.8212 376.311 -11.8421L376.316 -11.8664L376.317 -11.8732L376.318 -11.8754C376.318 -11.8761 376.318 -11.8766 375.826 -11.9677C375.338 -12.0581 375.335 -12.059 375.335 -12.0591L375.335 -12.0586L375.334 -12.0549L375.33 -12.0371C375.327 -12.0206 375.322 -11.9948 375.315 -11.9599C375.3 -11.8902 375.276 -11.784 375.242 -11.6424C375.174 -11.3594 375.063 -10.9352 374.896 -10.3791C374.561 -9.26699 373.999 -7.6272 373.092 -5.53419C371.278 -1.34848 368.086 4.6518 362.577 11.8707C351.561 26.3075 331.272 45.6298 294.2 65.0571C257.017 84.5421 236.609 103.954 225.491 118.523C219.933 125.807 216.7 131.877 214.854 136.137C213.932 138.266 213.356 139.942 213.01 141.091C212.837 141.665 212.722 142.107 212.649 142.408C212.613 142.558 212.588 142.673 212.571 142.752L212.559 142.806L212.552 142.842L212.547 142.866L212.546 142.873L212.546 142.875C212.546 142.876 212.546 142.877 213.037 142.968C213.529 143.059 213.529 143.059 213.529 143.059L213.529 143.058L213.53 143.055L213.533 143.037C213.536 143.021 213.542 142.995 213.549 142.96C213.564 142.89 213.587 142.784 213.622 142.642C213.69 142.359 213.8 141.935 213.968 141.379C214.303 140.267 214.865 138.627 215.772 136.534C217.585 132.348 220.778 126.348 226.286 119.129C237.303 104.692 257.592 85.3701 294.664 65.9428ZM373.368 12.4773C362.251 27.0463 341.842 46.4578 304.66 65.9428C267.587 85.3701 247.299 104.692 236.282 119.129C230.774 126.348 227.581 132.348 225.768 136.534C224.861 138.627 224.298 140.267 223.964 141.379C223.796 141.935 223.686 142.359 223.617 142.642C223.583 142.784 223.56 142.89 223.545 142.96L223.536 143.003L223.529 143.037L223.525 143.055L223.525 143.058L223.525 143.059C223.525 143.059 223.525 143.059 223.033 142.968C222.541 142.877 222.541 142.876 222.542 142.875L222.542 142.873L222.543 142.866L222.548 142.842C222.55 142.83 222.553 142.815 222.557 142.796C222.56 142.783 222.563 142.768 222.567 142.752C222.583 142.673 222.609 142.558 222.645 142.408C222.718 142.107 222.833 141.665 223.006 141.091C223.352 139.942 223.927 138.266 224.85 136.137C226.696 131.877 229.929 125.807 235.487 118.523C246.604 103.954 267.013 84.5421 304.195 65.0571C341.268 45.6298 361.556 26.3075 372.573 11.8707C378.081 4.6518 381.274 -1.34848 383.087 -5.53419C383.994 -7.6272 384.557 -9.26699 384.892 -10.3791C385.059 -10.9352 385.169 -11.3594 385.238 -11.6424C385.272 -11.784 385.295 -11.8902 385.31 -11.9599C385.318 -11.9948 385.323 -12.0206 385.326 -12.0371L385.33 -12.0549L385.33 -12.0586L385.331 -12.0591C385.331 -12.059 385.334 -12.0581 385.822 -11.9677C386.314 -11.8766 386.314 -11.8761 386.314 -11.8754L386.313 -11.8732L386.312 -11.8664L386.307 -11.8421C386.303 -11.8212 386.297 -11.7911 386.288 -11.7518C386.272 -11.6733 386.246 -11.5583 386.21 -11.4079C386.137 -11.1072 386.022 -10.665 385.849 -10.0909C385.503 -8.94251 384.928 -7.26616 384.005 -5.13661C382.159 -0.877187 378.926 5.19339 373.368 12.4773ZM314.655 65.9428C351.838 46.4578 372.246 27.0463 383.364 12.4773C388.922 5.19339 392.155 -0.877187 394.001 -5.13661C394.924 -7.26616 395.499 -8.94251 395.845 -10.0909C396.018 -10.665 396.133 -11.1072 396.206 -11.4079C396.242 -11.5583 396.268 -11.6733 396.284 -11.7518C396.293 -11.7911 396.299 -11.8212 396.303 -11.8421L396.308 -11.8664L396.309 -11.8732L396.309 -11.8754C396.309 -11.8761 396.31 -11.8766 395.818 -11.9677C395.33 -12.0581 395.326 -12.059 395.326 -12.0591L395.326 -12.0586L395.326 -12.0549L395.322 -12.0371C395.319 -12.0206 395.314 -11.9948 395.306 -11.9599C395.291 -11.8902 395.268 -11.784 395.234 -11.6424C395.165 -11.3594 395.055 -10.9352 394.887 -10.3791C394.553 -9.26699 393.99 -7.6272 393.083 -5.53419C391.27 -1.34848 388.077 4.6518 382.569 11.8707C371.552 26.3075 351.264 45.6298 314.191 65.0571C277.009 84.5421 256.6 103.954 245.483 118.523C239.925 125.807 236.691 131.877 234.846 136.137C233.923 138.266 233.348 139.942 233.002 141.091C232.829 141.665 232.714 142.107 232.641 142.408C232.605 142.558 232.579 142.673 232.562 142.752C232.554 142.791 232.548 142.821 232.544 142.842L232.539 142.866L232.538 142.873L232.537 142.875C232.537 142.876 232.537 142.877 233.029 142.968C233.52 143.059 233.52 143.059 233.52 143.059L233.52 143.058L233.521 143.055L233.525 143.037C233.528 143.021 233.533 142.995 233.541 142.96C233.555 142.89 233.579 142.784 233.613 142.642C233.681 142.359 233.792 141.935 233.959 141.379C234.294 140.267 234.857 138.627 235.763 136.534C237.577 132.348 240.77 126.348 246.278 119.129C257.294 104.692 277.583 85.3701 314.655 65.9428Z"
    fill="url(#paint0_linear_1750_1188)" />
  <defs>
    <linearGradient id="paint0_linear_1750_1188" x1="283.903" y1="-7.23601" x2="27.5656"
      y2="151.107" gradientUnits="userSpaceOnUse">
      <stop stop-color="#4EE4E4" stop-opacity="0" />
      <stop offset="0.576029" stop-color="white" stop-opacity="0.19" />
      <stop offset="1" stop-color="#7457CD" stop-opacity="0.07" />
    </linearGradient>
  </defs>
</svg>