<svg width="1320" height="369" viewBox="0 0 1320 369" fill="none" xmlns="http://www.w3.org/2000/svg">
  <path fill-rule="evenodd" clip-rule="evenodd" d="M687.68 272.32C721.88 272.32 742.04 257.56 754.28 241.36L729.44 217.96C719.72 231.64 706.4 238.84 689.48 238.84C658.16 238.84 636.92 214.72 636.92 180.88C636.92 147.04 658.16 123.28 689.48 123.28C706.4 123.28 719.72 129.76 729.44 143.44L754.28 120.76C742.04 104.2 721.88 89.8001 687.68 89.8001C635.12 89.8001 598.04 128.32 598.04 180.88C598.04 233.44 635.12 272.32 687.68 272.32V272.32ZM820.56 268V149.56C828.12 136.96 849.36 126.16 865.56 126.16C870.24 126.16 873.84 126.52 877.08 127.24V89.8001C854.76 89.8001 833.88 102.76 820.56 119.32V94.1201H782.76V268H820.56ZM921.76 72.8801C934.72 72.8801 945.16 62.4401 945.16 49.4801C945.16 36.5201 934.72 26.0801 921.76 26.0801C908.8 26.0801 898.36 36.5201 898.36 49.4801C898.36 62.4401 908.8 72.8801 921.76 72.8801ZM940.48 268V94.1201H902.68V268H940.48ZM1044.2 272.32C1091 272.32 1116.56 248.92 1116.56 217.96C1116.56 148.84 1011.44 171.88 1011.44 141.28C1011.44 129.04 1023.68 119.68 1043.48 119.68C1065.44 119.68 1084.52 129.04 1094.96 140.56L1110.8 113.92C1095.32 100.24 1073 89.8001 1043.48 89.8001C999.56 89.8001 975.08 113.92 975.08 142.36C975.08 209.32 1080.2 184.84 1080.2 219.04C1080.2 232.72 1068.32 242.08 1045.64 242.08C1023.32 242.08 999.2 230.56 986.96 217.96L969.68 244.96C987.68 262.6 1014.32 272.32 1044.2 272.32V272.32ZM1242.96 272.32C1221 272.32 1201.56 262.24 1187.16 243.88V334.24H1149.36V94.1201H1187.16V117.88C1200.12 100.6 1220.28 89.8001 1242.96 89.8001C1287.96 89.8001 1320 123.64 1320 180.88C1320 238.12 1287.96 272.32 1242.96 272.32ZM1231.8 238.84C1261.68 238.84 1281.12 214.72 1281.12 180.88C1281.12 147.04 1261.68 123.28 1231.8 123.28C1214.16 123.28 1195.8 133.36 1187.16 146.32V215.08C1195.44 228.04 1214.16 238.84 1231.8 238.84V238.84Z" fill="#363636" />
  <path fill-rule="evenodd" clip-rule="evenodd" d="M177.837 291.907L249.145 367.621L304.74 277.903L452.26 261.623L428.453 2.41763L2.18165 49.4591L25.9889 308.664L177.837 291.907Z" fill="url(#paint0_linear_17227_7058)" />
  <defs>
    <linearGradient id="paint0_linear_17227_7058" x1="226.328" y1="360.206" x2="227.863" y2="8.39754" gradientUnits="userSpaceOnUse">
      <stop stop-color="#137ECE" />
      <stop offset="1" stop-color="#288BD5" />
    </linearGradient>
  </defs>
</svg>