<svg width="1344" height="422" viewBox="0 0 1344 422" fill="none" xmlns="http://www.w3.org/2000/svg">
  <path fill-rule="evenodd" clip-rule="evenodd" d="M711.68 272.32C745.88 272.32 766.04 257.56 778.28 241.36L753.44 217.96C743.72 231.64 730.4 238.84 713.48 238.84C682.16 238.84 660.92 214.72 660.92 180.88C660.92 147.04 682.16 123.28 713.48 123.28C730.4 123.28 743.72 129.76 753.44 143.44L778.28 120.76C766.04 104.2 745.88 89.8001 711.68 89.8001C659.12 89.8001 622.04 128.32 622.04 180.88C622.04 233.44 659.12 272.32 711.68 272.32V272.32ZM844.56 268V149.56C852.12 136.96 873.36 126.16 889.56 126.16C894.24 126.16 897.84 126.52 901.08 127.24V89.8001C878.76 89.8001 857.88 102.76 844.56 119.32V94.1201H806.76V268H844.56ZM945.76 72.8801C958.72 72.8801 969.16 62.4401 969.16 49.4801C969.16 36.5201 958.72 26.0801 945.76 26.0801C932.8 26.0801 922.36 36.5201 922.36 49.4801C922.36 62.4401 932.8 72.8801 945.76 72.8801ZM964.48 268V94.1201H926.68V268H964.48ZM1068.2 272.32C1115 272.32 1140.56 248.92 1140.56 217.96C1140.56 148.84 1035.44 171.88 1035.44 141.28C1035.44 129.04 1047.68 119.68 1067.48 119.68C1089.44 119.68 1108.52 129.04 1118.96 140.56L1134.8 113.92C1119.32 100.24 1097 89.8001 1067.48 89.8001C1023.56 89.8001 999.08 113.92 999.08 142.36C999.08 209.32 1104.2 184.84 1104.2 219.04C1104.2 232.72 1092.32 242.08 1069.64 242.08C1047.32 242.08 1023.2 230.56 1010.96 217.96L993.68 244.96C1011.68 262.6 1038.32 272.32 1068.2 272.32V272.32ZM1266.96 272.32C1245 272.32 1225.56 262.24 1211.16 243.88V334.24H1173.36V94.1201H1211.16V117.88C1224.12 100.6 1244.28 89.8001 1266.96 89.8001C1311.96 89.8001 1344 123.64 1344 180.88C1344 238.12 1311.96 272.32 1266.96 272.32ZM1255.8 238.84C1285.68 238.84 1305.12 214.72 1305.12 180.88C1305.12 147.04 1285.68 123.28 1255.8 123.28C1238.16 123.28 1219.8 133.36 1211.16 146.32V215.08C1219.44 228.04 1238.16 238.84 1255.8 238.84V238.84Z" fill="white" />
  <g filter="url(#filter0_d_17226_7048)">
    <path d="M201.837 291.907L273.145 367.621L328.74 277.903L476.26 261.623L452.453 2.41763L26.1816 49.4591L49.9889 308.664L201.837 291.907Z" fill="black" />
  </g>
  <path d="M201.837 291.907L273.145 367.621L328.74 277.903L476.26 261.623L452.453 2.41763L26.1816 49.4591L49.9889 308.664L201.837 291.907Z" fill="white" />
  <defs>
    <filter id="filter0_d_17226_7048" x="0.181641" y="2.41748" width="502.079" height="419.204" filterUnits="userSpaceOnUse" color-interpolation-filters="sRGB">
      <feFlood flood-opacity="0" result="BackgroundImageFix" />
      <feColorMatrix in="SourceAlpha" type="matrix" values="0 0 0 0 0 0 0 0 0 0 0 0 0 0 0 0 0 0 127 0" result="hardAlpha" />
      <feOffset dy="28" />
      <feGaussianBlur stdDeviation="13" />
      <feColorMatrix type="matrix" values="0 0 0 0 0 0 0 0 0 0 0 0 0 0 0 0 0 0 0.12 0" />
      <feBlend mode="normal" in2="BackgroundImageFix" result="effect1_dropShadow_17226_7048" />
      <feBlend mode="normal" in="SourceGraphic" in2="effect1_dropShadow_17226_7048" result="shape" />
    </filter>
  </defs>
</svg>