<svg width="81" height="20" viewBox="0 0 65 16" fill="none" xmlns="http://www.w3.org/2000/svg">
  <path d="M2.27344 4.71094V0H0.101562V12H2.27344V5.89844C2.35677 5.78906 2.44792 5.6901 2.54688 5.60156C2.65104 5.51302 2.76562 5.4375 2.89062 5.375C3.02604 5.30208 3.17708 5.2474 3.34375 5.21094C3.51042 5.17448 3.6901 5.15625 3.88281 5.15625C4.13281 5.15625 4.35677 5.1901 4.55469 5.25781C4.7526 5.32031 4.92188 5.41927 5.0625 5.55469C5.20312 5.6901 5.3099 5.86719 5.38281 6.08594C5.46094 6.30469 5.5 6.5651 5.5 6.86719V12H7.67188V6.88281C7.67188 6.26302 7.59635 5.73438 7.44531 5.29688C7.29948 4.85417 7.09375 4.49219 6.82812 4.21094C6.5625 3.92969 6.24479 3.72396 5.875 3.59375C5.50521 3.45833 5.09896 3.39062 4.65625 3.39062C4.35417 3.39062 4.06771 3.4349 3.79688 3.52344C3.52604 3.61198 3.27865 3.73698 3.05469 3.89844C2.90885 4.0026 2.76823 4.125 2.63281 4.26562C2.5026 4.40104 2.38281 4.54948 2.27344 4.71094ZM13.6953 1.47656H11.5234V3.54688H9.59375V5.14844H11.5234V8.99219C11.5234 9.54948 11.5964 10.0286 11.7422 10.4297C11.888 10.8255 12.0964 11.151 12.3672 11.4062C12.6328 11.6667 12.9531 11.8594 13.3281 11.9844C13.7083 12.1042 14.1302 12.1641 14.5938 12.1641C14.8333 12.1641 15.0755 12.151 15.3203 12.125C15.5703 12.1042 15.8099 12.0729 16.0391 12.0312C16.2682 11.9896 16.4844 11.9375 16.6875 11.875C16.8906 11.8073 17.0677 11.7292 17.2188 11.6406L17.0078 10.1484C16.9089 10.1745 16.7891 10.2005 16.6484 10.2266C16.513 10.2526 16.3672 10.276 16.2109 10.2969C16.0495 10.3229 15.8802 10.3438 15.7031 10.3594C15.5312 10.375 15.362 10.3828 15.1953 10.3828C14.9661 10.3828 14.7578 10.3568 14.5703 10.3047C14.388 10.2526 14.2318 10.1641 14.1016 10.0391C13.9714 9.91927 13.8698 9.75781 13.7969 9.55469C13.7292 9.34635 13.6953 9.08854 13.6953 8.78125V5.14844H16.8516V3.54688H13.6953V1.47656ZM23.3047 1.47656H21.1328V3.54688H19.2031V5.14844H21.1328V8.99219C21.1328 9.54948 21.2057 10.0286 21.3516 10.4297C21.4974 10.8255 21.7057 11.151 21.9766 11.4062C22.2422 11.6667 22.5625 11.8594 22.9375 11.9844C23.3177 12.1042 23.7396 12.1641 24.2031 12.1641C24.4427 12.1641 24.6849 12.151 24.9297 12.125C25.1797 12.1042 25.4193 12.0729 25.6484 12.0312C25.8776 11.9896 26.0938 11.9375 26.2969 11.875C26.5 11.8073 26.6771 11.7292 26.8281 11.6406L26.6172 10.1484C26.5182 10.1745 26.3984 10.2005 26.2578 10.2266C26.1224 10.2526 25.9766 10.276 25.8203 10.2969C25.6589 10.3229 25.4896 10.3438 25.3125 10.3594C25.1406 10.375 24.9714 10.3828 24.8047 10.3828C24.5755 10.3828 24.3672 10.3568 24.1797 10.3047C23.9974 10.2526 23.8411 10.1641 23.7109 10.0391C23.5807 9.91927 23.4792 9.75781 23.4062 9.55469C23.3385 9.34635 23.3047 9.08854 23.3047 8.78125V5.14844H26.4609V3.54688H23.3047V1.47656ZM28.9609 15.25H31.1328V11.2656C31.2318 11.375 31.3359 11.474 31.4453 11.5625C31.5547 11.651 31.6693 11.7318 31.7891 11.8047C31.9922 11.9193 32.2109 12.0052 32.4453 12.0625C32.6849 12.125 32.9453 12.1562 33.2266 12.1562C33.7578 12.1562 34.2292 12.0469 34.6406 11.8281C35.0521 11.6094 35.3984 11.3073 35.6797 10.9219C35.9557 10.5417 36.1641 10.0885 36.3047 9.5625C36.4505 9.03646 36.5234 8.46615 36.5234 7.85156V7.6875C36.5234 7.04688 36.4505 6.46354 36.3047 5.9375C36.1641 5.40625 35.9531 4.95052 35.6719 4.57031C35.3906 4.19531 35.0443 3.90625 34.6328 3.70312C34.2214 3.49479 33.7474 3.39062 33.2109 3.39062C32.9505 3.39062 32.7057 3.41927 32.4766 3.47656C32.2526 3.52865 32.0469 3.60417 31.8594 3.70312C31.7031 3.78646 31.5573 3.88542 31.4219 4C31.2865 4.10938 31.1615 4.23438 31.0469 4.375L30.9688 3.54688H28.9609V15.25ZM34.3516 7.6875V7.85156C34.3516 8.20052 34.3203 8.53125 34.2578 8.84375C34.1953 9.15104 34.0964 9.42188 33.9609 9.65625C33.8255 9.89062 33.6484 10.0755 33.4297 10.2109C33.2161 10.3464 32.9557 10.4141 32.6484 10.4141C32.4557 10.4141 32.2812 10.3958 32.125 10.3594C31.9688 10.3177 31.8307 10.2604 31.7109 10.1875C31.5859 10.1094 31.474 10.0156 31.375 9.90625C31.2812 9.79688 31.2005 9.67448 31.1328 9.53906V6.00781C31.2057 5.86198 31.2917 5.73438 31.3906 5.625C31.4948 5.51562 31.6146 5.42448 31.75 5.35156C31.8698 5.28906 32.0026 5.24219 32.1484 5.21094C32.2943 5.17448 32.4557 5.15625 32.6328 5.15625C32.9401 5.15625 33.2005 5.22135 33.4141 5.35156C33.6328 5.48177 33.8125 5.65885 33.9531 5.88281C34.0885 6.11198 34.1875 6.38281 34.25 6.69531C34.3177 7.0026 34.3516 7.33333 34.3516 7.6875ZM40.8438 10.7422C40.8438 11.1432 40.9792 11.4792 41.25 11.75C41.5208 12.0208 41.888 12.1562 42.3516 12.1562C42.8099 12.1562 43.1745 12.0234 43.4453 11.7578C43.7214 11.487 43.8594 11.1484 43.8594 10.7422C43.8594 10.3359 43.724 9.99479 43.4531 9.71875C43.1875 9.44271 42.8203 9.30469 42.3516 9.30469C41.8776 9.30469 41.5078 9.44531 41.2422 9.72656C40.9766 10.0026 40.8438 10.3411 40.8438 10.7422ZM40.8438 4.28906C40.8438 4.6901 40.9792 5.02604 41.25 5.29688C41.5208 5.56771 41.888 5.70312 42.3516 5.70312C42.8099 5.70312 43.1745 5.57031 43.4453 5.30469C43.7214 5.03385 43.8594 4.69531 43.8594 4.28906C43.8594 3.88281 43.724 3.54167 43.4531 3.26562C43.1875 2.98958 42.8203 2.85156 42.3516 2.85156C41.8776 2.85156 41.5078 2.99219 41.2422 3.27344C40.9766 3.54948 40.8438 3.88802 40.8438 4.28906ZM50.7891 12.9766L55.0469 0.625H53.0234L48.7656 12.9766H50.7891ZM60.3984 12.9766L64.6562 0.625H62.6328L58.375 12.9766H60.3984Z" fill="#36F5DE" />
</svg>