<svg width="61" height="63" viewBox="0 0 61 63" fill="none" xmlns="http://www.w3.org/2000/svg">
  <path d="M59.284 29.2816L32.59 2.58752L30.0024 0L9.9082 20.0942L0.720856 29.2816C0.260832 29.7422 0.00244141 30.3665 0.00244141 31.0175C0.00244141 31.6685 0.260832 32.2929 0.720856 32.7535L19.0792 51.1118L30.0024 62.035L50.0967 41.9408L50.4078 41.6296L59.284 32.7535C59.7441 32.2929 60.0024 31.6685 60.0024 31.0175C60.0024 30.3665 59.7441 29.7422 59.284 29.2816V29.2816ZM30.0024 40.1885L20.8315 31.0175L30.0024 21.8466L39.1734 31.0175L30.0024 40.1885Z" fill="#2684FF" />
  <path d="M30.0024 21.8466C27.118 18.9619 25.4921 15.053 25.4799 10.9737C25.4676 6.89429 27.0699 2.97577 29.9369 0.0737305L9.86719 20.1352L20.7905 31.0585L30.0024 21.8466Z" fill="url(#paint0_linear_17210_7040)" />
  <path d="M39.1975 30.9932L30.002 40.1887C31.437 41.6229 32.5753 43.3257 33.352 45.2C34.1287 47.0742 34.5284 49.0832 34.5284 51.112C34.5284 53.1408 34.1287 55.1497 33.352 57.024C32.5753 58.8982 31.437 60.6011 30.002 62.0353V62.0353L50.1208 41.9164L39.1975 30.9932Z" fill="url(#paint1_linear_17210_7040)" />
  <defs>
    <linearGradient id="paint0_linear_17210_7040" x1="28.3647" y1="12.5692" x2="15.5581" y2="25.3758" gradientUnits="userSpaceOnUse">
      <stop offset="0.18" stop-color="#0052CC" />
      <stop offset="1" stop-color="#2684FF" />
    </linearGradient>
    <linearGradient id="paint1_linear_17210_7040" x1="31.7543" y1="49.3597" x2="44.5363" y2="36.5776" gradientUnits="userSpaceOnUse">
      <stop offset="0.18" stop-color="#0052CC" />
      <stop offset="1" stop-color="#2684FF" />
    </linearGradient>
  </defs>
</svg>