<svg width="80" height="56" viewBox="0 0 80 56" fill="none" xmlns="http://www.w3.org/2000/svg">
  <path d="M33.299 6.09143C34.6054 4.71715 36.1784 3.62394 37.9219 2.87873C39.6654 2.13351 41.5427 1.75197 43.4387 1.75746C48.7289 1.75746 53.3143 4.68571 55.7816 9.04889C57.9776 8.08463 60.3496 7.5861 62.7479 7.58476C72.2705 7.58476 80 15.3448 80 24.9206C80 34.4965 72.2705 42.2578 62.7479 42.2578C61.5721 42.2578 60.4559 42.1397 59.3384 41.906C58.2428 43.8587 56.6472 45.4847 54.7156 46.617C52.7839 47.7493 50.5857 48.3471 48.3467 48.3492C46.3784 48.3492 44.4965 47.8794 42.8216 47.0895C40.6171 52.2146 35.5327 55.8159 29.5962 55.8159C26.659 55.8207 23.791 54.925 21.3787 53.2493C18.9665 51.5736 17.126 49.1986 16.1054 46.4444C15.2241 46.621 14.3124 46.7378 13.3727 46.7378C5.96571 46.6794 0 40.6756 0 33.2381C0 28.2603 2.67429 23.9251 6.67175 21.5822C5.82845 19.6421 5.39816 17.5478 5.40825 15.4324C5.40825 6.91175 12.3429 0 20.9257 0C25.981 0 30.4483 2.37206 33.299 6.09143Z" fill="#179CD7" />
  <path d="M11.581 28.9333C11.5214 29.0501 11.6102 29.0793 11.6102 29.1085C11.7563 29.2253 11.9036 29.285 12.0801 29.3726C12.9029 29.812 13.6674 29.9288 14.461 29.9288C16.1068 29.9288 17.1353 29.0501 17.1353 27.6736V27.6444C17.1353 26.3555 15.9887 25.8869 14.9004 25.5364L14.7544 25.478C13.9315 25.2139 13.2255 24.9802 13.2255 24.452V24.4228C13.2255 23.9542 13.6382 23.6329 14.2845 23.6329C14.9893 23.6329 15.8414 23.8666 16.3709 24.1599C16.3709 24.1599 16.5182 24.2475 16.5766 24.1015C16.6058 24.0126 16.8712 23.2812 16.9004 23.1936C16.9296 23.1047 16.8712 23.0463 16.8115 23.0171C16.1944 22.6361 15.3423 22.4025 14.461 22.4025H14.2833C12.7849 22.4025 11.7271 23.3104 11.7271 24.5993V24.6285C11.7271 26.005 12.8737 26.4444 13.962 26.7364L14.1372 26.7948C14.9309 27.0298 15.6064 27.2342 15.6064 27.7904V27.8196C15.6064 28.3174 15.1658 28.6983 14.461 28.6983C14.1956 28.6983 13.3144 28.6983 12.3442 28.0837C12.2274 28.0253 12.1677 27.9669 12.0801 27.9085C12.0217 27.8793 11.9036 27.8196 11.8744 27.9961L11.5798 28.9333H11.581ZM35.6204 28.9333C35.562 29.0501 35.6496 29.0793 35.6496 29.1085C35.7969 29.2253 35.9442 29.285 36.1195 29.3726C36.9436 29.812 37.7068 29.9288 38.5004 29.9288C40.1461 29.9288 41.1747 29.0501 41.1747 27.6736V27.6444C41.1747 26.3555 40.0293 25.8869 38.941 25.5364L38.795 25.478C37.9722 25.2139 37.2661 24.9802 37.2661 24.452V24.4228C37.2661 23.9542 37.6775 23.6329 38.3239 23.6329C39.0299 23.6329 39.882 23.8666 40.4115 24.1599C40.4115 24.1599 40.5575 24.2475 40.6172 24.1015C40.6464 24.0126 40.9106 23.2812 40.9398 23.1936C40.969 23.1047 40.9106 23.0463 40.8509 23.0171C40.235 22.6361 39.3829 22.4025 38.5017 22.4025H38.3239C36.8255 22.4025 35.7677 23.3104 35.7677 24.5993V24.6285C35.7677 26.005 36.9131 26.4444 38.0014 26.7364L38.1779 26.7948C38.9715 27.0298 39.6471 27.2342 39.6471 27.7904V27.8196C39.6471 28.3174 39.2064 28.6983 38.5004 28.6983C38.2363 28.6983 37.355 28.6983 36.3849 28.0837C36.2668 28.0253 36.2083 27.9669 36.1207 27.9085C36.0902 27.8793 35.9429 27.8488 35.9137 27.9961L35.6217 28.9333H35.6204ZM53.3728 24.7161C53.2389 24.292 53.0299 23.8954 52.7556 23.5453C52.461 23.2228 52.108 22.9295 51.6979 22.7542C51.2864 22.5498 50.7861 22.4621 50.2274 22.4621C49.6687 22.4621 49.1696 22.5498 48.7582 22.7542C48.3595 22.9498 48.0007 23.2181 47.7004 23.5453C47.4153 23.8883 47.2051 24.2871 47.0833 24.7161C46.937 25.19 46.8675 25.6843 46.8775 26.1802C46.8775 26.7072 46.936 27.205 47.0833 27.6444C47.2306 28.0837 47.4363 28.4952 47.7004 28.8164C47.9937 29.1377 48.348 29.431 48.7582 29.6063C49.1696 29.7828 49.6699 29.8996 50.2274 29.8996C50.7861 29.8996 51.2864 29.8107 51.6979 29.6075C52.1093 29.431 52.461 29.1377 52.7556 28.8164C53.0409 28.4731 53.2511 28.0738 53.3728 27.6444C53.5201 27.205 53.5785 26.7072 53.5785 26.1802C53.5785 25.6533 53.5201 25.1847 53.3728 24.7161ZM51.9912 26.1802C51.9912 26.9714 51.8452 27.586 51.5506 28.0253C51.2572 28.4647 50.8153 28.6704 50.2287 28.6704C49.6115 28.6704 49.2001 28.4647 48.9055 28.0253C48.6122 27.586 48.4649 26.9714 48.4649 26.1802C48.4649 25.3904 48.6122 24.7745 48.9055 24.3352C49.1988 23.8958 49.6115 23.6914 50.2274 23.6914C50.8458 23.6914 51.2864 23.8971 51.5506 24.3352C51.8452 24.7745 51.9912 25.3891 51.9912 26.1802Z" fill="white" />
  <path fill-rule="evenodd" clip-rule="evenodd" d="M64.6301 28.4951C64.5716 28.3478 64.4536 28.4063 64.4536 28.4063C64.2478 28.4951 64.0421 28.5523 63.8059 28.5815C63.5723 28.6107 63.3361 28.6412 63.044 28.6412C62.3672 28.6412 61.8669 28.4355 61.4847 28.0545C61.1037 27.6736 60.898 27.0297 60.898 26.1802C60.898 25.4183 61.0732 24.8342 61.4263 24.3936C61.7501 23.9555 62.2783 23.7205 62.9551 23.7205C63.5139 23.7205 63.9545 23.779 64.3951 23.9263C64.3951 23.9263 64.512 23.9847 64.5424 23.8374C64.6593 23.5161 64.7482 23.2812 64.865 22.9002C64.8942 22.7834 64.8066 22.7542 64.7761 22.7542C64.4775 22.6585 64.1734 22.5804 63.8656 22.5205C63.5723 22.4621 63.2193 22.4621 62.837 22.4621C62.2491 22.4621 61.7501 22.5497 61.3094 22.7542C60.8883 22.9415 60.5085 23.2103 60.192 23.5453C59.8887 23.885 59.6587 24.2836 59.5164 24.7161C59.36 25.1884 59.2807 25.6827 59.2815 26.1802C59.2815 27.3231 59.5748 28.231 60.192 28.904C60.8091 29.577 61.7209 29.9288 62.8967 29.9288C63.6015 29.9288 64.3063 29.7828 64.8358 29.577C64.8358 29.577 64.9247 29.5186 64.8942 29.4018L64.6301 28.4939V28.4951ZM71.6256 24.452C71.5042 24.0551 71.3043 23.6868 71.0377 23.3688C70.7443 23.0463 70.4497 22.8126 70.1564 22.6958C69.7398 22.5127 69.2882 22.4226 68.8332 22.4317C68.2453 22.4317 67.7158 22.5205 67.3056 22.7237C66.8895 22.9042 66.5253 23.1862 66.2466 23.544C65.9505 23.891 65.7396 24.3024 65.6307 24.7453C65.4865 25.2197 65.4171 25.7137 65.425 26.2094C65.425 26.7364 65.4834 27.2342 65.6307 27.6736C65.7767 28.1129 65.9824 28.5231 66.3063 28.8444C66.5996 29.1669 67.011 29.431 67.4821 29.6063C67.952 29.7815 68.5107 29.8704 69.157 29.8704C70.5094 29.8704 71.2142 29.577 71.4783 29.4005C71.538 29.3726 71.5672 29.3129 71.5075 29.1669L71.2142 28.3174C71.1558 28.2005 71.0377 28.2297 71.0377 28.2297C70.7139 28.3466 70.244 28.5815 69.1278 28.5815C68.4218 28.5815 67.8643 28.3758 67.5405 28.0253C67.1875 27.6736 67.0402 27.1758 67.011 26.5015H71.6548C71.6548 26.5015 71.7729 26.5015 71.8021 26.3847C71.7729 26.4139 71.9202 25.5072 71.6256 24.452V24.452ZM67.011 25.4183C67.0707 24.979 67.1888 24.6285 67.3932 24.3351C67.6878 23.8958 68.0993 23.6621 68.7164 23.6621C69.3336 23.6621 69.7158 23.8958 70.0091 24.3351C70.1856 24.6272 70.2732 25.0082 70.3037 25.4183H67.0097H67.011ZM34.5056 24.452C34.3842 24.0551 34.1843 23.6868 33.9177 23.3688C33.6231 23.0463 33.3297 22.8126 33.0351 22.6958C32.6189 22.5129 32.1678 22.4228 31.7132 22.4317C31.1253 22.4317 30.5958 22.5205 30.1843 22.7237C29.7687 22.9044 29.405 23.1864 29.1266 23.544C28.83 23.8909 28.6187 24.3022 28.5094 24.7453C28.3652 25.2197 28.2958 25.7137 28.3037 26.2094C28.3037 26.7364 28.3621 27.2342 28.5094 27.6736C28.6567 28.1129 28.8624 28.5231 29.185 28.8444C29.4796 29.1669 29.891 29.431 30.3609 29.6063C30.8307 29.7815 31.3894 29.8704 32.037 29.8704C33.3882 29.8704 34.0942 29.577 34.3583 29.4005C34.4167 29.3726 34.4472 29.3129 34.3875 29.1669L34.0942 28.3174C34.0345 28.2005 33.9164 28.2297 33.9164 28.2297C33.5939 28.3466 33.124 28.5815 32.0066 28.5815C31.3018 28.5815 30.7431 28.3758 30.4193 28.0253C30.0675 27.6736 29.9202 27.1758 29.891 26.5015H34.5348C34.5348 26.5015 34.6516 26.5015 34.6809 26.3847C34.6516 26.4139 34.7989 25.5072 34.5056 24.452V24.452ZM29.891 25.4183C29.9494 24.979 30.0675 24.6285 30.272 24.3351C30.5666 23.8958 30.978 23.6621 31.5951 23.6621C32.2123 23.6621 32.5945 23.8958 32.8891 24.3351C33.0656 24.6272 33.1532 25.0082 33.1824 25.4183H29.8923H29.891Z" fill="white" />
  <path d="M21.7206 25.2139C21.5441 25.2139 21.28 25.1847 20.9854 25.1847C20.5752 25.1847 20.193 25.2431 19.84 25.3307C19.4923 25.4162 19.1634 25.5652 18.8698 25.7701C18.5925 25.9725 18.3621 26.2324 18.1943 26.532C18.0165 26.8241 17.9594 27.205 17.9594 27.586C17.9594 27.9961 18.0178 28.3479 18.1651 28.6399C18.3111 28.932 18.5168 29.1669 18.7822 29.3726C19.07 29.5614 19.3877 29.7001 19.7219 29.7828C20.0749 29.8704 20.4863 29.8996 20.9562 29.8996C21.426 29.8996 21.8971 29.8704 22.367 29.7828C22.8089 29.6939 23.3663 29.6063 23.5428 29.5479C23.6901 29.5187 23.8667 29.459 23.8667 29.459C23.9835 29.431 23.9835 29.3142 23.9835 29.3142V25.0971C23.9835 24.1599 23.7486 23.4856 23.2495 23.0463C22.7492 22.6374 22.0432 22.4025 21.1327 22.4025C20.7809 22.4025 20.2222 22.4609 19.8984 22.5193C19.8984 22.5193 18.899 22.725 18.4584 23.0463C18.4584 23.0463 18.3695 23.106 18.4292 23.2228L18.753 24.1015C18.7822 24.2183 18.899 24.1891 18.899 24.1891C18.899 24.1891 18.9282 24.1891 18.9879 24.1599C19.8692 23.6901 21.0159 23.6901 21.0159 23.6901C21.5149 23.6901 21.8971 23.779 22.1613 23.9834C22.4267 24.1891 22.5435 24.4812 22.5435 25.0971V25.3015C22.0736 25.2431 21.7206 25.2139 21.7206 25.2139V25.2139ZM19.8692 28.4647C19.6927 28.3174 19.6635 28.2882 19.6051 28.2006C19.5013 28.0128 19.4504 27.8004 19.4578 27.586C19.4578 27.1758 19.6051 26.8837 19.8692 26.678C19.8692 26.678 20.2806 26.3263 21.2216 26.3555C21.8971 26.3555 22.4851 26.4736 22.4851 26.4736V28.5815C22.4851 28.5815 21.8971 28.6983 21.2216 28.7568C20.2806 28.786 19.8692 28.4647 19.8692 28.4647V28.4647Z" fill="white" />
  <path fill-rule="evenodd" clip-rule="evenodd" d="M59.1047 22.8419C59.1339 22.7251 59.0755 22.6959 59.0463 22.6667C58.7972 22.5965 58.5405 22.5569 58.2819 22.5486C57.6939 22.5194 57.3714 22.607 57.0768 22.7543C56.7676 22.8803 56.4948 23.0815 56.2831 23.3397V22.7835C56.2831 22.6946 56.2247 22.6362 56.1371 22.6362H54.9612C54.8724 22.6362 54.8139 22.6959 54.8139 22.7835V29.666C54.8139 29.7536 54.8724 29.8121 54.9612 29.8121H56.1663C56.2552 29.8121 56.3123 29.7524 56.3123 29.6648V26.1803C56.3123 25.7117 56.372 25.2432 56.4597 24.9803C56.5485 24.687 56.6946 24.4521 56.8711 24.306C57.0476 24.1308 57.2241 24.014 57.4298 23.9543C57.6309 23.8985 57.8383 23.8691 58.047 23.8667C58.2819 23.8667 58.546 23.9251 58.546 23.9251C58.6349 23.9251 58.6933 23.8667 58.7238 23.8082C58.8406 23.5746 59.0755 22.9587 59.1047 22.8419V22.8419ZM47.6698 19.6203C47.518 19.5642 47.3604 19.5251 47.2 19.5035C46.9963 19.4667 46.7898 19.4471 46.5828 19.4451C45.7308 19.4451 45.0844 19.6787 44.6146 20.1473C44.1447 20.6171 43.8501 21.3194 43.6736 22.2552L43.6139 22.579H42.5562C42.5562 22.579 42.4393 22.579 42.4101 22.7251L42.2323 23.6901C42.2323 23.779 42.2628 23.8374 42.3797 23.8374H43.4082L42.3797 29.6063C42.292 30.0762 42.2044 30.4571 42.1155 30.7492C42.0266 31.0413 41.9098 31.247 41.7917 31.393C41.6749 31.539 41.5568 31.6571 41.3803 31.7155C41.2343 31.774 41.0285 31.8032 40.8216 31.8032C40.7047 31.8032 40.5587 31.774 40.4406 31.774C40.3225 31.7448 40.2641 31.7155 40.1765 31.6851C40.1765 31.6851 40.0584 31.6279 39.9987 31.774C39.9708 31.8616 39.6762 32.6235 39.647 32.7111C39.6177 32.7987 39.647 32.8863 39.7054 32.8863C39.8527 32.9448 39.9403 32.9752 40.1168 33.0032C40.3822 33.0628 40.5866 33.0628 40.7936 33.0628C41.2343 33.0628 41.6165 33.0032 41.939 32.8863C42.2674 32.7647 42.5606 32.5635 42.7924 32.3009C43.0553 32.0027 43.2549 31.654 43.379 31.2762C43.5554 30.7701 43.6929 30.2514 43.7904 29.7244L44.8495 23.8374H46.3771C46.3771 23.8374 46.4952 23.8374 46.5244 23.6914L46.7009 22.7251C46.7009 22.6362 46.6717 22.579 46.5536 22.579H45.0844C45.0844 22.5498 45.1733 22.0216 45.3193 21.5251C45.3846 21.3346 45.4958 21.1632 45.6431 21.026C45.7438 20.9117 45.8765 20.8303 46.0241 20.7924C46.1714 20.734 46.3479 20.734 46.5244 20.734C46.6717 20.734 46.7885 20.7632 46.9054 20.7632C47.0527 20.7924 47.1124 20.8216 47.1416 20.8216C47.2889 20.88 47.3181 20.8216 47.3473 20.7632L47.7003 19.7968C47.7892 19.68 47.7003 19.6495 47.6711 19.6203H47.6698ZM26.9524 29.6355C26.9524 29.7244 26.8939 29.7816 26.805 29.7816H25.5708C25.4819 29.7816 25.4235 29.7232 25.4235 29.6355V19.7663C25.4235 19.6787 25.4831 19.6203 25.5708 19.6203H26.805C26.8939 19.6203 26.9524 19.6787 26.9524 19.7663V29.6355Z" fill="white" />
</svg>