<svg width="1980" height="198" viewBox="0 0 1980 198" fill="none" xmlns="http://www.w3.org/2000/svg">
<path d="M0 192H1978.5C1979.33 192 1980 192.672 1980 193.5V193.5C1980 194.328 1979.33 195 1978.5 195H0V192Z" fill="url(#paint0_linear_1776_624)"/>
<path d="M580.456 104.364C580.396 103.86 580.155 103.469 579.73 103.19C579.306 102.912 578.786 102.773 578.169 102.773C577.718 102.773 577.324 102.846 576.986 102.991C576.651 103.137 576.389 103.338 576.2 103.593C576.015 103.848 575.922 104.138 575.922 104.463C575.922 104.735 575.987 104.969 576.116 105.164C576.249 105.356 576.418 105.517 576.623 105.646C576.829 105.772 577.044 105.877 577.269 105.96C577.495 106.039 577.702 106.104 577.891 106.153L578.925 106.432C579.19 106.501 579.485 106.598 579.81 106.72C580.138 106.843 580.451 107.01 580.749 107.222C581.051 107.431 581.3 107.7 581.495 108.028C581.691 108.356 581.789 108.759 581.789 109.236C581.789 109.786 581.644 110.283 581.356 110.727C581.071 111.171 580.653 111.524 580.103 111.786C579.556 112.048 578.892 112.179 578.11 112.179C577.38 112.179 576.749 112.061 576.215 111.826C575.685 111.591 575.267 111.263 574.963 110.842C574.661 110.421 574.49 109.932 574.45 109.375H575.723C575.756 109.759 575.886 110.078 576.111 110.33C576.34 110.578 576.628 110.764 576.976 110.886C577.327 111.006 577.705 111.065 578.11 111.065C578.58 111.065 579.003 110.989 579.377 110.837C579.752 110.681 580.048 110.465 580.267 110.19C580.486 109.912 580.595 109.587 580.595 109.216C580.595 108.878 580.501 108.603 580.312 108.391C580.123 108.179 579.874 108.006 579.566 107.874C579.258 107.741 578.925 107.625 578.567 107.526L577.314 107.168C576.519 106.939 575.889 106.612 575.425 106.188C574.961 105.764 574.729 105.209 574.729 104.523C574.729 103.953 574.883 103.455 575.191 103.031C575.503 102.604 575.92 102.272 576.444 102.037C576.971 101.798 577.559 101.679 578.209 101.679C578.865 101.679 579.449 101.797 579.959 102.032C580.469 102.264 580.874 102.582 581.172 102.987C581.474 103.391 581.633 103.85 581.649 104.364H580.456ZM586.339 112.159C585.623 112.159 585.006 111.99 584.489 111.652C583.972 111.314 583.575 110.848 583.296 110.255C583.018 109.662 582.879 108.984 582.879 108.222C582.879 107.446 583.021 106.762 583.306 106.168C583.595 105.572 583.996 105.106 584.509 104.771C585.026 104.433 585.63 104.264 586.319 104.264C586.856 104.264 587.34 104.364 587.771 104.562C588.202 104.761 588.555 105.04 588.83 105.398C589.105 105.756 589.275 106.173 589.342 106.651H588.168C588.079 106.303 587.88 105.994 587.572 105.726C587.267 105.454 586.856 105.318 586.339 105.318C585.881 105.318 585.48 105.437 585.136 105.676C584.794 105.911 584.528 106.245 584.335 106.675C584.146 107.103 584.052 107.605 584.052 108.182C584.052 108.772 584.145 109.286 584.33 109.723C584.519 110.161 584.784 110.5 585.126 110.742C585.47 110.984 585.875 111.105 586.339 111.105C586.644 111.105 586.921 111.052 587.169 110.946C587.418 110.84 587.628 110.688 587.801 110.489C587.973 110.29 588.095 110.051 588.168 109.773H589.342C589.275 110.223 589.111 110.629 588.85 110.991C588.591 111.349 588.248 111.634 587.82 111.846C587.396 112.055 586.902 112.159 586.339 112.159ZM591.81 107.406V112H590.637V101.818H591.81V105.557H591.91C592.089 105.162 592.357 104.849 592.715 104.617C593.076 104.382 593.557 104.264 594.157 104.264C594.677 104.264 595.133 104.369 595.524 104.577C595.915 104.783 596.218 105.099 596.434 105.527C596.653 105.951 596.762 106.491 596.762 107.148V112H595.589V107.227C595.589 106.621 595.431 106.152 595.116 105.82C594.805 105.486 594.372 105.318 593.819 105.318C593.434 105.318 593.09 105.399 592.785 105.562C592.483 105.724 592.244 105.961 592.069 106.273C591.896 106.584 591.81 106.962 591.81 107.406ZM601.69 112.159C600.954 112.159 600.32 111.997 599.786 111.672C599.256 111.344 598.846 110.886 598.558 110.3C598.273 109.71 598.13 109.024 598.13 108.241C598.13 107.459 598.273 106.77 598.558 106.173C598.846 105.573 599.247 105.106 599.761 104.771C600.278 104.433 600.881 104.264 601.571 104.264C601.969 104.264 602.361 104.33 602.749 104.463C603.137 104.596 603.49 104.811 603.808 105.109C604.126 105.404 604.38 105.795 604.569 106.283C604.758 106.77 604.852 107.37 604.852 108.082V108.58H598.966V107.565H603.659C603.659 107.134 603.573 106.75 603.4 106.412C603.231 106.074 602.989 105.807 602.674 105.612C602.363 105.416 601.995 105.318 601.571 105.318C601.103 105.318 600.699 105.434 600.358 105.666C600.02 105.895 599.759 106.193 599.577 106.561C599.395 106.929 599.304 107.323 599.304 107.744V108.42C599.304 108.997 599.403 109.486 599.602 109.887C599.804 110.285 600.084 110.588 600.442 110.797C600.8 111.002 601.216 111.105 601.69 111.105C601.998 111.105 602.277 111.062 602.525 110.976C602.777 110.886 602.994 110.754 603.177 110.578C603.359 110.399 603.5 110.177 603.599 109.912L604.733 110.23C604.613 110.615 604.413 110.953 604.131 111.244C603.849 111.533 603.501 111.758 603.087 111.92C602.673 112.08 602.207 112.159 601.69 112.159ZM609.1 112.159C608.464 112.159 607.902 111.998 607.415 111.677C606.928 111.352 606.547 110.895 606.272 110.305C605.996 109.711 605.859 109.01 605.859 108.202C605.859 107.4 605.996 106.704 606.272 106.114C606.547 105.524 606.929 105.068 607.42 104.746C607.91 104.425 608.477 104.264 609.12 104.264C609.617 104.264 610.01 104.347 610.299 104.513C610.59 104.675 610.812 104.861 610.965 105.07C611.12 105.275 611.241 105.444 611.328 105.577H611.427V101.818H612.6V112H611.467V110.827H611.328C611.241 110.966 611.119 111.142 610.96 111.354C610.801 111.562 610.574 111.75 610.279 111.915C609.984 112.078 609.591 112.159 609.1 112.159ZM609.259 111.105C609.73 111.105 610.128 110.982 610.453 110.737C610.777 110.489 611.024 110.146 611.193 109.708C611.362 109.267 611.447 108.759 611.447 108.182C611.447 107.612 611.364 107.113 611.198 106.685C611.033 106.254 610.787 105.92 610.463 105.681C610.138 105.439 609.737 105.318 609.259 105.318C608.762 105.318 608.348 105.446 608.017 105.701C607.688 105.953 607.441 106.296 607.276 106.73C607.113 107.161 607.032 107.645 607.032 108.182C607.032 108.725 607.115 109.219 607.281 109.663C607.45 110.104 607.698 110.455 608.026 110.717C608.358 110.976 608.769 111.105 609.259 111.105ZM619.305 108.878V104.364H620.478V112H619.305V110.707H619.225C619.046 111.095 618.768 111.425 618.39 111.697C618.012 111.965 617.535 112.099 616.958 112.099C616.481 112.099 616.057 111.995 615.685 111.786C615.314 111.574 615.022 111.256 614.81 110.832C614.598 110.404 614.492 109.866 614.492 109.216V104.364H615.665V109.136C615.665 109.693 615.821 110.137 616.133 110.469C616.448 110.8 616.849 110.966 617.336 110.966C617.628 110.966 617.924 110.891 618.226 110.742C618.531 110.593 618.786 110.364 618.991 110.056C619.2 109.748 619.305 109.355 619.305 108.878ZM623.38 101.818V112H622.207V101.818H623.38ZM628.311 112.159C627.575 112.159 626.94 111.997 626.407 111.672C625.876 111.344 625.467 110.886 625.179 110.3C624.894 109.71 624.751 109.024 624.751 108.241C624.751 107.459 624.894 106.77 625.179 106.173C625.467 105.573 625.868 105.106 626.382 104.771C626.899 104.433 627.502 104.264 628.192 104.264C628.589 104.264 628.982 104.33 629.37 104.463C629.758 104.596 630.111 104.811 630.429 105.109C630.747 105.404 631.001 105.795 631.189 106.283C631.378 106.77 631.473 107.37 631.473 108.082V108.58H625.586V107.565H630.28C630.28 107.134 630.193 106.75 630.021 106.412C629.852 106.074 629.61 105.807 629.295 105.612C628.984 105.416 628.616 105.318 628.192 105.318C627.724 105.318 627.32 105.434 626.978 105.666C626.64 105.895 626.38 106.193 626.198 106.561C626.016 106.929 625.925 107.323 625.925 107.744V108.42C625.925 108.997 626.024 109.486 626.223 109.887C626.425 110.285 626.705 110.588 627.063 110.797C627.421 111.002 627.837 111.105 628.311 111.105C628.619 111.105 628.898 111.062 629.146 110.976C629.398 110.886 629.615 110.754 629.797 110.578C629.98 110.399 630.121 110.177 630.22 109.912L631.353 110.23C631.234 110.615 631.034 110.953 630.752 111.244C630.47 111.533 630.122 111.758 629.708 111.92C629.294 112.08 628.828 112.159 628.311 112.159ZM635.721 112.159C635.085 112.159 634.523 111.998 634.036 111.677C633.549 111.352 633.167 110.895 632.892 110.305C632.617 109.711 632.48 109.01 632.48 108.202C632.48 107.4 632.617 106.704 632.892 106.114C633.167 105.524 633.55 105.068 634.041 104.746C634.531 104.425 635.098 104.264 635.741 104.264C636.238 104.264 636.631 104.347 636.919 104.513C637.211 104.675 637.433 104.861 637.585 105.07C637.741 105.275 637.862 105.444 637.948 105.577H638.048V101.818H639.221V112H638.088V110.827H637.948C637.862 110.966 637.74 111.142 637.581 111.354C637.421 111.562 637.194 111.75 636.899 111.915C636.604 112.078 636.212 112.159 635.721 112.159ZM635.88 111.105C636.351 111.105 636.749 110.982 637.073 110.737C637.398 110.489 637.645 110.146 637.814 109.708C637.983 109.267 638.068 108.759 638.068 108.182C638.068 107.612 637.985 107.113 637.819 106.685C637.653 106.254 637.408 105.92 637.083 105.681C636.759 105.439 636.357 105.318 635.88 105.318C635.383 105.318 634.969 105.446 634.637 105.701C634.309 105.953 634.062 106.296 633.897 106.73C633.734 107.161 633.653 107.645 633.653 108.182C633.653 108.725 633.736 109.219 633.902 109.663C634.071 110.104 634.319 110.455 634.647 110.717C634.979 110.976 635.39 111.105 635.88 111.105ZM644.79 112V101.818H650.895V102.912H646.022V106.352H650.437V107.446H646.022V112H644.79ZM656.761 108.878V104.364H657.934V112H656.761V110.707H656.682C656.503 111.095 656.224 111.425 655.846 111.697C655.469 111.965 654.991 112.099 654.415 112.099C653.937 112.099 653.513 111.995 653.142 111.786C652.771 111.574 652.479 111.256 652.267 110.832C652.055 110.404 651.949 109.866 651.949 109.216V104.364H653.122V109.136C653.122 109.693 653.278 110.137 653.589 110.469C653.904 110.8 654.305 110.966 654.792 110.966C655.084 110.966 655.381 110.891 655.682 110.742C655.987 110.593 656.243 110.364 656.448 110.056C656.657 109.748 656.761 109.355 656.761 108.878ZM660.837 107.406V112H659.663V104.364H660.797V105.557H660.896C661.075 105.169 661.347 104.857 661.712 104.622C662.076 104.384 662.547 104.264 663.124 104.264C663.641 104.264 664.093 104.37 664.481 104.582C664.869 104.791 665.17 105.109 665.386 105.537C665.601 105.961 665.709 106.498 665.709 107.148V112H664.536V107.227C664.536 106.627 664.38 106.16 664.068 105.825C663.757 105.487 663.329 105.318 662.786 105.318C662.411 105.318 662.076 105.399 661.781 105.562C661.49 105.724 661.259 105.961 661.09 106.273C660.921 106.584 660.837 106.962 660.837 107.406ZM670.535 112.159C669.819 112.159 669.203 111.99 668.686 111.652C668.169 111.314 667.771 110.848 667.493 110.255C667.214 109.662 667.075 108.984 667.075 108.222C667.075 107.446 667.217 106.762 667.503 106.168C667.791 105.572 668.192 105.106 668.706 104.771C669.223 104.433 669.826 104.264 670.515 104.264C671.052 104.264 671.536 104.364 671.967 104.562C672.398 104.761 672.751 105.04 673.026 105.398C673.301 105.756 673.472 106.173 673.538 106.651H672.365C672.275 106.303 672.076 105.994 671.768 105.726C671.463 105.454 671.052 105.318 670.535 105.318C670.078 105.318 669.677 105.437 669.332 105.676C668.991 105.911 668.724 106.245 668.532 106.675C668.343 107.103 668.248 107.605 668.248 108.182C668.248 108.772 668.341 109.286 668.527 109.723C668.716 110.161 668.981 110.5 669.322 110.742C669.667 110.984 670.071 111.105 670.535 111.105C670.84 111.105 671.117 111.052 671.365 110.946C671.614 110.84 671.824 110.688 671.997 110.489C672.169 110.29 672.292 110.051 672.365 109.773H673.538C673.472 110.223 673.308 110.629 673.046 110.991C672.787 111.349 672.444 111.634 672.017 111.846C671.592 112.055 671.099 112.159 670.535 112.159ZM678.154 104.364V105.358H674.197V104.364H678.154ZM675.35 102.534H676.524V109.812C676.524 110.144 676.572 110.393 676.668 110.558C676.767 110.721 676.893 110.83 677.046 110.886C677.201 110.939 677.365 110.966 677.538 110.966C677.667 110.966 677.773 110.959 677.856 110.946C677.939 110.929 678.005 110.916 678.055 110.906L678.293 111.96C678.214 111.99 678.103 112.02 677.96 112.05C677.818 112.083 677.637 112.099 677.418 112.099C677.087 112.099 676.762 112.028 676.444 111.886C676.129 111.743 675.867 111.526 675.659 111.234C675.453 110.943 675.35 110.575 675.35 110.131V102.534ZM679.499 112V104.364H680.672V112H679.499ZM680.096 103.091C679.867 103.091 679.67 103.013 679.504 102.857C679.342 102.701 679.261 102.514 679.261 102.295C679.261 102.077 679.342 101.889 679.504 101.734C679.67 101.578 679.867 101.5 680.096 101.5C680.324 101.5 680.52 101.578 680.682 101.734C680.848 101.889 680.931 102.077 680.931 102.295C680.931 102.514 680.848 102.701 680.682 102.857C680.52 103.013 680.324 103.091 680.096 103.091ZM685.504 112.159C684.814 112.159 684.209 111.995 683.689 111.667C683.172 111.339 682.768 110.88 682.476 110.29C682.188 109.7 682.043 109.01 682.043 108.222C682.043 107.426 682.188 106.732 682.476 106.138C682.768 105.545 683.172 105.085 683.689 104.756C684.209 104.428 684.814 104.264 685.504 104.264C686.193 104.264 686.796 104.428 687.313 104.756C687.834 105.085 688.238 105.545 688.526 106.138C688.818 106.732 688.964 107.426 688.964 108.222C688.964 109.01 688.818 109.7 688.526 110.29C688.238 110.88 687.834 111.339 687.313 111.667C686.796 111.995 686.193 112.159 685.504 112.159ZM685.504 111.105C686.027 111.105 686.458 110.971 686.796 110.702C687.134 110.434 687.385 110.081 687.547 109.643C687.709 109.206 687.791 108.732 687.791 108.222C687.791 107.711 687.709 107.236 687.547 106.795C687.385 106.354 687.134 105.998 686.796 105.726C686.458 105.454 686.027 105.318 685.504 105.318C684.98 105.318 684.549 105.454 684.211 105.726C683.873 105.998 683.623 106.354 683.46 106.795C683.298 107.236 683.217 107.711 683.217 108.222C683.217 108.732 683.298 109.206 683.46 109.643C683.623 110.081 683.873 110.434 684.211 110.702C684.549 110.971 684.98 111.105 685.504 111.105ZM691.508 107.406V112H690.335V104.364H691.468V105.557H691.568C691.747 105.169 692.019 104.857 692.383 104.622C692.748 104.384 693.218 104.264 693.795 104.264C694.312 104.264 694.765 104.37 695.152 104.582C695.54 104.791 695.842 105.109 696.057 105.537C696.273 105.961 696.38 106.498 696.38 107.148V112H695.207V107.227C695.207 106.627 695.051 106.16 694.74 105.825C694.428 105.487 694.001 105.318 693.457 105.318C693.083 105.318 692.748 105.399 692.453 105.562C692.161 105.724 691.931 105.961 691.762 106.273C691.593 106.584 691.508 106.962 691.508 107.406ZM703.514 106.074L702.46 106.372C702.393 106.196 702.295 106.026 702.166 105.86C702.04 105.691 701.868 105.552 701.649 105.442C701.43 105.333 701.15 105.278 700.809 105.278C700.342 105.278 699.952 105.386 699.641 105.602C699.332 105.814 699.178 106.084 699.178 106.412C699.178 106.704 699.284 106.934 699.496 107.103C699.709 107.272 700.04 107.413 700.491 107.526L701.624 107.804C702.307 107.97 702.816 108.223 703.151 108.565C703.485 108.903 703.653 109.339 703.653 109.872C703.653 110.31 703.527 110.701 703.275 111.045C703.026 111.39 702.678 111.662 702.231 111.861C701.783 112.06 701.263 112.159 700.67 112.159C699.891 112.159 699.246 111.99 698.736 111.652C698.225 111.314 697.902 110.82 697.766 110.17L698.88 109.892C698.986 110.303 699.187 110.611 699.482 110.817C699.78 111.022 700.169 111.125 700.65 111.125C701.197 111.125 701.631 111.009 701.952 110.777C702.277 110.542 702.44 110.26 702.44 109.932C702.44 109.667 702.347 109.445 702.161 109.266C701.976 109.083 701.691 108.947 701.306 108.858L700.033 108.56C699.334 108.394 698.82 108.137 698.492 107.789C698.167 107.438 698.005 106.999 698.005 106.472C698.005 106.041 698.126 105.66 698.368 105.328C698.613 104.997 698.946 104.737 699.367 104.548C699.791 104.359 700.272 104.264 700.809 104.264C701.565 104.264 702.158 104.43 702.589 104.761C703.023 105.093 703.331 105.53 703.514 106.074Z" fill="#E0E7FF"/>
<circle cx="639" cy="141" r="9" fill="white"/>
<path fill-rule="evenodd" clip-rule="evenodd" d="M630 141C630 136.029 634.029 132 639 132C643.971 132 648 136.029 648 141C648 145.971 643.971 150 639 150C634.029 150 630 145.971 630 141ZM642.333 139.325C642.555 139.014 642.483 138.582 642.172 138.36C641.86 138.137 641.428 138.21 641.206 138.521L638.219 142.702L636.72 141.203C636.45 140.932 636.012 140.932 635.741 141.203C635.471 141.473 635.471 141.911 635.741 142.182L637.818 144.259C637.962 144.403 638.162 144.476 638.365 144.459C638.568 144.442 638.753 144.337 638.871 144.172L642.333 139.325Z" fill="#6366F1"/>
<circle cx="639" cy="141" r="12.5" stroke="#818CF8"/>
<path d="M1160.72 125V114.818H1164.28C1164.99 114.818 1165.58 114.941 1166.04 115.186C1166.5 115.428 1166.84 115.754 1167.07 116.165C1167.29 116.573 1167.41 117.026 1167.41 117.523C1167.41 117.96 1167.33 118.321 1167.17 118.607C1167.02 118.892 1166.82 119.117 1166.57 119.283C1166.32 119.448 1166.05 119.571 1165.75 119.651V119.75C1166.07 119.77 1166.38 119.879 1166.69 120.078C1167.01 120.277 1167.27 120.562 1167.49 120.933C1167.7 121.304 1167.8 121.759 1167.8 122.295C1167.8 122.806 1167.69 123.265 1167.46 123.673C1167.22 124.08 1166.86 124.403 1166.36 124.642C1165.86 124.881 1165.2 125 1164.4 125H1160.72ZM1161.96 123.906H1164.4C1165.21 123.906 1165.78 123.75 1166.12 123.439C1166.46 123.124 1166.63 122.743 1166.63 122.295C1166.63 121.951 1166.54 121.633 1166.37 121.341C1166.19 121.046 1165.94 120.811 1165.62 120.635C1165.29 120.456 1164.91 120.366 1164.46 120.366H1161.96V123.906ZM1161.96 119.293H1164.24C1164.61 119.293 1164.95 119.22 1165.25 119.074C1165.55 118.928 1165.79 118.723 1165.96 118.457C1166.14 118.192 1166.23 117.881 1166.23 117.523C1166.23 117.075 1166.08 116.696 1165.76 116.384C1165.45 116.069 1164.96 115.912 1164.28 115.912H1161.96V119.293ZM1171.5 125.179C1171.01 125.179 1170.57 125.088 1170.18 124.906C1169.79 124.72 1169.47 124.453 1169.24 124.105C1169.01 123.754 1168.89 123.33 1168.89 122.832C1168.89 122.395 1168.98 122.04 1169.15 121.768C1169.32 121.493 1169.55 121.278 1169.84 121.122C1170.13 120.966 1170.45 120.85 1170.8 120.774C1171.15 120.695 1171.5 120.632 1171.86 120.585C1172.32 120.526 1172.7 120.481 1172.98 120.451C1173.28 120.418 1173.49 120.363 1173.62 120.287C1173.76 120.211 1173.82 120.078 1173.82 119.889V119.849C1173.82 119.359 1173.69 118.978 1173.42 118.706C1173.16 118.434 1172.75 118.298 1172.21 118.298C1171.65 118.298 1171.21 118.421 1170.9 118.666C1170.58 118.911 1170.35 119.173 1170.22 119.452L1169.11 119.054C1169.31 118.59 1169.57 118.229 1169.91 117.97C1170.24 117.708 1170.61 117.526 1171 117.423C1171.4 117.317 1171.79 117.264 1172.17 117.264C1172.42 117.264 1172.7 117.294 1173.02 117.354C1173.34 117.41 1173.65 117.528 1173.95 117.707C1174.25 117.886 1174.5 118.156 1174.7 118.517C1174.9 118.878 1175 119.362 1175 119.969V125H1173.82V123.966H1173.76C1173.68 124.132 1173.55 124.309 1173.37 124.498C1173.18 124.687 1172.93 124.848 1172.63 124.98C1172.32 125.113 1171.94 125.179 1171.5 125.179ZM1171.68 124.125C1172.14 124.125 1172.53 124.034 1172.85 123.852C1173.17 123.669 1173.41 123.434 1173.58 123.146C1173.74 122.857 1173.82 122.554 1173.82 122.236V121.162C1173.77 121.222 1173.66 121.276 1173.5 121.326C1173.33 121.372 1173.14 121.414 1172.92 121.45C1172.7 121.483 1172.49 121.513 1172.29 121.54C1172.09 121.563 1171.92 121.583 1171.8 121.599C1171.49 121.639 1171.21 121.704 1170.94 121.793C1170.68 121.879 1170.47 122.01 1170.3 122.186C1170.14 122.358 1170.07 122.594 1170.07 122.892C1170.07 123.3 1170.22 123.608 1170.52 123.817C1170.82 124.022 1171.21 124.125 1171.68 124.125ZM1179.82 125.159C1179.11 125.159 1178.49 124.99 1177.97 124.652C1177.45 124.314 1177.06 123.848 1176.78 123.255C1176.5 122.662 1176.36 121.984 1176.36 121.222C1176.36 120.446 1176.5 119.762 1176.79 119.168C1177.08 118.572 1177.48 118.106 1177.99 117.771C1178.51 117.433 1179.11 117.264 1179.8 117.264C1180.34 117.264 1180.82 117.364 1181.25 117.562C1181.68 117.761 1182.04 118.04 1182.31 118.398C1182.59 118.756 1182.76 119.173 1182.82 119.651H1181.65C1181.56 119.303 1181.36 118.994 1181.05 118.726C1180.75 118.454 1180.34 118.318 1179.82 118.318C1179.36 118.318 1178.96 118.437 1178.62 118.676C1178.28 118.911 1178.01 119.245 1177.82 119.675C1177.63 120.103 1177.53 120.605 1177.53 121.182C1177.53 121.772 1177.63 122.286 1177.81 122.723C1178 123.161 1178.27 123.5 1178.61 123.742C1178.95 123.984 1179.36 124.105 1179.82 124.105C1180.13 124.105 1180.4 124.052 1180.65 123.946C1180.9 123.84 1181.11 123.688 1181.28 123.489C1181.46 123.29 1181.58 123.051 1181.65 122.773H1182.82C1182.76 123.223 1182.59 123.629 1182.33 123.991C1182.07 124.349 1181.73 124.634 1181.3 124.846C1180.88 125.055 1180.38 125.159 1179.82 125.159ZM1185.21 122.216L1185.19 120.764H1185.43L1188.77 117.364H1190.22L1186.66 120.963H1186.57L1185.21 122.216ZM1184.12 125V114.818H1185.29V125H1184.12ZM1188.97 125L1185.99 121.222L1186.82 120.406L1190.46 125H1188.97ZM1194.08 128.023C1193.52 128.023 1193.03 127.95 1192.62 127.804C1192.21 127.661 1191.87 127.473 1191.6 127.237C1191.33 127.005 1191.12 126.757 1190.96 126.491L1191.89 125.835C1192 125.974 1192.14 126.134 1192.3 126.312C1192.46 126.495 1192.68 126.652 1192.96 126.785C1193.25 126.921 1193.62 126.989 1194.08 126.989C1194.7 126.989 1195.21 126.839 1195.61 126.541C1196.01 126.243 1196.21 125.776 1196.21 125.139V123.588H1196.11C1196.02 123.727 1195.9 123.9 1195.74 124.105C1195.59 124.307 1195.36 124.488 1195.07 124.647C1194.77 124.803 1194.38 124.881 1193.88 124.881C1193.27 124.881 1192.71 124.735 1192.22 124.443C1191.74 124.152 1191.35 123.727 1191.06 123.17C1190.78 122.614 1190.64 121.937 1190.64 121.142C1190.64 120.36 1190.78 119.679 1191.05 119.099C1191.33 118.515 1191.71 118.065 1192.2 117.746C1192.69 117.425 1193.26 117.264 1193.9 117.264C1194.4 117.264 1194.79 117.347 1195.09 117.513C1195.38 117.675 1195.61 117.861 1195.76 118.07C1195.92 118.275 1196.04 118.444 1196.13 118.577H1196.25V117.364H1197.38V125.219C1197.38 125.875 1197.23 126.409 1196.94 126.82C1196.64 127.234 1196.24 127.537 1195.74 127.729C1195.25 127.925 1194.69 128.023 1194.08 128.023ZM1194.04 123.827C1194.51 123.827 1194.91 123.719 1195.24 123.504C1195.56 123.288 1195.81 122.978 1195.98 122.574C1196.15 122.17 1196.23 121.686 1196.23 121.122C1196.23 120.572 1196.15 120.086 1195.98 119.665C1195.82 119.245 1195.57 118.915 1195.25 118.676C1194.92 118.437 1194.52 118.318 1194.04 118.318C1193.55 118.318 1193.13 118.444 1192.8 118.696C1192.47 118.948 1192.22 119.286 1192.06 119.71C1191.9 120.134 1191.82 120.605 1191.82 121.122C1191.82 121.652 1191.9 122.121 1192.06 122.529C1192.23 122.933 1192.48 123.252 1192.81 123.484C1193.14 123.712 1193.55 123.827 1194.04 123.827ZM1199.11 125V117.364H1200.24V118.517H1200.32C1200.46 118.139 1200.72 117.833 1201.08 117.597C1201.44 117.362 1201.86 117.244 1202.31 117.244C1202.4 117.244 1202.51 117.246 1202.64 117.249C1202.77 117.253 1202.86 117.258 1202.93 117.264V118.457C1202.89 118.447 1202.8 118.433 1202.66 118.413C1202.52 118.389 1202.37 118.378 1202.21 118.378C1201.84 118.378 1201.51 118.456 1201.22 118.612C1200.93 118.764 1200.7 118.976 1200.53 119.248C1200.37 119.516 1200.28 119.823 1200.28 120.168V125H1199.11ZM1206.77 125.159C1206.08 125.159 1205.48 124.995 1204.96 124.667C1204.44 124.339 1204.03 123.88 1203.74 123.29C1203.45 122.7 1203.31 122.01 1203.31 121.222C1203.31 120.426 1203.45 119.732 1203.74 119.138C1204.03 118.545 1204.44 118.085 1204.96 117.756C1205.48 117.428 1206.08 117.264 1206.77 117.264C1207.46 117.264 1208.06 117.428 1208.58 117.756C1209.1 118.085 1209.5 118.545 1209.79 119.138C1210.08 119.732 1210.23 120.426 1210.23 121.222C1210.23 122.01 1210.08 122.7 1209.79 123.29C1209.5 123.88 1209.1 124.339 1208.58 124.667C1208.06 124.995 1207.46 125.159 1206.77 125.159ZM1206.77 124.105C1207.29 124.105 1207.72 123.971 1208.06 123.702C1208.4 123.434 1208.65 123.081 1208.81 122.643C1208.98 122.206 1209.06 121.732 1209.06 121.222C1209.06 120.711 1208.98 120.236 1208.81 119.795C1208.65 119.354 1208.4 118.998 1208.06 118.726C1207.72 118.454 1207.29 118.318 1206.77 118.318C1206.25 118.318 1205.82 118.454 1205.48 118.726C1205.14 118.998 1204.89 119.354 1204.73 119.795C1204.56 120.236 1204.48 120.711 1204.48 121.222C1204.48 121.732 1204.56 122.206 1204.73 122.643C1204.89 123.081 1205.14 123.434 1205.48 123.702C1205.82 123.971 1206.25 124.105 1206.77 124.105ZM1216.41 121.878V117.364H1217.59V125H1216.41V123.707H1216.33C1216.16 124.095 1215.88 124.425 1215.5 124.697C1215.12 124.965 1214.64 125.099 1214.07 125.099C1213.59 125.099 1213.17 124.995 1212.79 124.786C1212.42 124.574 1212.13 124.256 1211.92 123.832C1211.71 123.404 1211.6 122.866 1211.6 122.216V117.364H1212.77V122.136C1212.77 122.693 1212.93 123.137 1213.24 123.469C1213.56 123.8 1213.96 123.966 1214.44 123.966C1214.74 123.966 1215.03 123.891 1215.33 123.742C1215.64 123.593 1215.9 123.364 1216.1 123.056C1216.31 122.748 1216.41 122.355 1216.41 121.878ZM1220.49 120.406V125H1219.32V117.364H1220.45V118.557H1220.55C1220.73 118.169 1221 117.857 1221.36 117.622C1221.73 117.384 1222.2 117.264 1222.78 117.264C1223.29 117.264 1223.75 117.37 1224.13 117.582C1224.52 117.791 1224.82 118.109 1225.04 118.537C1225.25 118.961 1225.36 119.498 1225.36 120.148V125H1224.19V120.227C1224.19 119.627 1224.03 119.16 1223.72 118.825C1223.41 118.487 1222.98 118.318 1222.44 118.318C1222.06 118.318 1221.73 118.399 1221.43 118.562C1221.14 118.724 1220.91 118.961 1220.74 119.273C1220.57 119.584 1220.49 119.962 1220.49 120.406ZM1229.97 125.159C1229.33 125.159 1228.77 124.998 1228.28 124.677C1227.8 124.352 1227.42 123.895 1227.14 123.305C1226.87 122.711 1226.73 122.01 1226.73 121.202C1226.73 120.4 1226.87 119.704 1227.14 119.114C1227.42 118.524 1227.8 118.068 1228.29 117.746C1228.78 117.425 1229.35 117.264 1229.99 117.264C1230.49 117.264 1230.88 117.347 1231.17 117.513C1231.46 117.675 1231.68 117.861 1231.83 118.07C1231.99 118.275 1232.11 118.444 1232.2 118.577H1232.3V114.818H1233.47V125H1232.34V123.827H1232.2C1232.11 123.966 1231.99 124.142 1231.83 124.354C1231.67 124.562 1231.44 124.75 1231.15 124.915C1230.85 125.078 1230.46 125.159 1229.97 125.159ZM1230.13 124.105C1230.6 124.105 1231 123.982 1231.32 123.737C1231.65 123.489 1231.89 123.146 1232.06 122.708C1232.23 122.267 1232.32 121.759 1232.32 121.182C1232.32 120.612 1232.23 120.113 1232.07 119.685C1231.9 119.254 1231.66 118.92 1231.33 118.681C1231.01 118.439 1230.61 118.318 1230.13 118.318C1229.63 118.318 1229.22 118.446 1228.89 118.701C1228.56 118.953 1228.31 119.296 1228.14 119.73C1227.98 120.161 1227.9 120.645 1227.9 121.182C1227.9 121.725 1227.98 122.219 1228.15 122.663C1228.32 123.104 1228.57 123.455 1228.9 123.717C1229.23 123.976 1229.64 124.105 1230.13 124.105ZM1242.94 114.818H1244.17V122.097C1244.17 122.746 1244.05 123.298 1243.81 123.752C1243.57 124.206 1243.24 124.551 1242.8 124.786C1242.37 125.022 1241.85 125.139 1241.26 125.139C1240.71 125.139 1240.21 125.038 1239.78 124.836C1239.34 124.63 1239 124.339 1238.75 123.961C1238.51 123.583 1238.38 123.134 1238.38 122.614H1239.59C1239.59 122.902 1239.67 123.154 1239.81 123.369C1239.95 123.581 1240.15 123.747 1240.4 123.866C1240.66 123.986 1240.94 124.045 1241.26 124.045C1241.62 124.045 1241.92 123.971 1242.17 123.822C1242.42 123.673 1242.61 123.454 1242.74 123.165C1242.87 122.874 1242.94 122.518 1242.94 122.097V114.818ZM1249.16 125.159C1248.47 125.159 1247.87 124.995 1247.35 124.667C1246.83 124.339 1246.43 123.88 1246.13 123.29C1245.85 122.7 1245.7 122.01 1245.7 121.222C1245.7 120.426 1245.85 119.732 1246.13 119.138C1246.43 118.545 1246.83 118.085 1247.35 117.756C1247.87 117.428 1248.47 117.264 1249.16 117.264C1249.85 117.264 1250.45 117.428 1250.97 117.756C1251.49 118.085 1251.9 118.545 1252.18 119.138C1252.48 119.732 1252.62 120.426 1252.62 121.222C1252.62 122.01 1252.48 122.7 1252.18 123.29C1251.9 123.88 1251.49 124.339 1250.97 124.667C1250.45 124.995 1249.85 125.159 1249.16 125.159ZM1249.16 124.105C1249.69 124.105 1250.12 123.971 1250.45 123.702C1250.79 123.434 1251.04 123.081 1251.21 122.643C1251.37 122.206 1251.45 121.732 1251.45 121.222C1251.45 120.711 1251.37 120.236 1251.21 119.795C1251.04 119.354 1250.79 118.998 1250.45 118.726C1250.12 118.454 1249.69 118.318 1249.16 118.318C1248.64 118.318 1248.21 118.454 1247.87 118.726C1247.53 118.998 1247.28 119.354 1247.12 119.795C1246.96 120.236 1246.88 120.711 1246.88 121.222C1246.88 121.732 1246.96 122.206 1247.12 122.643C1247.28 123.081 1247.53 123.434 1247.87 123.702C1248.21 123.971 1248.64 124.105 1249.16 124.105ZM1254.15 125V114.818H1255.33V118.577H1255.43C1255.51 118.444 1255.63 118.275 1255.78 118.07C1255.94 117.861 1256.16 117.675 1256.45 117.513C1256.74 117.347 1257.14 117.264 1257.63 117.264C1258.28 117.264 1258.84 117.425 1259.33 117.746C1259.82 118.068 1260.21 118.524 1260.48 119.114C1260.76 119.704 1260.89 120.4 1260.89 121.202C1260.89 122.01 1260.76 122.711 1260.48 123.305C1260.21 123.895 1259.82 124.352 1259.34 124.677C1258.85 124.998 1258.29 125.159 1257.65 125.159C1257.16 125.159 1256.77 125.078 1256.47 124.915C1256.18 124.75 1255.95 124.562 1255.79 124.354C1255.63 124.142 1255.51 123.966 1255.43 123.827H1255.29V125H1254.15ZM1255.31 121.182C1255.31 121.759 1255.39 122.267 1255.56 122.708C1255.73 123.146 1255.98 123.489 1256.3 123.737C1256.62 123.982 1257.02 124.105 1257.49 124.105C1257.98 124.105 1258.39 123.976 1258.72 123.717C1259.05 123.455 1259.3 123.104 1259.47 122.663C1259.64 122.219 1259.72 121.725 1259.72 121.182C1259.72 120.645 1259.64 120.161 1259.47 119.73C1259.31 119.296 1259.06 118.953 1258.73 118.701C1258.4 118.446 1257.99 118.318 1257.49 118.318C1257.02 118.318 1256.61 118.439 1256.29 118.681C1255.97 118.92 1255.72 119.254 1255.55 119.685C1255.39 120.113 1255.31 120.612 1255.31 121.182ZM1267.68 119.074L1266.62 119.372C1266.56 119.196 1266.46 119.026 1266.33 118.86C1266.2 118.691 1266.03 118.552 1265.81 118.442C1265.59 118.333 1265.31 118.278 1264.97 118.278C1264.51 118.278 1264.12 118.386 1263.8 118.602C1263.5 118.814 1263.34 119.084 1263.34 119.412C1263.34 119.704 1263.45 119.934 1263.66 120.103C1263.87 120.272 1264.2 120.413 1264.65 120.526L1265.79 120.804C1266.47 120.97 1266.98 121.223 1267.31 121.565C1267.65 121.903 1267.82 122.339 1267.82 122.872C1267.82 123.31 1267.69 123.701 1267.44 124.045C1267.19 124.39 1266.84 124.662 1266.4 124.861C1265.95 125.06 1265.43 125.159 1264.83 125.159C1264.06 125.159 1263.41 124.99 1262.9 124.652C1262.39 124.314 1262.07 123.82 1261.93 123.17L1263.04 122.892C1263.15 123.303 1263.35 123.611 1263.65 123.817C1263.94 124.022 1264.33 124.125 1264.81 124.125C1265.36 124.125 1265.8 124.009 1266.12 123.777C1266.44 123.542 1266.6 123.26 1266.6 122.932C1266.6 122.667 1266.51 122.445 1266.33 122.266C1266.14 122.083 1265.85 121.947 1265.47 121.858L1264.2 121.56C1263.5 121.394 1262.98 121.137 1262.66 120.789C1262.33 120.438 1262.17 119.999 1262.17 119.472C1262.17 119.041 1262.29 118.66 1262.53 118.328C1262.78 117.997 1263.11 117.737 1263.53 117.548C1263.96 117.359 1264.44 117.264 1264.97 117.264C1265.73 117.264 1266.32 117.43 1266.75 117.761C1267.19 118.093 1267.5 118.53 1267.68 119.074Z" fill="#E0E7FF"/>
<circle cx="1214" cy="155" r="9" fill="white"/>
<path fill-rule="evenodd" clip-rule="evenodd" d="M1205 155C1205 150.029 1209.03 146 1214 146C1218.97 146 1223 150.029 1223 155C1223 159.971 1218.97 164 1214 164C1209.03 164 1205 159.971 1205 155ZM1217.33 153.325C1217.55 153.014 1217.48 152.582 1217.17 152.36C1216.86 152.137 1216.43 152.21 1216.21 152.521L1213.22 156.702L1211.72 155.203C1211.45 154.932 1211.01 154.932 1210.74 155.203C1210.47 155.473 1210.47 155.911 1210.74 156.182L1212.82 158.259C1212.96 158.403 1213.16 158.476 1213.36 158.459C1213.57 158.442 1213.75 158.337 1213.87 158.172L1217.33 153.325Z" fill="#6366F1"/>
<circle cx="1214" cy="155" r="12.5" stroke="#818CF8"/>
<path d="M1325.31 32L1322.53 21.8182H1323.78L1325.91 30.1108H1326.01L1328.17 21.8182H1329.56L1331.73 30.1108H1331.83L1333.96 21.8182H1335.21L1332.43 32H1331.16L1328.91 23.8864H1328.83L1326.58 32H1325.31ZM1338.56 32.1591C1337.87 32.1591 1337.27 31.995 1336.75 31.6669C1336.23 31.3388 1335.83 30.8797 1335.53 30.2898C1335.25 29.6998 1335.1 29.0104 1335.1 28.2216C1335.1 27.4261 1335.25 26.7318 1335.53 26.1385C1335.83 25.5452 1336.23 25.0845 1336.75 24.7564C1337.27 24.4283 1337.87 24.2642 1338.56 24.2642C1339.25 24.2642 1339.85 24.4283 1340.37 24.7564C1340.89 25.0845 1341.3 25.5452 1341.58 26.1385C1341.88 26.7318 1342.02 27.4261 1342.02 28.2216C1342.02 29.0104 1341.88 29.6998 1341.58 30.2898C1341.3 30.8797 1340.89 31.3388 1340.37 31.6669C1339.85 31.995 1339.25 32.1591 1338.56 32.1591ZM1338.56 31.1051C1339.08 31.1051 1339.52 30.9709 1339.85 30.7024C1340.19 30.4339 1340.44 30.081 1340.6 29.6435C1340.77 29.206 1340.85 28.732 1340.85 28.2216C1340.85 27.7112 1340.77 27.2356 1340.6 26.7947C1340.44 26.3539 1340.19 25.9976 1339.85 25.7259C1339.52 25.4541 1339.08 25.3182 1338.56 25.3182C1338.04 25.3182 1337.61 25.4541 1337.27 25.7259C1336.93 25.9976 1336.68 26.3539 1336.52 26.7947C1336.36 27.2356 1336.27 27.7112 1336.27 28.2216C1336.27 28.732 1336.36 29.206 1336.52 29.6435C1336.68 30.081 1336.93 30.4339 1337.27 30.7024C1337.61 30.9709 1338.04 31.1051 1338.56 31.1051ZM1343.39 32V24.3636H1344.53V25.517H1344.61C1344.74 25.1392 1345 24.8326 1345.36 24.5973C1345.73 24.362 1346.14 24.2443 1346.59 24.2443C1346.68 24.2443 1346.79 24.246 1346.92 24.2493C1347.05 24.2526 1347.14 24.2576 1347.21 24.2642V25.4574C1347.17 25.4474 1347.08 25.4325 1346.94 25.4126C1346.8 25.3894 1346.65 25.3778 1346.49 25.3778C1346.12 25.3778 1345.79 25.4557 1345.5 25.6115C1345.21 25.764 1344.98 25.9761 1344.81 26.2479C1344.65 26.5163 1344.57 26.8229 1344.57 27.1676V32H1343.39ZM1349.28 29.2159L1349.26 27.7642H1349.49L1352.83 24.3636H1354.29L1350.73 27.9631H1350.63L1349.28 29.2159ZM1348.18 32V21.8182H1349.35V32H1348.18ZM1353.03 32L1350.05 28.2216L1350.89 27.4062L1354.53 32H1353.03ZM1358.78 24.3636V25.358H1354.66V24.3636H1358.78ZM1355.89 32V23.3097C1355.89 22.8722 1356 22.5076 1356.2 22.2159C1356.41 21.9242 1356.67 21.7055 1357 21.5597C1357.33 21.4138 1357.68 21.3409 1358.04 21.3409C1358.33 21.3409 1358.57 21.3641 1358.75 21.4105C1358.93 21.4569 1359.07 21.5 1359.16 21.5398L1358.82 22.554C1358.76 22.5341 1358.67 22.5092 1358.57 22.4794C1358.47 22.4496 1358.33 22.4347 1358.16 22.4347C1357.77 22.4347 1357.49 22.5324 1357.32 22.728C1357.15 22.9235 1357.07 23.2102 1357.07 23.5881V32H1355.89ZM1361.17 21.8182V32H1360V21.8182H1361.17ZM1366.01 32.1591C1365.32 32.1591 1364.71 31.995 1364.19 31.6669C1363.67 31.3388 1363.27 30.8797 1362.98 30.2898C1362.69 29.6998 1362.55 29.0104 1362.55 28.2216C1362.55 27.4261 1362.69 26.7318 1362.98 26.1385C1363.27 25.5452 1363.67 25.0845 1364.19 24.7564C1364.71 24.4283 1365.32 24.2642 1366.01 24.2642C1366.7 24.2642 1367.3 24.4283 1367.82 24.7564C1368.34 25.0845 1368.74 25.5452 1369.03 26.1385C1369.32 26.7318 1369.47 27.4261 1369.47 28.2216C1369.47 29.0104 1369.32 29.6998 1369.03 30.2898C1368.74 30.8797 1368.34 31.3388 1367.82 31.6669C1367.3 31.995 1366.7 32.1591 1366.01 32.1591ZM1366.01 31.1051C1366.53 31.1051 1366.96 30.9709 1367.3 30.7024C1367.64 30.4339 1367.89 30.081 1368.05 29.6435C1368.21 29.206 1368.29 28.732 1368.29 28.2216C1368.29 27.7112 1368.21 27.2356 1368.05 26.7947C1367.89 26.3539 1367.64 25.9976 1367.3 25.7259C1366.96 25.4541 1366.53 25.3182 1366.01 25.3182C1365.48 25.3182 1365.05 25.4541 1364.71 25.7259C1364.38 25.9976 1364.13 26.3539 1363.96 26.7947C1363.8 27.2356 1363.72 27.7112 1363.72 28.2216C1363.72 28.732 1363.8 29.206 1363.96 29.6435C1364.13 30.081 1364.38 30.4339 1364.71 30.7024C1365.05 30.9709 1365.48 31.1051 1366.01 31.1051ZM1372.31 32L1369.98 24.3636H1371.21L1372.86 30.2102H1372.94L1374.57 24.3636H1375.83L1377.44 30.1903H1377.52L1379.17 24.3636H1380.4L1378.07 32H1376.92L1375.25 26.1335H1375.13L1373.46 32H1372.31ZM1386.94 26.0739L1385.89 26.3722C1385.82 26.1965 1385.72 26.0258 1385.59 25.8601C1385.47 25.6911 1385.3 25.5518 1385.08 25.4425C1384.86 25.3331 1384.58 25.2784 1384.24 25.2784C1383.77 25.2784 1383.38 25.3861 1383.07 25.6016C1382.76 25.8137 1382.61 26.0838 1382.61 26.4119C1382.61 26.7036 1382.71 26.9339 1382.92 27.103C1383.14 27.272 1383.47 27.4129 1383.92 27.5256L1385.05 27.804C1385.74 27.9697 1386.24 28.2232 1386.58 28.5646C1386.91 28.9027 1387.08 29.3385 1387.08 29.8722C1387.08 30.3097 1386.95 30.7008 1386.7 31.0455C1386.45 31.3902 1386.11 31.6619 1385.66 31.8608C1385.21 32.0597 1384.69 32.1591 1384.1 32.1591C1383.32 32.1591 1382.67 31.9901 1382.16 31.652C1381.65 31.3139 1381.33 30.8201 1381.19 30.1705L1382.31 29.892C1382.41 30.303 1382.61 30.6113 1382.91 30.8168C1383.21 31.0223 1383.6 31.125 1384.08 31.125C1384.62 31.125 1385.06 31.009 1385.38 30.777C1385.71 30.5417 1385.87 30.2599 1385.87 29.9318C1385.87 29.6667 1385.77 29.4446 1385.59 29.2656C1385.4 29.0833 1385.12 28.9474 1384.73 28.858L1383.46 28.5597C1382.76 28.3939 1382.25 28.1371 1381.92 27.7891C1381.6 27.4377 1381.43 26.9986 1381.43 26.4716C1381.43 26.0407 1381.55 25.6596 1381.8 25.3281C1382.04 24.9967 1382.37 24.7365 1382.8 24.5476C1383.22 24.3587 1383.7 24.2642 1384.24 24.2642C1384.99 24.2642 1385.59 24.4299 1386.02 24.7614C1386.45 25.0928 1386.76 25.5303 1386.94 26.0739Z" fill="#E0E7FF"/>
<circle cx="1355" cy="62" r="9" fill="white"/>
<path fill-rule="evenodd" clip-rule="evenodd" d="M1346 62C1346 57.0294 1350.03 53 1355 53C1359.97 53 1364 57.0294 1364 62C1364 66.9706 1359.97 71 1355 71C1350.03 71 1346 66.9706 1346 62ZM1358.33 60.3255C1358.55 60.0143 1358.48 59.582 1358.17 59.3597C1357.86 59.1375 1357.43 59.2095 1357.21 59.5207L1354.22 63.7018L1352.72 62.2028C1352.45 61.9324 1352.01 61.9324 1351.74 62.2028C1351.47 62.4731 1351.47 62.9115 1351.74 63.1818L1353.82 65.2588C1353.96 65.4027 1354.16 65.476 1354.36 65.4592C1354.57 65.4424 1354.75 65.3372 1354.87 65.1716L1358.33 60.3255Z" fill="#6366F1"/>
<circle cx="1355" cy="62" r="12.5" stroke="#818CF8"/>
<path d="M446.173 52.3636C446.113 51.8598 445.871 51.4688 445.447 51.1903C445.023 50.9119 444.502 50.7727 443.886 50.7727C443.435 50.7727 443.041 50.8456 442.703 50.9915C442.368 51.1373 442.106 51.3378 441.917 51.593C441.732 51.8482 441.639 52.1383 441.639 52.4631C441.639 52.7348 441.703 52.9685 441.833 53.1641C441.965 53.3563 442.134 53.517 442.34 53.6463C442.545 53.7723 442.761 53.8767 442.986 53.9595C443.211 54.0391 443.419 54.1037 443.608 54.1534L444.642 54.4318C444.907 54.5014 445.202 54.5975 445.527 54.7202C445.855 54.8428 446.168 55.0102 446.466 55.2223C446.768 55.4311 447.016 55.6996 447.212 56.0277C447.407 56.3558 447.505 56.7585 447.505 57.2358C447.505 57.786 447.361 58.2831 447.073 58.7273C446.788 59.1714 446.37 59.5244 445.82 59.7862C445.273 60.0481 444.608 60.179 443.826 60.179C443.097 60.179 442.466 60.0613 441.932 59.826C441.402 59.5907 440.984 59.2625 440.679 58.8416C440.378 58.4207 440.207 57.9318 440.167 57.375H441.44C441.473 57.7595 441.602 58.0777 441.828 58.3295C442.056 58.5781 442.345 58.7637 442.693 58.8864C443.044 59.0057 443.422 59.0653 443.826 59.0653C444.297 59.0653 444.719 58.9891 445.094 58.8366C445.469 58.6809 445.765 58.4654 445.984 58.1903C446.203 57.9119 446.312 57.5871 446.312 57.2159C446.312 56.8778 446.218 56.6027 446.029 56.3906C445.84 56.1785 445.591 56.0062 445.283 55.8736C444.975 55.741 444.642 55.625 444.284 55.5256L443.031 55.1676C442.235 54.9389 441.606 54.6125 441.142 54.1882C440.678 53.764 440.446 53.2088 440.446 52.5227C440.446 51.9527 440.6 51.4555 440.908 51.0312C441.219 50.6037 441.637 50.2723 442.161 50.0369C442.688 49.7983 443.276 49.679 443.926 49.679C444.582 49.679 445.165 49.7966 445.676 50.032C446.186 50.264 446.59 50.5821 446.889 50.9865C447.19 51.3909 447.349 51.8499 447.366 52.3636H446.173ZM452.155 60.1591C451.419 60.1591 450.785 59.9967 450.251 59.6719C449.721 59.3438 449.311 58.8864 449.023 58.2997C448.738 57.7098 448.595 57.0237 448.595 56.2415C448.595 55.4593 448.738 54.7699 449.023 54.1733C449.311 53.5734 449.712 53.1061 450.226 52.7713C450.743 52.4332 451.346 52.2642 452.036 52.2642C452.433 52.2642 452.826 52.3305 453.214 52.4631C453.602 52.5956 453.955 52.8111 454.273 53.1094C454.591 53.4044 454.845 53.7955 455.034 54.2827C455.222 54.7699 455.317 55.3698 455.317 56.0824V56.5795H449.431V55.5653H454.124C454.124 55.1345 454.038 54.75 453.865 54.4119C453.696 54.0739 453.454 53.8071 453.139 53.6115C452.828 53.416 452.46 53.3182 452.036 53.3182C451.568 53.3182 451.164 53.4342 450.823 53.6662C450.485 53.8949 450.224 54.1932 450.042 54.5611C449.86 54.929 449.769 55.3234 449.769 55.7443V56.4205C449.769 56.9972 449.868 57.486 450.067 57.8871C450.269 58.2848 450.549 58.5881 450.907 58.7969C451.265 59.0024 451.681 59.1051 452.155 59.1051C452.463 59.1051 452.742 59.062 452.99 58.9759C453.242 58.8864 453.459 58.7538 453.642 58.5781C453.824 58.3991 453.965 58.1771 454.064 57.9119L455.198 58.2301C455.078 58.6146 454.878 58.9527 454.596 59.2443C454.314 59.5327 453.966 59.758 453.552 59.9205C453.138 60.0795 452.672 60.1591 452.155 60.1591ZM456.682 60V52.3636H457.815V53.517H457.895C458.034 53.1392 458.286 52.8326 458.651 52.5973C459.015 52.362 459.426 52.2443 459.883 52.2443C459.97 52.2443 460.077 52.246 460.207 52.2493C460.336 52.2526 460.434 52.2576 460.5 52.2642V53.4574C460.46 53.4474 460.369 53.4325 460.226 53.4126C460.087 53.3894 459.94 53.3778 459.784 53.3778C459.413 53.3778 459.081 53.4557 458.79 53.6115C458.501 53.764 458.273 53.9761 458.104 54.2479C457.938 54.5163 457.855 54.8229 457.855 55.1676V60H456.682ZM467.947 52.3636L465.124 60H463.93L461.107 52.3636H462.379L464.487 58.4489H464.567L466.675 52.3636H467.947ZM472.004 60.1591C471.269 60.1591 470.634 59.9967 470.1 59.6719C469.57 59.3438 469.161 58.8864 468.872 58.2997C468.587 57.7098 468.445 57.0237 468.445 56.2415C468.445 55.4593 468.587 54.7699 468.872 54.1733C469.161 53.5734 469.562 53.1061 470.075 52.7713C470.592 52.4332 471.196 52.2642 471.885 52.2642C472.283 52.2642 472.676 52.3305 473.063 52.4631C473.451 52.5956 473.804 52.8111 474.122 53.1094C474.44 53.4044 474.694 53.7955 474.883 54.2827C475.072 54.7699 475.166 55.3698 475.166 56.0824V56.5795H469.28V55.5653H473.973C473.973 55.1345 473.887 54.75 473.715 54.4119C473.546 54.0739 473.304 53.8071 472.989 53.6115C472.677 53.416 472.309 53.3182 471.885 53.3182C471.418 53.3182 471.013 53.4342 470.672 53.6662C470.334 53.8949 470.074 54.1932 469.891 54.5611C469.709 54.929 469.618 55.3234 469.618 55.7443V56.4205C469.618 56.9972 469.717 57.486 469.916 57.8871C470.119 58.2848 470.399 58.5881 470.757 58.7969C471.114 59.0024 471.53 59.1051 472.004 59.1051C472.313 59.1051 472.591 59.062 472.84 58.9759C473.092 58.8864 473.309 58.7538 473.491 58.5781C473.673 58.3991 473.814 58.1771 473.913 57.9119L475.047 58.2301C474.928 58.6146 474.727 58.9527 474.445 59.2443C474.164 59.5327 473.816 59.758 473.401 59.9205C472.987 60.0795 472.521 60.1591 472.004 60.1591ZM476.531 60V52.3636H477.665V53.517H477.744C477.883 53.1392 478.135 52.8326 478.5 52.5973C478.864 52.362 479.275 52.2443 479.733 52.2443C479.819 52.2443 479.927 52.246 480.056 52.2493C480.185 52.2526 480.283 52.2576 480.349 52.2642V53.4574C480.31 53.4474 480.218 53.4325 480.076 53.4126C479.937 53.3894 479.789 53.3778 479.633 53.3778C479.262 53.3778 478.931 53.4557 478.639 53.6115C478.351 53.764 478.122 53.9761 477.953 54.2479C477.787 54.5163 477.704 54.8229 477.704 55.1676V60H476.531ZM482.493 49.8182V60H481.32V49.8182H482.493ZM487.424 60.1591C486.688 60.1591 486.054 59.9967 485.52 59.6719C484.99 59.3438 484.58 58.8864 484.292 58.2997C484.007 57.7098 483.864 57.0237 483.864 56.2415C483.864 55.4593 484.007 54.7699 484.292 54.1733C484.58 53.5734 484.981 53.1061 485.495 52.7713C486.012 52.4332 486.615 52.2642 487.305 52.2642C487.702 52.2642 488.095 52.3305 488.483 52.4631C488.871 52.5956 489.224 52.8111 489.542 53.1094C489.86 53.4044 490.114 53.7955 490.303 54.2827C490.492 54.7699 490.586 55.3698 490.586 56.0824V56.5795H484.7V55.5653H489.393C489.393 55.1345 489.307 54.75 489.134 54.4119C488.965 54.0739 488.723 53.8071 488.408 53.6115C488.097 53.416 487.729 53.3182 487.305 53.3182C486.837 53.3182 486.433 53.4342 486.092 53.6662C485.754 53.8949 485.493 54.1932 485.311 54.5611C485.129 54.929 485.038 55.3234 485.038 55.7443V56.4205C485.038 56.9972 485.137 57.486 485.336 57.8871C485.538 58.2848 485.818 58.5881 486.176 58.7969C486.534 59.0024 486.95 59.1051 487.424 59.1051C487.732 59.1051 488.011 59.062 488.259 58.9759C488.511 58.8864 488.728 58.7538 488.911 58.5781C489.093 58.3991 489.234 58.1771 489.333 57.9119L490.467 58.2301C490.347 58.6146 490.147 58.9527 489.865 59.2443C489.583 59.5327 489.235 59.758 488.821 59.9205C488.407 60.0795 487.941 60.1591 487.424 60.1591ZM497.36 54.0739L496.306 54.3722C496.24 54.1965 496.142 54.0258 496.013 53.8601C495.887 53.6911 495.714 53.5518 495.496 53.4425C495.277 53.3331 494.997 53.2784 494.655 53.2784C494.188 53.2784 493.799 53.3861 493.487 53.6016C493.179 53.8137 493.025 54.0838 493.025 54.4119C493.025 54.7036 493.131 54.9339 493.343 55.103C493.555 55.272 493.886 55.4129 494.337 55.5256L495.471 55.804C496.153 55.9697 496.662 56.2232 496.997 56.5646C497.332 56.9027 497.499 57.3385 497.499 57.8722C497.499 58.3097 497.373 58.7008 497.121 59.0455C496.873 59.3902 496.525 59.6619 496.077 59.8608C495.63 60.0597 495.109 60.1591 494.516 60.1591C493.737 60.1591 493.093 59.9901 492.582 59.652C492.072 59.3139 491.749 58.8201 491.613 58.1705L492.726 57.892C492.832 58.303 493.033 58.6113 493.328 58.8168C493.626 59.0223 494.016 59.125 494.496 59.125C495.043 59.125 495.477 59.009 495.799 58.777C496.124 58.5417 496.286 58.2599 496.286 57.9318C496.286 57.6667 496.193 57.4446 496.008 57.2656C495.822 57.0833 495.537 56.9474 495.153 56.858L493.88 56.5597C493.18 56.3939 492.667 56.1371 492.339 55.7891C492.014 55.4377 491.851 54.9986 491.851 54.4716C491.851 54.0407 491.972 53.6596 492.214 53.3281C492.46 52.9967 492.793 52.7365 493.214 52.5476C493.638 52.3587 494.118 52.2642 494.655 52.2642C495.411 52.2642 496.004 52.4299 496.435 52.7614C496.869 53.0928 497.178 53.5303 497.36 54.0739ZM504.254 54.0739L503.2 54.3722C503.134 54.1965 503.036 54.0258 502.907 53.8601C502.781 53.6911 502.609 53.5518 502.39 53.4425C502.171 53.3331 501.891 53.2784 501.55 53.2784C501.082 53.2784 500.693 53.3861 500.381 53.6016C500.073 53.8137 499.919 54.0838 499.919 54.4119C499.919 54.7036 500.025 54.9339 500.237 55.103C500.449 55.272 500.781 55.4129 501.232 55.5256L502.365 55.804C503.048 55.9697 503.557 56.2232 503.891 56.5646C504.226 56.9027 504.394 57.3385 504.394 57.8722C504.394 58.3097 504.268 58.7008 504.016 59.0455C503.767 59.3902 503.419 59.6619 502.972 59.8608C502.524 60.0597 502.004 60.1591 501.411 60.1591C500.632 60.1591 499.987 59.9901 499.477 59.652C498.966 59.3139 498.643 58.8201 498.507 58.1705L499.621 57.892C499.727 58.303 499.927 58.6113 500.222 58.8168C500.521 59.0223 500.91 59.125 501.391 59.125C501.938 59.125 502.372 59.009 502.693 58.777C503.018 58.5417 503.18 58.2599 503.18 57.9318C503.18 57.6667 503.088 57.4446 502.902 57.2656C502.716 57.0833 502.431 56.9474 502.047 56.858L500.774 56.5597C500.075 56.3939 499.561 56.1371 499.233 55.7891C498.908 55.4377 498.746 54.9986 498.746 54.4716C498.746 54.0407 498.867 53.6596 499.109 53.3281C499.354 52.9967 499.687 52.7365 500.108 52.5476C500.532 52.3587 501.013 52.2642 501.55 52.2642C502.305 52.2642 502.899 52.4299 503.33 52.7614C503.764 53.0928 504.072 53.5303 504.254 54.0739ZM513.115 56.8182H514.467L515.601 58.3097L515.899 58.7074L517.59 60.9545H516.237L515.124 59.4631L514.845 59.0852L513.115 56.8182ZM518.007 54.9091C518.007 55.983 517.813 56.911 517.426 57.6932C517.038 58.4754 516.506 59.0786 515.83 59.5028C515.154 59.9271 514.381 60.1392 513.513 60.1392C512.645 60.1392 511.872 59.9271 511.196 59.5028C510.52 59.0786 509.988 58.4754 509.6 57.6932C509.212 56.911 509.019 55.983 509.019 54.9091C509.019 53.8352 509.212 52.9072 509.6 52.125C509.988 51.3428 510.52 50.7396 511.196 50.3153C511.872 49.8911 512.645 49.679 513.513 49.679C514.381 49.679 515.154 49.8911 515.83 50.3153C516.506 50.7396 517.038 51.3428 517.426 52.125C517.813 52.9072 518.007 53.8352 518.007 54.9091ZM516.814 54.9091C516.814 54.0275 516.667 53.2834 516.372 52.6768C516.08 52.0703 515.684 51.6113 515.183 51.2997C514.686 50.9882 514.129 50.8324 513.513 50.8324C512.896 50.8324 512.338 50.9882 511.837 51.2997C511.34 51.6113 510.944 52.0703 510.649 52.6768C510.358 53.2834 510.212 54.0275 510.212 54.9091C510.212 55.7907 510.358 56.5348 510.649 57.1413C510.944 57.7479 511.34 58.2069 511.837 58.5185C512.338 58.83 512.896 58.9858 513.513 58.9858C514.129 58.9858 514.686 58.83 515.183 58.5185C515.684 58.2069 516.08 57.7479 516.372 57.1413C516.667 56.5348 516.814 55.7907 516.814 54.9091ZM524.314 56.8778V52.3636H525.487V60H524.314V58.7074H524.234C524.055 59.0952 523.777 59.425 523.399 59.6967C523.021 59.9652 522.544 60.0994 521.967 60.0994C521.49 60.0994 521.066 59.995 520.694 59.7862C520.323 59.5741 520.032 59.2559 519.819 58.8317C519.607 58.4041 519.501 57.8655 519.501 57.2159V52.3636H520.675V57.1364C520.675 57.6932 520.83 58.1373 521.142 58.4688C521.457 58.8002 521.858 58.9659 522.345 58.9659C522.637 58.9659 522.933 58.8913 523.235 58.7422C523.54 58.593 523.795 58.3643 524.001 58.0561C524.209 57.7479 524.314 57.3551 524.314 56.8778ZM530.418 60.1591C529.682 60.1591 529.047 59.9967 528.514 59.6719C527.983 59.3438 527.574 58.8864 527.286 58.2997C527.001 57.7098 526.858 57.0237 526.858 56.2415C526.858 55.4593 527.001 54.7699 527.286 54.1733C527.574 53.5734 527.975 53.1061 528.489 52.7713C529.006 52.4332 529.609 52.2642 530.298 52.2642C530.696 52.2642 531.089 52.3305 531.477 52.4631C531.864 52.5956 532.217 52.8111 532.536 53.1094C532.854 53.4044 533.107 53.7955 533.296 54.2827C533.485 54.7699 533.58 55.3698 533.58 56.0824V56.5795H527.693V55.5653H532.387C532.387 55.1345 532.3 54.75 532.128 54.4119C531.959 54.0739 531.717 53.8071 531.402 53.6115C531.091 53.416 530.723 53.3182 530.298 53.3182C529.831 53.3182 529.427 53.4342 529.085 53.6662C528.747 53.8949 528.487 54.1932 528.305 54.5611C528.123 54.929 528.031 55.3234 528.031 55.7443V56.4205C528.031 56.9972 528.131 57.486 528.33 57.8871C528.532 58.2848 528.812 58.5881 529.17 58.7969C529.528 59.0024 529.944 59.1051 530.418 59.1051C530.726 59.1051 531.004 59.062 531.253 58.9759C531.505 58.8864 531.722 58.7538 531.904 58.5781C532.087 58.3991 532.227 58.1771 532.327 57.9119L533.46 58.2301C533.341 58.6146 533.141 58.9527 532.859 59.2443C532.577 59.5327 532.229 59.758 531.815 59.9205C531.4 60.0795 530.935 60.1591 530.418 60.1591ZM539.757 56.8778V52.3636H540.93V60H539.757V58.7074H539.677C539.498 59.0952 539.22 59.425 538.842 59.6967C538.464 59.9652 537.987 60.0994 537.41 60.0994C536.933 60.0994 536.509 59.995 536.138 59.7862C535.766 59.5741 535.475 59.2559 535.263 58.8317C535.051 58.4041 534.944 57.8655 534.944 57.2159V52.3636H536.118V57.1364C536.118 57.6932 536.274 58.1373 536.585 58.4688C536.9 58.8002 537.301 58.9659 537.788 58.9659C538.08 58.9659 538.377 58.8913 538.678 58.7422C538.983 58.593 539.238 58.3643 539.444 58.0561C539.653 57.7479 539.757 57.3551 539.757 56.8778ZM545.861 60.1591C545.125 60.1591 544.49 59.9967 543.957 59.6719C543.427 59.3438 543.017 58.8864 542.729 58.2997C542.444 57.7098 542.301 57.0237 542.301 56.2415C542.301 55.4593 542.444 54.7699 542.729 54.1733C543.017 53.5734 543.418 53.1061 543.932 52.7713C544.449 52.4332 545.052 52.2642 545.742 52.2642C546.139 52.2642 546.532 52.3305 546.92 52.4631C547.308 52.5956 547.661 52.8111 547.979 53.1094C548.297 53.4044 548.551 53.7955 548.74 54.2827C548.928 54.7699 549.023 55.3698 549.023 56.0824V56.5795H543.137V55.5653H547.83C547.83 55.1345 547.744 54.75 547.571 54.4119C547.402 54.0739 547.16 53.8071 546.845 53.6115C546.534 53.416 546.166 53.3182 545.742 53.3182C545.274 53.3182 544.87 53.4342 544.529 53.6662C544.191 53.8949 543.93 54.1932 543.748 54.5611C543.566 54.929 543.475 55.3234 543.475 55.7443V56.4205C543.475 56.9972 543.574 57.486 543.773 57.8871C543.975 58.2848 544.255 58.5881 544.613 58.7969C544.971 59.0024 545.387 59.1051 545.861 59.1051C546.169 59.1051 546.448 59.062 546.696 58.9759C546.948 58.8864 547.165 58.7538 547.347 58.5781C547.53 58.3991 547.671 58.1771 547.77 57.9119L548.904 58.2301C548.784 58.6146 548.584 58.9527 548.302 59.2443C548.02 59.5327 547.672 59.758 547.258 59.9205C546.844 60.0795 546.378 60.1591 545.861 60.1591ZM555.797 54.0739L554.743 54.3722C554.677 54.1965 554.579 54.0258 554.449 53.8601C554.324 53.6911 554.151 53.5518 553.932 53.4425C553.714 53.3331 553.434 53.2784 553.092 53.2784C552.625 53.2784 552.235 53.3861 551.924 53.6016C551.616 53.8137 551.462 54.0838 551.462 54.4119C551.462 54.7036 551.568 54.9339 551.78 55.103C551.992 55.272 552.323 55.4129 552.774 55.5256L553.908 55.804C554.59 55.9697 555.099 56.2232 555.434 56.5646C555.769 56.9027 555.936 57.3385 555.936 57.8722C555.936 58.3097 555.81 58.7008 555.558 59.0455C555.31 59.3902 554.962 59.6619 554.514 59.8608C554.067 60.0597 553.546 60.1591 552.953 60.1591C552.174 60.1591 551.529 59.9901 551.019 59.652C550.509 59.3139 550.186 58.8201 550.05 58.1705L551.163 57.892C551.269 58.303 551.47 58.6113 551.765 58.8168C552.063 59.0223 552.453 59.125 552.933 59.125C553.48 59.125 553.914 59.009 554.236 58.777C554.561 58.5417 554.723 58.2599 554.723 57.9318C554.723 57.6667 554.63 57.4446 554.445 57.2656C554.259 57.0833 553.974 56.9474 553.589 56.858L552.317 56.5597C551.617 56.3939 551.104 56.1371 550.775 55.7891C550.451 55.4377 550.288 54.9986 550.288 54.4716C550.288 54.0407 550.409 53.6596 550.651 53.3281C550.896 52.9967 551.23 52.7365 551.65 52.5476C552.075 52.3587 552.555 52.2642 553.092 52.2642C553.848 52.2642 554.441 52.4299 554.872 52.7614C555.306 53.0928 555.614 53.5303 555.797 54.0739Z" fill="#E0E7FF"/>
<circle cx="498" cy="89" r="9" fill="white"/>
<path fill-rule="evenodd" clip-rule="evenodd" d="M489 89C489 84.0294 493.029 80 498 80C502.971 80 507 84.0294 507 89C507 93.9706 502.971 98 498 98C493.029 98 489 93.9706 489 89ZM501.333 87.3255C501.555 87.0143 501.483 86.582 501.172 86.3597C500.86 86.1375 500.428 86.2095 500.206 86.5207L497.219 90.7018L495.72 89.2028C495.45 88.9324 495.012 88.9324 494.741 89.2028C494.471 89.4731 494.471 89.9115 494.741 90.1818L496.818 92.2588C496.962 92.4027 497.162 92.476 497.365 92.4592C497.568 92.4424 497.753 92.3372 497.871 92.1716L501.333 87.3255Z" fill="#6366F1"/>
<circle cx="498" cy="89" r="12.5" stroke="#818CF8"/>
<path d="M730.935 19H729.643L733.381 8.81818H734.654L738.393 19H737.1L734.057 10.429H733.978L730.935 19ZM731.413 15.0227H736.623V16.1165H731.413V15.0227ZM740.792 8.81818V19H739.559V8.81818H740.792ZM749.086 19.1392C748.416 19.1392 747.839 19.0166 747.356 18.7713C746.872 18.526 746.499 18.1896 746.237 17.7621C745.975 17.3345 745.844 16.8456 745.844 16.2955C745.844 15.8712 745.934 15.495 746.113 15.1669C746.295 14.8355 746.545 14.5289 746.863 14.2472C747.185 13.9621 747.554 13.6771 747.972 13.392L749.444 12.2983C749.732 12.1094 749.962 11.9072 750.135 11.6918C750.31 11.4763 750.398 11.1946 750.398 10.8466C750.398 10.5881 750.284 10.3378 750.055 10.0959C749.83 9.85393 749.533 9.73295 749.165 9.73295C748.907 9.73295 748.678 9.79924 748.479 9.93182C748.284 10.0611 748.129 10.2268 748.017 10.429C747.907 10.6278 747.853 10.8333 747.853 11.0455C747.853 11.2841 747.917 11.526 748.047 11.7713C748.179 12.0133 748.347 12.2618 748.549 12.517C748.754 12.7689 748.966 13.0275 749.185 13.2926L753.858 19H752.446L748.588 14.3466C748.231 13.9157 747.906 13.5246 747.614 13.1733C747.322 12.822 747.09 12.4756 746.918 12.1342C746.746 11.7929 746.659 11.4233 746.659 11.0256C746.659 10.5682 746.761 10.1671 746.963 9.82244C747.168 9.47443 747.455 9.20431 747.823 9.01207C748.194 8.81652 748.628 8.71875 749.125 8.71875C749.636 8.71875 750.075 8.81818 750.443 9.01705C750.811 9.21259 751.094 9.47277 751.293 9.79758C751.492 10.1191 751.591 10.4688 751.591 10.8466C751.591 11.3338 751.47 11.7564 751.228 12.1143C750.986 12.4723 750.657 12.8054 750.239 13.1136L748.211 14.625C747.753 14.9631 747.443 15.2912 747.281 15.6094C747.119 15.9276 747.037 16.1562 747.037 16.2955C747.037 16.6136 747.12 16.9103 747.286 17.1854C747.452 17.4605 747.685 17.6825 747.987 17.8516C748.289 18.0206 748.641 18.1051 749.046 18.1051C749.43 18.1051 749.805 18.0239 750.169 17.8615C750.534 17.6958 750.864 17.4571 751.159 17.1456C751.457 16.834 751.692 16.4595 751.865 16.022C752.04 15.5845 752.128 15.0923 752.128 14.5455H753.262C753.262 15.2216 753.184 15.7734 753.028 16.201C752.872 16.6286 752.697 16.9633 752.501 17.2053C752.306 17.4472 752.148 17.6278 752.029 17.7472C751.989 17.7969 751.953 17.8466 751.919 17.8963C751.886 17.946 751.85 17.9957 751.81 18.0455C751.482 18.4134 751.068 18.6884 750.567 18.8707C750.067 19.0497 749.573 19.1392 749.086 19.1392ZM758.414 19V8.81818H759.647V17.9062H764.38V19H758.414ZM765.869 19V8.81818H767.102V17.9062H771.835V19H765.869ZM773.324 8.81818H774.795L778.256 17.2699H778.375L781.835 8.81818H783.307V19H782.153V11.2642H782.054L778.872 19H777.758L774.577 11.2642H774.477V19H773.324V8.81818ZM797.07 12H795.837C795.764 11.6454 795.636 11.3338 795.454 11.0653C795.275 10.7969 795.056 10.5715 794.798 10.3892C794.542 10.2036 794.259 10.0644 793.947 9.97159C793.636 9.87879 793.311 9.83239 792.973 9.83239C792.356 9.83239 791.798 9.98816 791.298 10.2997C790.8 10.6113 790.404 11.0703 790.109 11.6768C789.818 12.2834 789.672 13.0275 789.672 13.9091C789.672 14.7907 789.818 15.5348 790.109 16.1413C790.404 16.7479 790.8 17.2069 791.298 17.5185C791.798 17.83 792.356 17.9858 792.973 17.9858C793.311 17.9858 793.636 17.9394 793.947 17.8466C794.259 17.7538 794.542 17.6162 794.798 17.4339C795.056 17.2483 795.275 17.0213 795.454 16.7528C795.636 16.4811 795.764 16.1695 795.837 15.8182H797.07C796.977 16.3385 796.808 16.8042 796.562 17.2152C796.317 17.6262 796.012 17.9759 795.648 18.2642C795.283 18.5492 794.874 18.7663 794.42 18.9155C793.969 19.0646 793.487 19.1392 792.973 19.1392C792.105 19.1392 791.332 18.9271 790.656 18.5028C789.98 18.0786 789.448 17.4754 789.06 16.6932C788.673 15.911 788.479 14.983 788.479 13.9091C788.479 12.8352 788.673 11.9072 789.06 11.125C789.448 10.3428 789.98 9.73958 790.656 9.31534C791.332 8.8911 792.105 8.67898 792.973 8.67898C793.487 8.67898 793.969 8.75355 794.42 8.9027C794.874 9.05185 795.283 9.2706 795.648 9.55895C796.012 9.84399 796.317 10.192 796.562 10.603C796.808 11.0107 796.977 11.4763 797.07 12ZM799.656 14.4062V19H798.483V8.81818H799.656V12.5568H799.756C799.935 12.1624 800.203 11.8492 800.561 11.6172C800.922 11.3819 801.403 11.2642 802.003 11.2642C802.523 11.2642 802.979 11.3686 803.37 11.5774C803.761 11.7829 804.064 12.0994 804.28 12.527C804.498 12.9512 804.608 13.4915 804.608 14.1477V19H803.435V14.2273C803.435 13.6207 803.277 13.1518 802.962 12.8203C802.651 12.4856 802.218 12.3182 801.665 12.3182C801.28 12.3182 800.935 12.3994 800.631 12.5618C800.329 12.7242 800.09 12.9612 799.915 13.2727C799.742 13.5843 799.656 13.9621 799.656 14.4062ZM808.581 19.179C808.098 19.179 807.658 19.0878 807.264 18.9055C806.87 18.7199 806.556 18.4531 806.324 18.1051C806.092 17.7538 805.976 17.3295 805.976 16.8324C805.976 16.3949 806.063 16.0402 806.235 15.7685C806.407 15.4934 806.638 15.2779 806.926 15.1222C807.214 14.9664 807.532 14.8504 807.88 14.7741C808.232 14.6946 808.585 14.6316 808.939 14.5852C809.403 14.5256 809.78 14.4808 810.068 14.451C810.36 14.4179 810.572 14.3632 810.704 14.2869C810.84 14.2107 810.908 14.0781 810.908 13.8892V13.8494C810.908 13.3589 810.774 12.9777 810.505 12.706C810.24 12.4342 809.838 12.2983 809.297 12.2983C808.737 12.2983 808.298 12.4209 807.98 12.6662C807.662 12.9115 807.438 13.1733 807.309 13.4517L806.195 13.054C806.394 12.59 806.659 12.2287 806.991 11.9702C807.325 11.7083 807.69 11.526 808.084 11.4233C808.482 11.3172 808.873 11.2642 809.258 11.2642C809.503 11.2642 809.785 11.294 810.103 11.3537C810.424 11.41 810.734 11.5277 811.032 11.7067C811.334 11.8857 811.584 12.1558 811.783 12.517C811.982 12.8783 812.081 13.3622 812.081 13.9688V19H810.908V17.9659H810.848C810.769 18.1316 810.636 18.3089 810.451 18.4979C810.265 18.6868 810.018 18.8475 809.71 18.9801C809.402 19.1127 809.026 19.179 808.581 19.179ZM808.76 18.125C809.224 18.125 809.616 18.0339 809.934 17.8516C810.255 17.6693 810.497 17.4339 810.66 17.1456C810.825 16.8572 810.908 16.554 810.908 16.2358V15.1619C810.858 15.2216 810.749 15.2763 810.58 15.326C810.414 15.3724 810.222 15.4138 810.003 15.4503C809.788 15.4834 809.577 15.5133 809.372 15.5398C809.17 15.563 809.006 15.5829 808.88 15.5994C808.575 15.6392 808.29 15.7038 808.025 15.7933C807.763 15.8795 807.551 16.0104 807.388 16.1861C807.229 16.3584 807.15 16.5937 807.15 16.892C807.15 17.2997 807.3 17.608 807.602 17.8168C807.907 18.0223 808.293 18.125 808.76 18.125ZM813.803 19V11.3636H814.976V19H813.803ZM814.4 10.0909C814.171 10.0909 813.974 10.013 813.808 9.85724C813.646 9.70147 813.564 9.5142 813.564 9.29545C813.564 9.0767 813.646 8.88944 813.808 8.73366C813.974 8.57789 814.171 8.5 814.4 8.5C814.628 8.5 814.824 8.57789 814.986 8.73366C815.152 8.88944 815.235 9.0767 815.235 9.29545C815.235 9.5142 815.152 9.70147 814.986 9.85724C814.824 10.013 814.628 10.0909 814.4 10.0909ZM817.879 14.4062V19H816.705V11.3636H817.839V12.5568H817.938C818.117 12.169 818.389 11.8575 818.754 11.6222C819.118 11.3835 819.589 11.2642 820.165 11.2642C820.682 11.2642 821.135 11.3703 821.523 11.5824C821.91 11.7912 822.212 12.1094 822.428 12.5369C822.643 12.9612 822.751 13.4981 822.751 14.1477V19H821.577V14.2273C821.577 13.6274 821.422 13.16 821.11 12.8253C820.799 12.4872 820.371 12.3182 819.827 12.3182C819.453 12.3182 819.118 12.3994 818.823 12.5618C818.531 12.7242 818.301 12.9612 818.132 13.2727C817.963 13.5843 817.879 13.9621 817.879 14.4062ZM829.884 13.0739L828.83 13.3722C828.764 13.1965 828.666 13.0258 828.536 12.8601C828.411 12.6911 828.238 12.5518 828.019 12.4425C827.801 12.3331 827.521 12.2784 827.179 12.2784C826.712 12.2784 826.322 12.3861 826.011 12.6016C825.703 12.8137 825.549 13.0838 825.549 13.4119C825.549 13.7036 825.655 13.9339 825.867 14.103C826.079 14.272 826.41 14.4129 826.861 14.5256L827.995 14.804C828.677 14.9697 829.186 15.2232 829.521 15.5646C829.856 15.9027 830.023 16.3385 830.023 16.8722C830.023 17.3097 829.897 17.7008 829.645 18.0455C829.397 18.3902 829.049 18.6619 828.601 18.8608C828.154 19.0597 827.633 19.1591 827.04 19.1591C826.261 19.1591 825.616 18.9901 825.106 18.652C824.596 18.3139 824.273 17.8201 824.137 17.1705L825.25 16.892C825.356 17.303 825.557 17.6113 825.852 17.8168C826.15 18.0223 826.54 18.125 827.02 18.125C827.567 18.125 828.001 18.009 828.323 17.777C828.648 17.5417 828.81 17.2599 828.81 16.9318C828.81 16.6667 828.717 16.4446 828.531 16.2656C828.346 16.0833 828.061 15.9474 827.676 15.858L826.404 15.5597C825.704 15.3939 825.191 15.1371 824.862 14.7891C824.538 14.4377 824.375 13.9986 824.375 13.4716C824.375 13.0407 824.496 12.6596 824.738 12.3281C824.983 11.9967 825.317 11.7365 825.737 11.5476C826.162 11.3587 826.642 11.2642 827.179 11.2642C827.935 11.2642 828.528 11.4299 828.959 11.7614C829.393 12.0928 829.701 12.5303 829.884 13.0739Z" fill="#E0E7FF"/>
<circle cx="780" cy="49" r="9" fill="white"/>
<path fill-rule="evenodd" clip-rule="evenodd" d="M771 49C771 44.0294 775.029 40 780 40C784.971 40 789 44.0294 789 49C789 53.9706 784.971 58 780 58C775.029 58 771 53.9706 771 49ZM783.333 47.3255C783.555 47.0143 783.483 46.582 783.172 46.3597C782.86 46.1375 782.428 46.2095 782.206 46.5207L779.219 50.7018L777.72 49.2028C777.45 48.9324 777.012 48.9324 776.741 49.2028C776.471 49.4731 776.471 49.9115 776.741 50.1818L778.818 52.2588C778.962 52.4027 779.162 52.476 779.365 52.4592C779.568 52.4424 779.753 52.3372 779.871 52.1716L783.333 47.3255Z" fill="#6366F1"/>
<circle cx="780" cy="49" r="12.5" stroke="#818CF8"/>
<path d="M1465.89 89L1463.1 78.8182H1464.36L1466.48 87.1108H1466.58L1468.75 78.8182H1470.14L1472.31 87.1108H1472.41L1474.54 78.8182H1475.79L1473.01 89H1471.73L1469.49 80.8864H1469.41L1467.16 89H1465.89ZM1479.24 89.1591C1478.5 89.1591 1477.87 88.9967 1477.33 88.6719C1476.8 88.3438 1476.39 87.8864 1476.11 87.2997C1475.82 86.7098 1475.68 86.0237 1475.68 85.2415C1475.68 84.4593 1475.82 83.7699 1476.11 83.1733C1476.39 82.5734 1476.8 82.1061 1477.31 81.7713C1477.83 81.4332 1478.43 81.2642 1479.12 81.2642C1479.52 81.2642 1479.91 81.3305 1480.3 81.4631C1480.69 81.5956 1481.04 81.8111 1481.36 82.1094C1481.67 82.4044 1481.93 82.7955 1482.12 83.2827C1482.31 83.7699 1482.4 84.3698 1482.4 85.0824V85.5795H1476.51V84.5653H1481.21C1481.21 84.1345 1481.12 83.75 1480.95 83.4119C1480.78 83.0739 1480.54 82.8071 1480.22 82.6115C1479.91 82.416 1479.54 82.3182 1479.12 82.3182C1478.65 82.3182 1478.25 82.4342 1477.91 82.6662C1477.57 82.8949 1477.31 83.1932 1477.13 83.5611C1476.94 83.929 1476.85 84.3234 1476.85 84.7443V85.4205C1476.85 85.9972 1476.95 86.486 1477.15 86.8871C1477.35 87.2848 1477.63 87.5881 1477.99 87.7969C1478.35 88.0024 1478.76 88.1051 1479.24 88.1051C1479.55 88.1051 1479.83 88.062 1480.07 87.9759C1480.33 87.8864 1480.54 87.7538 1480.73 87.5781C1480.91 87.3991 1481.05 87.1771 1481.15 86.9119L1482.28 87.2301C1482.16 87.6146 1481.96 87.9527 1481.68 88.2443C1481.4 88.5327 1481.05 88.758 1480.64 88.9205C1480.22 89.0795 1479.76 89.1591 1479.24 89.1591ZM1483.92 89V78.8182H1485.1V82.5767H1485.2C1485.28 82.4441 1485.4 82.2751 1485.56 82.0696C1485.71 81.8608 1485.93 81.6752 1486.22 81.5128C1486.51 81.3471 1486.91 81.2642 1487.4 81.2642C1488.05 81.2642 1488.61 81.425 1489.1 81.7464C1489.6 82.0679 1489.98 82.5237 1490.25 83.1136C1490.53 83.7036 1490.67 84.3996 1490.67 85.2017C1490.67 86.0104 1490.53 86.7114 1490.25 87.3047C1489.98 87.8946 1489.6 88.352 1489.11 88.6768C1488.62 88.9983 1488.06 89.1591 1487.42 89.1591C1486.93 89.1591 1486.54 89.0779 1486.25 88.9155C1485.95 88.7498 1485.72 88.5625 1485.57 88.3537C1485.41 88.1416 1485.28 87.9659 1485.2 87.8267H1485.06V89H1483.92ZM1485.08 85.1818C1485.08 85.7585 1485.16 86.2673 1485.33 86.7081C1485.5 87.1456 1485.75 87.4886 1486.07 87.7372C1486.4 87.9825 1486.79 88.1051 1487.27 88.1051C1487.76 88.1051 1488.17 87.9759 1488.49 87.7173C1488.82 87.4555 1489.07 87.1042 1489.24 86.6634C1489.41 86.2192 1489.49 85.7254 1489.49 85.1818C1489.49 84.6449 1489.41 84.161 1489.24 83.7301C1489.08 83.2959 1488.83 82.9529 1488.5 82.701C1488.18 82.4458 1487.76 82.3182 1487.27 82.3182C1486.79 82.3182 1486.39 82.4392 1486.06 82.6811C1485.74 82.9197 1485.49 83.2545 1485.33 83.6854C1485.16 84.1129 1485.08 84.6117 1485.08 85.1818ZM1493.21 84.4062V89H1492.04V78.8182H1493.21V82.5568H1493.31C1493.49 82.1624 1493.76 81.8492 1494.12 81.6172C1494.48 81.3819 1494.96 81.2642 1495.56 81.2642C1496.08 81.2642 1496.54 81.3686 1496.93 81.5774C1497.32 81.7829 1497.62 82.0994 1497.84 82.527C1498.06 82.9512 1498.17 83.4915 1498.17 84.1477V89H1496.99V84.2273C1496.99 83.6207 1496.83 83.1518 1496.52 82.8203C1496.21 82.4856 1495.78 82.3182 1495.22 82.3182C1494.84 82.3182 1494.49 82.3994 1494.19 82.5618C1493.89 82.7242 1493.65 82.9612 1493.47 83.2727C1493.3 83.5843 1493.21 83.9621 1493.21 84.4062ZM1502.99 89.1591C1502.31 89.1591 1501.7 88.995 1501.18 88.6669C1500.66 88.3388 1500.26 87.8797 1499.97 87.2898C1499.68 86.6998 1499.53 86.0104 1499.53 85.2216C1499.53 84.4261 1499.68 83.7318 1499.97 83.1385C1500.26 82.5452 1500.66 82.0845 1501.18 81.7564C1501.7 81.4283 1502.31 81.2642 1502.99 81.2642C1503.68 81.2642 1504.29 81.4283 1504.8 81.7564C1505.32 82.0845 1505.73 82.5452 1506.02 83.1385C1506.31 83.7318 1506.45 84.4261 1506.45 85.2216C1506.45 86.0104 1506.31 86.6998 1506.02 87.2898C1505.73 87.8797 1505.32 88.3388 1504.8 88.6669C1504.29 88.995 1503.68 89.1591 1502.99 89.1591ZM1502.99 88.1051C1503.52 88.1051 1503.95 87.9709 1504.29 87.7024C1504.63 87.4339 1504.88 87.081 1505.04 86.6435C1505.2 86.206 1505.28 85.732 1505.28 85.2216C1505.28 84.7112 1505.2 84.2356 1505.04 83.7947C1504.88 83.3539 1504.63 82.9976 1504.29 82.7259C1503.95 82.4541 1503.52 82.3182 1502.99 82.3182C1502.47 82.3182 1502.04 82.4541 1501.7 82.7259C1501.36 82.9976 1501.11 83.3539 1500.95 83.7947C1500.79 84.2356 1500.71 84.7112 1500.71 85.2216C1500.71 85.732 1500.79 86.206 1500.95 86.6435C1501.11 87.081 1501.36 87.4339 1501.7 87.7024C1502.04 87.9709 1502.47 88.1051 1502.99 88.1051ZM1510.93 89.1591C1510.24 89.1591 1509.63 88.995 1509.11 88.6669C1508.6 88.3388 1508.19 87.8797 1507.9 87.2898C1507.61 86.6998 1507.47 86.0104 1507.47 85.2216C1507.47 84.4261 1507.61 83.7318 1507.9 83.1385C1508.19 82.5452 1508.6 82.0845 1509.11 81.7564C1509.63 81.4283 1510.24 81.2642 1510.93 81.2642C1511.62 81.2642 1512.22 81.4283 1512.74 81.7564C1513.26 82.0845 1513.66 82.5452 1513.95 83.1385C1514.24 83.7318 1514.39 84.4261 1514.39 85.2216C1514.39 86.0104 1514.24 86.6998 1513.95 87.2898C1513.66 87.8797 1513.26 88.3388 1512.74 88.6669C1512.22 88.995 1511.62 89.1591 1510.93 89.1591ZM1510.93 88.1051C1511.45 88.1051 1511.88 87.9709 1512.22 87.7024C1512.56 87.4339 1512.81 87.081 1512.97 86.6435C1513.13 86.206 1513.21 85.732 1513.21 85.2216C1513.21 84.7112 1513.13 84.2356 1512.97 83.7947C1512.81 83.3539 1512.56 82.9976 1512.22 82.7259C1511.88 82.4541 1511.45 82.3182 1510.93 82.3182C1510.4 82.3182 1509.97 82.4541 1509.64 82.7259C1509.3 82.9976 1509.05 83.3539 1508.88 83.7947C1508.72 84.2356 1508.64 84.7112 1508.64 85.2216C1508.64 85.732 1508.72 86.206 1508.88 86.6435C1509.05 87.081 1509.3 87.4339 1509.64 87.7024C1509.97 87.9709 1510.4 88.1051 1510.93 88.1051ZM1516.85 86.2159L1516.83 84.7642H1517.07L1520.41 81.3636H1521.86L1518.3 84.9631H1518.21L1516.85 86.2159ZM1515.76 89V78.8182H1516.93V89H1515.76ZM1520.61 89L1517.63 85.2216L1518.46 84.4062L1522.1 89H1520.61ZM1528.36 83.0739L1527.31 83.3722C1527.24 83.1965 1527.15 83.0258 1527.02 82.8601C1526.89 82.6911 1526.72 82.5518 1526.5 82.4425C1526.28 82.3331 1526 82.2784 1525.66 82.2784C1525.19 82.2784 1524.8 82.3861 1524.49 82.6016C1524.18 82.8137 1524.03 83.0838 1524.03 83.4119C1524.03 83.7036 1524.13 83.9339 1524.35 84.103C1524.56 84.272 1524.89 84.4129 1525.34 84.5256L1526.47 84.804C1527.16 84.9697 1527.67 85.2232 1528 85.5646C1528.34 85.9027 1528.5 86.3385 1528.5 86.8722C1528.5 87.3097 1528.38 87.7008 1528.12 88.0455C1527.88 88.3902 1527.53 88.6619 1527.08 88.8608C1526.63 89.0597 1526.11 89.1591 1525.52 89.1591C1524.74 89.1591 1524.1 88.9901 1523.59 88.652C1523.08 88.3139 1522.75 87.8201 1522.62 87.1705L1523.73 86.892C1523.84 87.303 1524.04 87.6113 1524.33 87.8168C1524.63 88.0223 1525.02 88.125 1525.5 88.125C1526.05 88.125 1526.48 88.009 1526.8 87.777C1527.13 87.5417 1527.29 87.2599 1527.29 86.9318C1527.29 86.6667 1527.2 86.4446 1527.01 86.2656C1526.83 86.0833 1526.54 85.9474 1526.16 85.858L1524.88 85.5597C1524.18 85.3939 1523.67 85.1371 1523.34 84.7891C1523.02 84.4377 1522.86 83.9986 1522.86 83.4716C1522.86 83.0407 1522.98 82.6596 1523.22 82.3281C1523.46 81.9967 1523.8 81.7365 1524.22 81.5476C1524.64 81.3587 1525.12 81.2642 1525.66 81.2642C1526.41 81.2642 1527.01 81.4299 1527.44 81.7614C1527.87 82.0928 1528.18 82.5303 1528.36 83.0739Z" fill="#E0E7FF"/>
<circle cx="1496" cy="119" r="9" fill="white"/>
<path fill-rule="evenodd" clip-rule="evenodd" d="M1487 119C1487 114.029 1491.03 110 1496 110C1500.97 110 1505 114.029 1505 119C1505 123.971 1500.97 128 1496 128C1491.03 128 1487 123.971 1487 119ZM1499.33 117.325C1499.55 117.014 1499.48 116.582 1499.17 116.36C1498.86 116.137 1498.43 116.21 1498.21 116.521L1495.22 120.702L1493.72 119.203C1493.45 118.932 1493.01 118.932 1492.74 119.203C1492.47 119.473 1492.47 119.911 1492.74 120.182L1494.82 122.259C1494.96 122.403 1495.16 122.476 1495.36 122.459C1495.57 122.442 1495.75 122.337 1495.87 122.172L1499.33 117.325Z" fill="#6366F1"/>
<circle cx="1496" cy="119" r="12.5" stroke="#818CF8"/>
<rect x="497.5" y="102" width="1" height="89" fill="#818CF8"/>
<rect x="1495.5" y="132" width="1" height="61" fill="#818CF8"/>
<rect x="779.5" y="62" width="1" height="129" fill="#818CF8"/>
<rect x="1354.5" y="75" width="1" height="118" fill="#818CF8"/>
<rect x="638.5" y="154" width="1" height="37" fill="#818CF8"/>
<rect x="1213.5" y="168" width="1" height="25" fill="#818CF8"/>
<circle cx="498" cy="193.5" r="3" fill="#818CF8"/>
<circle cx="1214" cy="193.5" r="3" fill="#818CF8"/>
<circle cx="639" cy="193.5" r="3" fill="#818CF8"/>
<circle cx="1355" cy="193.5" r="3" fill="#818CF8"/>
<circle cx="780" cy="193.5" r="3" fill="#818CF8"/>
<circle cx="1496" cy="193.5" r="3" fill="#818CF8"/>
<rect x="869" y="188" width="242" height="10" fill="#050911"/>
<defs>
<linearGradient id="paint0_linear_1776_624" x1="-3.19869e-05" y1="194.242" x2="1980" y2="194.258" gradientUnits="userSpaceOnUse">
<stop stop-color="#8650FA"/>
<stop offset="1" stop-color="#87B6FF"/>
</linearGradient>
</defs>
</svg>
