<?xml version="1.0" encoding="UTF-8"?>
<svg width="15px" height="15px" viewBox="0 0 15 15" version="1.1" xmlns="http://www.w3.org/2000/svg" xmlns:xlink="http://www.w3.org/1999/xlink">
    <title>Group 59 Copy 2</title>
    <g id="Prototyping" stroke="none" stroke-width="1" fill="none" fill-rule="evenodd">
        <g id="Artboard-Copy" transform="translate(-1938.000000, -6180.000000)">
            <g id="Group-59-Copy-2" transform="translate(1939.000000, 6181.000000)">
                <circle id="Oval" stroke="#F87171" fill="#0C1323" cx="6.5" cy="6.5" r="7"></circle>
                <path d="M4.41628891,3.22687337 L6.56,5.37 L8.70408094,3.22687337 C9.00657877,2.92437554 9.49702464,2.92437554 9.79952246,3.22687337 C10.1020203,3.52937119 10.1020203,4.01981706 9.79952246,4.32231488 L7.655,6.466 L9.89349649,8.70408094 C10.1959943,9.00657877 10.1959943,9.49702464 9.89349649,9.79952246 C9.59099866,10.1020203 9.10055279,10.1020203 8.79805497,9.79952246 L6.56,7.561 L4.32231488,9.79952246 C4.01981706,10.1020203 3.52937119,10.1020203 3.22687337,9.79952246 C2.92437554,9.49702464 2.92437554,9.00657877 3.22687337,8.70408094 L5.464,6.466 L3.32084739,4.32231488 C3.01834957,4.01981706 3.01834957,3.52937119 3.32084739,3.22687337 C3.62334521,2.92437554 4.11379109,2.92437554 4.41628891,3.22687337 Z" id="Combined-Shape" fill="#F87171"></path>
            </g>
        </g>
    </g>
</svg>