<?xml version="1.0" encoding="UTF-8"?>
<svg width="15px" height="15px" viewBox="0 0 15 15" version="1.1" xmlns="http://www.w3.org/2000/svg" xmlns:xlink="http://www.w3.org/1999/xlink">
    <title>Group 66 Copy</title>
    <g id="Prototyping" stroke="none" stroke-width="1" fill="none" fill-rule="evenodd">
        <g id="Artboard-Copy" transform="translate(-1938.000000, -6290.000000)">
            <g id="Group-66-Copy" transform="translate(1939.000000, 6291.000000)">
                <circle id="Oval-Copy-76" stroke="#D1D5DB" fill="#0C1323" cx="6.5" cy="6.5" r="7"></circle>
                <g id="Group-65" transform="translate(4.800000, 2.200000)" fill="#CBD5E1">
                    <path d="M1.4117645,0 C1.74638416,-6.14686352e-17 2.017647,0.271262835 2.017647,0.6058825 L2.0177231,3.3127647 C2.31058111,3.45214563 2.54785437,3.68941889 2.6872353,3.9822769 L5.3941175,3.982353 C5.72873716,3.982353 6,4.25361584 6,4.5882355 C6,4.92285516 5.72873716,5.194118 5.3941175,5.194118 L2.6867651,5.19518064 C2.45979607,5.67111852 1.97418758,6 1.41176471,6 C0.632068589,6 0,5.36793141 0,4.58823529 C0,4.02581242 0.328881476,3.54020393 0.804819363,3.3132349 L0.805882,0.6058825 C0.805882,0.271262835 1.07714484,6.14686352e-17 1.4117645,0 Z" id="Combined-Shape"></path>
                </g>
            </g>
        </g>
    </g>
</svg>