<svg viewBox="0 0 21 18" xmlns="http://www.w3.org/2000/svg"><path d="M1.875 0C.839 0 0 .84 0 1.875v.75C0 3.661.84 4.5 1.875 4.5h17.25C20.16 4.5 21 3.66 21 2.625v-.75C21 .839 20.16 0 19.125 0H1.875Zm17.538 6-.541 9.176C18.7788 16.7618 17.4656 18 15.877 18H5.12c-1.5878-.001-2.8999-1.239-2.993-2.824L1.587 6h17.826ZM9.97 8.2193l-3 3a.75.75 0 1 0 1.06 1.06l1.72-1.72v4.94a.75.75 0 1 0 1.5 0v-4.94l1.72 1.72a.75.75 0 1 0 1.06-1.06l-3-3a.75.75 0 0 0-1.06 0Z" fill="CurrentColor" fill-rule="nonzero"/></svg>