<svg viewBox="0 0 42 38" version="1.1" xmlns="http://www.w3.org/2000/svg" xmlns:xlink="http://www.w3.org/1999/xlink">
    <path fill="CurrentColor" d="M21,6 C23.2,6 25,7.8 25,10 C25,10.7358333 24.798634,11.4269187 24.4482861,12.0208721 L28.1,18.5 C29.1,18.2 30.1,18 31.1,18 C36.6,18 41.1,22.5 41.1,28 C41.1,33.5 36.5,38 31,38 C28,38 25.1,36.6 23.2,34.3 L26.3,31.8 C27.4,33.2 29.2,34.1 31,34.1 C34.3,34.1 37,31.4 37,28.1 C37,24.8 34.3,22.1 31,22.1 C30,22.1 29,22.4 28.1,22.8 L26.4,23.8 L20.964,13.999 L20.8011409,13.9950803 C18.692562,13.8905418 17,12.1333333 17,10 C17,7.8 18.8,6 21,6 Z M7.5,18.3 L8.5,22.2 C5.9,22.9 4,25.3 4,28 C4,31.3 6.7,34 10,34 C13.3,34 16,31.3 16,28 L16,26 L27.5400695,25.9989991 C28.2344447,24.8062205 29.5276423,24 31,24 C33.2,24 35,25.8 35,28 C35,30.2 33.2,32 31,32 C29.5272358,32 28.2337306,31.1933343 27.5394945,30.0000129 L19.8,30 C18.9,34.6 14.8,38 10,38 C4.5,38 0,33.5 0,28 C0,23.4 3.1,19.5 7.5,18.3 Z M21,0 C26.5,0 31,4.5 31,10 C31,10.9 30.9,11.7 30.7,12.5 L26.8,11.5 C26.9,11 27,10.5 27,10 C27,6.7 24.3,4 21,4 C17.7,4 15,6.7 15,10 C15,12.1 16.1,14 17.9,15.1 L19.6,16.1 L13.4978469,26.0655855 C13.8175569,26.6397299 14,27.2995935 14,28 C14,30.2 12.2,32 10,32 C7.8,32 6,30.2 6,28 C6,25.8 7.8,24 10,24 L10.123,24.002 L14.2,17.3 C12.2,15.4 11,12.8 11,10 C11,4.5 15.5,0 21,0 Z" id="Webhooks" fill-rule="nonzero"></path>
</svg>