<svg width="128" height="128" viewBox="0 0 128 128" fill="none" xmlns="http://www.w3.org/2000/svg">
<rect width="128" height="128" rx="8" fill="#00A1E1"/>
<path d="M56.629 40.4914C58.0659 38.9797 59.7963 37.7771 61.7141 36.9574C63.632 36.1377 65.6969 35.718 67.7826 35.724C73.6018 35.724 78.6457 38.9451 81.3597 43.7446C83.7753 42.6839 86.3846 42.1355 89.0227 42.134C99.4975 42.134 108 50.67 108 61.2035C108 71.737 99.4975 80.2744 89.0227 80.2744C87.7293 80.2744 86.5015 80.1445 85.2723 79.8874C84.067 82.0354 82.312 83.8239 80.1871 85.0695C78.0623 86.315 75.6443 86.9727 73.1813 86.9749C71.0163 86.9749 68.9462 86.4581 67.1037 85.5893C64.6789 91.2269 59.086 95.1883 52.5558 95.1883C49.3249 95.1936 46.1701 94.2083 43.5166 92.365C40.8631 90.5217 38.8386 87.9092 37.7159 84.8797C36.7465 85.0739 35.7436 85.2024 34.71 85.2024C26.5623 85.1381 20 78.5339 20 70.3527C20 64.8772 22.9417 60.1084 27.3389 57.5312C26.4113 55.3972 25.938 53.0934 25.9491 50.7664C25.9491 41.3937 33.5771 33.7908 43.0183 33.7908C48.579 33.7908 53.4931 36.4001 56.629 40.4914Z" fill="white"/>
<path d="M32.739 65.6175C32.6733 65.746 32.7711 65.7781 32.7711 65.8103C32.9317 65.9388 33.0938 66.0044 33.2879 66.1008C34.1931 66.5841 35.034 66.7126 35.907 66.7126C37.7173 66.7126 38.8487 65.746 38.8487 64.2318V64.1997C38.8487 62.7819 37.5874 62.2665 36.3903 61.881L36.2297 61.8167C35.3245 61.5262 34.5479 61.2692 34.5479 60.6881V60.656C34.5479 60.1405 35.0018 59.7871 35.7128 59.7871C36.4881 59.7871 37.4253 60.0442 38.0078 60.3668C38.0078 60.3668 38.1698 60.4632 38.2341 60.3026C38.2662 60.2048 38.5582 59.4002 38.5903 59.3038C38.6224 59.2061 38.5582 59.1418 38.4925 59.1097C37.8137 58.6906 36.8764 58.4336 35.907 58.4336H35.7114C34.0632 58.4336 32.8996 59.4324 32.8996 60.8501V60.8823C32.8996 62.3964 34.161 62.8797 35.358 63.201L35.5508 63.2652C36.4238 63.5237 37.1669 63.7485 37.1669 64.3604V64.3925C37.1669 64.94 36.6822 65.3591 35.907 65.3591C35.615 65.3591 34.6457 65.3591 33.5785 64.683C33.45 64.6188 33.3843 64.5545 33.2879 64.4903C33.2237 64.4581 33.0938 64.3925 33.0617 64.5866L32.7376 65.6175H32.739ZM59.1823 65.6175C59.118 65.746 59.2144 65.7781 59.2144 65.8103C59.3764 65.9388 59.5385 66.0044 59.7312 66.1008C60.6378 66.5841 61.4773 66.7126 62.3503 66.7126C64.1606 66.7126 65.292 65.746 65.292 64.2318V64.1997C65.292 62.7819 64.0321 62.2665 62.835 61.881L62.6744 61.8167C61.7692 61.5262 60.9926 61.2692 60.9926 60.6881V60.656C60.9926 60.1405 61.4451 59.7871 62.1561 59.7871C62.9328 59.7871 63.87 60.0442 64.4525 60.3668C64.4525 60.3668 64.6131 60.4632 64.6788 60.3026C64.7109 60.2048 65.0015 59.4002 65.0336 59.3038C65.0657 59.2061 65.0015 59.1418 64.9358 59.1097C64.2583 58.6906 63.3211 58.4336 62.3517 58.4336H62.1561C60.5079 58.4336 59.3443 59.4324 59.3443 60.8501V60.8823C59.3443 62.3964 60.6043 62.8797 61.8013 63.201L61.9955 63.2652C62.8685 63.5237 63.6116 63.7485 63.6116 64.3604V64.3925C63.6116 64.94 63.1269 65.3591 62.3503 65.3591C62.0597 65.3591 61.0904 65.3591 60.0232 64.683C59.8933 64.6188 59.829 64.5545 59.7326 64.4903C59.6991 64.4581 59.5371 64.4246 59.505 64.5866L59.1837 65.6175H59.1823ZM78.7099 60.9786C78.5627 60.5121 78.3327 60.0759 78.0311 59.6908C77.707 59.336 77.3187 59.0133 76.8675 58.8205C76.4149 58.5957 75.8646 58.4993 75.25 58.4993C74.6354 58.4993 74.0864 58.5957 73.6338 58.8205C73.1952 59.0357 72.8006 59.3309 72.4703 59.6908C72.1567 60.068 71.9255 60.5067 71.7914 60.9786C71.6305 61.5 71.5541 62.0437 71.5651 62.5892C71.5651 63.1689 71.6294 63.7164 71.7914 64.1997C71.9535 64.683 72.1797 65.1356 72.4703 65.489C72.793 65.8424 73.1827 66.1651 73.6338 66.3578C74.0864 66.552 74.6368 66.6805 75.25 66.6805C75.8646 66.6805 76.4149 66.5827 76.8675 66.3592C77.3201 66.1651 77.707 65.8424 78.0311 65.489C78.3448 65.1113 78.576 64.6721 78.7099 64.1997C78.8719 63.7164 78.9362 63.1689 78.9362 62.5892C78.9362 62.0095 78.8719 61.4941 78.7099 60.9786ZM77.1902 62.5892C77.1902 63.4594 77.0295 64.1355 76.7055 64.6188C76.3828 65.1021 75.8967 65.3284 75.2514 65.3284C74.5725 65.3284 74.1199 65.1021 73.7959 64.6188C73.4732 64.1355 73.3112 63.4594 73.3112 62.5892C73.3112 61.7204 73.4732 61.0429 73.7959 60.5596C74.1185 60.0763 74.5725 59.8514 75.25 59.8514C75.9302 59.8514 76.4149 60.0777 76.7055 60.5596C77.0295 61.0429 77.1902 61.719 77.1902 62.5892Z" fill="#00A1E1"/>
<path fill-rule="evenodd" clip-rule="evenodd" d="M91.093 65.1356C91.0287 64.9735 90.8988 65.0378 90.8988 65.0378C90.6725 65.1356 90.4462 65.1984 90.1864 65.2305C89.9294 65.2627 89.6696 65.2962 89.3483 65.2962C88.6038 65.2962 88.0535 65.0699 87.633 64.6509C87.214 64.2318 86.9877 63.5236 86.9877 62.5891C86.9877 61.751 87.1805 61.1085 87.5688 60.6238C87.925 60.1419 88.506 59.8835 89.2505 59.8835C89.8651 59.8835 90.3498 59.9477 90.8345 60.1098C90.8345 60.1098 90.9631 60.174 90.9966 60.012C91.1251 59.6586 91.2229 59.4002 91.3514 58.9811C91.3835 58.8526 91.2871 58.8205 91.2536 58.8205C90.9251 58.7152 90.5907 58.6294 90.2521 58.5635C89.9294 58.4992 89.5411 58.4992 89.1206 58.4992C88.4739 58.4992 87.925 58.5956 87.4403 58.8205C86.977 59.0265 86.5593 59.3223 86.2111 59.6907C85.8775 60.0644 85.6245 60.5028 85.4679 60.9786C85.2959 61.4981 85.2086 62.0419 85.2095 62.5891C85.2095 63.8463 85.5322 64.845 86.2111 65.5853C86.8899 66.3256 87.8928 66.7126 89.1863 66.7126C89.9615 66.7126 90.7368 66.5519 91.3192 66.3256C91.3192 66.3256 91.417 66.2614 91.3835 66.1329L91.093 65.1342V65.1356ZM98.7881 60.6881C98.6546 60.2516 98.4346 59.8464 98.1413 59.4966C97.8187 59.1418 97.4946 58.8848 97.1719 58.7562C96.7136 58.5549 96.217 58.4557 95.7165 58.4657C95.0697 58.4657 94.4872 58.5635 94.0361 58.787C93.5783 58.9855 93.1778 59.2958 92.8711 59.6893C92.5454 60.071 92.3134 60.5235 92.1937 61.0107C92.035 61.5326 91.9586 62.0759 91.9674 62.6213C91.9674 63.2009 92.0316 63.7485 92.1937 64.2318C92.3543 64.7151 92.5806 65.1663 92.9368 65.5197C93.2594 65.8745 93.712 66.165 94.2302 66.3578C94.7471 66.5505 95.3617 66.6483 96.0726 66.6483C97.5603 66.6483 98.3355 66.3256 98.626 66.1315C98.6917 66.1008 98.7238 66.0351 98.6582 65.8745L98.3355 64.94C98.2712 64.8115 98.1413 64.8436 98.1413 64.8436C97.7851 64.9721 97.2683 65.2305 96.0405 65.2305C95.2639 65.2305 94.6507 65.0042 94.2945 64.6187C93.9062 64.2318 93.7441 63.6843 93.712 62.9425H98.8202C98.8202 62.9425 98.9501 62.9425 98.9822 62.814C98.9501 62.8462 99.1121 61.8488 98.7881 60.6881ZM93.712 61.751C93.7777 61.2677 93.9076 60.8822 94.1324 60.5596C94.4565 60.0762 94.9091 59.8192 95.5879 59.8192C96.2668 59.8192 96.6872 60.0762 97.0099 60.5596C97.2041 60.8808 97.3004 61.2999 97.334 61.751H93.7106H93.712ZM57.9561 60.6881C57.8226 60.2516 57.6026 59.8464 57.3093 59.4966C56.9853 59.1418 56.6626 58.8848 56.3385 58.7562C55.8807 58.5551 55.3845 58.4559 54.8844 58.4657C54.2377 58.4657 53.6552 58.5635 53.2027 58.787C52.7454 58.9857 52.3454 59.2959 52.0391 59.6893C51.7129 60.0709 51.4804 60.5234 51.3603 61.0107C51.2016 61.5326 51.1253 62.0759 51.134 62.6213C51.134 63.2009 51.1982 63.7485 51.3603 64.2318C51.5223 64.7151 51.7486 65.1663 52.1034 65.5197C52.4274 65.8745 52.88 66.165 53.3968 66.3578C53.9137 66.5505 54.5283 66.6483 55.2406 66.6483C56.7269 66.6483 57.5035 66.3256 57.794 66.1315C57.8583 66.1008 57.8918 66.0351 57.8262 65.8745L57.5035 64.94C57.4378 64.8115 57.3079 64.8436 57.3079 64.8436C56.9531 64.9721 56.4363 65.2305 55.2071 65.2305C54.4319 65.2305 53.8173 65.0042 53.4611 64.6187C53.0742 64.2318 52.9121 63.6843 52.88 62.9425H57.9882C57.9882 62.9425 58.1167 62.9425 58.1488 62.814C58.1167 62.8462 58.2787 61.8488 57.9561 60.6881ZM52.88 61.751C52.9443 61.2677 53.0742 60.8822 53.2991 60.5596C53.6231 60.0762 54.0757 59.8192 54.7545 59.8192C55.4334 59.8192 55.8538 60.0762 56.1779 60.5596C56.3721 60.8808 56.4684 61.2999 56.5006 61.751H52.8814H52.88Z" fill="#00A1E1"/>
<path d="M43.8928 61.5262C43.6986 61.5262 43.4081 61.4941 43.084 61.4941C42.6328 61.4941 42.2124 61.5583 41.8241 61.6547C41.4416 61.7487 41.0798 61.9126 40.7569 62.138C40.4518 62.3607 40.1984 62.6466 40.0138 62.9761C39.8182 63.2974 39.7554 63.7164 39.7554 64.1355C39.7554 64.5866 39.8196 64.9736 39.9817 65.2948C40.1423 65.6161 40.3686 65.8745 40.6605 66.1008C40.9771 66.3085 41.3266 66.461 41.6942 66.552C42.0825 66.6484 42.5351 66.6805 43.0519 66.6805C43.5687 66.6805 44.0869 66.6484 44.6038 66.552C45.0898 66.4542 45.7031 66.3578 45.8972 66.2936C46.0592 66.2614 46.2534 66.1958 46.2534 66.1958C46.3819 66.1651 46.3819 66.0365 46.3819 66.0365V61.3977C46.3819 60.3668 46.1235 59.6251 45.5745 59.1418C45.0242 58.692 44.2476 58.4336 43.246 58.4336C42.8591 58.4336 42.2445 58.4979 41.8883 58.5621C41.8883 58.5621 40.789 58.7884 40.3043 59.1418C40.3043 59.1418 40.2065 59.2075 40.2722 59.336L40.6284 60.3026C40.6605 60.4311 40.789 60.399 40.789 60.399C40.789 60.399 40.8211 60.399 40.8868 60.3668C41.8562 59.85 43.1175 59.85 43.1175 59.85C43.6665 59.85 44.0869 59.9478 44.3775 60.1727C44.6694 60.399 44.7979 60.7202 44.7979 61.3977V61.6226C44.2811 61.5583 43.8928 61.5262 43.8928 61.5262ZM41.8562 65.1021C41.662 64.94 41.6299 64.9079 41.5657 64.8115C41.4516 64.605 41.3956 64.3713 41.4036 64.1355C41.4036 63.6843 41.5657 63.363 41.8562 63.1367C41.8562 63.1367 42.3088 62.7498 43.3438 62.7819C44.0869 62.7819 44.7337 62.9118 44.7337 62.9118V65.2306C44.7337 65.2306 44.0869 65.3591 43.3438 65.4233C42.3088 65.4555 41.8562 65.1021 41.8562 65.1021Z" fill="#00A1E1"/>
<path fill-rule="evenodd" clip-rule="evenodd" d="M85.0152 58.9169C85.0473 58.7884 84.9831 58.7562 84.951 58.7241C84.677 58.647 84.3946 58.6033 84.1101 58.5942C83.4633 58.5621 83.1086 58.6585 82.7845 58.8205C82.4444 58.9591 82.1443 59.1804 81.9115 59.4644V58.8526C81.9115 58.7548 81.8472 58.6906 81.7508 58.6906H80.4574C80.3596 58.6906 80.2953 58.7562 80.2953 58.8526V66.4234C80.2953 66.5198 80.3596 66.584 80.4574 66.584H81.783C81.8807 66.584 81.9436 66.5184 81.9436 66.422V62.5891C81.9436 62.0737 82.0093 61.5583 82.1056 61.2691C82.2034 60.9465 82.364 60.688 82.5582 60.5274C82.7524 60.3346 82.9465 60.2061 83.1728 60.1405C83.394 60.0791 83.6222 60.0467 83.8517 60.0441C84.1101 60.0441 84.4006 60.1084 84.4006 60.1084C84.4984 60.1084 84.5626 60.0441 84.5962 59.9799C84.7247 59.7228 84.9831 59.0454 85.0152 58.9169ZM72.4368 55.3731C72.2698 55.3115 72.0964 55.2684 71.92 55.2446C71.6959 55.2041 71.4688 55.1826 71.2411 55.1804C70.3039 55.1804 69.5929 55.4374 69.076 55.9528C68.5592 56.4696 68.2352 57.2421 68.041 58.2715L67.9753 58.6277H66.8118C66.8118 58.6277 66.6833 58.6277 66.6512 58.7884L66.4556 59.8499C66.4556 59.9477 66.4891 60.012 66.6176 60.012H67.7491L66.6176 66.3578C66.5212 66.8746 66.4249 67.2936 66.3271 67.6149C66.2293 67.9362 66.1008 68.1625 65.9709 68.3231C65.8424 68.4837 65.7125 68.6136 65.5183 68.6779C65.3577 68.7421 65.1314 68.7743 64.9037 68.7743C64.7752 68.7743 64.6146 68.7421 64.4847 68.7421C64.3548 68.71 64.2905 68.6779 64.1941 68.6444C64.1941 68.6444 64.0642 68.5815 63.9986 68.7421C63.9679 68.8385 63.6438 69.6766 63.6117 69.773C63.5795 69.8694 63.6117 69.9658 63.6759 69.9658C63.8379 70.03 63.9343 70.0635 64.1285 70.0943C64.4204 70.1599 64.6453 70.1599 64.873 70.1599C65.3577 70.1599 65.7781 70.0943 66.1329 69.9658C66.4942 69.8319 66.8167 69.6107 67.0716 69.3218C67.3609 68.9937 67.5805 68.6102 67.7169 68.1946C67.9109 67.6379 68.0622 67.0673 68.1695 66.4877L69.3345 60.012H71.0148C71.0148 60.012 71.1447 60.012 71.1769 59.8513L71.371 58.7884C71.371 58.6906 71.3389 58.6277 71.209 58.6277H69.5929C69.5929 58.5956 69.6906 58.0145 69.8513 57.4684C69.9231 57.2589 70.0454 57.0703 70.2075 56.9194C70.3182 56.7936 70.4642 56.7041 70.6265 56.6624C70.7886 56.5981 70.9827 56.5981 71.1769 56.5981C71.3389 56.5981 71.4674 56.6303 71.5959 56.6303C71.7579 56.6624 71.8236 56.6945 71.8557 56.6945C72.0178 56.7588 72.0499 56.6945 72.082 56.6303L72.4703 55.5673C72.5681 55.4388 72.4703 55.4052 72.4382 55.3731H72.4368ZM49.6476 66.3899C49.6476 66.4877 49.5833 66.5505 49.4856 66.5505H48.1279C48.0301 66.5505 47.9658 66.4863 47.9658 66.3899V55.5338C47.9658 55.4374 48.0315 55.3731 48.1279 55.3731H49.4856C49.5833 55.3731 49.6476 55.4374 49.6476 55.5338V66.3899Z" fill="#00A1E1"/>
</svg>
