<svg version="1.0" xmlns="http://www.w3.org/2000/svg"
  style="enable-background:new 0 0 1190.55 841.89" xml:space="preserve"
  viewBox="111.14 300.79 967.87 239.5" fill="#ffffff">
  <path d="M973.67 500.34c-4.57 0-8.56-.48-11.96-1.44v-16.93c3.48.87 6.66 1.31 9.54 1.31 4.44 0 7.62-1.4 9.54-4.2 1.92-2.75 2.87-7.08 2.87-12.99v-89.9h20.26v89.76c0 11.2-2.55 19.73-7.64 25.59-5.1 5.87-12.63 8.8-22.61 8.8zm-466.22-26.9c-11.76 0-20.95-3.26-27.57-9.78-6.62-6.52-9.93-15.75-9.93-27.69 0-12.29 3.05-21.78 9.15-28.47 6.14-6.74 14.61-10.1 25.42-10.1 10.32 0 18.36 2.95 24.11 8.86 5.75 5.9 8.63 14.06 8.63 24.47v9.71h-47.11c.22 5.69 1.89 10.12 5.03 13.32 3.14 3.19 7.54 4.79 13.2 4.79 4.4 0 8.56-.46 12.48-1.38 3.92-.92 8.01-2.38 12.28-4.4v15.49c-3.48 1.75-7.21 3.04-11.17 3.87-3.98.87-8.81 1.31-14.52 1.31zm301.16-38.12c0 11.94-3.14 21.28-9.41 28.02-6.28 6.74-15.01 10.1-26.2 10.1-7.01 0-13.2-1.53-18.56-4.6-5.36-3.1-9.47-7.55-12.35-13.32-2.87-5.78-4.31-12.51-4.31-20.21 0-11.99 3.11-21.3 9.34-27.95 6.23-6.65 14.98-9.97 26.26-9.97 7.02 0 13.2 1.53 18.56 4.59 5.36 3.06 9.48 7.46 12.35 13.19 2.89 5.73 4.32 12.45 4.32 20.15zm77.5 0c0 11.94-3.14 21.28-9.41 28.02s-15.01 10.1-26.2 10.1c-7.01 0-13.2-1.53-18.56-4.6-5.36-3.1-9.47-7.55-12.35-13.32-2.88-5.78-4.31-12.51-4.31-20.21 0-11.99 3.11-21.3 9.34-27.95 6.23-6.65 14.99-9.97 26.27-9.97 7.01 0 13.2 1.53 18.56 4.59 5.35 3.06 9.47 7.46 12.35 13.19 2.87 5.73 4.31 12.45 4.31 20.15zM1079 445.49c0 8.66-3.11 15.49-9.34 20.47-6.19 4.99-14.81 7.48-25.88 7.48-10.19 0-19.21-1.92-27.05-5.78v-18.9c6.45 2.89 11.89 4.92 16.34 6.1 4.48 1.18 8.58 1.77 12.28 1.77 4.44 0 7.84-.85 10.19-2.56 2.4-1.71 3.59-4.24 3.59-7.61.03-1.79-.52-3.54-1.57-4.99-1.05-1.49-2.59-2.91-4.64-4.27-2-1.36-6.12-3.52-12.35-6.5-5.83-2.75-10.21-5.4-13.13-7.94-2.87-2.48-5.25-5.49-6.99-8.86-1.74-3.37-2.61-7.31-2.61-11.81 0-8.49 2.85-15.16 8.56-20.01 5.75-4.86 13.68-7.29 23.78-7.29 4.97 0 9.69.59 14.18 1.77 4.53 1.18 9.25 2.84 14.18 4.99l-6.54 15.82c-5.09-2.1-9.32-3.57-12.68-4.4-3.2-.82-6.49-1.24-9.8-1.25-3.83 0-6.78.9-8.82 2.69-2.05 1.79-3.07 4.13-3.07 7.02 0 1.8.41 3.37 1.24 4.73.82 1.31 2.13 2.6 3.92 3.87 1.83 1.22 6.12 3.45 12.87 6.69 8.93 4.29 15.05 8.6 18.36 12.93 3.32 4.31 4.98 9.58 4.98 15.84zm-155.87 27.95c-8.58 0-15.33-3.35-20.26-10.04-4.88-6.69-7.32-15.97-7.32-27.82 0-12.03 2.48-21.39 7.45-28.08 5.01-6.74 11.89-10.1 20.65-10.1 9.19 0 16.21 3.59 21.04 10.76h.65c-1-5.47-1.5-10.34-1.5-14.63v-23.49h19.99v102.1h-15.29l-3.86-9.52h-.85c-4.52 7.21-11.43 10.82-20.7 10.82zm-350.65 0c-8.58 0-15.33-3.35-20.25-10.04-4.88-6.69-7.32-15.97-7.32-27.82 0-12.03 2.49-21.39 7.45-28.08 5.01-6.74 11.89-10.1 20.65-10.1 9.19 0 16.21 3.59 21.04 10.76h.65c-1-5.47-1.51-10.34-1.51-14.63v-23.49h20v102.1H597.9l-3.85-9.52h-.85c-4.54 7.21-11.44 10.82-20.72 10.82zm-161.5-38.12v36.81h-20.26V376.2h27.83c12.98 0 22.59 2.38 28.82 7.15 6.23 4.72 9.34 11.92 9.34 21.59 0 5.64-1.54 10.67-4.64 15.09-3.09 4.37-7.47 7.81-13.13 10.3 14.37 21.56 23.74 35.5 28.1 41.8h-22.48l-22.8-36.81h-10.78zm279.26 36.81-5.62-25.66-7.58-32.41h-.46l-13.33 58.07h-21.43l-20.78-73.36h19.86l8.43 32.48c1.35 5.82 2.72 13.84 4.12 24.08h.39c.17-3.33.94-8.59 2.29-15.82l1.05-5.57 9.02-35.17h21.95l8.56 35.17.79 4.26c.82 4.06 1.5 8.16 2.02 12.27.31 2.01.48 3.63.52 4.85h.39c.39-3.15 1.09-7.46 2.09-12.93 1-5.51 1.72-9.23 2.16-11.15l8.76-32.48h19.54l-21.04 73.36h-21.7v.01zm239.88-14.64c5.09 0 8.82-1.49 11.17-4.46 2.4-2.97 3.7-8.03 3.92-15.16v-2.17c0-7.87-1.22-13.52-3.66-16.93-2.4-3.41-6.31-5.12-11.76-5.12-4.44 0-7.91 1.9-10.39 5.71-2.44 3.76-3.66 9.25-3.66 16.47 0 7.22 1.24 12.64 3.72 16.28 2.49 3.59 6.04 5.38 10.66 5.38zm-350.65 0c5.1 0 8.82-1.49 11.17-4.46 2.4-2.97 3.71-8.03 3.92-15.16v-2.17c0-7.87-1.22-13.52-3.66-16.93-2.4-3.41-6.32-5.12-11.76-5.12-4.44 0-7.91 1.9-10.39 5.71-2.44 3.76-3.66 9.25-3.66 16.47 0 7.22 1.24 12.64 3.72 16.28 2.5 3.59 6.05 5.38 10.66 5.38zm178.63-22.17c0 7.26 1.18 12.75 3.53 16.47 2.39 3.72 6.27 5.57 11.63 5.57 5.31 0 9.13-1.84 11.43-5.51 2.35-3.72 3.53-9.23 3.53-16.54 0-7.26-1.17-12.71-3.53-16.34-2.35-3.63-6.21-5.45-11.56-5.45-5.32 0-9.15 1.82-11.5 5.45-2.35 3.6-3.53 9.04-3.53 16.35zm77.5 0c0 7.26 1.18 12.75 3.53 16.47 2.4 3.72 6.27 5.57 11.63 5.57 5.31 0 9.13-1.84 11.43-5.51 2.35-3.72 3.53-9.23 3.53-16.54 0-7.26-1.18-12.71-3.53-16.34-2.35-3.63-6.21-5.45-11.56-5.45-5.32 0-9.15 1.82-11.5 5.45-2.35 3.6-3.53 9.04-3.53 16.35zm-330.95-23.69c-4.23 0-7.54 1.36-9.93 4.07-2.4 2.67-3.77 6.47-4.12 11.42h27.96c-.09-4.94-1.37-8.75-3.85-11.42-2.49-2.71-5.84-4.07-10.06-4.07zm-93.67 7.15h6.53c6.4 0 11.13-1.07 14.18-3.22 3.05-2.14 4.57-5.51 4.57-10.1 0-4.55-1.57-7.79-4.7-9.71-3.09-1.92-7.91-2.89-14.44-2.89h-6.14v25.92z">
  </path><path d="m170.89 335.41 46.5 31.74c1.05.7 2.27 1.08 3.53 1.1 1.26-.01 2.49-.39 3.53-1.1L271 335.3c1.81-1.3 2.81-3.46 2.62-5.68-.18-2.22-1.51-4.19-3.51-5.17l-46.5-23.02c-1.76-.86-3.82-.86-5.58 0l-46.36 23.02c-2.03.99-3.38 3-3.54 5.25-.16 2.27.89 4.44 2.76 5.71zm65.83 41.7c0 2.11 1.03 4.07 2.76 5.27l37.28 25.48c2.38 1.65 5.59 1.44 7.74-.5l31.27-27.97c1.39-1.24 2.17-3.05 2.11-4.92-.05-1.87-.93-3.63-2.39-4.79l-29.86-23.88c-2.17-1.73-5.2-1.84-7.49-.29l-38.66 26.44c-1.69 1.18-2.72 3.1-2.76 5.16zm-92.71 34.67c1.51 1.35 2.28 3.35 2.08 5.37-.19 2.03-1.37 3.84-3.14 4.84l-22.26 13.34c-2.25 1.35-5.11 1.16-7.16-.49-2.06-1.65-2.89-4.39-2.1-6.91l8.23-25.91c.65-2.05 2.28-3.64 4.35-4.2 2.06-.6 4.29-.07 5.87 1.39-.01 0 14.13 12.57 14.13 12.57zm120.74 2.7-40.25-27.54c-2.14-1.44-4.93-1.44-7.07 0l-40.25 27.54c-1.6 1.11-2.62 2.89-2.76 4.84-.1 1.97.67 3.87 2.12 5.2l40.21 35.98c2.4 2.13 6.01 2.13 8.41 0l40.21-35.98c1.45-1.32 2.22-3.24 2.09-5.2-.1-1.95-1.11-3.74-2.71-4.84zm-107.35-7.12-31.24-27.97c-1.41-1.28-2.18-3.12-2.12-5.02.03-1.87.9-3.63 2.37-4.8l29.86-24.02c2.18-1.72 5.22-1.83 7.53-.28l38.62 26.44c1.79 1.18 2.87 3.18 2.87 5.34 0 2.15-1.08 4.16-2.87 5.33l-37.24 25.48c-2.41 1.64-5.61 1.43-7.78-.5zm160.39 40.18-31.8-19.04c-2.36-1.43-5.37-1.14-7.42.71l-38.87 34.7c-2.63 2.36-2.85 6.4-.49 9.03.64.72 1.44 1.28 2.33 1.65l53.92 21.85c.74.31 1.53.46 2.33.46 2.51 0 4.78-1.48 5.8-3.77l16.71-37.43c1.35-2.97.27-6.48-2.51-8.16zm4.41-45.52 8.23 25.91h-.07c.61 1.94.26 4.05-.93 5.69-1.92 2.64-5.53 3.38-8.33 1.71l-22.3-13.34c-1.74-1.02-2.87-2.83-3.04-4.84-.21-2.02.56-4.02 2.08-5.37l14.13-12.6c1.6-1.43 3.8-1.96 5.87-1.39 2.08.59 3.71 2.18 4.36 4.23zm-117.95 67.72c.38-2.16-.38-4.37-2.01-5.84l-38.87-34.7c-2.05-1.85-5.06-2.13-7.42-.71l-31.8 19.04c-2.76 1.69-3.84 5.15-2.54 8.11l16.75 37.43c1.37 3.12 4.97 4.58 8.13 3.31l53.88-21.85c2.03-.8 3.5-2.62 3.88-4.79zm19.08 10.68 43.25 17.51c2.11.91 3.57 2.9 3.81 5.2.28 2.33-.76 4.61-2.68 5.94l-43.29 30.07c-1.04.73-2.27 1.13-3.53 1.14-1.26-.02-2.49-.42-3.53-1.14l-43.25-30.07c-1.94-1.33-2.98-3.61-2.72-5.94.29-2.32 1.8-4.31 3.96-5.2l43.25-17.51c1.52-.61 3.21-.61 4.73 0z"></path>
  </svg>