<svg width="32" height="32" viewBox="0 0 32 32" fill="none" xmlns="http://www.w3.org/2000/svg">
<path d="M1.34775 22.479C0.892609 22.479 0.470701 22.1891 0.325848 21.7347C-0.435622 19.3499 0.129542 17.3541 2.10525 15.4537L10.1506 7.80627C11.379 6.62332 13.1117 6.3201 14.6735 7.01554C16.2288 7.70861 17.155 9.18769 17.094 10.8794V11.7017C17.094 12.2916 16.6135 12.7688 16.0215 12.7688C15.4294 12.7688 14.9489 12.2908 14.9489 11.7017V10.8589C14.9489 10.844 14.9489 10.8298 14.9497 10.8156C14.9837 9.9926 14.5531 9.30032 13.7972 8.96402C13.0413 8.62772 12.2355 8.7687 11.6418 9.34206C11.6402 9.34363 11.6379 9.346 11.6363 9.34757L3.59336 16.9926C2.22082 18.3134 1.86542 19.5019 2.37201 21.0881C2.55169 21.6496 2.23902 22.2498 1.67465 22.4286C1.56621 22.4624 1.45697 22.479 1.34931 22.479H1.34775Z" fill="#EC9923"/>
<path d="M19.0798 25.3521C18.5114 25.3521 17.9336 25.2308 17.3779 24.9835C15.8226 24.2904 14.8965 22.8113 14.9574 21.1196V20.3029C14.9574 19.713 15.4379 19.2357 16.03 19.2357C16.622 19.2357 17.1025 19.7138 17.1025 20.3029V21.1401C17.1025 21.155 17.1025 21.1692 17.1017 21.1842C17.0677 22.0072 17.4983 22.6995 18.2542 23.0358C19.0101 23.3721 19.8159 23.2311 20.4096 22.6577L28.3963 15.0095C29.7942 13.6643 30.1512 12.4814 29.6264 10.9283C29.438 10.3691 29.7396 9.76421 30.3016 9.57598C30.8636 9.38854 31.4715 9.6886 31.6607 10.2478C32.4483 12.579 31.868 14.6394 29.8868 16.5461L21.9017 24.1927C21.1117 24.9551 20.1104 25.3529 19.0798 25.3529V25.3521Z" fill="#EC9923"/>
<path d="M5.54503 25.3324C4.91021 25.3324 4.27698 25.2182 3.67461 24.9827C3.61604 24.9598 3.55746 24.9362 3.49968 24.911C2.9551 24.6779 2.70417 24.0502 2.93847 23.5083C3.17276 22.9665 3.80363 22.7168 4.34822 22.9499C4.38463 22.9657 4.42103 22.9806 4.45744 22.9948C5.54107 23.417 6.81468 23.1665 7.78353 22.3419C7.82944 22.3002 7.98063 22.1592 8.00121 22.1395L22.4359 8.46075C22.4359 8.46075 22.7462 8.16934 22.8135 8.11343C23.795 7.2904 24.9095 6.79737 26.0366 6.6879C26.2757 6.66427 26.5179 6.65718 26.7562 6.66585C27.2889 6.68396 27.873 6.74067 28.5079 7.03286C29.0453 7.28095 29.2796 7.91495 29.0303 8.45051C28.7809 8.98528 28.1438 9.21841 27.6055 8.97032C27.3316 8.8443 27.0593 8.81201 26.6802 8.79941C26.5345 8.7939 26.3897 8.79862 26.2456 8.8128C25.5554 8.87974 24.8509 9.1995 24.2066 9.73742C24.1551 9.78389 23.9485 9.97606 23.9153 10.0068L9.48062 23.6863C9.48062 23.6863 9.24394 23.9084 9.1917 23.9533C8.13656 24.8575 6.83763 25.3324 5.54503 25.3332V25.3324Z" fill="#EC9923"/>
</svg>
