<svg width="192" height="192" viewBox="0 0 192 192" fill="none" xmlns="http://www.w3.org/2000/svg">
<path d="M21.4072 129.294C19.0746 129.294 16.9123 127.809 16.17 125.48C12.2674 113.258 15.1639 103.03 25.2893 93.2901L66.5214 54.0971C72.8173 48.0345 81.6973 46.4805 89.7012 50.0446C97.6725 53.5966 102.419 61.1769 102.106 69.847V74.0609C102.106 77.0842 99.6441 79.5302 96.6097 79.5302C93.5753 79.5302 91.1129 77.0801 91.1129 74.0609V69.742C91.1129 69.6653 91.1129 69.5927 91.1169 69.52C91.2914 65.302 89.0845 61.7541 85.2104 60.0306C81.3363 58.307 77.2066 59.0296 74.1641 61.968C74.156 61.9761 74.1439 61.9882 74.1358 61.9963L32.9159 101.177C25.8816 107.946 24.0602 114.037 26.6565 122.166C27.5774 125.044 25.9749 128.12 23.0825 129.036C22.5268 129.21 21.9669 129.294 21.4152 129.294H21.4072Z" fill="#FAFAF9"/>
<path d="M112.284 144.019C109.371 144.019 106.41 143.397 103.562 142.13C95.591 138.578 90.8447 130.998 91.1571 122.327V118.142C91.1571 115.119 93.6195 112.673 96.6539 112.673C99.6883 112.673 102.151 115.123 102.151 118.142V122.432C102.151 122.509 102.151 122.582 102.147 122.658C101.972 126.876 104.179 130.424 108.053 132.148C111.927 133.871 116.057 133.149 119.099 130.21L160.031 91.0135C167.195 84.1194 169.025 78.0568 166.335 70.0971C165.37 67.2313 166.915 64.1314 169.796 63.1667C172.676 62.206 175.791 63.7439 176.761 66.6097C180.797 78.5573 177.824 89.1164 167.67 98.8884L126.746 138.077C122.698 141.985 117.566 144.023 112.284 144.023V144.019Z" fill="#FAFAF9"/>
<path d="M42.9197 143.918C39.6662 143.918 36.4209 143.332 33.3338 142.126C33.0336 142.008 32.7334 141.887 32.4373 141.758C29.6463 140.563 28.3603 137.346 29.5611 134.569C30.7619 131.792 33.9951 130.513 36.786 131.708C36.9727 131.788 37.1592 131.865 37.3458 131.938C42.8994 134.101 49.4266 132.818 54.392 128.592C54.6272 128.378 55.4021 127.655 55.5075 127.554L129.485 57.451C129.485 57.451 131.075 55.9575 131.42 55.6709C136.45 51.4529 142.162 48.9262 147.939 48.3651C149.164 48.244 150.405 48.2077 151.626 48.2521C154.356 48.345 157.35 48.6356 160.604 50.1331C163.358 51.4045 164.559 54.6538 163.281 57.3985C162.003 60.1392 158.738 61.3339 155.979 60.0625C154.576 59.4167 153.18 59.2512 151.237 59.1866C150.49 59.1583 149.748 59.1826 149.01 59.2552C145.472 59.5983 141.862 61.2371 138.56 63.9939C138.296 64.232 137.237 65.2169 137.067 65.3743L63.0895 135.482C63.0895 135.482 61.8765 136.62 61.6088 136.85C56.2012 141.484 49.5442 143.918 42.9197 143.922V143.918Z" fill="#FAFAF9"/>
</svg>
