<svg viewBox="0 0 20 20" xmlns="http://www.w3.org/2000/svg" xmlns:xlink="http://www.w3.org/1999/xlink"><defs><filter x="-5.6%" y="-5.7%" width="111.2%" height="122.8%" filterUnits="objectBoundingBox" id="a"><feOffset dy="1" in="SourceAlpha" result="shadowOffsetOuter1"/><feColorMatrix values="0 0 0 0 0 0 0 0 0 0 0 0 0 0 0 0 0 0 0.127185315 0" in="shadowOffsetOuter1"/></filter><path d="M7.3954 5.9086 10.075 8.588l2.6801-2.6794c.3781-.3781.9912-.3781 1.3693 0s.3781.9912 0 1.3693L11.444 9.957l2.7979 2.7981c.378.3781.378.9912 0 1.3693-.3782.3781-.9912.3781-1.3693 0L10.075 11.326l-2.7971 2.7984c-.3781.3781-.9912.3781-1.3693 0s-.3781-.9912 0-1.3693L8.706 9.957l-2.68-2.6791c-.378-.3781-.378-.9912 0-1.3693.3782-.3781.9912-.3781 1.3694 0Z" id="b"/></defs><g fill="none" fill-rule="evenodd"><circle fill="#EF4444" cx="10" cy="10" r="10"/><use fill="#000" filter="url(#a)" xlink:href="#b"/><use fill="#FFF" xlink:href="#b"/></g></svg>
