<svg viewBox="0 0 20 20" xmlns="http://www.w3.org/2000/svg"
     xmlns:xlink="http://www.w3.org/1999/xlink"><defs><filter x="-24.8%" y="-12.5%" width="149.8%" height="145%" filterUnits="objectBoundingBox" id="a"><feMorphology radius=".25" operator="dilate" in="SourceAlpha" result="shadowSpreadOuter1"/><feOffset dy="1" in="shadowSpreadOuter1" result="shadowOffsetOuter1"/><feGaussianBlur stdDeviation=".5" in="shadowOffsetOuter1" result="shadowBlurOuter1"/><feComposite in="shadowBlurOuter1" in2="SourceAlpha" operator="out" result="shadowBlurOuter1"/><feColorMatrix values="0 0 0 0 0 0 0 0 0 0 0 0 0 0 0 0 0 0 0.185669799 0" in="shadowBlurOuter1"/></filter><path d="M10.9452 13.3965c-1.2577.3252-2.5998-.0216-3.5207-.9096l-.2068-.1988h1.6125c.2745 0 .497-.2147.497-.4795s-.2225-.4795-.497-.4795h-2.812c-.2746 0-.4971.2147-.4971.4795v2.712c0 .2647.2225.4794.497.4794.2745 0 .497-.2147.497-.4795V12.967l.2055.1982c1.172 1.1308 2.8804 1.5725 4.4816 1.1587 1.6011-.4139 2.8517-1.6203 3.2806-3.1648.0714-.2558-.0858-.519-.351-.5879-.2651-.0688-.538.0827-.6093.3385-.3371 1.214-1.3195 2.1616-2.5773 2.4868Zm3.5376-5.205v-2.712c0-.2648-.2226-.4795-.497-.4795-.2746 0-.4971.2147-.4971.4795v1.5541l-.2055-.1982c-1.172-1.1307-2.8804-1.5724-4.4815-1.1586-1.6011.4138-2.8518 1.6202-3.2806 3.1648-.0522.1673-.0059.3487.1208.4735.1267.1248.3138.1733.4882.1265.1745-.0467.3088-.1814.3506-.3513C6.8174 7.8763 7.8 6.928 9.0582 6.6027c1.2583-.3254 2.6009.0217 3.5218.9104l.2061.1982h-1.6118c-.2745 0-.497.2147-.497.4795s.2225.4794.497.4794h2.812a.5065.5065 0 0 0 .3513-.14.4712.4712 0 0 0 .1452-.3388Z" id="b"/></defs><g fill="none" fill-rule="evenodd"><circle fill="#38BDF8" cx="10" cy="10" r="10"/><g fill-rule="nonzero"><use fill="#000" filter="url(#a)" xlink:href="#b"/><use stroke="#FFF" stroke-width=".5" fill="#FFF" xlink:href="#b"/></g></g></svg>
