<svg width="447" height="341" viewBox="0 0 447 341" fill="none" xmlns="http://www.w3.org/2000/svg">
  <path d="M223.015 111.908L223.015 283.79" stroke="url(#paint0_linear_179_6851)" stroke-width="4" />
  <line x1="285.164" y1="121.619" x2="285.164" y2="276.993" stroke="#4636F5" stroke-width="4" />
  <g filter="url(#filter0_d_179_6851)">
    <rect x="255.061" y="110.938" width="60.2072" height="60.2072" rx="30.1036" fill="#4636F5" />
  </g>
  <path fill-rule="evenodd" clip-rule="evenodd" d="M303.577 142.673H298.596C298.713 143.809 299.584 144.174 300.573 144.174C301.587 144.174 302.403 143.956 303.077 143.615V145.568C302.222 146.036 301.244 146.261 300.258 146.215C297.78 146.215 296.037 144.744 296.037 141.814C296.037 139.349 297.514 137.39 299.931 137.39C302.354 137.39 303.615 139.32 303.615 141.803C303.615 142.038 303.59 142.544 303.577 142.673ZM299.918 139.367C299.282 139.367 298.577 139.797 298.577 140.885H301.204C301.204 139.797 300.543 139.367 299.918 139.367ZM292.025 146.215C291.135 146.215 290.591 145.862 290.232 145.603L290.22 148.327L287.674 148.839V137.549H289.998L290.047 138.149C290.586 137.663 291.301 137.391 292.044 137.39C293.836 137.39 295.517 138.92 295.517 141.744C295.517 144.821 293.848 146.215 292.025 146.215ZM291.438 139.538C290.851 139.538 290.486 139.738 290.22 140.014L290.232 143.615C290.48 143.873 290.838 144.074 291.438 144.074C292.377 144.074 293.008 143.103 293.008 141.797C293.008 140.532 292.365 139.538 291.438 139.538ZM284.169 137.549H286.722V146.044H284.169V137.549ZM284.169 134.784L286.722 134.272V136.249L284.169 136.767V134.79V134.784ZM281.499 140.285V146.044H278.952V137.549H281.239L281.313 138.267C281.931 137.226 283.211 137.438 283.551 137.549V139.779C283.229 139.679 282.135 139.526 281.499 140.285ZM276.214 143.062C276.214 144.491 277.821 144.05 278.142 143.921V145.897C277.802 146.074 277.19 146.215 276.356 146.215C276.008 146.225 275.662 146.167 275.338 146.045C275.015 145.923 274.721 145.74 274.474 145.507C274.227 145.274 274.032 144.995 273.902 144.688C273.772 144.381 273.709 144.052 273.717 143.721L273.723 135.973L276.208 135.467V137.549H278.148V139.626H276.214V143.068V143.062ZM273.179 143.473C273.179 145.221 271.751 146.215 269.637 146.215C268.688 146.214 267.75 146.028 266.88 145.668V143.356C267.733 143.797 268.796 144.126 269.637 144.126C270.206 144.126 270.583 143.985 270.583 143.538C270.583 142.373 266.713 142.809 266.713 140.126C266.713 138.414 268.123 137.39 270.187 137.39C271.028 137.39 271.868 137.508 272.715 137.832V140.114C271.933 139.722 271.065 139.509 270.181 139.491C269.649 139.491 269.291 139.638 269.291 140.02C269.291 141.108 273.179 140.591 273.179 143.479V143.473Z" fill="white" />
  <g filter="url(#filter1_d_179_6851)">
    <rect x="121.05" y="118.706" width="79.6289" height="79.6289" rx="39.8145" fill="#333333" />
  </g>
  <path d="M160.609 178.913C160.06 178.913 159.515 178.77 159.033 178.494L154.017 175.54C153.268 175.124 153.633 174.976 153.88 174.891C154.879 174.543 155.082 174.465 156.148 173.863C156.26 173.799 156.407 173.821 156.522 173.889L160.376 176.163C160.515 176.238 160.712 176.238 160.841 176.163L175.868 167.537C176.007 167.458 176.098 167.297 176.098 167.132V149.887C176.098 149.714 176.007 149.561 175.865 149.475L160.844 140.856C160.705 140.773 160.521 140.773 160.382 140.856L145.364 149.475C145.219 149.557 145.126 149.718 145.126 149.883V167.129C145.126 167.293 145.216 167.45 145.359 167.529L149.474 169.893C151.708 171.004 153.074 169.695 153.074 168.378V151.357C153.074 151.114 153.266 150.927 153.51 150.927H155.413C155.65 150.927 155.846 151.114 155.846 151.357V168.386C155.846 171.349 154.221 173.051 151.396 173.051C150.527 173.051 149.843 173.051 147.932 172.115L143.99 169.856C143.511 169.578 143.113 169.18 142.837 168.701C142.56 168.223 142.414 167.681 142.414 167.129V149.883C142.414 148.761 143.016 147.713 143.99 147.159L159.032 138.529C159.983 137.994 161.247 137.994 162.191 138.529L177.214 147.163C177.694 147.44 178.091 147.838 178.368 148.316C178.644 148.794 178.79 149.335 178.79 149.887V167.132C178.79 168.251 178.185 169.295 177.214 169.856L162.191 178.486C161.71 178.762 161.164 178.907 160.608 178.905" fill="white" />
  <path d="M164.741 166.77C158.13 166.77 156.744 163.772 156.744 161.257C156.744 161.018 156.939 160.827 157.182 160.827H159.133C159.349 160.827 159.53 160.982 159.564 161.193C159.859 163.158 160.737 164.148 164.734 164.148C167.919 164.148 169.272 163.438 169.272 161.769C169.272 160.809 168.887 160.095 163.94 159.617C159.803 159.213 157.246 158.313 157.246 155.043C157.246 152.032 159.818 150.238 164.125 150.238C168.962 150.238 171.36 151.897 171.663 155.462C171.668 155.522 171.66 155.582 171.64 155.639C171.62 155.696 171.589 155.748 171.548 155.792C171.507 155.837 171.456 155.872 171.401 155.896C171.345 155.92 171.285 155.933 171.224 155.933H169.261C169.057 155.933 168.879 155.791 168.838 155.596C168.365 153.53 167.223 152.869 164.118 152.869C160.642 152.869 160.237 154.064 160.237 154.961C160.237 156.049 160.714 156.366 165.404 156.979C170.048 157.588 172.253 158.447 172.253 161.672C172.253 164.923 169.507 166.788 164.719 166.788L164.741 166.77Z" fill="white" />
  <line x1="161" y1="187" x2="161" y2="277" stroke="#333333" stroke-width="4" />
  <g filter="url(#filter2_d_179_6851)">
    <path d="M269.626 72.094C269.626 97.8371 248.758 118.706 223.014 118.706C197.271 118.706 176.402 97.8371 176.402 72.094C176.402 46.3509 197.271 25.4819 223.014 25.4819C248.758 25.4819 269.626 46.3509 269.626 72.094Z" fill="#F5C036" />
  </g>
  <path d="M235.445 87.0231C236.3 87.0265 237.14 86.7945 237.873 86.3525C238.605 85.9105 239.201 85.2755 239.597 84.517C239.992 83.7586 240.172 82.9059 240.115 82.0524C240.058 81.1989 239.768 80.3775 239.275 79.6781C238.783 78.9787 238.107 78.4283 237.323 78.0871C236.538 77.746 235.675 77.6272 234.828 77.7439C233.981 77.8606 233.182 78.2081 232.519 78.7486C231.856 79.289 231.354 80.0014 231.069 80.8079H218.353V82.3617C218.353 83.8982 217.898 85.4003 217.044 86.6779C216.19 87.9555 214.977 88.9513 213.557 89.5393C212.138 90.1273 210.576 90.2812 209.069 89.9814C207.562 89.6816 206.177 88.9417 205.091 87.8552C204.004 86.7687 203.264 85.3844 202.965 83.8773C202.665 82.3703 202.819 80.8082 203.407 79.3886C203.995 77.969 204.99 76.7557 206.268 75.902C207.546 75.0483 209.048 74.5927 210.584 74.5927V71.4851C208.5 71.4853 206.459 72.0846 204.705 73.2117C202.951 74.3388 201.558 75.9462 200.692 77.8426C199.826 79.7389 199.523 81.8442 199.819 83.9078C200.115 85.9715 200.999 87.9065 202.363 89.4824C203.728 91.0583 205.517 92.2087 207.517 92.7967C209.518 93.3847 211.645 93.3855 213.645 92.7989C215.646 92.2123 217.436 91.0631 218.802 89.4882C220.168 87.9132 221.052 85.9789 221.35 83.9155H231.069C231.388 84.8224 231.979 85.6082 232.763 86.1648C233.547 86.7213 234.484 87.0212 235.445 87.0231Z" fill="white" />
  <path d="M235.445 71.4851C234.078 71.4852 232.724 71.7421 231.452 72.2423L226.533 63.635C227.266 62.789 227.675 61.7109 227.688 60.592C227.701 59.4731 227.318 58.3856 226.605 57.5225C225.893 56.6595 224.898 56.0766 223.797 55.8774C222.696 55.6782 221.56 55.8754 220.59 56.4342C219.621 56.9929 218.88 57.877 218.501 58.9297C218.121 59.9823 218.126 61.1354 218.516 62.1844C218.906 63.2334 219.654 64.1105 220.629 64.6601C221.604 65.2096 222.742 65.3961 223.841 65.1865L230.241 76.387L231.59 75.6138C232.924 74.8524 234.452 74.503 235.984 74.6097C237.516 74.7164 238.981 75.2744 240.196 76.2133C241.411 77.1522 242.32 78.43 242.809 79.8852C243.298 81.3404 243.345 82.908 242.944 84.39C242.543 85.872 241.712 87.2019 240.556 88.2121C239.4 89.2222 237.971 89.8672 236.448 90.0656C234.926 90.264 233.379 90.007 232.002 89.3269C230.626 88.6469 229.482 87.5743 228.714 86.2446L226.024 87.8015C226.979 89.455 228.352 90.828 230.006 91.7827C231.659 92.7373 233.535 93.2398 235.444 93.2398C237.354 93.2398 239.229 92.7372 240.883 91.7825C242.536 90.8279 243.909 89.4548 244.864 87.8013C245.819 86.1478 246.321 84.2721 246.322 82.3628C246.322 80.4535 245.819 78.5778 244.864 76.9242C243.91 75.2706 242.537 73.8975 240.883 72.9427C239.23 71.988 237.354 71.4852 235.445 71.4851Z" fill="white" />
  <path d="M211.411 77.7837C210.318 77.5775 209.188 77.7647 208.22 78.3123C207.252 78.8598 206.509 79.7323 206.123 80.7751C205.737 81.8179 205.732 82.9638 206.11 84.0096C206.488 85.0555 207.224 85.9339 208.187 86.4892C209.151 87.0444 210.28 87.2407 211.374 87.0433C212.468 86.8458 213.458 86.2673 214.166 85.4104C214.875 84.5534 215.257 83.4732 215.246 82.3613C215.234 81.2493 214.83 80.1773 214.103 79.3352C216.396 75.323 219.69 69.5595 219.736 69.4776L220.51 68.1286L219.161 67.3563C217.826 66.5934 216.747 65.4514 216.062 64.0748C215.376 62.6983 215.114 61.1493 215.309 59.6238C215.505 58.0984 216.148 56.6653 217.159 55.506C218.169 54.3467 219.501 53.5134 220.986 53.1116C222.47 52.7098 224.04 52.7576 225.498 53.249C226.955 53.7404 228.234 54.6531 229.172 55.8718C230.11 57.0904 230.665 58.56 230.767 60.0945C230.869 61.6289 230.514 63.1592 229.746 64.4915L232.436 66.0484C233.481 64.2394 233.983 62.1678 233.882 60.0811C233.781 57.9945 233.081 55.9812 231.866 54.2817C230.651 52.5822 228.972 51.2686 227.031 50.4977C225.089 49.7268 222.966 49.5313 220.917 49.9346C218.867 50.3379 216.977 51.3229 215.472 52.7719C213.967 54.2208 212.911 56.0725 212.431 58.1056C211.95 60.1386 212.065 62.267 212.762 64.2364C213.459 66.2058 214.708 67.9329 216.36 69.2113C215.65 70.3653 214.648 72.1194 213.138 74.7627L211.411 77.7837Z" fill="white" />
  <rect x="26.8555" y="227.468" width="393.289" height="99.0506" rx="8" fill="black" fill-opacity="0.13" />
  <g filter="url(#filter3_d_179_6851)">
    <rect x="22" y="219.699" width="403" height="99.0506" rx="8" fill="url(#paint1_linear_179_6851)" />
    <rect x="21" y="218.699" width="405" height="101.051" rx="9" stroke="black" stroke-width="2" />
  </g>
  <g filter="url(#filter4_d_179_6851)">
    <path d="M57.4668 285.506C58.3411 285.506 59.0854 285.334 59.6997 284.991C60.3195 284.648 60.7788 284.26 61.0776 283.829L60.0151 282.8C59.7384 283.154 59.387 283.428 58.9609 283.621C58.5348 283.809 58.0755 283.904 57.583 283.904C57.2233 283.904 56.8913 283.843 56.5869 283.721C56.2881 283.599 56.028 283.428 55.8066 283.206C55.5853 282.996 55.411 282.758 55.2837 282.492C55.1564 282.227 55.0623 281.898 55.0015 281.505V281.463H61.2271V280.608C61.2271 279.966 61.1413 279.374 60.9697 278.832C60.7982 278.289 60.5436 277.822 60.2061 277.429C59.8685 277.042 59.4507 276.74 58.9526 276.524C58.4546 276.303 57.8818 276.192 57.2344 276.192C56.6533 276.192 56.1055 276.303 55.5908 276.524C55.0817 276.74 54.6335 277.05 54.2461 277.454C53.8587 277.858 53.5544 278.345 53.333 278.915C53.1117 279.485 53.001 280.121 53.001 280.824V281.164C53.001 281.779 53.1061 282.351 53.3164 282.883C53.5322 283.408 53.8366 283.865 54.2295 284.252C54.6224 284.645 55.0928 284.952 55.6406 285.174C56.194 285.395 56.8027 285.506 57.4668 285.506ZM57.2261 277.802C57.5581 277.802 57.8486 277.861 58.0977 277.977C58.3522 278.087 58.5625 278.237 58.7285 278.425C58.9001 278.619 59.0329 278.846 59.127 279.106C59.221 279.36 59.2681 279.618 59.2681 279.878V280.01H55.043C55.1038 279.667 55.1979 279.36 55.3252 279.089C55.4525 278.818 55.6102 278.586 55.7983 278.392C55.9865 278.204 56.1995 278.06 56.4375 277.96C56.681 277.855 56.9438 277.802 57.2261 277.802ZM66.4077 279.38L64.2827 276.358H62.0996L65.2456 280.782L61.9917 285.34H64.1914L66.4243 282.202L68.6655 285.34H70.857L67.603 280.782L70.7573 276.358H68.5576L66.4077 279.38ZM71.6714 288.793H73.6553V284.526C73.7605 284.642 73.8739 284.75 73.9956 284.85C74.1174 284.949 74.2447 285.038 74.3775 285.115C74.6044 285.243 74.8506 285.34 75.1162 285.406C75.3874 285.472 75.6835 285.506 76.0044 285.506C76.5689 285.506 77.0697 285.389 77.5069 285.157C77.944 284.925 78.312 284.604 78.6109 284.194C78.9097 283.79 79.1338 283.309 79.2832 282.75C79.4382 282.191 79.5157 281.588 79.5157 280.94V280.766C79.5157 280.091 79.4382 279.474 79.2832 278.915C79.1283 278.35 78.9042 277.866 78.6109 277.462C78.312 277.058 77.9413 276.746 77.4986 276.524C77.0614 276.303 76.5551 276.192 75.9795 276.192C75.6862 276.192 75.4095 276.225 75.1495 276.292C74.8894 276.353 74.6514 276.441 74.4356 276.557C74.2696 276.646 74.1146 276.751 73.9707 276.873C73.8269 276.995 73.694 277.13 73.5723 277.28L73.4976 276.358H71.6714V288.793ZM77.5318 280.766V280.94C77.5318 281.339 77.493 281.718 77.4156 282.077C77.3381 282.432 77.2136 282.747 77.042 283.024C76.876 283.295 76.6602 283.511 76.3946 283.671C76.1345 283.826 75.819 283.904 75.4483 283.904C75.2214 283.904 75.0139 283.879 74.8257 283.829C74.6376 283.774 74.4688 283.702 74.3194 283.613C74.1755 283.519 74.0482 283.408 73.9375 283.281C73.8269 283.154 73.7328 283.013 73.6553 282.858V278.865C73.7439 278.699 73.8462 278.55 73.9624 278.417C74.0842 278.284 74.2253 278.173 74.3858 278.085C74.5241 278.002 74.6818 277.938 74.8589 277.894C75.036 277.85 75.2269 277.827 75.4317 277.827C75.8024 277.827 76.1206 277.905 76.3863 278.06C76.6519 278.215 76.8705 278.425 77.042 278.691C77.208 278.956 77.3298 279.269 77.4073 279.629C77.4903 279.983 77.5318 280.362 77.5318 280.766ZM80.4796 280.766V280.94C80.4796 281.599 80.5736 282.205 80.7618 282.758C80.9499 283.311 81.2239 283.793 81.5836 284.202C81.9377 284.612 82.3749 284.933 82.8951 285.165C83.4153 285.398 84.0046 285.514 84.6631 285.514C85.3161 285.514 85.9 285.398 86.4146 285.165C86.9348 284.933 87.372 284.612 87.7261 284.202C88.0803 283.793 88.3515 283.311 88.5396 282.758C88.7278 282.205 88.8218 281.599 88.8218 280.94V280.766C88.8218 280.113 88.7278 279.51 88.5396 278.956C88.3515 278.397 88.0803 277.913 87.7261 277.504C87.3664 277.094 86.9265 276.773 86.4063 276.541C85.8917 276.308 85.3051 276.192 84.6465 276.192C83.988 276.192 83.4014 276.308 82.8868 276.541C82.3721 276.773 81.9377 277.094 81.5836 277.504C81.2239 277.913 80.9499 278.397 80.7618 278.956C80.5736 279.51 80.4796 280.113 80.4796 280.766ZM82.4634 280.94V280.766C82.4634 280.373 82.5049 279.997 82.5879 279.637C82.6765 279.277 82.8121 278.962 82.9947 278.691C83.1718 278.42 83.3959 278.204 83.6671 278.043C83.9437 277.883 84.2702 277.802 84.6465 277.802C85.0284 277.802 85.3549 277.883 85.626 278.043C85.9027 278.204 86.1324 278.42 86.315 278.691C86.4866 278.962 86.6166 279.277 86.7051 279.637C86.7937 279.997 86.8379 280.373 86.8379 280.766V280.94C86.8379 281.344 86.7937 281.726 86.7051 282.086C86.6221 282.445 86.4921 282.761 86.315 283.032C86.1379 283.303 85.911 283.519 85.6343 283.679C85.3576 283.834 85.0339 283.912 84.6631 283.912C84.2813 283.912 83.952 283.834 83.6754 283.679C83.3987 283.519 83.1718 283.303 82.9947 283.032C82.8121 282.761 82.6765 282.445 82.5879 282.086C82.5049 281.726 82.4634 281.344 82.4634 280.94ZM96.2437 276.192C95.6239 276.192 95.0567 276.336 94.5421 276.624C94.033 276.912 93.5958 277.307 93.2305 277.811L93.2222 277.603L93.1392 276.358H91.2799V285.34H93.2637V279.795C93.3689 279.529 93.4989 279.294 93.6539 279.089C93.8088 278.884 93.997 278.716 94.2183 278.583C94.4231 278.444 94.6583 278.342 94.9239 278.276C95.1895 278.209 95.4884 278.176 95.8204 278.176C96.1137 278.176 96.407 278.193 96.7003 278.226C96.9991 278.259 97.3007 278.309 97.6051 278.375L97.8873 276.416C97.7157 276.355 97.4778 276.303 97.1734 276.259C96.8746 276.214 96.5647 276.192 96.2437 276.192ZM103.209 274.167H101.217V276.358H99.0421V277.844H101.217V282.26C101.217 282.836 101.292 283.328 101.441 283.738C101.596 284.147 101.809 284.482 102.08 284.742C102.351 285.008 102.675 285.204 103.051 285.331C103.433 285.453 103.851 285.514 104.305 285.514C104.554 285.514 104.803 285.5 105.052 285.472C105.306 285.45 105.55 285.417 105.782 285.373C106.015 285.329 106.231 285.276 106.43 285.215C106.635 285.149 106.809 285.071 106.953 284.983L106.737 283.613C106.637 283.635 106.513 283.663 106.363 283.696C106.22 283.724 106.065 283.749 105.899 283.771C105.727 283.798 105.55 283.821 105.367 283.837C105.185 283.854 105.008 283.862 104.836 283.862C104.598 283.862 104.379 283.834 104.18 283.779C103.981 283.724 103.81 283.63 103.666 283.497C103.522 283.37 103.408 283.195 103.325 282.974C103.248 282.747 103.209 282.468 103.209 282.135V277.844H106.588V276.358H103.209V274.167ZM117.339 280.782V280.957C117.339 281.604 117.422 282.207 117.588 282.766C117.754 283.32 117.989 283.798 118.294 284.202C118.598 284.612 118.969 284.933 119.406 285.165C119.843 285.392 120.336 285.506 120.883 285.506C121.404 285.506 121.863 285.412 122.261 285.223C122.66 285.03 123.003 284.756 123.291 284.402L123.382 285.34H125.183V272.59H123.199V277.197C122.912 276.876 122.58 276.629 122.203 276.458C121.832 276.281 121.398 276.192 120.9 276.192C120.347 276.192 119.849 276.306 119.406 276.532C118.969 276.754 118.598 277.066 118.294 277.47C117.984 277.874 117.746 278.359 117.58 278.923C117.419 279.482 117.339 280.102 117.339 280.782ZM119.323 280.957V280.782C119.323 280.378 119.362 279.999 119.439 279.645C119.517 279.286 119.641 278.97 119.813 278.699C119.973 278.428 120.183 278.215 120.443 278.06C120.709 277.905 121.027 277.827 121.398 277.827C121.841 277.827 122.206 277.927 122.494 278.126C122.787 278.32 123.022 278.583 123.199 278.915V282.775C123.022 283.112 122.787 283.381 122.494 283.58C122.2 283.774 121.83 283.87 121.381 283.87C121.016 283.87 120.704 283.796 120.443 283.646C120.183 283.491 119.97 283.278 119.804 283.007C119.638 282.747 119.517 282.44 119.439 282.086C119.362 281.732 119.323 281.355 119.323 280.957ZM130.986 285.506C131.861 285.506 132.605 285.334 133.219 284.991C133.839 284.648 134.298 284.26 134.597 283.829L133.535 282.8C133.258 283.154 132.907 283.428 132.481 283.621C132.055 283.809 131.595 283.904 131.103 283.904C130.743 283.904 130.411 283.843 130.107 283.721C129.808 283.599 129.548 283.428 129.326 283.206C129.105 282.996 128.931 282.758 128.803 282.492C128.676 282.227 128.582 281.898 128.521 281.505V281.463H134.747V280.608C134.747 279.966 134.661 279.374 134.489 278.832C134.318 278.289 134.063 277.822 133.726 277.429C133.388 277.042 132.97 276.74 132.472 276.524C131.974 276.303 131.402 276.192 130.754 276.192C130.173 276.192 129.625 276.303 129.111 276.524C128.601 276.74 128.153 277.05 127.766 277.454C127.378 277.858 127.074 278.345 126.853 278.915C126.631 279.485 126.521 280.121 126.521 280.824V281.164C126.521 281.779 126.626 282.351 126.836 282.883C127.052 283.408 127.356 283.865 127.749 284.252C128.142 284.645 128.612 284.952 129.16 285.174C129.714 285.395 130.322 285.506 130.986 285.506ZM130.746 277.802C131.078 277.802 131.368 277.861 131.617 277.977C131.872 278.087 132.082 278.237 132.248 278.425C132.42 278.619 132.553 278.846 132.647 279.106C132.741 279.36 132.788 279.618 132.788 279.878V280.01H128.563C128.624 279.667 128.718 279.36 128.845 279.089C128.972 278.818 129.13 278.586 129.318 278.392C129.506 278.204 129.719 278.06 129.957 277.96C130.201 277.855 130.464 277.802 130.746 277.802ZM138.242 285.34H140.235V277.844H143.563V276.358H140.235V275.81C140.235 275.495 140.273 275.218 140.351 274.98C140.434 274.742 140.556 274.543 140.716 274.383C140.888 274.211 141.106 274.081 141.372 273.992C141.643 273.904 141.964 273.86 142.335 273.86C142.689 273.86 143.004 273.882 143.281 273.926C143.563 273.97 143.815 274.023 144.036 274.084L144.194 272.498C144.028 272.465 143.865 272.435 143.704 272.407C143.544 272.374 143.386 272.346 143.231 272.324C143.043 272.296 142.849 272.274 142.65 272.258C142.456 272.235 142.257 272.224 142.052 272.224C141.471 272.224 140.946 272.302 140.475 272.457C140.01 272.612 139.612 272.839 139.28 273.137C138.948 273.442 138.691 273.818 138.508 274.266C138.331 274.709 138.242 275.224 138.242 275.81V276.358H135.835V277.844H138.242V285.34ZM150.91 285.34H152.936V285.198C152.825 284.966 152.739 284.689 152.678 284.368C152.623 284.042 152.595 283.677 152.595 283.273V279.28C152.595 278.771 152.501 278.323 152.313 277.935C152.125 277.542 151.865 277.219 151.533 276.964C151.201 276.71 150.805 276.519 150.346 276.391C149.892 276.259 149.402 276.192 148.877 276.192C148.29 276.192 147.767 276.27 147.308 276.425C146.854 276.574 146.472 276.779 146.162 277.039C145.841 277.293 145.598 277.587 145.432 277.919C145.266 278.251 145.18 278.597 145.175 278.956H147.167C147.167 278.785 147.197 278.624 147.258 278.475C147.324 278.32 147.424 278.19 147.557 278.085C147.69 277.969 147.856 277.877 148.055 277.811C148.26 277.744 148.498 277.711 148.769 277.711C149.068 277.711 149.33 277.75 149.557 277.827C149.79 277.899 149.986 278.004 150.147 278.143C150.296 278.281 150.41 278.444 150.487 278.633C150.57 278.821 150.612 279.031 150.612 279.263V279.869H149.167C148.52 279.869 147.939 279.93 147.424 280.052C146.915 280.174 146.486 280.351 146.137 280.583C145.761 280.832 145.473 281.148 145.274 281.53C145.08 281.906 144.984 282.34 144.984 282.833C144.984 283.215 145.058 283.572 145.208 283.904C145.363 284.23 145.578 284.51 145.855 284.742C146.126 284.98 146.453 285.168 146.835 285.306C147.222 285.439 147.648 285.506 148.113 285.506C148.401 285.506 148.669 285.478 148.918 285.423C149.167 285.367 149.4 285.29 149.615 285.19C149.831 285.096 150.025 284.985 150.196 284.858C150.374 284.725 150.531 284.587 150.67 284.443C150.697 284.615 150.728 284.781 150.761 284.941C150.8 285.096 150.849 285.229 150.91 285.34ZM148.495 283.912C148.24 283.912 148.019 283.881 147.831 283.821C147.643 283.754 147.485 283.666 147.358 283.555C147.23 283.444 147.133 283.311 147.067 283.156C147.001 282.996 146.967 282.824 146.967 282.642C146.967 282.42 147.006 282.221 147.084 282.044C147.167 281.867 147.291 281.715 147.457 281.588C147.645 281.438 147.897 281.325 148.213 281.247C148.528 281.164 148.902 281.123 149.333 281.123H150.612V282.783C150.54 282.927 150.437 283.065 150.304 283.198C150.172 283.331 150.014 283.45 149.831 283.555C149.649 283.66 149.444 283.746 149.217 283.812C148.996 283.879 148.755 283.912 148.495 283.912ZM160.25 285.34H162.051V276.358H160.059V282.717C159.981 282.883 159.887 283.035 159.777 283.173C159.666 283.306 159.539 283.422 159.395 283.522C159.223 283.632 159.024 283.721 158.797 283.787C158.57 283.848 158.313 283.879 158.025 283.879C157.748 283.879 157.508 283.843 157.303 283.771C157.098 283.699 156.929 283.577 156.797 283.406C156.664 283.24 156.567 283.018 156.506 282.741C156.445 282.459 156.415 282.111 156.415 281.696V276.358H154.431V281.679C154.431 282.354 154.506 282.935 154.655 283.422C154.804 283.904 155.015 284.299 155.286 284.609C155.563 284.919 155.892 285.149 156.274 285.298C156.661 285.442 157.087 285.514 157.552 285.514C158.094 285.514 158.584 285.389 159.021 285.14C159.458 284.886 159.829 284.534 160.134 284.086L160.25 285.34ZM163.936 272.59V274.241H166.775V283.696H163.936V285.34H171.498V283.696H168.776V272.59H163.936ZM176.729 274.167H174.737V276.358H172.562V277.844H174.737V282.26C174.737 282.836 174.811 283.328 174.961 283.738C175.116 284.147 175.329 284.482 175.6 284.742C175.871 285.008 176.195 285.204 176.571 285.331C176.953 285.453 177.371 285.514 177.824 285.514C178.073 285.514 178.323 285.5 178.572 285.472C178.826 285.45 179.07 285.417 179.302 285.373C179.534 285.329 179.75 285.276 179.949 285.215C180.154 285.149 180.329 285.071 180.472 284.983L180.257 283.613C180.157 283.635 180.032 283.663 179.883 283.696C179.739 283.724 179.584 283.749 179.418 283.771C179.247 283.798 179.07 283.821 178.887 283.837C178.704 283.854 178.527 283.862 178.356 283.862C178.118 283.862 177.899 283.834 177.7 283.779C177.501 283.724 177.329 283.63 177.185 283.497C177.041 283.37 176.928 283.195 176.845 282.974C176.768 282.747 176.729 282.468 176.729 282.135V277.844H180.107V276.358H176.729V274.167Z" fill="#8C84EA" />
    <path d="M192.743 280.426V280.567C192.743 281.358 192.804 282.1 192.926 282.791C193.047 283.477 193.211 284.114 193.415 284.7C193.62 285.293 193.858 285.829 194.129 286.311C194.406 286.798 194.696 287.229 195.001 287.606C195.305 287.982 195.615 288.3 195.93 288.56C196.246 288.826 196.55 289.031 196.844 289.175L197.242 288.062C197.021 287.891 196.799 287.678 196.578 287.423C196.357 287.169 196.144 286.875 195.939 286.543C195.745 286.217 195.56 285.84 195.383 285.414C195.211 284.988 195.059 284.526 194.926 284.028C194.821 283.613 194.73 283.109 194.652 282.517C194.575 281.92 194.536 281.275 194.536 280.583V280.409C194.536 279.701 194.575 279.042 194.652 278.433C194.735 277.825 194.846 277.268 194.984 276.765C195.134 276.228 195.311 275.733 195.515 275.279C195.726 274.825 195.95 274.43 196.188 274.092C196.359 273.854 196.534 273.641 196.711 273.453C196.888 273.265 197.065 273.104 197.242 272.971L196.844 271.818C196.55 271.962 196.246 272.166 195.93 272.432C195.615 272.692 195.308 273.01 195.009 273.386C194.705 273.763 194.414 274.194 194.137 274.681C193.866 275.168 193.626 275.702 193.415 276.283C193.211 276.876 193.047 277.52 192.926 278.218C192.804 278.909 192.743 279.645 192.743 280.426ZM206.963 288.353L207.196 287.191C206.891 287.191 206.642 287.108 206.449 286.942C206.255 286.781 206.1 286.571 205.984 286.311C205.867 286.051 205.787 285.76 205.743 285.439C205.704 285.118 205.685 284.8 205.685 284.485V283.107C205.679 282.448 205.519 281.87 205.203 281.372C204.894 280.868 204.404 280.486 203.734 280.226C204.398 279.961 204.888 279.576 205.203 279.073C205.524 278.563 205.685 277.98 205.685 277.321V275.943C205.685 275.628 205.693 275.309 205.71 274.989C205.732 274.668 205.793 274.377 205.892 274.117C205.992 273.857 206.144 273.647 206.349 273.486C206.554 273.32 206.836 273.237 207.196 273.237L206.963 272.083C206.415 272.089 205.945 272.199 205.552 272.415C205.165 272.626 204.852 272.899 204.614 273.237C204.337 273.608 204.135 274.037 204.008 274.524C203.881 275.011 203.817 275.484 203.817 275.943V277.321C203.817 278.09 203.637 278.644 203.278 278.981C202.923 279.319 202.378 279.488 201.642 279.488V280.957C202.378 280.957 202.923 281.126 203.278 281.463C203.637 281.801 203.817 282.349 203.817 283.107V284.485C203.817 284.922 203.878 285.367 204 285.821C204.122 286.28 204.312 286.695 204.573 287.066C204.827 287.442 205.154 287.747 205.552 287.979C205.951 288.217 206.421 288.342 206.963 288.353ZM222.886 285.506C223.76 285.506 224.505 285.334 225.119 284.991C225.739 284.648 226.198 284.26 226.497 283.829L225.434 282.8C225.158 283.154 224.806 283.428 224.38 283.621C223.954 283.809 223.495 283.904 223.002 283.904C222.643 283.904 222.311 283.843 222.006 283.721C221.707 283.599 221.447 283.428 221.226 283.206C221.005 282.996 220.83 282.758 220.703 282.492C220.576 282.227 220.482 281.898 220.421 281.505V281.463H226.646V280.608C226.646 279.966 226.561 279.374 226.389 278.832C226.217 278.289 225.963 277.822 225.625 277.429C225.288 277.042 224.87 276.74 224.372 276.524C223.874 276.303 223.301 276.192 222.654 276.192C222.073 276.192 221.525 276.303 221.01 276.524C220.501 276.74 220.053 277.05 219.665 277.454C219.278 277.858 218.974 278.345 218.752 278.915C218.531 279.485 218.42 280.121 218.42 280.824V281.164C218.42 281.779 218.525 282.351 218.736 282.883C218.952 283.408 219.256 283.865 219.649 284.252C220.042 284.645 220.512 284.952 221.06 285.174C221.613 285.395 222.222 285.506 222.886 285.506ZM222.645 277.802C222.977 277.802 223.268 277.861 223.517 277.977C223.772 278.087 223.982 278.237 224.148 278.425C224.319 278.619 224.452 278.846 224.546 279.106C224.64 279.36 224.687 279.618 224.687 279.878V280.01H220.462C220.523 279.667 220.617 279.36 220.744 279.089C220.872 278.818 221.029 278.586 221.218 278.392C221.406 278.204 221.619 278.06 221.857 277.96C222.1 277.855 222.363 277.802 222.645 277.802ZM230.823 285.34H232.574L236.094 276.358H234.035L231.835 282.874L231.703 283.472L231.57 282.874L229.345 276.358H227.286L230.823 285.34ZM241.266 285.506C242.14 285.506 242.885 285.334 243.499 284.991C244.119 284.648 244.578 284.26 244.877 283.829L243.814 282.8C243.538 283.154 243.186 283.428 242.76 283.621C242.334 283.809 241.875 283.904 241.382 283.904C241.023 283.904 240.691 283.843 240.386 283.721C240.087 283.599 239.827 283.428 239.606 283.206C239.385 282.996 239.21 282.758 239.083 282.492C238.956 282.227 238.862 281.898 238.801 281.505V281.463H245.026V280.608C245.026 279.966 244.941 279.374 244.769 278.832C244.597 278.289 244.343 277.822 244.005 277.429C243.668 277.042 243.25 276.74 242.752 276.524C242.254 276.303 241.681 276.192 241.034 276.192C240.453 276.192 239.905 276.303 239.39 276.524C238.881 276.74 238.433 277.05 238.045 277.454C237.658 277.858 237.354 278.345 237.132 278.915C236.911 279.485 236.8 280.121 236.8 280.824V281.164C236.8 281.779 236.905 282.351 237.116 282.883C237.331 283.408 237.636 283.865 238.029 284.252C238.422 284.645 238.892 284.952 239.44 285.174C239.993 285.395 240.602 285.506 241.266 285.506ZM241.025 277.802C241.357 277.802 241.648 277.861 241.897 277.977C242.151 278.087 242.362 278.237 242.528 278.425C242.699 278.619 242.832 278.846 242.926 279.106C243.02 279.36 243.067 279.618 243.067 279.878V280.01H238.842C238.903 279.667 238.997 279.36 239.124 279.089C239.252 278.818 239.409 278.586 239.598 278.392C239.786 278.204 239.999 278.06 240.237 277.96C240.48 277.855 240.743 277.802 241.025 277.802ZM246.264 285.34H248.248V278.931C248.337 278.782 248.439 278.644 248.555 278.516C248.671 278.389 248.796 278.281 248.929 278.193C249.1 278.076 249.291 277.988 249.501 277.927C249.712 277.861 249.939 277.827 250.182 277.827C250.475 277.827 250.735 277.861 250.962 277.927C251.189 277.988 251.383 278.093 251.543 278.242C251.704 278.392 251.826 278.591 251.909 278.84C251.992 279.089 252.033 279.399 252.033 279.77V285.34H254.017V279.737C254.017 279.106 253.942 278.569 253.793 278.126C253.643 277.678 253.433 277.31 253.162 277.022C252.891 276.734 252.564 276.524 252.183 276.391C251.801 276.259 251.38 276.192 250.921 276.192C250.572 276.192 250.24 276.242 249.925 276.342C249.609 276.441 249.319 276.582 249.053 276.765C248.887 276.881 248.729 277.014 248.58 277.163C248.436 277.307 248.303 277.465 248.182 277.636L248.057 276.358H246.264V285.34ZM259.438 274.167H257.446V276.358H255.271V277.844H257.446V282.26C257.446 282.836 257.521 283.328 257.67 283.738C257.825 284.147 258.038 284.482 258.31 284.742C258.581 285.008 258.904 285.204 259.281 285.331C259.663 285.453 260.08 285.514 260.534 285.514C260.783 285.514 261.032 285.5 261.281 285.472C261.536 285.45 261.779 285.417 262.012 285.373C262.244 285.329 262.46 285.276 262.659 285.215C262.864 285.149 263.038 285.071 263.182 284.983L262.966 283.613C262.867 283.635 262.742 283.663 262.593 283.696C262.449 283.724 262.294 283.749 262.128 283.771C261.956 283.798 261.779 283.821 261.597 283.837C261.414 283.854 261.237 283.862 261.065 283.862C260.827 283.862 260.609 283.834 260.41 283.779C260.21 283.724 260.039 283.63 259.895 283.497C259.751 283.37 259.638 283.195 259.555 282.974C259.477 282.747 259.438 282.468 259.438 282.135V277.844H262.817V276.358H259.438V274.167ZM269.019 285.082V283.406H267.068V285.157C267.068 285.705 267.001 286.197 266.869 286.635C266.741 287.072 266.559 287.487 266.321 287.88L267.433 288.469C267.909 288.043 268.291 287.52 268.579 286.9C268.872 286.286 269.019 285.68 269.019 285.082ZM297.95 285.34H299.975V285.198C299.864 284.966 299.779 284.689 299.718 284.368C299.662 284.042 299.635 283.677 299.635 283.273V279.28C299.635 278.771 299.541 278.323 299.353 277.935C299.164 277.542 298.904 277.219 298.572 276.964C298.24 276.71 297.845 276.519 297.385 276.391C296.931 276.259 296.442 276.192 295.916 276.192C295.329 276.192 294.806 276.27 294.347 276.425C293.893 276.574 293.512 276.779 293.202 277.039C292.881 277.293 292.637 277.587 292.471 277.919C292.305 278.251 292.219 278.597 292.214 278.956H294.206C294.206 278.785 294.237 278.624 294.297 278.475C294.364 278.32 294.463 278.19 294.596 278.085C294.729 277.969 294.895 277.877 295.094 277.811C295.299 277.744 295.537 277.711 295.808 277.711C296.107 277.711 296.37 277.75 296.597 277.827C296.829 277.899 297.026 278.004 297.186 278.143C297.335 278.281 297.449 278.444 297.526 278.633C297.609 278.821 297.651 279.031 297.651 279.263V279.869H296.207C295.559 279.869 294.978 279.93 294.463 280.052C293.954 280.174 293.525 280.351 293.177 280.583C292.8 280.832 292.513 281.148 292.313 281.53C292.12 281.906 292.023 282.34 292.023 282.833C292.023 283.215 292.098 283.572 292.247 283.904C292.402 284.23 292.618 284.51 292.895 284.742C293.166 284.98 293.492 285.168 293.874 285.306C294.261 285.439 294.688 285.506 295.152 285.506C295.44 285.506 295.709 285.478 295.958 285.423C296.207 285.367 296.439 285.29 296.655 285.19C296.871 285.096 297.064 284.985 297.236 284.858C297.413 284.725 297.571 284.587 297.709 284.443C297.737 284.615 297.767 284.781 297.8 284.941C297.839 285.096 297.889 285.229 297.95 285.34ZM295.534 283.912C295.28 283.912 295.058 283.881 294.87 283.821C294.682 283.754 294.524 283.666 294.397 283.555C294.27 283.444 294.173 283.311 294.106 283.156C294.04 282.996 294.007 282.824 294.007 282.642C294.007 282.42 294.046 282.221 294.123 282.044C294.206 281.867 294.331 281.715 294.497 281.588C294.685 281.438 294.937 281.325 295.252 281.247C295.567 281.164 295.941 281.123 296.373 281.123H297.651V282.783C297.579 282.927 297.477 283.065 297.344 283.198C297.211 283.331 297.053 283.45 296.871 283.555C296.688 283.66 296.483 283.746 296.256 283.812C296.035 283.879 295.794 283.912 295.534 283.912ZM305.314 283.912C304.898 283.912 304.553 283.829 304.276 283.663C303.999 283.497 303.781 283.275 303.62 282.999C303.454 282.733 303.335 282.426 303.263 282.077C303.197 281.723 303.164 281.364 303.164 280.998V280.708C303.164 280.348 303.197 279.994 303.263 279.645C303.335 279.297 303.457 278.987 303.628 278.716C303.789 278.444 304.005 278.226 304.276 278.06C304.553 277.888 304.898 277.802 305.314 277.802C305.585 277.802 305.836 277.85 306.069 277.944C306.307 278.038 306.512 278.165 306.683 278.325C306.849 278.486 306.976 278.674 307.065 278.89C307.159 279.106 307.206 279.335 307.206 279.579H309.074C309.079 279.081 308.988 278.624 308.8 278.209C308.617 277.794 308.36 277.437 308.028 277.138C307.696 276.84 307.297 276.607 306.833 276.441C306.373 276.275 305.872 276.192 305.33 276.192C304.644 276.192 304.041 276.314 303.521 276.557C303.006 276.795 302.574 277.119 302.226 277.529C301.877 277.938 301.614 278.417 301.437 278.965C301.266 279.512 301.18 280.094 301.18 280.708V280.998C301.18 281.618 301.268 282.202 301.445 282.75C301.622 283.292 301.885 283.768 302.234 284.177C302.577 284.587 303.006 284.913 303.521 285.157C304.041 285.395 304.647 285.514 305.338 285.514C305.836 285.514 306.31 285.434 306.758 285.273C307.212 285.107 307.613 284.88 307.961 284.593C308.305 284.316 308.576 283.987 308.775 283.605C308.98 283.217 309.079 282.805 309.074 282.368H307.206C307.206 282.595 307.154 282.802 307.048 282.99C306.949 283.179 306.813 283.342 306.642 283.48C306.465 283.619 306.26 283.726 306.027 283.804C305.801 283.876 305.563 283.912 305.314 283.912ZM314.578 274.167H312.586V276.358H310.411V277.844H312.586V282.26C312.586 282.836 312.661 283.328 312.81 283.738C312.965 284.147 313.178 284.482 313.449 284.742C313.72 285.008 314.044 285.204 314.42 285.331C314.802 285.453 315.22 285.514 315.674 285.514C315.923 285.514 316.172 285.5 316.421 285.472C316.676 285.45 316.919 285.417 317.151 285.373C317.384 285.329 317.6 285.276 317.799 285.215C318.004 285.149 318.178 285.071 318.322 284.983L318.106 283.613C318.006 283.635 317.882 283.663 317.732 283.696C317.589 283.724 317.434 283.749 317.268 283.771C317.096 283.798 316.919 283.821 316.736 283.837C316.554 283.854 316.377 283.862 316.205 283.862C315.967 283.862 315.749 283.834 315.549 283.779C315.35 283.724 315.179 283.63 315.035 283.497C314.891 283.37 314.777 283.195 314.694 282.974C314.617 282.747 314.578 282.468 314.578 282.135V277.844H317.957V276.358H314.578V274.167ZM320.24 276.358V278.01H323.004V283.696H320.24V285.34H327.645V283.696H325.005V276.358H320.24ZM322.822 274.034C322.822 274.244 322.872 274.43 322.971 274.59C323.076 274.745 323.229 274.853 323.428 274.914C323.622 274.975 323.799 274.989 323.959 274.955C324.12 274.922 324.258 274.853 324.374 274.748C324.607 274.687 324.784 274.568 324.905 274.391C325.027 274.208 325.069 273.995 325.03 273.752C325.002 273.514 324.894 273.32 324.706 273.171C324.524 273.016 324.283 272.938 323.984 272.938C323.807 272.938 323.646 272.966 323.503 273.021C323.364 273.071 323.245 273.143 323.146 273.237C323.04 273.337 322.96 273.456 322.905 273.594C322.85 273.727 322.822 273.873 322.822 274.034ZM328.608 280.766V280.94C328.608 281.599 328.703 282.205 328.891 282.758C329.079 283.311 329.353 283.793 329.712 284.202C330.067 284.612 330.504 284.933 331.024 285.165C331.544 285.398 332.134 285.514 332.792 285.514C333.445 285.514 334.029 285.398 334.544 285.165C335.064 284.933 335.501 284.612 335.855 284.202C336.209 283.793 336.48 283.311 336.669 282.758C336.857 282.205 336.951 281.599 336.951 280.94V280.766C336.951 280.113 336.857 279.51 336.669 278.956C336.48 278.397 336.209 277.913 335.855 277.504C335.495 277.094 335.055 276.773 334.535 276.541C334.021 276.308 333.434 276.192 332.775 276.192C332.117 276.192 331.53 276.308 331.016 276.541C330.501 276.773 330.067 277.094 329.712 277.504C329.353 277.913 329.079 278.397 328.891 278.956C328.703 279.51 328.608 280.113 328.608 280.766ZM330.592 280.94V280.766C330.592 280.373 330.634 279.997 330.717 279.637C330.805 279.277 330.941 278.962 331.124 278.691C331.301 278.42 331.525 278.204 331.796 278.043C332.073 277.883 332.399 277.802 332.775 277.802C333.157 277.802 333.484 277.883 333.755 278.043C334.032 278.204 334.261 278.42 334.444 278.691C334.615 278.962 334.746 279.277 334.834 279.637C334.923 279.997 334.967 280.373 334.967 280.766V280.94C334.967 281.344 334.923 281.726 334.834 282.086C334.751 282.445 334.621 282.761 334.444 283.032C334.267 283.303 334.04 283.519 333.763 283.679C333.487 283.834 333.163 283.912 332.792 283.912C332.41 283.912 332.081 283.834 331.804 283.679C331.528 283.519 331.301 283.303 331.124 283.032C330.941 282.761 330.805 282.445 330.717 282.086C330.634 281.726 330.592 281.344 330.592 280.94ZM338.164 285.34H340.148V278.931C340.236 278.782 340.339 278.644 340.455 278.516C340.571 278.389 340.695 278.281 340.828 278.193C341 278.076 341.191 277.988 341.401 277.927C341.611 277.861 341.838 277.827 342.082 277.827C342.375 277.827 342.635 277.861 342.862 277.927C343.089 277.988 343.283 278.093 343.443 278.242C343.603 278.392 343.725 278.591 343.808 278.84C343.891 279.089 343.933 279.399 343.933 279.77V285.34H345.917V279.737C345.917 279.106 345.842 278.569 345.693 278.126C345.543 277.678 345.333 277.31 345.062 277.022C344.79 276.734 344.464 276.524 344.082 276.391C343.7 276.259 343.28 276.192 342.82 276.192C342.472 276.192 342.14 276.242 341.824 276.342C341.509 276.441 341.218 276.582 340.953 276.765C340.787 276.881 340.629 277.014 340.48 277.163C340.336 277.307 340.203 277.465 340.081 277.636L339.957 276.358H338.164V285.34ZM357.98 287.191L358.22 288.353C358.763 288.347 359.233 288.226 359.632 287.988C360.03 287.75 360.356 287.442 360.611 287.066C360.86 286.701 361.048 286.289 361.175 285.829C361.303 285.37 361.366 284.922 361.366 284.485V283.107C361.366 282.797 361.397 282.523 361.458 282.285C361.519 282.041 361.61 281.837 361.732 281.671C361.903 281.422 362.138 281.242 362.437 281.131C362.736 281.015 363.104 280.957 363.541 280.957V279.488C363.11 279.488 362.742 279.432 362.437 279.322C362.133 279.205 361.898 279.028 361.732 278.79C361.604 278.619 361.51 278.411 361.449 278.168C361.394 277.924 361.366 277.642 361.366 277.321V275.943C361.366 275.506 361.308 275.058 361.192 274.598C361.081 274.134 360.896 273.716 360.636 273.345C360.387 272.969 360.063 272.667 359.665 272.44C359.272 272.208 358.79 272.089 358.22 272.083L357.988 273.237C358.348 273.237 358.63 273.32 358.835 273.486C359.039 273.647 359.192 273.857 359.291 274.117C359.385 274.377 359.443 274.668 359.465 274.989C359.493 275.309 359.507 275.628 359.507 275.943V277.321C359.507 277.725 359.562 278.104 359.673 278.458C359.789 278.807 359.966 279.12 360.204 279.396C360.354 279.568 360.525 279.726 360.719 279.869C360.918 280.008 361.139 280.127 361.383 280.226C361.106 280.343 360.86 280.484 360.644 280.65C360.434 280.81 360.254 280.993 360.105 281.198C359.9 281.458 359.748 281.751 359.648 282.077C359.554 282.398 359.507 282.741 359.507 283.107V284.485C359.507 284.8 359.482 285.118 359.432 285.439C359.388 285.76 359.308 286.051 359.192 286.311C359.075 286.571 358.918 286.781 358.718 286.942C358.525 287.108 358.278 287.191 357.98 287.191ZM371.652 280.567V280.426C371.652 279.634 371.588 278.901 371.461 278.226C371.334 277.545 371.168 276.912 370.963 276.325C370.758 275.733 370.518 275.196 370.241 274.715C369.964 274.228 369.668 273.79 369.353 273.403C369.048 273.027 368.733 272.706 368.406 272.44C368.085 272.169 367.776 271.962 367.477 271.818L367.087 272.93C367.258 273.063 367.432 273.229 367.61 273.428C367.792 273.622 367.966 273.843 368.133 274.092C368.37 274.441 368.597 274.853 368.813 275.329C369.035 275.805 369.223 276.342 369.378 276.939C369.494 277.399 369.591 277.919 369.668 278.5C369.746 279.081 369.784 279.717 369.784 280.409V280.583C369.784 281.253 369.748 281.875 369.676 282.451C369.61 283.026 369.516 283.558 369.394 284.045C369.267 284.57 369.109 285.049 368.921 285.481C368.738 285.918 368.542 286.308 368.332 286.651C368.133 286.961 367.928 287.235 367.717 287.473C367.507 287.711 367.297 287.907 367.087 288.062L367.477 289.175C367.776 289.031 368.085 288.826 368.406 288.56C368.727 288.295 369.043 287.968 369.353 287.581C369.663 287.205 369.956 286.773 370.233 286.286C370.509 285.799 370.753 285.259 370.963 284.667C371.173 284.081 371.339 283.444 371.461 282.758C371.588 282.072 371.652 281.341 371.652 280.567ZM377.397 284.144C377.397 284.526 377.522 284.85 377.771 285.115C378.025 285.376 378.379 285.506 378.833 285.506C379.281 285.506 379.633 285.376 379.887 285.115C380.147 284.855 380.278 284.532 380.278 284.144C380.278 283.757 380.15 283.43 379.896 283.165C379.641 282.894 379.287 282.758 378.833 282.758C378.368 282.758 378.011 282.894 377.762 283.165C377.519 283.436 377.397 283.762 377.397 284.144ZM386.587 284.144C386.587 284.526 386.712 284.85 386.961 285.115C387.215 285.376 387.569 285.506 388.023 285.506C388.471 285.506 388.823 285.376 389.077 285.115C389.337 284.855 389.467 284.532 389.467 284.144C389.467 283.757 389.34 283.43 389.086 283.165C388.831 282.894 388.477 282.758 388.023 282.758C387.558 282.758 387.201 282.894 386.952 283.165C386.709 283.436 386.587 283.762 386.587 284.144ZM395.777 284.144C395.777 284.526 395.902 284.85 396.151 285.115C396.405 285.376 396.759 285.506 397.213 285.506C397.661 285.506 398.013 285.376 398.267 285.115C398.527 284.855 398.657 284.532 398.657 284.144C398.657 283.757 398.53 283.43 398.276 283.165C398.021 282.894 397.667 282.758 397.213 282.758C396.748 282.758 396.391 282.894 396.142 283.165C395.899 283.436 395.777 283.762 395.777 284.144Z" fill="white" />
  </g>
  <path d="M56.2891 258.616C56.2891 258.464 56.2754 258.325 56.248 258.2C56.2207 258.075 56.1621 257.96 56.0723 257.854C55.9863 257.749 55.8594 257.643 55.6914 257.538C55.5273 257.432 55.3125 257.323 55.0469 257.21C54.7305 257.077 54.4238 256.936 54.127 256.788C53.8301 256.635 53.5625 256.46 53.3242 256.26C53.0859 256.061 52.8965 255.827 52.7559 255.557C52.6191 255.284 52.5508 254.964 52.5508 254.596C52.5508 254.237 52.6152 253.911 52.7441 253.618C52.877 253.325 53.0645 253.075 53.3066 252.868C53.5488 252.657 53.832 252.495 54.1562 252.382C54.4844 252.268 54.8496 252.212 55.252 252.212C55.7988 252.212 56.2715 252.325 56.6699 252.552C57.0723 252.778 57.3828 253.089 57.6016 253.483C57.8242 253.878 57.9355 254.331 57.9355 254.843H56.2246C56.2246 254.6 56.1895 254.387 56.1191 254.204C56.0527 254.016 55.9453 253.87 55.7969 253.764C55.6484 253.659 55.457 253.606 55.2227 253.606C55.0039 253.606 54.8223 253.651 54.6777 253.741C54.5371 253.827 54.4316 253.946 54.3613 254.098C54.2949 254.247 54.2617 254.415 54.2617 254.602C54.2617 254.743 54.2949 254.87 54.3613 254.983C54.4316 255.093 54.5273 255.192 54.6484 255.282C54.7695 255.368 54.9121 255.452 55.0762 255.534C55.2441 255.616 55.4277 255.696 55.627 255.774C56.0137 255.927 56.3555 256.094 56.6523 256.278C56.9492 256.458 57.1973 256.661 57.3965 256.887C57.5957 257.11 57.7461 257.362 57.8477 257.643C57.9492 257.925 58 258.245 58 258.604C58 258.96 57.9375 259.284 57.8125 259.577C57.6914 259.866 57.5137 260.116 57.2793 260.327C57.0449 260.534 56.7617 260.694 56.4297 260.807C56.1016 260.921 55.7344 260.977 55.3281 260.977C54.9336 260.977 54.5605 260.923 54.209 260.813C53.8574 260.7 53.5469 260.53 53.2773 260.303C53.0117 260.073 52.8027 259.782 52.6504 259.43C52.498 259.075 52.4219 258.655 52.4219 258.171H54.1387C54.1387 258.428 54.1641 258.649 54.2148 258.833C54.2656 259.012 54.3438 259.157 54.4492 259.266C54.5547 259.372 54.6836 259.452 54.8359 259.507C54.9922 259.557 55.1699 259.583 55.3691 259.583C55.5957 259.583 55.7754 259.54 55.9082 259.454C56.0449 259.368 56.1426 259.253 56.2012 259.108C56.2598 258.964 56.2891 258.8 56.2891 258.616ZM65.2527 259.442V260.86H61.5437V259.442H65.2527ZM62.077 252.329V260.86H60.3602V252.329H62.077ZM64.7547 255.786V257.163H61.5437V255.786H64.7547ZM65.241 252.329V253.753H61.5437V252.329H65.241ZM67.4605 252.329H70.1969C70.7672 252.329 71.2535 252.427 71.6559 252.622C72.0582 252.817 72.3668 253.106 72.5816 253.489C72.7965 253.872 72.9039 254.344 72.9039 254.907C72.9039 255.368 72.8414 255.762 72.7164 256.091C72.5914 256.415 72.4137 256.686 72.1832 256.905C71.9527 257.12 71.6773 257.292 71.357 257.421L70.8355 257.731H68.6148L68.609 256.307H70.15C70.3844 256.307 70.5777 256.257 70.7301 256.155C70.8863 256.05 71.0016 255.903 71.0758 255.716C71.1539 255.524 71.193 255.302 71.193 255.048C71.193 254.778 71.1578 254.548 71.0875 254.356C71.0211 254.161 70.9137 254.012 70.7652 253.911C70.6207 253.805 70.4312 253.753 70.1969 253.753H69.1773V260.86H67.4605V252.329ZM71.3336 260.86L69.7691 257.057L71.568 257.052L73.1676 260.778V260.86H71.3336ZM77.8363 259.038L79.4535 252.329H81.3051L78.8324 260.86H77.5844L77.8363 259.038ZM76.4535 252.329L78.0648 259.038L78.3285 260.86H77.0746L74.6195 252.329H76.4535ZM88.2121 259.442V260.86H84.5031V259.442H88.2121ZM85.0363 252.329V260.86H83.3195V252.329H85.0363ZM87.7141 255.786V257.163H84.5031V255.786H87.7141ZM88.2004 252.329V253.753H84.5031V252.329H88.2004ZM90.4199 252.329H93.1562C93.7266 252.329 94.2129 252.427 94.6152 252.622C95.0176 252.817 95.3262 253.106 95.541 253.489C95.7559 253.872 95.8633 254.344 95.8633 254.907C95.8633 255.368 95.8008 255.762 95.6758 256.091C95.5508 256.415 95.373 256.686 95.1426 256.905C94.9121 257.12 94.6367 257.292 94.3164 257.421L93.7949 257.731H91.5742L91.5684 256.307H93.1094C93.3438 256.307 93.5371 256.257 93.6895 256.155C93.8457 256.05 93.9609 255.903 94.0352 255.716C94.1133 255.524 94.1523 255.302 94.1523 255.048C94.1523 254.778 94.1172 254.548 94.0469 254.356C93.9805 254.161 93.873 254.012 93.7246 253.911C93.5801 253.805 93.3906 253.753 93.1562 253.753H92.1367V260.86H90.4199V252.329ZM94.293 260.86L92.7285 257.057L94.5273 257.052L96.127 260.778V260.86H94.293ZM102.993 259.442V260.86H99.448V259.442H102.993ZM99.9754 252.329V260.86H98.2586V252.329H99.9754ZM110.093 259.442V260.86H106.384V259.442H110.093ZM106.918 252.329V260.86H105.201V252.329H106.918ZM109.595 255.786V257.163H106.384V255.786H109.595ZM110.082 252.329V253.753H106.384V252.329H110.082ZM115.905 258.616C115.905 258.464 115.891 258.325 115.864 258.2C115.836 258.075 115.778 257.96 115.688 257.854C115.602 257.749 115.475 257.643 115.307 257.538C115.143 257.432 114.928 257.323 114.662 257.21C114.346 257.077 114.039 256.936 113.743 256.788C113.446 256.635 113.178 256.46 112.94 256.26C112.702 256.061 112.512 255.827 112.371 255.557C112.235 255.284 112.166 254.964 112.166 254.596C112.166 254.237 112.231 253.911 112.36 253.618C112.493 253.325 112.68 253.075 112.922 252.868C113.164 252.657 113.448 252.495 113.772 252.382C114.1 252.268 114.465 252.212 114.868 252.212C115.414 252.212 115.887 252.325 116.286 252.552C116.688 252.778 116.998 253.089 117.217 253.483C117.44 253.878 117.551 254.331 117.551 254.843H115.84C115.84 254.6 115.805 254.387 115.735 254.204C115.668 254.016 115.561 253.87 115.412 253.764C115.264 253.659 115.073 253.606 114.838 253.606C114.62 253.606 114.438 253.651 114.293 253.741C114.153 253.827 114.047 253.946 113.977 254.098C113.911 254.247 113.877 254.415 113.877 254.602C113.877 254.743 113.911 254.87 113.977 254.983C114.047 255.093 114.143 255.192 114.264 255.282C114.385 255.368 114.528 255.452 114.692 255.534C114.86 255.616 115.043 255.696 115.243 255.774C115.629 255.927 115.971 256.094 116.268 256.278C116.565 256.458 116.813 256.661 117.012 256.887C117.211 257.11 117.362 257.362 117.463 257.643C117.565 257.925 117.616 258.245 117.616 258.604C117.616 258.96 117.553 259.284 117.428 259.577C117.307 259.866 117.129 260.116 116.895 260.327C116.661 260.534 116.377 260.694 116.045 260.807C115.717 260.921 115.35 260.977 114.944 260.977C114.549 260.977 114.176 260.923 113.825 260.813C113.473 260.7 113.162 260.53 112.893 260.303C112.627 260.073 112.418 259.782 112.266 259.43C112.114 259.075 112.037 258.655 112.037 258.171H113.754C113.754 258.428 113.78 258.649 113.83 258.833C113.881 259.012 113.959 259.157 114.065 259.266C114.17 259.372 114.299 259.452 114.452 259.507C114.608 259.557 114.786 259.583 114.985 259.583C115.211 259.583 115.391 259.54 115.524 259.454C115.661 259.368 115.758 259.253 115.817 259.108C115.875 258.964 115.905 258.8 115.905 258.616ZM123.585 258.616C123.585 258.464 123.571 258.325 123.544 258.2C123.517 258.075 123.458 257.96 123.368 257.854C123.282 257.749 123.155 257.643 122.988 257.538C122.823 257.432 122.609 257.323 122.343 257.21C122.027 257.077 121.72 256.936 121.423 256.788C121.126 256.635 120.859 256.46 120.62 256.26C120.382 256.061 120.193 255.827 120.052 255.557C119.915 255.284 119.847 254.964 119.847 254.596C119.847 254.237 119.911 253.911 120.04 253.618C120.173 253.325 120.361 253.075 120.603 252.868C120.845 252.657 121.128 252.495 121.452 252.382C121.78 252.268 122.146 252.212 122.548 252.212C123.095 252.212 123.568 252.325 123.966 252.552C124.368 252.778 124.679 253.089 124.898 253.483C125.12 253.878 125.232 254.331 125.232 254.843H123.521C123.521 254.6 123.486 254.387 123.415 254.204C123.349 254.016 123.241 253.87 123.093 253.764C122.945 253.659 122.753 253.606 122.519 253.606C122.3 253.606 122.118 253.651 121.974 253.741C121.833 253.827 121.728 253.946 121.657 254.098C121.591 254.247 121.558 254.415 121.558 254.602C121.558 254.743 121.591 254.87 121.657 254.983C121.728 255.093 121.823 255.192 121.945 255.282C122.066 255.368 122.208 255.452 122.372 255.534C122.54 255.616 122.724 255.696 122.923 255.774C123.31 255.927 123.652 256.094 123.948 256.278C124.245 256.458 124.493 256.661 124.693 256.887C124.892 257.11 125.042 257.362 125.144 257.643C125.245 257.925 125.296 258.245 125.296 258.604C125.296 258.96 125.234 259.284 125.109 259.577C124.988 259.866 124.81 260.116 124.575 260.327C124.341 260.534 124.058 260.694 123.726 260.807C123.398 260.921 123.03 260.977 122.624 260.977C122.23 260.977 121.857 260.923 121.505 260.813C121.154 260.7 120.843 260.53 120.573 260.303C120.308 260.073 120.099 259.782 119.946 259.43C119.794 259.075 119.718 258.655 119.718 258.171H121.435C121.435 258.428 121.46 258.649 121.511 258.833C121.562 259.012 121.64 259.157 121.745 259.266C121.851 259.372 121.98 259.452 122.132 259.507C122.288 259.557 122.466 259.583 122.665 259.583C122.892 259.583 123.071 259.54 123.204 259.454C123.341 259.368 123.439 259.253 123.497 259.108C123.556 258.964 123.585 258.8 123.585 258.616ZM133.339 252.329V260.86H131.622V252.329H133.339ZM136.011 255.956V257.374H132.905V255.956H136.011ZM136.339 252.329V253.753H132.905V252.329H136.339ZM142.373 252.329H144.084V258.188C144.084 258.844 143.963 259.38 143.72 259.794C143.482 260.204 143.152 260.505 142.73 260.696C142.308 260.884 141.826 260.977 141.283 260.977C140.736 260.977 140.25 260.884 139.824 260.696C139.398 260.505 139.066 260.204 138.828 259.794C138.593 259.38 138.476 258.844 138.476 258.188V252.329H140.187V258.188C140.187 258.559 140.228 258.844 140.31 259.044C140.396 259.243 140.519 259.38 140.679 259.454C140.843 259.524 141.045 259.559 141.283 259.559C141.525 259.559 141.724 259.524 141.88 259.454C142.041 259.38 142.162 259.243 142.244 259.044C142.33 258.844 142.373 258.559 142.373 258.188V252.329ZM152.561 252.329V260.86H150.903L148.225 255.522V260.86H146.596V252.329H148.231L150.932 257.725V252.329H152.561ZM159.21 258.018H160.915C160.892 258.659 160.763 259.2 160.529 259.641C160.294 260.079 159.96 260.411 159.527 260.637C159.097 260.864 158.577 260.977 157.968 260.977C157.495 260.977 157.075 260.899 156.708 260.743C156.341 260.583 156.029 260.348 155.771 260.04C155.513 259.731 155.318 259.35 155.185 258.897C155.056 258.44 154.991 257.915 154.991 257.321V255.874C154.991 255.28 155.06 254.755 155.196 254.298C155.337 253.841 155.536 253.458 155.794 253.149C156.056 252.837 156.37 252.602 156.738 252.446C157.109 252.286 157.527 252.206 157.991 252.206C158.613 252.206 159.132 252.323 159.55 252.557C159.968 252.792 160.29 253.134 160.517 253.583C160.747 254.028 160.886 254.573 160.933 255.218H159.222C159.21 254.811 159.163 254.493 159.081 254.262C159.003 254.028 158.878 253.864 158.706 253.77C158.534 253.673 158.296 253.624 157.991 253.624C157.765 253.624 157.57 253.665 157.405 253.747C157.241 253.825 157.107 253.952 157.001 254.128C156.896 254.303 156.818 254.534 156.767 254.819C156.72 255.104 156.696 255.452 156.696 255.862V257.321C156.696 257.723 156.718 258.067 156.761 258.352C156.804 258.634 156.872 258.864 156.966 259.044C157.06 259.223 157.187 259.354 157.347 259.436C157.511 259.518 157.718 259.559 157.968 259.559C158.257 259.559 158.489 259.516 158.665 259.43C158.845 259.344 158.978 259.19 159.064 258.968C159.15 258.745 159.198 258.428 159.21 258.018ZM166.41 252.329V260.86H164.705V252.329H166.41ZM168.531 252.329V253.753H162.625V252.329H168.531ZM172.509 252.329V260.86H170.804V252.329H172.509ZM181.168 255.932V257.356C181.168 257.958 181.093 258.485 180.945 258.938C180.8 259.387 180.593 259.764 180.324 260.069C180.058 260.37 179.736 260.596 179.357 260.749C178.982 260.901 178.566 260.977 178.109 260.977C177.652 260.977 177.234 260.901 176.855 260.749C176.48 260.596 176.156 260.37 175.882 260.069C175.613 259.764 175.404 259.387 175.255 258.938C175.107 258.485 175.033 257.958 175.033 257.356V255.932C175.033 255.315 175.105 254.776 175.25 254.315C175.394 253.85 175.603 253.464 175.877 253.155C176.15 252.843 176.474 252.608 176.849 252.452C177.224 252.292 177.64 252.212 178.097 252.212C178.554 252.212 178.97 252.292 179.345 252.452C179.72 252.608 180.045 252.843 180.318 253.155C180.591 253.464 180.8 253.85 180.945 254.315C181.093 254.776 181.168 255.315 181.168 255.932ZM179.463 257.356V255.921C179.463 255.514 179.433 255.169 179.375 254.884C179.316 254.594 179.228 254.358 179.111 254.175C178.994 253.991 178.851 253.856 178.683 253.77C178.515 253.684 178.32 253.641 178.097 253.641C177.875 253.641 177.677 253.684 177.505 253.77C177.338 253.856 177.195 253.991 177.078 254.175C176.964 254.358 176.879 254.594 176.82 254.884C176.765 255.169 176.738 255.514 176.738 255.921V257.356C176.738 257.747 176.767 258.081 176.826 258.358C176.884 258.635 176.972 258.862 177.089 259.038C177.207 259.214 177.349 259.344 177.517 259.43C177.689 259.512 177.886 259.553 178.109 259.553C178.328 259.553 178.521 259.512 178.689 259.43C178.861 259.344 179.004 259.214 179.117 259.038C179.23 258.862 179.316 258.635 179.375 258.358C179.433 258.081 179.463 257.747 179.463 257.356ZM189.58 252.329V260.86H187.922L185.245 255.522V260.86H183.616V252.329H185.25L187.952 257.725V252.329H189.58Z" fill="white" />
  <circle cx="405.578" cy="239.12" r="3.88434" fill="#95DD7B" />
  <defs>
    <filter id="filter0_d_179_6851" x="239.061" y="94.9375" width="92.207" height="92.2073" filterUnits="userSpaceOnUse" color-interpolation-filters="sRGB">
      <feFlood flood-opacity="0" result="BackgroundImageFix" />
      <feColorMatrix in="SourceAlpha" type="matrix" values="0 0 0 0 0 0 0 0 0 0 0 0 0 0 0 0 0 0 127 0" result="hardAlpha" />
      <feOffset />
      <feGaussianBlur stdDeviation="8" />
      <feComposite in2="hardAlpha" operator="out" />
      <feColorMatrix type="matrix" values="0 0 0 0 0.27451 0 0 0 0 0.211765 0 0 0 0 0.960784 0 0 0 1 0" />
      <feBlend mode="normal" in2="BackgroundImageFix" result="effect1_dropShadow_179_6851" />
      <feBlend mode="normal" in="SourceGraphic" in2="effect1_dropShadow_179_6851" result="shape" />
    </filter>
    <filter id="filter1_d_179_6851" x="105.05" y="102.706" width="111.629" height="111.629" filterUnits="userSpaceOnUse" color-interpolation-filters="sRGB">
      <feFlood flood-opacity="0" result="BackgroundImageFix" />
      <feColorMatrix in="SourceAlpha" type="matrix" values="0 0 0 0 0 0 0 0 0 0 0 0 0 0 0 0 0 0 127 0" result="hardAlpha" />
      <feOffset />
      <feGaussianBlur stdDeviation="8" />
      <feComposite in2="hardAlpha" operator="out" />
      <feColorMatrix type="matrix" values="0 0 0 0 0.00392157 0 0 0 0 0.00392157 0 0 0 0 0.00392157 0 0 0 1 0" />
      <feBlend mode="normal" in2="BackgroundImageFix" result="effect1_dropShadow_179_6851" />
      <feBlend mode="normal" in="SourceGraphic" in2="effect1_dropShadow_179_6851" result="shape" />
    </filter>
    <filter id="filter2_d_179_6851" x="151.402" y="0.481934" width="143.224" height="143.224" filterUnits="userSpaceOnUse" color-interpolation-filters="sRGB">
      <feFlood flood-opacity="0" result="BackgroundImageFix" />
      <feColorMatrix in="SourceAlpha" type="matrix" values="0 0 0 0 0 0 0 0 0 0 0 0 0 0 0 0 0 0 127 0" result="hardAlpha" />
      <feOffset />
      <feGaussianBlur stdDeviation="12.5" />
      <feComposite in2="hardAlpha" operator="out" />
      <feColorMatrix type="matrix" values="0 0 0 0 0.960784 0 0 0 0 0.752941 0 0 0 0 0.211765 0 0 0 1 0" />
      <feBlend mode="normal" in2="BackgroundImageFix" result="effect1_dropShadow_179_6851" />
      <feBlend mode="normal" in="SourceGraphic" in2="effect1_dropShadow_179_6851" result="shape" />
    </filter>
    <filter id="filter3_d_179_6851" x="0" y="197.699" width="447" height="143.051" filterUnits="userSpaceOnUse" color-interpolation-filters="sRGB">
      <feFlood flood-opacity="0" result="BackgroundImageFix" />
      <feColorMatrix in="SourceAlpha" type="matrix" values="0 0 0 0 0 0 0 0 0 0 0 0 0 0 0 0 0 0 127 0" result="hardAlpha" />
      <feOffset />
      <feGaussianBlur stdDeviation="10" />
      <feComposite in2="hardAlpha" operator="out" />
      <feColorMatrix type="matrix" values="0 0 0 0 0 0 0 0 0 0 0 0 0 0 0 0 0 0 0.25 0" />
      <feBlend mode="normal" in2="BackgroundImageFix" result="effect1_dropShadow_179_6851" />
      <feBlend mode="normal" in="SourceGraphic" in2="effect1_dropShadow_179_6851" result="shape" />
    </filter>
    <filter id="filter4_d_179_6851" x="53.001" y="271.818" width="345.656" height="18.3569" filterUnits="userSpaceOnUse" color-interpolation-filters="sRGB">
      <feFlood flood-opacity="0" result="BackgroundImageFix" />
      <feColorMatrix in="SourceAlpha" type="matrix" values="0 0 0 0 0 0 0 0 0 0 0 0 0 0 0 0 0 0 127 0" result="hardAlpha" />
      <feOffset dy="1" />
      <feComposite in2="hardAlpha" operator="out" />
      <feColorMatrix type="matrix" values="0 0 0 0 0 0 0 0 0 0 0 0 0 0 0 0 0 0 1 0" />
      <feBlend mode="normal" in2="BackgroundImageFix" result="effect1_dropShadow_179_6851" />
      <feBlend mode="normal" in="SourceGraphic" in2="effect1_dropShadow_179_6851" result="shape" />
    </filter>
    <linearGradient id="paint0_linear_179_6851" x1="223.986" y1="283.79" x2="221.23" y2="117.1" gradientUnits="userSpaceOnUse">
      <stop offset="1" stop-color="#F5C036" />
    </linearGradient>
    <linearGradient id="paint1_linear_179_6851" x1="175.733" y1="275.051" x2="194.64" y2="379.264" gradientUnits="userSpaceOnUse">
      <stop />
      <stop offset="1" stop-color="#302B2B" />
    </linearGradient>
  </defs>
</svg>