<svg width="80" height="71" viewBox="0 0 80 71" fill="none" xmlns="http://www.w3.org/2000/svg">
  <path d="M12.6365 31.7803C12.5107 31.7803 12.4793 31.7174 12.5422 31.6231L13.2023 30.7744C13.2652 30.6801 13.4223 30.6172 13.5481 30.6172H24.7701C24.8958 30.6172 24.9272 30.7115 24.8644 30.8058L24.33 31.6231C24.2671 31.7174 24.11 31.8117 24.0157 31.8117L12.6365 31.7803Z" fill="white" />
  <path d="M7.8899 34.6719C7.76416 34.6719 7.73273 34.609 7.79559 34.5147L8.45571 33.666C8.51858 33.5717 8.67575 33.5088 8.80149 33.5088H23.1355C23.2612 33.5088 23.3241 33.6031 23.2926 33.6974L23.0412 34.4518C23.0097 34.5776 22.884 34.6404 22.7583 34.6404L7.8899 34.6719Z" fill="white" />
  <path d="M15.4968 37.5639C15.3711 37.5639 15.3397 37.4696 15.4025 37.3753L15.8426 36.5895C15.9055 36.4952 16.0312 36.4009 16.1569 36.4009H22.4438C22.5695 36.4009 22.6324 36.4952 22.6324 36.6209L22.5695 37.3753C22.5695 37.5011 22.4438 37.5954 22.3495 37.5954L15.4968 37.5639Z" fill="white" />
  <path d="M48.1256 31.2143C46.1452 31.7172 44.7935 32.0944 42.8446 32.5974C42.3731 32.7231 42.3417 32.7545 41.933 32.283C41.4615 31.7486 41.1157 31.4029 40.4556 31.0885C38.4753 30.1141 36.5578 30.397 34.766 31.56C32.6285 32.9431 31.5283 34.9864 31.5597 37.5325C31.5912 40.0473 33.3201 42.1219 35.8034 42.4677C37.9409 42.7506 39.7326 41.9962 41.1472 40.3931C41.4301 40.0473 41.6816 39.6701 41.9959 39.23C40.8643 39.23 39.4497 39.23 35.9291 39.23C35.269 39.23 35.1118 38.8213 35.3319 38.287C35.7405 37.3125 36.4949 35.6779 36.935 34.8606C37.0293 34.672 37.2493 34.3577 37.7208 34.3577C39.324 34.3577 45.2336 34.3577 49.1629 34.3577C49.1 35.2064 49.1 36.0551 48.9743 36.9039C48.6285 39.1671 47.7798 41.2418 46.3967 43.065C44.1334 46.0512 41.1786 47.9058 37.4379 48.4088C34.3574 48.8174 31.4969 48.2202 28.9821 46.3341C26.656 44.5738 25.3358 42.2477 24.99 39.3557C24.5814 35.9294 25.5873 32.8488 27.6619 30.1455C29.8937 27.2221 32.8485 25.3675 36.4635 24.7074C39.4183 24.173 42.2474 24.5188 44.7935 26.2477C46.4596 27.3479 47.6541 28.8567 48.4399 30.6799C48.6285 30.9628 48.5028 31.12 48.1256 31.2143Z" fill="white" />
  <path d="M58.5303 48.5973C55.6698 48.5344 53.0607 47.7172 50.8603 45.8311C49.0057 44.228 47.8426 42.1847 47.4654 39.7643C46.8996 36.2122 47.8741 33.0688 50.0116 30.2712C52.3063 27.2535 55.0725 25.6818 58.8132 25.0217C62.0195 24.4559 65.0371 24.7702 67.7719 26.6248C70.2552 28.3223 71.7955 30.617 72.2041 33.6346C72.7385 37.8783 71.5126 41.336 68.5892 44.2908C66.5145 46.3969 63.9684 47.7172 61.045 48.3144C60.1963 48.4716 59.3476 48.503 58.5303 48.5973ZM66.0116 35.8979C65.9802 35.4893 65.9802 35.1749 65.9173 34.8606C65.3515 31.7486 62.491 29.9883 59.5047 30.6798C56.5813 31.3399 54.6953 33.1946 54.0037 36.1494C53.4379 38.6012 54.6324 41.0845 56.8957 42.0904C58.6246 42.8449 60.3534 42.7506 62.0195 41.9018C64.5028 40.613 65.8544 38.6012 66.0116 35.8979Z" fill="white" />
</svg>